<?xml version="1.0" encoding="UTF-8"?>
<svg xmlns="http://www.w3.org/2000/svg" version="1.1" viewBox="0 0 152.53 40.67">
  <!-- Generator: Adobe Illustrator 29.6.1, SVG Export Plug-In . SVG Version: 2.1.1 Build 9)  -->
  <defs>
    <style>
      .st0 {
        isolation: isolate;
      }

      .st1 {
        fill: #3e3a39;
      }

      .st2 {
        mix-blend-mode: multiply;
      }
    </style>
  </defs>
  <g class="st0">
    <g id="_圖層_1" data-name="圖層_1">
      <g class="st2">
        <g>
          <path class="st1" d="M148.45,26.15l-7.83-11.58c1.38-.33,7.02-1.8,7.02-7.16s-5.17-7.41-12.81-7.41h-39.19v.78c3.8,0,4.37.66,4.37,4.27v3.49c0,2.79-2.26,5.04-5.04,5.04h-8.89c-2.79,0-5.04-2.26-5.04-5.04v-3.49c0-3.61.57-4.27,4.27-4.27v-.78h-49.18v.78c3.8,0,4.37.66,4.37,4.27h0c0,.07,0,5.53,0,5.53-.71,1.02-1.54,1.97-2.52,2.73-1.32,1.01-2.86,1.68-4.48,2.02-1.59.33-3.25.34-4.84.03-1.79-.35-3.49-1.12-4.9-2.3-.87-.72-1.6-1.61-2.25-2.53v-5.48c0-3.61.57-4.27,4.27-4.27v-.78h-14.74C3.96,0,.71,3.28.71,7.13c0,9.96,16.42,7.18,16.42,15.72,0,4.18-4.01,5.69-7.24,5.69-5.79,0-8.47-5.99-9.18-7.94h-.71c.14,1.57.28,6.79,1.23,7.64,1,.9,6.19,1.08,8.28,1.08.67,0,4.56,0,5.48,0h10.92v-.79c-3.84,0-4.41-.44-4.41-4.04v-10.37c.55.26,1.1.51,1.65.73,2.39.93,4.9,1.43,7.41,1.48.17,0,.34,0,.51,0,.03,0,.07,0,.1,0,.06,0,.12,0,.19,0,2.01-.04,4.02-.36,5.97-.99.85-.26,1.74-.62,2.56-.98.19-.08.38-.17.58-.27,0,0,0,0,.01,0v.72h0v9.68c0,3.61-.57,4.04-4.6,4.04v.79h49.56v-.79c-3.84,0-4.41-.66-4.41-4.27v-4.8c0-2.79,2.26-5.04,5.04-5.04h8.89c2.79,0,5.04,2.26,5.04,5.04v4.8c0,3.61-.57,4.27-4.6,4.27v.79h41.75v-.79c-3.56,0-4.13-.66-4.13-4.27v-8.98h0c2.57,0,4.97,1.31,6.36,3.47l5.93,9.2c1.04,1.61,1.52,1.37,1.95,1.37h5.27v-.79c-1.66,0-2.85-.53-4.08-2.38ZM17.42,15.21c-4.57-3.38-13.2-3.47-13.2-9.08C4.22,2.67,7.95.78,10.27.78c1.79,0,3.74.58,5.01,2.01,1.43,1.61,2.14,3.72,2.14,5.87v6.55ZM50.43,26.2c0,1.29-1.05,2.34-2.34,2.34h-1.19c-1.29,0-2.34-1.05-2.34-2.34V3.12c0-1.29,1.05-2.34,2.34-2.34h1.19c1.29,0,2.34,1.05,2.34,2.34v23.07ZM76.95,24.49v.04c0,2.07-1.58,3.81-3.64,3.98-.5.04-1.04.06-1.66.06h-14.04c-2.33,0-3.04-.38-3.04-1.99v-7.07c0-2.7,2.19-5.28,4.89-5.28h.43c3.42,0,4.22,1.29,4.74,4.99h1.04v-10.34h-1.04c-.71,3.51-1.09,4.52-5.17,4.52h0c-2.7,0-4.89-2.58-4.89-5.28V2.68c0-1.66.43-1.9,2.8-1.9h11.86c.53,0,1.05.06,1.55.18,3.65.81,6.17,4.16,6.17,7.89v15.64ZM110.22,26.14c0,1.32-1.07,2.39-2.39,2.39h-1.35c-1.32,0-2.39-1.07-2.39-2.39V3.18c0-1.32,1.07-2.39,2.39-2.39h1.35c1.32,0,2.39,1.07,2.39,2.39v22.97ZM128.95,24.46v.04c0,2.07-1.57,3.8-3.63,3.98-.51.04-1.08.06-1.72.06h-6.26c-2.33,0-3.04-.38-3.04-1.99V2.68h0c0-1.66.43-1.9,2.8-1.9h4.08c2.21,0,3.65.37,4.81,1.09,1.98,1.23,3.12,3.47,3.11,5.81-.01,5.55-.15,10.77-.15,16.78ZM133.03,14.15V3.25c.01-1.9.49-2.47,3.14-2.47,3.65,0,7.1,2.17,7.1,6.53,0,5.41-3.04,6.83-10.25,6.83Z"/>
          <polygon class="st1" points="29.47 20.41 29.48 21.8 30.98 23.22 32.49 21.8 32.49 20.41 30.98 17.99 29.47 20.41"/>
          <polygon class="st1" points="123.76 15.59 126 13.74 123.76 11.9 114.31 13.74 114.3 13.74 114.31 13.75 123.76 15.59"/>
        </g>
        <g>
          <path class="st1" d="M45.64,40.54c.81-.32.92-1.02.92-2.33v-3.27c0-.62-.1-.74-.6-.74v-.16h2.01v.16c-.6,0-.7.11-.7.74v3.24c0,1.31-.29,2.16-1.62,2.49v-.13Z"/>
          <path class="st1" d="M88.17,39.06c.67,0,.76-.11.77-.73.02-1.06.03-2.2.03-3.38,0-.62-.1-.74-.72-.74v-.16h3.93l.17.93h-.13c-.38-.47-.6-.73-1.37-.73h-.7c-.41,0-.48.04-.48.33v1.78h.84c.7,0,.77-.11.89-.71h.18v1.78h-.18c-.09-.64-.23-.79-.82-.79h-.91v2.06c0,.28.12.34.52.34h1.08c.78,0,.93-.15,1.45-1.02h.15c-.08.21-.21.96-.28,1.27h-4.43v-.21Z"/>
          <path class="st1" d="M59.18,34.05v.16c-.39,0-.54.11-.54.46,0,.38.21.78.42,1.28l.86,2.13,1-2.75-.26-.67c-.15-.38-.25-.44-.62-.45v-.16h2.02v.16c-.51,0-.67.16-.67.38,0,.33.5,1.4,1.19,3.55h.02c.25-.66,1.16-2.9,1.16-3.51,0-.31-.2-.38-.6-.42v-.16h1.71v.16c-.29.02-.51.08-.69.57l-1.76,4.51h-.11c-.25-.93-.91-2.43-1.23-3.54h-.02c-.41,1.14-.9,2.37-1.31,3.54h-.08l-1.71-4.42c-.2-.51-.32-.64-.65-.66v-.16h1.89Z"/>
          <path class="st1" d="M67.14,39.06c.67,0,.76-.11.77-.73.02-1.06.03-2.2.03-3.38,0-.62-.1-.74-.72-.74v-.16h3.93l.17.93h-.13c-.38-.47-.6-.73-1.37-.73h-.7c-.41,0-.48.04-.48.33v1.78h.84c.7,0,.77-.11.89-.71h.18v1.78h-.18c-.09-.64-.23-.79-.82-.79h-.91v2.06c0,.28.12.34.52.34h1.08c.78,0,.93-.15,1.45-1.02h.15c-.08.21-.21.96-.28,1.27h-4.43v-.21Z"/>
          <path class="st1" d="M78.8,37.96l-.26,1.31h-4.47v-.21c.71,0,.81-.11.81-.73v-3.38c0-.62-.1-.74-.68-.74v-.16h2.18v.16c-.7,0-.8.11-.8.74v3.38c0,.63.06.7.53.7h.64c.68,0,1.4-.2,1.87-1.06h.19Z"/>
          <path class="st1" d="M85.73,37.96l-.26,1.31h-4.47v-.21c.71,0,.81-.11.81-.73v-3.38c0-.62-.1-.74-.68-.74v-.16h2.18v.16c-.7,0-.8.11-.8.74v3.38c0,.63.06.7.53.7h.64c.68,0,1.4-.2,1.87-1.06h.19Z"/>
          <path class="st1" d="M51.64,35.82c-.05.2-.09.42-.09.77,0,1.16.7,2.18,1.92,2.18.52,0,.94-.18,1.51-.57l.16.21c-.59.47-1.16.89-2.01.89-1.55,0-2.49-1.33-2.49-2.48,0-1.64,1.15-2.76,2.52-2.76,1.1,0,1.96.9,1.96,1.71,0,.05-.04.07-.13.07h-3.34ZM54.2,35.51c-.05-.7-.51-1.2-1.17-1.2-.76,0-1.17.61-1.32,1.2h2.49Z"/>
          <path class="st1" d="M95.39,39.06c.59,0,.69-.11.69-.73,0-1.21.03-2.24.02-3.38,0-.62-.1-.74-.6-.74v-.16h1.58c1.31,0,2.2.4,2.2,1.34s-.97,1.18-1.21,1.23l1.35,1.99c.21.32.42.45.7.45v.21h-.91c-.07,0-.15-.07-.33-.35l-1.4-2.18h-.71v1.58c0,.62.1.73.71.73v.21h-2.1v-.21ZM96.78,36.54c1.24,0,1.76-.24,1.76-1.18,0-.75-.6-1.13-1.22-1.13-.46,0-.54.1-.54.42v1.88Z"/>
          <path class="st1" d="M103.9,34.05v.16c-.36,0-.51.1-.51.24,0,.25.33.69,1.2,2.11.88-1.4,1.23-1.75,1.23-2.08,0-.19-.11-.27-.43-.27v-.16h1.49v.16c-.27.02-.47.11-.86.65l-1.35,1.93v1.53c0,.69.11.73.83.73v.21h-2.37v-.21c.72,0,.83-.04.83-.73v-1.54l-1.37-2.06c-.29-.42-.42-.46-.69-.52v-.16h1.98Z"/>
        </g>
      </g>
    </g>
  </g>
</svg>