<?xml version="1.0" encoding="UTF-8"?>
<svg id="_圖層_1" data-name="圖層_1" xmlns="http://www.w3.org/2000/svg" version="1.1" viewBox="0 0 94.76 85.08">
  <!-- Generator: Adobe Illustrator 29.6.1, SVG Export Plug-In . SVG Version: 2.1.1 Build 9)  -->
  <g>
    <path d="M69.67,61.58c-5.8,3.93-11.59,7.87-17.37,11.78,5.74,3.89,11.42,7.74,17.23,11.68-.3.02-.45.03-.61.03-1.86,0-3.71,0-5.57,0-.39,0-.71-.11-1.03-.32-4.02-2.66-8.04-5.31-12.07-7.96-.12-.08-.25-.15-.41-.24-.17.48-.07.95-.09,1.4-.02.47,0,.95,0,1.42,0,.47,0,.95,0,1.42v2.78c0,.47,0,.94,0,1.45h-4.73v-18.84c-.23-.01-.39-.03-.55-.03-1.96,0-3.92-.02-5.87.03-.88.02-1.77,0-2.64.25-2.43.72-3.97,2.37-4.77,4.7-.98,2.84-.14,5.26,1.88,7.35,1.31,1.36,2.97,1.95,4.84,1.99,1.2.03,2.39,0,3.59.01.2,0,.4,0,.64,0v4.52c-.15.02-.31.04-.47.04-1.34,0-2.68.02-4.02,0-3.73-.07-6.8-1.59-9.1-4.49-1.65-2.08-2.48-4.5-2.48-7.22,0-2.83.88-5.3,2.65-7.46,1.97-2.42,4.52-3.85,7.64-4.2.67-.08,1.35-.12,2.03-.12,3.59-.01,7.17,0,10.76,0,.18,0,.36.02.59.03v8.52c.24-.12.4-.19.54-.28,3.45-2.28,6.9-4.57,10.35-6.86.6-.4,1.2-.81,1.81-1.19.18-.11.41-.2.62-.21,2.06-.01,6.38-.02,6.61-.02Z"/>
    <path d="M94.76,61.58v23.46h-4.7v-18.84c-.25-.01-.43-.03-.61-.03-1.92,0-3.84-.01-5.75.03-.9.02-1.81,0-2.7.26-2.6.78-4.19,2.58-4.9,5.11-.82,2.93.23,5.33,2.41,7.31,1.23,1.12,2.74,1.56,4.37,1.61,1.22.04,2.43.01,3.65.02.2,0,.4.02.64.03v4.5c-.16.01-.32.04-.48.04-1.36,0-2.72.03-4.08,0-3.71-.09-6.75-1.61-9.03-4.5-1.63-2.07-2.46-4.46-2.47-7.16-.01-2.9.9-5.42,2.73-7.62,1.95-2.35,4.46-3.74,7.5-4.09.67-.08,1.35-.12,2.03-.12,3.63-.01,7.26,0,10.89,0,.14,0,.28,0,.5,0Z"/>
    <path d="M23.66,85.05h-4.73c0-.24,0-7.6,0-11.06,0-1.16-.15-2.3-.59-3.38-.98-2.38-2.83-3.71-5.27-4.32-2.88-.72-7.37,1.37-8.11,5.69-.13.77-.19,1.56-.19,2.33-.02,3.32,0,10.44,0,10.73H.04c-.01-.13-.06-7.82-.03-11.51.01-2.06.39-4.06,1.46-5.87,1.8-3.06,4.39-5.13,7.91-5.81,4.82-.93,8.81.61,11.91,4.4,1.25,1.53,1.96,3.33,2.2,5.29.11.92.16,1.85.16,2.77.02,3.32,0,10.44,0,10.73Z"/>
  </g>
  <g>
    <path d="M48.09,52.62c-14.51,0-26.31-11.8-26.31-26.31S33.58,0,48.09,0s26.31,11.8,26.31,26.31-11.8,26.31-26.31,26.31ZM48.09,1.98c-13.41,0-24.33,10.91-24.33,24.33s10.91,24.33,24.33,24.33,24.33-10.91,24.33-24.33S61.5,1.98,48.09,1.98Z"/>
    <g>
      <rect x="28.42" y="23.75" width="4.52" height="13.56"/>
      <polygon points="62.61 37.3 68.38 37.3 59.15 27.92 54.05 27.92 67.22 16.23 61 16.23 52.18 23.95 52.18 16.23 47.53 16.23 47.53 34.04 33.67 16.23 28.4 16.23 44.86 37.3 52.18 37.3 52.18 29.53 53.69 28.24 62.61 37.3"/>
    </g>
  </g>
</svg>