<?xml version="1.0" encoding="UTF-8"?>
<svg id="_圖層_1" data-name="圖層_1" xmlns="http://www.w3.org/2000/svg" version="1.1" viewBox="0 0 92.48 96.76">
  <!-- Generator: Adobe Illustrator 29.6.1, SVG Export Plug-In . SVG Version: 2.1.1 Build 9)  -->
  <defs>
    <style>
      .st0 {
        fill: #040000;
      }
    </style>
  </defs>
  <path class="st0" d="M3.63,79.14c-.31-.19-.56-.09-.75.28-.56,1.3-1.46,2.36-2.7,3.17l-.19.19c0,.06.06.16.19.28.37.25.71.28,1.03.09.99-.99,1.8-2.08,2.42-3.26.31-.43.31-.68,0-.75Z"/>
  <path class="st0" d="M20.87,84.45c.06-.19,0-.25-.19-.19-5.03-.12-9.44-.78-13.23-1.96-.93-.12-1.18-1.15-.75-3.08.06-.31-.03-.5-.28-.56-.31.06-.5.25-.56.56-.62,2.36-.19,3.67,1.3,3.91,3.91,1.12,7.98,1.77,12.21,1.96.87.12,1.37-.09,1.49-.65Z"/>
  <path class="st0" d="M16.12,79.42c-.5.87-1.03,1.68-1.58,2.42-.19.25-.19.47,0,.65.19.19.4.16.65-.09.68-.81,1.24-1.68,1.68-2.61.19-.31.12-.53-.19-.65-.25-.12-.44-.03-.56.28Z"/>
  <path class="st0" d="M11.27,78.21c-.25-.12-.44,0-.56.37-.06.62-.31,1.46-.75,2.52-.06.31.03.53.28.65.31,0,.5-.15.56-.47.43-1.06.71-1.92.84-2.61.06-.37-.06-.53-.37-.47Z"/>
  <path class="st0" d="M14.07,77.27h1.86c.93.06,1.49-.43,1.68-1.49.12-1.61.12-3.54,0-5.78-.19-.81-.65-1.24-1.4-1.3-4.41-.19-8.48-.19-12.2,0-.68.13-1.06.59-1.12,1.4-.19,1.8-.22,3.79-.09,5.96.12.87.59,1.27,1.4,1.21,1.74-.06,4.1-.09,7.08-.09.75,0,1.68.03,2.8.09ZM9.78,76.25c-1.18.06-2.92.09-5.22.09-.56.13-.84-.15-.84-.84-.06-.56-.09-1.27-.09-2.14,2.11-.12,4.16-.19,6.15-.19v3.07ZM9.78,72.34c-2.05,0-4.1.06-6.15.19,0-.87.03-1.58.09-2.14,0-.56.25-.84.75-.84.62-.06,2.39-.09,5.31-.09v2.89ZM10.62,69.45c2.67,0,4.41.03,5.22.09.56,0,.87.28.93.84v.84c.06.56.09.99.09,1.3-2.11-.12-4.19-.19-6.24-.19v-2.89ZM10.62,73.18c2.05,0,4.13.06,6.24.19,0,.31-.03.75-.09,1.3v.84c-.06.62-.37.9-.93.84h-1.96c-1.18-.06-2.05-.09-2.61-.09h-.65v-3.07Z"/>
  <path class="st0" d="M27.39,81.28c-.25-.12-.47-.12-.65,0-.19.13-.22.28-.09.47.5.62.9,1.27,1.21,1.96.19.25.4.31.65.19.19-.19.22-.4.09-.65-.37-.62-.78-1.27-1.21-1.96Z"/>
  <path class="st0" d="M33.26,74.57c.68.06,1.03-.12,1.03-.56.12-1.43.12-2.7,0-3.82-.06-.56-.4-.84-1.03-.84-2.92-.19-5.75-.19-8.48,0-.56.06-.87.37-.93.93v3.63c.06.5.34.71.84.65,1.12-.06,2.42-.09,3.91-.09v1.58c-.44,0-1.09.03-1.96.09h-1.68c-.44.06-.71.28-.84.65-.13.19,0,.28.37.28,1.3-.19,2.67-.28,4.1-.28v1.96c-1.55.06-3.14.22-4.75.47-.31,0-.47.22-.47.65,0,.25.09.37.28.37,2.42-.43,5.78-.75,10.06-.93.43-.06.65-.28.65-.65.06-.19,0-.28-.19-.28-.87.06-2.42.16-4.66.28v-1.86c1.06,0,2.2.06,3.45.19.37,0,.62-.12.75-.37.12-.31.03-.47-.28-.47-1.3-.06-2.61-.09-3.91-.09v-1.58c1.68,0,2.92.03,3.73.09ZM29.53,69.91c.37.06.9.09,1.58.09.68.06,1.21.09,1.58.09h.09c.43.13.68.4.75.84v1.86c0,.68-.25.99-.75.93-.68-.06-1.77-.09-3.26-.09v-3.73ZM28.6,73.64c-1.18.06-2.18.09-2.98.09h-.37c-.31,0-.5-.22-.56-.65v-2.24c0-.5.22-.75.65-.75h.09c1.12-.06,2.17-.09,3.17-.09v3.63Z"/>
  <path class="st0" d="M25.34,81.19c-.25-.12-.44-.06-.56.19-.44.87-1.03,1.65-1.77,2.33-.25.19-.28.34-.09.47.43.19.81.13,1.12-.19.31-.25.75-.87,1.3-1.86.06-.12.12-.22.19-.28.19-.37.12-.59-.19-.65Z"/>
  <path class="st0" d="M32.61,70.66c-.25-.12-.44-.09-.56.09-.37.56-.93,1.15-1.68,1.77-.19.19-.19.37,0,.56.19.13.37.09.56-.09.62-.56,1.15-1.09,1.58-1.58.25-.37.28-.62.09-.75Z"/>
  <path class="st0" d="M25.44,71.5c.12.19.34.44.65.75.31.37.53.62.65.75.19.19.4.25.65.19.19-.12.19-.31,0-.56-.13-.12-.28-.31-.47-.56-.37-.43-.68-.81-.93-1.12-.25-.12-.44-.12-.56,0-.25.25-.25.44,0,.56Z"/>
  <path class="st0" d="M41.55,70.47c-.25-.25-.5-.28-.75-.09-.19.13-.19.31,0,.56.81.75,1.46,1.46,1.96,2.14.19.19.4.22.65.09.19-.12.22-.31.09-.56-.56-.75-1.21-1.46-1.96-2.14Z"/>
  <path class="st0" d="M39.22,75.23c1.12,0,2.61.06,4.47.19.56.06.87-.09.93-.47.12-.25.03-.4-.28-.47h-1.96c-1.3-.06-2.33-.09-3.07-.09.19-1.61.25-3.48.19-5.59,0-.25-.13-.37-.37-.37-.31,0-.47.13-.47.37,0,2.11-.06,3.98-.19,5.59h-1.68c-.81.06-1.4.09-1.77.09-.31.13-.56.37-.75.75,0,.25.12.34.37.28,1.18-.12,2.42-.19,3.73-.19-.56,4.6-2.3,7.58-5.22,8.94-.19.13-.28.22-.28.28s.06.13.19.19c.37.25.81.25,1.3,0,2.48-1.43,4.04-4.07,4.66-7.92,1.12,3.29,2.7,5.9,4.75,7.83.43.25.84.28,1.21.09.25-.19.28-.37.09-.56-2.49-1.49-4.44-4.47-5.87-8.94Z"/>
  <path class="st0" d="M30.09,81.19c-.13-.19-.31-.22-.56-.09-.19.06-.22.25-.09.56.5.56.93,1.18,1.3,1.86.12.25.31.31.56.19.25-.12.28-.31.09-.56-.25-.56-.68-1.21-1.3-1.96Z"/>
  <path class="st0" d="M34.01,83.33c.19-.19.22-.4.09-.65-.5-.75-.93-1.3-1.3-1.68-.19-.25-.37-.28-.56-.09-.19.06-.22.25-.09.56.5.56.93,1.15,1.3,1.77.19.25.37.28.56.09Z"/>
  <path class="st0" d="M60.19,74.2h-5.5v-2.42c1.3,0,2.52.03,3.63.09.5,0,.78-.19.84-.56.12-.12.03-.22-.28-.28h-.09c-.5,0-1.21-.03-2.14-.09h-1.96v-2.14c0-.43-.13-.65-.37-.65s-.37.22-.37.65v2.24c-.99,0-1.96.03-2.89.09.12-.19.28-.4.47-.65.19-.31.31-.53.37-.65.19-.31.15-.56-.09-.75-.31-.19-.53-.12-.65.19-.93,1.68-2.05,2.92-3.35,3.73-.31.19-.37.34-.19.47.43.37.84.4,1.21.09.62-.5,1.15-1.06,1.58-1.68.43,0,1.02-.03,1.77-.09h1.77v2.42c-2.67,0-4.63.03-5.87.09-.44-.06-.68.09-.75.47-.06.31.06.47.37.47,1.8-.12,3.88-.19,6.24-.19v1.96c-.37,0-.93.03-1.68.09-.75,0-1.3.03-1.68.09-.56.13-.81.44-.75.93.12,2.73-.34,4.47-1.4,5.22l-.09.09c0,.06.06.13.19.19.37.31.65.34.84.09,1.06-.99,1.49-2.61,1.3-4.84-.06-.62.19-.9.75-.84.75-.12,1.58-.19,2.52-.19v6.61c0,.31.12.47.37.47s.37-.15.37-.47v-6.71c1.49,0,2.45.03,2.89.09.43-.06.62.19.56.75v4.66c0,.37.15.56.47.56.31.06.47-.09.47-.47v-5.31c0-.56-.28-.87-.84-.93-.62-.06-1.8-.09-3.54-.09v-1.96c2.05-.12,3.79-.12,5.22,0,.56.13.9-.03,1.02-.47.12-.19-.13-.31-.75-.37Z"/>
  <path class="st0" d="M67.55,69.45v-.93c0-.31-.16-.47-.47-.47-.25,0-.37.13-.37.37.19,3.35.22,6.93.09,10.71.37,2.86-1.34,4.44-5.12,4.75-.37.06-.47.22-.28.47.25.44.62.59,1.12.47,3.73-.87,5.43-2.73,5.12-5.59.06-2.3.03-5.56-.09-9.78Z"/>
  <path class="st0" d="M62.42,71.41v8.11c0,.37.12.56.37.56.31,0,.47-.19.47-.56v-8.2c-.13-.37-.28-.56-.47-.56-.25,0-.37.22-.37.65Z"/>
  <path class="st0" d="M92.14,71.87c-2.11-.12-4.19-.19-6.24-.19-1.93,0-3.51.03-4.75.09.75-.99,1.27-1.77,1.58-2.33.12-.25.22-.43.28-.56.25-.31.15-.56-.28-.75-.31-.12-.53-.03-.65.28-1.12,2.55-2.73,4.63-4.84,6.24-.13.13-.19.22-.19.28,0,.13.09.22.28.28.43.19.84.06,1.21-.37.87-.81,1.52-1.55,1.96-2.24h1.12v12.3c0,.12.15.22.47.28.25-.06.37-.16.37-.28v-4.38c3.17,0,5.53.09,7.08.28.62.06.93-.09.93-.47.06-.19.09-.31.09-.37s-.09-.09-.28-.09c-.44,0-1.09-.03-1.96-.09-2.55-.06-4.5-.09-5.87-.09v-3.07c2.36-.12,4.66-.06,6.89.19.56.06.87-.06.93-.37v-.09c.06-.25-.03-.4-.28-.47h-.09c-1.99-.06-3.45-.09-4.38-.09-1.12-.06-2.14-.06-3.08,0v-3.26h3.54c2.48,0,4.35.09,5.59.28.5.13.78-.06.84-.56.12-.25.03-.37-.28-.37Z"/>
  <path class="st0" d="M70.44,75.04c-.25.19-.28.34-.09.47.43.31.87.34,1.3.09,1.06-.75,2.08-1.65,3.07-2.7v11.83c0,.25.15.37.47.37.25,0,.37-.13.37-.37v-12.76c.93-1.06,1.77-2.14,2.52-3.26.12-.25.06-.47-.19-.65-.25-.12-.44-.06-.56.19-1.99,3.04-4.29,5.31-6.89,6.8Z"/>
  <path class="st0" d="M14.22,30.37l5.37-4.69v32.14h-2.08v1.24h13.23v3.79h1.24v-3.79h38.29v3.79h1.24v-3.79h2.89v-1.24h-2.89V24.98l2.51,2,.77-.97-3.28-2.61v-5.37h-1.24v4.38l-9.17-7.3-.77.97,9.94,7.91v33.83h-6.32v-5.15h2.87v-1.24h-2.87v-4.91h-1.24v4.91h-30.73v-17.64l23.96-20.95v13.84l-5.76,5.55h2.84c.4.95,1.44,2.22,3.44,2.22,2.32,0,3.42-1.56,3.79-2.22h2.68l-5.75-5.52v-14.95l4.47-3.91-.81-.93-4.28,3.74-10.06-8.5,1.4-1.23L47.07,0l-1.55,1.35-1.61-1.36-.8.95,1.46,1.24-23.76,20.77v-4.93h-1.24v6.01l-6.18,5.4.81.93ZM56.46,33.22c-1.1,0-1.71-.51-2.04-.98h4.31c-.43.47-1.15.98-2.27.98ZM59.84,31h-6.6l3.29-3.18,3.31,3.18ZM62.7,57.83h-30.73v-5.15h30.73v5.15ZM55.6,11.49l-28.45,24.87.81.93,2.76-2.41v16.55h-2.25v1.24h2.25v5.15h-9.91V24.6L45.54,2.99l10.06,8.5Z"/>
  <path class="st0" d="M22.33,91.85c.35-1.27.2-1.91-.46-1.91h-6.13c-.4,0-.59.18-.59.53v1.19c.13.18.26.18.4,0v-1.05c0-.18.09-.26.26-.26h6c.35.04.4.51.13,1.38.09.22.22.26.4.13Z"/>
  <path class="st0" d="M22.6,96.26h-3.63v-1.19h2.97c.18-.13.18-.26,0-.4h-2.97v-1.05c.83-.04,1.56-.09,2.18-.13.13.18.29.4.46.66.26.04.37-.04.33-.26-.4-.61-.9-1.23-1.52-1.85-.26-.04-.37.04-.33.26.22.22.48.51.79.86-1.45.09-2.75.13-3.89.13.53-.48.97-1.05,1.32-1.71h3.3c.18-.13.18-.26,0-.4h-5.67c-.18.13-.18.26,0,.4h1.91c-.31.57-.79,1.12-1.45,1.65-.18.35-.07.51.33.46.4,0,1.01-.02,1.85-.07v1.05h-2.83c-.18.13-.18.26,0,.4h2.83v1.19h-3.3c-.18.13-.18.26,0,.4h7.32c.18-.13.18-.26,0-.4Z"/>
  <path class="st0" d="M18.77,89.87c.26,0,.35-.11.26-.33-.22-.26-.51-.55-.86-.86-.22,0-.31.11-.26.33.31.26.59.55.86.86Z"/>
  <rect class="st0" x="27.9" y="88.29" width=".2" height="8.4"/>
  <path class="st0" d="M40.52,91.26c.04-.57-.24-.86-.86-.86h-2.44c-.13-.75-.42-1.25-.86-1.52-.35-.04-.44.07-.26.33.35.22.57.62.66,1.19h-2.04c-.62,0-.92.33-.92.99v5.07c.09.22.22.22.4,0v-5.14c0-.35.18-.53.53-.53h2.11c-.18,1.45-.97,2.62-2.37,3.49-.18.22-.13.35.13.4,1.45-.92,2.28-2,2.5-3.23.57,1.45,1.36,2.55,2.37,3.3.31.04.42-.07.33-.33-1.14-.88-1.98-2.09-2.5-3.63h2.37c.35,0,.51.15.46.46v4.42c.09.7-.46.73-1.65.07-.31,0-.37.13-.2.4.66.4,1.19.57,1.58.53.48.04.7-.29.66-.99v-4.42Z"/>
  <rect class="st0" x="46.29" y="88.29" width=".2" height="8.4"/>
  <path class="st0" d="M56.94,89.01v.99h-1.58c-.18.18-.18.31,0,.4h1.58v1.58h-1.45c-.18.13-.18.26,0,.4h3.43c.18-.13.18-.26,0-.4h-1.58v-1.58h1.85c.18-.13.18-.26,0-.4h-1.85v-.99c-.13-.22-.26-.22-.4,0Z"/>
  <path class="st0" d="M59.44,96.07c-.57-.04-1.21-.29-1.91-.72.4-.31.75-.64,1.05-.99,0-.22-.11-.31-.33-.26-.26.4-.62.72-1.05.99-.48-.35-.86-.79-1.12-1.32h3.16c.18-.13.18-.26,0-.4h-3.23c-.13-.31-.26-.55-.4-.72-.22-.09-.33-.02-.33.2.09.13.18.31.26.53h-3.36c-.22.13-.22.26,0,.4h2.57c-1.05.92-2.04,1.49-2.97,1.71-.18.18-.13.31.13.4.79-.22,1.52-.57,2.18-1.05v1.38c.04.7.79.66,2.24-.13.09-.22.02-.33-.2-.33-1.1.57-1.65.7-1.65.4v-1.65c.35-.31.62-.55.79-.72h.4c.7,1.49,1.96,2.39,3.76,2.7.18-.13.18-.26,0-.4Z"/>
  <path class="st0" d="M52.26,91.12c-.13.13-.13.26,0,.4h.86c0,.44-.29.86-.86,1.25-.09.22-.02.33.2.33.66-.44,1.01-.97,1.05-1.58h1.12v1.32c.13.18.26.18.4,0v-3.82c-.13-.22-.26-.22-.4,0v1.05h-1.25c-.22.04-.33-.07-.33-.33v-.59c-.13-.22-.26-.22-.4,0v.66c0,.48.22.7.66.66h1.32v.66h-2.37Z"/>
  <rect class="st0" x="64.68" y="88.29" width=".2" height="8.4"/>
  <path class="st0" d="M75.72,91.78c.83-.75,1.27-1.36,1.32-1.85.04-.31-.11-.46-.46-.46h-2.44l.2-.4c-.04-.22-.18-.26-.4-.13-.35.84-.79,1.54-1.32,2.11-.04.26.04.35.26.26.35-.35.64-.7.86-1.05.4.66.81,1.16,1.25,1.52-.66.44-1.43.73-2.31.86-.13.22-.09.35.13.4.97-.18,1.82-.51,2.57-.99.88.57,1.69.86,2.44.86.18-.09.2-.22.07-.4-.75-.04-1.47-.29-2.18-.73ZM75.33,91.52c-.44-.31-.88-.86-1.32-1.65h2.37c.18,0,.24.07.2.2-.13.44-.55.92-1.25,1.45Z"/>
  <path class="st0" d="M75.39,92.64c-.62.66-1.38,1.05-2.31,1.19-.18.13-.18.26,0,.4,1.01-.09,1.89-.53,2.64-1.32,0-.22-.11-.31-.33-.26Z"/>
  <path class="st0" d="M73.15,95.54c1.54-.18,2.77-.79,3.69-1.85,0-.26-.11-.35-.33-.26-.75.88-1.87,1.45-3.36,1.71-.18.13-.18.26,0,.4Z"/>
  <path class="st0" d="M77.44,94.15c-.79,1.41-2.33,2.13-4.61,2.18-.18.13-.18.26,0,.4,2.5-.04,4.17-.86,5.01-2.44-.09-.22-.22-.26-.4-.13Z"/>
  <path class="st0" d="M71.37,89.08c-.18,1.49-.64,2.79-1.38,3.89,0,.22.11.29.33.2.18-.18.35-.46.53-.86v4.28c.13.22.26.22.4,0v-5.14c.31-.97.48-1.74.53-2.31-.09-.22-.22-.24-.4-.07Z"/>
  <path class="st0" d="M71.97,90.4v4.94c.13.22.26.22.4,0v-4.94c-.13-.18-.26-.18-.4,0Z"/>
</svg>