<?xml version="1.0" encoding="UTF-8"?>
<svg id="_圖層_1" data-name="圖層_1" xmlns="http://www.w3.org/2000/svg" version="1.1" viewBox="0 0 156.61 18.86">
  <!-- Generator: Adobe Illustrator 29.6.1, SVG Export Plug-In . SVG Version: 2.1.1 Build 9)  -->
  <path d="M0,16.47h7.88v-.46H1.31v-1.39h6.57v-.46l-6.11.08-.15-1.31h1.93c.41-.21.85-.46,1.31-.77h-2.55v-.7H.39v-2.78h17.93v2.78h-1.93v.7h-1.93l2.94,1.16-1.55,1.31h1.7v1.39h-6.73v.46h7.88v1.7H0v-1.7ZM7.81.08h3.09v1h7.58v1.7h-7.58v.46h6.42v1.39H1.31v-1.39h6.49v-.46H.23v-1.7h7.58V.08ZM1.86,8.19v-3.09h15v3.09H1.86ZM3.09,10.2v.54h12.52v-.54H3.09ZM4.87,6.34v.54h8.97v-.54H4.87ZM7.42,12.91l4.17-.15-1.24-.62h-1.7c-.46.31-.88.57-1.24.77ZM14.15,14.07h-3.32v.54h4.41l-1.08-.54Z"/>
  <path d="M27.44.08h3.32v3.17h6.88v10.74h-3.25v-1.08h-3.63v5.8h-3.32v-5.8h-3.56v1.08h-3.32V3.25h6.88V.08ZM23.89,6.26v3.63h3.56v-3.63h-3.56ZM34.4,6.26h-3.63v3.63h3.63v-3.63Z"/>
  <path d="M47.39,0h3.25v2.32h7.42v2.86h-18.24v-2.86h7.58V0ZM40.89,16.7V7.19h6.49v-1.62h3.25v1.62h6.57v6.42c.05,2.01-.9,2.99-2.86,2.94-.77.05-1.73.08-2.86.08-.21-1.08-.41-2.04-.62-2.86.72.05,1.42.08,2.09.08.82.05,1.21-.31,1.16-1.08v-2.71h-3.48v8.58h-3.25v-8.58h-3.4v6.65h-3.09Z"/>
  <path d="M59.52,17.86l-.31-3.09h.46c.21-.05.39-.08.54-.08V6.34h2.71v8.04h.46c.21-.05.39-.08.54-.08V4.1h-4.17V1.24h9.2v2.86h-2.24v3.56h1.16c0-.05-.03-.13-.08-.23,0-.1-.03-.18-.08-.23,1.34-1.75,2.32-4.12,2.94-7.11l3.17.54c-.21.77-.44,1.5-.7,2.16h4.95v2.86h-.93c-.31,3.09-1.08,5.62-2.32,7.58.93.88,2.06,1.62,3.4,2.24-.57.98-1.08,2.01-1.55,3.09-1.55-.93-2.81-1.91-3.79-2.94-1.08.98-2.42,2.01-4.02,3.09-.15-.21-.39-.52-.7-.93-.31-.46-.54-.8-.7-1-.88.15-2.19.33-3.94.54-1.75.26-3.09.44-4.02.54ZM68.26,10.44h-1.55v3.56c.72-.05,1.42-.15,2.09-.31-.05.46-.08.93-.08,1.39.98-.62,1.78-1.26,2.4-1.93-.62-1.13-1.08-2.4-1.39-3.79-.1.1-.23.28-.39.54-.21.26-.36.46-.46.62-.05-.1-.1-.28-.15-.54-.15-.31-.31-.77-.46-1.39v1.86ZM71.66,6.11c.26,1.75.7,3.27,1.31,4.56.77-1.44,1.21-3.12,1.31-5.02h-2.4c-.05.15-.13.31-.23.46Z"/>
  <path d="M91.06.15v1.7h6.73v2.78h-11.05l2.09.77c-.36.77-.75,1.55-1.16,2.32v10.82h-2.94v-6.42c-.31.36-.62.75-.93,1.16l-.54-1.24c-.21,2.73-.75,4.95-1.62,6.65-.41-.36-1.06-.85-1.93-1.47-.26-.21-.46-.36-.62-.46.98-1.86,1.44-4.61,1.39-8.27V1.86h7.34V.15h3.25ZM83.33,8.81v.77c1.08-1.49,1.93-3.14,2.55-4.95h-2.55v4.17ZM90.13,10.05c.93,1.08,1.75,2.19,2.47,3.32l-2.32,1.47c-.36-.62-.93-1.52-1.7-2.71-.26-.36-.44-.62-.54-.77l2.09-1.31ZM88.28,7.03h4.95v-2.01h3.01v2.01h1.7v2.71h-1.7v5.41c.1,2.11-.88,3.19-2.94,3.25-.46,0-1.13.03-2.01.08h-1.31c-.1-.98-.31-1.85-.62-2.63h2.71c.88.1,1.26-.31,1.16-1.24v-4.87h-4.95v-2.71Z"/>
  <path d="M108.22,13.53c0,.98.03,1.93.08,2.86-.57.1-1.39.31-2.47.62-2.47.72-4.38,1.29-5.72,1.7l-1-2.55c.36-.15.77-.26,1.24-.31V.85h16.23v7.11h-5.33l.15,1.55h6.18v2.78h-5.57c.26.83.57,1.55.93,2.16.31.52.64.77,1,.77.31,0,.54-.26.7-.77.15-.62.26-1.24.31-1.85.88.41,1.83.77,2.86,1.08-.26,1.24-.52,2.22-.77,2.94-.52,1.29-1.44,1.93-2.78,1.93-1.7.05-3.01-.67-3.94-2.16-.72-1.13-1.26-2.5-1.62-4.1h-5.1v2.63c.72-.21,1.85-.54,3.4-1,.51-.15.93-.28,1.24-.39ZM103.58,3.63v1.55h9.82v-1.55h-9.82ZM108.15,9.51l-.16-1.55h-4.41v1.55h4.56Z"/>
  <path d="M118.89,17.86l-.31-3.09h.46c.21-.05.39-.08.54-.08V6.34h2.71v8.04h.46c.21-.05.39-.08.54-.08V4.1h-4.17V1.24h9.2v2.86h-2.24v3.56h1.16c0-.05-.03-.13-.08-.23,0-.1-.03-.18-.08-.23,1.34-1.75,2.32-4.12,2.94-7.11l3.17.54c-.21.77-.44,1.5-.7,2.16h4.95v2.86h-.93c-.31,3.09-1.08,5.62-2.32,7.58.93.88,2.06,1.62,3.4,2.24-.57.98-1.08,2.01-1.55,3.09-1.55-.93-2.81-1.91-3.79-2.94-1.08.98-2.42,2.01-4.02,3.09-.15-.21-.39-.52-.7-.93-.31-.46-.54-.8-.7-1-.88.15-2.19.33-3.94.54-1.75.26-3.09.44-4.02.54ZM127.62,10.44h-1.55v3.56c.72-.05,1.42-.15,2.09-.31-.05.46-.08.93-.08,1.39.98-.62,1.78-1.26,2.4-1.93-.62-1.13-1.08-2.4-1.39-3.79-.1.1-.23.28-.39.54-.21.26-.36.46-.46.62-.05-.1-.1-.28-.15-.54-.15-.31-.31-.77-.46-1.39v1.86ZM131.03,6.11c.26,1.75.7,3.27,1.31,4.56.77-1.44,1.21-3.12,1.31-5.02h-2.4c-.05.15-.13.31-.23.46Z"/>
  <path d="M143.55,11.13h8.66v4.56c.88.1,1.31-.36,1.31-1.39,0-1.91.03-3.25.08-4.02h-10.67c0,3.09-.72,5.95-2.16,8.58-.16-.21-.44-.54-.85-1-.62-.72-1.08-1.21-1.39-1.47.62-1.24,1-2.4,1.16-3.48.21-.98.31-2.58.31-4.79V.85h15.85v6.18h-12.91v.85h13.68c-.05.77-.1,2.11-.15,4.02-.05,1.65-.08,2.81-.08,3.48,0,1.8-.88,2.78-2.63,2.94-.67.05-1.73.08-3.17.08-.05-.21-.13-.57-.23-1.08-.1-.31-.18-.54-.23-.7h-6.57v-5.49ZM142.93,3.4v1.24h9.97v-1.24h-9.97ZM149.42,13.37h-3.09v1.16h3.09v-1.16Z"/>
</svg>