<?xml version="1.0" encoding="UTF-8"?>
<svg id="_圖層_1" data-name="圖層_1" xmlns="http://www.w3.org/2000/svg" version="1.1" viewBox="0 0 105.9 103.74">
  <!-- Generator: Adobe Illustrator 29.6.1, SVG Export Plug-In . SVG Version: 2.1.1 Build 9)  -->
  <defs>
    <style>
      .st0 {
        fill: #3aa06f;
      }
    </style>
  </defs>
  <g>
    <path class="st0" d="M0,91.09v-1.68c1.2-.07,3.16-.24,4.39-.42v-3.49H.45v-1.56h3.94v-2.62h-1.79c-.64,0-1.13-.19-1.49-.52-.35-.33-.54-.8-.54-1.35v-6.84c0-.54.24-.99.61-1.32.35-.33.85-.52,1.35-.52h5.69c.59,0,1.06.19,1.39.52.35.33.54.85.54,1.51v6.63c0,.52-.17.99-.5,1.32-.33.35-.8.57-1.39.57h-1.94v2.62h3.75v1.56h-3.75v3.26c1.27-.12,3.12-.42,4.22-.68v1.58c-2.62.57-7.88,1.2-10.55,1.44ZM4.39,72.35h-1.37c-.24,0-.57.24-.57.54v2.27h1.94v-2.81ZM4.39,76.74h-1.94v2.38c0,.4.38.61.66.61h1.27v-3ZM8.26,72.94c0-.31-.31-.59-.59-.59h-1.35v2.81h1.94v-2.22ZM8.26,76.74h-1.94v3h1.32c.4,0,.61-.26.61-.61v-2.38ZM19.33,84.32h-2.08c.42-.97,1.04-2.81,1.23-3.89.09-.24-.12-.57-.4-.57h-1.84v9.18c0,.5-.19.99-.52,1.37-.38.42-.97.71-1.7.71h-2.19l-.66-1.7h2.27c.42,0,.76-.4.76-.76v-8.8h-3.26v-1.65h3.54c-.8-1.18-2.12-3.23-2.67-4.48h2.15c.21.57.73,1.49,1.11,2.01.83-.85,1.72-2.15,2.27-3.02.09-.14-.02-.31-.17-.31h-5.88v-1.63h6.77c.68,0,1.16.31,1.42.73.26.47.26,1.11-.05,1.65-.71,1.25-2.15,3.16-3.19,4.3.14.21.42.57.57.75h1.86c.76,0,1.27.21,1.56.64.26.35.33.87.24,1.51-.19,1.23-.66,2.86-1.13,3.96Z"/>
    <path class="st0" d="M34.43,90.6c-.07-.38-.19-.99-.24-1.39-1.49.57-4.18,1.3-5.78,1.68v-1.91c.76-.14,2.17-.47,2.83-.66v-4.7h-.61c-.66,0-1.13-.19-1.46-.52-.4-.4-.57-.97-.57-1.6v-6.09c0-.5.21-.87.52-1.13.33-.28.8-.45,1.25-.45h.87v-3.35h1.96v3.35h.92c.59,0,1.02.19,1.32.52.31.33.47.78.47,1.32v6.02c0,.71-.24,1.2-.61,1.51-.35.31-.85.43-1.37.43h-.73v4.08c.21-.02.57-.14.76-.21-.05-.59-.12-1.7-.14-2.31h1.93c-.05,1.72.28,4.01.64,5.43h-1.96ZM31.25,75.42h-.35c-.33,0-.54.33-.54.57v5.38c0,.31.26.57.54.57h.35v-6.51ZM34.1,75.99c0-.28-.28-.57-.57-.57h-.33v6.51h.42c.26,0,.47-.19.47-.5v-5.45ZM46.61,73.72v1.06c0,.59-.17,1.06-.47,1.39-.35.38-.9.57-1.6.57h-.9v1.56h2.83c.78,0,1.3.21,1.65.61.35.42.52.97.52,1.65v8.76c0,.45-.14.92-.45,1.25-.31.33-.76.54-1.35.54h-1.37l-.78-1.6h1.49c.31,0,.59-.21.59-.57v-1.09h-1.18c-.12-.64-.35-1.77-.42-2.34-.09.68-.35,1.72-.59,2.34h-.94v3.09h-2.01v-3.09h-1.09c-.12-.45-.33-1.3-.43-1.79-.09.47-.31,1.27-.5,1.79h-1.06v3.26h-1.89v-11.02c0-.54.26-1.02.66-1.35.35-.28.83-.45,1.32-.45h2.97v-1.56h-1.13c-.57,0-1.04-.24-1.34-.61-.31-.35-.47-.85-.47-1.42v-.99h-2.31v-1.63h2.31v-1.63h2.08v1.63h3.73v-1.63h2.12v1.63h2.29v1.63h-2.29ZM41.63,79.86h-2.34c-.38,0-.73.24-.73.59v6.51c.31-.73.61-2.17.66-3.3h.57c0-.19-.02-.52-.05-.73-.02-.14-.14-.26-.28-.26h-.45v-1.61h.57c.35,0,.66.07.87.26.19.14.33.38.35.71.12,1.49.35,3.47.83,4.93v-7.1ZM44.49,73.72h-3.73v.8c0,.33.26.66.61.66h2.57c.38,0,.54-.35.54-.64v-.83ZM46.78,80.52c0-.33-.21-.66-.61-.66h-2.53v6.96c.33-.92.52-2.15.61-3.16h.71c-.02-.17-.02-.52-.02-.68-.02-.17-.17-.31-.33-.31h-.57v-1.61h.92c.28,0,.54.12.73.31.19.19.33.45.33.71.07,1.63.31,3.54.76,5.03v-6.58Z"/>
    <path class="st0" d="M59.5,77.33h1.13v13.81h-2.05v-12.98h-2.17c1.82-2.38,3.19-4.93,4.27-7.62h2.31c-.99,2.41-2.03,4.51-3.49,6.8ZM70.9,81.39v8.02h5.4v1.72h-13.03v-1.72h5.45v-8.02h-6.63v-1.68h6.63v-6.63c-1.35.09-4.06.26-5.45.31v-1.68c3.54-.05,9.72-.54,12.79-1.18v1.77c-1.25.19-3.85.5-5.17.61v6.8h6.35v1.68h-6.35Z"/>
    <path class="st0" d="M102.03,80.83c-.8-.45-2.15-1.35-2.86-1.91-.66.59-1.7,1.39-2.48,1.91h-3v1.96h-1.98v-3.37c0-.21-.21-.45-.45-.45h-.47v10.22c0,.57-.19,1.04-.52,1.37-.38.38-.94.59-1.6.59h-2.05l-.59-1.68h2.22c.31,0,.54-.26.54-.61v-9.89h-3.75v-1.65h3c-.59-.9-1.6-2.67-2.03-3.68h2.19c.21.54.64,1.35.92,1.84.52-.68,1.13-1.72,1.53-2.55.09-.17-.05-.35-.26-.35h-4.91v-1.6h6.02c.59,0,1.04.31,1.27.75.24.43.26.94,0,1.44-.66,1.25-1.6,2.81-2.6,4.01l.12.14h1.44c.59,0,1.09.17,1.42.45.35.31.54.76.54,1.35v1.37c1.16-.61,2.88-1.84,3.92-2.76-.5-.45-1.37-1.32-1.75-1.75h-2.74c1.56-1.79,2.45-3.68,3.19-5.47h2.36c-.16.45-.52,1.23-.75,1.7h7.13v1.63h-1.32c-.76,1.09-2.15,2.78-3.12,3.73,1.23,1.06,3.82,2.48,5.29,3.28h-3.87ZM87.11,87.91h-2.05c.5-2.01,1.01-5.4,1.06-7.69h1.94c-.05,2.15-.47,5.71-.94,7.69ZM104.06,90.48c-.38.42-.99.66-1.77.66h-1.96l-.68-1.68h2.38c.28,0,.52-.33.52-.64v-3.96c0-.24-.28-.47-.52-.47h-2.34c-.42,2.78-2.17,5.1-4.18,6.75h-3.07c2.83-1.84,4.89-4.37,5.19-6.75h-3.37v-1.68h3.63c.07-.5.14-1.42.12-1.96h2.03c-.02.52-.12,1.51-.16,1.96h2.76c.61,0,1.11.24,1.44.61.35.4.54.97.54,1.58v3.89c0,.71-.19,1.27-.57,1.68ZM97.09,73.82c-.14.26-.47.85-.68,1.16h1.32c.31.35.97.99,1.37,1.35.71-.71,1.56-1.65,2.1-2.5h-4.11Z"/>
  </g>
  <g>
    <path class="st0" d="M26.91,96.99c.25-.38.74-.26.74.19v6.14c0,.51-.78.51-.78,0v-4.85l-2.17,3.4c-.17.31-.58.31-.73,0l-2.17-3.39v4.84c0,.51-.78.51-.78,0v-6.14c0-.46.51-.58.72-.19l2.6,4.05,2.58-4.05Z"/>
    <path class="st0" d="M32.26,97.39c0,.48-.8.49-.8,0v-.48c0-.49.8-.49.8,0v.48ZM31.48,98.54c0-.46.78-.47.78-.01v4.8c0,.47-.78.46-.78,0v-4.79Z"/>
    <path class="st0" d="M38.19,98.19c.48,0,.48.67,0,.67h-1.16v2.88c0,.61.1,1.25.82,1.25.16,0,.39-.05.5-.12.45-.26.8.37.32.64-.27.15-.53.18-.82.18-1.28,0-1.59-.94-1.59-1.95v-2.88h-.7c-.5,0-.47-.67,0-.67h.7v-1.24c0-.51.77-.5.77,0v1.24h1.16Z"/>
    <path class="st0" d="M45.11,98.21c1.2.33,1.95,1.31,1.97,2.67h0c.02.22-.09.48-.52.48h-4.21c.14.87.88,1.6,1.95,1.6.49,0,1-.13,1.42-.45.37-.34.93.1.51.52-.49.46-1.2.65-1.9.64-.83,0-1.66-.32-2.16-.95-1.15-1.51-.65-3.96,1.33-4.52.5-.15,1.08-.14,1.6,0h.01ZM42.32,100.71h4.02c-.07-.91-.63-1.6-1.46-1.81h.01c-.35-.1-.79-.1-1.15.01-.85.22-1.35.94-1.42,1.8Z"/>
    <path class="st0" d="M50.9,102.27c.11.48.94.72,1.71.72.52,0,1.64-.23,1.64-.97,0-.68-.81-.71-1.67-.78-1.15-.11-2.39-.2-2.39-1.51,0-1.14,1.3-1.63,2.32-1.63.82,0,1.96.14,2.33,1.1.15.48-.59.68-.72.28-.23-.62-1.13-.66-1.61-.66-.62,0-1.55.27-1.55.93s.79.67,1.64.74c1.17.11,2.42.21,2.42,1.54s-1.53,1.67-2.42,1.67-2.25-.22-2.46-1.29c-.13-.45.65-.67.75-.14Z"/>
    <path class="st0" d="M63.46,96.82c.52,0,.52.74,0,.74h-2.38c0,1.92.01,3.87.01,5.78,0,.27-.22.39-.4.39s-.38-.13-.38-.39v-5.78h-2.36c-.5,0-.5-.74,0-.74h5.52Z"/>
    <path class="st0" d="M68.11,98.33c.35-.16.74-.21,1.14-.2.61.01,1.3.2,1.68.83v-.4c0-.22.14-.38.38-.38s.39.16.39.38v4.73c0,.23-.16.38-.39.38s-.38-.15-.38-.38v-.51c-.31.62-1.1.97-1.73.97-.51,0-1.09-.14-1.53-.46-.81-.55-1.23-1.46-1.19-2.5.02-1.08.62-2.07,1.64-2.46h-.01ZM70.93,101.34v-.84c0-1.05-.73-1.6-1.69-1.64-.76-.01-1.52.39-1.82,1.14-.1.22-.15.51-.16.79-.02.69.2,1.33.78,1.81.32.24.7.37,1.1.4.98,0,1.75-.6,1.8-1.66Z"/>
    <path class="st0" d="M75.83,102.27c.11.48.94.72,1.71.72.52,0,1.64-.23,1.64-.97,0-.68-.81-.71-1.67-.78-1.15-.11-2.39-.2-2.39-1.51,0-1.14,1.3-1.63,2.32-1.63.82,0,1.96.14,2.33,1.1.15.48-.59.68-.72.28-.23-.62-1.13-.66-1.61-.66-.62,0-1.54.27-1.54.93s.79.67,1.64.74c1.17.11,2.42.21,2.42,1.54s-1.53,1.67-2.42,1.67-2.25-.22-2.46-1.29c-.13-.45.65-.67.75-.14Z"/>
    <path class="st0" d="M86.76,98.25c.42-.37.96.15.55.53l-1.99,1.84,2.19,2.42c.36.44-.28.88-.61.46l-2.17-2.44-.63.56v1.66c0,.48-.78.5-.78,0v-6.37c0-.44.78-.44.78,0v3.85l.73-.72,1.92-1.79Z"/>
  </g>
  <g>
    <path class="st0" d="M55.08,0c-16.5,0-29.87,13.37-29.87,29.87s13.37,29.88,29.87,29.88,29.87-13.38,29.87-29.88S71.58,0,55.08,0ZM66.48,5.76c1.02.98.7,3.64.7,3.64l-1.62-.31s.07-.1.11-.17c.27-.5.66-1.68.65-2.46,0-.89.16-.7.16-.7ZM67.26,9.82c-.04.31-.34,2.25-.34,2.25l-2.34-.45.65-2.19s.05-.29.42-.22c.37.07,1.4.27,1.4.27,0,0,.02,0,.04,0,.07.02.2.1.17.33ZM66.2,4.82c-.18.04-.35.14-.47.26-.32.32-.38.75-.37,1.38,0,.45-.18,1.11-.35,1.56-.37-.17-.75-.33-1.13-.48-.05-.6-.11-1.41-.13-1.61-.02-.23-.1-.42-.21-.59-.05-.35-.16-.99-.39-1.68,1.05.32,2.06.71,3.05,1.15ZM61.1,2.92c-.19-.82-.02-.73,0-.71,0,0,0,0,0,0,1.22.76,1.52,3.43,1.52,3.43h-1.66c.18-.36.35-1.84.14-2.71ZM60.72,6.03s-.01-.29.36-.29h1.44s.25-.02.28.29c.03.31.18,2.27.18,2.27h-2.39l.13-2.27ZM50.01,3.14c.02-.07.03-.14.05-.22,1.63-.3,3.31-.47,5.03-.47s3.4.17,5.03.47c.01.07.03.15.05.22.15.62.03,1.75-.06,2.03,0,0,0,0,0,0-.28.29-.33.64-.34.82l-.02.33c-1.51-.3-3.06-.46-4.66-.46s-3.15.16-4.66.46l-.02-.33c0-.18-.06-.52-.34-.81-.1-.33-.21-1.43-.07-2.04ZM49.93,8.86l-.22,4.74c.7-.41,1.14-.67,1.2-.82.12-.34,2.51-4.88,3.43-5.05,0,0,.19-.09.26,0,0,.01.02.03.02.05.03.15-.05,3.37.48,3.46.52-.08.45-3.3.48-3.46,0-.02.01-.03.02-.05.07-.08.26,0,.26,0,.92.17,3.31,4.71,3.43,5.05.06.16.5.42,1.2.82l-.23-4.74s-.02-.44.54-.44h2.15s.37-.03.42.44c.03.26.26,2.78.46,4.98l.31-1.73s.08-.44.63-.33c.55.11,2.11.41,2.11.41,0,0,0,0,.01,0,.07.02.35.1.29.51-.04.26-.47,3.3-.84,5.87.66,1.01,1.12,1.94,1.42,2.5.61,1.12.25,1.68.37,3.47.06.89.9,2.13,1.38,4.52,1.08,2.43,3.43,7.68,3.57,8.02.19.44-.16.57-.16.57,0,0-.05.02-.13.06-.06.02-.13.06-.21.09-.04.02-.09.04-.13.06-.46.21-1.14.51-1.45.65-.5.23-.7-.18-.7-.18l-.6-1.21c.54,2.67,1.6,7.92,1.67,8.27.08.46-.29.52-.29.52,0,0-1.54.37-2.08.49-.07.02-.13.02-.18.03-.38,0-.46-.33-.46-.33l-.64-2.6c-3.76,8.63-12.62,8.45-12.62,8.45,0,0-8.85.18-12.62-8.45l-.64,2.6s-.08.33-.46.33c-.05,0-.11,0-.18-.03-.54-.13-2.08-.49-2.08-.49,0,0-.37-.06-.28-.52.06-.35,1.12-5.6,1.66-8.27l-.6,1.21s-.19.41-.7.18c-.31-.14-.99-.44-1.45-.65-.05-.02-.09-.04-.13-.06-.08-.04-.16-.07-.21-.09-.08-.04-.13-.06-.13-.06,0,0-.35-.13-.16-.57.14-.34,2.49-5.59,3.57-8.02.48-2.39,1.32-3.63,1.38-4.52.12-1.79-.25-2.35.37-3.47.3-.55.76-1.49,1.42-2.5-.37-2.56-.8-5.6-.84-5.87-.05-.41.22-.49.29-.51.01,0,.02,0,.02,0,0,0,1.55-.3,2.1-.41.55-.11.63.33.63.33l.31,1.73c.2-2.19.43-4.72.45-4.98.05-.47.42-.44.42-.44h2.15c.56,0,.54.44.54.44ZM71.59,48.23c.06.31-.19.35-.19.35,0,0-1.03.24-1.39.33-.36.08-.43-.2-.43-.2l-.76-2.16,2.31-.55s.4,1.93.45,2.24ZM41.34,46.54l-.76,2.16s-.07.29-.43.2c-.36-.09-1.39-.33-1.39-.33,0,0-.25-.04-.19-.35.06-.31.45-2.24.45-2.24l2.31.55ZM49.07,2.21h0s.19-.1,0,.71c-.21.87-.04,2.36.14,2.71h-1.66s.3-2.66,1.52-3.43ZM47.37,6.03c.03-.31.28-.29.28-.29h1.43c.38,0,.36.29.36.29l.13,2.27h-2.39s.15-1.96.18-2.27ZM47.02,3.66c-.23.69-.34,1.34-.39,1.68-.11.16-.18.36-.21.59-.02.19-.08,1-.13,1.6-.38.15-.75.31-1.13.48-.17-.46-.35-1.11-.35-1.56,0-.64-.06-1.07-.37-1.38-.12-.12-.29-.22-.47-.26.99-.44,2-.83,3.05-1.15ZM43.69,5.76s.17-.2.16.7c0,.78.39,1.96.65,2.46.04.07.08.13.11.17l-1.62.31s-.32-2.66.7-3.64ZM43.07,9.49s.04,0,.04,0c0,0,1.04-.2,1.4-.27.37-.07.42.22.42.22l.65,2.19-2.34.45s-.3-1.94-.34-2.25c-.03-.23.1-.31.17-.33ZM37.66,48.68c-.06.45-.16,1.39-.03,2.34-6.09-5.03-9.98-12.64-9.98-21.14,0-10.68,6.14-19.95,15.08-24.47-.88,1.21-.79,3.21-.72,3.93-.05.15-.08.3-.07.46-6.54,4.29-10.88,11.69-10.88,20.08,0,4.63,1.32,8.97,3.61,12.64-.04.67.05,1.35.38,1.9.18.31.51.5.87.5.15,0,.28-.04.4-.09.5.63,1.03,1.23,1.59,1.81-.12.57-.25,1.25-.28,1.42-.04.22-.02.43.03.62ZM36.04,40.66c.08-.25.15-.41.15-.41l1.49.67c-.34.25-1.21,1.51-1.45,2.38-.24.86-.35.64-.35.64-.54-.88-.1-2.51.16-3.27ZM38.06,40.69c-.05.07-.19.19-.44.08-.23-.1-.75-.34-1.06-.47-.14-.06-.23-.1-.23-.1,0,0-.23-.08-.11-.38.12-.29.94-2.11.94-2.11l2.14.96-1.22,1.98s0,.02-.03.04ZM39.16,52.32c-.06-.06-.11-.13-.16-.21-.75-1.13-.35-3.45-.35-3.45l1.6.38c-.27.31-.85,1.7-.89,2.59-.04.89-.2.69-.2.69ZM55.08,57.3c-5.54,0-10.71-1.66-15.02-4.5.22-.39.24-.89.25-1.12.03-.65.47-1.73.64-1.98.11-.07.2-.14.28-.23,3.92,2.78,8.7,4.42,13.85,4.42s9.93-1.64,13.85-4.42c.08.09.17.16.27.23.19.28.62,1.34.64,1.98.01.23.04.73.25,1.12-4.32,2.84-9.48,4.5-15.03,4.5ZM71.18,52.12c-.05.07-.1.14-.16.21,0,0-.16.2-.2-.69-.04-.89-.62-2.29-.89-2.59l1.61-.38s.39,2.32-.35,3.45ZM72.11,40.69s-.02-.04-.02-.04l-1.22-1.98,2.14-.96s.81,1.82.94,2.11c.12.29-.11.38-.11.38,0,0-.09.04-.23.1-.3.14-.82.37-1.06.47-.25.11-.39-.01-.44-.08ZM74.13,40.66c.26.76.7,2.39.16,3.27,0,0-.11.23-.35-.64-.24-.87-1.11-2.13-1.45-2.38l1.49-.67s.06.16.15.41ZM72.53,51.01c.13-.95.04-1.89-.03-2.34.06-.19.07-.4.03-.62-.03-.17-.17-.85-.28-1.42.56-.58,1.09-1.18,1.6-1.81.12.05.24.09.4.09h0c.36,0,.69-.2.87-.5.33-.55.41-1.23.37-1.9,2.28-3.67,3.61-8,3.61-12.64,0-8.39-4.33-15.79-10.87-20.08,0-.16-.02-.32-.07-.46.07-.72.16-2.71-.72-3.93,8.93,4.53,15.08,13.79,15.08,24.47,0,8.5-3.89,16.11-9.98,21.14Z"/>
    <polygon class="st0" points="52.42 29.87 45.09 38.3 50.41 38.3 55.08 32.93 59.76 38.3 65.08 38.3 57.75 29.87 65.08 21.45 59.76 21.45 55.08 26.82 50.41 21.45 45.09 21.45 52.42 29.87"/>
  </g>
</svg>