<?xml version="1.0" encoding="UTF-8"?>
<svg id="_圖層_1" data-name="圖層_1" xmlns="http://www.w3.org/2000/svg" version="1.1" viewBox="0 0 176.75 41.95">
  <!-- Generator: Adobe Illustrator 29.6.1, SVG Export Plug-In . SVG Version: 2.1.1 Build 9)  -->
  <defs>
    <style>
      .st0, .st1 {
        fill: #231815;
      }

      .st1 {
        fill-rule: evenodd;
      }
    </style>
  </defs>
  <path class="st1" d="M21.76,11.08c0,1.44-.27,2.8-.82,4.09-.55,1.29-1.34,2.45-2.37,3.46-1.05,1.02-2.23,1.79-3.55,2.33-1.32.53-2.71.8-4.17.8s-2.86-.27-4.17-.8c-1.31-.53-2.49-1.31-3.53-2.33-1.04-1.03-1.83-2.19-2.37-3.47-.45-1.06-.71-2.17-.79-3.33v-1.5c.08-1.18.34-2.3.79-3.37.54-1.29,1.33-2.45,2.37-3.48,1.02-1.01,2.19-1.78,3.49-2.3,1.31-.52,2.71-.78,4.2-.78s2.91.26,4.22.78c1.31.52,2.48,1.29,3.5,2.29,1.04,1.03,1.83,2.19,2.37,3.48.54,1.29.81,2.67.81,4.12ZM10.86,20.11c1.21,0,2.34-.22,3.42-.67,1.08-.44,2.04-1.09,2.91-1.95.84-.86,1.49-1.85,1.94-2.94.45-1.1.67-2.26.67-3.47s-.22-2.38-.67-3.47c-.45-1.09-1.09-2.07-1.95-2.94-.85-.85-1.81-1.5-2.89-1.95-1.08-.45-2.23-.67-3.44-.67s-2.34.22-3.41.67c-1.07.44-2.03,1.1-2.89,1.95-.85.88-1.5,1.86-1.95,2.94-.44,1.08-.67,2.24-.67,3.47s.22,2.38.67,3.47c.45,1.09,1.09,2.07,1.95,2.94.85.86,1.81,1.51,2.86,1.95,1.06.44,2.2.66,3.44.66"/>
  <polygon class="st0" points="26.85 21.22 26.85 .85 36.93 .85 36.93 2.59 28.7 2.59 28.7 8.97 36.63 8.97 36.63 10.71 28.7 10.71 28.7 21.22 26.85 21.22"/>
  <polygon class="st0" points="42.94 21.22 42.94 .85 53.02 .85 53.02 2.59 44.79 2.59 44.79 8.97 52.71 8.97 52.71 10.71 44.79 10.71 44.79 21.22 42.94 21.22"/>
  <polygon class="st0" points="58.46 21.22 58.46 .85 68.54 .85 68.54 2.59 60.31 2.59 60.31 8.97 68.54 8.97 68.54 10.71 60.31 10.71 60.31 19.48 68.54 19.48 68.54 21.22 58.46 21.22"/>
  <path class="st1" d="M86.95,21.22h-2.25l-7.14-9.71h-1.11v9.71h-1.85V.85h3.74c2.2,0,3.85.46,4.95,1.38,1.1.92,1.64,2.31,1.64,4.17,0,1.58-.47,2.83-1.41,3.74-.94.91-2.23,1.36-3.88,1.36l7.31,9.71ZM76.44,2.48v7.52h1.86c1.72,0,2.93-.28,3.61-.83.68-.55,1.02-1.49,1.02-2.82,0-1.4-.35-2.4-1.06-2.99-.71-.59-1.9-.89-3.58-.89h-1.86Z"/>
  <polygon class="st0" points="100.7 22.01 93.55 5.67 92.01 21.22 90.1 21.22 92.87 0 100.67 18.12 108.77 0 111.38 21.22 109.47 21.22 107.96 5.67 100.7 22.01"/>
  <path class="st1" d="M115.39,21.22L124.34.06l8.57,21.16h-2.02l-2.6-6.89h-8.32l-2.7,6.89h-1.88ZM120.6,12.73h7.09l-3.48-8.85-3.62,8.85Z"/>
  <polygon class="st0" points="137.57 21.22 137.57 0 151.98 17.03 151.98 .85 153.72 .85 153.72 21.81 139.31 4.75 139.31 21.22 137.57 21.22"/>
  <polygon class="st0" points="160.6 21.22 160.6 0 175.01 17.03 175.01 .85 176.75 .85 176.75 21.81 162.33 4.75 162.33 21.22 160.6 21.22"/>
  <path class="st0" d="M65.91,36.44c.03,1.36-.12,2.48-1.04,3.54-.92,1.07-2.32,1.68-3.72,1.68-2.82,0-5.17-2.35-5.17-5.17s2.35-5.23,5.24-5.23c1.76,0,3.19.79,4.25,2.17l-.81.76c-.84-1.19-1.97-1.89-3.45-1.89-2.29,0-4.1,1.93-4.1,4.2,0,1.07.43,2.08,1.17,2.84.73.73,1.8,1.28,2.85,1.28,1.75,0,3.58-1.28,3.58-3.15h-2.99v-1.04h4.19Z"/>
  <polygon class="st0" points="67.5 31.44 72.71 31.44 72.71 32.48 68.62 32.48 68.62 35.47 72.59 35.47 72.59 36.51 68.62 36.51 68.62 40.45 72.71 40.45 72.71 41.49 67.5 41.49 67.5 31.44"/>
  <path class="st0" d="M75.74,36.1h.35c1.27,0,2.55-.24,2.55-1.8,0-1.65-1.21-1.81-2.56-1.81h-.33v3.61ZM75.74,41.49h-1.12v-10.05h1.45c1.91,0,3.68.51,3.68,2.77,0,1.55-.97,2.64-2.52,2.77l3.2,4.51h-1.37l-3.04-4.41h-.28v4.41Z"/>
  <polygon class="st0" points="83.15 30.87 86.8 39.31 90.47 30.87 92.51 41.49 91.36 41.49 90.07 34.7 90.04 34.7 86.8 41.91 83.58 34.7 83.55 34.7 82.26 41.49 81.11 41.49 83.15 30.87"/>
  <path class="st0" d="M97.46,33.58l-1.72,4.02h3.4l-1.68-4.02ZM95.29,38.64l-1.21,2.85h-1.23l4.64-10.53,4.52,10.53h-1.24l-1.19-2.85h-4.29Z"/>
  <polygon class="st0" points="103.17 31.02 111.01 39.23 111.01 31.44 112.13 31.44 112.13 41.95 104.29 33.75 104.29 41.49 103.17 41.49 103.17 31.02"/>
  <polygon class="st0" points="113.31 31.44 114.61 31.44 117.17 35.92 119.73 31.44 121.02 31.44 117.73 37.18 117.73 41.49 116.61 41.49 116.61 37.18 113.31 31.44"/>
</svg>