<?xml version="1.0" encoding="UTF-8"?>
<svg id="_圖層_1" data-name="圖層_1" xmlns="http://www.w3.org/2000/svg" version="1.1" viewBox="0 0 171.46 65.01">
  <!-- Generator: Adobe Illustrator 29.6.1, SVG Export Plug-In . SVG Version: 2.1.1 Build 9)  -->
  <defs>
    <style>
      .st0 {
        fill: #060404;
      }

      .st1 {
        fill: #fff;
      }

      .st2 {
        fill: #084a94;
      }

      .st3 {
        fill: #f3e028;
      }

      .st4 {
        fill: #070606;
      }

      .st5 {
        fill: #191b1b;
      }
    </style>
  </defs>
  <polygon class="st3" points="145.13 30.4 7.29 30.4 6.18 33.44 144.01 33.44 145.13 30.4"/>
  <path class="st2" d="M88.4,12.27c-3.57.73-8.4,3.35-8.35,8.14.03,2.76,3.36,4.29,7.18,4.19,2.14-.06,4.19-.45,4.44-.5l1.42-3.68c-1.88.3-3.68.75-5.09.18-2.55-1.02-.98-3.67.82-4.5.79-.36,1.87-.71,3.17-.68.54.01,1.86.03,2.37,1.2l1.78-4.27c-3.07-.76-6.15-.4-7.74-.07M107.73,12.16l-1.62,4.38h-2.96l1.61-4.38h-5.62l-4.47,12.16h5.6l1.53-4.12h2.97l-1.53,4.12h5.61l4.48-12.16h-5.6ZM74.31,12.16l-4.48,12.16h5.9l4.47-12.16h-5.89ZM62.59,12.16l-4.3,6.53s.27-3.42.34-4.24c.05-.63-.03-2.29-1.55-2.29h-6.83l-4.48,12.16h5.34l3.24-8.8-.68,8.8h4.74l5.82-8.64-3.18,8.64h5.37l4.48-12.16h-8.32ZM166.53,12.16l-3.07,8.35c.04-.84.21-4.16.31-6.07.04-.79-.13-1.39-.5-1.79-.46-.48-1.06-.49-1.07-.49h-6.85l-4.47,12.16h4.97l3.17-8.62-.38,8.62h8.33l4.48-12.16h-4.93ZM145.95,12.16l-4.47,12.16h5.89l4.48-12.16h-5.89ZM121.04,15.35h6.72l1.18-3.19h-12.28l-4.48,12.16h12.42l1.21-3.28h-6.86l.5-1.35h6.4l1.1-2.99h-6.4l.49-1.35ZM137.93,12.16h-5.73l-4.48,12.16h11.51l1.49-4.04h-5.77l2.99-8.12Z"/>
  <path class="st5" d="M.97,7.85s0,.02.01.03c.02.05.05.12.09.22.22.52.68,1.61,1.22,2.59.31.55.61.99.9,1.33-.23.32-.54.87-.71,1.56-.17.72-.1,1.65.21,2.55.13.38.29.73.48,1.05,0,0,0,0,0,0,0,0,0,0,0,0,0,.03-.02.06-.02.09-.22,1.77.54,3.5,2.03,4.62.24.18.49.33.74.47.22.67.67,1.3,1.32,1.8.44.34.94.62,1.47.81,0,0,0,.01.01.01.56.8,1.43,1.38,2.5,1.68.27.08.54.13.82.17.01.02.03.03.04.05.52.5,1.2.89,1.98,1.11-.13,1.03,0,1.81.21,2.4h29.18c0-.96-.25-1.92-.77-2.77-.01-.02-.03-.04-.05-.06.18-1.34-.13-2.69-.89-3.83-.82-1.23-2.08-2.07-3.53-2.36-.15-.03-.3-.05-.45-.07-.02,0-.04,0-.06,0-1.48-1.44-3.06-2.18-3.61-2.41.02-.08.03-.15.05-.22.02,0,.04-.01.06-.02,1.58-.69,2.52-1.86,2.72-3.38.16-1.2-.17-2.53-.85-3.46,0-.02,0-.03,0-.05.16-1.62-.08-3.04-.73-4.21-.52-.95-1.32-1.71-2.24-2.14,0,0,0,0-.01,0-.26-.87-1.37-1.54-2.56-1.5-.94.02-1.96.46-2.34,1.19-1.43.51-3.64,1.84-4.31,5.21-.99.74-1.63,1.83-1.79,3.03-.17,1.33.27,2.65,1.18,3.65-.91,0-2.38.08-4.11.43-.02,0-.03,0-.05.01-1.33-.94-3.05-1.3-4.59-.9-.06.02-.12.05-.16.08-.43-.13-.89-.23-1.41-.29-.03,0-.06,0-.09,0-.22-.72-.61-1.37-1.13-1.9-.03-.03-.09-.08-.09-.08,0,0,0,0,0,0-.08-.53-.23-1.1-.29-1.31-.15-.51-.39-1.09-1.07-1.77-.43-.43-.9-.69-1.21-.84.06-.17.1-.32.12-.41,0-.03.01-.07.02-.1,0-.02.17-1.64.37-2.61,0-.01,0-.02,0-.03.53-3.31.53-3.36.54-3.39,0,0,0-.01,0-.02.02-.3-.08-.59-.29-.81-.25-.28-.64-.43-1.06-.43-.59,0-1.12.3-1.45.83-.19.31-.34.68-.44.99-.55-1.07-1.27-2.47-1.79-3.49,0-.02-.02-.03-.03-.05-.18-.3-.59-.66-1.16-.66-.17,0-.34.03-.51.09-.25-.21-.56-.33-.89-.33-.16,0-.33.03-.5.08-.58.19-.92.72-.92,1.33-.45.17-.77.53-.85,1-.06.32,0,.59.03.72,0,.02.01.05.03.1-.01.02-.03.04-.04.06-.33.51-.49,1.45.73,4.56"/>
  <path class="st1" d="M42.52,30.4h-1.15c.37-.44.68-.95.9-1.48.17.48.26.98.25,1.48"/>
  <path class="st1" d="M23.52,17.91s.43.03.68.13c.43.16,1.28.98,1.75,1.05.08,0,.29-.04.06-.2-.06-.05-.6-.52-.4-.77,0,0,0,0,0-.01.07-.1.16-.12.26-.1.67.17,1.23.26,1.42.29.12.02.2.02.25-.02.05-.04.01-.07-.12-.11-1.03-.28-2.17-.72-2.97-1.32-1.07-.82-1.64-2.12-1.47-3.41.12-.95.61-1.79,1.39-2.39.31-.23.8-.4.94-.45.38-.13-.24-.23-.29-.24-.16-.03-.17-.19-.04-.68.71-2.3,2.3-3.31,3.61-3.76.23-.07.58-.17.82-.21.36-.06.23-.22-.19-.27,0,0-.14,0-.07-.1.01-.01.09-.1.21-.18.29-.19.72-.33,1.19-.34.84-.02,1.57.45,1.66.89,0,0,.03.09-.07.09-.16,0-.29.08-.07.18.05.03.28.1.59.24.01.01.03.02.05.03.64.3,2.62,1.5,2.47,4.91,0,.1-.01.2-.02.31,0,.09-.02.19-.03.28-.19-.02-.27.06-.13.19.1.1.34.38.47.61.45.74.67,1.71.55,2.61-.16,1.22-.91,1.96-1.66,2.4-.34.19-1.12.58-2.09.8-.2.05-.11.3.82.29.08,0,.24.02.29.11.11.2-.08.59-.48.82-.35.2-.07.25.41.1.14-.02.51.13.56.15.78.35,2.74,1.36,4.22,3.35,1.02,1.47,1.39,2.63,1.07,3.35-.31.7-1.23.83-1.24.84,0,0-.01,0-.02,0-3.57.56-9.75-.42-14.02-1.68-.76-.22-1.9-.62-2.86-1.05.94-2.04.58-4.62-.97-6.36-.02-.02-.04-.04-.06-.07,1.52-.26,2.79-.3,3.52-.29"/>
  <path class="st1" d="M40.98,24.26c.69,1.02.93,2.25.69,3.46-.2,1.02-.74,1.93-1.52,2.6.02-.84-.13-1.83-.75-2.61.25-.2.48-.46.63-.8.47-1.06.08-2.5-1.16-4.28h0s-.05-.08-.08-.12c.89.34,1.65.94,2.19,1.74"/>
  <path class="st1" d="M19.37,18.89c1.43,1.61,1.66,4.05.57,5.81-1.23,1.98-3.42,2.96-5.47,2.43-.3-.08-.58-.18-.84-.31.2-.03.39-.07.58-.12,2.01-.55,3.52-2.4,3.74-4.62.14-1.4-.26-2.81-1.09-3.85-.29-.37-.63-.68-1.01-.94,1.3,0,2.63.59,3.52,1.6"/>
  <path class="st1" d="M16.13,18.82c.68.86,1.01,2.01.89,3.17-.19,1.84-1.41,3.37-3.06,3.81-1.38.38-2.71.05-3.62-.55,2-.04,3.93-1.41,4.57-3.42.32-1.01.3-2.1-.06-3.08-.17-.45-.41-.87-.7-1.24.85.27,1.49.69,1.97,1.3"/>
  <path class="st1" d="M12.99,18.88c.07-.38.1-.76.1-1.14.98.95,1.37,2.43.93,3.81-.61,1.9-2.64,3.11-4.51,2.69-.79-.18-1.72-.67-2.28-1.4.34.07.68.11,1.03.11.65,0,1.3-.13,1.92-.4,1.44-.63,2.5-2,2.81-3.67"/>
  <path class="st1" d="M11.59,15.75s0,0,0,0c.5.84.68,1.89.48,2.95-.26,1.37-1.11,2.48-2.26,2.98-1.32.58-2.84.37-4.06-.54-.97-.72-1.56-1.76-1.67-2.87,0,0,0,0,0,0,.1.09.2.16.3.24.74.53,1.64.81,2.61.81.66,0,1.15-.13,1.24-.16,1.71-.49,2.56-1.52,2.96-2.29.21-.4.33-.79.4-1.12"/>
  <path class="st1" d="M1.04,3.76s.03-.02.04-.03c.03-.03.07-.05.11-.06.01,0,.03,0,.04,0,.05,0,.09,0,.13,0,.03,0,.06.01.09.02.27.1.47.44.53.92.18,1.37.82,2.28.85,2.31.04.05.1.08.17.08.04,0,.08-.01.12-.04.09-.07.11-.19.05-.29,0,0-.61-.86-.78-2.13-.08-.64-.38-1.09-.8-1.25-.1-.04-.21-.05-.31-.05-.05-.13-.1-.25-.12-.32-.04-.17-.12-.52.27-.65.02,0,.05-.01.07-.02.01,0,.03,0,.04,0,.28-.03.65.09,1.02,1.41.34,1.21,1.11,2.39,1.15,2.44.04.06.1.09.17.09.04,0,.08-.01.11-.03.09-.06.12-.19.06-.28,0-.01-.77-1.18-1.09-2.32-.16-.57-.38-1.19-.77-1.5-.05-.14-.11-.3-.13-.35-.06-.19-.13-.62.24-.75.08-.03.14-.03.2-.03.29,0,.44.25.52.44.01.03.02.06.04.09l1.68,4s.03.06.05.07c.05.04.12.06.19.03.1-.04.15-.15.1-.25l-1.63-3.89c.03-.07.09-.14.19-.19.1-.05.19-.07.27-.07.25,0,.37.2.37.2,0,0,2.16,4.25,2.57,4.98-.17.28-.3.55-.32.62-.03.11.05.21.1.1.12-.18.29-.39.44-.56,0,0,0,0,0,0h0s.01-.01.01-.02c.1-.18.42-1.03.55-1.29.09-.39.26-.91.47-1.25.19-.3.45-.4.67-.4.24,0,.44.12.43.25,0,.06-.53,3.34-.53,3.34-.14.69-.26,1.67-.33,2.24,0,.14-.02.28-.05.41,0,.03,0,.04,0,.04l-.02.08c-.11.49-.31.88-.31.88l.17.78h0c.07.33.14.68.17.79.13.44-.03.7.05.79.11.12.39-.47.46-.77.06-.24-.04-.74-.12-1.09.24.11.59.31.92.64.57.57.73,1.01.83,1.37.11.36.29,1.15.3,1.57.01.42-.13,2.66-2.78,3.4,0,0-.4.12-.98.12s-1.36-.13-2.07-.64c-1.28-.91-1.78-2.9-1.53-3.95.12-.49.33-.89.51-1.15.12.07.25.13.37.17l.08.36s.22,1.05.61,1.36c.23.18.61.19.72.19.12,0,.39-.01.44-.13,0-.02.02-.07-.03-.12-.02-.02-.05-.04-.12-.08-.19-.1-.54-.29-.62-.63-.04-.19-.2-.88-.3-1.28.39-.31.44-.66-.08-.55-.31.06-.6-.08-.82-.26-1.03-.9-2.11-3.68-2.33-4.17-.88-2.23-1.06-3.42-.79-3.75"/>
  <path class="st1" d="M14.99,28.18c.19.02.39.03.58.03,1.93,0,3.8-1.02,5-2.76,1.01.46,2.22.88,3.07,1.13,2.35.69,5.03,1.25,7.56,1.57,1.59.2,3.05.3,4.33.3.95,0,1.8-.06,2.53-.17.05,0,.24-.04.49-.12.58.61.69,1.49.65,2.24H15.3c-.23-.45-.43-1.17-.31-2.22"/>
  <path class="st5" d="M28.17,12.04c.11.14.25.22.39.28.13.05.27.07.42.09,0,0,.23.02.38.02.59-.02,1.14-.92,1.16-1.8.02-.8-.09-1.41-.67-1.78-.06-.04-.12-.07-.19-.09-.25-.09-.54-.1-.79-.03-.3.08-.53.3-.69.56-.16.27-.26.58-.33.89-.07.32-.09.63-.04.95.04.32.15.67.36.92M28.06,10.63c.03-.38.25-1.57,1.21-1.47.72.07.92.61.97,1.07,0,.02,0,.04,0,.06.05.46-.04.78-.16,1.08-.05.12-.1.23-.17.33-.18.28-.39.45-.58.46-.02,0-.03,0-.05,0,.32-.17.58-.6.62-1.12.06-.7-.27-1.31-.75-1.35-.23-.02-.44.09-.62.29.17,0,.31.17.32.39.01.23-.12.42-.3.43-.14,0-.27-.11-.31-.27-.03.11-.06.24-.07.36-.04.43.07.82.27,1.07-.03-.02-.05-.05-.08-.08-.15-.18-.25-.46-.3-.79-.02-.15-.03-.3-.02-.46M33.6,14.05c-.1-.01-.13.08-.09.11.01,0,.03.02.04.04-.04.02-.07.04-.1.06-.22.11-.47.18-.71.24-.6.13-1.22.15-1.83.1-1-.08-2.01-.31-2.94-.7-.08-.03-.16-.07-.25-.11-.04-.02-.08-.04-.12-.06-.13-.04-.26.05-.27.18,0,.1.06.16.15.21.25.13.52.23.78.32.23.1.4.31.57.49.21.22.44.42.7.57.5.29,1.14.39,1.7.3.3-.05.58-.15.83-.31.18-.12.35-.26.52-.39.1-.08.2-.16.31-.23.06-.04.52-.22.77-.36,0,.08,0,.16.05.17.06.01.12-.11.14-.2.02-.1,0-.19-.02-.26-.02-.06-.13-.15-.23-.17M31.47,15.35c-.26.08-.54.1-.82.07-.27-.02-.54-.08-.78-.2-.27-.13-.5-.32-.71-.53.98.24,2.01.37,3.01.26-.21.17-.44.31-.7.39M27.74,13.42c-.02-.08-.13-.08-.16-.08-.09,0-.21.03-.3.06-.24.08-.43.37-.42.55,0,.03.01.05.03.07.01.01.04.03.09.03,0,0,0,0,0,0h0s.07-.03.08-.08c0-.04.03-.13.09-.19.06-.06.17-.16.47-.23.05-.01.13-.05.11-.13M34.18,10.08c-.08-.29-.24-.56-.5-.71-.22-.13-.49-.19-.74-.16-.07,0-.13.02-.2.04-.63.2-.89.76-1.07,1.54-.2.85.08,1.85.62,2.02.13.04.35.08.35.08.14.03.28.04.41.02.15-.01.3-.06.44-.17.26-.19.45-.5.57-.8s.18-.6.2-.92c.02-.31,0-.63-.08-.93M33.95,11.41c-.03.15-.08.3-.13.44-.13.31-.3.55-.48.68-.08.06-.17.09-.26.11.3-.18.54-.6.58-1.11.06-.7-.26-1.31-.73-1.35-.22-.02-.44.09-.61.29.16,0,.3.17.31.39.01.23-.12.42-.29.43-.14,0-.26-.11-.31-.27-.03.11-.06.24-.07.36-.04.47.09.89.32,1.14-.14-.09-.27-.28-.35-.55-.03-.12-.06-.24-.07-.36-.03-.32-.03-.64.13-1.07,0-.02.01-.04.02-.06.17-.43.48-.9,1.18-.78.91.15.82,1.34.76,1.72"/>
  <g>
    <path class="st4" d="M9.95,40.27l-1.02,2.81h-1.29l1.38-3.8h1.61c.42,0,.54.21.53.62l.03,1.66,1.58-2.29h2.31l-1.38,3.8h-1.51l1-2.75-1.96,2.75h-1.29v-2.81Z"/>
    <path class="st4" d="M14.95,43.08l1.38-3.8h1.49l-1.38,3.8h-1.49Z"/>
    <path class="st4" d="M21.16,40.15c-.7,0-1.24.21-1.52,1-.26.74.11,1.04.96,1.04.4,0,.87-.06,1.18-.14l-.36.98c-.41.11-.82.13-1.25.13-1.77,0-2.45-.89-1.93-2.29.48-1.32,1.54-1.7,2.89-1.7.58,0,1.13.11,1.55.26l-.34.95c-.29-.13-.77-.23-1.18-.23Z"/>
    <path class="st4" d="M25.83,41.65h-1.3l-.52,1.43h-1.49l1.38-3.8h1.49l-.52,1.42h1.3l.52-1.42h1.49l-1.38,3.8h-1.49l.52-1.43Z"/>
    <path class="st4" d="M29.45,39.27h3.66l-.32.88h-2.17l-.21.58h1.95l-.33.88h-1.94l-.22.59h2.17l-.32.88h-3.66l1.38-3.8Z"/>
    <path class="st4" d="M34.19,39.27h1.49l-1.04,2.85h1.96l-.35.96h-3.45l1.38-3.8Z"/>
    <path class="st4" d="M37.23,43.08l1.38-3.8h1.49l-1.38,3.8h-1.49Z"/>
    <path class="st4" d="M42.29,40.29l-1.01,2.78h-1.29l1.38-3.8h1.62c.38,0,.51.22.51.58l.24,2.24,1.02-2.82h1.3l-1.38,3.8h-2.14l-.24-2.78Z"/>
    <path class="st4" d="M49.72,42.19l-.32.89h-1.49l1.38-3.8h1.92c1.66,0,2,.74,1.64,1.73-.36.97-1.14,1.18-2.24,1.18h-.88ZM50.46,40.15l-.42,1.16h.4c.62,0,.81-.12.96-.52.16-.44.06-.64-.51-.64h-.43Z"/>
    <path class="st4" d="M56.04,42.42h-1.58l-.44.66h-1.55l2.36-3.32c.24-.35.49-.49.86-.49h1.73v3.8h-1.4l.02-.66ZM56.1,39.95l-1.04,1.56h1l.04-1.56Z"/>
    <path class="st4" d="M58.24,43.08l1.38-3.8h1.49l-1.38,3.8h-1.49Z"/>
    <path class="st4" d="M63.3,40.29l-1.01,2.78h-1.29l1.38-3.8h1.62c.38,0,.51.22.51.58l.24,2.24,1.02-2.82h1.3l-1.38,3.8h-2.14l-.24-2.78Z"/>
    <path class="st4" d="M70.36,40.23l-1.04,2.85h-1.49l1.04-2.85h-1.17l.35-.96h3.79l-.35.96h-1.13Z"/>
    <path class="st4" d="M75.19,42.19l-.32.89h-1.49l1.38-3.8h1.92c1.66,0,2,.74,1.64,1.73-.36.97-1.14,1.18-2.24,1.18h-.88ZM75.94,40.15l-.42,1.16h.4c.62,0,.81-.12.96-.52.16-.44.06-.64-.51-.64h-.43Z"/>
    <path class="st4" d="M80.85,41.98h-.48l-.4,1.1h-1.49l1.38-3.8h2.03c1.49,0,1.92.6,1.57,1.56-.21.59-.63.83-1.26.92l.58,1.32h-1.54l-.4-1.1ZM81.04,40.15l-.35.95h.42c.54,0,.76-.04.89-.42.13-.34.06-.53-.51-.53h-.45Z"/>
    <path class="st4" d="M84.25,40.89c.47-1.28,1.3-1.71,2.71-1.71,2.03,0,2.42.96,1.96,2.26-.46,1.31-1.31,1.73-2.71,1.73-2.04,0-2.45-.96-1.96-2.28ZM87.48,41.27c.26-.75.12-1.15-.62-1.15-.59,0-.91.22-1.18.96-.27.75-.12,1.16.62,1.16.58,0,.9-.22,1.18-.96Z"/>
    <path class="st4" d="M92.5,40.23l-1.04,2.85h-1.49l1.04-2.85h-1.17l.35-.96h3.79l-.35.96h-1.13Z"/>
    <path class="st4" d="M94.95,39.27h3.66l-.32.88h-2.17l-.21.58h1.95l-.33.88h-1.94l-.22.59h2.17l-.32.88h-3.66l1.38-3.8Z"/>
    <path class="st4" d="M101.73,40.15c-.7,0-1.24.21-1.52,1-.26.74.11,1.04.96,1.04.4,0,.87-.06,1.18-.14l-.36.98c-.41.11-.82.13-1.25.13-1.77,0-2.45-.89-1.93-2.29.48-1.32,1.54-1.7,2.89-1.7.58,0,1.13.11,1.55.26l-.34.95c-.29-.13-.77-.23-1.18-.23Z"/>
    <path class="st4" d="M106.49,40.23l-1.04,2.85h-1.49l1.04-2.85h-1.17l.35-.96h3.79l-.35.96h-1.13Z"/>
    <path class="st4" d="M107.55,43.08l1.38-3.8h1.49l-1.38,3.8h-1.49Z"/>
    <path class="st4" d="M110.84,40.89c.47-1.28,1.3-1.71,2.71-1.71,2.03,0,2.42.96,1.96,2.26-.46,1.31-1.31,1.73-2.71,1.73-2.04,0-2.45-.96-1.96-2.28ZM114.07,41.27c.26-.75.12-1.15-.62-1.15-.59,0-.91.22-1.18.96-.27.75-.12,1.16.62,1.16.58,0,.9-.22,1.18-.96Z"/>
    <path class="st4" d="M118.22,40.29l-1.01,2.78h-1.29l1.38-3.8h1.62c.38,0,.51.22.51.58l.24,2.24,1.02-2.82h1.3l-1.38,3.8h-2.14l-.24-2.78Z"/>
    <path class="st4" d="M125.78,41.82l-.46,1.26h-1.49l1.38-3.8h3.66l-.33.91h-2.17l-.26.72h1.95l-.34.91h-1.94Z"/>
    <path class="st4" d="M128.41,43.08l1.38-3.8h1.49l-1.38,3.8h-1.49Z"/>
    <path class="st4" d="M132.55,39.27h1.49l-1.04,2.85h1.96l-.35.96h-3.45l1.38-3.8Z"/>
    <path class="st4" d="M137.91,40.27l-1.02,2.81h-1.29l1.38-3.8h1.61c.42,0,.54.21.53.62l.03,1.66,1.58-2.29h2.31l-1.38,3.8h-1.51l1-2.75-1.96,2.75h-1.29v-2.81Z"/>
  </g>
  <g>
    <path class="st0" d="M15.9,62.35l-.64,2.54h-3.02l.64-2.54h-7.59l.64-2.62h7.59l.2-.76h-5.64l2.04-8.25h5.64l.18-.68h-7.17l.66-2.62h7.17l.38-1.54h3.02l-.38,1.54h7.31l-.66,2.62h-7.31l-.18.68h5.76l-2.04,8.25h-5.76l-.2.76h7.87l-.64,2.62h-7.87ZM14.48,55.91h-2.84l-.2.76h2.84l.2-.76ZM15.02,53.77l.18-.74h-2.84l-.18.74h2.84ZM17.5,55.91l-.2.76h2.82l.2-.76h-2.82ZM18.04,53.77h2.82l.18-.74h-2.82l-.18.74Z"/>
    <path class="st0" d="M36.65,64.83l-2.28-2c1.3-1.54,3.22-4.04,4.8-6.44l1.94,2.06c-1.42,2.16-2.96,4.36-4.46,6.38ZM36.37,53.45l1.9-2.08c1.06.38,2.42,1.16,3.1,1.78l-2.06,2.2c-.54-.64-1.82-1.42-2.94-1.9ZM49.58,53.53c1.26,1.2,3.14,1.7,5.42,2.24-.58.52-1.48,1.4-1.82,2.1-2.08-.78-3.8-1.68-5.06-3.06-1.92,1.4-3.98,2.24-6.18,2.74-.24-.68-.58-1.44-1.12-2.02,2.6-.48,5.32-1.66,6.98-3.36l-.5.14.38-1.08c-1.44,1.08-3.04,1.96-4.48,2.4-.36-.7-.92-1.66-1.48-2.22,1.42-.32,3.12-1.1,4.5-1.94l-2.8.1.5-1.78-2.18,2.22c-.52-.66-1.84-1.48-2.94-1.98l1.9-2.06c1.04.42,2.4,1.2,3.06,1.82l.26-.6h4.58l.32-1.28h2.78l-.32,1.28h4.98l-.6,2.38-3.18.08c1.08.76,2.2,1.66,2.88,2.32l-1.96,1.48c-.58-.74-1.76-1.7-2.92-2.58l-.48,1.44h-1.48l1.46.68c-.12.14-.24.28-.5.54ZM50.1,60.43c.82.62,1.66,1.38,2.2,2l-1.86,1.54c-.48-.72-1.46-1.68-2.46-2.56l-.48,1.48c-.28,1.08-.42,1.54-1.12,1.94-.88.22-1.72.16-2.84,0-.04-.64-.1-1.48-.36-2.06.38.18,1.08.1,1.16.08.32.06.6-.16.64-.36l.34-.86c-1.68.76-3.38,1.5-4.78,2.12l-.72-2.28c1.46-.5,3.7-1.38,5.86-2.28l.88-3.08h2.62l-.7,2.82.16.06c.82-.62,1.76-1.38,2.32-1.96l1.82,1.46c-.84.66-1.72,1.3-2.68,1.94ZM45.12,59.23l-2.08.88c-.06-.6-.38-1.48-.8-2.12l1.88-.84c.42.6.88,1.48,1,2.08Z"/>
    <path class="st0" d="M82.85,62.11c-.66.44-1.9,1.54-2.4,2.16-1.06-1.1-1.96-2.52-2.6-4.06l-1.24,4.68h-2.92l1.14-4.28c-1.44,1.5-3,2.72-4.5,3.5-.36-.78-.98-1.78-1.48-2.34l-.86,3.06h-2.76l2.54-9.85c-.5.48-.98.92-1.4,1.16-.16-.8-.52-2.38-.88-3.22,2.1-1.6,4.6-4.4,6.26-7.17l2.52,1.2c-.82,1.26-1.72,2.54-2.72,3.8l-2.92,10.99c1.88-.86,3.86-2.36,5.4-3.92l-3.56.14.66-2.62h4.94l.36-1.42h-3.7l1.78-7.21h10.67l-1.78,7.21h-4.04l-.36,1.42h4.94l-.66,2.62-3.7.14c.72,1.56,1.88,2.96,3.28,4ZM81.09,51.38l.54-2.12h-5l-.54,2.12h5Z"/>
    <path class="st0" d="M95.32,63.83l-.2.8h-2.36l1.76-7.03h6.32l-1.56,6.22h-3.96ZM101.4,54.79l-.54,2.16h-6.1l.54-2.16h6.1ZM95.26,51.42l.56-2.26,3.2-.16c-.1-.74-.3-1.6-.5-2.3l2.24-.78c.3.86.62,2,.76,2.76l-1.24.48h3.2l-.56,2.26h-7.67ZM103.38,48.84l.52-2.12h2.38l.22-.82h2.46l-.22.82h1.92l.22-.82h2.52l-.22.82h2.1l-.52,2.12h-2.1l-.22.84-2.4.14c.1.32.18.68.22.96l3.6-.16-.4,1.62h-3.12l-.12.48h2.5l-.34,1.36h-2.5l-.12.48h2.5l-.34,1.36h-2.5l-.14.5h3.44l-.42,1.68h-7.73l-.06.24h-2.34l.98-3.52c-.26.24-.44.36-.6.42-.18-.52-.42-1.52-.66-2.14l-.36,1.08h-6.1l.54-2.16h6.12l-.28.7c1.12-.92,2.32-2.3,3.12-3.64l.66.38.16-.62h-2.38ZM95.9,61.53h1.56l.4-1.64h-1.56l-.4,1.64ZM108.51,62.25c.82.14,1.86.28,3.1.48-.54.52-1.54,1.62-1.92,2.28-1.64-.38-3.02-.84-4.02-1.36-1.74.66-3.46,1.02-5.2,1.14-.16-.68-.38-1.68-.82-2.26,1.18,0,2.48-.26,3.78-.66-.2-.36-.48-.82-.72-1.3l.78-.1h-2.2l.48-1.9h8.05l.44-.1,1.5.92c-.9,1.16-1.88,2.06-3.24,2.86ZM105.14,55.93l-.14.5h1.96l.14-.5h-1.96ZM105.91,61.11c.56-.28,1-.5,1.4-.74l-2.06.2c.22.24.48.42.66.54ZM105.61,54.09l-.12.48h1.96l.12-.48h-1.96ZM106.07,52.24l-.12.48h1.96l.12-.48h-1.96ZM107.89,49.58l.02.1h-1.7l.8.42-.44.68,1.52-.32c-.06-.32-.1-.6-.2-.88ZM108.01,49.64l1.9-.6.08.22.16-.42h-1.92l-.22.8Z"/>
    <path class="st0" d="M137.05,57.61c-.12.26-.2.52-.28.76l4.4-.16-.6,2.42-3.1.12c.62.9,1.58,1.5,3.08,1.96-.6.5-1.74,1.62-2.14,2.28-1.7-.76-2.76-1.96-3.3-3.32-1.26,1.56-2.88,2.54-5.58,3.12-.2-.72-.58-1.7-1.14-2.26-.2.76-.44,1.28-.94,1.72-.76.3-1.48.24-2.5.08-.02-.64.04-1.74-.24-2.36.38.14.92.14.98.14.32,0,.58-.24.62-.46l.8-3.2-1.46.16c-.72,2.26-1.58,4.58-2.5,6.22-.36-.54-1.3-1.1-1.82-1.46,1.48-2.66,2.58-6.7,3.32-9.61l1.76-7.13h5.94l-3.82,15.39c-.04.18-.08.34-.14.5,2-.4,3.32-1.16,4.16-2.04l-3.16.14.6-2.42,4.02-.16c.08-.24.18-.5.26-.76l-3.18.16,1.64-6.6h9.67l-1.64,6.6-3.7.16ZM128.26,53.83h-1.3l-.06.26c-.16.58-.3,1.22-.5,1.9l1.36-.16.5-2ZM127.6,51.2h1.3l.5-1.94h-1.3l-.5,1.94ZM144.23,47.12l-.56,2.3h-2.38l-.28,1.06h-2.62l.28-1.06h-1.7l-.28,1.06h-2.62l.28-1.06h-2.22l.56-2.3h2.22l.32-1.24h2.62l-.32,1.24h1.7l.32-1.24h2.62l-.32,1.24h2.38ZM138.51,55.57l.14-.54h-4.38l-.14.54h4.38ZM134.71,53.27h4.38l.14-.54h-4.38l-.14.54Z"/>
  </g>
</svg>