<?xml version="1.0" encoding="UTF-8"?>
<svg id="_圖層_1" data-name="圖層_1" xmlns="http://www.w3.org/2000/svg" version="1.1" viewBox="0 0 157.7 42.69">
  <!-- Generator: Adobe Illustrator 29.6.1, SVG Export Plug-In . SVG Version: 2.1.1 Build 9)  -->
  <path d="M13.45,2.01c2.37,2.22,4.2,4.05,5.49,5.49l-2.47,1.78-1.24-1.31c-1.03,0-2.68.05-4.95.15-2.27.05-3.92.1-4.95.15-1.34.1-2.47.23-3.4.39L.46,5.8c.57,0,1.16-.03,1.78-.08C4.25,3.81,6,1.91,7.5,0l3.48,1.39c-.46.41-1.5,1.37-3.09,2.86-.57.62-1,1.06-1.31,1.31l6.18-.23-1.55-1.7,2.24-1.62ZM2.01,18.63v-9.04h15.07v9.04h-3.17v-1.08H5.18v1.08h-3.17ZM5.18,12.37v2.55h8.74v-2.55H5.18Z"/>
  <path d="M27.67.08h3.32v3.17h6.88v10.74h-3.25v-1.08h-3.63v5.8h-3.32v-5.8h-3.56v1.08h-3.32V3.25h6.88V.08ZM24.12,6.26v3.63h3.56v-3.63h-3.56ZM34.63,6.26h-3.63v3.63h3.63v-3.63Z"/>
  <path d="M47.62,0h3.25v2.32h7.42v2.86h-18.24v-2.86h7.58V0ZM41.12,16.7V7.19h6.49v-1.62h3.25v1.62h6.57v6.42c.05,2.01-.9,2.99-2.86,2.94-.77.05-1.73.08-2.86.08-.21-1.08-.41-2.04-.62-2.86.72.05,1.42.08,2.09.08.82.05,1.21-.31,1.16-1.08v-2.71h-3.48v8.58h-3.25v-8.58h-3.4v6.65h-3.09Z"/>
  <path d="M71.27.15l2.94.15c-.16.93-.36,1.78-.62,2.55h4.71v3.01h-1.08c-.31,2.99-.98,5.46-2.01,7.42.82.88,1.88,1.7,3.17,2.47-.36.57-.93,1.49-1.7,2.78-1.29-.93-2.35-1.86-3.17-2.78-.98.93-2.16,1.93-3.56,3.02-.57-.83-1.24-1.62-2.01-2.4,1.65-.98,2.94-2.01,3.87-3.09-.52-1.18-.9-2.34-1.16-3.48-.05.1-.16.26-.31.46-.1.26-.21.44-.31.54-.1-.31-.31-.8-.62-1.47-.31-.67-.54-1.13-.7-1.39h-1.7c-.21.26-.46.54-.77.85h2.47v2.16l-1.86,1.47,2.63-.23.08,2.47-3.01.31v.85c.05,1.6-.67,2.45-2.16,2.55h-1.16c-.77.05-1.34.08-1.7.08-.1-.57-.28-1.34-.54-2.32.72.05,1.39.08,2.01.08.51-.05.77-.33.77-.85v-.15l-3.94.31-.16-2.47.85-.08c-.31-.62-.7-1.29-1.16-2.01.57-.26,1.08-.54,1.55-.85v-1.31h1.93c.1-.1.28-.26.54-.46.21-.15.36-.28.46-.39h-4.1v-2.47h2.94v-1.08h-2.24v-2.4h2.24V.15h2.78v1.86h2.01v1.39c.26-.57.54-1.11.85-1.62l2.16,1.08c-.52.98-1.06,1.86-1.62,2.63h.39v1.24c.93-1.86,1.6-4.04,2.01-6.57ZM65.4,11.05h-1.7c-.77.62-1.62,1.24-2.55,1.86l2.63-.23v-.39l1.62-1.24ZM66.02,5.49c.05-.05.1-.1.15-.15.16-.21.36-.51.62-.93h-1.31v1.08h.54ZM72.59,5.88c0,.15-.05.26-.15.31.21,1.75.57,3.2,1.08,4.33.57-1.19.93-2.73,1.08-4.64h-2.01Z"/>
  <path d="M91.53.08l-.62.54c2.06,1.24,4.54,2.16,7.42,2.78-.1.36-.28.9-.54,1.62-.15.52-.26.88-.31,1.08-.31-.1-.57-.18-.77-.23v5.49h-15.92v-5.26c-.1,0-.23.03-.39.08-.21.05-.36.1-.46.15-.1-.51-.39-1.39-.85-2.63,3.81-.98,6.6-2.19,8.35-3.63h4.1ZM81.55,18.63v-6.65h14.38v6.65h-2.94v-.54h-8.5v.54h-2.94ZM92.3,4.95h-7.11v-.54c-.88.36-1.86.75-2.94,1.16h13.53c-1.29-.46-2.45-.93-3.48-1.39v.77ZM83.56,7.42v2.09h1.7c-.1-.1-.34-.31-.7-.62-.36-.31-.62-.54-.77-.7l1.16-.77h-1.39ZM84.49,13.76v.62h8.5v-.62h-8.5ZM84.49,15.77v.62h8.5v-.62h-8.5ZM87.12,8.5l-1.31,1h1.55v-2.09h-1.62c.31.26.77.62,1.39,1.08ZM90.67,3.4c-.21-.15-.49-.36-.85-.62-.41-.26-.72-.44-.93-.54-.52.36-1.13.75-1.85,1.16h3.63ZM90.37,8.5c.1-.1.28-.23.54-.39.36-.31.64-.54.85-.7h-1.62v2.09h1.39l-1.16-1ZM93.84,9.51v-2.09h-1.39l1.16.77c-.1.1-.34.31-.7.62-.36.31-.62.54-.77.7h1.7Z"/>
  <path d="M3.4,38.9H.93l.54-5.72h3.48v-.93h-2.4c-.21.1-.57.23-1.08.39-.21.1-.39.18-.54.23-.31-.77-.62-1.55-.93-2.32,1.13-.31,2.16-.67,3.09-1.08l-2.16-1.39,1.31-1.08H.85v-2.16h7.58c-.16-.31-.28-.64-.39-1h2.86c.31.67.62,1.26.93,1.78l3.71-1.86,1.31,1.55c-1.13.67-2.32,1.31-3.56,1.93.05.1.18.23.39.39.16.1.26.18.31.23.46-.26,1.16-.67,2.09-1.24.62-.36,1.08-.62,1.39-.77l1.31,1.78-2.55,1.39c.82.31,1.78.62,2.86.93-.21.41-.52,1.19-.93,2.32-.31-.1-.77-.26-1.39-.46-.46-.15-.8-.26-1-.31v1.78c0,.1.08.15.23.15h.08c.16,0,.23-.05.23-.15.05-.1.08-.36.08-.77.26.21.72.36,1.39.46h.15c-.05.46-.13.95-.23,1.47-.16.46-.67.67-1.55.62h-.93c-1.29,0-1.93-.33-1.93-1v-2.16h-1.47v.54c0,1.13-.7,2.11-2.09,2.94h7.5v2.16c-.57.77-1.29,1.55-2.17,2.32.36.1.98.23,1.86.39.62.1,1.08.21,1.39.31-.72.82-1.26,1.52-1.62,2.09-1.8-.52-3.12-1-3.94-1.47-.72.41-2.11.9-4.17,1.47-.31-.62-.72-1.34-1.24-2.16,1.18-.15,2.24-.36,3.17-.62-.77-.62-1.47-1.34-2.09-2.16l.77-.31h-1v-2.01h1.47c-.15-.15-.41-.36-.77-.62-.46-.41-.83-.72-1.08-.93,1.03-.46,1.49-1.16,1.39-2.09v-1.62h3.63c-1.39-.82-2.45-1.83-3.17-3.01-.98,1.24-1.98,2.24-3.01,3.01h.85v5.18h-3.71l-.08,1.08h3.71c-.05,1.29-.13,2.53-.23,3.71-.05,1.39-.8,2.11-2.24,2.16-.46.05-1.47.08-3.01.08-.05-.1-.1-.31-.16-.62-.15-.77-.28-1.31-.39-1.62.88.05,1.7.08,2.47.08.46,0,.7-.21.7-.62.1-.36.15-.72.15-1.08h-1.24l-.08.46ZM6.8,26.99h-3.4c.21.1.51.31.93.62.41.26.72.46.93.62.51-.36,1.03-.77,1.55-1.24ZM14.38,37.35h-3.09c.1.1.28.26.54.46.15.15.49.44,1,.85.62-.41,1.13-.85,1.55-1.31Z"/>
  <path d="M37.49,37.82c-.21.1-.54.31-1,.62-.46.26-.83.46-1.08.62.93.21,2.06.39,3.4.54-.05.1-.13.26-.23.46-.57.93-.95,1.65-1.16,2.16-3.2-.67-5.44-1.73-6.72-3.17,0,.72.05,1.36.15,1.93-2.22.46-4.36,1.03-6.42,1.7l-.7-2.24,1.62-.31v-3.4h-1c-.26,2.06-.95,3.94-2.09,5.64-.72-.82-1.47-1.57-2.24-2.24.62-1.19,1.03-2.34,1.24-3.48.21-1.08.31-2.81.31-5.18v-7.03h16.23v5.72h-2.71v1.08h2.86v2.16h-2.86v1.08h3.4v2.24h-2.01l1,1.08ZM24.58,33.41c0,.36-.03.72-.08,1.08h2.47v-1.08h-2.4ZM24.58,26.84v1.16h10.2v-1.16h-10.2ZM24.58,30.16v1.08h2.4v-1.08h-2.4ZM28.21,39.36l2.16-.62c-.26-.31-.59-.82-1-1.55-.1-.21-.18-.36-.23-.46h-.93v2.63ZM29.84,30.16v1.08h2.32v-1.08h-2.32ZM29.84,33.41v1.08h2.32v-1.08h-2.32ZM33.01,37.89c.57-.41,1.11-.8,1.62-1.16h-2.71c.31.46.67.85,1.08,1.16Z"/>
  <path d="M42.67,23.75l3.01.31c-.15.31-.31.59-.46.85h4.02v1.7c.77-.98,1.37-1.93,1.78-2.86l3.01.31c-.15.31-.31.59-.46.85h4.79v2.32h-3.32c.36.31.77.62,1.24.93l-1.47,1.31h3.48v2.4h-7.65v.93h6.73v2.78c.05,1.55-.67,2.35-2.17,2.4h-1.16c.88.46,2.42.95,4.64,1.47-.52,1.03-.98,1.93-1.39,2.71-3.04-.98-5.26-2.14-6.65-3.48v3.71h-3.01v-3.63c-1.29,1.24-3.48,2.42-6.57,3.56-.1-.21-.28-.59-.54-1.16-.41-.72-.7-1.26-.85-1.62,3.66-.88,6.31-2.27,7.96-4.17v-.23h-3.4v2.63h-2.94v-4.95h6.34v-.93h-7.58v-2.4h5.26c-.15-.15-.41-.39-.77-.7-.31-.31-.57-.54-.77-.7l1.08-.85h-1.16c-.57.67-1.24,1.37-2.01,2.09-.26-.26-.7-.64-1.31-1.16-.31-.26-.54-.46-.7-.62,1.44-1.29,2.45-2.55,3.01-3.79ZM47.62,28.54h2.32c-.21-.15-.54-.36-1-.62-.26-.15-.44-.28-.54-.39.1-.1.21-.21.31-.31h-2.55c.05.05.13.1.23.15.41.26.8.57,1.16.93l-1.39,1.16h1.47v-.93ZM52.1,27.23c-.15.26-.46.65-.93,1.16-.26.21-.44.39-.54.54v.54h3.4c-.46-.36-1.03-.85-1.7-1.47l.93-.77h-1.16ZM54.42,35.11h-3.79v.23c.77.93,1.7,1.7,2.78,2.32-.1-.21-.23-.54-.39-1-.15-.31-.26-.54-.31-.7.16,0,.36.03.62.08h.46c.46-.05.67-.23.62-.54v-.39Z"/>
  <path d="M69.03,42.38v-7.88l-.62.15c-.05-.1-.1-.26-.15-.46-.05-.15-.18-.54-.39-1.16v8.5h-2.17v-1h-3.32v1.16h-2.17v-16.62h7.65v3.17c1.18-1.24,2.11-2.73,2.78-4.48l2.94.23c-.21.52-.44,1-.7,1.47h4.95v2.55c-.72,1.13-1.47,2.11-2.24,2.94.46.15,1.26.36,2.4.62.26.05.44.08.54.08-.05.21-.16.54-.31,1.01-.26.88-.41,1.47-.46,1.78-2.16-.57-3.69-1.11-4.56-1.62-1.08.62-2.4,1.16-3.94,1.62h8.12v7.96h-2.71v-1.08h-3.01v1.08h-2.63ZM62.38,27.54v4.1h.77v-4.1h-.77ZM62.38,34.03v4.1h.77v-4.1h-.77ZM65.71,27.54h-.77v4.1h.77v-4.1ZM64.93,34.03v4.1h.77v-4.1h-.77ZM68.88,31.09c-.05-.1-.15-.31-.31-.62-.1-.15-.34-.54-.7-1.16v2.55c1.13-.31,2.09-.62,2.86-.93-.05-.1-.18-.26-.39-.46-.15-.21-.28-.36-.39-.46-.31.31-.67.67-1.08,1.08ZM74.83,28h-3.25c.46.62.98,1.16,1.55,1.62.62-.46,1.18-1,1.7-1.62ZM71.66,37.04v1.78h3.01v-1.78h-3.01Z"/>
  <path d="M79.39,27.38v-2.55h6.96v1.39l.16-.23.46.39c.21-.26.46-.67.77-1.24.21-.41.36-.72.46-.93l1.93.7c-.36.72-.9,1.6-1.62,2.63l.46.39.93-1.39,1.55,1.31c-.41.41-.96,1.08-1.62,2.01l1.16-.39c.21.62.44,1.44.7,2.47.15.46.26.8.31,1l-1.55.46c-.05-.21-.13-.46-.23-.77-1.24.21-2.63.41-4.17.62l-.31-1.85v10.98h-2.24v-2.24c-.72,0-1.8.1-3.25.31-.31.05-.54.08-.7.08l-.31-2.63.77-.08v-10.44h-.62ZM82.33,27.38v1.86h1.16v-1.86h-1.16ZM82.33,31.48v1.93h1.16v-1.93h-1.16ZM82.33,37.58c.15,0,.36-.03.62-.08h.54v-1.85h-1.16v1.93ZM86.73,31.17l1-1.47c-.21-.21-.54-.49-1-.85-.41-.41-.75-.7-1-.85v3.17h1ZM88.59,39.44h-2.01v-5.33h2.01v2.32h.77v-2.78h2.4v3.32c.1,2.42-1.03,4.33-3.4,5.72-.21-.15-.49-.41-.85-.77-.41-.41-.72-.7-.93-.85,1.6-.88,2.45-1.73,2.55-2.55h-.54v.93ZM89.75,30.86l-.23-.7-.54.77c.26,0,.51-.03.77-.08ZM92.53,25.99l.54.39c.41-.67.8-1.39,1.16-2.16l2.01.7c-.26.46-.82,1.34-1.7,2.63l.46.39.93-1.39,1.62,1.24c-.15.15-.44.49-.85,1-.36.46-.64.82-.85,1.08l1.39-.39c.16.57.36,1.29.62,2.16.15.57.28,1.01.39,1.31l-1.78.46c-.05-.1-.08-.23-.08-.39-.05-.15-.08-.28-.08-.39-1.7.26-3.09.46-4.17.62l-.39-2.09h1l1.08-1.47c-.21-.15-.49-.39-.85-.7-.72-.62-1.29-1.08-1.7-1.39l1.24-1.62ZM97.71,34.11v5.33h-2.01v-.93h-.85v3.71h-2.32v-8.58h2.32v2.78h.85v-2.32h2.01ZM95.85,30.86l-.23-.7-.62.77c.31,0,.59-.03.85-.08Z"/>
  <path d="M99.33,41.76v-2.4h1.47v-4.48h15.46v4.48h1.47v2.4h-18.4ZM100.11,24.67h7.03v9.35h-7.03v-9.35ZM102.89,26.84v1.47h1.55v-1.47h-1.55ZM102.89,31.79h1.55v-1.47h-1.55v1.47ZM104.05,37.35v2.01h1.16v-2.01h-1.16ZM113.17,32.48c.62,0,.93-.23.93-.7h-3.32c-.16.88-.57,1.91-1.24,3.09-.93-.72-1.73-1.24-2.4-1.55.82-1.13,1.19-2.76,1.08-4.87v-4.02h8.74v7.27c.05,1.85-.72,2.78-2.32,2.78h-1.31c-.77.05-1.37.08-1.78.08-.05-.31-.13-.72-.23-1.24-.1-.36-.18-.64-.23-.85h2.09ZM107.91,37.35v2.01h1.24v-2.01h-1.24ZM111,29.16v.39c-.05.21-.08.36-.08.46h3.25v-.85h-3.17ZM111,26.61v.77h3.17v-.77h-3.17ZM113.01,37.35h-1.16v2.01h1.16v-2.01Z"/>
  <path d="M120.13,23.9h2.78v4.25h1.08v2.71h-1.08v9.2c1.03-1.03,1.6-2.47,1.7-4.33h-1.16v-2.4h1.31v-1.16h.77c-.41-.62-.9-1.29-1.47-2.01,2.17-.62,3.43-1.37,3.79-2.24h-3.25v-2.47h3.63v-.62c.05-.41.08-.75.08-1h3.01c0,.21-.03.46-.08.77,0,.41-.03.7-.08.85h5.49c0,.62-.05,1.57-.15,2.86-.05.46-.08.8-.08,1,0,1.7-.88,2.55-2.63,2.55-.83.05-1.8.08-2.94.08-.15-.77-.34-1.57-.54-2.4h2.32c.67.05,1-.18,1-.7,0-.31.03-.62.08-.93h-2.86c-.31,1.75-1.73,3.17-4.25,4.25h.46c-.05.36-.08.75-.08,1.16h3.25c0,.72-.03,1.75-.08,3.09,0,1.44-.03,2.5-.08,3.17.88-1.03,1.36-2.32,1.47-3.87h-1v-2.4h1.08v-1.16h2.32c0,.52-.03.9-.08,1.16h3.4c0,.36-.03.9-.08,1.62-.05,1.44-.08,2.91-.08,4.41.05,1.8-.75,2.68-2.4,2.63h-1.86c-.05-.26-.1-.59-.15-1.01-.1-.31-.15-.52-.15-.62-.36.62-.9,1.29-1.62,2.01-.1-.21-.31-.54-.62-1-.21-.31-.36-.54-.46-.7-.15.82-.85,1.26-2.09,1.31h-.77c-.46.05-.8.08-1,.08v-.23c-.05-.36-.15-.9-.31-1.62-.36.72-.9,1.47-1.62,2.24-.36-.67-.75-1.44-1.16-2.32v2.16h-2.78v-11.44h-1.16v-2.71h1.16v-4.25ZM127.86,35.73h-.93c-.15,1.8-.44,3.12-.85,3.94h.93c.57.05.82-.18.77-.7.05-.72.08-1.8.08-3.25ZM133.81,35.73c-.05,1.7-.31,2.99-.77,3.87.31.05.59.05.85,0,.62.05.93-.21.93-.77v-1.31c.05-.72.08-1.31.08-1.78h-1.08Z"/>
  <path d="M150.89,23.82l-.62.54c2.06,1.24,4.54,2.16,7.42,2.78-.1.36-.28.9-.54,1.62-.15.52-.26.88-.31,1.08-.31-.1-.57-.18-.77-.23v5.49h-15.92v-5.26c-.1,0-.23.03-.39.08-.21.05-.36.1-.46.15-.1-.51-.39-1.39-.85-2.63,3.81-.98,6.6-2.19,8.35-3.63h4.1ZM140.92,42.38v-6.65h14.38v6.65h-2.94v-.54h-8.5v.54h-2.94ZM151.67,28.69h-7.11v-.54c-.88.36-1.86.75-2.94,1.16h13.53c-1.29-.46-2.45-.93-3.48-1.39v.77ZM142.93,31.17v2.09h1.7c-.1-.1-.34-.31-.7-.62-.36-.31-.62-.54-.77-.7l1.16-.77h-1.39ZM143.86,37.51v.62h8.5v-.62h-8.5ZM143.86,39.52v.62h8.5v-.62h-8.5ZM146.49,32.25l-1.31,1h1.55v-2.09h-1.62c.31.26.77.62,1.39,1.08ZM150.04,27.15c-.21-.15-.49-.36-.85-.62-.41-.26-.72-.44-.93-.54-.52.36-1.13.75-1.85,1.16h3.63ZM149.73,32.25c.1-.1.28-.23.54-.39.36-.31.64-.54.85-.7h-1.62v2.09h1.39l-1.16-1ZM153.21,33.26v-2.09h-1.39l1.16.77c-.1.1-.34.31-.7.62-.36.31-.62.54-.77.7h1.7Z"/>
</svg>