<?xml version="1.0" encoding="UTF-8"?>
<svg id="_圖層_1" data-name="圖層_1" xmlns="http://www.w3.org/2000/svg" version="1.1" viewBox="0 0 137 36.77">
  <!-- Generator: Adobe Illustrator 29.6.1, SVG Export Plug-In . SVG Version: 2.1.1 Build 9)  -->
  <defs>
    <style>
      .st0 {
        fill: #036eb7;
      }
    </style>
  </defs>
  <path class="st0" d="M21.92,27.58l.07-13.13h8.37v22.25l-15.29-.03s-5.64-.84-7.9-3.07c0,0-3.41-2.03-6.28-8.96,0,0-1.86-5.82-.2-10.89,0,0,1.32-4.12,4.41-7.24,0,0,2.03-2.28,4.76-3.95,0,0,3.43-1.89,8.09-2.25L67.33,0l-9.17,9.57-15.19.11s-2.75,1.41-.73,3.31c0,0,1.26.67,1.99.72,0,0,4.46.46,5.06.63,0,0,5.07.98,7.23,4.02,0,0,2.09,2.6,2.43,6.65,0,0,.02,4.09-2.36,7.19,0,0-1.49,2.67-7.33,4.56h-15.64s.02-9.18.02-9.18h14.99s1.38-.38,1.37-1.48c0,0,.15-1.04-.59-1.94,0,0-.68-.83-2.25-.89l-3.31-.24s-7.99-1.17-9.71-9.18c0,0-.5-3.23.05-5.12l.51-1.4c.05-.09.08-.19.07-.29v-.44c-.02-.11-.1-.2-.21-.21l-.34-.03-3.43,3.14-9.42-.06s-6.62-.44-9.72,4.12c0,0-3.44,3.82-.81,9.56,0,0,1.86,3.58,5.2,4.15l5.87.3Z"/>
  <polygon class="st0" points="60.73 9.81 60.73 36.62 75.79 21.15 75.79 36.62 112.32 .15 101.11 .15 85.17 15.68 85.24 .15 69.51 15.75 69.44 .15 60.73 9.81"/>
  <polygon class="st0" points="105.24 9.98 105.24 36.77 114.82 36.77 114.82 22.74 127.38 22.69 127.38 13.72 114.87 13.62 114.87 9.17 127.68 9.17 137 0 115.07 0 105.24 9.98"/>
</svg>