<?xml version="1.0" encoding="UTF-8"?>
<svg id="_圖層_1" data-name="圖層_1" xmlns="http://www.w3.org/2000/svg" version="1.1" viewBox="0 0 79.95 79.95">
  <!-- Generator: Adobe Illustrator 29.6.1, SVG Export Plug-In . SVG Version: 2.1.1 Build 9)  -->
  <defs>
    <style>
      .st0 {
        fill: none;
      }

      .st1 {
        fill: #ec6c24;
      }

      .st2 {
        fill: #d9d9d9;
      }

      .st3 {
        opacity: .5;
      }

      .st3, .st4 {
        fill: #fff;
      }

      .st5 {
        fill: #0e8053;
        opacity: .1;
      }

      .st6 {
        fill: #4f63ac;
      }

      .st7 {
        fill: #d4e16d;
      }

      .st8 {
        fill: #f08c24;
      }

      .st9 {
        fill: #454f9f;
      }
    </style>
  </defs>
  <g>
    <rect class="st7" width="79.95" height="79.95" rx="16.27" ry="16.27"/>
    <g>
      <path class="st3" d="M9.48,25.4v-7.61c0-2.31.9-4.47,2.53-6.1,1.63-1.63,3.8-2.53,6.1-2.53h7.63c6.02-.63,6.54-6.13,6.58-6.7,0-.03,0-.05,0-.05l-13.79.04h0s-2.77.01-2.77.01c-1.75,0-3.45.34-5.06,1.02-1.55.65-2.94,1.59-4.13,2.78-1.19,1.19-2.13,2.58-2.78,4.13-.68,1.6-1.02,3.3-1.02,5.06v16.63s6.09-.23,6.7-6.68Z"/>
      <path class="st5" d="M70.47,54.55v7.61c0,2.31-.9,4.47-2.53,6.11-1.63,1.63-3.8,2.53-6.1,2.53h-7.64c-6.02.63-6.54,6.13-6.58,6.7,0,.03,0,.05,0,.05l13.79-.04h0s2.77-.01,2.77-.01c1.75,0,3.45-.34,5.06-1.02,1.55-.65,2.94-1.59,4.13-2.78,1.19-1.19,2.13-2.58,2.78-4.13.68-1.6,1.02-3.3,1.02-5.06v-16.63s-6.09.23-6.7,6.68Z"/>
    </g>
  </g>
  <g>
    <g>
      <path class="st4" d="M51.9,34.84c-.18-.14-.39-.26-.62-.37-.06-.03-.12-.06-.18-.08,0,0,0,0-.02-.01-.05-.05-.23-.24-.27-.46-.05-.26.25-.61.61-.45,0,0,.09.09.23.2.11.09.26.18.4.24.24.1.48.08.55-.3,0-.01,0-.02,0-.04.02-.17-.03-.43-.14-.74-.49-1.35-2.18-3.64-4.74-3.58,0,0-.51.1-.23.37,0,0,1.38.3.93.71,0,0-1.54-.1-2.61,0-.02,0-.05,0-.08.01-1.33.18-8.53,2.05-6.27,7.73,0,0,.42,1.14,1.04.59,0,0,.31-1.2.81-1.44.08-.04.17-.05.27-.03,0,0,.27.18.02.62-.25.44-.73,2.59-.09,3.13.12.1.23.19.33.25.41.26.63.16.89-.29,0,0,.02-.03.04-.08.18-.32.91-1.49,1.57-1.16,0,0,.2.19-.21.64-.41.44-1.79,2.4.13,3.45,1.92,1.05,3.75-.46,4.07-1.91,0,0,.1-1.18-.33-.86,0,0-.24.81-.62.75-.32-.05-.45-1.64,1.69-2.71.34-.17.74-.33,1.21-.46,0,0,.36.16.25.45-.11.29-1.74.57-1.54.96.21.39,2.07.63,3.33-.57,1.1-1.05,1.21-3.34-.43-4.57Z"/>
      <path class="st0" d="M54.28,37.11c.06,1.05-.36,2.07-1.25,3.04-.03.03-.76.85-2.04,1.07-.56.1-1.14.06-1.73-.11.01.45-.02,1.29-.42,2.1.02.07.04.13.06.2.51,1.55,1.53,2.61,3.07,3.19l.51.19c1.73.38,3.44.08,5.14-.9,1.56-.9,2.78-2.2,3.68-3.89l.29-.55c.74-1.75.9-3.33.47-4.75-.49-1.64-1.55-2.77-3.16-3.38-1.45-.55-3.06-.49-4.81.19-.27.1-.53.22-.79.36-.06.2-.15.4-.26.59.33.33,1.16,1.3,1.24,2.64Z"/>
      <path class="st9" d="M53.41,33.18c.13-.05.26-.11.39-.15,1.95-.7,3.74-.77,5.35-.19,1.79.63,2.96,1.8,3.51,3.51.47,1.47.3,3.11-.53,4.94l-.32.57c-.07.12-.14.24-.21.35.68-.67,1.26-1.44,1.76-2.32l.32-.57c.82-1.82,1-3.47.53-4.94-.55-1.71-1.72-2.88-3.51-3.51-1.62-.57-3.4-.51-5.35.19-.75.27-1.46.65-2.12,1.13.05.14.09.29.12.43.04.19.06.37.05.55Z"/>
      <path class="st9" d="M41.67,42.2c-.25,1.98-.04,3.88.66,5.69,1.18,3.07,3.48,5.11,6.91,6.1,3.65.8,7.17.2,10.56-1.79,2.86-1.69,5.08-3.88,6.65-6.56-1.44,1.92-3.28,3.54-5.51,4.85-3.38,2-6.9,2.59-10.56,1.79-3.43-.99-5.73-3.03-6.91-6.1-.3-.8-.52-1.61-.64-2.44-.31-.5-.46-1.04-.48-1.41-.17,0-.41-.04-.67-.13Z"/>
      <g>
        <path class="st2" d="M53.2,37.01c-.01-.12-.03-.24-.06-.36-.17-.76-.62-1.5-1.43-2-.16-.1-.33-.19-.51-.26,0,0-.24-.22-.29-.48-.03-.18.1-.4.31-.47-.19-.13-.34-.28-.34-.28-.36-.16-.66.19-.61.44.05.26.29.48.29.48.18.08.35.17.51.26.81.5,1.27,1.24,1.43,2,.03.12.05.24.06.36.05.5-.02,1-.19,1.45-.14.38-.36.71-.63.97-.86.81-2,.95-2.7.83,0,0,0,.01,0,.02.2.39,2.07.65,3.34-.54.28-.26.49-.59.63-.97.17-.44.24-.94.19-1.45Z"/>
        <path class="st2" d="M48.04,40.98s-.13.41-.33.62c-.03.11-.06.21-.1.31-.48,1.18-1.9,2.25-3.46,1.72.04.03.09.05.14.08,1.75.98,3.44-.18,3.97-1.49.05-.12.09-.25.12-.38,0,0,.12-1.18-.32-.87Z"/>
        <path class="st2" d="M52.06,33.31s0,.02,0,.03c-.06.23-.18.32-.32.32.17.13.4.29.6.31.16.02.3-.06.36-.31,0,0,0-.02,0-.03.14-.68-.98-3.1-3.05-4.03-.07-.03-.15-.06-.23-.09,1.8,1.05,2.76,3.18,2.63,3.82Z"/>
        <path class="st2" d="M46.77,41.42c.22.04.39-.22.5-.44.16-.68.83-1.66,2.68-2.28.08-.27-.26-.43-.26-.43-3.39.95-3.3,3.08-2.93,3.14Z"/>
        <path class="st2" d="M41.01,36.82c-.66-.18-1.09,1.45-1.09,1.45-.06.05-.12.09-.18.11.03.04.06.08.09.12.18.21.43.34.73.07,0,0,.14-.52.38-.95.03-.08.06-.14.08-.19.25-.44-.02-.62-.02-.62Z"/>
        <path class="st2" d="M43.09,39.4c-.53.33-.97,1.15-.97,1.15-.16.26-.3.41-.47.42.55.45.8.41,1.11-.12,0,0,.43-.81.96-1.14.15-.27.03-.39.03-.39-.22-.11-.44-.06-.66.07Z"/>
      </g>
      <path class="st6" d="M70.16,33.83c-.76-2.99-2.39-5.32-4.91-6.98-.69-.43-1.42-.79-2.19-1.08-1.72-.65-3.6-.9-5.64-.76-2.94.21-5.77,1.16-8.51,2.85-.25.16-.5.32-.75.49-.13,0-.27.02-.4.04-.9.15-1.48.67-1.66.86-.27.03-.54.06-.81.11-3.03.51-6.75,2.38-7.26,5.96-.16,1.11-.12,2.68.98,3.8.49.5,1.02.73,1.27.82.02.32.07.61.15.87-.25,1.95-.12,3.86.4,5.72,1.04,3.69,3.41,6.27,7.1,7.74,3.96,1.26,7.89.88,11.79-1.15,3.9-2.03,6.86-4.95,8.88-8.75l.47-.89c1.47-3.44,1.83-6.65,1.07-9.64ZM55.36,31.06c1.95-.7,3.74-.77,5.35-.19,1.79.63,2.96,1.81,3.51,3.51.47,1.47.3,3.12-.53,4.94l-.32.57c-.5.87-1.08,1.65-1.76,2.32.07-.12.14-.23.21-.35l.32-.57c.82-1.82,1-3.47.53-4.94-.55-1.71-1.72-2.88-3.51-3.51-1.62-.57-3.4-.51-5.35.19-.13.05-.26.1-.39.15,0-.18-.02-.37-.05-.55-.03-.15-.07-.29-.12-.43.66-.48,1.36-.86,2.12-1.13ZM49.25,41.11c.59.17,1.17.21,1.73.11,1.28-.22,2.01-1.04,2.04-1.07.89-.97,1.31-1.99,1.25-3.04-.07-1.34-.91-2.31-1.24-2.64.11-.19.2-.39.26-.59.26-.14.52-.26.79-.36,1.75-.67,3.36-.74,4.81-.19,1.61.61,2.66,1.73,3.16,3.38.42,1.41.27,2.99-.47,4.75l-.29.55c-.9,1.69-2.13,2.99-3.68,3.89-1.7.98-3.41,1.28-5.14.9l-.51-.19c-1.53-.58-2.56-1.64-3.07-3.19-.02-.06-.04-.13-.06-.2.39-.81.43-1.65.42-2.1ZM40.5,38.67c-.62.55-1.04-.59-1.04-.59-2.25-5.68,4.94-7.55,6.27-7.73.03,0,.06,0,.08-.01,1.07-.11,2.61,0,2.61,0,.45-.42-.93-.71-.93-.71-.28-.28.23-.37.23-.37,2.56-.07,4.25,2.22,4.74,3.58.11.31.16.57.14.74,0,.01,0,.03,0,.04-.07.38-.31.4-.55.3-.14-.06-.28-.15-.4-.24-.14-.1-.23-.2-.23-.2-.36-.16-.66.19-.61.45.04.22.22.41.27.46,0,0,.02.01.02.01.06.03.12.05.18.08.23.11.43.23.62.37,1.64,1.24,1.53,3.52.43,4.57-1.26,1.2-3.12.96-3.33.57-.21-.39,1.43-.67,1.54-.96.11-.29-.25-.45-.25-.45-.47.14-.87.29-1.21.46-2.14,1.07-2.01,2.65-1.69,2.71.38.06.62-.75.62-.75.44-.32.33.86.33.86-.32,1.45-2.15,2.96-4.07,1.91-1.92-1.05-.54-3.01-.13-3.45.41-.44.21-.64.21-.64-.67-.33-1.39.84-1.57,1.16-.03.05-.04.08-.04.08-.26.45-.48.55-.89.29-.1-.06-.21-.15-.33-.25-.63-.54-.15-2.68.09-3.13.25-.44-.02-.62-.02-.62-.09-.02-.18-.01-.27.03-.5.23-.81,1.44-.81,1.44ZM59.79,52.2c-3.38,2-6.9,2.59-10.56,1.79-3.43-.99-5.73-3.03-6.91-6.1-.69-1.81-.91-3.71-.66-5.69.26.1.5.13.67.13.03.38.18.91.48,1.41.12.83.33,1.64.64,2.44,1.18,3.07,3.48,5.11,6.91,6.1,3.65.8,7.17.2,10.56-1.79,2.23-1.32,4.07-2.93,5.51-4.85-1.57,2.68-3.78,4.87-6.65,6.56Z"/>
    </g>
    <g>
      <path class="st4" d="M41.09,43.67s-.22-1.2-.93-.76c0,0-.68,1.54-1.3,1.26,0,0-.23-.22.08-.62.32-.4,1.15-2.43.61-3.07-.53-.64-.79-.66-1.21-.17,0,0-.56.74-1.14.98-.23.1-.46.11-.66-.03,0,0-.17-.22.31-.59,0,0,.01,0,.02-.01.5-.39,2.13-2.07.43-3.41-1.57-1.24-3.42-.36-4.15.85-.07.11-.13.23-.18.35,0,0-.3,1.14.18.91,0,0,.37-.76.73-.63.36.12.11,2.24-3.39,2.64,0,0-.33-.22-.17-.48.16-.26,1.81-.27,1.68-.69-.14-.42-1.94-.97-3.38,0-.31.21-.58.51-.78.85-.24.41-.38.9-.41,1.4,0,.12,0,.24,0,.36.04.78.38,1.58,1.1,2.2.14.12.29.23.46.34,0,0,.2.26.21.52,0,.26-.35.56-.68.34,0,0-.38-.53-.72-.61-.16-.04-.31.01-.41.25,0,0,0,.02-.01.03-.24.65.48,3.21,2.37,4.46.22.14.45.27.7.37.31.13.64.23,1,.28,0,0,.52-.01.29-.33,0,0-.46-.18-.73-.4-.18-.15-.28-.32-.07-.46,0,0,.18.04.47.1.43.09,1.08.22,1.68.29.15.02.29.03.42.04,1.07.07,8.86-.46,7.56-6.57Z"/>
      <g>
        <path class="st1" d="M28.79,50.91c-3.47,1.85-6.97,2.2-10.5,1.05-3.29-1.34-5.4-3.69-6.32-7.07-.92-3.37-.49-6.91,1.31-10.6.22-.42.46-.82.7-1.21-.7.88-1.34,1.84-1.91,2.89-1.8,3.69-2.23,7.23-1.31,10.6.92,3.37,3.03,5.73,6.32,7.07,3.53,1.15,7.03.8,10.5-1.05.7-.38,1.37-.79,2.01-1.23-.24-.14-.47-.31-.71-.51-.03.02-.07.04-.1.06Z"/>
        <path class="st1" d="M22.71,39.63c-.66.41-.94.9-1.05,1.33-.05.11-.08.22-.08.32-.01.22.01.42.06.59,0,.02,0,.03.02.05.01.04.02.07.02.07h0c.53,1.34,2.96,1.01,4.63.69,0-.17,0-.34.02-.52.03-.29.1-.58.21-.86-1.16.17-2.45.24-3.2-.22-.24-.15-.43-.35-.54-.63h0s0-.02-.02-.06c-.06-.18-.09-.39-.08-.64,0-.04,0-.08.02-.12Z"/>
        <path class="st1" d="M38.03,31.33c-.07-.21-.16-.42-.28-.65l.04.02c-.06-.09-.12-.18-.19-.26-.1-.16-.22-.33-.36-.49.27.92-.01,1.64-.46,2.18-.31.42-.75.77-1.29,1.03-.05.02-.1.03-.16.04-.1.03-.21.04-.32.06-1.56.21-3.34-.62-3.34-.62-.26-.1-.51-.18-.76-.26h.01c-.25-.08-.5-.15-.74-.21-.36-.09-.7-.17-1.05-.23-2.23-.42-4.04-.31-5.41-.01-.44.08-.88.2-1.34.36-1.77.62-3.25,1.87-4.44,3.76-1.12,1.98-1.41,3.8-.87,5.46.19.54.45,1.02.77,1.43.01.02.03.04.04.06,0-.02-.01-.03-.02-.05-.03-.09-.06-.18-.08-.27-.43-1.59-.11-3.32.95-5.19.38-.6.79-1.14,1.23-1.61.94-1.01,2.01-1.73,3.22-2.15.46-.16.9-.28,1.34-.36,1.37-.3,3.18-.41,5.41.01.34.06.69.14,1.05.23.24.06.49.13.74.2h-.01c.25.09.5.17.76.27,0,0,1.77.84,3.34.62.11-.01.21-.03.32-.06.05-.01.1-.03.16-.04.54-.27.99-.62,1.29-1.03.46-.54.74-1.28.44-2.23Z"/>
      </g>
      <g>
        <path class="st8" d="M19.99,35.87c-.44.47-.85,1.01-1.23,1.61-1.06,1.87-1.37,3.6-.95,5.19-.28-1.57.05-3.27.99-5.1.36-.63.76-1.2,1.18-1.7Z"/>
        <path class="st8" d="M41.71,42.74c-.4-.58-.88-.89-1.12-1.02.09-.87-.08-1.56-.49-2.05-.37-.45-.86-.61-1.14-.67.05-.55-.1-1.49-.67-2.24-.4-.53-1.16-1.16-2.53-1.16-.15,0-.3,0-.46.02-1.66.16-2.5,1.09-2.94,1.99-3.87-.55-7.51.43-9.73,1.51-1.06.52-1.48,1.21-1.63,1.8-.06.13-.1.26-.1.39-.01.29.02.55.09.76.01.05.02.08.02.08h0c.61,1.54,3.31,1.25,5.3.88.12.92.56,1.63.77,1.93-.34.4-.54.85-.6,1.34-.32.14-.67.26-1.04.38-3.5,1.06-5.61-.67-6.05-1.07-.65-.57-1.12-1.31-1.42-2.21-.05-.16-.09-.31-.13-.47-.33-.42-.59-.89-.77-1.43-.54-1.66-.25-3.48.87-5.46,1.19-1.89,2.68-3.14,4.44-3.76.46-.16.9-.28,1.34-.36,1.37-.3,3.18-.41,5.41.01.34.06.69.14,1.05.23.24.06.49.13.74.2h-.01c.25.09.5.17.76.27,0,0,1.77.84,3.34.62.11-.01.21-.03.32-.06.05-.01.1-.03.16-.04.54-.27.99-.62,1.29-1.03.45-.53.73-1.26.46-2.18.14.17.25.33.36.49.06.09.13.18.19.26l-.04-.02c.13.23.22.44.28.65-.05-.37-.17-.76-.4-1.19l.04.02c-.06-.09-.12-.19-.19-.28-.4-.65-1.03-1.38-1.98-2.19-.54-.46-.97-.76-1.32-.94-.65-.39-1.33-.72-2.04-.99-1.72-.65-3.6-.9-5.64-.76-2.94.21-5.77,1.16-8.51,2.85-2.74,1.69-4.94,4.05-6.61,7.07-2.02,4.04-2.51,7.91-1.47,11.6,1.04,3.69,3.41,6.27,7.1,7.74,3.96,1.26,7.89.88,11.79-1.15.75-.39,1.47-.82,2.15-1.27.1,0,.2.02.3.02.91,0,1.57-.41,1.78-.57.27.02.54.03.82.03,3.07,0,7.05-1.22,8.16-4.67.34-1.07.57-2.62-.33-3.91ZM21.67,41.99h0s0-.02-.02-.06c0-.02-.01-.03-.02-.05-.05-.17-.07-.36-.06-.59,0-.11.03-.21.08-.32.11-.43.39-.93,1.05-1.33,0,.04-.01.08-.02.12-.01.24.02.45.08.64.01.04.02.07.02.07h0c.11.27.29.48.54.62.75.46,2.04.4,3.2.22-.11.28-.18.56-.21.86-.02.18-.02.35-.02.52-1.67.32-4.1.65-4.63-.7ZM27.59,52.6c-3.47,1.85-6.97,2.2-10.5,1.05-3.29-1.34-5.4-3.69-6.32-7.07-.92-3.37-.49-6.91,1.31-10.6.57-1.05,1.2-2.02,1.91-2.89-.25.39-.48.79-.7,1.21-1.8,3.69-2.23,7.23-1.31,10.6.92,3.37,3.03,5.73,6.32,7.07,3.53,1.15,7.03.8,10.5-1.05.03-.02.07-.04.1-.06.23.2.47.37.71.51-.64.44-1.3.85-2.01,1.23ZM33.53,50.24c-.14,0-.28-.02-.42-.04-.6-.07-1.26-.2-1.68-.29-.29-.06-.47-.1-.47-.1-.21.14-.12.3.07.46.27.22.73.4.73.4.23.32-.29.33-.29.33-.36-.05-.69-.15-1-.28-.25-.1-.48-.23-.7-.37-1.9-1.25-2.62-3.81-2.37-4.46,0,0,0-.02.01-.03.1-.24.25-.29.41-.25.34.09.72.61.72.61.33.22.68-.08.68-.34,0-.26-.21-.52-.21-.52-.17-.11-.32-.22-.46-.34-.72-.63-1.06-1.42-1.1-2.2,0-.12,0-.24,0-.36.03-.5.17-.99.41-1.4.2-.35.46-.64.78-.85,1.44-.97,3.24-.43,3.38,0,.14.42-1.52.42-1.68.69-.16.26.17.48.17.48,3.5-.4,3.75-2.52,3.39-2.64-.36-.12-.73.63-.73.63-.48.24-.18-.91-.18-.91.05-.12.11-.24.18-.35.73-1.21,2.58-2.09,4.15-.85,1.7,1.34.07,3.02-.43,3.41,0,0-.01,0-.02.01-.48.37-.31.59-.31.59.2.14.43.13.66.03.58-.24,1.14-.98,1.14-.98.41-.5.67-.47,1.21.17.53.64-.3,2.67-.61,3.07-.32.4-.08.62-.08.62.62.28,1.3-1.26,1.3-1.26.71-.44.93.76.93.76,1.3,6.11-6.48,6.64-7.56,6.57Z"/>
      </g>
      <g>
        <path class="st2" d="M36.13,40.24s-.01,0-.02.01c-.48.37-.31.59-.31.59.2.14.43.13.66.03.58-.24,1.14-.98,1.14-.98.15-.18.28-.29.41-.33.33-.67.39-1.5-.54-2.23-.29-.23-.6-.39-.9-.49,1.67,1.34.05,3-.45,3.39Z"/>
        <path class="st2" d="M29.58,40.47c-.16.26.17.48.17.48,1.07-.12,1.84-.41,2.38-.75-.12-.15-.44-.31-.87-.4.06.39-1.53.4-1.68.66Z"/>
        <path class="st2" d="M33.22,38.38c-.03.05-.05.1-.07.16,0,0-.12.46-.09.73.22-.39.24-.74.16-.89Z"/>
        <path class="st2" d="M38.19,43.14c-.32.4-.08.62-.08.62.62.28,1.3-1.26,1.3-1.26.1-.06.19-.09.27-.09.22-.69.34-1.47.05-1.83-.39-.46-.63-.6-.89-.46.46.68-.34,2.64-.65,3.02Z"/>
        <path class="st2" d="M41.26,43.76s-.22-1.2-.93-.76c0,0-.01.03-.04.08.03.1.04.17.04.17,1.31,6.11-6.48,6.64-7.56,6.57-.14,0-.28-.02-.42-.04-.6-.07-1.26-.2-1.68-.29-.29-.06-.47-.1-.47-.1-.21.14-.11.3.07.46.27.22.73.4.73.4.23.32-.29.33-.29.33-.33-.05-.64-.13-.93-.25.05.03.1.07.14.1.22.14.45.27.7.37.31.13.65.22,1,.28,0,0,.52-.01.29-.33,0,0-.46-.18-.73-.4-.18-.15-.28-.32-.07-.46,0,0,.18.04.47.1.43.09,1.08.22,1.68.29.15.02.29.03.42.04,1.07.07,8.86-.46,7.56-6.57Z"/>
        <path class="st2" d="M28.23,45.82c-.08-.06-.17-.11-.25-.13-.09-.02-.18-.01-.25.04.03.04.06.07.06.07.16.11.32.09.45.02Z"/>
      </g>
    </g>
  </g>
</svg>