<?xml version="1.0" encoding="UTF-8"?>
<svg id="_圖層_1" data-name="圖層_1" xmlns="http://www.w3.org/2000/svg" version="1.1" viewBox="0 0 169.83 29.49">
  <!-- Generator: Adobe Illustrator 29.6.1, SVG Export Plug-In . SVG Version: 2.1.1 Build 9)  -->
  <defs>
    <style>
      .st0 {
        fill: #008cce;
      }

      .st1 {
        fill: #9cc63a;
      }

      .st2 {
        fill: #262527;
      }

      .st3 {
        fill: #f5a704;
      }

      .st4 {
        fill: #e13b1b;
      }

      .st5 {
        fill: #eb6615;
      }
    </style>
  </defs>
  <g>
    <path class="st0" d="M10.16,27.4h7.72s6.41-6.27,17.23-3.68c0,0-11.03-5.99-24.95,3.68"/>
    <path class="st4" d="M27.25,0s5.63,12.54,25.6,18.31h-13.49s0,5.48,11.46,11.18c0,0-13.77-2.38-17.59-13.05h6.49S28.62,9.22,27.25,0"/>
    <path class="st5" d="M21.13,7.43s1.73,1.73,2.45,2.16c0,0,3.1-2.95,3.61-6.2,0,0-2.74,4.48-6.06,4.04"/>
    <path class="st3" d="M18.67,6.34s4.97,6.99,10.96,8.37h-6.27s-4.04-2.24-4.69-8.37"/>
    <path class="st1" d="M17.67,5.41S13.84,15.07,0,20.48l11.75-1.73s-.72,5.27-8.8,8.65c0,0,10.67-.86,13.7-9.37l11.61-1.59H12.12s5.12-4.83,5.55-11.03"/>
  </g>
  <g>
    <path class="st2" d="M100.13,12c-1.2-.83-1.92-1.24-2.16-1.24-.17,0-.55.28-1.15.82-1.47,0-2.95.08-4.35.23v-2.67s.19-.16.56-.37c.1-.06.16-.14.16-.25,0-.23-1.2-.45-3.58-.69.09.7.14,1.7.14,3v1.38c-1.8.34-3.27.83-4.12,1.47v-1.9c-.92-.24-1.87-.47-2.84-.68.11.79.15,1.77.15,2.95v1.21c0,.32-.03,1.64-.1,3.97v.03c0,.22.33.34.98.34,1.2,0,1.8-.19,1.8-.56v-.9h4.12v3.12c0,.21-.03,1.37-.08,3.48v.02c0,.24.25.35.76.35,1.42,0,2.12-.18,2.12-.53-.05-1.74-.08-2.73-.08-2.97v-3.48h4.3v1.08c0,.25.3.37.88.37,1.28,0,1.92-.2,1.92-.59-.05-2.32-.08-3.59-.08-3.82v-2.09s.2-.25.6-.6c.12-.07.18-.16.18-.26s-.05-.18-.14-.23ZM85.63,17.68v-3.39c.63-.58,2.08-1.15,4.12-1.56v4.96h-4.12ZM92.47,17.68v-5.36h0c1.3-.15,2.75-.23,4.3-.24v5.6h-4.3Z"/>
    <path class="st2" d="M61.98,16.36c.03.13.04.29.04.48,0,1.29-.55,1.93-1.66,1.93-.8,0-1.2-.34-1.2-1.01,0-.45.24-.78.72-.99.87-.39,1.34-1.03,1.4-1.91l.36-.02c.15.49.24.85.28,1.09h12.69c.72-.66,1.17-1,1.36-1,.22,0,.83.42,1.84,1.25.03.01.05.02.06.03.07.06.1.15.1.26,0,.17-.08.27-.26.29-.43.05-.66.08-.7.11-.62.65-1.27,1.21-1.98,1.68l-.34-.17c.04-.33.07-.67.08-1.01v-.33c0-.25,0-.49-.01-.68h-12.76ZM74.22,24.27c.94-1.08,1.46-1.62,1.57-1.62.14,0,.54.28,1.19.85.66.56.98.89.98.99,0,.14-.05.2-.14.2h-14.46c-1.55,0-2.67.05-3.38.13l-.42-.76c.85.14,2.22.2,4.1.2h3.52v-1.71h-2.24c-1.55,0-2.68.06-3.38.14l-.42-.75c.86.12,2.22.19,4.1.19h1.94v-1.31c-1.21.2-2.52.32-3.92.37-.04,0-.1.12-.18.37-.05.12-.13.18-.24.18-.16,0-.45-.88-.84-2.67.95.17,1.91.28,2.9.33.25-.34.43-.81.54-1.4-1.29,0-2.19.04-2.68.11l-.36-.71c.8.11,1.87.16,3.21.16h5.42c.82-.77,1.28-1.16,1.36-1.16.15,0,.52.21,1.1.61.59.42.89.67.89.77,0,.14-.07.2-.2.2h-5.62c-.44.34-1.01.66-1.71.97-.69.31-1.09.47-1.22.47.17.04,1.08.06,2.71.06,1.32,0,2.86-.05,4.62-.15-.54-.4-.98-.67-1.32-.83l.1-.18h.06c2.59,0,3.88.56,3.88,1.69,0,.7-.32,1.05-.98,1.05-.29,0-.56-.19-.78-.56-.32-.55-.54-.84-.66-.84-1.01.31-2.14.6-3.38.87v1.56h1.87c.9-.97,1.4-1.47,1.5-1.47.14,0,.51.25,1.14.76.63.5.94.81.94.92,0,.13-.05.2-.14.2h-5.36v1.69l4.4.08ZM65.16,11.9c-1.55,0-2.67.04-3.38.13l-.4-.76c.84.12,2.2.18,4.08.18h1.69v-1.26h-3.45c-1.53,0-2.66.04-3.38.13l-.4-.75c.84.12,2.21.18,4.1.18h3.13v-.12c0-.48-.04-.97-.1-1.49,2.27.19,3.42.4,3.42.62,0,.1-.07.17-.2.22-.34.11-.5.2-.5.27v.51h4.14c.91-.96,1.4-1.43,1.48-1.43.12,0,.5.26,1.14.77.64.52.96.81.96.89,0,.14-.06.22-.2.22h-7.52v1.26h2.72c.89-.81,1.37-1.22,1.44-1.22.11,0,.48.22,1.12.67.63.44.94.71.94.8,0,.13-.07.2-.22.2h-10.6ZM74.9,13.8c0,.27,0,.56.02.86v.35c0,.29-.61.42-1.84.42-.48,0-.72-.09-.72-.29v-.28h-7.47v.28c0,.24-.56.37-1.7.37-.6,0-.9-.12-.9-.37,0-.37.02-.86.02-1.47,0-.4-.03-.9-.1-1.5.71.11,1.62.32,2.74.63h7.22c.68-.54,1.09-.81,1.22-.81.14,0,.51.16,1.12.47.61.3.92.51.92.62,0,.12-.07.21-.2.3-.24.15-.36.23-.36.24l.02.16ZM72.36,13.22h-7.47v1.21h7.47v-1.21Z"/>
    <path class="st2" d="M108.72,11.45c-1.6,0-2.69.05-3.26.11l-.38-.79c.96.12,2.4.18,4.3.18h10.45c.76-.87,1.26-1.44,1.5-1.72.04-.06.11-.08.2-.08.12,0,.56.31,1.3.94.74.63,1.1.99,1.1,1.08,0,.18-.08.27-.24.27h-14.96ZM122.03,20.15c0,1.15-.93,1.9-2.79,2.27h-.01c-.17.04-.3.05-.38.05-.22,0-.35-.11-.36-.3-.07-.82-.24-1.33-.53-1.52-.26-.18-.65-.35-1.16-.49l.06-.37c.52.03,1.09.07,1.7.07h.34c.28,0,.42-.13.42-.39v-4.25h-3.34v5.74c0,.86.01,2.09.04,3.7,0,.24-.5.39-1.5.46h-.02c-.32.02-.56.03-.71.03-.51,0-.75-.11-.75-.35.02-1.86.03-3.26.03-4.21v-5.38h-3.12v4.44c0,.3.01,1.26.04,2.86,0,.33-.69.48-2.09.48-.49,0-.74-.11-.74-.35.03-1.86.04-2.94.04-3.25v-2.22c0-1.72-.03-2.84-.1-3.34.64.16,1.16.31,1.56.45.49.17.97.33,1.44.48h2.96v-.19c0-1.18-.05-2.09-.16-2.76,1.07.16,1.97.3,2.7.42.74.11,1.12.24,1.12.37,0,.11-.09.2-.27.28-.33.17-.49.29-.49.34v1.51h3.06c.92-.77,1.44-1.16,1.56-1.16s.52.23,1.22.69c.68.45,1.02.73,1.02.84,0,.09-.05.17-.16.24-.45.29-.66.48-.66.57v4.23ZM111.45,8.11l.1-.3c.23,0,.51-.01.84-.01,2.52,0,3.78.61,3.78,1.83,0,.87-.47,1.3-1.42,1.3-.64,0-1.07-.26-1.28-.8-.46-1.07-1.14-1.74-2.02-2.03Z"/>
    <path class="st2" d="M137.64,15.45h-2.17v5.42c.91-.15,1.85-.37,2.82-.65l.12.34c-2.66,1.8-5.51,3.05-8.54,3.75-.03.01-.06.18-.1.49-.03.19-.11.28-.25.28-.21,0-.71-1.1-1.46-3.3.56,0,1.03-.03,1.42-.07v-5.08c0-1.44-.06-2.59-.2-3.46,2,.27,3,.5,3,.66,0,.1-.07.17-.2.22-.26.11-.38.19-.38.26v7.16c.57-.07,1.02-.14,1.32-.19v-11.03h-1.3c-.38,0-.76,0-1.18,0h-.2c-.67.02-1.15.05-1.47.1l-.39-.77c.91.12,2.15.18,3.72.18h2.3c.91-1.15,1.43-1.73,1.58-1.73.17,0,.6.3,1.26.9.67.61,1,.99,1,1.1,0,.14-.06.21-.18.21h-2.71v4.76c.5-1.23.8-1.84.9-1.84.17,0,.64.61,1.4,1.85.71-2.27,1.06-4.66,1.06-7.18,1.04.2,1.9.37,2.57.52.67.14,1,.27,1,.4,0,.11-.09.19-.26.24-.31.11-.47.17-.47.2-.27,1.09-.58,2.1-.98,3.02h2.08c.81-1.11,1.29-1.68,1.42-1.68.15,0,.57.29,1.28.88.72.58,1.08.93,1.08,1.05s-.06.18-.2.18h-1.08c-.12,1.33-.44,2.75-.96,4.21-.51,1.48-1.1,2.62-1.72,3.39,0,.1.44.4,1.33.92.87.52,1.85.96,2.94,1.31l-.04.26c-.52.05-.9.64-1.14,1.78-.09.39-.23.59-.42.59-.31,0-.96-.38-1.96-1.12-1-.76-1.74-1.49-2.22-2.18-1.72,1.52-3.9,2.6-6.54,3.25l-.2-.28c2.52-1.14,4.46-2.67,5.82-4.59-.58-1.14-.94-2.82-1.06-5.04,0,.04-.24.36-.72.92-.48.58-.87.99-1.18,1.22l-.3-.19c.25-.48.5-1.03.72-1.66ZM142.6,12.68h-2.07c-.36.75-.69,1.38-.97,1.88,0,.02.16.57.47,1.65.33,1.08.69,1.91,1.09,2.49.89-1.66,1.39-3.66,1.48-6.02Z"/>
    <path class="st2" d="M152.53,12.48c0-1.23-.06-2.21-.18-2.92,1.09.23,2.08.51,3,.82h5c-.15-.09-.27-.24-.39-.48-.3-.86-.88-1.44-1.73-1.73l.1-.27c.43-.05.9-.07,1.42-.07,1.99,0,2.98.51,2.98,1.53,0,.47-.21.81-.62,1.03h3.5c.86-1.12,1.38-1.68,1.59-1.68.13,0,.54.29,1.24.86.7.58,1.06.93,1.06,1.05,0,.15-.08.22-.24.22h-14.06v3.43c0,3.34-.35,5.75-1.05,7.21-.7,1.47-1.64,2.62-2.8,3.44l-.28-.16c.97-2.02,1.46-5.47,1.46-10.36v-1.92ZM157.83,11.29c2.24.45,3.36.79,3.36,1,0,.1-.08.16-.24.19-.41.11-.63.18-.64.21-.01,0-.06.12-.14.37-.35,1.02-.71,1.85-1.1,2.5.49.17.74.31.74.42s-.06.17-.16.23c-.28.12-.42.24-.42.35v5.11c0,.16.04,1.16.1,2.98,0,.32-.68.47-2.05.47-.4,0-.6-.12-.6-.36.05-1.62.08-2.74.08-3.37v-3.07c-.52.48-1.04.88-1.56,1.21l-.2-.17c.63-.91,1.22-2.18,1.78-3.81.56-1.62.91-3.04,1.06-4.27ZM162.87,15.34c-1.25,0-2.12.03-2.61.11l-.38-.72c.81.11,1.88.17,3.2.17h1.5v-.72c0-1.01-.07-1.92-.19-2.71,2.26.25,3.4.47,3.4.63,0,.11-.07.19-.2.24-.33.16-.5.28-.5.37v2.19h.12c.51-1.3.84-1.96,1.02-1.96.12,0,.41.34.9,1.02.48.66.71,1.06.71,1.18,0,.11-.04.17-.13.17h-2.62v7.46c0,1.19-.82,1.95-2.45,2.26h-.02c-.15.03-.27.05-.37.05-.22,0-.35-.08-.39-.27-.09-.65-.24-1.08-.44-1.3-.21-.24-.79-.48-1.74-.74l.08-.35c.69.05,1.37.07,2.02.07h.3c.34,0,.5-.14.5-.42v-6.73h-1.7ZM160.23,16.75l.2-.2c.89.15,1.67.47,2.32.95.65.48.98,1.05.98,1.63,0,.86-.49,1.3-1.46,1.3-.71,0-1.07-.41-1.07-1.22-.01-1.1-.33-1.93-.98-2.47Z"/>
  </g>
</svg>