<?xml version="1.0" encoding="UTF-8"?>
<svg id="_圖層_1" data-name="圖層_1" xmlns="http://www.w3.org/2000/svg" version="1.1" viewBox="0 0 1009.01 7.84">
  <!-- Generator: Adobe Illustrator 29.7.1, SVG Export Plug-In . SVG Version: 2.1.1 Build 8)  -->
  <defs>
    <style>
      .st0 {
        fill: #c8c9ca;
      }
    </style>
  </defs>
  <circle class="st0" cx="3.92" cy="3.92" r="3.92"/>
  <circle class="st0" cx="25.69" cy="3.92" r="3.92"/>
  <circle class="st0" cx="47.45" cy="3.92" r="3.92"/>
  <circle class="st0" cx="69.21" cy="3.92" r="3.92"/>
  <circle class="st0" cx="90.98" cy="3.92" r="3.92"/>
  <circle class="st0" cx="112.74" cy="3.92" r="3.92"/>
  <circle class="st0" cx="134.51" cy="3.92" r="3.92"/>
  <circle class="st0" cx="156.27" cy="3.92" r="3.92"/>
  <circle class="st0" cx="178.04" cy="3.92" r="3.92"/>
  <circle class="st0" cx="199.8" cy="3.92" r="3.92"/>
  <circle class="st0" cx="221.57" cy="3.92" r="3.92"/>
  <circle class="st0" cx="243.33" cy="3.92" r="3.92"/>
  <circle class="st0" cx="265.09" cy="3.92" r="3.92"/>
  <circle class="st0" cx="286.86" cy="3.92" r="3.92"/>
  <circle class="st0" cx="308.62" cy="3.92" r="3.92"/>
  <circle class="st0" cx="330.39" cy="3.92" r="3.92"/>
  <circle class="st0" cx="352.15" cy="3.92" r="3.92"/>
  <circle class="st0" cx="373.92" cy="3.92" r="3.92"/>
  <circle class="st0" cx="395.68" cy="3.92" r="3.92"/>
  <circle class="st0" cx="417.45" cy="3.92" r="3.92"/>
  <circle class="st0" cx="439.21" cy="3.92" r="3.92"/>
  <circle class="st0" cx="460.97" cy="3.92" r="3.92"/>
  <circle class="st0" cx="482.74" cy="3.92" r="3.92"/>
  <circle class="st0" cx="504.5" cy="3.92" r="3.92"/>
  <circle class="st0" cx="526.27" cy="3.92" r="3.92"/>
  <circle class="st0" cx="548.03" cy="3.92" r="3.92"/>
  <circle class="st0" cx="569.8" cy="3.92" r="3.92"/>
  <circle class="st0" cx="591.56" cy="3.92" r="3.92"/>
  <circle class="st0" cx="613.33" cy="3.92" r="3.92"/>
  <circle class="st0" cx="635.09" cy="3.92" r="3.92"/>
  <circle class="st0" cx="656.85" cy="3.92" r="3.92"/>
  <circle class="st0" cx="678.62" cy="3.92" r="3.92"/>
  <circle class="st0" cx="700.38" cy="3.92" r="3.92"/>
  <circle class="st0" cx="722.15" cy="3.92" r="3.92"/>
  <circle class="st0" cx="743.91" cy="3.92" r="3.92"/>
  <circle class="st0" cx="765.68" cy="3.92" r="3.92"/>
  <circle class="st0" cx="787.44" cy="3.92" r="3.92"/>
  <circle class="st0" cx="809.21" cy="3.92" r="3.92"/>
  <circle class="st0" cx="830.97" cy="3.92" r="3.92"/>
  <circle class="st0" cx="852.73" cy="3.92" r="3.92"/>
  <circle class="st0" cx="874.5" cy="3.92" r="3.92"/>
  <circle class="st0" cx="896.26" cy="3.92" r="3.92"/>
  <circle class="st0" cx="918.03" cy="3.92" r="3.92"/>
  <circle class="st0" cx="939.79" cy="3.92" r="3.92"/>
  <circle class="st0" cx="961.56" cy="3.92" r="3.92"/>
  <circle class="st0" cx="983.32" cy="3.92" r="3.92"/>
  <circle class="st0" cx="1005.09" cy="3.92" r="3.92"/>
</svg>