<?xml version="1.0" encoding="UTF-8"?>
<svg id="_圖層_1" xmlns="http://www.w3.org/2000/svg" version="1.1" viewBox="0 0 332.7 63.48">
  <!-- Generator: Adobe Illustrator 29.6.1, SVG Export Plug-In . SVG Version: 2.1.1 Build 9)  -->
  <defs>
    <style>
      .st0 {
        fill: #fff;
      }
    </style>
  </defs>
  <path class="st0" d="M0,3.54c4.6-.71,11.33-1.33,21.87-1.33,8.94,0,15.23,1.77,19.39,4.78,4.16,2.92,7.26,8.23,7.26,14.7,0,5.76-1.95,11.16-5.84,14.52-5.14,4.52-12.4,6.55-21.61,6.55-1.86,0-3.45-.18-4.52-.26v19.92H0V3.54ZM16.56,29.83c.97.17,2.21.26,4.34.26,6.46,0,11.07-2.92,11.07-8.32,0-4.34-3.28-7.17-9.92-7.17-2.83,0-4.6.18-5.49.35,0,0,0,14.88,0,14.88ZM134.6,60.65c-2.48,1.24-8.85,2.83-17,2.83-24.17,0-34.97-13.9-34.97-29.93,0-20.72,16.29-31.88,35.86-31.88,7.7,0,14.17,1.42,17.09,3.01l-3.45,12.93c-3.01-1.24-7.44-2.48-13.02-2.48-10.01,0-18.86,5.4-18.86,17.27,0,10.27,6.99,17.44,19.3,17.44,4.6,0,9.65-.88,12.48-2.03,0,0,2.57,12.84,2.57,12.84ZM144.08,2.74h16.56v25.06h.18c1.33-2.13,2.83-4.16,4.25-6.11l13.1-18.95h21.16l-20.98,25.15,21.96,34.53h-19.75l-14.34-24.61-5.58,6.64v17.97h-16.56V2.74ZM261.14,40.19c-.18-7.44-.27-15.67-.27-26.03h-.26c-2.13,8.5-4.96,17.88-7.26,25.41l-6.46,21.6h-13.37l-5.31-21.51c-1.77-7.35-3.72-16.65-5.31-25.5h-.18c-.35,9.12-.62,18.59-.88,26.03l-.88,22.23h-15.76l3.36-59.68h23.91l3.99,15.05c1.68,6.38,3.54,14.61,4.87,22.14h.35c1.95-7.53,4.16-16.38,6.02-22.31l4.69-14.88h23.29l2.74,59.68h-16.65l-.62-22.23h-.01ZM329.86,38.78h-24.26v10.18h27.09v13.46h-43.83V2.74h42.5v13.46h-25.77v9.12h24.26v13.46h0ZM76.44,62.42s-5.48-34.81-6.12-42.06c0,0,.21-12.16,6.61-15.16,6.41-3-2.11-5.97-7.62-.44,0,0-4.68-8.7-6.04-2.54,0,0-4.28-4.22-4.38,1.93,0,0-3.91-2.49-3.35,2.57,0,0-2.74-.79-2.29,3.71.29,2.84.15,8.25,4.86,11.63s-.8,40.36-.8,40.36h19.13Z"/>
</svg>