<?xml version="1.0" encoding="UTF-8"?>
<svg id="_圖層_1" xmlns="http://www.w3.org/2000/svg" xmlns:xlink="http://www.w3.org/1999/xlink" version="1.1" viewBox="0 0 706.78 825.97">
  <!-- Generator: Adobe Illustrator 29.6.1, SVG Export Plug-In . SVG Version: 2.1.1 Build 9)  -->
  <defs>
    <style>
      .st0 {
        fill: url(#_未命名漸層);
      }
    </style>
    <linearGradient id="_未命名漸層" data-name="未命名漸層" x1="6779.64" y1="-13212.17" x2="8343.84" y2="-13212.17" gradientTransform="translate(-4296.13 14682.62) rotate(-132.77) scale(1 -1)" gradientUnits="userSpaceOnUse">
      <stop offset=".2" stop-color="#fff" stop-opacity="0"/>
      <stop offset=".23" stop-color="#fff" stop-opacity=".06"/>
      <stop offset=".43" stop-color="#fff" stop-opacity=".39"/>
      <stop offset=".61" stop-color="#fff" stop-opacity=".65"/>
      <stop offset=".75" stop-color="#fff" stop-opacity=".84"/>
      <stop offset=".86" stop-color="#fff" stop-opacity=".96"/>
      <stop offset=".92" stop-color="#fff"/>
    </linearGradient>
  </defs>
  <path class="st0" d="M565.23,396.04c38.97-44.31,100.92-146.46,20.22-238.72-55.1-62.99-99.07-41.9-148.45-40.54-50.97,1.41-79.44-62.31-29.1-97.62,142.08-92.03,413.93,166.14,157.33,376.88h0ZM298.64,99.51c-77.12,84.69-117.31,276.98,88.29,499.26h0l189.92,205.32c25.56,27.64,68.69,29.32,96.32,3.75,27.64-25.56,29.32-68.69,3.75-96.32l-253.97-274.57h0s-75.22-75.87-98.15-172.94c-14.5-61.37-16.43-130.26,25.65-211.72-16.19,11.16-35.97,29.82-51.81,47.22ZM222.24,79.43c-65.41,70.35-92.79,228.45,29.02,365.84-87.32-187.94-12.59-368.37,128.56-436.68-42.93-2.51-111.48,21.25-157.59,70.85h0ZM11.42,305.86c-14.24,14.98-13.75,46.3,17.97,53.09,14.84,2.36,26.85-4.34,38.04-7.49,66.91-18.83,99.99,2.13,134.26,46.4-65.81-133.61-163.91-119.11-190.27-92ZM539.15,505.54c103.51-21.18,186.56-154.97,160.27-286.82-12.59,128.73-95.45,207.15-170.03,218.47-54.04,8.2-42.75,79.09,9.76,68.35h0Z"/>
</svg>