<?xml version="1.0" encoding="utf-8"?>
<!-- Generator: Adobe Illustrator 27.0.0, SVG Export Plug-In . SVG Version: 6.00 Build 0)  -->
<svg version="1.1" id="圖層_1" xmlns="http://www.w3.org/2000/svg" xmlns:xlink="http://www.w3.org/1999/xlink" x="0px" y="0px"
	 viewBox="0 0 902.7 185.3" style="enable-background:new 0 0 902.7 185.3;" xml:space="preserve">
<style type="text/css">
	.st0{fill:#53575A;}
</style>
<g>
	<path class="st0" d="M130.4,48.9c-2.5-1-4.2-2.7-5.1-5.2c-0.9-2.4-0.9-4.9,0.2-7.5c1.3-3,3.9-5.5,7.8-7.4c4-1.9,9.3-2.7,15.9-2.4
		c0.4,0,0.7,0.2,1,0.5s0.4,0.7,0.4,1c0,0.4-0.2,0.7-0.5,0.9c-0.3,0.3-0.6,0.4-1,0.4c-5.9-0.3-10.6,0.4-14.1,1.9
		c-3.5,1.5-5.8,3.6-6.9,6.2c-0.8,1.8-0.9,3.6-0.2,5.4c0.7,1.8,2,3,3.8,3.7c1.2,0.4,2.5,0.6,3.9,0.4c2.1-0.8,4.3-1.7,6.5-2.6
		c0.8-0.3,1.4,0,1.8,0.8c0.4,0.8,0.2,1.4-0.5,1.8c-2.5,1.5-4.8,2.4-7.1,2.7C107.9,60.7,88,72.3,76.7,84.2
		c-6.7,7.1-9.8,13.7-9.3,19.9c0.4,4.2,2.4,7.9,6.1,11s8.6,5.5,14.6,7c4.7,1.2,9.9,1.8,15.4,1.9s11.3-0.4,17.4-1.5
		c6.1-1,12.3-2.9,18.8-5.5s12.7-5.8,18.5-9.7c0.8-0.6,1.4-0.5,1.9,0.3s0.4,1.5-0.4,2c-6.1,4-12.4,7.3-19.1,10
		c-6.7,2.7-13.1,4.6-19.4,5.6s-12.2,1.6-18,1.5c-5.7-0.1-11-0.7-15.9-2c-6.7-1.8-12.1-4.4-16.2-8s-6.3-7.7-6.7-12.5
		c-0.6-7.1,2.7-14.4,10-22.1C85.5,70.8,104.1,59.7,130.4,48.9z"/>
	<path class="st0" d="M180.4,112c6.4-5.5,9.8-8.5,10.2-8.9c2.6-2.1,4.6-3.6,5.8-4.3c0.8-0.4,1.4-0.7,1.9-0.7c0.6,0,1,0.2,1.3,0.6
		s0.4,0.8,0.4,1.2c0,0.4-0.1,0.8-0.4,1c-0.3,0.3-0.6,0.4-1,0.4c-0.3,0-0.5-0.1-0.7-0.2c-0.9,0.4-2.7,1.8-5.4,4.1
		c-0.1,0.1-3.6,3.1-10.7,9.2c2.8,4.1,5.9,6.7,9.4,7.9c8.3,2.8,18.3-2.6,30.2-16.2c0.6-0.8,1.3-0.8,2-0.2c0.7,0.6,0.8,1.3,0.1,2.1
		c-12.7,14.4-23.8,20.1-33.2,16.9c-4-1.3-7.6-4.3-10.7-8.8c-5.9,5-9.9,8.1-12,9.1c-1.3,0.5-2.2,0.6-2.9,0.4s-1.1-0.7-1.3-1.6
		c-0.1-0.4,0-0.7,0.2-1s0.5-0.5,0.9-0.7c0.6-0.1,1,0,1.4,0.4c1-0.4,1.9-0.8,2.6-1.3c2.1-1.4,5.4-3.9,9.7-7.7
		c-2.4-4.2-4.1-8.8-5.2-13.6c-0.1-0.4-0.1-0.7,0.1-1c0.2-0.3,0.5-0.5,0.9-0.6s0.7,0,1.1,0.2c0.3,0.2,0.6,0.5,0.6,0.9
		C176.7,104.1,178.3,108.2,180.4,112z"/>
	<path class="st0" d="M228.1,87.9c2.8-6.6,6.1-13.1,9.7-19.7c3.6-6.6,6.6-11.6,8.9-15c1-1.5,1.8-2.5,2.3-2.8
		c0.4-0.3,0.8-0.4,1.3-0.4c0.7,0.2,1.2,0.6,1.5,1.3c0.3,0.8,0.3,2.1-0.2,4c-0.7,3.1-2.3,7.5-4.8,13.3s-5.6,11.9-9.3,18.5
		c5.2-0.6,8.4-0.8,9.7-0.8c0.9,0,1.6,0.1,2.1,0.4c0.3,0.2,0.5,0.5,0.7,0.9c0.2,0.5,0.1,1-0.3,1.5c-0.3,0.4-0.9,0.8-1.7,1.1
		c-0.8,0.4-1.5,0.2-1.9-0.7c-0.1-0.1-0.1-0.3-0.1-0.4c-0.8,0-1.5,0-2.2,0.1c-1.2,0.1-3.9,0.4-8.1,0.9c-3.7,6.3-7.6,12.3-11.6,17.9
		c-0.8,3.5-1.1,6.5-0.9,8.9c0.3,3.2,1.5,5.1,3.6,5.9s5.4,0.4,9.8-1c7.7-2.5,16.9-7.7,27.7-15.6c0.8-0.6,1.4-0.5,1.9,0.3
		s0.4,1.4-0.3,2c-11,8.1-20.5,13.4-28.5,16.1c-5,1.6-8.9,2-11.6,1c-3.3-1.2-5.1-4-5.4-8.4c-0.4-5.1,1.1-12.4,4.7-21.8
		c0.5-1.4,1.1-2.8,1.7-4.3c-1.6,0.1-3,0.2-4.2,0.3c-3.2,0.1-5.4-0.1-6.7-0.5c-1.2-0.4-1.9-1-2.1-2c-0.1-0.6,0.1-1.3,0.6-2
		c0.6-0.8,1.2-0.9,2-0.3c0.6,0.4,0.8,0.9,0.6,1.5c0.1,0.1,0.3,0.1,0.4,0.2c0.6,0.1,1.3,0.1,2.3,0.2
		C221.7,88.4,224.6,88.2,228.1,87.9z M232.3,90.4c-0.8,0.1-1.5,0.2-2.2,0.2c-0.8,2-1.6,3.8-2.3,5.7c-0.4,1-0.8,2-1.1,3
		C228.6,96.4,230.5,93.4,232.3,90.4z M234.1,87.4c3.7-6.4,6.9-12.6,9.5-18.4s4.3-10.4,5.1-13.7c-2.3,3.4-5.1,8.1-8.4,14.1
		c-3.3,6-6.3,12.1-9,18.2C232.2,87.6,233.1,87.5,234.1,87.4z"/>
	<path class="st0" d="M265.7,115.8c0.2,0.7,0.5,1.4,0.9,2c1.2,2.1,3.3,3.7,6.2,4.7c3.4,1.1,8.1,0.5,14.2-2
		c6.5-2.6,14.7-7.5,24.5-14.6c0.8-0.6,1.4-0.5,2,0.3s0.4,1.4-0.4,2c-10,7.2-18.4,12.2-25.1,14.9c-6.7,2.7-12,3.4-16.1,2
		c-3.7-1.2-6.4-3.2-7.9-6c-2-3.7-2-7.8,0.1-12.3c1-2.3,2.4-4.2,4.1-5.8c1.7-1.6,3.6-2.6,5.5-3c2.4-0.5,4.4-0.4,5.9,0.4
		s2.4,1.9,2.6,3.5c0.4,2-0.4,4-2.3,6.1C277.1,111.2,272.4,113.7,265.7,115.8z M265.4,112.9c4.9-1.5,8.6-3.4,11.2-5.6
		c1.5-1.3,2.4-2.5,2.8-3.6c0.3-1.1,0-2-0.9-2.5c-1-0.5-2.3-0.6-4.1-0.2c-1.5,0.3-3,1.1-4.3,2.4c-1.4,1.3-2.5,2.9-3.3,4.7
		C265.9,109.7,265.5,111.3,265.4,112.9z"/>
	<path class="st0" d="M314.4,99.1c0.4-0.9,1-1.1,1.8-0.8s1.1,1,0.7,1.8c-2.3,5.4-4.4,10.4-6.3,15c7-8.6,12-13.8,15.1-15.6
		c2-1.1,3.7-1.2,4.9-0.1c0.8,0.7,1.4,2,1.7,3.8c0.2,0.9,0.3,3.5,0.5,7.8c0.1,3.5,0.4,6.1,0.9,7.8c0.4,1.5,0.9,2.5,1.7,3.2
		c1.3,1.2,3.2,1.4,6,0.7c5.5-1.6,13.6-7.1,24.4-16.5c0.8-0.6,1.4-0.6,2,0.1s0.6,1.4-0.1,2c-9.4,8.2-16.9,13.5-22.5,16
		c-3.5,1.6-6.4,2-8.7,1.4c-2.1-0.5-3.8-1.9-4.8-4.3c-0.9-2.1-1.5-5.6-1.7-10.4s-0.4-7.6-0.7-8.6c-0.1-0.3-0.3-0.5-0.4-0.7
		s-0.2-0.3-0.3-0.3c-0.1-0.1-0.3,0-0.6,0.1c-0.4,0.1-0.9,0.3-1.4,0.7c-3.8,2.5-10.6,10.1-20.5,23.1c-0.5,0.7-1.1,0.8-1.8,0.4
		c-0.7-0.4-0.9-1-0.6-1.8L314.4,99.1z"/>
	<path class="st0" d="M392.2,101c1.3-6.4,3.3-13.4,6-20.8c2.7-7.5,5.6-14,8.6-19.6c2-4,3.8-6.8,5.2-8.5c0.7-0.9,1.4-1.5,2-1.8
		s1.1-0.3,1.6-0.1c0.6,0.2,1,0.6,1.2,1.2c0.1,0.4,0.2,1,0.1,1.8c-0.1,1.4-0.6,3.4-1.4,6c-1.8,5.4-4.6,12.1-8.4,20.2
		s-7.9,15.7-12.2,22.7c-0.5,2.8-0.8,5.3-0.9,7.6c-0.3,3.5,0,6.4,0.7,8.6c1,3.3,3.1,4.9,6.3,4.9c7.9-0.1,17.3-5.8,28.4-16.9
		c0.7-0.7,1.4-0.7,2,0s0.6,1.3,0,2c-11.5,11.7-21.7,17.6-30.3,17.8c-3.7,0-6.4-1.5-7.9-4.4c-1.6-2.9-2.2-7-1.9-12.1
		c0-0.6,0-1.1,0.1-1.6c-2.9,4.2-5.6,7.7-8.2,10.5c-3,3.3-5.8,5.6-8.4,6.7c-3.1,1.4-5.8,1.2-8.1-0.5c-1.4-1-2.4-2.4-3.1-4.2
		c-0.7-1.8-0.9-3.7-0.6-5.8c0.3-3,1.4-5.7,3.2-8.3c1.8-2.6,4.1-4.5,7-5.7c4.6-1.8,9.8-1.5,15.5,0.9c0.4,0.2,0.6,0.5,0.8,0.8
		c0.2,0.3,0.2,0.7,0,1.1s-0.4,0.6-0.8,0.8c-0.4,0.1-0.7,0.1-1,0c-5-2.1-9.5-2.4-13.3-0.9c-2.5,0.9-4.4,2.5-5.9,4.7s-2.3,4.5-2.6,6.9
		c-0.4,3.5,0.4,5.9,2.5,7.4c2,1.4,4.5,1,7.8-1.2c4.7-3.2,10.1-9.8,16.3-19.7L392.2,101z M413.8,54.1c-0.1,0.1-0.2,0.3-0.3,0.5
		c-1.3,1.6-2.7,4.1-4.3,7.3c-5,9.6-9,19.8-12.1,30.7c3.4-6.1,6.5-12.3,9.4-18.6c2.8-6.3,4.9-11.5,6.2-15.7
		C413.3,56.5,413.6,55.2,413.8,54.1z"/>
	<path class="st0" d="M464.7,119.6c2.2-7.4,1.9-17.6-0.9-30.8c-0.4-2.1-1.2-5.2-2.1-9.3c-1-4.1-1.7-7.2-2.2-9.5
		c-0.5-2.2-0.9-4.8-1.2-7.6c-0.3-2.8-0.3-5.2-0.1-7.1c0.8-6.9,3.2-12.6,7.3-17c4-4.4,9.2-7.7,15.4-9.7c6-1.8,12.2-2.7,18.6-2.6
		s12.8,1.1,19,2.8c4.9,1.4,9.3,3.2,13.3,5.5c3.9,2.3,7,4.8,9.3,7.5c3.5,4.2,4.7,8.6,3.6,13c-1.3,5.2-5.5,10.1-12.7,14.7
		c-10.5,6.7-27,12.5-49.4,17.4l-0.4,0.8c2.6,1.5,5.6,3.4,9,5.7c3.3,2.4,7.8,5.7,13.4,10.1c5.6,4.3,9.1,7.1,10.5,8.1
		c7.8,5.9,13.4,9.5,16.8,10.8c1,0.4,1.8,0.6,2.5,0.6s1.1-0.2,1.3-0.7c0.4-0.9,1-1.1,1.9-0.8c0.9,0.4,1.1,1,0.8,1.8
		c-0.8,1.8-2.1,2.6-4.2,2.5c-1.5-0.1-3.4-0.7-5.7-1.8c-3.5-1.8-8.5-5.1-15.1-10.1c-1.6-1.1-5.1-3.8-10.4-8c-5.4-4.2-9.7-7.5-13-9.9
		s-6.3-4.2-8.8-5.6c-1.8,4.1-4.3,9.5-7.3,16.2c-3,6.7-5,11.1-6.1,13.2l-0.3,0.9c-0.6,2-1.4,3.8-2.3,5.5c-0.3,0.6-0.6,0.9-0.8,1
		c-0.4,0.4-0.8,0.5-1.3,0.3c-0.7-0.2-1-0.6-1-1.3c0-0.3,0.2-0.8,0.5-1.5C462.8,123.7,463.6,122,464.7,119.6z M484,83.7
		c21-4.7,36.5-10.2,46.4-16.5c6.6-4.2,10.4-8.5,11.4-13c0.8-3.6-0.2-7.1-3-10.6c-4.3-5.2-11.3-9.2-21.2-12c-6-1.7-12.1-2.6-18.2-2.7
		s-12.1,0.7-17.8,2.5c-5.7,1.8-10.4,4.8-14.1,8.8s-5.9,9.2-6.7,15.6c-0.2,1.8-0.1,4.1,0.2,6.9c0.3,2.7,0.7,5.2,1.2,7.4
		c0.5,2.2,1.2,5.2,2.2,9.1c0.9,3.9,1.6,6.9,2.1,9.1c1.9,8.6,2.7,15.9,2.5,21.7l4.7-10.3c1.9-4.2,3.3-7.3,4.3-9.4l0.5-1.1
		c-0.9-0.4-1.7-0.7-2.4-0.9c-1.3,0.3-2.5,0.5-3.8,0.7c-0.7,0.1-1.2-0.1-1.5-0.7s-0.3-1.1,0.2-1.6c0.8-0.9,1.9-1.4,3.3-1.5
		c0.6,0,1.2,0.1,1.8,0.2c1.5-0.3,3-0.6,4.4-0.9c9.5-21.2,15.6-35.3,18.2-42.1c0.4-1.1,0.8-2.1,0.9-2.8c-0.8-0.6-0.8-1.2-0.2-2
		c0.4-0.5,0.7-0.8,0.9-0.9c0.4-0.3,0.8-0.3,1.1-0.3c0.9,0.1,1.4,0.7,1.3,1.8s-1,4.1-2.9,8.9C496.9,54.3,491.6,66.5,484,83.7z"/>
	<path class="st0" d="M553.7,115.8c0.2,0.7,0.5,1.4,0.9,2c1.2,2.1,3.3,3.7,6.2,4.7c3.4,1.1,8.1,0.5,14.2-2
		c6.5-2.6,14.7-7.5,24.5-14.6c0.8-0.6,1.4-0.5,2,0.3s0.4,1.4-0.4,2c-10,7.2-18.4,12.2-25.1,14.9c-6.7,2.7-12,3.4-16.1,2
		c-3.7-1.2-6.4-3.2-7.9-6c-2-3.7-2-7.8,0.1-12.3c1-2.3,2.4-4.2,4.1-5.8c1.7-1.6,3.6-2.6,5.5-3c2.4-0.5,4.4-0.4,5.9,0.4
		s2.4,1.9,2.6,3.5c0.4,2-0.4,4-2.3,6.1C565.1,111.2,560.4,113.7,553.7,115.8z M553.4,112.9c4.9-1.5,8.6-3.4,11.2-5.6
		c1.5-1.3,2.4-2.5,2.8-3.6c0.3-1.1,0-2-0.9-2.5c-1-0.5-2.3-0.6-4.1-0.2c-1.5,0.3-3,1.1-4.3,2.4c-1.4,1.3-2.5,2.9-3.3,4.7
		C553.9,109.7,553.4,111.3,553.4,112.9z"/>
	<path class="st0" d="M618.1,99.2c0.4,0.1,0.7,0.3,0.9,0.6c0.2,0.3,0.3,0.7,0.2,1.1s-0.3,0.7-0.6,0.9c-0.3,0.2-0.7,0.3-1,0.2
		c-2.6-0.6-5-0.6-7.3,0s-4.3,1.6-5.9,2.9c-1.6,1.3-3,2.9-4.1,4.6s-2,3.5-2.5,5.2c-0.5,1.8-0.7,3.4-0.7,4.9c0.1,1.6,0.6,2.7,1.3,3.2
		c0.8,0.5,2.1,0.3,3.9-0.6c5.4-2.6,12.3-10.5,20.8-23.4c0.5-0.8,1.1-0.9,1.9-0.4c0.8,0.5,0.9,1.2,0.4,2c-1.7,2.6-3.1,5.4-4.2,8.6
		c-1.1,3.1-1.6,5.9-1.7,8.4c0,3.2,0.9,5.1,2.8,5.6c1.6,0.4,3.8,0,6.8-1.2c5.4-2.5,12.5-7.6,21.2-15.5c0.7-0.6,1.4-0.6,2,0.1
		c0.7,0.7,0.6,1.4-0.1,2c-9,8.1-16.3,13.5-21.9,16c-3.5,1.6-6.4,2-8.7,1.4c-3.3-0.9-4.9-3.7-4.9-8.3c0.1-1.8,0.3-3.8,0.9-6
		c-5.2,6.6-9.6,11-13.4,13.1c-3.6,2-6.3,2-8.2-0.2c-1.8-2-2.2-5-1.2-9.2c0.5-2.2,1.4-4.4,2.6-6.5c1.3-2.1,2.9-4,4.8-5.7
		c1.9-1.7,4.3-2.9,7-3.7C612,98.5,615,98.5,618.1,99.2z"/>
	<path class="st0" d="M677,101c1.3-6.4,3.3-13.4,6-20.8c2.7-7.5,5.6-14,8.6-19.6c2-4,3.8-6.8,5.2-8.5c0.7-0.9,1.4-1.5,2-1.8
		s1.1-0.3,1.6-0.1c0.6,0.2,1,0.6,1.2,1.2c0.1,0.4,0.2,1,0.1,1.8c-0.1,1.4-0.6,3.4-1.4,6c-1.8,5.4-4.6,12.1-8.4,20.2
		C688,87.5,684,95,679.6,102c-0.5,2.8-0.8,5.3-0.9,7.6c-0.3,3.5,0,6.4,0.7,8.6c1,3.3,3.1,4.9,6.3,4.9c7.9-0.1,17.3-5.8,28.4-16.9
		c0.7-0.7,1.4-0.7,2,0s0.6,1.3,0,2c-11.5,11.7-21.7,17.6-30.3,17.8c-3.7,0-6.4-1.5-7.9-4.4c-1.6-2.9-2.2-7-1.9-12.1
		c0-0.6,0-1.1,0.1-1.6c-2.9,4.2-5.6,7.7-8.2,10.5c-3,3.3-5.8,5.6-8.4,6.7c-3.1,1.4-5.8,1.2-8.1-0.5c-1.4-1-2.4-2.4-3.1-4.2
		c-0.7-1.8-0.9-3.7-0.6-5.8c0.3-3,1.4-5.7,3.2-8.3c1.8-2.6,4.1-4.5,7-5.7c4.6-1.8,9.8-1.5,15.5,0.9c0.4,0.2,0.6,0.5,0.8,0.8
		s0.2,0.7,0,1.1s-0.4,0.6-0.8,0.8c-0.4,0.1-0.7,0.1-1,0c-5-2.1-9.5-2.4-13.3-0.9c-2.5,0.9-4.4,2.5-5.9,4.7s-2.3,4.5-2.6,6.9
		c-0.4,3.5,0.4,5.9,2.5,7.4c2,1.4,4.5,1,7.8-1.2c4.7-3.2,10.1-9.8,16.3-19.7L677,101z M698.6,54.1c-0.1,0.1-0.2,0.3-0.3,0.5
		c-1.3,1.6-2.7,4.1-4.3,7.3c-5,9.6-9,19.8-12.1,30.7c3.4-6.1,6.5-12.3,9.4-18.6c2.8-6.3,4.9-11.5,6.2-15.7
		C698,56.5,698.4,55.2,698.6,54.1z"/>
	<path class="st0" d="M717.2,99.3c0.4-0.9,1-1.1,1.8-0.7c0.9,0.4,1.1,1.1,0.7,1.9c-3.3,6.9-5.2,12.2-5.7,16.1
		c-0.4,2.4-0.2,4.1,0.6,5.1c0.4,0.7,1.2,1.1,2.2,1.3c1.3,0.2,2.9,0,4.9-0.6c6.5-1.7,16.5-7.2,30-16.5c0.8-0.6,1.5-0.5,2,0.3
		s0.4,1.5-0.4,2c-13.7,9.4-24,15-30.9,16.8c-5,1.3-8.4,0.7-10.1-1.9c-1.1-1.6-1.5-4-1-7.1C711.8,112,713.8,106.4,717.2,99.3z
		 M723.8,88.9c-0.3,0.3-0.5,0.6-0.8,0.8c-0.5,0.4-1,0.6-1.4,0.8c-0.4,0.1-0.9,0.1-1.3-0.2c-0.5-0.3-0.8-0.8-0.9-1.5
		c-0.1-1,0.2-2,0.9-2.9c0.7-0.8,1.5-1.2,2.5-1c0.3,0,0.5,0.1,0.9,0.2c0.4-0.2,0.9-0.1,1.3,0.2c0.6,0.5,0.8,1.1,0.5,1.8
		c0.4,0.8,0.2,1.5-0.6,1.9C724.5,88.9,724.1,88.9,723.8,88.9z"/>
	<path class="st0" d="M755,99.1c0.4-0.9,1-1.1,1.8-0.8s1.1,1,0.7,1.8c-2.3,5.4-4.4,10.4-6.3,15c7-8.6,12-13.8,15.1-15.6
		c2-1.1,3.7-1.2,4.9-0.1c0.8,0.7,1.4,2,1.7,3.8c0.2,0.9,0.3,3.5,0.5,7.8c0.1,3.5,0.4,6.1,0.9,7.8c0.4,1.5,0.9,2.5,1.7,3.2
		c1.3,1.2,3.2,1.4,6,0.7c5.5-1.6,13.6-7.1,24.4-16.5c0.8-0.6,1.4-0.6,2,0.1s0.6,1.4-0.1,2c-9.4,8.2-16.9,13.5-22.5,16
		c-3.5,1.6-6.4,2-8.7,1.4c-2.1-0.5-3.8-1.9-4.8-4.3c-0.9-2.1-1.5-5.6-1.7-10.4s-0.4-7.6-0.7-8.6c-0.1-0.3-0.3-0.5-0.4-0.7
		c-0.1-0.2-0.2-0.3-0.3-0.3c-0.1-0.1-0.3,0-0.6,0.1c-0.4,0.1-0.9,0.3-1.4,0.7c-3.8,2.5-10.6,10.1-20.5,23.1
		c-0.5,0.7-1.1,0.8-1.8,0.4s-0.9-1-0.6-1.8L755,99.1z"/>
	<path class="st0" d="M827,109.1c-5.9,8-11,13.2-15.3,15.5c-3.6,2-6.4,2-8.3-0.1c-1.8-2-2.3-5-1.3-9.3c0.5-2.2,1.4-4.3,2.6-6.4
		c1.3-2.1,2.8-4,4.7-5.7s4.2-3,7-3.7c2.8-0.8,5.7-0.8,8.9-0.1c0.4,0.1,0.7,0.3,0.9,0.6c0.2,0.3,0.3,0.7,0.2,1.1s-0.3,0.7-0.6,0.9
		c-0.3,0.2-0.7,0.3-1,0.1c-2.6-0.5-5-0.5-7.3,0.1s-4.2,1.5-5.8,2.8s-2.9,2.9-4.1,4.6s-2,3.5-2.5,5.2c-0.5,1.8-0.7,3.4-0.6,4.9
		c0.1,1.6,0.6,2.7,1.3,3.2c0.9,0.6,2.2,0.4,4-0.5c5.4-2.7,12.3-10.6,20.8-23.5c0.5-0.8,1.2-0.9,2-0.4c0.6,0.4,0.8,1,0.6,1.7
		l-7.2,20.3c8.3-5.5,18.1-10.4,29.4-14.7c0.4-0.1,0.7-0.1,1.1,0c0.3,0.2,0.6,0.4,0.7,0.8c0.1,0.3,0.1,0.7,0,1.1
		c-0.2,0.4-0.4,0.6-0.8,0.8c-12.6,4.7-23.3,10.3-32.1,16.6c-7.2,19.6-13,33.9-17.6,42.9c-2.7,5.4-4.9,8.8-6.6,10.1
		c-1.2,1-2.3,1.2-3.4,0.7c-0.9-0.5-1.5-1.5-1.8-3.1c-0.3-1.3-0.5-2.8-0.5-4.6s0.1-4.1,0.4-6.9c0.3-2.8,1-5.8,2.2-9s2.7-6.5,4.6-10
		c1.9-3.5,4.6-7.2,8.1-11s7.6-7.5,12.2-10.9L827,109.1z M820,128.5c-3.8,3.2-7.1,6.4-10.1,9.9c-2.9,3.4-5.2,6.7-6.8,9.8
		s-2.9,6.1-3.9,8.9c-1,2.8-1.6,5.5-1.8,7.9s-0.3,4.4-0.3,6.1c0,1.6,0.2,3,0.4,4.1c0.1,0.4,0.2,0.8,0.4,1.1c0.4-0.3,0.8-0.6,0.9-0.9
		c0.4-0.4,0.9-1,1.4-1.8C804.6,167.2,811.2,152.2,820,128.5z"/>
</g>
</svg>
