<?xml version="1.0" encoding="utf-8"?>
<!-- Generator: Adobe Illustrator 27.0.0, SVG Export Plug-In . SVG Version: 6.00 Build 0)  -->
<svg version="1.1" id="圖層_1" xmlns="http://www.w3.org/2000/svg" xmlns:xlink="http://www.w3.org/1999/xlink" x="0px" y="0px"
	 viewBox="0 0 662.7 168.3" style="enable-background:new 0 0 662.7 168.3;" xml:space="preserve">
<style type="text/css">
	.st0{fill:#FFFFFF;}
</style>
<g>
	<path class="st0" d="M27.4,144.2l-1.1-1.5c9.4-7.6,16.4-18.1,21-31.5c-2.6-5.7-4.7-11.4-6.1-17.1c-2.1,5.9-4.3,11.2-6.5,15.9
		c0.9,1.4,0.8,2.6-0.3,3.7l-8.6-9.8c5.1-3.9,9.7-8.2,13.7-12.8l0.5-6.4l5.6,1.4L42,91.6c1.8,5.3,4,10,6.7,14.4
		c2.3-8,3.9-17.7,5-29.2h-9.4l-2.8,5.6c-3.7,1-7.9,0.6-12.4-1.4c7.1-14.5,13.1-28.2,17.9-41.2h-6.5c-3.6,0.1-7.4,0.7-11.4,1.8
		l-3.3-6.5c4.1,0.5,8.9,0.8,14.5,1h6.9l2.8-3.6c0.2-0.2,0.4-0.5,0.8-0.9c1.4-1.8,2.5-2.7,3-2.7c0.8,0,3.2,1.7,6.9,5
		c3.8,3.3,5.7,5.4,5.7,6.4c-0.9,1-2.8,1.7-5.7,2.2c-4.1,9.5-8.9,19.7-14.4,30.6h6.4l3.2-3.7c0.2-0.3,0.5-0.6,0.9-1
		c1.5-1.9,2.6-2.8,3.2-2.8c0.8,0,3.1,1.6,6.7,4.8c3.6,3.2,5.5,5.3,5.5,6.2c-0.7,1.1-2.2,1.8-4.4,2.2c-1.9,14.8-5.3,27.1-10.4,36.7
		c5.8,5,13.5,8.5,23,10.4c8,1.7,19.2,2.5,33.4,2.5c13.5,0,22.6-0.1,27.3-0.3v1.5c-2.4,0.6-4.2,2-5.6,4.3c-1.2,2-1.9,4.6-2,7.6h-20.6
		c-15.3,0-27.3-1.3-35.8-3.9c-9.8-3-17.6-8.4-23.4-16C47,131.3,38.3,138.7,27.4,144.2z M68.8,117.4l-3.2-6.4c1.9,0.5,4.3,0.8,7.1,1
		h3V84.3c0-10.7-0.6-19.3-1.7-26c8.3,1.9,13.5,3.4,15.8,4.4c1.5,0.8,1.7,1.5,0.6,2.3l-1.9,1.1V112h10V44.2
		c-10.6,1.3-20.5,1.9-29.9,2l-0.3-1.9c9.7-1.9,19.7-4.7,30.2-8.4c10.4-3.6,18.6-7.2,24.5-10.7l14,13.6c-1.6,1.4-4.2,1.3-7.9-0.1
		c-5.6,1.4-11.3,2.6-17.1,3.6v30h5.3l3-5.5c0.3-0.3,0.6-0.9,1-1.7c1.5-2.5,2.5-3.8,3-3.8c0.8,0,2.9,1.9,6.4,5.6
		c3.5,3.7,5.2,6.1,5.2,7c-0.3,1.4-1.4,2-3.3,2h-20.7V112h7.5l3.4-5.5c0.2-0.3,0.5-0.8,0.9-1.4c1.7-2.8,2.8-4.2,3.4-4.2
		c0.8,0,3.1,1.9,6.9,5.6c3.9,3.7,5.8,6.1,5.8,7c-0.3,1.4-1.5,2-3.4,2H87.8C81.8,115.7,75.5,116.3,68.8,117.4z"/>
	<path class="st0" d="M208.6,144.3c-1.3,0-2.3-0.3-3-0.8c-0.7-0.5-1.1-1.1-1.1-1.8c0.8-10.9,1.2-21.9,1.4-33V79.1
		c-4.2,5.6-8.9,10.8-14.2,15.6l-1.5-1.1c6.4-11.2,12.3-25.3,17.7-42.3c3.3-10.9,5.1-20.1,5.3-27.4c9.8,3,16,5.3,18.5,6.6
		c1.8,1,1.9,1.8,0.5,2.4l-2.4,0.9c-3.1,8.5-6.6,16.6-10.5,24.3l4.8,1.9c-0.3,1.3-1.6,2.1-3.8,2.5v46.9c0.2,10.5,0.5,20.5,1,29.9
		c-0.8,1-2.3,2.1-4.7,3.2C213.9,143.7,211.2,144.3,208.6,144.3z M260.9,144.2c-2.5,0-3.7-0.8-3.7-2.5c0.5-7.5,0.8-15,1-22.7v-12.7
		h-14.5v4.4c0,0.9-1.2,1.9-3.7,3c-2.7,1.3-5.5,1.9-8.3,1.9c-1,0-1.8-0.3-2.5-0.8c-0.6-0.5-1-1.1-1-1.8c0-0.5,0-1.2,0.1-2.2
		c0.6-9,1-18,1.1-26.9V68.1c0-10.7-0.6-19.3-1.7-26l16.4,6.9h13.8c0-9.9-0.5-17.7-1.4-23.4c9.2,2,15,3.6,17.4,4.7
		c1.7,0.8,1.9,1.7,0.5,2.5l-2.3,1.4v14.7h13.8l3-3.8c0.3-0.3,0.6-0.7,1-1.3c1.5-1.8,2.5-2.7,3-2.7c0.8,0,3.3,1.6,7.2,4.9
		c4,3.3,6,5.4,6,6.3c-0.9,1.2-2.5,2-4.8,2.5v24.8c0.2,10.5,0.5,20.5,1,29.9c-0.7,1-2.4,2.1-5.1,3.3c-3,1.4-5.6,2-7.9,2
		c-1.9,0-2.9-0.8-2.9-2.5c0.1-0.4,0.2-1,0.3-1.8c0.1-0.5,0.2-1,0.3-1.4v-2.9h-15v10.9c0.2,8.8,0.4,15.8,0.8,21.1
		c-0.4,1.2-1.9,2.5-4.4,3.8C266,143.4,263.4,144.2,260.9,144.2z M243.7,75.1h14.5V52.6h-14.5V75.1z M243.7,102.6h14.5V78.8h-14.5
		V102.6z M272.4,75.1h15V52.6h-15V75.1z M272.4,102.6h15V78.8h-15V102.6z"/>
	<path class="st0" d="M365.6,144.3c-1.2,0-2.1-0.3-2.8-0.8c-0.7-0.5-1-1.1-1-1.8c0.8-10.9,1.2-21.9,1.4-33V53.5
		c0-10.7-0.6-19.3-1.7-26l15.9,7h16.1l2.7-3.3c0.3-0.3,0.6-0.7,1.1-1.3c1.2-1.4,2-2.2,2.5-2.2c0.8,0,3.1,1.4,6.7,4.3
		c3.6,2.8,5.5,4.7,5.5,5.7c-1,1.1-2.5,1.9-4.4,2.4v9.4c0.2,7.7,0.4,13.8,0.8,18.2c-0.5,0.8-2,1.8-4.6,2.8c-2.6,1.1-4.9,1.7-6.9,1.7
		h-2.3v-6.4h-17.9v42.7c0.2,10.5,0.5,20.5,1,29.9c-0.6,1.4-2,2.8-4.2,4.1C371.1,143.6,368.4,144.3,365.6,144.3z M376.8,48.1h17.9
		v-10h-17.9V48.1z M376.8,62.1h17.9V51.7h-17.9V62.1z M449,144.4c-0.2-5.3-0.7-8.7-1.7-10.4c-0.8-1.6-2-2.8-3.6-3.6
		c-0.5,4.1-5.3,6.2-14.2,6.2h-5.1c-4.1,0-6.7-0.8-7.9-2.3c-0.9-1.3-1.4-3.9-1.4-8v-17.1h-2.7c-1.2,8-4.3,14.4-9.3,19.1
		c-4.9,4.6-12.1,8-21.5,10.3l-0.5-1.8c5.7-2.8,9.9-6.2,12.7-10.2c2.5-3.6,4.2-8.1,5-13.6c-2.1,0.8-4.2,1.1-6.1,1.1h-1.5V95.9
		c-3.7,2-6.9,3.6-9.5,4.7l-1.1-1.7c0.3-0.3,0.6-0.7,1.1-1.2c0.5-0.5,0.9-1,1.1-1.2c2.7-3.1,5.2-6.9,7.4-11.4
		c2.2-4.4,3.6-8.4,4.3-11.9c7.4,3.8,12.1,6.5,14.1,8.1c1.4,1.1,1.5,1.7,0.3,1.9l-2,0.1c-1.7,2.2-3.8,4.2-6.2,6l2.7,1.1h20.3l3.3-3.4
		c-1.5-2.6-2.7-5.2-3.4-7.9h-5.7c-3.1,0.1-6.4,0.7-9.7,1.8l-3.3-6.4c3,0.5,6.8,0.8,11.2,1h5.1l2.3-4.2c-1.2,0.2-2,0.3-2.5,0.3H419
		V50.2c0-9.2-0.5-16.6-1.4-22.1l15,6.4h16.9l2.9-3.8c0.3-0.3,0.5-0.7,0.9-1.3c1.4-1.8,2.4-2.7,2.9-2.7c0.8,0,3.3,1.6,7.4,4.9
		c4.1,3.3,6.1,5.4,6.1,6.3c-1.2,1.4-2.9,2.2-5.2,2.5v87.1c0,5.6-0.8,9.5-2.5,11.7C459.7,142,455.4,143.7,449,144.4z M402.7,105.7h22
		V94.2h-22V105.7z M448.8,128c1.3,0,1.9-0.7,1.9-2.2V65.5h-18.7v1.9c0,0.4-0.5,1-1.5,1.6c-1,0.6-2.3,1.2-3.8,1.7l8,5.6
		c-1.1,1.5-3.9,2.5-8.4,2.8c4.1,4.4,11.6,7.2,22.4,8.5v1.7c-2.2,0.8-4.1,2.2-5.7,4.1c-1.8,1.9-2.8,4.1-3.2,6.4
		c-1.4-0.8-2.6-1.5-3.6-2.3v11.4c0,0.6-1.1,1.3-3.3,2.2c-2.3,1-4.3,1.5-6.1,1.5v10.8c0,0.7,0.1,1.1,0.3,1.3c0.2,0.2,0.7,0.3,1.3,0.3
		h2.3h2.7c0.8,0,1.4-0.3,1.9-0.8c0.7-1.1,1.8-4,3.4-8.8h1.3l0.5,8.9c1.9,0.8,2.9,2,3.2,3.6C446.3,128,448,128,448.8,128z
		 M432.1,48.1h18.7v-10h-18.7V48.1z M432.1,61.9h18.7V51.7h-18.7V61.9z"/>
	<path class="st0" d="M619.8,140.7c-4.1-6.1-10-11.1-17.8-15l0.6-1.7c4.2,0.3,8.1,0.7,11.7,1.4v-3.8h-27.9v1.8
		c0,0.8-1.2,1.7-3.6,2.7c-2.5,1.1-5.1,1.7-7.6,1.7c-0.9,0-1.7-0.3-2.2-0.8c-0.6-0.5-0.8-1.1-0.8-1.8c0.6-7.8,1-16.5,1.1-26.2V84.6
		c-1.1,0.3-2.2,0.4-3.4,0.4h-1.5V52.6c-0.4,1-1.5,1.5-3.2,1.5h-22.5c-6,0.1-12.4,0.7-19.1,1.8l-3.3-6.2c4.7,0.5,10.3,0.8,16.9,1
		h13.6l6.2-8.6c3.8,3.3,7.6,6.6,11.3,10v-0.4l12.3,5.1h39.1l2.4-2.9c0.2-0.2,0.4-0.4,0.6-0.8c1.2-1.5,2.1-2.3,2.7-2.3
		c0.8,0,2.9,1.2,6.3,3.7c3.3,2.5,5,4.2,5,5.1c-0.8,1-2.2,1.7-4.2,2.2v17.5c-0.1,0.5-1.1,1.1-2.9,1.9c-2,0.9-3.9,1.5-5.7,1.7
		c3.6,2.5,5.8,4.4,6.5,5.5c0.6,0.9,0.3,1.6-0.8,2l-2,0.8v30.4c-0.1,0.7-1.4,1.5-3.8,2.5c-2.7,1.1-5.1,1.7-7.1,1.7h-0.6
		c7.7,1.5,13,3.7,16,6.5c2.5,2.3,3,4.7,1.8,7.1c-1.2,2.3-3.2,3.7-6.1,4.2C624.6,144,621.9,143.1,619.8,140.7z M527.9,144.4
		c-1.8,0-2.7-0.8-2.7-2.5c0.3-3.6,0.6-8.3,0.8-14v-8.4c0-10.4-0.6-18.9-1.7-25.5l14.4,6.1h9.7l2.7-3.3c0.2-0.2,0.4-0.5,0.6-0.9
		c1.4-1.6,2.3-2.4,2.9-2.4c0.8,0,3,1.4,6.6,4.2c3.6,2.8,5.3,4.7,5.3,5.6c-0.9,1.2-2.4,2-4.4,2.4v10.8c0.2,8.7,0.4,15.7,0.8,20.8
		c-0.5,0.9-1.9,1.9-4.3,2.9c-2.6,1.1-5,1.7-7,1.7c-1.7,0-2.5-0.8-2.5-2.5c0.1-0.4,0.2-1,0.3-1.8c0.1-0.5,0.2-1,0.3-1.4v-2.9h-11.3
		v2.4c0.1,0.7,0.1,1.5,0.1,2.4c0.1,0.8,0.2,1.3,0.3,1.7c-0.2,0.9-1.4,1.9-3.6,3C532.6,143.9,530.2,144.4,527.9,144.4z M528.9,72.4
		l-3.3-6.4c4.1,0.5,9.1,0.8,15,1h7.1l2.7-4.1c0.3-0.3,0.6-0.8,1-1.4c1.3-1.8,2.2-2.7,2.7-2.7c0.8,0,2.8,1.4,5.8,4.1
		c3,2.8,4.5,4.6,4.5,5.5c-0.3,1.4-1.3,2-3,2h-16.9h-5.6C535.6,70.7,532.3,71.3,528.9,72.4z M528.9,88.9l-3.3-6.4
		c4.1,0.5,9.1,0.8,15,1h7.1l2.7-3.9c0.3-0.3,0.6-0.8,1-1.4c1.3-1.8,2.2-2.7,2.7-2.7c0.8,0,2.8,1.4,5.8,4.1c3,2.8,4.5,4.6,4.5,5.5
		c-0.3,1.3-1.3,1.9-3,1.9h-13.3C541.9,87.2,535.6,87.8,528.9,88.9z M529.3,39.9l-3.3-6.4c3.8,0.5,8.5,0.8,14,1h6.5l2.8-4.3
		c0.2-0.3,0.4-0.6,0.8-1.1c1.4-2.1,2.5-3.2,3-3.2c0.8,0,2.9,1.5,6.2,4.4c3.3,2.9,4.9,4.8,4.9,5.8c-0.3,1.4-1.4,2-3.3,2h-12.4
		C542.3,38.2,535.9,38.8,529.3,39.9z M538.1,129.6h11.3v-25.8h-11.3V129.6z M560.6,143.9l-1-2c3.3-1.2,6.4-2.5,9.3-3.9
		c3.7-1.9,7.5-4.4,11.2-7.5c3.7-3.1,6.6-6.2,8.6-9.1l7.4,6.2c5.8,3.3,7.3,5,4.4,5.2h-2.3C587.9,138.7,575.4,142.4,560.6,143.9z
		 M572.8,52.5l-3.2-6.4c4.5,0.5,9.8,0.8,16,1h7.7v-7.9h-9c-5.3,0.1-10.7,0.7-16.3,1.8l-3.3-6.5c4.7,0.5,10.3,0.8,16.9,1h11.7
		c0-4.6-0.2-8.2-0.6-10.8c8.5,1.9,13.8,3.3,15.9,4.3c1.5,0.8,1.6,1.7,0.3,2.5l-2.2,1.4v2.5h11.1l3-4.3c0.3-0.3,0.6-0.8,1-1.4
		c1.5-2,2.5-3,3-3c0.8,0,3.1,1.5,6.7,4.5c3.6,3,5.4,5,5.4,5.9c-0.3,1.4-1.4,2-3.3,2h-12.2c0.4,0.4,1.4,1.3,3,2.5
		c3.8,3.1,6.5,5.4,8,6.9c-0.3,1.4-1.3,2-3.2,2h-37.5C585.9,50.8,579.5,51.4,572.8,52.5z M586.9,85.9h26.4l6-6.6l1.5,1.3v-1.4h-40.8
		v2.2c0,0.3-0.5,0.8-1.4,1.3L586.9,85.9z M580.1,75.4h40.8V71c-0.9,0.1-2.7,0.1-5.2,0.1h-4.4c-3.2,0-5.3-0.6-6.4-1.8
		c-0.8-0.9-1.3-2.9-1.3-5.8v-3.2h-5.2c-2.1,6.6-8.1,11.3-18,14.1l-0.3-0.3V75.4z M580.1,71.9c4.2-3.1,6.6-7,7.2-11.6h-7.2V71.9z
		 M586.4,96.5h27.9v-7h-27.9V96.5z M586.4,107.1h27.9v-7h-27.9V107.1z M586.4,118h27.9v-7.2h-27.9V118z M606.7,47.1h7.1l6.1-7.9
		h-13.2V47.1z M614.2,63.6h2.7h2.4c0.2,0,0.4,0,0.8-0.1c0.4,0,0.6-0.1,0.7-0.1v-3.2h-8.1v1.8C612.7,63.1,613.2,63.6,614.2,63.6z"/>
</g>
</svg>
