<?xml version="1.0" encoding="utf-8"?>
<!-- Generator: Adobe Illustrator 27.0.0, SVG Export Plug-In . SVG Version: 6.00 Build 0)  -->
<svg version="1.1" id="圖層_1" xmlns="http://www.w3.org/2000/svg" xmlns:xlink="http://www.w3.org/1999/xlink" x="0px" y="0px"
	 viewBox="0 0 32 32" style="enable-background:new 0 0 32 32;" xml:space="preserve">
<style type="text/css">
	.st0{fill:#FFFFFF;}
	.st1{fill:#EE8A2F;}
</style>
<g>
	<rect x="5.1" y="5.14" class="st0" width="22.54" height="21.67"/>
	<g>
		<path class="st1" d="M16.08,12.94c-1.69,0-3.06,1.37-3.06,3.06s1.37,3.06,3.06,3.06c1.69,0,3.06-1.37,3.06-3.06
			S17.77,12.94,16.08,12.94z"/>
		<path class="st1" d="M19.87,8.13h-7.74c-2.21,0-4,1.79-4,4v7.74c0,2.21,1.79,4,4,4h7.74c2.21,0,4-1.79,4-4v-7.74
			C23.87,9.92,22.08,8.13,19.87,8.13z M16.08,20.78c-2.63,0-4.78-2.14-4.78-4.78c0-2.63,2.14-4.78,4.78-4.78
			c2.63,0,4.78,2.14,4.78,4.78C20.86,18.63,18.71,20.78,16.08,20.78z M21.14,12.04c-0.63,0-1.14-0.51-1.14-1.14
			c0-0.63,0.51-1.14,1.14-1.14c0.63,0,1.14,0.51,1.14,1.14C22.27,11.53,21.76,12.04,21.14,12.04z"/>
		<path class="st1" d="M16,0C7.16,0,0,7.16,0,16s7.16,16,16,16c8.84,0,16-7.16,16-16S24.84,0,16,0z M25.7,19.87
			c0,3.21-2.61,5.83-5.83,5.83h-7.74c-3.21,0-5.83-2.61-5.83-5.83v-7.74c0-3.21,2.61-5.83,5.83-5.83h7.74
			c3.21,0,5.83,2.61,5.83,5.83V19.87z"/>
	</g>
</g>
</svg>
