<?xml version="1.0" encoding="UTF-8"?>
<svg id="_圖層_1" data-name="圖層_1" xmlns="http://www.w3.org/2000/svg" xmlns:xlink="http://www.w3.org/1999/xlink" version="1.1" viewBox="0 0 930.61 129">
  <!-- Generator: Adobe Illustrator 29.6.1, SVG Export Plug-In . SVG Version: 2.1.1 Build 9)  -->
  <defs>
    <style>
      .st0 {
        fill: url(#_未命名漸層_15);
      }

      .st1 {
        fill: #ed781e;
      }

      .st2 {
        fill: #231815;
      }
    </style>
    <linearGradient id="_未命名漸層_15" data-name="未命名漸層 15" x1="977.05" y1="120.32" x2="-10.71" y2="120.32" gradientUnits="userSpaceOnUse">
      <stop offset=".2" stop-color="#fff"/>
      <stop offset=".28" stop-color="#fcefe4"/>
      <stop offset=".54" stop-color="#f6bc90"/>
      <stop offset=".76" stop-color="#f19752"/>
      <stop offset=".92" stop-color="#ee802c"/>
      <stop offset="1" stop-color="#ed781e"/>
    </linearGradient>
  </defs>
  <g>
    <g>
      <path class="st2" d="M360.41,54.17l-1.82,27.5h-15.9l-.24,3.66h-8.39l2.06-31.17h24.29ZM365.33,16.31l-.57,8.57h-30.18l.57-8.57h30.18ZM336.69,49.62l.54-8.13h24.2l-.54,8.13h-24.2ZM337.51,37.3l.55-8.3h24.2l-.55,8.3h-24.2ZM363.64,3.99l-.55,8.3h-23.4l.55-8.3h23.4ZM351.19,62.66h-7.23l-.7,10.54h7.23l.7-10.54ZM410.77,63.73l5.19,5.27c-2.8,1.85-6.07,3.54-9.8,5.09,3.06,2.32,6.76,4.02,11.09,5.09-2.2,1.73-4.21,4.26-6.04,7.59-7.46-2.38-13.2-6.58-17.21-12.59l.07,7.05c-2.35.42-5.87,1.01-10.57,1.79-7.89,1.37-13.46,2.32-16.71,2.86l-1.96-8.13c.78-.12,2.04-.3,3.79-.54,1.56-.24,2.77-.42,3.61-.54l.31-4.73c-3.06,1.19-5.8,2.14-8.23,2.86-1.59-2.92-3.08-5.18-4.46-6.79,5.68-1.25,10.57-2.77,14.68-4.55h-12.59l.49-7.41h12.95l.2-3.04h-8.84l.42-6.43h8.84l.19-2.95h-10.09l.43-6.52h10.09l.27-4.02h-8.75l1.06-15.98h21.79l-1.06,15.98h-3.39l-.27,4.02h9.64l.27-4.02h-2.86l1.06-15.98h22.14l-1.06,15.98h-9.46l-.27,4.02h11.25l-.43,6.52h-11.25l-.19,2.95h10.09l-.42,6.43h-10.09l-.2,3.04h12.5l-.49,7.41h-18.48c.82,2.02,1.94,3.96,3.37,5.8,1.23-.65,4.36-2.5,9.39-5.54ZM419.8,6.85l-.51,7.77h-53.13l.51-7.77h20.54l.37-5.63h11.07l-.37,5.63h21.52ZM376.28,27.56h5.8l.32-4.82h-5.8l-.32,4.82ZM382.05,67.3l-.53,7.95c1.14-.18,2.88-.42,5.23-.71,3.07-.48,5.32-.8,6.76-.98-1.88-3.15-3.32-6.52-4.33-10.09h-1.52c-1.82,1.49-3.7,2.77-5.61,3.84ZM385.22,53.01l-.2,3.04h9.64l.2-3.04h-9.64ZM385.84,43.64l-.19,2.95h9.64l.19-2.95h-9.64ZM401.78,22.74l-.32,4.82h6.16l.32-4.82h-6.16Z"/>
      <path class="st1" d="M449.93,18.45l-1.29,19.56c-1.54,22.44-7.22,38.55-17.04,48.31-1.35-2.08-3.35-4.23-6-6.43-.45-.36-.85-.66-1.19-.89,5.61-5.66,9.51-13.27,11.69-22.86-.81.48-4.33,2.5-10.58,6.07l-2.55-10.09c3.86-1.67,8.84-3.99,14.93-6.96.17-1.73.36-4.11.56-7.14l.24-3.66-8.13,4.11c-.46-4.76-2.04-10.6-4.74-17.5l8.01-3.66c2.45,5.24,4.11,10.3,4.98,15.18l1.54-23.31h28.04l.52-7.86h11.52l-.52,7.86h31.7l-.61,9.29h-61.08ZM473.08,55.87l.74-11.25c-6.21,3.87-12.74,7.23-19.6,10.09-1.71-3.04-3.65-5.63-5.83-7.77-.16-.24-.33-.42-.5-.54,10.53-3.51,19.52-7.98,26.96-13.39h-21.43l.59-8.93h55.99l-.59,8.93h-20.72c-1.4,1.43-2.73,2.65-3.99,3.66l-1.27,19.2h-10.36ZM452.39,86.5l1.9-28.75h48.67l-1.88,28.49h-11.25l.17-2.5h-26.7l-.18,2.77h-10.72ZM491.12,66.67h-26.7l-.54,8.13h26.7l.54-8.13ZM484.87,42.39l7.03-6.43c7.79,3.81,13.9,7.59,18.36,11.34.17.18.34.33.51.45l-7.45,7.32c-3.81-3.69-9.81-7.83-18.02-12.41-.17-.12-.31-.21-.43-.27Z"/>
      <path class="st1" d="M599.71,46.31h-27.5c5.55,8.81,12.75,16.49,21.6,23.04,2.27,1.73,4.49,3.21,6.67,4.46-3.14,2.5-6.12,5.63-8.92,9.38-9.45-6.55-17.93-15.54-25.45-26.97-.71-1.01-1.36-2.02-1.94-3.04l-2.21,33.49h-11.79l2.19-33.13c-8.2,11.43-17.53,20.75-28.01,27.95-1.12.77-2.21,1.49-3.27,2.14-2.43-3.75-4.91-6.79-7.43-9.11,9.19-4.88,17.8-11.79,25.84-20.72,2.25-2.5,4.26-5,6.03-7.5h-27.68l.73-11.07h35l2.24-33.93h11.79l-2.24,33.93h35.09l-.73,11.07ZM545.49,26.4l-11.13,4.91c-1.13-5.42-4.01-11.85-8.64-19.29-.43-.71-.86-1.4-1.29-2.05l10.29-4.38c4.96,6.96,8.42,13.51,10.4,19.65.15.42.27.8.37,1.16ZM587.34,5.15l11.83,4.73c-6.29,9.59-11.72,16.97-16.29,22.15l-9.19-4.2c5.08-6.61,9.52-13.9,13.32-21.88.08-.3.19-.57.32-.8Z"/>
      <path class="st2" d="M690.9,47.48l-8.09,7.59c-2.1-2.44-5.8-5.98-11.08-10.63-1.98,2.98-4.21,5.6-6.68,7.86-1.97-1.73-4.25-3.27-6.84-4.64,5.86,8.57,13.79,15.63,23.78,21.16,3.16,1.73,6.31,3.19,9.44,4.38-2.9,2.38-5.69,5.51-8.39,9.38-.14.24-.24.42-.3.54-10.85-5.18-20.22-12.89-28.12-23.13l-1.76,26.61h-11.43l1.72-26.07c-9.23,10-19.5,17.53-30.78,22.59-1.87-3.21-4.23-6.31-7.07-9.29,11.18-4.29,21.25-10.77,30.22-19.47,3.37-3.27,6.27-6.61,8.7-10l1.4-21.16h-33.22l.7-10.63h33.22l.74-11.25h11.43l-.74,11.25h34.47l-.7,10.63h-34.47l-1.36,20.54c.16.24.38.57.65.98.33.48.54.83.64,1.07,5.99-5.06,10.31-12.38,12.97-21.97l10.5,1.88c-.92,3.1-2.15,6.37-3.69,9.82,7.68,6.31,12.38,10.3,14.12,11.97ZM627.19,23.81l10.41,1.96c-.97,2.98-2.29,6.28-3.96,9.91,4.49,4.11,7.29,6.79,8.4,8.04l-7.82,7.59c-1.04-1.43-2.95-3.57-5.74-6.43-3.69,5.3-7.44,9.47-11.27,12.5-1.65-2.08-4.23-4.38-7.76-6.88-.12-.06-.2-.12-.26-.18,8.04-5.54,13.86-13.81,17.45-24.82.22-.59.4-1.16.56-1.7Z"/>
      <path class="st2" d="M776.81,64.89l-.74,11.25c-.24,3.57-1.37,5.92-3.41,7.05-.5.3-1.02.54-1.57.71-2.5.83-7.17,1.25-14.01,1.25-.35-1.91-1.34-4.5-2.97-7.77,2.61.12,5.76.18,9.45.18,1.08-.18,1.68-.68,1.8-1.52l.24-3.66h-20.63l-.94,14.2h-10.63l.94-14.2h-18.84l-.84,12.68h-10.54l1.33-20.18h29.38l.19-2.86h-24.56l1.48-22.32h25.27c.7-1.55,1.27-2.95,1.71-4.2-17.77,1.31-30.09,2.14-36.96,2.5l-.11-6.43c1.49-.06,3.94-.18,7.35-.36,3.65-.24,6.45-.39,8.42-.45l.21-3.21h-13.13l.37-5.54h13.13l.18-2.68h-15.27l.35-5.36h15.27l.19-2.86h-11.79l.34-5.18h11.79l.31-4.64h10.09l-.31,4.64h12.32l-.34,5.18h-12.32l-.19,2.86h15l-.35,5.36h-15l-.18,2.68h13.22l-.37,5.54h-13.22l-.18,2.68c1.79-.12,4.51-.3,8.16-.54,3.46-.18,6.03-.33,7.71-.45l-.41,4.82,6.61,1.34c-.39.54-.95,1.34-1.68,2.41-.6.89-1.02,1.52-1.29,1.88h26.43l-1.48,22.32h-26.16l-.19,2.86h31.34ZM720.77,53.55l-.18,2.77h41.61l.18-2.77h-41.61ZM721.31,45.33l-.18,2.77h41.61l.18-2.77h-41.61ZM776.87,8.54h8.57l-.52,7.86h-8.57l-.85,12.86c-.22,3.27-1.11,5.45-2.66,6.52-.5.3-1.02.57-1.57.8-2.32.83-6.45,1.25-12.41,1.25-.36-1.79-1.29-4.31-2.8-7.59,2.14.06,4.79.09,7.94.09.91-.24,1.41-.68,1.52-1.34l.83-12.59h-12.05c3.26,3.75,5.54,7.08,6.84,10l-7.77,4.02c-1.06-2.86-3.21-6.4-6.44-10.63l6.83-3.39h-9.46l.52-7.86h22.06l.48-7.23h10l-.48,7.23Z"/>
      <path class="st2" d="M812.16,1.58l10.06,3.21c-3.07,6.79-6.37,13.04-9.9,18.75l-4.16,62.86h-10.45l3.09-46.7c-2.27,2.8-4.46,5.27-6.56,7.41-.93-3.09-2.54-6.7-4.82-10.8-.1-.24-.21-.42-.32-.54,7.49-7.02,14.07-16.04,19.74-27.06,1.23-2.44,2.34-4.82,3.33-7.14ZM826.38,41.85l10.48,2.23c-3.53,11.97-8.14,21.85-13.84,29.65-.2.36-.4.66-.6.89-2.6-2.14-5.59-4.11-8.99-5.89,5.35-6.19,9.66-15.15,12.94-26.88ZM865.35,27.65h-12.23l-3.09,46.79c-.31,4.64-1.53,7.77-3.66,9.38-.44.3-.84.54-1.21.71-2.89,1.43-7.43,2.14-13.62,2.14-.29-3.69-1.3-7.35-3.02-10.98,2.56.06,5.56.09,9.01.09,1.02-.12,1.59-.63,1.71-1.52l3.08-46.61h-10.63c-3.04,5.48-6.21,10.12-9.49,13.93-2.67-2.8-5.43-5.18-8.28-7.14,6.77-7.02,12.42-17.17,16.93-30.45.29-.83.55-1.64.78-2.41l10.47,2.32c-1.21,3.87-2.94,8.42-5.19,13.66h31.43l1.72-.36,7.58,1.43c-1.72,8.04-3.5,15.12-5.33,21.25l-9.09-1.61c.84-3.69,1.55-7.23,2.13-10.63ZM855.33,44.26l9.86-3.3c3.88,8.81,6.44,17.77,7.69,26.88.17,1.07.28,2.05.34,2.95l-10.68,3.57c-.45-7.62-2.35-16.31-5.69-26.07-.5-1.43-1.01-2.77-1.52-4.02Z"/>
      <path class="st2" d="M893.42,79.89c-3.21,0-5.5-1.43-6.86-4.29-.68-1.37-.97-2.86-.87-4.46.22-3.39,1.73-5.92,4.52-7.59,1.36-.77,2.81-1.16,4.36-1.16,3.21,0,5.54,1.37,6.96,4.11.74,1.43,1.05,2.98.94,4.64-.22,3.27-1.72,5.77-4.51,7.5-1.42.83-2.94,1.25-4.55,1.25ZM890.65,55.6l.36-33.75.39-12.68h13.48l-1.29,12.68-4.11,33.75h-8.84Z"/>
    </g>
    <path class="st1" d="M14.9,20.59c3.84-.59,9.45-1.11,18.24-1.11,7.46,0,12.7,1.48,16.17,3.99,3.47,2.44,6.05,6.87,6.05,12.26,0,4.8-1.62,9.3-4.87,12.11-4.28,3.77-10.34,5.46-18.02,5.46-1.55,0-2.88-.15-3.77-.22v16.61h-13.81V20.59ZM28.71,42.53c.81.15,1.85.22,3.62.22,5.39,0,9.23-2.44,9.23-6.94,0-3.62-2.73-5.98-8.27-5.98-2.36,0-3.84.15-4.58.3v12.41ZM127.14,68.22c-2.07,1.03-7.38,2.36-14.18,2.36-20.16,0-29.17-11.59-29.17-24.96,0-17.28,13.59-26.58,29.9-26.58,6.42,0,11.81,1.18,14.25,2.51l-2.88,10.78c-2.51-1.03-6.2-2.07-10.85-2.07-8.34,0-15.73,4.5-15.73,14.4,0,8.56,5.83,14.55,16.1,14.55,3.84,0,8.05-.74,10.41-1.7l2.14,10.71ZM135.05,19.93h13.81v20.9h.15c1.11-1.77,2.36-3.47,3.54-5.1l10.93-15.8h17.65l-17.5,20.97,18.31,28.8h-16.47l-11.96-20.53-4.65,5.54v14.99h-13.81V19.93ZM232.67,51.16c-.15-6.2-.22-13.07-.22-21.71h-.22c-1.77,7.09-4.14,14.91-6.05,21.19l-5.39,18.02h-11.15l-4.43-17.94c-1.48-6.13-3.1-13.88-4.43-21.27h-.15c-.3,7.6-.52,15.51-.74,21.71l-.74,18.53h-13.14l2.81-49.77h19.94l3.32,12.55c1.4,5.32,2.95,12.18,4.06,18.46h.3c1.62-6.28,3.47-13.66,5.02-18.61l3.91-12.41h19.42l2.29,49.77h-13.88l-.52-18.53ZM289.98,49.98h-20.23v8.49h22.59v11.22h-36.55V19.93h35.44v11.22h-21.49v7.61h20.23v11.22ZM78.65,69.7s-4.57-29.03-5.1-35.08c0,0,.17-10.14,5.52-12.65,5.34-2.5-1.76-4.98-6.36-.37,0,0-3.91-7.26-5.04-2.12,0,0-3.57-3.52-3.65,1.61,0,0-3.26-2.07-2.79,2.15,0,0-2.29-.66-1.91,3.09.24,2.37.12,6.88,4.06,9.7,3.93,2.82-.67,33.66-.67,33.66h15.94Z"/>
  </g>
  <rect class="st0" x="13.1" y="115.23" width="904.4" height="10.18"/>
</svg>