<?xml version="1.0" encoding="UTF-8"?>
<svg id="_圖層_1" data-name="圖層_1" xmlns="http://www.w3.org/2000/svg" xmlns:xlink="http://www.w3.org/1999/xlink" version="1.1" viewBox="0 0 363.14 428.67">
  <!-- Generator: Adobe Illustrator 29.6.1, SVG Export Plug-In . SVG Version: 2.1.1 Build 9)  -->
  <defs>
    <style>
      .st0 {
        fill: none;
      }

      .st1 {
        fill: #4a9dff;
      }

      .st3 {
        fill: #fec901;
      }

      .st4 {
        fill: #dbdcdc;
      }

      .st5 {
        fill: #ff3e3e;
      }

      .st6 {
        fill: #ff9f00;
      }

      .st7 {
        fill: #fff;
      }

      .st8 {
        fill: #212236;
      }

      .st9 {
        fill: #ffa6a6;
      }

      .st10 {
        fill: #464666;
      }

      .st11 {
        fill: #5b5b7c;
      }

      .st13 {
        fill: #ffc7c7;
      }

      .st14 {
        fill: #d2d2ff;
      }

      .st15 {
        fill: #29293d;
      }

      .st16 {
        fill: #30304a;
      }

      .st17 {
        fill: #f3f3ff;
      }

      .st18 {
        fill: #888;
      }
    </style>
    <linearGradient id="_未命名漸層_4" data-name="未命名漸層 4" x1="416.56" y1="84.14" x2="-484.97" y2="84.14" gradientUnits="userSpaceOnUse">
      <stop offset=".21" stop-color="#dbdcdc"/>
      <stop offset=".48" stop-color="#eeeeef"/>
      <stop offset=".49" stop-color="#ede8e4"/>
      <stop offset=".59" stop-color="#edb890"/>
      <stop offset=".68" stop-color="#ed9552"/>
      <stop offset=".74" stop-color="#ed802c"/>
      <stop offset=".77" stop-color="#ed781e"/>
    </linearGradient>
  </defs>
  <rect class="st0" x="-124.74" y="-63.3" width="1215.82" height="1267.05"/>
  <g>
    <g>
      <g>
        <g>
          <g>
            <g>
              <g>
                <path class="st7" d="M222.52,12.41c-.09,0-.14-.1-.1-.18.83-1.35,1.62-2.51,3.15-3.21,1.43-.65,5.64,1.77,6.42,2.23.06.04.08.12.03.18-.99,1.09-1.96,2.76-3.53,2.91-2.12.2-3.81-1.76-5.96-1.92Z"/>
                <path class="st7" d="M95.85,87.13l2.65-2.64c.05-.05.14-.05.19,0l5.02,6.03s.04.11,0,.15l-2.73,2.9c-.05.06-.14.05-.19,0l-4.95-6.3s-.03-.11,0-.16Z"/>
                <path class="st5" d="M100.8,56.58c-.08-.18-.15-.36-.23-.54,0-.02-.01-.04-.02-.06l-.48-4.65c-.09-.83-.3-1.64-.62-2.29,0,0-.66-1.36-.83-1.72-.02-.05-.03-.13,0-.17.35-.69,1.43,1.9,1.66,2.71.56,2.03.43,4.45.67,6.61.02.18-.08.25-.14.1Z"/>
                <path class="st1" d="M127.17,1.37l2.81-2.71c.05-.05.05-.14-.01-.19l-6.6-4.96c-.05-.04-.12-.03-.17,0l-3.09,2.79c-.06.05-.05.14.01.19l6.88,4.88c.05.04.12.03.17-.01Z"/>
              </g>
              <path class="st5" d="M333.66,291.11c.03-.09-.05-.17-.14-.16-1.68.25-3.15.54-4.44,1.69-1.2,1.08-.41,5.95-.25,6.85.01.08.09.12.17.1,1.48-.5,3.52-.76,4.28-2.17,1.02-1.9-.29-4.24.38-6.31Z"/>
            </g>
            <g>
              <g>
                <path class="st3" d="M149.44,196.6c0-.11-.15-.15-.22-.07-.67.84-1.84,2.91-3.77,3.54-2.01.66-2.77,1.9-3.17,2.44-.06.08,0,.18.1.19l1.75.08c3.03.13,5.52-2.28,5.37-5.2l-.05-.98Z"/>
                <path class="st5" d="M-3.35,100.21l4.7.82c.06.01.1.06.11.12l.08,4.69c0,.08-.07.14-.15.12l-4.54-.73c-.06,0-.1-.06-.11-.12l-.24-4.79c0-.08.07-.14.15-.13Z"/>
              </g>
              <path class="st7" d="M211.13,229.98l-.18-4.6c0-.06.04-.11.1-.13l4.73-1.09c.08-.02.15.04.16.11l.24,4.44c0,.06-.04.11-.09.13l-4.8,1.26c-.08.02-.16-.04-.16-.12Z"/>
              <path class="st1" d="M82.72,199.93l2.18-3.88s.02-.11-.03-.15l-3.59-2.88c-.06-.05-.15-.03-.19.03l-2.17,3.71s-.02.11.03.15l3.57,3.05c.06.05.15.04.19-.03Z"/>
            </g>
          </g>
          <g>
            <g>
              <g>
                <path class="st7" d="M193.41,306.35s-1.34.88-1.69,1.11c-.05.03-.1.1-.1.15-.07.8,2.33-.96,2.98-1.58,1.07-1.01,1.97-2.33,2.86-3.63h-.54l-1.7,2.21c-.54.7-1.18,1.31-1.82,1.73Z"/>
                <g>
                  <path class="st3" d="M172.45,111.09c.07-.06.18-.02.2.06.39,1.52.67,2.89.08,4.42-.55,1.43-5.31,2.54-6.2,2.74-.07.02-.15-.04-.15-.11-.08-1.45-.6-3.29.42-4.46,1.37-1.57,4-1.31,5.66-2.65Z"/>
                  <path class="st5" d="M172.41,47.96l-2.34-3.8s-.02-.11.02-.15l3.47-3.01c.06-.05.15-.04.19.03l2.31,3.63s.02.11-.02.15l-3.44,3.18c-.06.05-.15.04-.19-.03Z"/>
                  <path class="st1" d="M209.59,147.8c-.07-.06-.04-.17.05-.2,1.54-.51,2.92-.9,4.55-.48,1.52.39,3.11,4.87,3.4,5.71.02.07-.02.14-.1.15-1.49.21-3.34.88-4.64,0-1.75-1.17-1.72-3.72-3.25-5.19Z"/>
                </g>
              </g>
              <g>
                <g>
                  <path class="st3" d="M230.8,64.1c0-.11-.15-.15-.22-.07-.67.84-1.84,2.91-3.77,3.54-2.01.66-2.77,1.9-3.17,2.44-.06.08,0,.18.1.19l1.75.08c3.03.13,5.52-2.28,5.37-5.2l-.05-.98Z"/>
                  <path class="st17" d="M47.4,255.98l2.06-4.16c.03-.05.09-.08.15-.07l4.72,1.15c.08.02.12.1.09.17l-1.92,4.04c-.03.05-.09.08-.14.07l-4.85-1.03c-.08-.02-.12-.1-.09-.17Z"/>
                </g>
                <path class="st1" d="M344.71,92.98l2.81,3.49s.1.06.15.03l4.18-2.01c.07-.03.09-.12.04-.18l-2.65-3.41s-.1-.06-.15-.04l-4.33,1.92c-.07.03-.09.12-.05.18Z"/>
              </g>
            </g>
            <path class="st5" d="M311.95,45.02l-3.18-2.02c-.06-.04-.07-.12-.03-.18l5.19-5.9s.11-.06.16-.02l3.47,2.04c.07.04.08.13.03.18l-5.48,5.87s-.11.05-.16.02Z"/>
          </g>
        </g>
        <path class="st7" d="M65.25,14.95c-.21-.02-.42-.05-.63-.07-.02,0-.05,0-.07,0l-4.97.82c-.89.15-1.79.16-2.56.03,0,0-1.6-.26-2.02-.33-.06,0-.14,0-.18.04-.62.53,2.37.86,3.28.86,2.27-.01,4.76-.81,7.07-1.18.19-.03.24-.15.07-.17Z"/>
      </g>
      <g>
        <path class="st17" d="M182.96,87.01l-3.88-.82c-.08-.02-.15.04-.16.11l-.77,8.03c0,.06.04.12.1.13l4.1,1c.08.02.16-.03.16-.11l.54-8.22c0-.06-.04-.12-.1-.13Z"/>
        <path class="st17" d="M139.9,44.54l4.7.82c.06.01.1.06.11.12l.08,4.69c0,.08-.07.14-.15.12l-4.54-.73c-.06,0-.1-.06-.11-.12l-.24-4.79c0-.08.07-.14.15-.13Z"/>
      </g>
    </g>
    <g>
      <path class="st13" d="M205.83,14.86c-.8,2.39-1.15,4.94-.68,7.41.13.71.31,1.36.53,1.83.62,1.34,1.57,2.39,2.49,3.52.93,1.12,1.85,2.24,2.82,3.32.5.56,6.23,6.44,6.28,6.38-1.97,2.42-4.81,6.05-7.36,7.87-.07.05-6.9-8.08-7.57-8.8-2.31-2.51-4.71-4.78-7.65-6.53-1.91-1.14-7.44-5.98-8.85-7.91-.77-1.05-1.7-1.75-2.69-2.57-1.17-.97-3-2.68-4.16-3.64-.48-.4-.97-.94-1.23-1.5-.26-.57-.2-1.33.3-1.7.71-.53,1.71.15,2.41.7,1.82,1.42,3.13,2.42,4.91,3.89.27.22.64.4.97.17.15-.1.24-.27.27-.44.07-.4-.15-.77-.41-1.05-2.09-2.3-4.93-5.98-7.03-8.27-.49-.54-1.01-1.23-.78-1.92.22-.66,1.07-.93,1.75-.74.67.18,1.9,2.09,2.4,2.58,1.18,1.14,2.35,2.29,3.53,3.43.57.56,1.15,1.12,1.72,1.67.42.4.86,1.06,1.51,1.01.33-.03.63-.26.73-.58.15-.44-.09-.85-.36-1.18-2.23-2.7-5.05-6.75-7.09-9.6-.47-.65-.95-1.49-.56-2.19.34-.62,1.24-.74,1.88-.45.65.29,1.1.88,1.53,1.45,2.07,2.75,4.99,6.59,7.02,9.37.1.13.22.25.37.33.56.29.89-.14.87-.53-.02-.6-.45-1.38-.69-1.92-.34-.75-.67-1.5-.98-2.26-.63-1.52-1.21-3.06-1.73-4.62-.29-.86-.63-1.99.1-2.51.52-.37,1.29-.2,1.78.23.48.43.74,1.04.99,1.64.86,2.09,1.69,4.19,2.48,6.3.53,1.4,1.16,2.75,1.85,4.08.59,1.14,1.16,2.39,2.02,3.34.63.69,1.39.57,1.91-.15,1.25-1.71,2.05-4.88,2.69-6.9.24-.75.9-1.51,1.47-1.45,2.27.25,1.23,5.99.25,8.91Z"/>
      <g>
        <g>
          <path class="st18" d="M327.04,186.65c.26,2.83-15.1,2.33-30.23,3.72-15.14,1.39-29.86,3.26-29.53.44.22-1.84,15.91-14.19,31.05-15.57,15.14-1.39,28.46,8.59,28.72,11.42Z"/>
          <g>
            <path class="st8" d="M234.35,237.05c2.07,1.3,4.31,1.42,6.45,1.34,2.86-.11,10.71-.35,15.1.62.63.14,1.3-.04,1.75-.5,3.41-3.51,7.55-2.6,9.02-1.68.67.42,1.45-.1,1.33-.91-.03-.23-.09-.45-.16-.68-.11-.34-1.13-5.82-1.82-9.55-.33-1.81-2.2-2.91-3.95-2.31l-29.36,10.04s.39,2.83,1.65,3.62Z"/>
            <path class="st15" d="M276.98,240.34c29.14,2.97,44.7,27.42,44.7,27.42l-1.75,18.84-47.78-35.13s.7-11.55,4.83-11.13Z"/>
            <path class="st10" d="M292.69,186.36c1.35,17.28,3.23,34.58,6.63,51.59,2.94,14.7,6.65,35.59,17.88,46.59,1.9,1.86,4.41,3.25,7.08,3.27,4.11.03,7.67-3.23,9.29-7.01,3.79-8.87,2.37-21.86,1.67-31.26-.89-12.04-2.89-24.02-5.78-35.74-2.49-10.11-7.6-37.24-16.83-41.7-7.17-3.47-20.56,6.29-19.94,14.27Z"/>
            <path class="st13" d="M211.06,227.52l-16.65-11.72-6.27,4.12,14.59,18.57c3.65,1.71,8.2,5.9,11.67,7.11l7.37,5.17c3.97,1.38,7.18-3.43,4.38-6.56l-15.09-16.68Z"/>
            <path class="st15" d="M195.61,232.41c-2.61-3.04,4.25-12.82,8.22-10.97,26.82,10.85,54.45,41.87,54.45,41.87l-10.13,23.09s-33.24-30.04-52.54-53.98Z"/>
            <path class="st8" d="M167.59,223.61c2.21,1.05,4.44.91,6.56.57,2.83-.45,10.6-1.61,15.06-1.15.65.07,1.29-.19,1.68-.71,2.98-3.89,7.19-3.47,8.76-2.73.72.34,1.43-.27,1.21-1.05-.06-.22-.14-.44-.24-.65-.15-.32-1.81-5.64-2.93-9.27-.55-1.76-2.53-2.63-4.19-1.83l-27.98,13.42s.72,2.76,2.06,3.4Z"/>
            <path class="st10" d="M276.11,184.61c-16.6,25.34-30.59,67.18-31,93.24-.21,12.93,12.38,12.61,17.96,6.51,0,0,23.43-32.32,33.32-55.37,4.15-9.67,15.69-36.47,10.23-45.47-4.24-7-26.03-5.74-30.51,1.1Z"/>
            <path class="st15" d="M325.23,196.44c-10.5-7.57-51.57-3.74-54.83-2.28,1.13-2.23,2.78-6.23,4.01-8.1,2.71-4.14,13.47-7.84,21.13-7.3,4.22-5.29,13.43-9.16,18.39-6.76,5.01,2.42,8.48,15,11.31,24.45Z"/>
            <path class="st9" d="M272.98,188.68c3.41-8.73,7.75-21.73,7.75-21.73l39.2,4.95s1.68,8.92,2.83,16.4c-12.71-5.57-31.84-5.97-49.78.38Z"/>
          </g>
        </g>
        <g>
          <g>
            <path class="st9" d="M298.81,101.09l-7.68-21.97-10.7-.71-5.29,3.03s5.42,13.33,5.87,18.91c.35,4.39,17.8.74,17.8.74Z"/>
            <g>
              <path class="st11" d="M268.92,43.48c-.32-1.35,5.34-2.07,10.25.68,4.94,2.77,7.01,6.48,9.28,11.67l1.14,3.22c-.49.39-1.03-.48-1.28-1.05-.85-1.94-1.67-3.5-2.85-4.74-.39-.41-1.54-.72-2.19-.8-5.06-.62-15.07,6.14-16.85,10.37-.14.34-.17.71-.09,1.06.54,2.45,3.82,5.78,5.66,7.49.68.64.73,1.7.11,2.4l-2.12,2.38-8.42-8.5c-1.94-2.1-2.43-5.16-1.23-7.75,2.37-5.16,9.94-10.73,8.6-16.43Z"/>
              <ellipse class="st13" cx="291.72" cy="63.32" rx="3.47" ry="4.72" transform="translate(-1.56 7.69) rotate(-1.51)"/>
              <path class="st13" d="M288.39,56.28c-5.65-10.28-19.14-3.08-22.17,5.07-2.71,7.31,4.36,17.2,9.68,22.17,5.8,5.42,14.53,6.71,17.67-1.64,2.99-7.96-1.2-18.35-5.18-25.6Z"/>
              <path class="st9" d="M266.63,60.48c-1.76,4.65,1.34,8.99,3.88,11.57.48.48,2.06.42,1.66-.12-2.71-3.72-3.58-5.91-3.83-7.89-.05-.37.02-.75.19-1.08,2.19-4.22,12.27-9.91,17.36-9.02.66.11,1.09.45,1.34,1.06,1.7,4.07,2.69,2.84,1.44.55-5.61-10.32-18.93-3.29-22.05,4.95Z"/>
              <path class="st10" d="M271.04,43.88c-.22-1.37,5.47-1.7,10.17,1.38,4.74,3.1,6.55,6.95,8.46,12.28l.91,3.29c-.51.35-.99-.55-1.2-1.14-.72-2-1.43-3.61-2.52-4.92-.36-.44-1.48-.82-2.13-.95-5.01-.97-15.46,5.09-17.52,9.18-.16.33-.22.69-.17,1.06.37,2.48,3.41,6.03,5.13,7.86.64.68.61,1.75-.05,2.4l-2.28,2.23-7.82-9.06c-1.79-2.22-2.07-5.31-.7-7.82,2.72-4.98,10.65-10.02,9.71-15.8Z"/>
              <ellipse class="st13" cx="269.47" cy="76.33" rx="3.48" ry="4.87" transform="translate(59.71 261.92) rotate(-57.32)"/>
            </g>
          </g>
          <g>
            <path class="st13" d="M348.86,124.27c2.29-6.06,1.08-8.19.07-14.58-.21-1.31-.7-2.43-2.14-2.37-1.21.05-1.77,1.15-1.56,2.46.95,6.04,1.35,7.39-3.07,13.18-.81,1.06,2.62,2.86,3.79,3.13,1.42.33,2.92-1.82,2.92-1.82Z"/>
            <polygon class="st13" points="332.79 126.18 356.93 117.51 360.33 130.48 334.96 135.39 332.79 126.18"/>
            <path class="st9" d="M360.26,126.03c.46-.59.42-1.62-.25-1.95v-.06c-.67-.16-1.35-.29-2.04-.37.15-.06.31-.13.46-.2.46-.21.93-.48,1.18-.93.25-.44.18-1.1-.27-1.35,0,0-.2-.11-.29-.16-.74-.16-1.49-.28-2.25-.37.21-.11.41-.24.59-.41.37-.35.61-.89.47-1.38-.21-.7-1.04-.97-1.76-1.07-2.31-.35-4.7-.14-6.92.62-.13.04-.26.09-.39.15-.59.27-1.13.71-1.08,1.33.06.76.95,1.07,1.74,1.16-.27.09-.53.2-.76.36-.5.34-.87.94-.77,1.54.04.28.18.52.37.73.17.18.38.33.61.43.4.19.85.25,1.3.29-.03,0-.06.02-.08.03-.49.16-.98.36-1.35.72-.37.36-.57.93-.37,1.41.25.59.98.79,1.62.89,1.32.2,2.66.27,3.99.22-.53.12-1.06.26-1.58.43-.76.25-1.63.73-1.63,1.52,0,.82.91,1.31,1.7,1.5.01,0,.03,0,.04,0,1.65.39,3.4.32,5.01-.2.61-.2,1.22-.47,1.67-.93.45-.46.72-1.13.57-1.76-.16-.65-.87-1.17-1.52-.95-.33-.01-.65-.01-.98,0,.34-.07.68-.14,1.02-.23.73-.18,1.5-.43,1.96-1.03Z"/>
            <path class="st13" d="M354.32,131.06c1.65.39,3.4.32,5.01-.2.61-.2,1.22-.47,1.67-.93.45-.46.72-1.13.57-1.76-.16-.65-.87-1.17-1.52-.95-1.97-.09-3.96.19-5.83.8-.76.25-1.63.73-1.63,1.52,0,.82.91,1.31,1.7,1.5.01,0,.03,0,.04,0Z"/>
            <path class="st13" d="M361.57,123.88c-3.25-.79-6.71-.65-9.88.41-.49.16-.98.36-1.35.72-.37.36-.57.93-.37,1.41.25.59.98.79,1.62.89,2.75.42,5.59.28,8.29-.39.73-.18,1.5-.43,1.96-1.03.46-.59.42-1.62-.25-1.95v-.06Z"/>
            <path class="st13" d="M349.55,123.57c.17.18.38.33.61.43.48.22,1.02.27,1.55.32,2.7.21,5.51.15,7.97-.97.46-.21.93-.48,1.18-.93.25-.44.18-1.1-.27-1.35,0,0-.2-.11-.29-.16-2.83-.61-5.79-.68-8.65-.19-.6.1-1.21.24-1.71.58-.5.34-.87.94-.77,1.54.04.28.18.52.37.73Z"/>
            <path class="st13" d="M350.51,118.41c-.59.27-1.13.71-1.08,1.33.07.83,1.13,1.13,1.96,1.18,2.24.14,4.5.07,6.73-.23.36-.15.71-.33.99-.6.37-.35.61-.89.47-1.38-.21-.7-1.04-.97-1.76-1.07-2.31-.35-4.7-.14-6.92.62-.13.04-.26.09-.39.15Z"/>
            <path class="st18" d="M318.47,124.9s12.03-1.68,19.15-3.11c3.22,2.08,5.95,11.54,3.98,14.83-5.7,3.13-21.59,5.06-21.59,5.06l-1.54-16.78Z"/>
          </g>
          <g>
            <path class="st4" d="M197.74,37.16c.29-4.32,8.69-11.58,13.02-11.43,15.38,14.95,25.98,26.62,35.28,34.94,8.66,7.75,25.69,26.54,36.66,28.92,6.52,1.41-.59,25.45-.59,25.45,0,0-16.34,14.93-17.9,10.04-7.95-24.95-50.86-68.53-66.46-87.93Z"/>
            <path class="st4" d="M282.69,89.6c-9.79-2.08-18.49,35.5-18.49,35.5,0,0,9.15,45.03,3.08,65.71,1.68-3.71,16.76-11.97,31.05-12,15.2-.04,28.45,5.02,28.71,7.84,5.11-43.82-11.95-90.17-44.35-97.05Z"/>
          </g>
        </g>
      </g>
    </g>
    <g>
      <g>
        <path class="st10" d="M137.94,147.46c-4.6,2.14-9.5,3.62-14.48,4.47-7.31,1.25-14.79,1.19-22.14.19,2.74-16.97,5.82-33.88,9.22-50.72,4.96-1.33,9.62-3.83,13.53-7.25,2.41,3.63,4,7.86,5.42,12.04,4.54,13.31,7.95,27.18,8.44,41.27Z"/>
        <path class="st10" d="M143.32,166.08c-6.63-.03-13.25-.76-19.72-2.2.95-1.81,2.16-3.5,3.22-5.26,1.51-2.52,2.76-5.42,2.29-8.32-.51-3.17-2.91-5.64-4.51-8.43-3.76-6.57-2.91-14.7-1.95-22.21.21-1.64.51-3.44,1.8-4.47,1.16-.93,2.78-.95,4.27-.92,4.48.08,8.96.15,13.44.23-7.33,14.2,2.5,51.6,1.16,51.59Z"/>
        <ellipse class="st10" cx="126.72" cy="108.07" rx="17.06" ry="17.55"/>
        <path class="st13" d="M141.36,156.64l-5.78-.94s-10.33-.85-10.13,1.32c.66,7.1,16,24.31,22.09,32.3-14.76,10.77-34.66,29.94-34.66,29.94l2.34,4.06,2.45,2.15s45.61-28.4,43.28-36.63c-3.43-12.07-19.59-32.2-19.59-32.2Z"/>
        <g>
          <path class="st13" d="M116.68,404.01c-7.79-28.57,1.83-55.74-11.87-78.28,3.75-30.53,4.54-53.71.38-69.9-1.63-6.36-10.5-24.4-10.5-24.4,0,0-13.21,4.85-13.53,9.68-1.36,20.67,1.84,56.31,4.2,80.61.62,6.36.95,8.7,2.76,14.78,4.8,16.16,16.18,57.6,18.52,66.18.21.78.46,1.55.71,2.31.78,2.31,2.16,9.8-4.47,16.99-.02,1.64-1.09,4.76-1.09,4.76l11.87-7.46,5.05-10.23-2.05-5.02Z"/>
          <path class="st16" d="M99.14,427.42c.18.46.63.76,1.12.76h8.05c.21,0,.41-.09.56-.24.27-.29.52-.66.74-1.02l4.86-8.37c.29-.48.62-.75,1.03-.75h.28c.18,0,.32.23.32.52l.05,9.66c0,.13.11.23.24.23h.51c.12,0,.22-.09.23-.21l.8-8.87.67-2.53.62-2.09c.98-3.28.35-7.25-1.46-9.3,0,0-1.01-1.15-1.05-1.19.16.33.33,4.64.32,4.98-.08,2.1-.57,4.2-1.57,6.06-1.78,3.32-4.78,5.45-8.49,5.84-2.57.27-5.61,1.01-7.54,3.01-.55.57-.71,2.34-.41,3.14.04.12.09.24.14.36Z"/>
        </g>
        <g>
          <g>
            <circle class="st13" cx="63.93" cy="405.3" r="5.46"/>
            <path class="st13" d="M70.13,327.92c12.18-26.83,15.93-52.14,14.75-68.82-.46-6.55-5.95-25.89-5.95-25.89,0,0-13.86,2.4-15.04,7.09-5.05,20.09-8.29,55.72-10.32,80.05-.53,6.36-.62,8.73.06,15.03,2.04,18.74,6.05,54.09,4.83,69.91-.12,1.53,5.46,2.78,5.46,2.78,0,0,5.61-1.25,5.46-2.78-2.76-29.77,6.39-55.77.74-77.38Z"/>
          </g>
          <path class="st13" d="M50,420.1c8.46-8.13,8.46-14.8,8.46-14.8l4.6-16.15,6.53,16.15.63,6.86-9.93,7.94-9.41,6.52s-1.21-4.9-.9-6.52Z"/>
        </g>
        <path class="st9" d="M105.64,318.59c3.01-27.03,3.37-47.85-.45-62.76-1.63-6.36-10.5-24.4-10.5-24.4,0,0-13.21,4.85-13.53,9.68-1.32,20.06,1.65,54.19,3.99,78.4,7.45.35,14.68.07,20.49-.91Z"/>
        <path class="st9" d="M78.93,233.21s-13.86,2.4-15.04,7.09c-4.62,18.38-7.73,49.74-9.78,73.58,5.43,2.1,12.5,3.68,19.97,4.64,9.04-23.27,11.84-44.71,10.8-59.43-.46-6.55-5.95-25.89-5.95-25.89Z"/>
        <g>
          <circle class="st13" cx="91.18" cy="143.53" r="8.61" transform="translate(-48.17 46.07) rotate(-22.61)"/>
          <path class="st13" d="M48.92,119.96c-.19-.04.68.86.62.68-4.5-14.21-14.08-37.18-15.1-40.66-.03-.14-1.55-2.63-2.92-3-1.9-.51-3.93.45-4.75,2.23-.36.78-.45,1.61-.32,2.39,0,0,.5,7.36.91,11.02.81,7.38,4.15,14.76,5.9,21.98,1.35,5.6,4.5,12.99,8.93,17.04,2.9,2.65,35.87,15.3,42.93,18.27,1.55.65,3.11,1.31,4.66,1.96l2.9-8.3,1.3-8.39s-31.67-12.76-45.07-15.2Z"/>
        </g>
        <polygon class="st13" points="114.74 123.66 102.16 145.03 119.43 152.33 125.26 127.86 114.74 123.66"/>
        <path class="st9" d="M141.36,156.64l-5.78-.94s-10.33-.85-10.13,1.32c.58,6.24,12.49,20.29,19.51,29.02,4.31-.85,9.25-3.84,11.34-7.58-5.99-10.68-14.94-21.82-14.94-21.82Z"/>
        <path class="st4" d="M73.49,125.99c-8.29-2.57-14.23,14.9-5.95,18.33,4.97,2.06,19.76,7.82,19.76,7.82-.39,2.11-4.51,5.83-5.61,7.22-1.32,1.66-2.45,3.5-3.03,5.56-.68,2.4-.59,4.91-.21,7.35.43,2.74,1.42,4.59.74,7.5-.49,2.08-4.14,21.62-4.39,23.07-.6,3.35-3.78,8.63-5.58,11.51-1.53,2.46,2.18,3.52,1.32,5.03-2.96,5.19-1,20.34-1,20.34,0,0,46.22,3.21,46.25,3.21-.15,0-1.01-8.15-1.14-8.93-.66-4.32-.94-8.7-.85-13.06.16-24.12,14.96-50.37,14.96-50.37,0,0,11.16,11.85,12.5,13.09.07.07.16.11.26.12,5.17.46,13.59-4.4,13.73-9.98,0-.09-.02-.18-.07-.25-5.53-8.81-13.3-17.94-18.05-22.75-5.59-5.66-6.67-6.28-13.61-10.17-1.3-.73-3.48,1.68-3.48,1.68l-4.17-.08-5.11-1.6s-3.28-1.38-3.28-6.63c-7.69-1.45-22.82-4.55-34-8.01Z"/>
        <g>
          <path class="st18" d="M122.69,138.66c-3.3,4.14-7.62,3.32-7.62,3.32l6.01,11.64c.3.59,1.16.55,1.41-.07,1.11-2.79,3.25-8.58,2.77-11-.22-1.09-1.5-3.59-2.57-3.89Z"/>
          <path class="st18" d="M110.76,140.63s-3.1-3.6-1.48-7.7c-1.26-.8-4.58,1.15-5.53,2.31-1.57,1.89-2.95,8.46-3.5,11.37-.1.52.48.9.92.6l9.6-6.57Z"/>
          <polygon class="st18" points="115.07 141.98 102.87 169.48 98.18 167.34 110.76 140.63 115.07 141.98"/>
        </g>
        <path class="st10" d="M111.1,312.04c-14.01,5.19-48.27,2.72-62.31-4.88,1.61-33.81,10.13-74.24,20.42-92.81,16.17-4.69,44.76,2.38,44.76,2.38,0,0,4.97,13.56,4.97,33.57,0,15.07-.71,40.93-7.83,61.74Z"/>
        <g>
          <path class="st13" d="M118.46,221.66l-2.35-5.05c-.1-.21-.25-.39-.43-.52l-2.89-2.09c-.47-.34-1.1-.34-1.57,0l-5.24,3.74c-.24.17-.42.42-.51.71h0c-.21.71.19,1.46.9,1.68l.76.23c.29.09.61.07.89-.04l3.93-1.58c.81-.33,1.71.19,1.84,1.06l.18,1.26c.01.08.03.15.05.22l1.15,3.56c.22.68.93,1.07,1.62.89l.89-.23c.62-.16,1.04-.73,1.01-1.37l-.1-1.94c0-.17-.05-.34-.12-.5Z"/>
          <path class="st13" d="M109.94,223.6c.29.09.62.04.89-.15l5.86-4.32c.37-.27.51-.76.33-1.19l-2.6-6.34c-.11-.28-.35-.49-.64-.58l-4.23-1.27c-.53-.16-1.09.14-1.25.67s.14,1.09.67,1.25l3.77,1.13,2.12,5.17-5.23,3.85c-.45.33-.54.96-.21,1.4.13.18.32.31.52.37Z"/>
        </g>
        <path class="st18" d="M90.97,179.07c.24.01.29-.33.06-.39-3.27-.87-6.11-1-8.76-3.83-2.48-2.65-3.59-6.4-3.59-10.02,0,.03-.02.06-.03.1-.09.31-.16.63-.23.94-.16,1.04-.25,2.09-.27,3.14.01,1.1.13,2.19.3,3.27.37,2.38,1.18,4.09.92,6.42,5.76,1.35,7.8.19,11.6.37Z"/>
        <path class="st18" d="M102.71,180.26c-.23-.09-.42.26-.21.38,9.3,5.42,14.05,12.73,14.03,20.9h0c4.32-16.95,12.22-30.96,12.22-30.96-7.56,11.61-16.45,13.27-26.04,9.68Z"/>
        <path class="st9" d="M114.74,123.66l-2.61,4.43c1.28,3.06,3.33,5.42,6.21,6.54,1.67.65,3.42.8,5.18.54l1.74-7.31-10.52-4.2Z"/>
        <path class="st13" d="M140.3,115.98c-4.24,10.89-14.52,20.02-22.86,16.78-8.34-3.25-9.75-16.93-5.51-27.82,4.24-10.89,11.93-13.08,20.27-9.84,8.34,3.25,12.34,9.99,8.1,20.88Z"/>
        <path class="st9" d="M132.56,95.01c-8.22-3.27-15.84-1.22-20.19,9.31,1.29-1.15,2.82-2.02,4.49-2.47,3.3-.89,6.91-.26,10.11-1.44,2.53-.93,4.55-2.92,5.98-5.23-.13-.05-.26-.11-.4-.16Z"/>
        <path class="st9" d="M132.2,95.1c-1.51-.59-2.99-.99-4.44-1.21-.04,2.98.61,6.02,2.33,8.44,1.55,2.17,3.84,3.69,5.55,5.74,2.33,2.78,3.45,6.4,3.74,10.04.33-.7.64-1.42.92-2.14,4.24-10.89.24-17.63-8.1-20.88Z"/>
        <path class="st10" d="M131.55,88.75c1.99.51,2.97,2.75,2.02,4.57h0c-1.37,2.62-3.46,4.98-6.21,6.09-3.17,1.27-6.8.75-10.07,1.74-2.98.9-5.49,3.14-6.87,5.92-.27-.05-.24-.05-.51-.1-.68-9.71,6.95-18.1,16.38-18.72,1.81-.12,3.58.06,5.25.49Z"/>
        <path class="st10" d="M139.2,118.51c.05-4.11-.91-8.36-3.46-11.6-1.65-2.09-3.89-3.69-5.37-5.9-1.74-2.62-2.26-5.9-2.04-9.03.03-.39.06-.77.11-1.15.03-.22.21-.4.43-.43,9.46-1.22,14.91,8.56,14.91,17.51,0,4.13-1.39,7.92-3.7,10.92-.29.38-.89.17-.88-.31,0,0,0,0,0-.01Z"/>
        <ellipse class="st13" cx="138.71" cy="120.71" rx="4.99" ry="3.42" transform="translate(-36.16 177.57) rotate(-59.04)"/>
        <path class="st9" d="M135.65,122.85c-5.6,6.91-13.48,11.15-19.68,8.2-1.87-.89-3.33-2.31-4.41-4.11,1.29,2.7,3.24,4.78,5.88,5.81,6.35,2.47,13.96-2.02,19.03-9.21-.24-.14-.61-.52-.82-.69Z"/>
        <path class="st9" d="M136.47,123.54c-.13-.08-.25-.17-.36-.27-.25.35-.21.96-.53,1.24.16.19.35.35.57.48,1.62.97,4.08-.15,5.5-2.51.14-.24.27-.48.38-.72-1.44,2.07-4.03,2.7-5.55,1.79Z"/>
        <ellipse class="st13" cx="110.03" cy="109.06" rx="4.99" ry="3.42" transform="translate(-9.49 207.63) rotate(-84.26)"/>
      </g>
      <path class="st16" d="M72.84,417.26l-1.14,2.4-1.46,9.02h-1.57l-.09-9.78c0-.28-.25-.5-.55-.5h-.47c-.69.01-1.26.27-1.76.72l-8.29,7.94c-.78.71-1.81,1.49-2.9,1.5l-10.11.09c-1.39.01-2.74-.48-3.72-1.4-.24-.22-.52-.61-.78-1-.5-.77-.18-2.62.71-2.98,2.84-1.17,8.58-3.47,9.28-3.15h0c2.5,1.72,5.99,1.44,8.16-.64l3.49-3.36c1.84-1.77,3.45-3.75,4.78-5.88l3.17-4.92,1.82,1.15c3.09,1.94,4.15,5.72,2.49,8.82l-1.06,1.98Z"/>
      <g>
        <rect class="st7" x="2.3" y="69.69" width="41.77" height="56.4"/>
        <path class="st15" d="M46.38,128.38H0v-61h46.38v61ZM4.6,123.78h37.17v-51.8H4.6v51.8Z"/>
      </g>
      <g>
        <path class="st13" d="M31.82,66.66c.02.12.05.24.08.37.02.14.03.29.05.44.01.07.02.15.02.23v.24c0,.08.01.16.01.25v.26c-.02.68-.11,1.41-.22,2.14-.11.73-.26,1.47-.44,2.21-.09.37-.18.74-.28,1.11-.1.36-.2.75-.31,1.08v.04c-.24.76.19,1.57.95,1.79.7.21,1.43-.14,1.73-.79.18-.4.34-.77.5-1.15.16-.38.31-.76.46-1.15.3-.77.57-1.56.81-2.37.24-.81.46-1.64.6-2.53l.06-.33c.02-.11.03-.23.04-.35l.04-.35c.01-.11.02-.23.03-.36,0-.25.02-.49.02-.75-.02-.27-.04-.54-.06-.81-.1-1.15-1.12-1.99-2.26-1.87-1.15.11-1.99,1.13-1.89,2.28,0,.07.02.14.03.21l.03.17Z"/>
        <path class="st13" d="M28.08,66.08c.03.14.06.28.1.42.03.16.04.33.07.5l.02.13v.14s.02.28.02.28v.28s0,.29,0,.29c0,.77-.07,1.59-.18,2.42-.1.83-.24,1.66-.41,2.5-.08.42-.17.84-.27,1.25-.09.41-.2.84-.3,1.23v.04c-.24.86.28,1.74,1.14,1.96.79.2,1.6-.22,1.9-.95.19-.46.35-.87.51-1.31.16-.43.32-.87.47-1.3.3-.87.58-1.76.82-2.67.24-.91.46-1.84.6-2.84l.05-.37.04-.39.03-.39.02-.19v-.2c0-.28.02-.54.01-.83-.02-.3-.05-.59-.08-.89-.12-1.28-1.26-2.21-2.55-2.08-1.28.13-2.22,1.28-2.09,2.57,0,.08.02.17.04.25l.04.18Z"/>
        <path class="st13" d="M24.37,66.26c.17.45.3,1.03.38,1.64.08.61.11,1.27.12,1.93,0,.66-.02,1.34-.07,2.02-.02.34-.05.68-.09,1.02-.03.33-.08.69-.12,1v.05c-.11.79.44,1.51,1.23,1.61.71.09,1.38-.36,1.58-1.03.12-.39.21-.74.3-1.11.09-.36.18-.73.26-1.1.16-.73.31-1.48.41-2.24.1-.76.19-1.53.21-2.35.01-.81-.01-1.66-.2-2.59v-.07c-.24-1.13-1.34-1.85-2.47-1.62-1.13.24-1.86,1.35-1.63,2.48.02.11.06.23.1.33Z"/>
        <path class="st13" d="M21.45,67.36c.15.41.29.86.39,1.34.1.48.19.97.25,1.48.06.51.11,1.02.14,1.54.02.26.03.52.03.78,0,.26.01.53.01.76v.06c0,.69.56,1.25,1.25,1.24.62,0,1.13-.46,1.23-1.04.05-.31.1-.58.14-.87.04-.29.08-.57.11-.86.06-.57.11-1.15.14-1.73.02-.59.03-1.18,0-1.78-.03-.61-.1-1.23-.22-1.88v-.02c-.19-.98-1.14-1.62-2.12-1.43-.98.19-1.63,1.15-1.44,2.13.02.1.05.21.08.3Z"/>
        <path class="st9" d="M30.91,75.62s.04-.06.05-.09c.11-.29,2.75-7.27,1.86-11.14-.04-.19-.23-.3-.42-.26-.19.04-.3.23-.26.42.85,3.67-1.8,10.66-1.83,10.74-.07.18.02.38.2.45.14.05.3,0,.4-.11Z"/>
        <path class="st9" d="M27.57,75.09s.05-.08.07-.13c.07-.28,1.8-6.8.91-10.65-.04-.19-.23-.3-.42-.26-.19.04-.3.23-.26.42.85,3.69-.89,10.25-.9,10.31-.05.19.06.38.25.43.14.04.28-.02.36-.12Z"/>
        <path class="st9" d="M24.82,74.25s.07-.11.07-.18c.02-.21.58-5.1-.3-8.93-.04-.19-.23-.3-.42-.26-.19.04-.3.23-.26.42.85,3.71.29,8.64.29,8.69-.02.19.11.36.31.38.12.01.24-.04.31-.13Z"/>
      </g>
      <rect class="st14" x="8.69" y="79.44" width="29.61" height=".88"/>
      <rect class="st14" x="8.69" y="83.5" width="29.61" height=".88"/>
      <rect class="st14" x="8.69" y="87.38" width="29.61" height=".88"/>
      <rect class="st14" x="8.69" y="90.62" width="29.61" height=".88"/>
      <rect class="st14" x="8.69" y="94.68" width="29.61" height=".88"/>
      <rect class="st14" x="8.69" y="98.56" width="29.61" height=".88"/>
      <rect class="st14" x="8.69" y="102.45" width="29.61" height=".88"/>
      <rect class="st14" x="8.69" y="106.51" width="29.61" height=".88"/>
      <rect class="st14" x="8.69" y="110.39" width="29.61" height=".88"/>
      <path class="st6" d="M33.27,121.8c-2.43,0-4.41-1.98-4.41-4.41s1.98-4.41,4.41-4.41,4.41,1.98,4.41,4.41-1.98,4.41-4.41,4.41ZM33.27,113.85c-1.95,0-3.53,1.58-3.53,3.53s1.58,3.53,3.53,3.53,3.53-1.58,3.53-3.53-1.58-3.53-3.53-3.53Z"/>
    </g>
  </g>
</svg>