<?xml version="1.0" encoding="UTF-8"?>
<svg id="_圖層_1" data-name="圖層_1" xmlns="http://www.w3.org/2000/svg" xmlns:xlink="http://www.w3.org/1999/xlink" version="1.1" viewBox="0 0 105.34 105.35">
  <!-- Generator: Adobe Illustrator 29.6.1, SVG Export Plug-In . SVG Version: 2.1.1 Build 9)  -->
  <defs>
    <style>
      .st0 {
        fill: none;
      }

      .st1 {
        isolation: isolate;
      }

      .st2 {
        fill: #ed781e;
      }

      .st3 {
        clip-path: url(#clippath-1);
      }

      .st4 {
        fill: url(#_未命名漸層_5);
      }

      .st5 {
        clip-path: url(#clippath);
      }
    </style>
    <clipPath id="clippath">
      <rect class="st0" x="-823.02" y="-219.41" width="1920" height="233.66"/>
    </clipPath>
    <linearGradient id="_未命名漸層_5" data-name="未命名漸層 5" x1="6025.48" y1="13769.59" x2="7589.67" y2="13769.59" gradientTransform="translate(-5894.54 14189.74) rotate(-132.77)" gradientUnits="userSpaceOnUse">
      <stop offset=".2" stop-color="#fff" stop-opacity="0"/>
      <stop offset=".23" stop-color="#fff" stop-opacity=".06"/>
      <stop offset=".43" stop-color="#fff" stop-opacity=".39"/>
      <stop offset=".61" stop-color="#fff" stop-opacity=".65"/>
      <stop offset=".75" stop-color="#fff" stop-opacity=".84"/>
      <stop offset=".86" stop-color="#fff" stop-opacity=".96"/>
      <stop offset=".92" stop-color="#fff"/>
    </linearGradient>
    <clipPath id="clippath-1">
      <polygon class="st0" points="15.26 74.06 15.51 -11.82 90.16 31.29 89.92 117.16 15.26 74.06"/>
    </clipPath>
  </defs>
  <g class="st5">
    <path class="st4" d="M-111.68,78.08C-72.71,33.76-10.75-68.38-91.46-160.64c-55.1-62.99-99.07-41.9-148.45-40.54-50.97,1.41-79.44-62.31-29.1-97.62C-126.93-390.83,144.92-132.67-111.68,78.08ZM-378.28-218.45c-77.12,84.69-117.31,276.98,88.29,499.26h0s189.92,205.32,189.92,205.32c25.56,27.64,68.69,29.32,96.32,3.75C23.89,464.32,25.57,421.2,0,393.56L-253.96,118.99h0s-75.22-75.87-98.15-172.94c-14.5-61.37-16.43-130.26,25.65-211.72-16.19,11.16-35.97,29.82-51.81,47.22ZM-454.67-238.53c-65.41,70.35-92.79,228.45,29.02,365.84-87.32-187.94-12.59-368.37,128.56-436.68-42.93-2.51-111.48,21.25-157.59,70.85ZM-665.49-12.1c-14.24,14.98-13.75,46.3,17.97,53.09,14.84,2.36,26.85-4.34,38.04-7.49,66.91-18.83,99.99,2.13,134.26,46.4-65.81-133.61-163.91-119.11-190.27-92ZM-137.77,187.58C-34.26,166.4,48.79,32.61,22.5-99.23,9.91,29.49-72.95,107.91-147.53,119.23c-54.04,8.2-42.75,79.09,9.76,68.35Z"/>
  </g>
  <g class="st1">
    <g class="st3">
      <path class="st2" d="M38.03,78.24c-3.54-4.05-6.56-8.39-9.32-13.32,2.24.34,4.39.66,6.54.98.93,4.13,1.83,8.13,2.79,12.34M67.16,95.06c.96-3.07,1.88-6.03,2.84-9.1,2.14,2.15,4.28,4.3,6.52,6.56-2.77,1.72-5.8,2.56-9.36,2.54M54.81,91.94l.05-17.54c3.63,2.23,7.19,4.81,10.82,7.83-.3,1.13-.52,2.28-.88,3.3-.99,2.78-2.03,5.53-3.07,8.26-.1.24-.35.46-.59.38-2.06-.69-4.13-1.45-6.32-2.23M50.36,89.25c-1.42-1.05-2.79-2.15-4.17-3.07-1.88-1.25-2.95-2.85-3.46-5.32-.91-4.34-2.03-8.74-3.05-13.11-.04-.18-.04-.34-.06-.57,3.55,1.13,7.12,2.67,10.78,4.64-.02,5.8-.03,11.51-.05,17.42M66.63,77.64c-3.95-2.85-7.86-5.67-11.77-8.5l.04-12.62,13.05,7.53c-.1,4.8-.56,9.34-1.31,13.59M38.66,61.48c-.75-5.05-1.15-10.1-1.25-15.07l13.06,7.54-.04,12.63c-3.92-1.71-7.82-3.39-11.78-5.11M79.48,90.15c-2.89-2.92-5.71-5.79-8.44-8.56.49-4.95.99-9.91,1.49-14.91l13.04,7.53c-.46,6.93-2.5,12.23-6.09,15.94M25.78,59.15c-3.57-7.81-5.56-15.45-5.98-22.91l13.04,7.53c.47,5.58.94,11.1,1.4,16.59-2.72-.39-5.54-.79-8.46-1.21M54.93,51.39l.04-12.64c3.9,1.69,7.79,3.37,11.76,5.1.73,5.05,1.15,10.11,1.24,15.07l-13.04-7.53M37.25,41.17c.45-4.6.9-9.14,1.33-13.6,4.08,2.94,7.96,5.75,11.91,8.6l-.04,12.62-13.2-7.62M19.81,31.1c.45-6.91,2.48-12.2,6.08-15.93,2.9,2.94,5.7,5.78,8.44,8.56-.49,4.91-.99,9.87-1.49,14.9l-13.04-7.53M72.54,61.55c-.47-5.56-.93-11.06-1.4-16.58,2.77.39,5.58.8,8.46,1.2,3.56,7.82,5.55,15.46,5.98,22.9l-13.04-7.53M35.37,19.35c-2.12-2.13-4.26-4.27-6.53-6.55,2.8-1.71,5.82-2.58,9.37-2.53-.96,3.06-1.88,6.01-2.84,9.07M70.14,39.44c-.94-4.17-1.84-8.17-2.79-12.34,3.54,4.03,6.54,8.37,9.32,13.3-2.22-.33-4.36-.64-6.53-.96M50.51,31.13c-3.63-2.63-7.18-5.2-10.86-7.86.34-1.3.56-2.45.92-3.47.99-2.78,2.04-5.53,3.07-8.26.08-.22.25-.48.44-.44,2.1.54,4.24,1.33,6.47,2.49l-.05,17.53M54.97,33.5l.05-17.42c1.41,1.05,2.78,2.15,4.17,3.07,1.88,1.26,2.94,2.86,3.46,5.32.9,4.34,2.02,8.74,3.05,13.1.04.18.04.34.06.57-3.55-1.11-7.12-2.67-10.78-4.63M53.45,10.09c-.73-.42-1.47-.82-2.21-1.2-14.02-7.1-24.56-5.53-31.46,4.6-3.32,4.87-4.79,11.45-4.4,19.43.82,16.65,7.45,32.59,19.72,47.57,4.55,5.56,9.5,9.96,14.72,13.38.19.13.38.31.56.46l4.38,2.53c1.44.61,2.89,1.31,4.32,1.82,11.83,4.22,20.68,1.92,26.53-6.83,2.54-3.79,3.93-8.68,4.31-14.45.01-.24.08-.44.12-.66v-5.03c-.17-1.76-.29-3.5-.56-5.3-2.23-14.9-8.63-28.78-19.16-41.53-5.26-6.38-10.93-11.37-16.87-14.79"/>
    </g>
  </g>
</svg>