<?xml version="1.0" encoding="UTF-8"?>
<svg id="_圖層_1" xmlns="http://www.w3.org/2000/svg" version="1.1" viewBox="0 0 24.09 899.98">
  <!-- Generator: Adobe Illustrator 29.6.1, SVG Export Plug-In . SVG Version: 2.1.1 Build 9)  -->
  <defs>
    <style>
      .st0 {
        fill: #fff;
      }
    </style>
  </defs>
  <path class="st0" d="M20.27,797.5c.22,1.43.41,3.52.41,6.79,0,2.78-.55,4.73-1.49,6.02-.91,1.29-2.56,2.26-4.57,2.26-1.79,0-3.47-.61-4.51-1.82-1.4-1.6-2.04-3.85-2.04-6.71,0-.58.06-1.07.08-1.4H1.98v-5.14h18.29ZM12.1,802.64c-.05.3-.08.69-.08,1.35,0,2.01.91,3.44,2.59,3.44,1.35,0,2.23-1.02,2.23-3.08,0-.88-.06-1.43-.11-1.71h-4.63ZM2.53,839.31c-.38-.77-.88-2.75-.88-5.28,0-7.51,4.32-10.87,9.3-10.87,6.44,0,9.9,5.06,9.9,11.14,0,2.39-.44,4.4-.94,5.31l-4.02-1.07c.39-.94.77-2.31.77-4.04,0-3.11-1.68-5.86-5.36-5.86-3.19,0-5.42,2.17-5.42,6,0,1.43.27,3,.63,3.88l-3.99.8h.01ZM20.52,842.26v5.14h-7.78v.06c.66.41,1.29.88,1.9,1.32l5.89,4.07v6.57l-7.81-6.52-10.73,6.82v-6.13l7.65-4.46-2.06-1.73H1.98v-5.14h18.54ZM8.88,878.63c2.31-.06,4.87-.08,8.09-.08v-.08c-2.64-.66-5.56-1.54-7.89-2.26l-6.71-2.01v-4.15l6.68-1.65c2.28-.55,5.17-1.16,7.92-1.65v-.06c-2.83-.11-5.78-.19-8.09-.27l-6.9-.27v-4.9l18.54,1.05v7.43l-4.68,1.24c-1.98.52-4.54,1.1-6.88,1.51v.11c2.34.61,5.09,1.29,6.93,1.87l4.62,1.46v7.23l-18.54.85v-5.17l6.9-.19h0ZM9.32,899.98v-7.54h-3.16v8.42H1.98v-13.62h18.54v13.2h-4.18v-8h-2.83v7.54h-4.19ZM1.98,821.25s10.82-1.7,13.07-1.9c0,0,3.78.06,4.71,2.05.93,1.99,1.86-.66.14-2.37,0,0,2.7-1.46.79-1.88,0,0,1.31-1.33-.6-1.36,0,0,.77-1.21-.8-1.04,0,0,.25-.85-1.15-.71-.88.09-2.56.05-3.61,1.51s-12.54-.25-12.54-.25v5.94h0Z"/>
  <path class="st0" d="M20.27,638.89c.22,1.43.41,3.52.41,6.79,0,2.78-.55,4.73-1.49,6.02-.91,1.29-2.56,2.26-4.57,2.26-1.79,0-3.47-.61-4.51-1.82-1.4-1.6-2.04-3.85-2.04-6.71,0-.58.06-1.07.08-1.4H1.98v-5.14h18.29ZM12.1,644.03c-.05.3-.08.69-.08,1.35,0,2.01.91,3.44,2.59,3.44,1.35,0,2.23-1.02,2.23-3.08,0-.88-.06-1.43-.11-1.71h-4.63ZM2.53,680.7c-.38-.77-.88-2.75-.88-5.28,0-7.51,4.32-10.87,9.3-10.87,6.44,0,9.9,5.06,9.9,11.14,0,2.39-.44,4.4-.94,5.31l-4.02-1.07c.39-.94.77-2.31.77-4.04,0-3.11-1.68-5.86-5.36-5.86-3.19,0-5.42,2.17-5.42,6,0,1.43.27,3,.63,3.88l-3.99.8h.01ZM20.52,683.65v5.14h-7.78v.06c.66.41,1.29.88,1.9,1.32l5.89,4.07v6.57l-7.81-6.52-10.73,6.82v-6.13l7.65-4.46-2.06-1.73H1.98v-5.14h18.54ZM8.88,720.01c2.31-.06,4.87-.08,8.09-.08v-.08c-2.64-.66-5.56-1.54-7.89-2.26l-6.71-2.01v-4.15l6.68-1.65c2.28-.55,5.17-1.16,7.92-1.65v-.06c-2.83-.11-5.78-.19-8.09-.27l-6.9-.27v-4.9l18.54,1.05v7.43l-4.68,1.24c-1.98.52-4.54,1.1-6.88,1.51v.11c2.34.61,5.09,1.29,6.93,1.87l4.62,1.46v7.23l-18.54.85v-5.17l6.9-.19h0ZM9.32,741.36v-7.54h-3.16v8.42H1.98v-13.62h18.54v13.2h-4.18v-8h-2.83v7.54h-4.19ZM1.98,662.63s10.82-1.7,13.07-1.9c0,0,3.78.06,4.71,2.05.93,1.99,1.86-.66.14-2.37,0,0,2.7-1.46.79-1.88,0,0,1.31-1.33-.6-1.36,0,0,.77-1.21-.8-1.04,0,0,.25-.85-1.15-.71-.88.09-2.56.05-3.61,1.51s-12.54-.25-12.54-.25v5.94h0Z"/>
  <path class="st0" d="M20.27,480.28c.22,1.43.41,3.52.41,6.79,0,2.78-.55,4.73-1.49,6.02-.91,1.29-2.56,2.26-4.57,2.26-1.79,0-3.47-.61-4.51-1.82-1.4-1.6-2.04-3.85-2.04-6.71,0-.58.06-1.07.08-1.4H1.98v-5.14h18.29ZM12.1,485.42c-.05.3-.08.69-.08,1.35,0,2.01.91,3.44,2.59,3.44,1.35,0,2.23-1.02,2.23-3.08,0-.88-.06-1.43-.11-1.71h-4.63ZM2.53,522.09c-.38-.77-.88-2.75-.88-5.28,0-7.51,4.32-10.87,9.3-10.87,6.44,0,9.9,5.06,9.9,11.14,0,2.39-.44,4.4-.94,5.31l-4.02-1.07c.39-.94.77-2.31.77-4.04,0-3.11-1.68-5.86-5.36-5.86-3.19,0-5.42,2.17-5.42,6,0,1.43.27,3,.63,3.88l-3.99.8h.01ZM20.52,525.04v5.14h-7.78v.06c.66.41,1.29.88,1.9,1.32l5.89,4.07v6.57l-7.81-6.52-10.73,6.82v-6.13l7.65-4.46-2.06-1.73H1.98v-5.14h18.54ZM8.88,561.4c2.31-.06,4.87-.08,8.09-.08v-.08c-2.64-.66-5.56-1.54-7.89-2.26l-6.71-2.01v-4.15l6.68-1.65c2.28-.55,5.17-1.16,7.92-1.65v-.06c-2.83-.11-5.78-.19-8.09-.27l-6.9-.27v-4.9l18.54,1.05v7.43l-4.68,1.24c-1.98.52-4.54,1.1-6.88,1.51v.11c2.34.61,5.09,1.29,6.93,1.87l4.62,1.46v7.23l-18.54.85v-5.17l6.9-.19h0ZM9.32,582.75v-7.54h-3.16v8.42H1.98v-13.62h18.54v13.2h-4.18v-8h-2.83v7.54h-4.19ZM1.98,504.02s10.82-1.7,13.07-1.9c0,0,3.78.06,4.71,2.05.93,1.99,1.86-.66.14-2.37,0,0,2.7-1.46.79-1.88,0,0,1.31-1.33-.6-1.36,0,0,.77-1.21-.8-1.04,0,0,.25-.85-1.15-.71-.88.09-2.56.05-3.61,1.51-1.05,1.46-12.54-.25-12.54-.25v5.94h0Z"/>
  <path class="st0" d="M20.27,317.22c.22,1.43.41,3.52.41,6.79,0,2.78-.55,4.73-1.49,6.02-.91,1.29-2.56,2.26-4.57,2.26-1.79,0-3.47-.61-4.51-1.82-1.4-1.6-2.04-3.85-2.04-6.71,0-.58.06-1.07.08-1.4H1.98v-5.14h18.29ZM12.1,322.37c-.05.3-.08.69-.08,1.35,0,2.01.91,3.44,2.59,3.44,1.35,0,2.23-1.02,2.23-3.08,0-.88-.06-1.43-.11-1.71h-4.63ZM2.53,359.04c-.38-.77-.88-2.75-.88-5.28,0-7.51,4.32-10.87,9.3-10.87,6.44,0,9.9,5.06,9.9,11.14,0,2.39-.44,4.4-.94,5.31l-4.02-1.07c.39-.94.77-2.31.77-4.04,0-3.11-1.68-5.86-5.36-5.86-3.19,0-5.42,2.17-5.42,6,0,1.43.27,3,.63,3.88l-3.99.8h.01ZM20.52,361.98v5.14h-7.78v.06c.66.41,1.29.88,1.9,1.32l5.89,4.07v6.57l-7.81-6.52-10.73,6.82v-6.13l7.65-4.46-2.06-1.73H1.98v-5.14h18.54ZM8.88,398.35c2.31-.06,4.87-.08,8.09-.08v-.08c-2.64-.66-5.56-1.54-7.89-2.26l-6.71-2.01v-4.15l6.68-1.65c2.28-.55,5.17-1.16,7.92-1.65v-.06c-2.83-.11-5.78-.19-8.09-.27l-6.9-.27v-4.9l18.54,1.05v7.43l-4.68,1.24c-1.98.52-4.54,1.1-6.88,1.51v.11c2.34.61,5.09,1.29,6.93,1.87l4.62,1.46v7.23l-18.54.85v-5.17l6.9-.19h0ZM9.32,419.7v-7.54h-3.16v8.42H1.98v-13.62h18.54v13.2h-4.18v-8h-2.83v7.54h-4.19ZM1.98,340.97s10.82-1.7,13.07-1.9c0,0,3.78.06,4.71,2.05.93,1.99,1.86-.66.14-2.37,0,0,2.7-1.46.79-1.88,0,0,1.31-1.33-.6-1.36,0,0,.77-1.21-.8-1.04,0,0,.25-.85-1.15-.71-.88.09-2.56.05-3.61,1.51-1.05,1.46-12.54-.25-12.54-.25v5.94h0Z"/>
  <path class="st0" d="M20.27,158.61c.22,1.43.41,3.52.41,6.79,0,2.78-.55,4.73-1.49,6.02-.91,1.29-2.56,2.26-4.57,2.26-1.79,0-3.47-.61-4.51-1.82-1.4-1.6-2.04-3.85-2.04-6.71,0-.58.06-1.07.08-1.4H1.98v-5.14h18.29ZM12.1,163.76c-.05.3-.08.69-.08,1.35,0,2.01.91,3.44,2.59,3.44,1.35,0,2.23-1.02,2.23-3.08,0-.88-.06-1.43-.11-1.71h-4.63ZM2.53,200.43c-.38-.77-.88-2.75-.88-5.28,0-7.51,4.32-10.87,9.3-10.87,6.44,0,9.9,5.06,9.9,11.14,0,2.39-.44,4.4-.94,5.31l-4.02-1.07c.39-.94.77-2.31.77-4.04,0-3.11-1.68-5.86-5.36-5.86-3.19,0-5.42,2.17-5.42,6,0,1.43.27,3,.63,3.88l-3.99.8h.01ZM20.52,203.37v5.14h-7.78v.06c.66.41,1.29.88,1.9,1.32l5.89,4.07v6.57l-7.81-6.52-10.73,6.82v-6.13l7.65-4.46-2.06-1.73H1.98v-5.14h18.54ZM8.88,239.74c2.31-.06,4.87-.08,8.09-.08v-.08c-2.64-.66-5.56-1.54-7.89-2.26l-6.71-2.01v-4.15l6.68-1.65c2.28-.55,5.17-1.16,7.92-1.65v-.06c-2.83-.11-5.78-.19-8.09-.27l-6.9-.27v-4.9l18.54,1.05v7.43l-4.68,1.24c-1.98.52-4.54,1.1-6.88,1.51v.11c2.34.61,5.09,1.29,6.93,1.87l4.62,1.46v7.23l-18.54.85v-5.17l6.9-.19h0ZM9.32,261.09v-7.54h-3.16v8.42H1.98v-13.62h18.54v13.2h-4.18v-8h-2.83v7.54h-4.19ZM1.98,182.36s10.82-1.7,13.07-1.9c0,0,3.78.06,4.71,2.05.93,1.99,1.86-.66.14-2.37,0,0,2.7-1.46.79-1.88,0,0,1.31-1.33-.6-1.36,0,0,.77-1.21-.8-1.04,0,0,.25-.85-1.15-.71-.88.09-2.56.05-3.61,1.51-1.05,1.46-12.54-.25-12.54-.25v5.94h0Z"/>
  <path class="st0" d="M20.27,0c.22,1.43.41,3.52.41,6.79,0,2.78-.55,4.73-1.49,6.02-.91,1.29-2.56,2.26-4.57,2.26-1.79,0-3.47-.61-4.51-1.82-1.4-1.6-2.04-3.85-2.04-6.71,0-.58.06-1.07.08-1.4H1.98V0h18.29ZM12.1,5.14c-.05.3-.08.69-.08,1.35,0,2.01.91,3.44,2.59,3.44,1.35,0,2.23-1.02,2.23-3.08,0-.88-.06-1.43-.11-1.71h-4.63ZM2.53,41.81c-.38-.77-.88-2.75-.88-5.28,0-7.51,4.32-10.87,9.3-10.87,6.44,0,9.9,5.06,9.9,11.14,0,2.39-.44,4.4-.94,5.31l-4.02-1.07c.39-.94.77-2.31.77-4.04,0-3.11-1.68-5.86-5.36-5.86-3.19,0-5.42,2.17-5.42,6,0,1.43.27,3,.63,3.88l-3.99.8h.01ZM20.52,44.76v5.14h-7.78v.06c.66.41,1.29.88,1.9,1.32l5.89,4.07v6.57l-7.81-6.52-10.73,6.82v-6.13l7.65-4.46-2.06-1.73H1.98v-5.14h18.54ZM8.88,81.13c2.31-.06,4.87-.08,8.09-.08v-.08c-2.64-.66-5.56-1.54-7.89-2.26l-6.71-2.01v-4.15l6.68-1.65c2.28-.55,5.17-1.16,7.92-1.65v-.06c-2.83-.11-5.78-.19-8.09-.27l-6.9-.27v-4.9l18.54,1.05v7.43l-4.68,1.24c-1.98.52-4.54,1.1-6.88,1.51v.11c2.34.61,5.09,1.29,6.93,1.87l4.62,1.46v7.23l-18.54.85v-5.17l6.9-.19h0ZM9.32,102.48v-7.54h-3.16v8.42H1.98v-13.62h18.54v13.2h-4.18v-8h-2.83v7.54h-4.19ZM1.98,23.75s10.82-1.7,13.07-1.9c0,0,3.78.06,4.71,2.05.93,1.99,1.86-.66.14-2.37,0,0,2.7-1.46.79-1.88,0,0,1.31-1.33-.6-1.36,0,0,.77-1.21-.8-1.04,0,0,.25-.85-1.15-.71-.88.09-2.56.05-3.61,1.51s-12.54-.25-12.54-.25v5.94h0Z"/>
</svg>