<?xml version="1.0" encoding="UTF-8"?>
<svg id="_圖層_1" data-name="圖層_1" xmlns="http://www.w3.org/2000/svg" xmlns:xlink="http://www.w3.org/1999/xlink" version="1.1" viewBox="0 0 95.87 108.38">
  <!-- Generator: Adobe Illustrator 29.6.1, SVG Export Plug-In . SVG Version: 2.1.1 Build 9)  -->
  <defs>
    <style>
      .st0 {
        fill: none;
      }

      .st1 {
        isolation: isolate;
      }

      .st2 {
        fill: #ed781e;
      }

      .st3 {
        clip-path: url(#clippath-1);
      }
    </style>
    <clipPath id="clippath-1">
      <polygon class="st0" points="13.82 67.4 14.04 -10.77 82.05 28.49 81.83 106.67 13.82 67.4"/>
    </clipPath>
  </defs>
  <g class="st1">
    <g class="st3">
      <g>
        <path class="st2" d="M53.74,12.15c-1.89-1.09-3.43-.94-4.59.22-.53.53-.91,1.28-1.25,2.05-1.2,2.79-2.39,5.59-3.5,8.46-.95,2.46-2.5,4.11-4.33,5.42-2.24,1.59-4.8,2.6-7.45,3.42-.35.11-.5.33-.5.85-.03,13.46-.06,26.92-.11,40.38,0,.51.08.84.57,1.31,5.67,5.45,11.48,10.14,17.46,13.93.2.13.38.31.57.46,6.69,3.86,13.38,7.72,20.06,11.58,1.24.33,2.43.54,3.45.17,2.62-.98,3.37-4.56,1.84-8.93-.07-.2-.13-.39-.2-.58,4.27-.27,4.81-5.46,2.72-10.31.2-.05.41-.1.61-.17,1.44-.45,2.34-1.61,2.68-3.47.05-.22.1-.43.14-.65v-1.37c-.29-1.22-.44-2.47-.92-3.67-.62-1.52-1.5-3.02-2.27-4.52h-.19c.2-.32.42-.63.6-.99,2.07-4.28-1.45-12.17-6.58-15.13-.04-.02-.07-.04-.11-.06-1.63-.92-3.26-1.85-4.9-2.8-2.9-1.68-5.81-3.38-8.71-5.05l-.87-.51c.24-1.24.49-2.39.69-3.56.75-4.33,1.48-8.69,1.3-13.66-.06-1.58-.28-3.25-.62-4.94-.62-3.15-2.38-5.59-4.78-7.33-.28-.2-.55-.38-.82-.53"/>
        <path class="st2" d="M28.06,31.72l-.7-.4-10.95-6.32c-1.72-1-2.47-.58-2.48,1.41-.03,10.96-.06,21.93-.09,32.89,0,2.03.73,3.31,2.49,4.33,3.63,2.1,7.26,4.19,10.89,6.29.23.13.47.24.72.38.04-12.89.07-25.69.11-38.57"/>
      </g>
    </g>
  </g>
</svg>