<?xml version="1.0" encoding="UTF-8"?>
<svg id="_圖層_1" data-name="圖層_1" xmlns="http://www.w3.org/2000/svg" xmlns:xlink="http://www.w3.org/1999/xlink" version="1.1" viewBox="0 0 161.86 229.76">
  <!-- Generator: Adobe Illustrator 29.6.1, SVG Export Plug-In . SVG Version: 2.1.1 Build 9)  -->
  <defs>
    <style>
      .st0 {
        fill: url(#linear-gradient1);
      }

      .st1 {
        fill: #364688;
      }

      .st2 {
        fill: #303c7c;
      }

      .st3 {
        fill: url(#linear-gradient);
      }

      .st4 {
        isolation: isolate;
      }

      .st5 {
        fill: #ed781e;
      }
    </style>
    <linearGradient id="linear-gradient" x1="219.32" y1="253.68" x2="38.18" y2="119.98" gradientUnits="userSpaceOnUse">
      <stop offset="0" stop-color="#221e1f" stop-opacity="0"/>
      <stop offset=".86" stop-color="#120f10" stop-opacity=".14"/>
      <stop offset="1" stop-color="#000" stop-opacity=".3"/>
    </linearGradient>
    <linearGradient id="linear-gradient1" x1="40.71" y1="104.28" x2="40.71" y2="81.41" gradientUnits="userSpaceOnUse">
      <stop offset="0" stop-color="#303c7c"/>
      <stop offset="1" stop-color="#385d8a"/>
    </linearGradient>
  </defs>
  <polygon class="st3" points="70.53 122.96 193.85 186.82 160.32 229.76 9.04 146.53 44.1 120.09 70.53 122.96"/>
  <g>
    <g class="st4">
      <path class="st2" d="M81.68,84.36c0,.1,0,.21-.02.31,0,.09-.01.18-.02.27,0,.1-.02.21-.03.31,0,.09-.02.18-.03.26-.01.1-.03.21-.04.31-.01.09-.02.17-.04.26-.02.11-.04.21-.06.31-.02.09-.03.17-.05.26-.02.1-.05.21-.07.31-.02.09-.04.17-.06.26-.03.1-.05.21-.08.31-.02.08-.04.17-.07.25-.03.11-.06.21-.1.32-.03.08-.05.16-.08.25-.04.11-.08.22-.12.33-.03.08-.05.15-.08.23-.06.16-.13.33-.19.49-.01.03-.02.05-.03.08-.08.19-.16.38-.25.57-.03.06-.06.11-.08.17-.06.13-.13.26-.19.39-.04.07-.08.14-.11.21-.06.11-.12.23-.19.34-.04.07-.08.13-.12.2-.07.13-.15.26-.23.38-.05.08-.09.15-.14.22-.08.12-.15.24-.23.36-.05.08-.1.15-.16.23-.08.12-.16.23-.25.35-.05.08-.11.15-.16.23-.09.12-.18.24-.27.36-.05.07-.1.14-.16.2-.17.21-.33.42-.51.62-.03.03-.06.07-.09.1-.15.17-.3.35-.46.52-.06.06-.12.13-.18.19-.14.15-.29.31-.44.46-.05.05-.1.11-.16.16-.2.2-.41.4-.62.6-.08.07-.16.15-.24.22-.1.09-.2.18-.31.27-.09.08-.18.15-.26.22-.1.09-.21.18-.31.27-.09.07-.18.15-.28.22-.11.09-.21.17-.32.26-.09.07-.19.15-.29.22-.11.08-.22.17-.33.25-.1.07-.2.15-.3.22-.11.08-.23.17-.35.25-.1.07-.21.15-.31.22-.12.08-.24.16-.36.24-.11.07-.22.14-.33.22-.12.08-.24.16-.37.24-.11.07-.23.14-.34.21-.12.08-.25.16-.38.23-.2.12-.4.24-.61.36-.44.26-.89.5-1.35.75-.12.06-.24.13-.36.19-.41.21-.83.42-1.25.62-.06.03-.11.05-.16.08-.47.22-.95.44-1.43.65-.12.05-.25.11-.37.16-.41.17-.83.34-1.25.51-.09.04-.18.07-.27.11-.5.19-1,.37-1.51.55-.12.04-.25.08-.37.13-.34.12-.69.23-1.04.34-.33.1-.66.2-.99.3-.28.08-.56.16-.84.24-.34.09-.68.18-1.02.27-.28.07-.57.15-.86.22-.35.08-.69.16-1.04.24-.29.06-.57.13-.86.19-.35.07-.71.14-1.07.21-.32.06-.63.12-.95.18-.14.03-.29.05-.43.07-.49.08-.98.16-1.47.23-.08.01-.17.03-.25.04-.56.08-1.12.15-1.69.21-.14.02-.28.03-.43.05-.35.04-.7.07-1.05.1-.44.04-.87.08-1.31.11-.28.02-.55.04-.83.06-.46.03-.91.05-1.37.07-.26.01-.52.02-.77.03-.4.01-.79.02-1.19.02-.28,0-.56.01-.83.01-.42,0-.85,0-1.27-.01-.25,0-.5,0-.75-.01-.39-.01-.78-.03-1.16-.05-.27-.01-.55-.02-.82-.03-.42-.02-.84-.05-1.26-.09-.24-.02-.48-.03-.72-.05-.51-.04-1.01-.09-1.51-.15-.15-.02-.3-.03-.45-.04-.65-.07-1.3-.16-1.95-.25-.1-.01-.21-.03-.31-.05-.56-.08-1.11-.17-1.66-.26-.23-.04-.46-.09-.69-.13-.42-.08-.84-.15-1.26-.24-.22-.04-.44-.1-.65-.14-.46-.1-.92-.2-1.37-.31-.25-.06-.5-.13-.76-.19-.41-.11-.83-.21-1.24-.33-.35-.1-.7-.2-1.05-.3-.13-.04-.26-.08-.39-.12-.52-.16-1.04-.33-1.56-.5-.1-.03-.2-.07-.3-.1-.43-.15-.85-.3-1.27-.46-.14-.05-.29-.11-.43-.16-.33-.13-.66-.26-.99-.4-.23-.09-.45-.19-.68-.28-.32-.14-.63-.28-.95-.42-.21-.09-.42-.19-.62-.28-.34-.16-.68-.33-1.01-.5-.17-.09-.34-.17-.51-.25-.5-.26-.99-.53-1.47-.81C4.13,95.85.12,89.76.14,83.67L0,131.5c-.02,6.08,4,12.18,12.04,16.82.48.28.97.55,1.47.81.17.09.34.17.51.25.34.17.67.34,1.01.5.2.1.41.19.62.28.31.14.63.29.94.42.22.1.45.19.68.28.22.09.43.18.65.27.11.04.23.09.34.13.14.05.28.11.43.16.42.16.84.31,1.27.46.1.03.2.07.3.1.51.17,1.03.34,1.56.5.13.04.26.08.39.12.22.07.45.14.67.2.12.04.25.06.38.1.41.11.82.22,1.24.33.25.06.5.13.75.19.45.11.91.21,1.37.31.17.04.34.08.51.12.05,0,.09.02.14.03.42.09.84.16,1.26.24.23.04.46.09.69.13.55.1,1.11.18,1.67.26.1.01.19.03.29.05,0,0,0,0,.01,0,.65.09,1.3.17,1.95.25.15.02.3.03.45.04.5.05,1.01.11,1.52.15.01,0,.03,0,.04,0,.22.02.45.03.68.05.42.03.84.06,1.26.09.27.01.54.02.81.03.39.02.78.04,1.18.05.03,0,.06,0,.1,0,.22,0,.44,0,.65,0,.43,0,.85.01,1.28.01.28,0,.56,0,.83-.01.4,0,.79-.01,1.19-.02.07,0,.15,0,.22,0,.19,0,.37-.02.55-.03.46-.02.91-.04,1.37-.07.28-.02.55-.04.83-.06.44-.03.88-.07,1.31-.11.15-.01.31-.02.46-.04.2-.02.39-.04.59-.06.14-.02.28-.03.43-.05.57-.06,1.13-.14,1.69-.21.08-.01.16-.02.25-.04.49-.07.98-.15,1.47-.23.14-.02.29-.05.43-.07.11-.02.23-.04.35-.06.2-.04.4-.08.61-.12.36-.07.71-.14,1.07-.21.29-.06.58-.12.86-.19.35-.08.7-.16,1.04-.24.29-.07.57-.14.86-.22.34-.09.68-.18,1.02-.27.28-.08.56-.16.84-.24.33-.1.66-.2.99-.3.14-.05.29-.09.43-.13.2-.07.4-.14.6-.2.12-.04.25-.08.37-.12.51-.18,1.01-.36,1.51-.55.09-.04.18-.07.27-.11.42-.16.84-.33,1.25-.51.12-.05.25-.1.37-.16.48-.21.96-.42,1.43-.65.06-.03.11-.05.16-.08.42-.2.84-.41,1.25-.62.12-.06.24-.13.36-.19.46-.24.91-.49,1.35-.75.17-.1.33-.2.5-.29.04-.02.07-.05.11-.07.13-.08.25-.16.38-.23.11-.07.23-.14.34-.21.12-.08.25-.16.37-.24.11-.07.22-.14.33-.22.12-.08.24-.16.35-.24.11-.07.21-.15.32-.22.12-.08.23-.16.34-.25.1-.07.2-.15.3-.22.11-.08.22-.17.33-.25.1-.07.19-.15.29-.22.11-.09.22-.17.32-.26.09-.07.19-.15.28-.22.11-.09.21-.18.31-.27.09-.07.18-.15.26-.22.1-.09.2-.18.31-.27.07-.07.15-.13.22-.2,0,0,.02-.02.02-.02.21-.2.42-.4.62-.6.05-.05.11-.11.16-.16.15-.15.3-.31.45-.46.06-.06.12-.12.17-.19.16-.17.31-.34.46-.52.03-.03.06-.07.09-.1.18-.21.35-.41.51-.62.01-.02.03-.03.04-.05.04-.05.08-.1.11-.15.09-.12.18-.24.27-.36.06-.08.11-.15.16-.23.08-.12.16-.23.24-.35.05-.08.11-.15.16-.23.08-.12.15-.24.23-.35.05-.07.1-.15.14-.22.08-.13.15-.26.23-.38.03-.05.06-.1.09-.16,0-.01.02-.03.02-.04.06-.11.12-.23.18-.34.04-.07.08-.14.12-.22.07-.13.13-.26.19-.4.03-.06.06-.11.08-.17.09-.19.17-.38.25-.57.01-.03.02-.06.04-.09.07-.16.13-.32.19-.47,0,0,0-.01,0-.02.03-.07.05-.14.08-.21.04-.11.08-.22.12-.33.03-.08.05-.16.08-.25.03-.11.07-.21.1-.32.02-.08.05-.17.07-.25.03-.1.06-.21.08-.31.02-.09.04-.17.06-.26.02-.1.05-.21.07-.31,0-.02,0-.04.01-.05.01-.07.02-.14.04-.2.02-.1.04-.21.06-.31.01-.09.03-.17.04-.26.01-.1.03-.21.04-.31.01-.09.02-.18.03-.27.01-.1.02-.21.03-.31,0-.09.01-.18.02-.27,0-.1.01-.21.02-.31,0-.03,0-.07,0-.1,0-.12,0-.24,0-.36l.14-47.83c0,.15,0,.3-.01.46Z"/>
    </g>
    <ellipse class="st1" cx="40.85" cy="83.67" rx="40.85" ry="24.4"/>
    <ellipse class="st0" cx="40.71" cy="83.67" rx="31.07" ry="18.63"/>
    <path class="st5" d="M34.44,83.67s-9.22-7.56-19.28-32.2c0,0,11.57,15.59,17.77,16.26,0,0,1.08-19.11-4.99-32.86,0,0,7.68,5.36,9.35,11.74,1.68,6.37-4.36-15.09-10.73-23.81,0,0,11.4,9.39,12.74,13.41,1.34,4.02,1.01-26.15-6.04-36.21,1.22,2.06,12.41,12.74,13.75,20.12,0,0,3.02-16.43,20.79-13.41,0,0-19.45,10.06-15.42,29.51,0,0,5.7-10.39,15.42-6.04-2.01,1.34-15.2,12.16-14.59,24.48,0,0,4.53-4.02,14.59-11.4,0,0-6.64,21.63-14.59,28,0,0,6.54-3.02,11.23-4.53,0,0-7.04,15.79-12.74,16.95h-17.27Z"/>
  </g>
</svg>