<?xml version="1.0" encoding="UTF-8"?>
<svg id="_圖層_1" data-name="圖層_1" xmlns="http://www.w3.org/2000/svg" xmlns:xlink="http://www.w3.org/1999/xlink" version="1.1" viewBox="0 0 308.21 347.81">
  <!-- Generator: Adobe Illustrator 29.6.1, SVG Export Plug-In . SVG Version: 2.1.1 Build 9)  -->
  <defs>
    <style>
  
      .st1 {
        fill: #00bdff;
      }

      .st2 {
        fill: #4a9dff;
      }

      .st3 {
        fill: #d80e0e;
      }

      .st5 {
        fill: #fec901;
      }

      .st6 {
        fill: #ff3e3e;
      }

      .st7 {
        fill: #fff;
      }

      .st8 {
        fill: #464666;
      }

      .st9 {
        fill: #29293d;
      }

      .st10 {
        fill: #f3f3ff;
      }

      .st11 {
        clip-path: url(#clippath);
      }
    </style>
    <clipPath id="clippath">
      <rect class="st0" x="-287.96" y="-628.57" width="1055.04" height="590.75"/>
    </clipPath>
  </defs>
  <g class="st11">
    <ellipse class="st1" cx="367.41" cy="-109.03" rx="591.33" ry="499.25"/>
  </g>
  <g>
    <g>
      <path class="st8" d="M83.03,332.15l76.98-130.93c2.57-4.37,8.2-5.83,12.57-3.26,4.37,2.57,5.83,8.2,3.26,12.57-.11.18-.23.38-.35.55l-86.08,125.14c-1.18,1.72-3.54,2.16-5.26.97-1.64-1.13-2.11-3.34-1.12-5.03Z"/>
      <path class="st9" d="M192.14,331.03l-13.88-137.07c-.51-5.05,3.16-9.55,8.21-10.06,5.05-.51,9.55,3.16,10.06,8.21.03.25.04.52.05.77l2.3,137.75c.03,1.86-1.45,3.4-3.32,3.43-1.76.03-3.24-1.31-3.41-3.04Z"/>
      <path class="st8" d="M269.13,335.73l-54.95-154.61c-1.7-4.78.8-10.03,5.57-11.72,4.78-1.7,10.03.8,11.72,5.57.07.18.13.39.18.58l44.67,157.88c.57,2.01-.6,4.1-2.61,4.67-1.92.54-3.93-.52-4.59-2.37Z"/>
      <path class="st9" d="M231.66,175.55c-.05-.18-.12-.39-.18-.58-1.7-4.78-6.95-7.27-11.72-5.57-4.78,1.7-7.27,6.95-5.57,11.72l29.87,84.05c3.69-2.51,7.26-5.22,10.66-8.13l-23.06-81.49Z"/>
      <path class="st9" d="M172.58,197.95c-4.37-2.57-10-1.11-12.57,3.26l-34.23,58.23c3.25,3.17,6.73,6.09,10.43,8.73l39.28-57.1c.12-.17.24-.37.35-.55,2.57-4.37,1.11-10-3.26-12.57Z"/>
      <g>
        <path class="st3" d="M269.55,226.53c-33.63,48.66-93.85,60.61-134.51,26.71-40.66-33.91-46.35-100.84-12.72-149.5,33.63-48.66,93.85-60.61,134.51-26.71,40.66,33.91,46.35,100.84,12.72,149.5Z"/>
        <path class="st6" d="M260.84,224.15c-33.25,48.1-92.79,59.93-132.98,26.4-40.2-33.52-45.83-99.69-12.58-147.8,33.25-48.1,92.79-59.93,132.98-26.4,40.2,33.52,45.83,99.69,12.58,147.8Z"/>
        <path class="st7" d="M245.56,213c-27.87,40.32-77.73,50.27-111.37,22.22-33.63-28.05-38.31-83.48-10.44-123.8,27.87-40.32,77.73-50.27,111.37-22.22,33.63,28.05,38.31,83.48,10.44,123.8Z"/>
        <path class="st6" d="M229.72,202.67c-22.6,32.7-62.83,40.95-89.84,18.42-27.01-22.53-30.59-67.3-7.99-100.01,22.6-32.7,62.83-40.95,89.84-18.42,27.01,22.53,30.59,67.3,7.99,100.01Z"/>
        <path class="st7" d="M210.57,186.45c-15.44,22.33-42.8,28.05-61.12,12.77-18.32-15.28-20.66-45.77-5.22-68.1,15.44-22.33,42.8-28.05,61.12-12.77,18.32,15.28,20.66,45.77,5.22,68.1Z"/>
        <path class="st6" d="M192.59,171.45c-7.07,10.23-19.6,12.85-27.99,5.85s-9.46-20.96-2.39-31.19c7.07-10.23,19.6-12.85,27.99-5.85,8.39,7,9.46,20.96,2.39,31.19Z"/>
      </g>
      <g>
        <path class="st6" d="M79.39,71.11c.31.4-1.63-16.13-2.18-20.82-.09-.79-.45-1.53-1.01-2.1L41.09,12.52c-.43-.44-1.18-.14-1.2.47l-.68,24.97,40.18,33.15Z"/>
        <path class="st6" d="M75.73,75.09c.43.22-14.76,1.3-20.19,1.68-1.23.09-2.45-.24-3.47-.93L11.37,48.57c-.64-.43-.45-1.41.3-1.57l24.02-5.23,40.04,33.31Z"/>
        <path class="st5" d="M176.91,159.42L34.7,42.64c-1.65-1.36-1.89-3.79-.53-5.44s3.79-1.89,5.44-.53l.03.02,141.12,118.1c1.27,1.07,1.44,2.96.38,4.24-1.06,1.27-2.94,1.44-4.22.39Z"/>
      </g>
    </g>
    <g>
      <g>
        <g>
          <g>
            <g>
              <path class="st7" d="M141.55,36.43c-.09,0-.14-.1-.1-.18.83-1.35,1.62-2.51,3.15-3.21,1.43-.65,5.64,1.77,6.42,2.23.06.04.08.12.03.18-.99,1.09-1.96,2.76-3.53,2.91-2.12.2-3.81-1.76-5.96-1.92Z"/>
              <path class="st7" d="M14.87,111.15l2.65-2.64c.05-.05.14-.05.19,0l5.02,6.03s.04.11,0,.15l-2.73,2.9c-.05.06-.14.05-.19,0l-4.95-6.3s-.03-.11,0-.16Z"/>
              <path class="st5" d="M307.33,62.59c-.07-.06-.04-.17.05-.2,1.54-.51,2.92-.9,4.55-.48,1.52.39,3.11,4.87,3.4,5.71.02.07-.02.14-.1.15-1.49.21-3.34.88-4.64,0-1.75-1.17-1.72-3.72-3.25-5.19Z"/>
              <path class="st6" d="M19.82,80.59c-.08-.18-.15-.36-.23-.54,0-.02-.01-.04-.02-.06l-.48-4.65c-.09-.83-.3-1.64-.62-2.29,0,0-.66-1.36-.83-1.72-.02-.05-.03-.13,0-.17.35-.69,1.43,1.9,1.66,2.71.56,2.03.43,4.45.67,6.61.02.18-.08.25-.14.1Z"/>
              <path class="st2" d="M242.8,13.68l-3.88-.82c-.08-.02-.15.04-.16.11l-.77,8.03c0,.06.04.12.1.13l4.1,1c.08.02.16-.03.16-.11l.54-8.22c0-.06-.04-.12-.1-.13Z"/>
              <path class="st2" d="M46.19,25.38l2.81-2.71c.05-.05.05-.14-.01-.19l-6.6-4.96c-.05-.04-.12-.03-.17,0l-3.09,2.79c-.06.05-.05.14.01.19l6.88,4.88c.05.04.12.03.17-.01Z"/>
            </g>
            <path class="st6" d="M252.69,315.13c.03-.09-.05-.17-.14-.16-1.68.25-3.15.54-4.44,1.69-1.2,1.08-.41,5.95-.25,6.85.01.08.09.12.17.1,1.48-.5,3.52-.76,4.28-2.17,1.02-1.9-.29-4.24.38-6.31Z"/>
          </g>
          <g>
            <path class="st5" d="M68.46,220.62c0-.11-.15-.15-.22-.07-.67.84-1.84,2.91-3.77,3.54-2.01.66-2.77,1.9-3.17,2.44-.06.08,0,.18.1.19l1.75.08c3.03.13,5.52-2.28,5.37-5.2l-.05-.98Z"/>
            <path class="st7" d="M130.15,254l-.18-4.6c0-.06.04-.11.1-.13l4.73-1.09c.08-.02.15.04.16.11l.24,4.44c0,.06-.04.11-.09.13l-4.8,1.26c-.08.02-.16-.04-.16-.12Z"/>
            <path class="st2" d="M1.74,223.94l2.18-3.88s.02-.11-.03-.15l-3.59-2.88c-.06-.05-.15-.03-.19.03l-2.17,3.71s-.02.11.03.15l3.57,3.05c.06.05.15.04.19-.03Z"/>
          </g>
        </g>
        <g>
          <g>
            <g>
              <path class="st7" d="M112.44,330.37s-1.34.88-1.69,1.11c-.05.03-.1.1-.1.15-.07.8,2.33-.96,2.98-1.58,1.07-1.01,1.97-2.33,2.86-3.63h-.54l-1.7,2.21c-.54.7-1.18,1.31-1.82,1.73Z"/>
              <g>
                <path class="st5" d="M91.47,135.1c.07-.06.18-.02.2.06.39,1.52.67,2.89.08,4.42-.55,1.43-5.31,2.54-6.2,2.74-.07.02-.15-.04-.15-.11-.08-1.45-.6-3.29.42-4.46,1.37-1.57,4-1.31,5.66-2.65Z"/>
                <path class="st6" d="M91.43,71.97l-2.34-3.8s-.02-.11.02-.15l3.47-3.01c.06-.05.15-.04.19.03l2.31,3.63s.02.11-.02.15l-3.44,3.18c-.06.05-.15.04-.19-.03Z"/>
                <path class="st2" d="M128.61,171.82c-.07-.06-.04-.17.05-.2,1.54-.51,2.92-.9,4.55-.48,1.52.39,3.11,4.87,3.4,5.71.02.07-.02.14-.1.15-1.49.21-3.34.88-4.64,0-1.75-1.17-1.72-3.72-3.25-5.19Z"/>
              </g>
            </g>
            <g>
              <g>
                <path class="st10" d="M316.23,170.79c-.16-.12-.32-.24-.48-.36-.02-.01-.04-.02-.06-.03l-4.49-1.74c-.8-.31-1.55-.74-2.11-1.21,0,0-1.17-.99-1.48-1.24-.04-.04-.12-.06-.16-.05-.78.13,1.49,1.86,2.24,2.29,1.86,1.09,4.31,1.64,6.4,2.46.17.07.27,0,.14-.11Z"/>
                <path class="st5" d="M295.08,260.9c.06.09.21.06.23-.05.13-1.05.03-3.41,1.35-4.91,1.38-1.56,1.37-3,1.43-3.67,0-.09-.1-.16-.18-.11l-1.54.8c-2.67,1.39-3.52,4.69-1.84,7.12l.57.82Z"/>
                <path class="st5" d="M149.82,88.12c0-.11-.15-.15-.22-.07-.67.84-1.84,2.91-3.77,3.54-2.01.66-2.77,1.9-3.17,2.44-.06.08,0,.18.1.19l1.75.08c3.03.13,5.52-2.28,5.37-5.2l-.05-.98Z"/>
              </g>
              <path class="st2" d="M263.74,116.99l2.81,3.49s.1.06.15.03l4.18-2.01c.07-.03.09-.12.04-.18l-2.65-3.41s-.1-.06-.15-.04l-4.33,1.92c-.07.03-.09.12-.05.18Z"/>
            </g>
          </g>
          <path class="st6" d="M230.97,69.04l-3.18-2.02c-.06-.04-.07-.12-.03-.18l5.19-5.9s.11-.06.16-.02l3.47,2.04c.07.04.08.13.03.18l-5.48,5.87s-.11.05-.16.02Z"/>
        </g>
      </g>
      <g>
        <path class="st10" d="M101.98,111.03l-3.88-.82c-.08-.02-.15.04-.16.11l-.77,8.03c0,.06.04.12.1.13l4.1,1c.08.02.16-.03.16-.11l.54-8.22c0-.06-.04-.12-.1-.13Z"/>
        <path class="st10" d="M58.92,68.56l4.7.82c.06.01.1.06.11.12l.08,4.69c0,.08-.07.14-.15.12l-4.54-.73c-.06,0-.1-.06-.11-.12l-.24-4.79c0-.08.07-.14.15-.13Z"/>
      </g>
    </g>
  </g>
</svg>