<?xml version="1.0" encoding="UTF-8"?>
<svg id="_圖層_1" data-name="圖層_1" xmlns="http://www.w3.org/2000/svg" xmlns:xlink="http://www.w3.org/1999/xlink" version="1.1" viewBox="0 0 955.36 470.45">
  <!-- Generator: Adobe Illustrator 29.6.1, SVG Export Plug-In . SVG Version: 2.1.1 Build 9)  -->
  <defs>
    <style>
      .st0 {
        fill: #1d2c65;
      }

      .st1 {
        fill: #a34209;
      }

      .st2, .st3 {
        fill: #00bdff;
      }

      .st4 {
        fill: #f4a319;
      }

      .st5 {
        fill: #d69253;
      }

      .st6 {
        fill: url(#_未命名漸層_3708);
      }

      .st7 {
        fill: #607cbd;
      }

      .st8 {
        fill: #f0b071;
      }

      .st9 {
        fill: #ed781e;
      }

      .st10 {
        fill: #dbdcdc;
      }

      .st11 {
        fill: #e8edf8;
      }

      .st12 {
        fill: #fff;
      }

      .st13 {
        fill: #2a54a4;
      }

      .st3 {
        fill-rule: evenodd;
      }
    </style>
    <linearGradient id="_未命名漸層_3708" data-name="未命名漸層 3708" x1="1074.44" y1="167.82" x2="-636.15" y2="167.82" gradientUnits="userSpaceOnUse">
      <stop offset=".24" stop-color="#fff"/>
      <stop offset=".31" stop-color="#fcede2"/>
      <stop offset=".66" stop-color="#f19956"/>
      <stop offset=".82" stop-color="#ed781e"/>
    </linearGradient>
  </defs>
  <path class="st12" d="M-25.14,220.62l-1.48,2.21c-1.52-1.29-3.69-2.57-6.5-3.86-.05-.02-.08-.04-.11-.04l1.44-1.93c2.72,1.08,4.87,2.24,6.46,3.48.07.05.13.09.18.14ZM-29.81,239.38l-2.25-1.72c2.2-3.39,4.33-7.22,6.39-11.48l1.97,1.69c-1.76,3.77-3.79,7.61-6.11,11.52ZM-23.25,211.32l-1.58,2.11c-1.36-1.29-3.35-2.59-5.97-3.9-.19-.09-.36-.18-.53-.25l1.48-1.9c2.67,1.15,4.79,2.39,6.36,3.72.09.07.18.14.25.21ZM-13.73,207.25h2.6c2.08,3.51,4.72,6.64,7.9,9.38,1.12.96,2.2,1.76,3.23,2.39-.7.84-1.24,1.64-1.62,2.39-3.14-2.2-6-4.99-8.6-8.36-.82-1.05-1.52-2.07-2.11-3.06-1.69,3.28-4.13,6.36-7.34,9.24-1.05.96-2.12,1.81-3.2,2.56-.3-.73-.82-1.48-1.54-2.25,3-1.97,5.72-4.67,8.18-8.11,1.03-1.45,1.86-2.84,2.49-4.18ZM-20.75,239.87v-14.43H-3.48v14.29h-2.67v-1.44h-12.01v1.58h-2.6ZM-18.86,218.69H-5.34v2.42h-13.52v-2.42ZM-6.14,227.86h-12.01v8.01H-6.14v-8.01Z"/>
  <g>
    <g>
      <path class="st2" d="M344.85,79.86S396.87,7.63,498.21.29c101.34-7.34,196.21,125.26,247.88,194.49,51.67,69.23,94.03,96.06,145.69,101.71,67.76,7.42,63.53,93.73,63.53,93.73,0,0,4.24,80.23-149.08,80.23h-471.84l10.46-390.59Z"/>
      <path class="st2" d="M586.31,470.45l-.02-446.6c-125.67-64.35-146.94,25.29-220.15,8.83-94.1-21.16-135.74-10.14-179.25,114.04C143.37,270.9,7.86,239.99.38,341.9c-.1,1.41-.19,2.8-.25,4.18-2.74,58.62,38.11,108.63,93.05,121.29,8.77,2.02,17.89,3.09,27.25,3.09h465.89Z"/>
      <g>
        <path class="st8" d="M99.06,342.65l-9.6-12.17s3.89-10.73,0-18.7c-3.89-7.97-5.9-19.89-8.14-19.86-2.24.02-7.6,7.75-1.11,20.21,0,0-21.62-3.2-27.63-10.74-6.01-7.54-9.26-16.37-12.48-12.39-3.21,3.99-7.94,19.22,5.95,34.52,13.89,15.3,28.41,14.54,28.41,14.54l15.69,22.09,15.05-12-6.15-5.5Z"/>
        <path class="st0" d="M305.05,105.96s-21.32-19.42-51.33,2.46c-27.44,20.01-35.16,58.49-24.81,88.31,10.35,29.82,8.51,50.47.3,85.19-6.73,28.43,111.9,0,111.9,0,0,0-8.97-29.91-7.8-48.88,1.65-26.82,19.03-43.94,7.78-88.76-10.81-43.1-36.04-38.32-36.04-38.32Z"/>
        <path class="st4" d="M235.64,285.45l-21.67-24.65s-38.32,47.11-57.62,118.91c0,0-35.45-32.77-51.67-44.14,0,0-22.33,5.24-31.85,22.38,0,0,62.54,91.69,86.17,101.08,23.63,9.39,71.26-66.85,71.26-66.85l5.36-106.73Z"/>
        <path class="st4" d="M340.81,282.24l12.67-21.44s33.7,37.04,59.07,112.62l3.85,67.38-75.32,6.62-19.31-79.42,19.03-85.76Z"/>
        <path class="st11" d="M309.87,470.45c4.93-23.24,21.26-114.16,21.26-114.16l-4.36-96.78-43.05-9.22-43.05,9.22-4.36,96.78s16.33,90.92,21.26,114.16h52.29Z"/>
        <path class="st9" d="M308.78,470.45h46.4c2.38-27.53,12.37-154.87-1.7-209.65,0,0-22.22-11.47-52.06-19.19,0,0,10.44,139.85,7.36,228.84Z"/>
        <path class="st9" d="M258.68,470.45c-3.08-88.99,7.36-228.84,7.36-228.84-29.83,7.72-52.06,19.19-52.06,19.19-14.08,54.78-4.09,182.12-1.7,209.65h46.4Z"/>
        <path class="st5" d="M283.73,210.83l14.61,8.17,3.08,22.61s-1.37,13.15-17.69,21.43c-16.32-8.28-17.69-21.43-17.69-21.43l3.08-22.61,14.61-8.17Z"/>
        <path class="st7" d="M331.49,166.24l-3.44-7.06s-1.04-35.04-16.73-42.04c0,0,21.69,3.45,23.07,49.09h-2.9Z"/>
        <path class="st7" d="M235.97,166.24l3.44-7.06s1.04-35.04,16.73-42.04c0,0-21.69,3.45-23.07,49.09h2.9Z"/>
        <circle class="st13" cx="324.63" cy="177.58" r="19.16" transform="translate(77.51 452.99) rotate(-76.78)"/>
        <circle class="st13" cx="242.83" cy="177.58" r="19.16" transform="translate(-54.44 223.71) rotate(-45)"/>
        <rect class="st7" x="316.86" y="156.95" width="11.19" height="41.31" rx="3.8" ry="3.8"/>
        <rect class="st7" x="239.41" y="156.95" width="11.19" height="41.31" rx="3.8" ry="3.8" transform="translate(490.01 355.21) rotate(180)"/>
        <path class="st8" d="M283.73,116.64c21.32,0,38.23,19.2,38.05,52.59-.19,34.45-13.34,58.74-38.05,58.74s-37.86-24.29-38.05-58.74c-.18-33.38,16.73-52.59,38.05-52.59Z"/>
        <path class="st12" d="M283.73,265.4c7.11-.11,28.02,16.84,28.02,16.84,0,0,2.14-24.38-.42-37.86,0,0-3.14-8.08-11.04-11.02,0,0-1.56,12.51-16.57,28.64-15.01-16.13-16.57-28.64-16.57-28.64-7.9,2.94-11.04,11.02-11.04,11.02-2.56,13.48-.42,37.86-.42,37.86,0,0,20.92-16.95,28.02-16.84Z"/>
        <path class="st0" d="M245.68,148.4l-6.15,8.55s-1.53,14.05-.12,23.59c0,0,50.78-3.54,62.01-45.92,0,0,1.29,42.43,26.63,48.57,0,0,1.27-18.86-.14-24.77-2.02-8.43-12.45-27.71-12.45-27.71l-12.41-16.43-19.11-8.32-19.68,5.38-3.43,8.45-10.23,9.82-4.92,18.8Z"/>
        <path class="st12" d="M283.69,202.27h-13.45s.64,7.54,6.94,11.63c4.06,2.64,8.97,2.64,13.03,0,6.29-4.09,6.94-11.63,6.94-11.63h-13.45Z"/>
        <path class="st12" d="M270.24,202.27s.12,1.29.69,3.09h25.52c.57-1.8.69-3.09.69-3.09h-26.9Z"/>
        <g>
          <circle class="st12" cx="284.67" cy="302.05" r="3.64"/>
          <circle class="st12" cx="284.67" cy="356.03" r="3.64"/>
          <circle class="st12" cx="284.67" cy="410.01" r="3.64"/>
        </g>
      </g>
      <g>
        <polygon class="st1" points="388.06 343.99 346.55 460.13 279.58 460.13 279.58 470.45 342.87 470.45 357.94 470.45 515.84 470.45 561.03 343.99 388.06 343.99"/>
        <polygon class="st9" points="524.51 470.45 351.54 470.45 396.73 343.99 569.71 343.99 524.51 470.45"/>
      </g>
      <g>
        <g>
          <g>
            <circle class="st2" cx="420.31" cy="242.59" r="45.97"/>
            <circle class="st12" cx="420.31" cy="242.59" r="33.77"/>
          </g>
          <polygon class="st12" points="391.82 250.29 366.44 233.36 396.93 229.82 391.82 250.29"/>
          <path class="st2" d="M402.48,228.58v28.01h35.65v-28.01h-35.65ZM435.32,230.2l-15.02,14.59-15.02-14.59h30.04Z"/>
        </g>
        <g>
          <g>
            <circle class="st2" cx="385.55" cy="59.89" r="45.97"/>
            <circle class="st12" cx="385.55" cy="59.89" r="33.77" transform="translate(264.32 430.75) rotate(-80.73)"/>
          </g>
          <polygon class="st12" points="360.85 68.24 344.85 105.86 379.69 87.05 360.85 68.24"/>
          <polygon class="st2" points="379.69 72.68 379.69 47.1 400.15 59.89 379.69 72.68"/>
        </g>
        <g>
          <g>
            <circle class="st2" cx="131.4" cy="212.24" r="45.97" transform="translate(-105.79 290.05) rotate(-76.4)"/>
            <circle class="st12" cx="131.4" cy="212.24" r="33.77" transform="translate(-105.21 291.81) rotate(-76.82)"/>
          </g>
          <polygon class="st12" points="150.33 227.96 185.47 213.11 152.09 198.26 150.33 227.96"/>
          <path class="st3" d="M116.95,204.19c.04-2.92,1.2-5.42,3.34-7.34.83-.79,2-2.23,3.26-2.05,1.34.15,2.31,1.63,2.98,2.65,1.14,1.8,3.02,4.42,1.28,6.44-.81.95-2.09,1.46-2.85,2.48-.76,1.06-.32,2.46.2,3.51,1.2,2.37,3.24,4.66,5.29,6.33.92.76,2.17,1.66,3.41,1.46,1.3-.22,2.32-1.64,3.27-2.45,2.45-1.98,5.14.73,6.93,2.34.86.76,1.84,1.76,1.78,2.97-.04,1.26-1.68,2.27-2.56,3-2.39,1.94-5.36,2.61-8.41,1.97-3.23-.7-5.97-2.62-8.41-4.8-2.49-2.2-4.6-4.85-6.44-7.61-.84-1.31-1.6-2.66-2.13-4.13-.57-1.57-.76-3.12-.96-4.79.02-1.62.11.87,0,0Z"/>
        </g>
      </g>
      <path class="st12" d="M138.58,289.98v5.86c0,.37-.3.66-.66.66s-.66-.3-.66-.66v-5.86c0-.37.3-.66.66-.66s.66.3.66.66ZM137.92,300.32c-.37,0-.66.3-.66.66v5.86c0,.37.3.66.66.66s.66-.3.66-.66v-5.86c0-.37-.3-.66-.66-.66ZM146.35,297.75h-5.86c-.37,0-.66.3-.66.66s.3.66.66.66h5.86c.37,0,.66-.3.66-.66s-.3-.66-.66-.66ZM135.34,297.75h-5.86c-.37,0-.66.3-.66.66s.3.66.66.66h5.86c.37,0,.66-.3.66-.66s-.3-.66-.66-.66Z"/>
      <path class="st12" d="M521.62,166.24c0-1.31-.18-2.57-.48-3.78l2.71-2.67-1.55-2.68-.22-.39-1.55-2.68-3.66,1.01c-1.82-1.76-4.06-3.08-6.56-3.79l-.95-3.67h-6.63l-.95,3.67c-2.5.71-4.75,2.03-6.56,3.79l-3.66-1.01-1.55,2.68-.22.39-1.55,2.68,2.71,2.67c-.3,1.21-.48,2.48-.48,3.78s.18,2.57.48,3.78l-2.71,2.67,1.55,2.68.22.39,1.55,2.68,3.66-1.01c1.82,1.76,4.06,3.08,6.56,3.79l.95,3.67h6.63l.95-3.67c2.5-.71,4.75-2.03,6.56-3.79l3.66,1.01,1.55-2.68.22-.39,1.55-2.68-2.71-2.67c.3-1.21.48-2.48.48-3.78ZM506.04,174.08c-4.33,0-7.83-3.51-7.83-7.83s3.51-7.83,7.83-7.83,7.83,3.51,7.83,7.83-3.51,7.83-7.83,7.83Z"/>
      <g>
        <path class="st12" d="M558.68,73.34v5.86c0,.37-.3.66-.66.66s-.66-.3-.66-.66v-5.86c0-.37.3-.66.66-.66s.66.3.66.66ZM558.02,83.69c-.37,0-.66.3-.66.66v5.86c0,.37.3.66.66.66s.66-.3.66-.66v-5.86c0-.37-.3-.66-.66-.66ZM566.45,81.12h-5.86c-.37,0-.66.3-.66.66s.3.66.66.66h5.86c.37,0,.66-.3.66-.66s-.3-.66-.66-.66ZM555.45,81.12h-5.86c-.37,0-.66.3-.66.66s.3.66.66.66h5.86c.37,0,.66-.3.66-.66s-.3-.66-.66-.66Z"/>
        <path class="st12" d="M665.18,237.58v5.86c0,.37-.3.66-.66.66s-.66-.3-.66-.66v-5.86c0-.37.3-.66.66-.66s.66.3.66.66ZM664.52,247.93c-.37,0-.66.3-.66.66v5.86c0,.37.3.66.66.66s.66-.3.66-.66v-5.86c0-.37-.3-.66-.66-.66ZM672.96,245.35h-5.86c-.37,0-.66.3-.66.66s.3.66.66.66h5.86c.37,0,.66-.3.66-.66s-.3-.66-.66-.66ZM661.95,245.35h-5.86c-.37,0-.66.3-.66.66s.3.66.66.66h5.86c.37,0,.66-.3.66-.66s-.3-.66-.66-.66Z"/>
        <path class="st12" d="M285.34,47.76v5.86c0,.37-.3.66-.66.66s-.66-.3-.66-.66v-5.86c0-.37.3-.66.66-.66s.66.3.66.66ZM284.68,58.11c-.37,0-.66.3-.66.66v5.86c0,.37.3.66.66.66s.66-.3.66-.66v-5.86c0-.37-.3-.66-.66-.66ZM293.11,55.53h-5.86c-.37,0-.66.3-.66.66s.3.66.66.66h5.86c.37,0,.66-.3.66-.66s-.3-.66-.66-.66ZM282.1,55.53h-5.86c-.37,0-.66.3-.66.66s.3.66.66.66h5.86c.37,0,.66-.3.66-.66s-.3-.66-.66-.66Z"/>
        <path class="st12" d="M515.14,262.42v5.86c0,.37-.3.66-.66.66s-.66-.3-.66-.66v-5.86c0-.37.3-.66.66-.66s.66.3.66.66ZM514.48,272.77c-.37,0-.66.3-.66.66v5.86c0,.37.3.66.66.66s.66-.3.66-.66v-5.86c0-.37-.3-.66-.66-.66ZM522.91,270.19h-5.86c-.37,0-.66.3-.66.66s.3.66.66.66h5.86c.37,0,.66-.3.66-.66s-.3-.66-.66-.66ZM511.9,270.19h-5.86c-.37,0-.66.3-.66.66s.3.66.66.66h5.86c.37,0,.66-.3.66-.66s-.3-.66-.66-.66Z"/>
        <path class="st12" d="M789.6,390.3v5.86c0,.37-.3.66-.66.66s-.66-.3-.66-.66v-5.86c0-.37.3-.66.66-.66s.66.3.66.66ZM788.94,400.65c-.37,0-.66.3-.66.66v5.86c0,.37.3.66.66.66s.66-.3.66-.66v-5.86c0-.37-.3-.66-.66-.66ZM797.38,398.08h-5.86c-.37,0-.66.3-.66.66s.3.66.66.66h5.86c.37,0,.66-.3.66-.66s-.3-.66-.66-.66ZM786.37,398.08h-5.86c-.37,0-.66.3-.66.66s.3.66.66.66h5.86c.37,0,.66-.3.66-.66s-.3-.66-.66-.66Z"/>
        <path class="st12" d="M636.44,365.88v5.86c0,.37-.3.66-.66.66s-.66-.3-.66-.66v-5.86c0-.37.3-.66.66-.66s.66.3.66.66ZM635.78,376.23c-.37,0-.66.3-.66.66v5.86c0,.37.3.66.66.66s.66-.3.66-.66v-5.86c0-.37-.3-.66-.66-.66ZM644.21,373.66h-5.86c-.37,0-.66.3-.66.66s.3.66.66.66h5.86c.37,0,.66-.3.66-.66s-.3-.66-.66-.66ZM633.2,373.66h-5.86c-.37,0-.66.3-.66.66s.3.66.66.66h5.86c.37,0,.66-.3.66-.66s-.3-.66-.66-.66Z"/>
        <path class="st12" d="M382.35,163.87v5.86c0,.37-.3.66-.66.66s-.66-.3-.66-.66v-5.86c0-.37.3-.66.66-.66s.66.3.66.66ZM381.69,174.22c-.37,0-.66.3-.66.66v5.86c0,.37.3.66.66.66s.66-.3.66-.66v-5.86c0-.37-.3-.66-.66-.66ZM390.12,171.64h-5.86c-.37,0-.66.3-.66.66s.3.66.66.66h5.86c.37,0,.66-.3.66-.66s-.3-.66-.66-.66ZM379.11,171.64h-5.86c-.37,0-.66.3-.66.66s.3.66.66.66h5.86c.37,0,.66-.3.66-.66s-.3-.66-.66-.66Z"/>
        <path class="st12" d="M76.81,406.36c0-.86-.12-1.68-.32-2.48l1.77-1.74-1.01-1.75-.15-.25-1.01-1.75-2.39.66c-1.19-1.15-2.66-2.01-4.29-2.48l-.62-2.4h-4.34l-.62,2.4c-1.64.47-3.1,1.33-4.29,2.48l-2.39-.66-1.01,1.75-.15.25-1.01,1.75,1.77,1.74c-.2.79-.32,1.62-.32,2.48s.12,1.68.32,2.48l-1.77,1.74,1.01,1.75.15.25,1.01,1.75,2.39-.66c1.19,1.15,2.66,2.01,4.29,2.48l.62,2.4h4.34l.62-2.4c1.64-.47,3.1-1.33,4.29-2.48l2.39.66,1.01-1.75.15-.25,1.01-1.75-1.77-1.74c.2-.79.32-1.62.32-2.48ZM66.62,411.49c-2.83,0-5.12-2.29-5.12-5.12s2.29-5.12,5.12-5.12,5.12,2.29,5.12,5.12-2.29,5.12-5.12,5.12Z"/>
      </g>
    </g>
    <path class="st12" d="M406.26,399.99c1.73-.25,4.2-.47,7.94-.47,3.18,0,5.17.63,6.25,1.7,1.09,1.04,1.48,2.92.61,5.22-.77,2.04-2.18,3.96-4.02,5.16-2.43,1.6-5.28,2.33-8.55,2.33-.66,0-1.2-.06-1.57-.09l-2.66,7.07h-5.88s7.88-20.91,7.88-20.91ZM408.62,409.33c.32.06.75.09,1.51.09,2.3,0,4.32-1.04,5.04-2.96.58-1.54-.2-2.55-2.56-2.55-1.01,0-1.66.06-2,.13l-1.99,5.28ZM446.42,420.27c-1.05.44-3.52,1.01-6.42,1.01-8.58,0-10.56-4.94-8.42-10.63,2.77-7.36,10.05-11.32,17-11.32,2.74,0,4.84.5,5.67,1.07l-2.96,4.59c-.9-.44-2.31-.88-4.29-.88-3.55,0-7.42,1.92-9.01,6.13-1.37,3.65.15,6.19,4.52,6.19,1.63,0,3.55-.31,4.71-.72l-.81,4.56ZM457.53,399.71h5.88s-3.35,8.9-3.35,8.9h.06c.76-.76,1.56-1.48,2.33-2.17l7.19-6.73h7.52s-10.82,8.93-10.82,8.93l3.18,12.26h-7.01s-1.8-8.74-1.8-8.74l-2.87,2.36-2.4,6.38h-5.88s7.98-21.19,7.98-21.19ZM494.09,413.01c.93-2.64,2-5.57,3.39-9.24h-.09c-1.89,3.02-4.15,6.35-5.98,9.02l-5.19,7.67h-4.75s.99-7.64.99-7.64c.35-2.61.91-5.91,1.52-9.06h-.06c-1.35,3.24-2.71,6.6-3.8,9.24l-3.29,7.89h-5.6s9.18-21.19,9.18-21.19h8.49s-.6,5.35-.6,5.35c-.26,2.26-.7,5.19-1.23,7.86h.13c1.7-2.67,3.67-5.82,5.12-7.92l3.66-5.28h8.27s-7.01,21.19-7.01,21.19h-5.91s2.75-7.89,2.75-7.89ZM518.68,412.51h-8.62s-1.36,3.62-1.36,3.62h9.62s-1.8,4.78-1.8,4.78h-15.56s7.98-21.19,7.98-21.19h15.09s-1.8,4.78-1.8,4.78h-9.15s-1.22,3.24-1.22,3.24h8.62s-1.8,4.78-1.8,4.78ZM425.53,420.9s2.71-12.36,3.45-14.94c0,0,1.7-4.32,4.38-5.39,2.68-1.07.05-2.12-2.65-.16,0,0-.5-3.09-1.81-.9,0,0-.95-1.5-1.81.69,0,0-1.06-.88-1.53.91,0,0-.87-.28-1.31,1.32-.28,1.01-1.05,2.93.17,4.13,1.22,1.2-5.68,14.33-5.68,14.33h6.79Z"/>
  </g>
</svg>