<?xml version="1.0" encoding="UTF-8"?>
<svg id="_圖層_1" xmlns="http://www.w3.org/2000/svg" version="1.1" viewBox="0 0 503.84 305.31">
  <!-- Generator: Adobe Illustrator 29.6.1, SVG Export Plug-In . SVG Version: 2.1.1 Build 9)  -->
  <defs>
    <style>
      .st0 {
        fill: #ed781e;
      }
    </style>
  </defs>
  <g>
    <path class="st0" d="M120.1,252.11c-.14-6.01-.21-12.67-.21-21.04h-.21c-1.72,6.87-4.01,14.46-5.87,20.54l-5.23,17.47h-10.81l-4.29-17.39c-1.43-5.94-3.01-13.46-4.29-20.62h-.14c-.29,7.37-.5,15.03-.72,21.04l-.72,17.97h-12.74l2.72-48.24h19.33l3.22,12.17c1.36,5.15,2.86,11.81,3.94,17.9h.29c1.57-6.08,3.36-13.24,4.87-18.04l3.79-12.03h18.83l2.22,48.24h-13.46l-.5-17.97h-.02Z"/>
    <path class="st0" d="M156.54,258.34l-3.08,11.74h-14.24l15.25-48.24h18.47l16.25,48.24h-15.03l-3.58-11.74h-14.04ZM168.49,248.46l-2.58-8.52c-.86-2.72-1.86-6.23-2.72-9.02h-.14c-.79,2.79-1.5,6.3-2.29,9.09l-2.29,8.45h10.02,0Z"/>
    <path class="st0" d="M195.76,222.48c3.79-.57,9.73-1.07,17.04-1.07,8.09,0,13.46,1.15,17.18,3.79,3.08,2.22,5.01,5.73,5.01,10.59,0,6.44-5.23,10.52-8.59,11.6v.29c3.22,1.36,5.01,4.51,6.37,8.52,1.65,4.94,3.29,12.03,4.22,13.89h-13.74c-.79-1.43-2.08-4.8-3.72-11.02-1.5-5.8-3.44-6.94-7.95-6.94h-2.43v17.97h-13.39v-47.62ZM209.15,242.59h4.01c5.3,0,8.45-2.15,8.45-5.8s-2.72-5.51-7.3-5.51c-3.01,0-4.44.14-5.15.29v11.02h0Z"/>
    <path class="st0" d="M242.79,221.84h13.39v20.26h.14c1.07-1.72,2.29-3.36,3.44-4.94l10.59-15.32h17.11l-16.96,20.33,17.75,27.92h-15.96l-11.6-19.9-4.51,5.37v14.53h-13.39v-48.24h0Z"/>
    <path class="st0" d="M326.04,250.97h-19.61v8.23h21.9v10.88h-35.43v-48.24h34.36v10.88h-20.83v7.37h19.61v10.88h0Z"/>
    <path class="st0" d="M346.58,232.86h-13.6v-11.02h41.01v11.02h-13.89v37.22h-13.53v-37.22h.01Z"/>
    <path class="st0" d="M393.89,221.84v48.24h-13.53v-48.24h13.53Z"/>
    <path class="st0" d="M403.06,270.08v-48.24h16.96l7.95,13.96c3.08,5.37,6.08,11.95,8.52,18.25h.21c-.86-7.16-.93-13.03-.93-19.61v-12.6h12.53v48.24h-14.82l-8.73-15.96c-3.08-5.58-6.51-12.1-9.31-18.68h-.29c.36,7.3.43,14.32.43,21.62v13.03h-12.53.01Z"/>
    <path class="st0" d="M503.84,267.5c-4.15,1.36-11.52,3.08-18.68,3.08-10.59,0-17.82-2.58-22.55-7.09-4.58-4.29-7.01-10.16-7.01-16.68,0-16.68,13.24-25.48,30.42-25.48,7.37,0,13.03,1.29,15.89,2.65l-2.86,10.59c-3.15-1.29-6.87-2.36-13.46-2.36-8.45,0-15.75,4.15-15.75,13.38,0,8.59,6.44,14.25,15.75,14.25,2.22,0,4.29-.21,5.01-.5v-7.8h-7.44v-10.38h20.69v26.34h-.01Z"/>
  </g>
  <path class="st0" d="M90.33,112.1c14.12-1.46,41.75-9.38,42.57-38.86.56-20.13-10.65-23.59-19.6-31.41-9.23-8.08-3.85-23.98,10.81-22,40.13,6.96,45.97,96.97-33.78,92.27ZM91.68,16.17c-27.46,2.36-65.97,29.75-65.97,102.6h0v167.28c0,9.06,7.34,16.4,16.4,16.4s16.4-7.34,16.4-16.4V96.08h0s-.89-25.69,10.92-46.58c7.46-13.21,18.38-25.69,39.12-33.2-4.68-.67-11.23-.61-16.87-.12h0ZM81.47.14C58.43,1.88,27.76,25.33,26.83,69.5,42.11,22.04,84.79,2.38,120.88,13.37,113.71,5.92,97.72-1.09,81.47.14ZM7.25,5.69c-4.96.32-9.99,5.93-5.5,12.31,2.24,2.84,5.45,3.62,7.94,4.89,14.89,7.6,17.31,16.71,16.13,30.13C36.03,18.68,16.33,5.21,7.25,5.69ZM67.83,127.17c21.74,13.17,58.27,3.11,75.16-24.47-23.25,20.68-50.7,20.99-65.72,10.81-10.88-7.38-20.47,6.99-9.44,13.67h0Z"/>
  <g>
    <path class="st0" d="M88.99,148.06v48.24h-13.53v-48.24h13.53Z"/>
    <path class="st0" d="M138.31,194.87c-2,1-7.16,2.29-13.74,2.29-19.54,0-28.27-11.24-28.27-24.19,0-16.75,13.17-25.77,28.99-25.77,6.23,0,11.45,1.15,13.81,2.43l-2.79,10.45c-2.43-1-6.01-2-10.52-2-8.09,0-15.25,4.37-15.25,13.96,0,8.3,5.65,14.1,15.6,14.1,3.72,0,7.8-.72,10.09-1.65l2.08,10.38h0Z"/>
    <path class="st0" d="M145.97,148.06h13.39v20.26h.14c1.07-1.72,2.29-3.36,3.44-4.94l10.59-15.32h17.11l-16.96,20.33,17.75,27.92h-15.96l-11.6-19.9-4.51,5.37v14.53h-13.39v-48.24h0Z"/>
    <path class="st0" d="M240.59,178.34c-.14-6.01-.21-12.67-.21-21.04h-.21c-1.72,6.87-4.01,14.46-5.87,20.54l-5.23,17.47h-10.81l-4.29-17.39c-1.43-5.94-3.01-13.46-4.29-20.62h-.14c-.29,7.37-.5,15.03-.72,21.04l-.72,17.97h-12.74l2.72-48.24h19.33l3.22,12.17c1.36,5.15,2.86,11.81,3.94,17.9h.29c1.57-6.08,3.36-13.24,4.87-18.04l3.79-12.03h18.83l2.22,48.24h-13.46l-.5-17.97h-.02Z"/>
    <path class="st0" d="M296.14,177.19h-19.61v8.23h21.9v10.88h-35.43v-48.24h34.36v10.88h-20.83v7.37h19.61v10.88h0Z"/>
  </g>
</svg>