<?xml version="1.0" encoding="UTF-8"?>
<svg id="_圖層_1" data-name="圖層_1" xmlns="http://www.w3.org/2000/svg" xmlns:xlink="http://www.w3.org/1999/xlink" version="1.1" viewBox="0 0 493.15 288.7">
  <!-- Generator: Adobe Illustrator 29.6.1, SVG Export Plug-In . SVG Version: 2.1.1 Build 9)  -->
  <defs>
    <style>
      .st0 {
        fill: #ed781e;
      }

      .st1 {
        fill: #231815;
      }

      .st2 {
        fill: #fff;
      }

      .st3 {
        fill: url(#_未命名漸層_7);
      }

      .st4 {
        opacity: .1;
      }

      .st5 {
        opacity: .4;
      }

      .st5, .st6 {
        fill: #040000;
      }

      .st6 {
        opacity: .2;
      }

      .st7 {
        fill: #888;
      }
    </style>
    <linearGradient id="_未命名漸層_7" data-name="未命名漸層 7" x1="-12.9" y1="-80.92" x2="-12.9" y2="525.5" gradientUnits="userSpaceOnUse">
      <stop offset="0" stop-color="#fff"/>
      <stop offset=".07" stop-color="#fdf5ef" stop-opacity=".97"/>
      <stop offset=".22" stop-color="#faddc7" stop-opacity=".88"/>
      <stop offset=".43" stop-color="#f5b686" stop-opacity=".73"/>
      <stop offset=".68" stop-color="#ee822e" stop-opacity=".54"/>
      <stop offset=".73" stop-color="#ed781e" stop-opacity=".5"/>
      <stop offset=".73" stop-color="#ed7920" stop-opacity=".5"/>
      <stop offset=".82" stop-color="#f4b280" stop-opacity=".5"/>
      <stop offset=".89" stop-color="#fadcc5" stop-opacity=".5"/>
      <stop offset=".96" stop-color="#fdf5ef" stop-opacity=".5"/>
      <stop offset="1" stop-color="#fff" stop-opacity=".5"/>
    </linearGradient>
  </defs>
  <g>
    <g>
      <polygon class="st0" points="-1.18 110.95 50.53 162.66 50.53 77.35 -1.18 110.95"/>
      <polygon class="st7" points="372.23 0 420.35 48.12 342.79 55.83 372.23 0"/>
      <polygon class="st7" points="-1.18 110.95 50.53 162.66 50.53 77.35 -1.18 110.95"/>
      <polyline class="st5" points="275.86 55.83 305.3 0 353.42 48.12"/>
      <g>
        <path class="st2" d="M22.95,285.2V26.65h377.41c49.23,0,89.29,40.05,89.29,89.29v79.98c0,49.23-40.05,89.29-89.29,89.29H22.95Z"/>
        <path class="st0" d="M400.36,30.15c47.3,0,85.79,38.48,85.79,85.79v79.98c0,47.3-38.48,85.79-85.79,85.79H26.45V30.15h373.91M400.36,23.15H19.45v265.55h380.91c51.24,0,92.79-41.54,92.79-92.79v-79.98c0-51.24-41.54-92.79-92.79-92.79h0Z"/>
      </g>
      <path class="st6" d="M19.45,28.31v91.69h286.51c30.44,0,55.12-24.68,55.12-55.12V28.31H19.45Z"/>
      <path class="st0" d="M-1.18,0v110.95h318.29c30.44,0,55.12-24.68,55.12-55.12V0H-1.18Z"/>
      <g class="st4">
        <polygon class="st2" points="170.47 110.95 281.41 0 203.2 0 92.25 110.95 170.47 110.95"/>
        <polygon class="st2" points="336.38 0 297.27 0 186.32 110.95 225.43 110.95 336.38 0"/>
      </g>
    </g>
    <g>
      <path class="st2" d="M64.48,46.02h-10.51v-1.73c-1.27,1.16-2.62,2.27-4.04,3.33h18.18v14.18h-14.68c-.15.95-.25,1.56-.31,1.82h15.65v12.22h-4.66v-1.29h-7.67v1.42h-4.57v-7.51c-.92,2.73-2.07,4.95-3.46,6.67-.71-.95-1.69-1.9-2.93-2.84-.24-.18-.44-.31-.62-.4,2.99-3.94,4.48-9.82,4.48-17.64v-6.22c-.18.12-.43.3-.75.53-.35.24-.61.4-.75.49-.65-1.24-1.58-2.41-2.79-3.51-.15-.12-.28-.22-.4-.31,4.67-2.73,8.29-6.13,10.86-10.22.21-.33.38-.62.53-.89h4.79c4.4,3.38,7.57,6.1,9.49,8.18l-3.46,4c-.8-.89-1.6-1.76-2.39-2.62v2.36ZM53.79,58.02h9.45v-1.73h-9.36c0,.42-.03.99-.09,1.73ZM63.23,51.4h-9.31v1.64h9.31v-1.64ZM56.01,42.38h7.18c-1.66-1.6-3-2.81-4.04-3.64-1.3,1.6-2.35,2.82-3.15,3.64ZM64.12,67.49h-7.67v3.2h7.67v-3.2ZM75.87,39.09v25.6h-5.1v-25.6h5.1ZM80.71,34.47h5.23v35.15c0,2.4-.5,3.98-1.51,4.76-.27.21-.56.38-.89.53-1.48.74-4.29,1.11-8.43,1.11-.27-1.78-.86-3.62-1.77-5.51,1.8.06,3.87.09,6.21.09.74-.06,1.12-.4,1.15-1.02v-35.11Z"/>
      <path class="st2" d="M94.63,75.18l-4.21-2.89c2.69-1.72,4.64-4.19,5.85-7.42.03-.12.06-.21.09-.27l4.52,1.6c-1.54,4.21-3.62,7.2-6.25,8.98ZM131.44,43.27v4.18h-39.25v-4.18h9.71c-.15-.53-.53-1.56-1.15-3.07l.22-.04h-6.56v-4.18h14.63v-2.4h5.32v2.4h14.68v4.18h-6.39l.67.13c-.27.5-.9,1.5-1.91,2.98h10.02ZM109.75,71.26h6.25c.92,0,1.49-.27,1.73-.8.21-.5.35-1.48.44-2.93,1.15.77,2.69,1.33,4.61,1.69-.33,2.87-1.09,4.71-2.31,5.51-.89.56-2.2.84-3.95.84h-7.32c-3.19,0-5.25-.55-6.16-1.64-.65-.83-.98-2.16-.98-4v-4.8h4.88l-.53-.22,1.86-1.82h-11.35v-13.78h30.11v13.78h-14.77c1.69.8,3.27,1.73,4.75,2.8l-3.28,3.33c-1.45-1.3-3.58-2.61-6.39-3.91v4.58c0,.71.22,1.13.67,1.24.33.09.9.13,1.73.13ZM102.08,52.64v1.96h19.6v-1.96h-19.6ZM102.08,57.71v2.04h19.6v-2.04h-19.6ZM117.43,40.15h-11.26c.53,1.27.9,2.27,1.11,2.98l-.62.13h10.11l-.67-.13c.71-1.54,1.15-2.53,1.33-2.98ZM121.46,66.38l4.17-2.31c3.34,2.82,5.72,5.39,7.14,7.73.09.18.18.34.27.49l-4.43,2.58c-1.18-2.19-3.22-4.71-6.12-7.56-.35-.33-.69-.64-1.02-.93Z"/>
      <path class="st2" d="M175.65,43.66v26.09c0,2.37-.55,3.98-1.64,4.84-.3.21-.61.38-.93.53-1.3.59-3.9.89-7.8.89h-.89c-.21-1.72-.8-3.54-1.77-5.47,1.65.06,3.78.09,6.38.09.71-.06,1.08-.38,1.11-.98v-8.18c-1.36,1.48-2.38,2.79-3.06,3.91-4.49-2.64-7.75-6.73-9.76-12.27-2.1,5.87-5.54,10.07-10.33,12.62-.65-1.07-1.48-2.15-2.48-3.24v13.56h-5.5v-32.4h16.1c-.09-.86-.19-2.03-.31-3.51h-7.67v-4.71h12.33c.09,2.55.35,5.29.8,8.22h15.43ZM144.48,48.95v11.87c4.32-2.4,7.26-6.36,8.82-11.87h-8.82ZM170.11,48.95h-8.65c1.71,5.33,4.6,9.13,8.65,11.38v-11.38Z"/>
      <path class="st2" d="M199.78,48.69h5.46c3.96,4.8,8.96,8.53,14.99,11.2,1.27.56,2.53,1.05,3.77,1.47-.95,1.07-2.06,2.71-3.33,4.93-1.77-.77-3.47-1.61-5.1-2.53v12.27h-5.5v-1.24h-14.95v1.29h-5.23v-11.91c-1.69,1.01-3.34,1.85-4.97,2.53-.86-1.72-1.88-3.24-3.06-4.58,5.12-2.01,9.77-4.99,13.97-8.93,1.6-1.54,2.91-3.04,3.95-4.49ZM188.51,42.11v4.89h-5.28v-9.78h16.41v-3.64h5.54v3.64h16.76v9.78h-5.54v-4.89h-27.89ZM194.37,43l5.19,1.78c-2.45,3.5-5.74,6.59-9.84,9.29-.59.39-1.17.74-1.73,1.07-.86-1.33-2.04-2.71-3.55-4.13-.09-.09-.15-.15-.18-.18,3.87-1.78,6.99-4.06,9.36-6.84.27-.33.52-.65.75-.98ZM195.12,70.02h14.95v-4.84h-14.95v4.84ZM195.48,60.46h14.94c-3.25-2.28-5.81-4.58-7.67-6.89-1.89,2.4-4.32,4.7-7.27,6.89ZM205.32,46.06l3.81-3.16c4.88,2.9,8.56,5.54,11.04,7.91.15.15.28.28.4.4l-4.12,3.56c-2.07-2.25-5.22-4.78-9.45-7.6-.59-.41-1.15-.78-1.68-1.11Z"/>
      <path class="st2" d="M244.74,33.4h5.54c3.64,5.3,8.23,9.75,13.79,13.33,1.98,1.27,3.93,2.33,5.85,3.16-1.06,1.13-2.28,2.76-3.64,4.89-5.12-2.84-9.84-6.49-14.19-10.93-1.74-1.81-3.19-3.53-4.35-5.16-2.75,4.15-6.7,8.15-11.84,12-2.1,1.57-4.21,2.95-6.34,4.13-.8-1.45-1.94-2.9-3.42-4.36,5.11-2.64,9.82-6.34,14.1-11.11,1.86-2.07,3.35-4.06,4.48-5.96ZM251.08,60.82v9.11h16.23v4.89h-38.62v-4.89h4.92v-15.78h5.32v15.78h6.47v-23.64h5.68v9.78h12.15v4.76h-12.15Z"/>
      <path class="st2" d="M295.74,36.02v4.36h2.44v3.29h-2.44v4.53h-8.34v1.38h8.87v2.98h-8.87v1.33h10.51v3.42h-25.28v-3.42h9.93v-1.33h-7.98v-2.98h7.98v-1.38h-7.89v-2.89h7.89v-1.64h-10.2v-3.29h10.2v-1.42h-7.76v-2.93h7.76v-2.44h4.83v2.44h8.34ZM272.73,75.04l-.35-4.22c9.34-.27,17.9-.56,25.68-.89l-.13,4.04c-13.87.62-22.26.98-25.19,1.07ZM274.72,58.64h21.24v10.4h-21.24v-10.4ZM278.89,61.13v1.51h4.21v-1.51h-4.21ZM278.89,65.04v1.47h4.21v-1.47h-4.21ZM287.41,38.95v1.42h3.81v-1.42h-3.81ZM291.22,45.31v-1.64h-3.81v1.64h3.81ZM291.57,62.64v-1.51h-3.99v1.51h3.99ZM291.57,66.51v-1.47h-3.99v1.47h3.99ZM304.35,39.09v25.6h-4.92v-25.6h4.92ZM307.98,34.47h5.1v35.33c0,2.37-.53,3.96-1.6,4.76-.21.12-.42.24-.62.36-1.51.74-4.07,1.1-7.67,1.07-.21-1.57-.75-3.35-1.64-5.33,1.6.06,3.4.09,5.41.09.65-.06.99-.37,1.02-.93v-35.33Z"/>
    </g>
    <g>
      <path class="st1" d="M95.31,166.7l2.82,1.8c-1.77,2.82-4.3,5.37-7.59,7.63,3.61,1.58,7.48,2.69,11.62,3.34-.94.96-1.77,2.15-2.5,3.56-.02.04-.03.08-.03.1-.36-.06-1.39-.31-3.07-.74v11.97h-4.19v-1.09h-11.84v1.22h-3.97v-12.13c-1.66.47-2.91.79-3.75.96-.51-1.39-1.14-2.57-1.89-3.53,4.35-.83,8.36-2.07,12.04-3.72-1.34-1-2.65-2.16-3.91-3.46-1.3,1.18-2.84,2.34-4.61,3.5-.7-.94-1.59-1.85-2.66-2.73-.09-.09-.16-.15-.22-.19,3.46-1.82,6.36-4.23,8.71-7.25.66-.85,1.24-1.7,1.73-2.53l3.68,1.28c-.45.73-.93,1.46-1.44,2.21h10.4l.67-.19ZM77.26,182.16h18.44c-3.48-1.05-6.5-2.3-9.06-3.75-2.67,1.43-5.79,2.68-9.38,3.75ZM80.53,189.83h11.84v-4.11h-11.84v4.11ZM91.66,170.23h-10.05c1.24,1.26,2.91,2.56,5.02,3.88,2.16-1.35,3.83-2.64,5.03-3.88Z"/>
      <path class="st1" d="M134.7,173.15h-8.9c.51,6.86,1.47,11.83,2.88,14.88.7,1.5,1.44,2.26,2.21,2.28.68,0,1.1-1.95,1.25-5.84v-.06c1,1.05,2.1,1.8,3.3,2.25.04.02.07.03.1.03-.32,3.57-1.01,5.84-2.08,6.8-.68.62-1.65.93-2.91.93-3.99,0-6.7-4.76-8.13-14.27-.32-2.14-.57-4.47-.74-6.99h-16.29v-3.82h16.1c-.06-1.77-.1-3.58-.1-5.42h4.19c-.04,2.03-.03,3.84.03,5.42h5.19c-.77-.94-2.05-2.1-3.84-3.46l2.59-2.12c2.03,1.43,3.46,2.64,4.29,3.62l-2.24,1.96h3.1v3.82ZM115.47,180.65v7.22c1.05-.19,3.07-.58,6.08-1.15l.29,3.5c-.53.13-5.65,1.22-15.36,3.27l-1.09-3.91c1.19-.19,3.27-.52,6.21-.99v-7.92h-4.96v-3.79h14.08v3.79h-5.25Z"/>
      <path class="st1" d="M138.31,169.17h10.82v3.08h-10.82v-3.08ZM139.56,182.77h8.71v9.88h-5.7v1.31h-3.01v-11.2ZM148.33,176.71h-8.67v-2.98h8.67v2.98ZM148.33,181.13h-8.67v-2.92h8.67v2.92ZM139.84,164.74h8.39v2.98h-8.39v-2.98ZM142.56,189.6h2.59v-3.79h-2.59v3.79ZM167.44,186.68c-.92,1.35-1.97,2.55-3.17,3.59.49.81,1.05,1.23,1.7,1.25.51-.04.82-.92.93-2.63.62.53,1.36.98,2.21,1.35-.32,2.29-1.06,3.65-2.21,4.07-.38.15-.81.22-1.28.22-1.58-.02-2.87-.8-3.87-2.34-1.17.77-2.28,1.38-3.33,1.83-.47-.71-1.1-1.39-1.89-2.05,1.41-.56,2.77-1.3,4.1-2.25-.45-1.45-.78-3.03-.99-4.72h-3.17v1.25l2.63-.26.06,2.76-2.69.32v2.21c0,1.22-.29,2.03-.86,2.44-.13.09-.27.16-.42.22-.79.3-2.25.45-4.39.45-.13-.75-.45-1.67-.96-2.76.75.02,1.65.03,2.72.03.34-.06.52-.22.54-.48v-1.73c-1.3.17-2.61.33-3.94.48l-.38-2.98c.41-.02,1.08-.08,2.02-.19,1-.08,1.77-.15,2.3-.19v-1.57h-4.1v-2.82h4.1v-1.41c-.7.09-1.73.17-3.07.26-.11-.68-.35-1.43-.74-2.25,3.41-.32,6.07-.78,7.97-1.38l1.99,2.28c-.04-.81-.06-1.43-.06-1.86h3.23c0,1.18.04,2.63.13,4.36h3.36c-.66-.98-1.7-1.99-3.1-3.02l2.21-1.54c1.62,1.11,2.74,2.12,3.36,3.02l-2.14,1.54h2.34v2.82h-5.76c.11.68.26,1.5.45,2.44.71-.77,1.23-1.44,1.57-2.02l2.62,1.25ZM162.54,163.75l3.39.8c-.24.36-.75,1.1-1.54,2.21h3.52v2.6h-7.23v1.22h6.24v2.44h-6.24v1.32h7.91v2.79h-19.53v-2.79h7.87v-1.32h-5.83v-2.44h5.83v-1.22h-6.88v-2.6h3.58c-.32-.64-.74-1.34-1.25-2.08l2.75-.93c.83,1.03,1.45,2.03,1.86,3.02h4.03c.77-1.33,1.27-2.33,1.51-3.02ZM159.24,179.69c-1.05.28-1.97.49-2.79.64v1.86h2.91c-.04-.58-.09-1.41-.13-2.5Z"/>
      <path class="st1" d="M181.67,186.07v3.88c1.62.47,4.04.71,7.27.71,7.43,0,12.05-.04,13.86-.13-.53.81-.94,1.89-1.22,3.24h-12.64c-4.2,0-7.28-.43-9.22-1.28-1.45-.66-2.66-1.64-3.62-2.92-.49,2.1-1.26,3.77-2.3,5.04-.7-1.18-1.45-2.06-2.24-2.66,1.28-1.6,2.02-4.49,2.21-8.66,0-.43.01-.9.03-1.41h3.11c-.04,1.22-.11,2.42-.19,3.59.38.88.95,1.73,1.7,2.57v-7.47h-6.08v-2.82h14.69v2.82h-5.35v2.69h4.71v2.82h-4.71ZM185.57,165.03v10.84h-11.78v-10.84h11.78ZM181.95,169.17v-1.54h-4.67v1.54h4.67ZM181.95,173.24v-1.64h-4.67v1.64h4.67ZM190.53,184.76l3.2,1.03c-1.3,1.69-3.02,3.18-5.15,4.46-.21.11-.41.21-.58.32-.73-.81-1.56-1.56-2.5-2.25,2.24-1.07,3.92-2.26,5.03-3.56ZM187.91,169.62h4.19c.06-.19.16-.51.29-.96.11-.36.19-.63.26-.8h-5.76v-2.73h15.01v2.73h-5.73l-.8,1.76h5.57v14.92h-13.03v-14.92ZM197.32,173.76v-1.51h-5.95v1.51h5.95ZM197.32,177.8v-1.51h-5.95v1.51h5.95ZM197.32,181.87v-1.57h-5.95v1.57h5.95ZM195.14,185.98l2.69-1.41c1.9,1.26,3.44,2.58,4.61,3.95.06.09.12.15.16.19l-2.79,1.64c-1.11-1.39-2.51-2.73-4.19-4.01-.17-.13-.33-.25-.48-.35Z"/>
      <path class="st1" d="M213.41,184.31h1.67c.32,0,.53-.35.64-1.06.06-.56.12-1.62.16-3.21.83.66,1.89,1.17,3.17,1.51.11.02.2.04.29.06-.21,3.02-.78,4.92-1.7,5.71-.53.45-1.27.67-2.21.67h-2.72c-1.64,0-2.71-.44-3.2-1.32-.43-.75-.64-2.04-.64-3.88v-6.03l-3.04.61-.61-3.62,3.65-.71v-8.34h3.84v7.6l6.4-1.22.58,3.56-6.98,1.38v6.77c0,.88.11,1.36.32,1.44.11.04.23.06.38.06ZM217.54,166.15h17.99s-.02.7-.06,2.02c-.21,11.44-.57,18.51-1.06,21.2-.24,1.24-.52,2.12-.86,2.63-.7.98-1.55,1.61-2.53,1.89-.15.02-.3.05-.45.1-.94.15-2.52.18-4.74.1-.09-1.37-.45-2.63-1.09-3.79-.04-.09-.08-.16-.13-.22,1.15.09,2.49.13,4,.13.55-.02.98-.22,1.28-.61.64-.83,1.09-4.74,1.34-11.71.06-2.2.13-4.86.19-7.99h-5.09c-.11,6.1-.6,10.71-1.47,13.86-1.32,4.79-3.86,8.4-7.62,10.84-.56-1.07-1.38-2.04-2.46-2.92-.11-.09-.2-.16-.29-.22,3.48-2.1,5.76-5.29,6.85-9.59.64-2.54,1-6.45,1.09-11.71v-.26h-4.9v-3.75Z"/>
      <path class="st1" d="M267.04,171.19v18.83c0,1.69-.42,2.82-1.25,3.4-.23.17-.49.31-.77.42-1.22.43-3.55.64-7.01.64-.19-1.01-.68-2.27-1.47-3.79,1.17.06,3.07.1,5.7.1.53-.02.83-.2.9-.55.02-.11.03-.2.03-.29v-2.6h-16.39c-1,3.12-2.7,5.53-5.09,7.22-.49-.75-1.24-1.53-2.24-2.34-.21-.17-.38-.3-.51-.39,2.99-2.12,4.66-5.27,5.03-9.46.06-.79.1-1.68.1-2.66v-4.88c-.43.38-1,.86-1.73,1.41-.58-.92-1.34-1.76-2.3-2.53-.17-.13-.32-.23-.45-.32,3.5-2.37,6.21-5.39,8.13-9.05.15-.26.28-.5.38-.74l4.16.71c-.28.56-.49.96-.64,1.22h6.5l.61-.16,2.66,1.73c-.81,1.41-1.7,2.77-2.66,4.07h8.32ZM253.44,180.88h-5.63c-.04,1.2-.13,2.23-.26,3.11h5.89v-3.11ZM256,168.72h-6.4c-.7,1.01-1.33,1.83-1.89,2.47h6.75c.73-1.09,1.24-1.91,1.54-2.47ZM247.84,174.62v2.98h5.6v-2.98h-5.6ZM263.17,177.61v-2.98h-6.02v2.98h6.02ZM257.15,183.99h6.02v-3.11h-6.02v3.11Z"/>
      <path class="st1" d="M286.2,174.33c2.05,1.67,4.24,3.85,6.56,6.54.21.24.4.46.58.67l-3.52,3.02c-2.11-2.61-4.46-5.01-7.04-7.22l3.42-3.02Z"/>
      <path class="st1" d="M332.47,191.3h3.97v2.53h-29.67v-2.53h3.46c-.62-.75-1.13-1.27-1.54-1.57,2.39-1.07,3.97-2.48,4.74-4.23h-4.83v-2.44h26.06v2.44h-6.79l2.3.32c-.19.71-.4,1.29-.61,1.76,1.67.64,2.99,1.27,3.97,1.89l-1.06,1.83ZM310.36,170.16v3.08h-3.14v-5.2h12.39v-1.03h-9.89v-2.28h23.81v2.28h-10.24v1.03h12.68v5.2h-3.3v-3.08h-9.38v5.87h-3.68v-5.87h-9.25ZM308.56,182.1v-5.32h7.81v5.32h-7.81ZM318.58,173.82v1.8h-7.87v-1.8h7.87ZM311.19,178.54v1.73h2.37v-1.73h-2.37ZM318.62,171.09v1.8h-7.14v-1.8h7.14ZM311.48,191.3h5.57c-1.04-.73-2.11-1.35-3.2-1.86-.79.79-1.58,1.41-2.37,1.86ZM319.61,185.5h-6.02l2.59.48c-.19.51-.48,1.07-.86,1.67,1.34.6,2.52,1.26,3.52,1.99l-1.15,1.67h1.92v-5.81ZM325.59,176.77v5.32h-7.94v-5.32h7.94ZM322.81,180.27v-1.73h-2.5v1.73h2.5ZM323.29,191.3h1.98c-.49-.66-1.02-1.23-1.6-1.7,1.96-.98,3.19-2.35,3.68-4.11h-4.07v5.81ZM324.31,171.09h7.3v1.8h-7.3v-1.8ZM332.28,173.82v1.8h-7.97v-1.8h7.97ZM326.2,191.3h5.47c-.96-.6-2.1-1.18-3.43-1.73-.62.68-1.3,1.26-2.05,1.73ZM334.87,176.77v5.32h-8.07v-5.32h8.07ZM332.06,180.27v-1.73h-2.56v1.73h2.56Z"/>
      <path class="st1" d="M346.13,169.87v1.92c-.02,5.99-1.26,10.47-3.71,13.44-.53-.68-1.31-1.37-2.34-2.05-.19-.13-.35-.22-.48-.29,1.99-2.46,2.98-6.18,2.98-11.16v-4.94h13.92c-.11-1.05-.17-2.06-.19-3.05h3.68c.04,1.05.11,2.06.19,3.05h3.46c-1.05-.53-1.93-.94-2.66-1.22l1.95-2.15c1.86.53,3.34,1.24,4.45,2.12.04.02.07.04.1.06l-.99,1.19h3.01v3.08h-8.9c.28,1.6.73,3.31,1.34,5.13.85-1.35,1.51-2.78,1.98-4.3l3.62.83c-.92,2.59-2.19,4.98-3.81,7.19.94,1.37,1.85,2.06,2.72,2.08.49-.02.82-.69.99-2.02.06-.51.12-1.16.16-1.92.96.83,1.94,1.41,2.95,1.73-.32,2.74-.95,4.45-1.89,5.13-.58.41-1.38.61-2.4.61-1.81-.02-3.47-.96-4.96-2.82-1.05,1.01-2.07,1.85-3.07,2.53-.51-.71-1.15-1.4-1.92-2.08v.58h-2.11c1.92,1.07,3.44,2.22,4.54,3.46.04.04.08.09.13.13l-2.69,2.31c-.9-1.18-2.41-2.44-4.54-3.79-.13-.08-.25-.16-.35-.22l2.24-1.89h-6.5v-7.09h9.28v5.39c1.07-.71,2.09-1.55,3.07-2.53-1.13-2.48-1.95-5.29-2.46-8.44h-10.79ZM343.09,193.74l-3.2-2.18c1.86-1.45,3.16-3.42,3.91-5.9.04-.15.08-.28.1-.39l3.46,1.25c-.96,3.34-2.38,5.74-4.26,7.22ZM356.53,171.38v2.5h-9.63v-2.5h9.63ZM353.91,190.5h4.45c.68,0,1.11-.18,1.28-.55.17-.38.3-1.18.38-2.37.77.58,1.9,1.04,3.39,1.38-.23,2.27-.79,3.72-1.66,4.36-.66.45-1.66.67-3.01.67h-5.25c-2.3,0-3.8-.42-4.48-1.25-.49-.64-.74-1.7-.74-3.18v-4.27h3.87v4.23c0,.49.15.78.45.87.23.06.67.1,1.31.1ZM353.11,180.04v-2.09h-2.98v2.09h2.98ZM362.01,186.43l3.27-1.64c2.09,1.86,3.68,3.8,4.77,5.81.19.36.35.71.48,1.03l-3.52,1.76c-.64-1.75-1.96-3.72-3.97-5.9-.34-.38-.68-.74-1.02-1.06Z"/>
      <path class="st1" d="M400.69,167.18l2.82,2.02c-1.02.9-2.27,1.88-3.75,2.95,1.3.68,2.82,1.25,4.55,1.7-.77.73-1.54,1.75-2.3,3.08-1.17-.38-2.41-.9-3.71-1.54v3.02c0,.47.02.74.06.8.11.09.22.13.35.13h.58c.23,0,.37-.01.42-.03.15-.11.26-.24.32-.39.04-.21.08-.72.13-1.51.6.58,1.48,1.05,2.66,1.41.02.02.04.03.06.03-.17,1.11-.33,1.81-.48,2.08-.28.45-.68.76-1.22.93-.41.15-.93.22-1.57.22h-1.66c-.98-.02-1.71-.26-2.18-.71-.45-.45-.69-1.28-.74-2.5v-2.44h-2.98c-.15,2.89-1.34,5.06-3.58,6.51-.55-.79-1.24-1.52-2.05-2.18v1.44h-3.42v-.38h-3.36c-.13.73-.27,1.42-.42,2.08h7.27s-.02.48-.06,1.38c-.3,3.98-.74,6.44-1.31,7.38-.11.17-.21.31-.32.42-.58.64-1.41,1.02-2.5,1.12h-.13c-.96.08-2.41.1-4.35.03-.13-1.26-.5-2.35-1.12-3.27,1.37.11,2.69.16,3.97.16.55-.02.96-.13,1.22-.32.41-.41.71-1.76.93-4.07h-4.23l-.22.8-3.11-.48c.77-2.89,1.33-5.59,1.7-8.12h6.05v-2.31h-5.41v-.22c-.9.41-1.67.73-2.3.96-.66-1.13-1.36-2.08-2.08-2.85,1.92-.56,3.75-1.39,5.47-2.5-1.28-.92-2.29-1.58-3.04-1.99l2.21-2.05c1.43.71,2.58,1.39,3.46,2.05.73-.64,1.37-1.34,1.92-2.08h-6.47v-3.05h8.55l.67-.19,2.4,1.19c-1.3,3.06-3.35,5.65-6.15,7.76h4.19v6.61c1.56-1.13,2.36-2.61,2.4-4.43v-2.34h6.5c-2.94-2.29-5.23-5.25-6.85-8.89l3.1-.87c.55,1.2,1.18,2.26,1.89,3.18,1.39-1.18,2.41-2.17,3.07-2.98l2.78,1.99c-1.71,1.41-3.02,2.46-3.94,3.14.58.54,1.16,1.03,1.76,1.48,1.45-1.15,2.63-2.28,3.55-3.37ZM398.96,182.96l2.14.67c-.81,2.48-2.07,4.54-3.78,6.19,1.64.71,3.55,1.19,5.73,1.44-.85.83-1.61,1.88-2.27,3.14-2.43-.47-4.59-1.27-6.47-2.41-1.88,1.07-4.13,1.87-6.75,2.41-.34-.92-.89-1.86-1.63-2.82,2.24-.39,4.12-.94,5.63-1.67-1.04-1.03-1.95-2.26-2.72-3.69l2.14-.58h-3.17v-2.6h10.56l.58-.1ZM396.66,185.66h-4.74c.6.92,1.41,1.76,2.43,2.53.98-.79,1.75-1.64,2.3-2.53Z"/>
      <path class="st1" d="M413.03,183.44v-6.48c-1.22,2.05-2.45,3.65-3.71,4.78-.6-.94-1.37-1.8-2.3-2.57-.06-.06-.12-.11-.16-.13,1.92-1.41,3.58-3.46,4.99-6.16.21-.38.41-.77.58-1.15h-4.77v-3.34h5.38v-4.62h3.71v4.62h4.61v3.34h-4.61v1.19c1.34.79,3.02,1.96,5.03,3.5.06.06.12.11.16.13l-2.05,3.11c-.79-.85-1.83-1.88-3.14-3.08v6.87h-3.71ZM410.63,192.62l-3.55-1.8c1.26-1.84,2.2-4.04,2.82-6.61.02-.04.03-.08.03-.13l3.46,1.38c-.88,3.19-1.79,5.57-2.75,7.15ZM420.56,190.31h5.22c.79,0,1.29-.22,1.5-.67.23-.47.39-1.51.48-3.11.81.62,1.93,1.07,3.36,1.35.06.02.12.03.16.03-.26,2.54-.81,4.19-1.67,4.94-.73.62-1.9.93-3.52.93h-5.92c-2.48,0-4.08-.45-4.8-1.35-.51-.66-.77-1.72-.77-3.18v-4.49h3.84v4.43c0,.56.19.89.58.99.3.09.81.13,1.54.13ZM419.31,184.34l2.69-2.18.64.61v-17.39h13.32v17.68h-13c1.66,1.56,2.83,2.72,3.49,3.46l-2.82,2.37c-1-1.26-2.44-2.78-4.32-4.56ZM426.19,168.46v1.92h6.02v-1.92h-6.02ZM426.19,173.27v1.89h6.02v-1.89h-6.02ZM426.19,178.02v1.99h6.02v-1.99h-6.02ZM430.35,185.21l3.39-1.57c2.28,3.53,3.65,5.71,4.1,6.54l-3.62,1.86c-.32-.68-1.52-2.79-3.58-6.32-.11-.19-.2-.36-.29-.51Z"/>
      <path class="st1" d="M82.64,216.99l.48,3.56-3.84,1.06v7.83c0,1.58-.35,2.63-1.06,3.14-.13.11-.27.19-.42.26-.9.49-2.55.74-4.96.74-.15-1.11-.52-2.3-1.12-3.56.88.02,1.91.03,3.1.03.38-.04.59-.25.61-.61v-6.8l-3.49.87-.99-3.72c.6-.13,2.09-.47,4.48-1.03v-5.74h-4.07v-3.62h4.07v-6.19h3.84v6.19h3.49v3.62h-3.49v4.78l3.36-.8ZM96.75,215.04l3.2,1.96c-1.39,3.1-3.35,6.02-5.89,8.76.94,1.88,2.02,2.92,3.23,3.11.43.04.76-.43.99-1.41.17-.81.31-2.01.42-3.59.66.75,1.68,1.47,3.04,2.15.08.04.15.08.19.1-.7,5-2.11,7.5-4.23,7.47h-.22c-2.73-.3-4.91-1.92-6.53-4.88-2.01,1.73-4.04,3.08-6.11,4.04-.81-1.09-1.86-2.1-3.14-3.02,2.71-1.09,5.28-2.68,7.71-4.78-.77-2.52-1.38-5.78-1.82-9.78l-4.06.45-.38-3.75,4.13-.39c-.21-2.78-.36-5.5-.45-8.15h4c.02,2.31.13,4.9.32,7.76l9.86-.93.35,3.62-9.86.99c.28,2.48.67,4.76,1.18,6.83,1.71-2.07,3.06-4.27,4.07-6.58ZM99.44,208.2l-3.17,2.21c-.73-1.11-2.12-2.78-4.19-5l2.94-1.92c2.37,2.37,3.84,3.95,4.42,4.72Z"/>
      <path class="st1" d="M129.13,219.91h4.07v13.89h-4.07v-1.86h-18.18v1.89h-3.97v-13.92h3.97v8.18h6.85v-9.91h-9.51v-11.93h3.87v8.12h5.63v-10.87h4v10.87h5.99v-8.12h4.1v11.93h-10.08v9.91h7.33v-8.18Z"/>
      <path class="st1" d="M149.54,222.51c-.6.94-1.26,1.78-1.98,2.5-.85-.77-1.81-1.46-2.88-2.08,1.73-1.52,3.02-3.52,3.87-6h-3.87v2.34c-.02,6.67-1.23,11.66-3.62,14.95-.58-.71-1.45-1.43-2.62-2.18-.17-.11-.31-.19-.42-.26,1.9-2.82,2.86-7,2.88-12.54v-5.49h4.1c-.32-.58-.67-1.12-1.06-1.64,1.94-.28,4.03-.67,6.27-1.19-2.3-.6-3.99-1.02-5.06-1.25l1.7-1.22h-6.18v-3.08h10.92v-2.18h3.87v2.18h11.49v3.08h-5.31l.7.38c-1.09.71-2.34,1.35-3.74,1.92,1.3.38,2.92.92,4.87,1.6l-1.63,1.38h6.69v3.18h-19.97l3.42.8c-.21.62-.45,1.2-.7,1.73h3.65v-2.18h3.81v2.18h7.94v3.05h-7.94v2.08h6.95v2.98h-6.95v2.47h9.54v3.18h-23.01v-3.18h9.67v-2.47h-6.88v-2.98h6.88v-2.08h-5.38ZM154.7,212.21c-2.01.62-3.94,1.13-5.79,1.54h10.53c-1.98-.68-3.56-1.2-4.74-1.54ZM154.73,209.65c1-.3,2.06-.69,3.17-1.19h-7.91c1.34.32,2.92.72,4.74,1.19Z"/>
      <path class="st1" d="M173.18,233.83v-14.79h12.48v14.63h-3.91v-1.48h-4.9v1.64h-3.68ZM181.76,222.8h-4.9v5.65h4.9v-5.65ZM196.9,204.45v11.87h-19.21v-11.87h19.21ZM192.93,212.63v-4.46h-11.46v4.46h11.46ZM188.45,219.04h12.87v14.66h-3.94v-1.51h-5.19v1.64h-3.75v-14.79ZM192.2,228.44h5.19v-5.65h-5.19v5.65Z"/>
      <path class="st1" d="M214.3,222.48h4.07c-.21,3.08-.78,5.35-1.7,6.8-1.3,2.01-3.82,3.44-7.55,4.3-.53.13-1.09.25-1.66.35-.34-1.09-.95-2.16-1.82-3.21-.06-.06-.12-.12-.16-.16,3.71-.56,6.16-1.5,7.33-2.82.79-.92,1.27-2.43,1.44-4.52.02-.23.04-.48.06-.74ZM235.43,205.64v3.24h-29.19v-3.24h12.39v-2.5h4.07v2.5h12.74ZM235.24,225.4h-3.62v-3.79h-21.86v3.79h-3.49v-6.74h28.97v6.74ZM210.65,210.19h20.45v7.12h-20.45v-7.12ZM226.91,214.71v-1.96h-12.39v1.96h12.39ZM227.81,230.21h3.04c.53,0,.87-.23,1.02-.71.13-.45.22-1.34.29-2.66.9.64,2.1,1.14,3.62,1.51-.23,2.44-.8,4-1.7,4.68-.64.45-1.57.67-2.78.67h-4.16c-2.16,0-3.54-.43-4.16-1.28-.47-.66-.7-1.75-.7-3.27v-6.58h4.22v6.54c0,.6.14.94.42,1.03.17.04.47.06.9.06Z"/>
      <path class="st1" d="M241.31,233.83l-2.5-1.32c1.13-1.35,1.87-3.28,2.21-5.81l2.62.77c-.51,3.08-1.29,5.2-2.34,6.35ZM239.61,225.94l-.1-3.27c.66-.02,2.6-.07,5.83-.16v-1.57h-5.03v-2.98h5.03v-1.44h-5.09v-12.38h13.86v12.38h-5.31v1.44h5.25v2.98h-5.25v1.44c.64-.02,1.6-.06,2.88-.13,1.3-.04,2.26-.07,2.88-.1l-.06,3.02c-5.63.34-10.59.6-14.88.77ZM243.16,208.36v5.55h2.75v-7.15h-2.75v1.38l1.54-.45c.6,1.78.95,3.35,1.06,4.72l-1.76.55c-.08-1.5-.36-3.03-.83-4.59ZM243.87,226.9l2.4-.29c.43,2.07.66,3.99.71,5.74l-2.53.29c.06-1.52-.13-3.43-.58-5.74ZM247.16,226.78l2.3-.45c.75,2.12,1.22,3.94,1.41,5.45l-2.37.48c-.17-1.6-.62-3.43-1.34-5.49ZM251.1,208.2v-1.44h-2.82v5.42c.6-1.75,1-3.26,1.22-4.52l1.6.55ZM248.28,213.91h2.82v-4.68c-.49,1.3-.99,2.56-1.5,3.75l-1.31-.51v1.44ZM250.33,226.49l2.34-.87c1.22,1.78,2.06,3.48,2.53,5.1l-2.46,1.03c-.45-1.67-1.25-3.42-2.4-5.26ZM269.66,213.53h-6.31v5.07h5.22v15.08h-3.71v-1.16h-6.08v1.28h-3.52v-15.21h4.29v-15.4h3.81v6.74h6.31v3.59ZM264.86,229.02v-6.86h-6.08v6.86h6.08Z"/>
      <path class="st1" d="M286.2,213.75c2.05,1.67,4.24,3.85,6.56,6.54.21.24.4.46.58.67l-3.52,3.02c-2.11-2.61-4.46-5.01-7.04-7.22l3.42-3.02Z"/>
      <path class="st1" d="M336.96,212.73h-2.46c-.77,5.03-1.98,9.07-3.65,12.13,1.75,2.44,3.92,4.25,6.5,5.42-.98.85-1.85,1.91-2.59,3.18-.04.08-.08.15-.1.19-2.5-1.3-4.55-3.07-6.15-5.29-1.77,2.2-4.12,4.05-7.04,5.55-.38-.94-1.06-2.02-2.02-3.24-.06-.06-.12-.12-.16-.16,3.05-1.39,5.42-3.26,7.11-5.61-1-2.01-1.82-4.22-2.46-6.64-.34.6-.8,1.29-1.38,2.09-.32-.34-1.21-1.07-2.66-2.18-.13,7.04-.35,11.28-.67,12.74-.15.58-.32,1-.51,1.28-.53.77-1.26,1.24-2.18,1.41-.7.13-1.87.17-3.49.13-.13-1.28-.47-2.47-1.02-3.56.73.06,1.56.1,2.5.1.41,0,.73-.16.96-.48.36-.58.61-4.17.74-10.78v-.45h-2.75c-.02,4.96-.85,8.93-2.5,11.9-.64,1.18-1.41,2.26-2.3,3.24-.64-.86-1.6-1.71-2.88-2.57,2.41-2.78,3.73-6.42,3.97-10.91.02-.64.03-1.34.03-2.09v-6.35h-3.2v-3.62h5.15v-4.97h3.87v4.97h5.41v3.62h-7.55v3.21h6.5s-.01.53-.03,1.54v.35c2.13-3.04,3.65-7.6,4.55-13.7l4.03.54c-.24,1.41-.61,3.21-1.12,5.39h9.57v3.62ZM326.3,212.73l-.06.22c.58,2.97,1.37,5.6,2.37,7.89.94-2.35,1.62-5.06,2.05-8.12h-4.35Z"/>
      <path class="st1" d="M369.75,216h-11.55c2.28,6.72,6.15,11.3,11.59,13.76.23.11.46.2.67.29-.94.79-1.85,1.91-2.72,3.37-.06.13-.12.23-.16.32-5.38-2.52-9.41-7-12.1-13.44-.06-.17-.13-.33-.19-.48-2.07,6.35-6.16,11-12.26,13.95-.73-1.28-1.67-2.36-2.82-3.24-.04-.02-.08-.04-.1-.06,6.4-2.87,10.37-7.69,11.91-14.47h-11.3v-4.04h11.94c.17-1.58.28-4.5.32-8.76h4.29c-.04,3.61-.18,6.53-.42,8.76h12.9v4.04Z"/>
      <path class="st1" d="M379.34,203.2l3.62,1.06c-.75,2.2-1.58,4.33-2.5,6.38v23.16h-3.71v-16.42c-.64.98-1.31,1.88-2.02,2.69-.38-1.22-.97-2.54-1.76-3.98-.04-.09-.09-.16-.13-.22,2.39-2.76,4.36-6.38,5.92-10.88.21-.62.4-1.22.58-1.8ZM399.35,224.59l2.3,1.32c-1.05,1.56-2.52,2.9-4.42,4.01,2.45.45,4.85.74,7.2.87-.77.83-1.44,1.87-2.02,3.11-3.84-.38-7.02-1.06-9.54-2.02-2.56.9-5.68,1.59-9.35,2.08-.41-.96-1.02-1.9-1.86-2.82,2.3-.21,4.76-.61,7.36-1.19-.64-.41-1.39-.99-2.24-1.76-1,.49-2.02.93-3.04,1.32-.51-.9-1.16-1.65-1.95-2.25-.06-.04-.12-.08-.16-.13,3.33-.98,5.87-2.25,7.62-3.79-.58-.32-.89-1-.93-2.05v-.16c-1.02,1.37-2.08,2.44-3.17,3.21l-2.27-1.83c.55-.32,1.12-.75,1.7-1.28h-2.46v-4.72h2.98v-8.08h5.41c.04-.13.08-.33.13-.61.06-.26.11-.44.13-.55h-7.49v-2.79h20.1v2.79h-8.58l-.51,1.15h7.01v8.08h2.75v4.72h-2.05c.64.73,1.08,1.28,1.31,1.67l-2.53,1.35c-.36-.64-1.07-1.53-2.11-2.66-.19,1.13-.7,1.82-1.54,2.05-.36.11-.82.16-1.38.16h-2.75c-.28.3-.61.61-.99.93h6.66l.67-.13ZM388.34,219.27h3.04v1.67c0,.43.14.67.42.74.15.02.37.03.67.03h2.88c.43,0,.69-.16.8-.48.04-.17.09-.38.13-.64.64.34,1.35.58,2.14.71-.43-.43-.74-.73-.93-.9l2.4-1.22c.3.26.53.47.7.64v-1.06h-5.7c.51.45.93.89,1.25,1.32l-2.34,1.38c-.49-.79-1.4-1.69-2.72-2.69h-5.63v1.57c.26-.3.52-.64.8-1.03l2.08,1.12v-1.15ZM397.68,210.32h-9.09v.99h9.09v-.99ZM397.68,213.94v-1.06h-9.09v1.06h9.09ZM388.59,215.52v.99h9.09v-.99h-9.09ZM396.4,226.94h-6.56c.88.68,1.95,1.27,3.23,1.76,1.24-.47,2.35-1.06,3.33-1.76Z"/>
      <path class="st1" d="M429.39,206.66h5.51c-.06,6.54.03,10.43.29,11.64.13.56.29.84.48.87.21.02.35-.53.42-1.67.02-.53.04-1.23.06-2.08.6.79,1.3,1.53,2.11,2.21-.19,2.35-.63,3.83-1.31,4.43-.41.34-.93.51-1.57.51-1.73,0-2.86-1.55-3.39-4.65-.3-1.8-.47-4.5-.51-8.12h-2.24c-.15,1.56-.33,2.85-.54,3.88,1.32.81,2.33,1.54,3.01,2.18l-1.67,2.79c-.62-.62-1.39-1.23-2.3-1.83-.92,2.1-2.27,3.76-4.07,5-.45-.88-1.07-1.62-1.86-2.25v1.57c-2.11.15-5.23.36-9.35.64h-.26l-.03.03h-.48l-.03.03h-.42l-.03.03h-.45l-.03.03h-.45l-.03.03h-.45l-.03.03h-.42l-.06.03h-.42l-.03.03h-.42l-.06.03h-.42l-.03.03h-.22l-.19-2.73c.53-.02,1.41-.06,2.62-.13,1.32-.09,2.34-.14,3.04-.16v-1.54h-4.38v-2.28h4.38v-1.48h3.14c-.43-.36-.64-1.09-.64-2.18v-.9h-1.67c-.68,2.14-2.43,3.62-5.25,4.46-.41-.88-.89-1.62-1.44-2.25,2.07-.41,3.34-1.14,3.81-2.21h-3.42v-2.47h5.47v-1.15h-4.45v-2.31h4.45v-1.64h3.55v1.64h4.55v2.31h-4.55v1.15h5.7v2.47h-3.87v.9c.11.41.22.62.35.64h.8c.23,0,.38-.15.45-.45.04-.15.08-.36.1-.64.53.32,1.29.58,2.27.77-.15,1.28-.65,2.03-1.5,2.25-.26.06-.55.1-.9.1h-1.7c-.77,0-1.33-.07-1.7-.22v1.22h4.58v2.28h-4.58v1.35l5.09-.29v.58c1.39-1.03,2.42-2.4,3.1-4.11-.88-.49-1.76-.94-2.66-1.35l1.57-2.44c.41.15,1.02.42,1.86.8.17-1.39.27-2.16.29-2.31h-2.95v-3.14h3.11c.04-1.5.06-2.66.06-3.5h3.3c-.06,2.27-.1,3.43-.1,3.5ZM423.92,223.57h11.01s-.05.52-.16,1.51c-.41,4.02-1.01,6.48-1.82,7.38-.04.06-.08.12-.13.16-.73.68-1.69,1.06-2.88,1.12-.9.08-2.46.11-4.71.06-.04-1.2-.42-2.37-1.12-3.53,1.56.15,2.93.22,4.13.22.6-.02,1.04-.14,1.31-.35.45-.38.82-1.59,1.12-3.62h-7.52c-.88,2.29-2.54,4.02-4.99,5.2-2.07.96-4.92,1.69-8.55,2.18-.24-.86-.83-1.91-1.79-3.18,4.99-.56,8.32-1.55,9.99-2.98.43-.39.78-.79,1.06-1.22h-9.09v-2.95h10.18c.11-.62.19-1.18.26-1.67h3.94c-.11.86-.18,1.41-.22,1.67Z"/>
    </g>
  </g>
</svg>