<?xml version="1.0" encoding="UTF-8"?>
<svg id="_圖層_1" data-name="圖層 1" xmlns="http://www.w3.org/2000/svg" xmlns:xlink="http://www.w3.org/1999/xlink" viewBox="0 0 820.98 228.23">
  <defs>
    <style>
      .cls-1 {
        fill: none;
      }

      .cls-2 {
        fill: #ed781e;
      }

      .cls-3, .cls-4 {
        fill: #fff;
      }

      .cls-5 {
        fill: url(#_未命名漸層_2);
      }

      .cls-4 {
        stroke: #fff;
        stroke-miterlimit: 10;
      }
    </style>
    <linearGradient id="_未命名漸層_2" data-name="未命名漸層 2" x1="-97.71" y1="233.41" x2="868.48" y2="233.41" gradientUnits="userSpaceOnUse">
      <stop offset=".21" stop-color="#fff"/>
      <stop offset=".51" stop-color="#e9eaea"/>
      <stop offset=".77" stop-color="#dbdcdc"/>
    </linearGradient>
  </defs>
  <rect class="cls-5" x="-244.56" y="-28.53" width="1615.26" height="523.89"/>
  <ellipse class="cls-2" cx="410.7" cy=".47" rx="1007.81" ry="417.3"/>
  <rect class="cls-1" x="-244.56" y="-557.84" width="1215.82" height="1267.05"/>
  <g>
    <path class="cls-3" d="M34.75,36.59V5.47h8.87c7.62,0,11.52,2.91,11.68,8.74v.41c0,4.47-2,7.4-6.01,8.78-1.57.55-3.38.83-5.43.83h-5.14v12.35h-3.98ZM38.73,21.05h4.6c4.47,0,7.08-1.42,7.83-4.27.17-.64.25-1.35.25-2.15,0-2.84-1.22-4.65-3.65-5.43-1.19-.36-2.72-.54-4.6-.54h-4.43v12.39Z"/>
    <path class="cls-3" d="M64.23,8.79c-1.22,0-2.03-.5-2.44-1.49-.14-.33-.21-.66-.21-.99,0-1.24.57-2.04,1.7-2.4.33-.08.65-.12.95-.12,1.27,0,2.11.51,2.53,1.53.11.33.17.66.17.99,0,1.11-.52,1.86-1.57,2.28-.36.14-.73.21-1.12.21ZM62.29,36.59V13.55h3.85v23.04h-3.85Z"/>
    <path class="cls-3" d="M84.06,37.13c-3.51,0-6.27-1.28-8.29-3.85-1.69-2.18-2.53-4.92-2.53-8.2,0-4.14,1.38-7.36,4.14-9.65,2.02-1.63,4.35-2.44,7-2.44,2.43.03,4.67.93,6.71,2.69l-1.99,2.61c-1.57-1.41-3.11-2.11-4.6-2.11-2.43,0-4.34,1.08-5.72,3.23-.99,1.6-1.49,3.49-1.49,5.68,0,3.37,1.02,5.86,3.07,7.46,1.16.91,2.51,1.37,4.06,1.37,1.96-.03,3.77-.79,5.43-2.28l1.66,2.61c-2.13,1.93-4.61,2.9-7.46,2.9Z"/>
    <path class="cls-3" d="M97.64,36.59V2.82h3.81v22.91h.08l9.9-12.18h4.27l-7.71,9.24,8.74,13.8h-4.18l-6.75-11.1-4.35,5.05v6.05h-3.81Z"/>
    <path class="cls-3" d="M122.11,36.59V13.55h3.19l.33,3.36h.12c2.4-2.6,4.79-3.91,7.17-3.94,3.23.03,5.36,1.49,6.38,4.39,2.71-2.9,5.23-4.36,7.58-4.39,4.64.06,6.97,3.07,7,9.03v14.58h-3.85v-14.09c0-3.45-.95-5.44-2.86-5.97-.44-.11-.91-.17-1.41-.17-1.77.03-3.72,1.2-5.84,3.52v16.7h-3.85v-14.09c0-3.45-.95-5.44-2.86-5.97-.44-.11-.91-.17-1.41-.17-1.82.03-3.77,1.2-5.84,3.52v16.7h-3.85Z"/>
    <path class="cls-3" d="M171.73,37.13c-3.45,0-6.22-1.24-8.29-3.73-1.82-2.21-2.73-4.99-2.73-8.33,0-3.98,1.27-7.13,3.81-9.45,1.93-1.77,4.13-2.65,6.59-2.65,3.73,0,6.37,1.56,7.91,4.68.83,1.74,1.24,3.78,1.24,6.13,0,.75-.06,1.48-.17,2.2h-15.54c.17,3.2,1.35,5.51,3.56,6.92,1.19.77,2.55,1.16,4.1,1.16,2.07-.03,3.99-.64,5.76-1.82l1.41,2.53c-2.43,1.57-4.99,2.36-7.67,2.36ZM164.52,23.21h12.35c0-3.84-1.3-6.15-3.9-6.92-.58-.17-1.19-.25-1.82-.25-2.18,0-3.91.97-5.18,2.9-.8,1.22-1.28,2.64-1.45,4.27Z"/>
    <path class="cls-3" d="M223.54,8.08h-29.21v10.36c-.03,9.83-2.13,16.97-6.3,21.42-.53-.75-1.19-1.41-1.99-1.99-.08-.06-.15-.1-.21-.12,2.79-3.07,4.52-7.33,5.18-12.8-.5.3-2.32,1.4-5.47,3.27l-1.04-2.86c1.1-.47,3.37-1.63,6.79-3.48.06-.83.08-1.97.08-3.44V5.27h13.38V1.12h3.27v4.14h15.5v2.82ZM190.64,16.7l-2.49,1.28c-.41-2.29-1.37-4.81-2.86-7.54-.08-.17-.15-.3-.21-.41l2.32-1.12c1.55,2.6,2.6,5.08,3.15,7.46.03.14.05.25.08.33ZM207.76,25.61v-7.04c-3.26,2.32-6.82,4.3-10.69,5.92-.58-.88-1.27-1.68-2.07-2.4,5.47-1.93,9.99-4.47,13.55-7.62.14-.14.28-.26.41-.37h-12.06v-2.65h26.14v2.65h-10.15c-.61.69-1.31,1.37-2.11,2.03v9.49h-3.02ZM198.85,39.78v-13.26h21.54v13.13h-3.19v-1.45h-15.29v1.57h-3.07ZM217.2,29.17h-15.29v6.34h15.29v-6.34ZM211.94,18.32l1.95-1.86c3.92,1.85,7.11,3.73,9.57,5.63.17.14.32.26.46.37l-2.07,2.11c-2.02-1.77-5-3.69-8.95-5.76-.33-.19-.65-.36-.95-.5Z"/>
    <path class="cls-3" d="M266.33,20.47h-14.42c2.71,4.12,6.2,7.8,10.48,11.06,1.74,1.33,3.42,2.42,5.05,3.27-.86.72-1.64,1.63-2.36,2.73-4.31-2.6-8.37-6.2-12.18-10.81-1.33-1.63-2.5-3.25-3.52-4.85v17.98h-3.27v-17.86c-3.04,4.97-6.89,9.32-11.56,13.05-1.35,1.1-2.69,2.06-4.02,2.86-.5-.75-1.24-1.63-2.24-2.65,4.06-2.21,7.87-5.39,11.44-9.53,1.52-1.77,2.82-3.52,3.89-5.26h-14.42v-3.11h16.9V1.17h3.27v16.2h16.95v3.11ZM240.51,13.39l-3.07,1.37c-.97-2.62-2.6-5.55-4.89-8.78-.3-.41-.59-.8-.87-1.16l2.82-1.2c2.68,3.4,4.61,6.48,5.8,9.24.08.19.15.37.21.54ZM260.98,3.24l3.4,1.37c-2.38,4.17-4.67,7.67-6.88,10.48l-2.69-1.24c2.18-2.9,4.14-6.21,5.88-9.94.11-.25.21-.47.29-.66Z"/>
    <path class="cls-3" d="M274.26,3.03h34.1v36.63h-3.02v-1.99h-28.13v2.2h-2.94V3.03ZM277.21,35.1h28.13V5.52h-28.13v29.58ZM303.93,26.19v1.95h-6.05v3.94c0,.99-.26,1.6-.79,1.82-.17.08-.32.14-.46.17-.66.19-2.35.29-5.06.29-.14-.55-.39-1.15-.75-1.78,1.96.06,3.2.06,3.73,0,.39-.05.59-.25.62-.58v-3.85h-16.53v-1.95h16.53v-1.57h2.69v1.57h6.05ZM289.8,11.94v-1.78h-10.65v-1.95h10.65v-1.99h2.69v1.99h10.86v1.95h-10.86v1.78h9.36v8.49h-3.4c2.07,1.46,3.6,2.85,4.6,4.14l-1.78,1.33c-.39-.5-.95-1.12-1.7-1.86-6.66.22-13.4.41-20.22.58l-.12-1.99c1.71,0,5.23-.03,10.57-.08v-2.11h-8.99v-8.49h8.99ZM283.13,29.42l2.07-1.08c1.66,1.27,2.89,2.51,3.69,3.73.03.06.05.1.08.12l-2.2,1.24c-.61-1.08-1.82-2.42-3.65-4.02ZM283.3,13.55v1.82h6.51v-1.82h-6.51ZM283.3,18.82h6.51v-1.86h-6.51v1.86ZM299.21,13.55h-6.71v1.82h6.71v-1.82ZM299.21,18.82v-1.86h-6.71v1.86h6.71ZM292.49,22.5l5.22-.12c-.11-.11-.46-.37-1.04-.79l1.7-1.16h-5.88v2.07Z"/>
    <path class="cls-3" d="M353.92,16c-1.05,1.05-2.2,2.11-3.44,3.17-1.24,1.06-2.42,2.02-3.52,2.88.91,2.29,1.99,4.34,3.23,6.13,1.24,1.8,2.68,3.27,4.31,4.43-.3.25-.68.61-1.12,1.1-.44.48-.77.92-.99,1.31-1.49-1.16-2.82-2.56-3.98-4.21-1.16-1.64-2.19-3.47-3.09-5.49-.9-2.02-1.67-4.2-2.32-6.55-.65-2.35-1.2-4.81-1.64-7.38-1.1,1.24-2.39,2.42-3.85,3.52,1.33,1.19,2.44,2.51,3.33,3.98.9,1.46,1.62,2.96,2.15,4.5s.9,3.06,1.1,4.58c.19,1.52.25,2.94.17,4.27-.08,1.33-.3,2.5-.66,3.52-.36,1.02-.83,1.8-1.41,2.32-.58.61-1.18,1.02-1.8,1.24-.62.22-1.37.34-2.26.37-.39,0-.84,0-1.35-.02-.51-.01-1.04-.05-1.6-.1-.03-.39-.1-.86-.21-1.43-.11-.57-.32-1.06-.62-1.47.63.06,1.23.1,1.78.15.55.04,1.02.06,1.41.06.47,0,.9-.06,1.28-.17.39-.11.73-.37,1.04-.79.61-.64,1.02-1.74,1.24-3.31.22-1.57.15-3.34-.21-5.3-.86.91-1.82,1.82-2.88,2.71-1.06.9-2.16,1.75-3.29,2.55-1.13.8-2.28,1.55-3.44,2.24-1.16.69-2.29,1.28-3.4,1.78-.22-.36-.5-.75-.83-1.18-.33-.43-.69-.79-1.08-1.1,1.24-.47,2.53-1.07,3.87-1.8,1.34-.73,2.64-1.54,3.89-2.42,1.26-.88,2.44-1.82,3.56-2.8,1.12-.98,2.08-1.95,2.88-2.92-.22-.55-.44-1.1-.66-1.66-.22-.55-.48-1.1-.79-1.66-.61.58-1.26,1.16-1.97,1.74-.7.58-1.43,1.15-2.18,1.7-.75.55-1.49,1.07-2.24,1.55-.75.48-1.45.92-2.11,1.31-.19-.33-.44-.69-.73-1.08-.29-.39-.59-.73-.89-1.04-.11,1.3-.44,2.34-.99,3.13-.55.79-1.49,1.25-2.82,1.39-.47.06-.95.08-1.43.08h-1.43c-.03-.39-.1-.85-.23-1.39-.12-.54-.33-1-.6-1.39.3.03.59.05.87.06.28.01.54.02.79.02h.41c.14,0,.28-.01.41-.04.5,0,.89-.09,1.18-.27.29-.18.51-.41.66-.7.15-.29.25-.64.29-1.04.04-.4.06-.81.06-1.22,0-.58-.06-1.19-.17-1.82-.11-.64-.3-1.3-.58-2.01-.28-.7-.66-1.44-1.14-2.2-.48-.76-1.11-1.55-1.89-2.38.64-1.57,1.24-3.23,1.8-4.97.57-1.74,1.08-3.34,1.55-4.81h-5.55v34.06h-2.82V2.78h9.53l.5-.12,2.03,1.24c-.33.86-.67,1.77-1.02,2.73-.35.97-.7,1.93-1.06,2.9-.36.97-.72,1.92-1.08,2.86-.36.94-.7,1.82-1.04,2.65,1.52,1.74,2.53,3.36,3.02,4.87.5,1.51.75,2.92.75,4.25v.41c0,.14-.01.28-.04.41.72-.33,1.48-.73,2.28-1.2.8-.47,1.6-.97,2.38-1.49.79-.52,1.54-1.08,2.26-1.66.72-.58,1.35-1.13,1.91-1.66-.3-.44-.64-.86-.99-1.26-.36-.4-.73-.79-1.12-1.18-.97.69-1.94,1.33-2.92,1.93-.98.59-1.95,1.13-2.92,1.59-.17-.28-.45-.65-.85-1.12-.4-.47-.75-.84-1.06-1.12,1.88-.83,3.76-1.84,5.66-3.05,1.89-1.2,3.56-2.51,4.99-3.92h-9.45v-2.78h5.92c-.22-.88-.58-1.88-1.08-2.98-.5-1.1-1.04-2.11-1.62-3.02l2.53-.91c.33.5.66,1.02.97,1.57.32.55.61,1.11.87,1.68.26.57.5,1.11.73,1.64.22.53.39,1.01.5,1.45l-1.62.58h9.57l-1.62-.54c.25-.44.52-.94.83-1.49.3-.55.6-1.13.89-1.72.29-.59.57-1.17.83-1.74.26-.57.49-1.1.68-1.6l3.02.95c-.58,1.08-1.18,2.16-1.8,3.25-.62,1.09-1.21,2.05-1.76,2.88h7.04v2.78h-9.82c.28,1.55.59,3.05.95,4.52.36,1.46.76,2.87,1.2,4.23.99-.86,2.02-1.79,3.07-2.8,1.05-1.01,1.93-1.94,2.65-2.8l2.15,1.99Z"/>
    <path class="cls-3" d="M370.4,18.24l.5,2.73c-.47.19-1.17.48-2.11.87-.94.39-1.64.66-2.11.83v13.67c-.06,1.55-.5,2.54-1.33,2.98-.83.33-2.53.5-5.1.5-.17-.91-.47-1.84-.91-2.78,1.99.05,3.27.05,3.85,0,.47-.06.72-.29.75-.7v-12.6l-4.81,1.86-.7-2.98c1.3-.41,3.13-1.08,5.51-1.99v-8.16h-4.97v-2.86h4.97V1.12h2.73v8.49h3.52v2.86h-3.52v7.13l3.73-1.37ZM379.06,13.26l2.36.95c-2.49,4.86-4.83,8.99-7.04,12.39,2.1-.33,3.48-.55,4.14-.66.19-.83.36-1.73.5-2.69l2.57.46c-1.3,7.76-4.79,13.19-10.48,16.28-.39-.72-.97-1.38-1.74-1.99-.06-.06-.1-.1-.12-.12,4-2.1,6.81-5.19,8.41-9.28-2.98.58-5.8,1.09-8.45,1.53l-.41-2.61c.86-.14,1.74-.26,2.65-.37.77-1.1,1.86-2.86,3.27-5.26-1.24-2.13-2.9-4.14-4.97-6.05-.08-.05-.14-.1-.17-.12l1.49-2.03c.72.66,1.16,1.08,1.33,1.24,1.22-2.1,2.21-4.28,2.98-6.55l2.49,1.08c-1.77,3.54-3.05,5.91-3.85,7.13,1.02,1.19,1.73,2.1,2.11,2.73,1.22-2.24,2.2-4.25,2.94-6.05ZM397.2,5.06v2.78h-26.52v-2.78h11.56V1.12h3.02v3.94h11.93ZM397.7,35.35v2.57h-12.02v1.86h-2.49v-19.02c-.44.75-.88,1.42-1.33,2.03-.72-.72-1.41-1.3-2.07-1.74,2.32-3.12,4.13-7.36,5.43-12.72l2.53.58c-.3,1.3-.83,3.04-1.57,5.22h3.52c.77-2.26,1.34-4.2,1.7-5.8l2.69.75c-.19.47-.47,1.2-.83,2.2-.5,1.33-.86,2.28-1.08,2.86h4.97v2.49h-5.1v4.56h4.43v2.32h-4.43v4.64h4.52v2.32h-4.52v4.89h5.63ZM389.66,21.18v-4.56h-3.98v4.56h3.98ZM389.66,28.14v-4.64h-3.98v4.64h3.98ZM385.69,30.46v4.89h3.98v-4.89h-3.98Z"/>
    <path class="cls-3" d="M440.28,9.53h-22.79c-.86,1.8-1.73,3.43-2.61,4.89h20.47v21.46c0,1.55-.4,2.55-1.2,3.02-.19.11-.39.21-.58.29-1.13.39-3.6.58-7.42.58-.11-.88-.44-1.92-.99-3.11,1.3.06,3.33.08,6.09.08.64-.08.97-.37.99-.87v-4.43h-17.69v8.37h-3.11v-20.47c-2.21,2.71-4.57,4.94-7.08,6.71-.5-.83-1.16-1.63-1.99-2.4,4.75-3.23,8.65-7.94,11.68-14.13h-10.65v-2.98h11.93c.86-2.21,1.48-4.03,1.86-5.47l3.15.75c-.61,1.93-1.16,3.51-1.66,4.72h21.59v2.98ZM432.24,21.59v-4.31h-17.69v4.31h17.69ZM414.55,28.76h17.69v-4.43h-17.69v4.43Z"/>
    <path class="cls-4" d="M480.57,18.98l3.36,1.74c-3.43,8.43-10.47,14.21-21.13,17.36-3.2.94-6.78,1.68-10.73,2.24-.36-1.35-1.08-2.9-2.15-4.64,6.52-.66,12.04-2,16.57-4.02-1.46-1.3-3.55-2.78-6.26-4.43-1.77.91-3.78,1.75-6.05,2.53-.61-1.24-1.49-2.4-2.65-3.48-.17-.17-.32-.3-.46-.41,7.46-2.24,13.16-5.43,17.11-9.57.08-.11.15-.19.21-.25-5.39,3.54-11.95,6.08-19.68,7.62-.61-1.71-1.4-3.16-2.36-4.35,5.25-.83,10.01-2.22,14.29-4.18-1.63-1.24-3.52-2.46-5.68-3.65-1.69.86-3.31,1.59-4.89,2.2-.77-1.3-1.8-2.46-3.07-3.48-.11-.11-.21-.19-.29-.25,6.71-2.13,11.81-5.14,15.29-9.03.11-.14.22-.26.33-.37l5.47,1.12c-.64.72-1.31,1.44-2.03,2.15h8.49l.87-.21,3.19,1.86c-1.99,3.7-4.9,6.95-8.74,9.74l5.1,1.2c-.64.8-1.51,1.73-2.61,2.78h7.58l.91-.21ZM470.92,8h-10.15c-.22.17-.73.53-1.53,1.08,2.57,1.38,4.52,2.62,5.84,3.73,2.26-1.41,4.21-3.01,5.84-4.81ZM476.89,23.41h-9.99c-.61.44-1.35.91-2.24,1.41,2.76,1.57,4.88,3.02,6.34,4.35,2.43-1.63,4.39-3.55,5.88-5.76Z"/>
    <path class="cls-4" d="M503.47,25.65c-.77,1.22-1.63,2.29-2.57,3.23-1.1-.99-2.35-1.89-3.73-2.69,2.24-1.96,3.91-4.54,5.01-7.75h-5.01v3.02c-.03,8.62-1.59,15.05-4.68,19.31-.75-.91-1.88-1.85-3.4-2.82-.22-.14-.4-.25-.54-.33,2.46-3.65,3.7-9.05,3.73-16.2v-7.08h5.3c-.41-.75-.87-1.45-1.37-2.11,2.51-.36,5.22-.87,8.12-1.53-2.98-.77-5.17-1.31-6.55-1.62l2.2-1.57h-8v-3.98h14.13V.71h5.01v2.82h14.87v3.98h-6.88l.91.5c-1.41.91-3.02,1.74-4.85,2.49,1.68.5,3.78,1.19,6.3,2.07l-2.11,1.78h8.66v4.1h-25.85l4.43,1.04c-.28.8-.58,1.55-.91,2.24h4.72v-2.82h4.93v2.82h10.28v3.94h-10.28v2.69h8.99v3.85h-8.99v3.19h12.35v4.1h-29.79v-4.1h12.51v-3.19h-8.91v-3.85h8.91v-2.69h-6.96ZM510.14,12.35c-2.6.8-5.1,1.46-7.5,1.99h13.63c-2.57-.88-4.61-1.55-6.13-1.99ZM510.18,9.04c1.3-.39,2.67-.9,4.1-1.53h-10.23c1.74.41,3.78.93,6.13,1.53Z"/>
    <path class="cls-4" d="M571.16,30.62h-12.31c3.76,2.27,8.23,3.8,13.42,4.6-1.24,1.22-2.38,2.75-3.4,4.6-5.55-1.41-10.3-3.8-14.25-7.17v7.62h-4.93v-7.38c-4.01,3.15-8.74,5.44-14.21,6.88-.94-1.63-2.02-3.04-3.23-4.23,5.3-1.1,9.76-2.75,13.38-4.93h-12.18v-4.18h16.24v-1.86h-12.22v-3.65h12.22v-1.91h-14.38v-3.94h8.08c-.3-.99-.79-2.1-1.45-3.31l.5-.08h-8.87v-4.1h5.72c-.47-1.33-1.35-3.08-2.65-5.26l4.35-1.49c1.49,2.21,2.55,4.2,3.19,5.97l-2.07.79h3.85V.67h4.72v6.92h3.15V.67h4.76v6.92h3.77l-1.53-.5c1.05-1.77,1.93-3.81,2.65-6.13l5.3,1.28c-.3.5-.75,1.22-1.33,2.15-.88,1.52-1.53,2.58-1.95,3.19h5.51v4.1h-8c-.3.55-.97,1.69-1.99,3.4h8.33v3.94h-14.75v1.91h12.76v3.65h-12.76v1.86h16.53v4.18ZM557.44,11.69h-10.15c.72,1.41,1.2,2.5,1.45,3.27l-.7.12h7.91c.58-1.22,1.08-2.35,1.49-3.4Z"/>
    <path class="cls-4" d="M587.05,20.85h8.91s-.01.64-.04,1.82c-.33,7.93-.8,12.78-1.41,14.54-.19.52-.4.93-.62,1.2-.72.88-1.78,1.41-3.19,1.57-1.24.17-2.96.21-5.14.12-.06-1.52-.47-2.97-1.24-4.35,1.16.14,2.54.21,4.14.21.63-.03,1.1-.22,1.41-.58.61-.72,1.04-4.09,1.28-10.11h-4.68c-1.16,6.71-3.59,11.67-7.29,14.87-.06.08-.11.14-.17.17-.72-1.3-1.74-2.46-3.07-3.48-.11-.08-.21-.15-.29-.21,3.4-2.79,5.48-7.32,6.26-13.59.19-1.55.35-3.44.46-5.68h-4.23V2.62h17.44v14.75h-8.29l-.25,3.48ZM582.74,7.05v5.84h7.96v-5.84h-7.96ZM603.71,5.81v23.87h-4.93V5.81h4.93ZM608.72,1.5h5.01v32.69c0,2.32-.48,3.87-1.45,4.64-.28.22-.57.4-.87.54-1.44.64-4.25.95-8.45.95-.25-1.74-.83-3.48-1.74-5.22,1.85.06,3.98.08,6.38.08.72-.11,1.09-.44,1.12-.99V1.5Z"/>
    <path class="cls-3" d="M634.93,2.66v33.44c0,1.57-.42,2.6-1.24,3.07-.08.05-.15.1-.21.12-.88.39-2.75.58-5.59.58-.11-1.02-.43-2.03-.95-3.02,2.21.06,3.62.06,4.23,0,.52-.08.8-.34.83-.79v-10.44h-6.67c-.47,6.1-1.53,10.87-3.19,14.29-.66-.61-1.52-1.12-2.57-1.53,2.04-4.09,3.09-10.44,3.15-19.06V2.66h12.22ZM625.48,22.59h6.5v-7.13h-6.42v2.32c0,.97-.03,2.57-.08,4.81ZM631.99,5.56h-6.42v6.96h6.42v-6.96ZM655.89,16.99l1.82.62c-1.11,5.66-3.04,10.43-5.8,14.29,2.18,2.46,4.54,4.32,7.08,5.59-.75.64-1.42,1.44-2.03,2.4-2.6-1.49-4.89-3.4-6.88-5.72-1.91,2.24-4.03,4.05-6.38,5.43-.58-.97-1.22-1.75-1.91-2.36,2.4-1.35,4.57-3.15,6.5-5.39-2.27-3.31-4.14-7.26-5.63-11.85h-1.08v19.85h-2.94V2.78h17.9v8.12c0,1.38-.4,2.28-1.2,2.69-.17.08-.32.15-.46.21-.94.28-3.16.41-6.67.41-.14-.8-.47-1.68-.99-2.65,2.9.06,4.71.06,5.43,0,.52-.08.8-.32.83-.7v-5.14h-11.89v11.35h13.76l.54-.08ZM654.32,20.02h-8.87c1.21,3.65,2.75,6.81,4.6,9.49,1.88-2.84,3.3-6.01,4.27-9.49Z"/>
    <path class="cls-3" d="M677.92,26.6l-2.16-1.08c.83-1.82,1.59-4.1,2.28-6.84h-4.06v17.48c0,1.41-.39,2.36-1.16,2.86-.08.05-.17.1-.25.12-.94.33-2.71.5-5.3.5-.19-1.05-.51-2.02-.95-2.9,1.21.03,2.55.04,4.02.04.42-.08.64-.29.66-.62v-13.63c-1.93,4.75-3.99,8.23-6.17,10.44-.28-.75-.83-1.73-1.66-2.94,2.26-2.15,4.29-5.3,6.09-9.45.28-.66.52-1.3.75-1.91h-6.42v-2.78h11.39c-2.24-1.91-5.12-3.67-8.66-5.3-.28-.14-.54-.26-.79-.37l1.95-2.03c1.16.47,2.54,1.12,4.14,1.95,1.63-1.24,3.11-2.64,4.43-4.18h-12.02v-2.78h14.29l.54-.12,2.03,1.28c-1.68,2.54-3.99,4.94-6.92,7.21,1.33.8,2.51,1.64,3.56,2.53l-1.62,1.82h3.15l.46-.17,1.91.7c-.03.08-.24.83-.62,2.24,2.98-.83,5.51-1.92,7.58-3.27-1.69-1.55-3.14-3.27-4.35-5.18-1.38,1.46-2.4,2.47-3.07,3.02-.88-.75-1.74-1.35-2.57-1.82,2.98-2.21,5.41-5.12,7.29-8.74.28-.55.52-1.09.75-1.62l3.02.79c-.39.86-1.04,2.07-1.95,3.65h14.09v2.69h-3.27c-1.16,2.79-2.86,5.19-5.1,7.21,2.82,1.77,5.88,3,9.2,3.69-.88.94-1.55,1.85-1.99,2.73-3.56-.99-6.77-2.5-9.61-4.52-2.57,1.77-5.66,3.22-9.28,4.35-.22-.44-.59-.99-1.12-1.66-.8,2.79-1.64,4.99-2.53,6.59ZM690.76,24.74h9.9s-.03.48-.08,1.37c-.64,6.57-1.45,10.57-2.44,11.97-.14.14-.25.26-.33.37-.61.61-1.49.98-2.65,1.12-1.71.05-3.29.04-4.72-.04-.14-1.22-.42-2.2-.83-2.94,1.52.14,2.91.21,4.18.21.66-.03,1.15-.17,1.45-.41.83-.88,1.52-3.88,2.07-8.99h-7.13c-1.33,4.81-3.85,8.36-7.58,10.65-1.11.69-2.32,1.28-3.65,1.78-.55-1.02-1.17-1.84-1.86-2.44,4.61-1.66,7.72-4.52,9.32-8.58.19-.47.36-.94.5-1.41h-6.59v-2.65h7.29c.22-1.27.4-2.67.54-4.18h3.19c-.11,1.27-.3,2.67-.58,4.18ZM694.91,8.21h-8.91c1.19,2.04,2.79,3.87,4.81,5.47,1.77-1.57,3.13-3.4,4.1-5.47Z"/>
    <path class="cls-3" d="M708.85,25.15l2.69.46c-.69,4.61-1.67,8.2-2.94,10.77-.5-.39-1.27-.77-2.32-1.16,1.16-2.26,2.02-5.62,2.57-10.07ZM719.46,21.76l-3.36.21v17.86h-2.78v-17.69l-6.67.41-.29-2.86,2.9-.12c1.33-1.71,2.21-2.89,2.65-3.52-1.3-1.96-3.05-4-5.26-6.13l1.7-1.99,1.28,1.16c1.3-2.24,2.55-4.89,3.77-7.96l2.73,1.04c-1.91,3.87-3.52,6.77-4.85,8.7.72.75,1.48,1.66,2.28,2.73,1.52-2.29,3.02-4.85,4.52-7.67l2.65,1.2c-3.18,5.05-6.01,9.14-8.49,12.26l6.13-.29c-.52-1.1-1.16-2.29-1.91-3.56l2.28-.91c1.88,2.9,3.22,5.68,4.02,8.33.03.11.05.22.08.33l-2.49,1.16c-.17-.69-.47-1.59-.91-2.69ZM717.55,25.73l2.32-.7c1.24,2.76,2,5.32,2.28,7.67l-2.49.7c-.25-2.49-.94-5-2.07-7.54-.03-.06-.04-.1-.04-.12ZM735.2,35.84h10.4v2.78h-24.78v-2.78h11.19v-7.96h-8.54v-2.86h20.51v2.86h-8.78v7.96ZM729.53,22.67l-2.57,1.08c-1.16-2.68-2.82-5.48-4.97-8.41,1.74-2.65,3.2-5.22,4.39-7.71l2.78.66c-1.3,2.35-2.68,4.68-4.14,7,2.21,3.04,3.71,5.5,4.52,7.38ZM745.06,3.49v2.78h-22.71v-2.78h22.71ZM733.67,7.63l2.78.66c-.72,1.35-2.17,3.69-4.35,7,2.18,2.79,3.81,5.22,4.89,7.29l-2.53,1.16c-1.19-2.49-2.98-5.29-5.39-8.41,1.88-2.68,3.41-5.25,4.6-7.71ZM744.44,22.54l-2.53,1.2c-1.22-2.49-3.12-5.29-5.72-8.41,1.57-2.21,3.16-4.78,4.76-7.71l2.78.66c-1.46,2.43-2.94,4.76-4.43,7,2.02,2.4,3.73,4.82,5.14,7.25Z"/>
    <path class="cls-3" d="M751.64,37.5l-1.74-.99c1.1-1.68,1.77-4.82,1.99-9.41l1.91.33c-.28,4.94-.97,8.26-2.07,9.94-.03.06-.06.1-.08.12ZM761,22.01h5.55s-.01.41-.04,1.16c-.28,8.09-.7,12.94-1.28,14.54-.14.41-.3.73-.5.95-.53.66-1.26,1.04-2.2,1.12-.72.08-1.92.1-3.6.04-.08-.99-.3-1.84-.66-2.53,1.16.14,2.21.21,3.15.21.52-.03.9-.19,1.12-.5.44-.58.77-2.32.99-5.22l-1.33.58c-.44-1.63-1.26-3.48-2.44-5.55l1.41-.5c1.1,1.77,1.91,3.41,2.4,4.93.14-1.91.26-4.16.37-6.75h-11.81V2.78h14.13v2.57h-5.26v3.94h4.48v2.44h-4.48v3.85h4.52v2.49h-4.52v3.94ZM754.58,27.85l1.62-.21c.5,2.93.72,5.47.66,7.62l-1.74.25c.08-2.18-.1-4.74-.54-7.67ZM758.47,5.35h-3.73v3.94h3.73v-3.94ZM758.47,15.58v-3.85h-3.73v3.85h3.73ZM754.74,18.07v3.94h3.73v-3.94h-3.73ZM760.46,33.86l-1.62.37c-.25-2.24-.8-4.52-1.66-6.84l1.49-.29c.97,2.29,1.56,4.54,1.78,6.75ZM775.79,1.25h2.94c2.02,3.37,4.67,6.28,7.96,8.74.99.75,1.97,1.37,2.94,1.86-.58.69-1.13,1.6-1.66,2.73-3.26-1.99-6.17-4.61-8.74-7.87-.72-.91-1.34-1.8-1.86-2.65-1.74,3.15-4.21,6.02-7.42,8.62-.97.8-1.93,1.49-2.9,2.07-.36-.88-.87-1.74-1.53-2.57,3.12-1.8,5.87-4.32,8.25-7.58.83-1.16,1.5-2.28,2.03-3.36ZM771.36,27.23l2.65.17c-.19,1.41-.48,2.79-.87,4.14,1.93,1.74,3.37,3.25,4.31,4.52l-1.78,1.82c-.8-1.1-1.95-2.4-3.44-3.89-1.16,2.49-2.69,4.47-4.6,5.97-.53-.66-1.19-1.28-1.99-1.86,3.09-2.18,5-5.8,5.72-10.86ZM768.17,26.07v-9.7h8.49v9.7h-8.49ZM770.4,18.53v5.34h3.94v-5.34h-3.94ZM783.41,11.23v2.44h-11.6v-2.44h11.6ZM781.84,27.18l2.73.17c-.22,1.57-.55,3.05-.99,4.43,2.54,2.51,4.45,4.65,5.72,6.42l-2.03,1.62c-.99-1.44-2.55-3.29-4.68-5.55-1.13,2.29-2.62,4.14-4.47,5.55-.77-.86-1.45-1.48-2.03-1.86,3.15-2.24,5.07-5.83,5.76-10.77ZM787.47,16.37v9.7h-8.74v-9.7h8.74ZM785.15,23.87v-5.34h-4.14v5.34h4.14Z"/>
    <path class="cls-3" d="M34.85,63.83c-.17,11.33-.11,18.52.17,21.59.3,3.56.91,5.47,1.82,5.72.28.08.46-1.85.54-5.8.03-.5.04-.98.04-1.45.77.94,1.44,1.59,1.99,1.95-.17,5.3-.95,8.13-2.36,8.49-.39.08-.81.04-1.28-.12-1.93-.64-3.14-3.6-3.6-8.91-.28-2.98-.39-9.16-.33-18.52h-4.97v1.49c0,3.51-.21,6.57-.62,9.2,2.24,1.85,3.91,3.45,5.01,4.81l-1.86,2.49c-.83-1.05-2.11-2.39-3.85-4.02-1.6,5.69-4.61,10.23-9.03,13.63-.64-.72-1.44-1.37-2.4-1.95,4.56-3.42,7.51-8.02,8.87-13.8-1.74-1.41-3.47-2.65-5.18-3.73l1.7-2.15c1.16.69,2.5,1.59,4.02,2.69.3-2.26.46-4.65.46-7.17v-1.49h-5.1v2.57h-4.81l2.36.62c-.83,2.32-1.62,4.28-2.36,5.88h4.18v2.78h-7.29v4.39h6.63v2.69h-6.63v8.49h-2.94v-8.49H1.08v-2.69h6.92v-4.39H.58v-2.78h4.23c-.36-1.91-.98-3.87-1.86-5.88l2.36-.62H0v-2.69h8v-4.02H1.62v-2.73h6.38v-4.35h2.94v4.35h6.21v2.73h-6.21v4.02h7.21v-2.82h5.8v-8.25h2.9v8.25h8ZM7.38,75.39l-1.49.46h7.04l-1.37-.41c.91-1.99,1.63-4.02,2.15-6.09H5.3c1.13,2.21,1.82,4.23,2.07,6.05Z"/>
    <path class="cls-3" d="M54.67,64.57l2.94,1.12c-1.24,2.02-2.8,4.14-4.68,6.38v22.33h-3.11v-18.85c-1.82,1.85-3.43,3.33-4.81,4.43-.83-1.13-1.56-2.02-2.2-2.65,3.78-2.71,7.17-6.12,10.15-10.23.64-.86,1.2-1.7,1.7-2.53ZM52.93,55.54l3.02,1.2c-2.49,3.34-5.62,6.49-9.41,9.45-.5.39-.98.75-1.45,1.08-.91-1.33-1.53-2.17-1.86-2.53,3.09-2.07,5.86-4.53,8.29-7.38.55-.66,1.02-1.27,1.41-1.82ZM81.98,69.71v3.02h-6.42v17.53c0,1.6-.44,2.65-1.33,3.15-.17.08-.35.17-.54.25-1.1.33-3.76.5-7.96.5-.14-.94-.48-1.96-1.04-3.07,3.23.08,5.44.1,6.63.04.64-.22.98-.52,1.04-.91v-17.48h-14.17v-3.02h23.78ZM80.74,58.11v2.98h-20.72v-2.98h20.72Z"/>
    <path class="cls-4" d="M126.09,67.51h-2.24c-.83,6.71-2.21,12.11-4.14,16.2,1.8,3.15,3.99,5.51,6.59,7.08-1.24,1.05-2.29,2.32-3.15,3.81-.06.08-.1.15-.12.21-2.4-1.63-4.46-3.76-6.17-6.38-1.96,2.57-4.36,4.72-7.21,6.46-.3-.72-1.02-1.89-2.15-3.52l-2.94,2.9c-1.16-.83-2.65-1.74-4.47-2.73-2.57,1.49-6.15,2.61-10.73,3.36-.3-1.3-.9-2.58-1.78-3.85,3.42-.3,6.1-.84,8.04-1.62-.25-.08-.64-.23-1.16-.46-.5-.22-.87-.37-1.12-.46l-.37.54-4.02-.99c1.24-1.91,2.04-3.16,2.4-3.77l-4.56.04-.17-3.73c2.87,0,5.14-.01,6.79-.04.03-.03.33-.59.91-1.7h-6.01v-7.83h7.5v-1.33h-6.67v-4.52h-2.65v-3.56h2.65v-4.43h6.67v-2.07h4.27v2.07h7.04v4.43h2.78v3.56h-2.78v4.52h-7.04v1.33h7.91v1.33c2.18-4.14,3.7-9.89,4.56-17.24l4.77.62c-.28,2.18-.66,4.54-1.16,7.08h9.94v4.68ZM92.45,74.06v1.78h3.36v-1.78h-3.36ZM95.8,60.39h-2.49v1.53h2.49v-1.53ZM93.32,66.52h2.49v-1.57h-2.49v1.57ZM95.97,84.21l-.7,1.2c.86.28,2.25.81,4.18,1.62.77-.83,1.41-1.8,1.91-2.9l-5.39.08ZM109.81,83.92l-3.89.08c-.58,1.91-1.42,3.51-2.53,4.81,1.02.5,2.21,1.13,3.56,1.91,3.15-1.71,5.65-4.06,7.5-7.04-1.02-2.46-1.88-5.21-2.57-8.25-.47.97-1.02,1.91-1.66,2.82-.41-.61-1.16-1.45-2.24-2.53v3.15h-9.41l.37.08-.87,1.57c1.24,0,3.15-.03,5.72-.08,2.76-.03,4.81-.06,6.13-.08l-.12,3.56ZM102.76,60.39h-2.69v1.53h2.69v-1.53ZM100.07,66.52h2.69v-1.57h-2.69v1.57ZM103.59,74.06h-3.52v1.78h3.52v-1.78ZM119.13,67.51h-4.18l-.08.25c.61,3.89,1.37,7.21,2.28,9.94.88-2.87,1.55-6.27,1.99-10.19Z"/>
    <path class="cls-4" d="M168.46,62.17h-15.99c-.19.8-.65,2.4-1.37,4.81h13.55v27.76h-5.39v-2.53h-18.73v2.53h-5.14v-27.76h10.36c.28-1.52.52-3.12.75-4.81h-15.37v-4.93h37.33v4.93ZM159.26,77.21v-5.55h-18.73v5.55h18.73ZM140.53,87.53h18.73v-5.72h-18.73v5.72Z"/>
    <path class="cls-4" d="M191.73,72.03h-11.23v22.71h-5.01v-37.99h16.24v15.29ZM187,60.39h-6.5v2.24h6.5v-2.24ZM180.5,68.43h6.5v-2.4h-6.5v2.4ZM211.28,56.74v32.03c0,2.32-.52,3.87-1.57,4.64-.22.14-.44.26-.66.37-1.49.64-4.07.95-7.75.95-.11-.94-.48-2.25-1.12-3.94h-10.52v2.15h-4.6v-18.35h16.37v15.04c1.88.06,3.13.06,3.77,0,.64-.11.97-.41.99-.91v-16.61h-11.52v-15.37h16.61ZM196.66,78.33h-7v2.53h7v-2.53ZM189.66,87.11h7v-2.65h-7v2.65ZM206.19,60.39h-6.71v2.24h6.71v-2.24ZM199.47,68.51h6.71v-2.49h-6.71v2.49Z"/>
    <path class="cls-3" d="M219.18,94.32v-18.48h15v18.11h-3.11v-1.91h-8.87v2.28h-3.02ZM231.07,78.91h-8.87v10.07h8.87v-10.07ZM248.43,57.36v14.05h-23.08v-14.05h23.08ZM245.24,68.39v-8h-16.86v8h16.86ZM238.78,75.84h15.79v18.19h-3.11v-1.99h-9.61v2.28h-3.07v-18.48ZM241.84,88.98h9.61v-10.07h-9.61v10.07Z"/>
    <path class="cls-3" d="M266.23,69.88v2.73c0,1.52-.01,2.68-.04,3.48h8.25v18.15h-2.86v-15.45h-5.47c-.36,6.46-1.28,11.66-2.78,15.58-.61-.36-1.51-.72-2.69-1.08,1.85-4.61,2.78-11.5,2.78-20.67v-16.2h2.82v10.69h4.06v-11.52h2.78v11.52h3.52v2.78h-10.36ZM299.5,82.76v2.73h-6.59v8.74h-3.02v-8.74h-14.17v-2.73h14.17v-5.92h3.02v5.92h6.59ZM298.3,75.84h-10.86c-1.66,2.79-4.34,4.99-8.04,6.59-.41-.52-1.12-1.12-2.11-1.78,3.04-1.33,5.3-2.93,6.79-4.81h-6.55v-16.24h6.67c.83-1.85,1.37-3.25,1.62-4.18l3.56.7c-.25.44-.62,1.1-1.12,1.99-.41.69-.7,1.19-.87,1.49h10.9v16.24ZM280.4,62.13v4.39h6.17v-4.39h-6.17ZM280.4,73.36h5.18c.58-1.38.91-2.87.99-4.47h-6.17v4.47ZM295.44,73.36v-4.47h-6.17c-.11,1.77-.35,3.26-.7,4.47h6.88ZM295.44,66.52v-4.39h-6.17v4.39h6.17Z"/>
    <path class="cls-3" d="M311.09,61.92v9.28c-.03,10.17-1.52,17.73-4.47,22.71-.88-.72-1.75-1.26-2.61-1.62,2.68-4.39,4.05-11.1,4.1-20.14v-13.01h15.08v-3.56h3.11v3.56h16.12v2.78h-7.71v2.78h6.96v2.11h-6.96v4.85h-15.83v-4.85h-7.33v-2.11h7.33v-2.78h-7.79ZM321.57,88.85l2.57,1.7c-2.98,1.57-6.53,2.8-10.65,3.69-.25.05-.47.1-.66.12-.8-.94-1.44-1.63-1.91-2.07,3.67-.66,6.92-1.66,9.74-2.98.36-.17.66-.32.91-.46ZM342.24,75.55h-14.17v2.07h11.6v10.69h-25.48v-10.69h10.94v-2.07h-13.59v-2.2h30.7v2.2ZM317.05,79.45v2.61h8.08v-2.61h-8.08ZM317.05,83.84v2.65h8.08v-2.65h-8.08ZM331.6,64.7v-2.78h-9.7v2.78h9.7ZM331.6,69.67v-2.86h-9.7v2.86h9.7ZM336.69,79.45h-8.62v2.61h8.62v-2.61ZM336.69,86.49v-2.65h-8.62v2.65h8.62ZM329.32,90.76l2.15-1.78c4.28,1.13,8.02,2.32,11.23,3.56l-2.9,1.86c-2.51-1.19-6.01-2.4-10.48-3.65Z"/>
    <path class="cls-3" d="M369.78,71.2h16.08v2.94h-37.08v-2.94h17.77v-6.67h-10.4c-1.44,2.4-2.79,4.3-4.06,5.68-1.02-.69-1.96-1.26-2.82-1.7,2.84-2.76,5.15-6.57,6.92-11.44.17-.39.3-.76.41-1.12l3.15.75c-.39,1.16-1.08,2.8-2.07,4.93h8.87v-6.09h3.23v6.09h12.93v2.9h-12.93v6.67ZM353.99,94.69v-16.37h26.89v16.28h-3.19v-2.28h-20.59v2.36h-3.11ZM377.69,81.23h-20.59v8.12h20.59v-8.12Z"/>
    <path class="cls-3" d="M407.34,69.25c3.2,2.6,6.24,5.58,9.12,8.95.14.17.26.32.37.46l-2.86,2.4c-3.07-3.7-6.19-6.84-9.36-9.41l2.73-2.4Z"/>
    <path class="cls-3" d="M447.02,76.67l-4.19,1.62v12.31c0,1.41-.37,2.35-1.12,2.82-.08.03-.14.06-.17.08-.8.39-2.29.58-4.47.58-.19-1.08-.47-2.03-.83-2.86.91.03,1.91.04,2.98.04.39-.06.59-.26.62-.62v-11.27l-4.35,1.62-.83-2.94c.61-.19,1.62-.54,3.02-1.04.94-.33,1.66-.58,2.15-.75v-9.28h-4.76v-2.9h4.76v-8.49h2.98v8.49h3.94v2.9h-3.94v8.16l3.69-1.33.5,2.86ZM473.2,83.76h-9.69c2.21,2.49,5.07,4.52,8.58,6.09.61.28,1.19.51,1.74.7-.72.64-1.4,1.44-2.03,2.4-3.37-1.44-6.44-3.63-9.2-6.59-.36-.41-.69-.8-.99-1.16v9.16h-2.94v-8.87c-2.73,3.04-6.16,5.44-10.28,7.21-.55.22-1.08.43-1.57.62-.69-1.08-1.35-1.89-1.99-2.44,3.98-1.22,7.49-3.16,10.52-5.84.5-.44.94-.87,1.33-1.28h-9.16v-2.69h11.15v-3.15h-10.32v-9.53h10.61v9.53h2.36v-9.53h10.9v9.53h-10.61v3.15h11.6v2.69ZM456.34,75.55v-4.81h-5.51v4.81h5.51ZM467.98,57.28v9.2h-15.45v-9.2h15.45ZM465.04,64.12v-4.47h-9.7v4.47h9.7ZM463.8,70.75v4.81h5.8v-4.81h-5.8Z"/>
    <path class="cls-3" d="M492.99,76.8v-7.13c-3.45.19-6.26.36-8.41.5-.52,4.59-2.06,8.18-4.6,10.77-.36-.58-.94-1.13-1.74-1.66-.11-.06-.19-.1-.25-.12,2.18-2.24,3.49-5.19,3.94-8.87l-3.44.17-.17-2.57c1.24-.05,2.5-.1,3.77-.12.03-.33.04-.79.04-1.37v-7.79h4.6c.72-1.63,1.15-2.67,1.28-3.11l2.73.41c-.25.58-.69,1.48-1.33,2.69h6.21v8.49l1.99-.08-.04,2.4-1.95.12v7.25c0,1.27-.3,2.09-.91,2.44-.11.08-.22.14-.33.17-.77.33-2.4.5-4.89.5-.19-.97-.47-1.82-.83-2.57,1.16.03,2.4.04,3.73.04.36-.08.55-.28.58-.58ZM511.85,80.98v9.49h5.01v2.57h-38.33v-2.57h4.97v-9.49h28.34ZM484.75,60.89v6.8c2.07-.11,4.82-.23,8.25-.37v-6.42h-8.25ZM486.41,62.58l1.95-.75c1.08,1.44,1.86,2.85,2.36,4.23l-2.07.79c-.33-1.16-1.08-2.58-2.24-4.27ZM486.45,83.47v7h5.47v-7h-5.47ZM487.44,71.04h2.15v5.84h-2.15v-5.84ZM500.37,83.47h-5.59v7h5.59v-7ZM512.38,67.8l1.66.79c-1.1,2.76-2.86,5.1-5.26,7,2.46,1.22,5.28,2.03,8.45,2.44-.8.77-1.4,1.57-1.78,2.4-3.59-.61-6.63-1.68-9.12-3.23-2.32,1.3-4.97,2.27-7.96,2.9-.55-1.08-1.06-1.86-1.53-2.36,2.76-.5,5.14-1.23,7.13-2.2-1.74-1.44-3.08-3.04-4.02-4.81l1.91-.54h-3.15v-2.32h.04c-.3-.61-.84-1.22-1.62-1.82-.08-.06-.14-.1-.17-.12,2.29-1.41,3.45-3.34,3.48-5.8v-3.02h10.77v6.13c0,.5.12.77.37.83.11.03.23.04.37.04h1.82c.39,0,.62-.22.7-.66.11-.44.18-1.3.21-2.57.52.39,1.28.7,2.28.95-.17,2.4-.65,3.84-1.45,4.31-.36.19-.81.29-1.37.29h-2.57c-1.41,0-2.29-.36-2.65-1.08-.19-.47-.29-1.16-.29-2.07v-3.81h-5.68v.7c-.03,3.37-1.4,5.94-4.1,7.71h13.01l.5-.08ZM510.31,70.21h-7.71c.94,1.55,2.2,2.87,3.77,3.98,1.57-1.08,2.89-2.4,3.94-3.98ZM508.78,83.47h-5.55v7h5.55v-7Z"/>
    <path class="cls-4" d="M542.53,87.57h17.94v5.1h-38.57v-5.1h15.21v-31.94h5.43v12.14h14.96v5.14h-14.96v14.67Z"/>
    <path class="cls-4" d="M603.96,71.62v4.97h-16.74v18.15h-5.43v-18.15h-16.28v-4.97h16.28v-8.49c-4.56.58-8.77,1.01-12.64,1.28-.14-1.33-.59-2.83-1.37-4.52,11.71-.91,20.94-2.32,27.68-4.23.28-.05.54-.12.79-.21l3.81,4.23c-3.45,1.02-7.73,1.92-12.84,2.69v9.24h16.74Z"/>
    <path class="cls-4" d="M638,57.24h8.49v4.18h-8.49v1.78h-4.97v-1.78h-10.03v1.78h-4.97v-1.78h-8.37v-4.18h8.37v-2.11h4.97v2.11h10.03v-2.11h4.97v2.11ZM645.5,79.03v11.1c0,1.74-.35,2.9-1.04,3.48-.19.14-.39.26-.58.37-.99.44-2.75.66-5.26.66-.14-.83-.47-1.89-.99-3.19l-2.2.58c-.11-.75-.28-1.46-.5-2.15-1.44.11-7.02.47-16.74,1.08l-.37-4.23c.72-.03,1.95-.08,3.69-.17,1.79-.11,3.18-.18,4.14-.21v-3.15h-9.57v11.52h-4.81v-15.7h14.38v-1.7h-11.73v-13.51h28.59v13.51h-12.1v1.7h15.08ZM618.78,67.1v1.95h6.88v-1.95h-6.88ZM618.78,74.06h6.88v-1.95h-6.88v1.95ZM637.42,69.05v-1.95h-7v1.95h7ZM637.42,74.06v-1.95h-7v1.95h7ZM630.42,86.16l3.11-.17c-.28-.61-.61-1.26-.99-1.95l3.4-.83h-5.51v2.94ZM639.29,90.68h.74c.36-.08.55-.28.58-.58v-6.88h-4.27c1.49,2.54,2.47,5.03,2.94,7.46Z"/>
    <path class="cls-3" d="M663.51,64.57l2.94,1.12c-1.24,2.02-2.8,4.14-4.68,6.38v22.33h-3.11v-18.85c-1.82,1.85-3.43,3.33-4.81,4.43-.83-1.13-1.56-2.02-2.2-2.65,3.78-2.71,7.17-6.12,10.15-10.23.64-.86,1.2-1.7,1.7-2.53ZM661.77,55.54l3.02,1.2c-2.49,3.34-5.62,6.49-9.41,9.45-.5.39-.98.75-1.45,1.08-.91-1.33-1.53-2.17-1.86-2.53,3.09-2.07,5.86-4.53,8.29-7.38.55-.66,1.02-1.27,1.41-1.82ZM690.81,69.71v3.02h-6.42v17.53c0,1.6-.44,2.65-1.33,3.15-.17.08-.35.17-.54.25-1.11.33-3.76.5-7.96.5-.14-.94-.48-1.96-1.04-3.07,3.23.08,5.44.1,6.63.04.63-.22.98-.52,1.04-.91v-17.48h-14.17v-3.02h23.78ZM689.57,58.11v2.98h-20.72v-2.98h20.72Z"/>
    <path class="cls-3" d="M705.87,88.31l6.79-1.28.17,2.65c-5.69,1.24-11.09,2.35-16.2,3.31l-.75-2.86c3.2-.55,5.61-.98,7.21-1.28v-12.97h-6.79v-2.73h6.79v-4.47h-4.6v-1.53c-.3.33-.76.77-1.37,1.33-.52-.77-1.15-1.42-1.86-1.95-.06-.03-.1-.06-.12-.08,3.23-2.79,5.73-6.26,7.5-10.4.08-.17.15-.32.21-.46h2.82c3.09,2.65,5.5,5.12,7.21,7.42.14.17.25.32.33.46l-2.03,2.57c-1.71-2.54-3.74-4.94-6.09-7.21-.14-.11-.25-.21-.33-.29-1.55,2.79-3.27,5.28-5.18,7.46h11.14v2.69h-4.85v4.47h6.13v2.73h-6.13v12.43ZM699.45,78.33c.94,2.57,1.55,5.15,1.82,7.75l-2.32.7c-.14-2.29-.7-4.93-1.7-7.91l2.2-.54ZM707.28,85.66c.91-2.9,1.57-5.51,1.99-7.83l2.49.75c-1.13,3.78-1.95,6.37-2.44,7.75l-2.03-.66ZM719.75,65.28c-.19-.5-.45-1.07-.77-1.72-.32-.65-.66-1.33-1.02-2.03-.36-.7-.73-1.42-1.12-2.13-.39-.72-.77-1.41-1.16-2.07l-2.32,1.04c.36.64.72,1.33,1.1,2.07.37.75.73,1.49,1.08,2.22.34.73.66,1.44.95,2.11.29.68.53,1.28.72,1.8l2.53-1.28ZM732.35,68.18h-7.46v-12.72h-3.11v12.72h-7.75v26.06h3.07v-9.16h12.14v5.26c0,.47-.23.72-.7.75h-1.66c-.83,0-1.74-.03-2.73-.08.22.41.44.9.66,1.45.22.55.37,1.04.46,1.45,1.41,0,2.55-.03,3.42-.1.87-.07,1.58-.23,2.13-.48.58-.28.98-.64,1.2-1.08.22-.44.33-1.06.33-1.86v-22.21ZM729.24,70.95v4.39h-12.14v-4.39h12.14ZM717.1,82.39v-4.52h12.14v4.52h-12.14ZM731.11,57.36c-.25.64-.54,1.32-.87,2.05-.33.73-.69,1.46-1.08,2.2-.39.73-.77,1.44-1.16,2.11-.39.68-.76,1.29-1.12,1.84l2.2,1.08c.36-.52.74-1.11,1.14-1.76.4-.65.8-1.33,1.2-2.05.4-.72.79-1.44,1.18-2.18.39-.73.75-1.44,1.08-2.13l-2.57-1.16Z"/>
    <path class="cls-3" d="M753.63,80.61l-2.32-.62c.77-1.74,1.53-3.81,2.28-6.21h-4.43v16.82c0,1.49-.4,2.44-1.2,2.86-.14.05-.26.11-.37.17-.97.39-2.97.58-6.01.58-.17-1.08-.48-2.07-.95-2.98,2.46.05,4,.05,4.64,0,.52-.06.8-.28.83-.66v-16.78h-6.96v-2.78h10.81c-2.49-2.26-5.39-4.29-8.7-6.09l1.7-2.03c1.33.69,2.76,1.52,4.31,2.49,1.46-1.41,2.86-3.05,4.18-4.93h-11.35v-2.82h13.34l.62-.21,1.99,1.37c-1.82,2.96-4.02,5.66-6.59,8.12,1.44,1.02,2.54,1.95,3.31,2.78l-1.04,1.33h3.11l.46-.12,1.95.5c-1.74,4.89-2.94,7.97-3.61,9.24ZM762.16,87.07l2.78,1.62c-2.13,2.02-4.93,3.76-8.41,5.22-.44.19-.86.36-1.24.5-.39-.47-1.08-1.17-2.07-2.11,3.2-1.16,5.88-2.62,8.04-4.39.36-.3.66-.58.91-.83ZM757.98,64.28h6.38c.44-1.93.72-3.27.83-4.02h-8.83v-2.73h21.38v2.73h-9.07c-.06.17-.46,1.51-1.2,4.02h8.78v21.96h-18.27v-21.96ZM773.27,70.87v-4.14h-12.39v4.14h12.39ZM773.27,77.25v-4.14h-12.39v4.14h12.39ZM773.27,83.8v-4.14h-12.39v4.14h12.39ZM768.71,88.85l2.36-1.62c3.18,1.88,5.68,3.66,7.5,5.34l-2.45,1.82c-1.74-1.69-4.21-3.54-7.42-5.55Z"/>
    <path class="cls-3" d="M820.98,84.5v2.65h-9.74v7.09h-3.19v-7.09h-11.39c-1.33,3.12-4.86,5.52-10.61,7.21-.55-.91-1.2-1.7-1.95-2.36,4.58-1.16,7.6-2.78,9.03-4.85h-9.74v-2.65h10.77c.03-.25.04-.54.04-.87v-2.78h-5.72v-15.74h4.6c-.47-1.19-1.16-2.46-2.07-3.81h-2.16c-1.27,1.82-2.53,3.34-3.77,4.56-1.08-.86-1.93-1.42-2.57-1.7,2.51-2.1,4.5-4.81,5.97-8.12.08-.22.17-.43.25-.62l2.9.75c-.25.58-.66,1.44-1.24,2.57h11.15v2.57h-7.25c.77,1.22,1.3,2.2,1.58,2.94l-2.28.87h8.33c-.72-.5-1.57-.95-2.57-1.37,2.51-1.99,4.42-4.57,5.72-7.75.08-.22.15-.41.21-.58l3.02.66c-.33.94-.73,1.82-1.2,2.65h13.47v2.57h-8.04c.86.99,1.52,1.93,1.99,2.82l-2.24.99h4.18v15.74h-5.22v3.65h9.74ZM791.61,67.27v2.44h21.63v-2.44h-21.63ZM791.61,71.74v2.4h21.63v-2.4h-21.63ZM791.61,76.22v2.53h21.63v-2.53h-21.63ZM797.24,84.5h10.81v-3.65h-10.77v2.78c0,.39-.01.68-.04.87ZM808.97,61.3h-3.4c-1.11,1.55-2.2,2.82-3.27,3.81h9.49c-.69-1.27-1.63-2.54-2.82-3.81Z"/>
    <path class="cls-3" d="M74.84,134.82l2.9.87c-1.3,3.29-2.75,6.28-4.35,8.99v28.63h-2.98v-24.11c-1.49,2.04-3,3.83-4.52,5.34-.61-1.27-1.22-2.31-1.82-3.11,3.62-3.4,6.71-7.79,9.28-13.18.55-1.16,1.05-2.31,1.49-3.44ZM101.49,149.45l2.32,2.24c-2.82,2.43-5.72,4.61-8.7,6.55,2.4,5.86,5.62,9.9,9.65,12.14-.86.72-1.6,1.6-2.24,2.65-6.38-3.87-10.76-12-13.13-24.4-.08-.44-.17-.87-.25-1.28-1.55,2.24-3.26,4.31-5.14,6.21v14.46c.25-.05,3.47-.79,9.65-2.2l.25,2.86c-2.21.52-5.52,1.33-9.94,2.4-3.4.8-5.79,1.37-7.17,1.7l-.99-3.02c.61-.11,1.64-.33,3.11-.66.94-.19,1.64-.34,2.11-.46v-12.39c-1.6,1.35-3.34,2.62-5.22,3.81-.86-1.16-1.57-2.02-2.15-2.57,4.86-2.68,8.88-6.17,12.06-10.48.39-.52.75-1.05,1.08-1.57h-11.48v-2.98h12.68v-7.25h3.19v7.25h12.06v2.98h-11.56c.69,4.03,1.52,7.49,2.49,10.36,3.04-2.29,5.48-4.41,7.33-6.34Z"/>
    <path class="cls-3" d="M138.18,148.53h8.87v2.61h-31.78v4.18c-.03,8.04-1.52,14.18-4.47,18.44-.5-.64-1.27-1.27-2.32-1.91-.06-.03-.1-.06-.12-.08,2.6-3.73,3.89-9.23,3.89-16.49v-6.75h4.85c-.5-.88-.87-1.48-1.12-1.78,3.45-.61,6.73-1.38,9.82-2.32-3.15-.97-5.79-1.7-7.91-2.2l1.78-1.45h-8.04v-2.57h14.79v-3.48h3.11v3.48h15.45v2.57h-7.33l.7.41c-1.38.97-3.33,2-5.84,3.11,2.32.8,4.74,1.71,7.25,2.73l-1.57,1.49ZM133.16,164.82v5.1h13.55v2.65h-30.04v-2.65h13.38v-5.1h-9.57v-2.49h9.57v-4.27h-8.08c-1.05,1.6-2.06,2.9-3.02,3.89-.69-.64-1.48-1.17-2.36-1.62,2.29-2.24,4.06-5.03,5.3-8.37l2.78.58c-.28.77-.69,1.75-1.24,2.94h6.63v-3.4h3.11v3.4h11.15v2.57h-11.15v4.27h10.15v2.49h-10.15ZM118.5,148.53h18.52c-2.24-.97-4.83-1.96-7.79-2.98-3.56,1.27-7.14,2.27-10.73,2.98ZM134.82,140.79h-14.05c1.96.47,4.82,1.3,8.58,2.49,2.02-.69,3.84-1.52,5.47-2.49Z"/>
    <path class="cls-3" d="M153.95,173.48v-18.48h15v18.11h-3.11v-1.91h-8.87v2.28h-3.02ZM165.84,158.06h-8.87v10.07h8.87v-10.07ZM183.2,136.52v14.05h-23.08v-14.05h23.08ZM180.01,147.54v-8h-16.86v8h16.86ZM173.55,155h15.79v18.19h-3.11v-1.99h-9.61v2.28h-3.07v-18.48ZM176.61,168.13h9.61v-10.07h-9.61v10.07Z"/>
    <path class="cls-3" d="M234.31,150.48h-5.22v5.1h4.97v2.86h-4.97v11.15c0,1.57-.43,2.62-1.28,3.15-.17.08-.32.15-.46.21-.99.33-3.27.5-6.84.5-.17-1.19-.5-2.24-.99-3.15,2.68.08,4.54.1,5.59.04.52-.22.81-.48.87-.79v-11.1h-15.29v-2.28l-4.47,1.41v15.87h-2.9v-15l-7.04,2.2-.83-2.98c3.09-.83,5.72-1.57,7.87-2.24v-9.2h-3.89c-.55,2.54-1.17,4.63-1.86,6.26-.72-.52-1.51-.99-2.36-1.41,1.27-2.9,2.22-7.6,2.86-14.09l2.78.46c-.17,1.49-.43,3.44-.79,5.84h3.27v-8.54h2.9v8.54h4.39v2.94h-4.39v8.33l4.93-1.49.37,2.53h14.46v-5.1h-16.03v-2.94h10.77v-5.39h-8.25v-2.86h8.25v-4.6h3.15v4.6h8.49v2.86h-8.49v5.39h10.44v2.94ZM212.89,161.13l2.36-1.45c2.32,2.21,4.05,4.34,5.18,6.38.08.14.15.26.21.37l-2.53,1.62c-.88-1.91-2.53-4.12-4.93-6.63-.11-.11-.21-.21-.29-.29Z"/>
    <path class="cls-3" d="M241.05,154.42l-2.44-.83c1.08-2.62,1.81-6.26,2.2-10.9l2.36.37c-.25,4.17-.91,7.84-1.99,11.02-.06.14-.1.25-.12.33ZM244.69,173.44v-38.74h3.15v38.74h-3.15ZM248.13,142.49l2.2-.99c1.49,2.65,2.53,5.01,3.11,7.08l-2.36,1.12c-.5-1.99-1.48-4.39-2.94-7.21ZM266.78,168.96h10.61v3.02h-25.9v-3.02h12.14v-10.61h-8.99v-2.9h8.99v-8.78h-6.21c-.88,2.65-1.86,4.83-2.94,6.55-.5-.33-1.44-.8-2.82-1.41,2.26-3.45,3.98-8.51,5.14-15.16l3.07.5c-.41,2.13-.93,4.3-1.53,6.5h5.3v-8.78h3.15v8.78h9.57v3.02h-9.57v8.78h8.66v2.9h-8.66v10.61Z"/>
    <path class="cls-3" d="M298.29,152.68l.37,2.94c-.52.17-1.33.41-2.4.75-1.74.53-3.02.91-3.85,1.16v11.73c0,1.52-.4,2.51-1.2,2.98-.11.05-.22.11-.33.17-.91.41-2.85.62-5.8.62-.14-.94-.47-1.93-.99-2.98,1.35.03,2.8.04,4.35.04.55-.06.84-.34.87-.87v-10.73c-.77.22-1.89.55-3.36.99-1.1.33-1.91.57-2.4.7l-.95-3.15c.63-.17,1.68-.44,3.15-.83,1.57-.41,2.76-.72,3.56-.91v-9.07h-6.34v-2.98h6.34v-8.45h3.11v8.45h5.84v2.98h-5.84v8.12l5.88-1.66ZM321.37,138.3v3.11h-7.5v27.43c0,1.82-.5,2.98-1.49,3.48-.19.11-.39.19-.58.25-1.22.44-3.94.66-8.16.66-.25-1.08-.69-2.21-1.33-3.4,3.15.14,5.51.17,7.08.08.75-.08,1.13-.46,1.16-1.12v-27.39h-12.1v-3.11h22.91Z"/>
    <path class="cls-3" d="M334.98,154.33v10.61c1.96,2.98,5.52,4.59,10.69,4.81,6.46.17,12.66.08,18.6-.25.28,0,.52-.01.75-.04-.5.88-.86,1.91-1.08,3.07-6.52.22-12.6.26-18.23.12-5.19-.22-9.06-1.67-11.6-4.35-.19-.22-.37-.43-.54-.62-1.46,1.41-3.51,3.22-6.13,5.43l-1.62-3.11c2.26-1.66,4.28-3.27,6.05-4.85v-7.87h-5.51v-2.94h8.62ZM336.02,148.62l-2.2,2.24c-1.41-1.55-3.7-3.18-6.88-4.89-.17-.08-.3-.15-.41-.21l2.07-2.03c3.07,1.49,5.44,3.02,7.13,4.6.11.11.21.21.29.29ZM337.26,140.33l-2.2,2.15c-1.38-1.6-3.51-3.27-6.38-5.01-.17-.11-.33-.21-.5-.29l2.07-1.95c3.34,1.85,5.68,3.55,7,5.1ZM349.28,142.78h-6.38c-.91,1.57-1.99,3.07-3.23,4.47-.83-.61-1.74-1.13-2.73-1.57,2.62-2.46,4.65-5.84,6.09-10.15.03-.11.06-.19.08-.25l2.94.75c-.3.91-.86,2.25-1.66,4.02h4.89v-5.26h3.11v5.26h10.11v2.73h-10.11v5.43h11.93v2.73h-27.06v-2.73h12.02v-5.43ZM361.17,167.1h-3.11v-1.41h-13.92v1.53h-3.02v-13.01h20.05v12.89ZM344.14,162.99h13.92v-6.21h-13.92v6.21Z"/>
    <path class="cls-3" d="M408.1,161.42v2.57h-10.11v6.09c0,1.38-.37,2.26-1.12,2.65-.19.11-.39.19-.58.25-.97.3-3.25.46-6.84.46-.14-.88-.47-1.8-.99-2.73,2.73.08,4.61.1,5.63.04.52-.14.8-.39.83-.75v-6.01h-16.08c2.82,1.66,5.07,3.33,6.75,5.01.08.08.15.15.21.21l-2.24,2.11c-1.52-1.71-3.81-3.52-6.88-5.43-.06-.03-.1-.05-.12-.08l2.07-1.82h-8.78v-2.57h25.07v-2.61c-8.04.22-15.8.39-23.29.5l-.12-2.49c4.53,0,9.81-.04,15.83-.12v-2.32h-12.97v-11.48h12.97v-2.4h-16.24v-2.53h16.24v-3.19h3.07v3.19h15.99v2.53h-15.99v2.4h13.38v11.48h-4.89c3.18,1.27,5.7,2.64,7.58,4.1l-1.86,1.78c-.75-.61-1.56-1.17-2.44-1.7l-4.18.12v2.73h10.11ZM377.31,145.05v2.53h10.03v-2.53h-10.03ZM377.31,152.26h10.03v-2.65h-10.03v2.65ZM400.72,145.05h-10.32v2.53h10.32v-2.53ZM400.72,152.26v-2.65h-10.32v2.65h10.32ZM390.4,154.38v2.32l8-.12c-1.41-.64-2.47-1.06-3.19-1.28l.99-.91h-5.8Z"/>
    <path class="cls-3" d="M420.14,143.98v5.14c-.03,10.86-1.63,18.92-4.81,24.2-.83-.66-1.71-1.17-2.65-1.53,2.79-4.56,4.25-11.45,4.39-20.68v-14.25h31.86v7.13h-28.8ZM428.8,158.81h20.92s-.03.43-.08,1.2c-.33,6.6-.83,10.55-1.49,11.85-.11.19-.22.36-.33.5-.58.61-1.33.94-2.24.99-.75.08-1.93.1-3.56.04-.03-.28-.1-.7-.21-1.28l-.41.25c-.14-.19-.5-.61-1.08-1.24-6.79.36-13.01.66-18.65.91l-.21-2.24c.69-.03,1.81-.05,3.36-.08,2.84-.08,5.04-.15,6.59-.21v-1.91h-7.54v-3.94c-.97.75-1.89,1.4-2.78,1.95-.44-.64-1.13-1.24-2.07-1.82,3.12-1.74,5.66-3.89,7.62-6.46h-4.6v-5.34h26.72v5.34h-18.89c-.25.36-.61.86-1.08,1.49ZM445.95,139.05h-25.81v2.73h25.81v-2.73ZM422.37,150.27v-1.62h9.07v1.62h-9.07ZM422.46,145.39h8.91v1.66h-8.91v-1.66ZM424.69,153.59v2.11h5.26v-2.11h-5.26ZM431.41,160.8h-4.31c-.75.75-1.33,1.3-1.74,1.66h6.05v-1.66ZM426.31,165.98h5.1v-1.99h-5.1v1.99ZM432.48,153.59v2.11h5.51v-2.11h-5.51ZM436.71,150.98h-2.9v-6.26h2.9v6.26ZM441.93,167.59h-2.36c1.68,1.3,2.93,2.49,3.73,3.56h.99c.5-.03.84-.17,1.04-.41.61-.8,1.08-4.09,1.41-9.86v-.08h-12.6v1.66h7.79v5.14ZM439.44,165.98v-1.99h-5.3v1.99h5.3ZM434.14,167.59v1.78l4.27-.21c-.44-.39-.77-.66-.99-.83l1.49-.75h-4.77ZM438.95,150.27v-1.62h9.57v1.62h-9.57ZM439.03,145.39h9.32v1.66h-9.32v-1.66ZM440.52,153.59v2.11h5.59v-2.11h-5.59Z"/>
    <path class="cls-3" d="M485.21,145.18l2.11,1.33c-1.93,2.98-4.71,5.69-8.33,8.12,4.81,2.21,10.29,3.7,16.45,4.47-.86.91-1.52,1.91-1.99,2.98-1.96-.28-3.87-.65-5.72-1.12v12.39h-3.19v-1.37h-17.15v1.41h-3.02v-12.02c-2.29.69-4.43,1.26-6.42,1.7-.41-1.1-.94-2.03-1.57-2.78,6.1-1.13,11.68-2.98,16.74-5.55-2.27-1.52-4.17-3.18-5.72-4.97-1.93,1.55-4.14,2.94-6.63,4.18-.61-.91-1.31-1.66-2.11-2.24,4.75-2.1,8.47-4.86,11.15-8.29.33-.44.64-.87.91-1.28l3.4.62c-.77,1.08-1.42,1.92-1.95,2.53h12.51l.54-.12ZM461.18,141.45v5.01h-3.02v-7.96h16.08v-3.77h3.19v3.77h16.24v7.96h-3.15v-5.01h-29.33ZM467.1,160.51h18.89c-3.73-1.08-7.06-2.42-9.99-4.02-2.73,1.52-5.7,2.86-8.91,4.02ZM467.4,169.25h17.15v-6.13h-17.15v6.13ZM469.72,147.79l-.12.17c1.57,1.82,3.73,3.54,6.46,5.14,2.68-1.68,4.83-3.45,6.46-5.3h-12.8Z"/>
    <path class="cls-3" d="M533.8,160.67l2.28,1.66c-2.1,1.46-4.79,2.96-8.08,4.47,2.96,2.04,6.57,3.42,10.86,4.14-.61.58-1.2,1.44-1.78,2.57-8.56-1.77-14.47-6.06-17.73-12.89-1.55,1.16-3.6,2.38-6.17,3.65v5.14c1.02-.17,2.62-.41,4.81-.75,2.21-.36,3.85-.62,4.93-.79l.17,2.53-16.7,2.73-.54-2.65c1.27-.17,2.72-.37,4.35-.62v-4.31c-2.82,1.1-5.63,1.96-8.45,2.57-.36-.75-.94-1.52-1.74-2.32,5.55-1.05,10.37-2.69,14.46-4.93.36-.19.69-.39.99-.58h-14.75v-2.61h17.15v-2.49h3.15v2.49h17.19v2.61h-16.03c1.05,1.88,2.32,3.52,3.81,4.93,3.37-1.66,5.98-3.18,7.83-4.56ZM510.05,147.08v-2.24h-9.53v-2.32h9.53v-2.61h-5.01c-.44.88-.98,1.74-1.62,2.57-.25-.19-.99-.59-2.24-1.2,1.46-1.71,2.58-3.85,3.36-6.42l2.49.58c-.11.3-.29.77-.54,1.41-.17.39-.29.68-.37.87h3.94v-3.02h2.69v3.02h7.58v2.2h-7.58v2.61h9.03v2.32h-9.03v2.24h7.79v5.14c0,.99-.22,1.63-.66,1.91-.14.08-.28.15-.41.21-.58.25-1.91.37-3.98.37-.08-.36-.37-1.04-.87-2.03,1.49.06,2.44.06,2.86,0,.28-.05.43-.21.46-.46v-3.02h-5.18v6.88h-2.69v-6.88h-4.89v5.76h-2.57v-7.87h7.46ZM526.88,136.35v14.17h-2.82v-14.17h2.82ZM536.57,135.11v17.57c0,1.33-.35,2.2-1.04,2.61-.17.11-.35.19-.54.25-.83.3-2.87.46-6.13.46-.14-.88-.46-1.77-.95-2.65,2.38.08,4.05.1,5.01.04.47-.08.72-.32.75-.7v-17.57h2.9Z"/>
    <path class="cls-3" d="M551.97,134.61l3.4.62c-.88,2.6-1.63,4.68-2.24,6.26h7.04v27.51h-11.77v3.36h-2.9v-30.87h4.76c.88-2.9,1.45-5.19,1.7-6.88ZM557.31,153.17v-8.87h-8.91v8.87h8.91ZM548.4,166.18h8.91v-10.19h-8.91v10.19ZM580.93,141.37v1.62c-.47,13.31-1.02,21.56-1.66,24.74-.33,1.52-.75,2.58-1.24,3.19-.77.99-1.84,1.56-3.19,1.7h-.17c-1.22.14-3.31.12-6.3-.04-.11-1.08-.47-2.1-1.08-3.07,1.85.17,3.95.25,6.3.25.83-.03,1.41-.25,1.74-.66.94-.99,1.62-5.07,2.03-12.22.19-3.18.37-7.38.54-12.6h-10.77c-1.38,3.26-2.71,5.75-3.98,7.46-.41-.39-1.27-.98-2.57-1.78,2.73-3.56,4.89-8.7,6.46-15.41l3.02.7c-.5,2.04-1.1,4.09-1.82,6.13h12.68ZM574.22,160.43l-2.65,1.66c-1.3-2.51-3.45-5.77-6.46-9.78l2.49-1.45c3.07,3.95,5.28,7.14,6.63,9.57Z"/>
    <path class="cls-3" d="M598.27,143.73l2.94,1.12c-1.24,2.02-2.8,4.14-4.68,6.38v22.33h-3.11v-18.85c-1.82,1.85-3.43,3.33-4.81,4.43-.83-1.13-1.56-2.02-2.2-2.65,3.78-2.71,7.17-6.12,10.15-10.23.64-.86,1.2-1.7,1.7-2.53ZM596.53,134.7l3.02,1.2c-2.49,3.34-5.62,6.49-9.41,9.45-.5.39-.98.75-1.45,1.08-.91-1.33-1.53-2.17-1.86-2.53,3.09-2.07,5.86-4.53,8.29-7.38.55-.66,1.02-1.27,1.41-1.82ZM625.58,148.87v3.02h-6.42v17.53c0,1.6-.44,2.65-1.33,3.15-.17.08-.35.17-.54.25-1.11.33-3.76.5-7.96.5-.14-.94-.48-1.96-1.04-3.07,3.23.08,5.44.1,6.63.04.64-.22.98-.52,1.04-.91v-17.48h-14.17v-3.02h23.78ZM624.33,137.26v2.98h-20.72v-2.98h20.72Z"/>
    <path class="cls-3" d="M640.64,167.47l6.79-1.28.17,2.65c-5.69,1.24-11.09,2.35-16.2,3.31l-.75-2.86c3.2-.55,5.61-.98,7.21-1.28v-12.97h-6.79v-2.73h6.79v-4.47h-4.6v-1.53c-.3.33-.76.77-1.37,1.33-.53-.77-1.15-1.42-1.87-1.95-.06-.03-.1-.06-.12-.08,3.23-2.79,5.73-6.26,7.5-10.4.08-.17.15-.32.21-.46h2.82c3.09,2.65,5.5,5.12,7.21,7.42.14.17.25.32.33.46l-2.03,2.57c-1.71-2.54-3.74-4.94-6.09-7.21-.14-.11-.25-.21-.33-.29-1.55,2.79-3.27,5.28-5.18,7.46h11.15v2.69h-4.85v4.47h6.13v2.73h-6.13v12.43ZM634.22,157.48c.94,2.57,1.55,5.15,1.82,7.75l-2.32.7c-.14-2.29-.7-4.93-1.7-7.91l2.2-.54ZM642.05,164.82c.91-2.9,1.57-5.51,1.99-7.83l2.49.75c-1.13,3.78-1.95,6.37-2.44,7.75l-2.03-.66ZM654.52,144.43c-.19-.5-.45-1.07-.77-1.72-.32-.65-.66-1.33-1.02-2.03-.36-.7-.73-1.42-1.12-2.13-.39-.72-.77-1.41-1.16-2.07l-2.32,1.04c.36.64.72,1.33,1.1,2.07.37.75.73,1.49,1.08,2.22.34.73.66,1.44.95,2.11.29.68.53,1.28.72,1.8l2.53-1.28ZM667.12,147.33h-7.46v-12.72h-3.11v12.72h-7.75v26.06h3.07v-9.16h12.14v5.26c0,.47-.23.72-.7.75h-1.66c-.83,0-1.74-.03-2.73-.08.22.41.44.9.66,1.45.22.55.37,1.04.46,1.45,1.41,0,2.55-.03,3.42-.1.87-.07,1.58-.23,2.13-.48.58-.28.98-.64,1.2-1.08.22-.44.33-1.06.33-1.86v-22.21ZM664.01,150.11v4.39h-12.14v-4.39h12.14ZM651.87,161.54v-4.52h12.14v4.52h-12.14ZM665.88,136.52c-.25.64-.54,1.32-.87,2.05-.33.73-.69,1.46-1.08,2.2-.39.73-.77,1.44-1.16,2.11-.39.68-.76,1.29-1.12,1.84l2.2,1.08c.36-.52.74-1.11,1.14-1.76.4-.65.8-1.33,1.2-2.05.4-.72.79-1.44,1.18-2.18.39-.73.75-1.44,1.08-2.13l-2.57-1.16Z"/>
    <path class="cls-3" d="M682.39,141.16h-2.07c-1.27,1.91-2.61,3.52-4.02,4.85-1-.77-1.85-1.35-2.57-1.74,2.6-2.24,4.67-5.11,6.21-8.62.17-.39.32-.75.46-1.08l2.94.75c-.41,1.02-.88,2.06-1.41,3.11h10.86v2.73h-7.25c.86,1.52,1.46,2.82,1.82,3.89l-2.78.99c-.36-1.24-1.09-2.87-2.2-4.89ZM695.23,155.79v3.98c2.51,2.82,6.13,5.21,10.86,7.17,2.29.94,4.6,1.67,6.92,2.2-.66.72-1.33,1.64-1.99,2.78-5.53-1.49-10.41-4.05-14.67-7.67-.41-.33-.79-.66-1.12-.99v10.19h-3.31v-10.28c-3.73,3.65-8.31,6.41-13.76,8.29-.72.22-1.41.43-2.07.62-.47-.97-1.13-1.84-1.99-2.61,5.41-1.24,10.11-3.4,14.09-6.46,1.49-1.16,2.73-2.35,3.73-3.56v-3.65h-10.44v8.12h-3.27v-10.9h13.71v-3.27h-16.74v-2.78h16.74v-1.41c-.88-.72-1.56-1.17-2.03-1.37,2.76-2.18,4.88-5.03,6.34-8.54.17-.39.3-.75.41-1.08l3.11.7c-.25.66-.72,1.71-1.41,3.15h13.63v2.73h-8.74c.97,1.46,1.64,2.75,2.03,3.85l-2.78.95c-.5-1.41-1.34-3.01-2.53-4.81h-3.23c-.08.11-.17.22-.25.33-.08.11-.15.21-.21.31-.06.1-.14.21-.25.35-.11.14-.19.24-.25.31-.06.07-.14.17-.25.31-.11.14-.19.24-.23.29-.04.06-.12.17-.25.33s-.2.26-.23.29c-.03.03-.12.14-.29.33l-.21.25h.91v2.69h16.16v2.78h-16.16v3.27h13.76v7.83c0,1.19-.3,1.98-.91,2.36-.17.08-.33.17-.5.25-.75.28-2.46.41-5.14.41-.14-.61-.48-1.44-1.04-2.49.63.03,1.91.04,3.81.04.39-.06.59-.25.62-.58v-5.05h-10.61Z"/>
    <path class="cls-3" d="M752.35,139.05l2.03,1.04c-1.57,3.89-3.94,7.47-7.08,10.73,3.12,2.65,6.45,4.61,9.99,5.88-.8.77-1.49,1.67-2.07,2.69-.22-.08-.66-.28-1.33-.58v14.34h-3.07v-1.37h-11.77v1.45h-2.94v-14.29c-.14.06-.83.36-2.07.91-.25-.55-.59-1.09-1.04-1.62v6.46h-11.56v3.73h-2.4v-31.24h13.96v8.99c3.67-2.98,6.45-6.7,8.33-11.15.05-.17.11-.32.17-.46l2.94.79c-.41,1.02-1.04,2.31-1.86,3.85h9.2l.58-.17ZM724.84,139.92h-3.4v9.2h3.4v-9.2ZM721.44,151.81v10.07h3.4v-10.07h-3.4ZM730.44,149.11v-9.2h-3.44v9.2h3.44ZM727,161.88h3.44v-10.07h-3.44v10.07ZM733,147.5v9.61c3.73-1.57,7.11-3.69,10.15-6.34-1.74-1.91-3.22-3.88-4.43-5.92-1.27,1.55-2.64,2.94-4.1,4.18-.69-.69-1.23-1.2-1.62-1.53ZM737.81,158.02h14.58c-2.6-1.41-5-3.15-7.21-5.22-2.18,1.99-4.64,3.73-7.38,5.22ZM739.05,168.96h11.77v-8.12h-11.77v8.12ZM750.28,141.86h-9.36l-.46.66c1.24,2.21,2.82,4.31,4.72,6.3,2.15-2.26,3.85-4.58,5.1-6.96Z"/>
    <path class="cls-3" d="M31.27,197.77l2.82.95c-1.22,2.07-2.44,3.92-3.69,5.55v23.74h-2.94v-20.3c-1.82,1.96-3.41,3.48-4.76,4.56-.36-.77-.95-1.71-1.78-2.82,3.62-2.68,6.68-5.92,9.2-9.74.41-.66.8-1.31,1.16-1.95ZM30.28,189.2l2.9,1.08c-2.21,3.2-5.07,6.19-8.58,8.95-.5.39-.98.75-1.45,1.08-.66-.99-1.26-1.75-1.78-2.28,2.82-1.88,5.32-4.17,7.5-6.88.55-.69,1.02-1.34,1.41-1.95ZM48.88,215.51v8.83c1.1.19,2.36.29,3.77.29h7.83c-.55.88-.88,1.84-.99,2.86h-7.04c-4.34,0-7.61-.9-9.82-2.69-1.46-1.24-2.69-2.96-3.69-5.14-1.13,3.4-2.82,6.12-5.05,8.16-.53-.64-1.31-1.31-2.36-2.03,3.09-2.57,5.03-6.77,5.8-12.6.19-1.35.33-2.83.41-4.43l3.02.21c-.11,1.93-.36,4.02-.75,6.26,1.19,4.12,3.18,6.85,5.97,8.2v-17.73h.54c-.86-.75-1.57-1.28-2.15-1.62,4.06-3.04,6.59-8,7.58-14.87l3.02.37c-.39,2.51-.95,4.82-1.7,6.92,3.12,2.6,5.55,5,7.29,7.21.05.06.1.11.12.17l-2.15,2.15c-1.27-1.74-3.4-4.02-6.38-6.84-1.3,2.62-2.93,4.79-4.89,6.51h1.62v7.13h9.45v2.69h-9.45ZM46.52,200.34l-1.53,2.44c-1.08-1.27-2.49-2.64-4.23-4.1-1.52,3.29-3.34,5.94-5.47,7.96-.69-.83-1.45-1.51-2.28-2.03-.06-.03-.1-.05-.12-.08,3.84-3.4,6.41-8.51,7.71-15.33l3.02.46c-.41,2.1-1.02,4.27-1.82,6.51,2.21,1.74,3.78,3.14,4.72,4.18Z"/>
    <path class="cls-3" d="M82.59,219.07l.25,2.65c-4.94,1.22-10.61,2.5-16.99,3.85l-.79-2.94c2.62-.47,6.71-1.3,12.26-2.49l-2.11-.62c.8-2.65,1.44-5.51,1.91-8.58l3.02.79c-1.1,4.01-1.93,6.78-2.49,8.33l4.93-.99ZM82.3,191.47v2.9h-16.61v-2.9h16.61ZM81.31,198.39v11.35h-14.46v-11.35h14.46ZM72.19,219.15l-2.73.66c-.06-2.62-.58-5.23-1.57-7.83l2.53-.66c1.02,2.43,1.62,4.96,1.78,7.58v.25ZM78.45,207.14v-6.13h-8.83v6.13h8.83ZM88.68,220.81l2.78,1.57c-2.07,1.99-4.81,3.7-8.2,5.14-.39.17-.75.3-1.08.41-.64-.75-1.34-1.44-2.11-2.07,2.93-1.02,5.48-2.42,7.67-4.18.36-.3.68-.59.95-.87ZM84.71,197.94h5.88c.52-2.35.81-3.69.87-4.02h-8.04v-2.73h20.34v2.73h-8.83c-.5,1.66-.91,3-1.24,4.02h8.7v21.96h-17.69v-21.96ZM99.41,204.53v-4.14h-11.77v4.14h11.77ZM99.41,210.91v-4.14h-11.77v4.14h11.77ZM99.41,217.45v-4.18h-11.77v4.18h11.77ZM95.02,222.55l2.36-1.53c3.26,1.99,5.68,3.73,7.25,5.22l-2.49,1.7c-1.74-1.66-4.12-3.45-7.13-5.39Z"/>
    <path class="cls-3" d="M121.48,221.89l9.36-1.2.08,2.82c-4.09.61-11.35,1.64-21.79,3.11l-.5-3.15c1.88-.19,5.15-.58,9.82-1.16v-7.46h-8.12v-2.86h8.12v-5.05h3.02v5.05h8v2.86h-8v7.04ZM122.48,198.27l2.32-1.33c3.31,3.87,5.55,7.03,6.71,9.49l-2.44,1.49c-.39-.8-.87-1.68-1.45-2.65-1.69.11-7.8.48-18.35,1.12l-.25-3.02,3.85-.17c1.21-2.6,2.26-5.41,3.15-8.45h-6.92v-2.82h21.67v2.82h-11.23c-1.74,4.36-2.9,7.14-3.48,8.33,5.44-.22,8.7-.36,9.78-.41-1.16-1.66-2.28-3.12-3.36-4.39ZM135.57,194.25v23.33h-2.98v-23.33h2.98ZM142.53,190.36h3.07v33.27c0,1.8-.47,2.96-1.41,3.48-.17.11-.33.19-.5.25-1.05.36-3.49.54-7.33.54-.19-.99-.55-2.09-1.08-3.27,1.3.06,3.38.08,6.26.08.61-.25.94-.61.99-1.08v-33.27Z"/>
    <path class="cls-3" d="M187.72,201.42h-28.51v2.11c-.03,10.94-1.57,19.05-4.64,24.32-.8-.69-1.73-1.23-2.78-1.62,2.79-4.72,4.23-11.89,4.31-21.5v-13.55h31.61v10.23ZM184.57,193.96h-25.36v4.68h25.36v-4.68ZM176.82,224.37h8.12c.99,0,1.64-.34,1.95-1.04.22-.61.39-1.81.5-3.6.77.52,1.73.93,2.86,1.2-.25,2.82-.81,4.61-1.7,5.39-.72.61-1.84.91-3.36.91h-8.62c-2.51,0-4.13-.44-4.85-1.33-.53-.69-.79-1.82-.79-3.4v-3.02l-10.77,1.7-.54-2.61,11.31-1.74v-3.89l-9.45,1.45-.46-2.61,9.9-1.53v-3.6c-3.87.66-6.79,1.1-8.78,1.33-.14-.72-.44-1.49-.91-2.32,9.2-1.24,15.79-2.61,19.76-4.1l2.65,2.03c-2.49.88-5.7,1.71-9.65,2.49v3.77l12.02-1.82.46,2.53-12.47,1.91v3.89l14.96-2.32.5,2.57-15.45,2.44v3.48c0,.91.28,1.46.83,1.66.41.14,1.08.21,1.99.21Z"/>
    <path class="cls-3" d="M195.82,206.43h38.53v3.44h-38.53v-3.44Z"/>
    <path class="cls-3" d="M277.55,210.99v3.11h-17.4v9.41c0,1.74-.52,2.87-1.57,3.4-.22.11-.44.21-.66.29-1.38.41-4.3.61-8.74.58-.3-1.05-.76-2.1-1.37-3.15,3.18.11,5.79.12,7.83.04.8-.22,1.24-.62,1.33-1.2v-9.36h-17.44v-3.11h17.44v-6.88h-14.58v-2.98h14.58v-6.55c-4.31.44-8.92.79-13.84,1.04-.14-.94-.4-1.88-.79-2.82,13.29-.61,22.77-1.78,28.46-3.52.08,0,.15-.01.21-.04l2.36,2.49c-3.45,1.05-7.86,1.89-13.22,2.53v6.88h15v2.98h-15v6.88h17.4Z"/>
    <path class="cls-3" d="M314.45,197.86h-22.08c-2.18,3.12-4.64,5.8-7.38,8.04-1.13-1.13-2-1.89-2.61-2.28,3.92-2.87,7.2-6.75,9.82-11.64.52-1.02,1.01-2.03,1.45-3.02l3.19.91c-.72,1.69-1.57,3.34-2.57,4.97h23.41v1.49c-.33,10.5-.79,16.82-1.37,18.98-.22.72-.46,1.24-.7,1.57-.61.8-1.51,1.27-2.69,1.41-1.22.14-2.86.14-4.93,0-.06-1.05-.32-2.04-.79-2.98,1.82.17,3.23.22,4.23.17.64,0,1.1-.19,1.41-.58.77-1.02,1.31-6.59,1.62-16.7v-.33ZM297.59,224.04h16.12c1.82,0,3.02-.37,3.6-1.12.47-.69.81-2.09,1.04-4.18.8.52,1.81.9,3.02,1.12-.33,2.87-.98,4.76-1.95,5.68-1.05.97-2.94,1.45-5.68,1.45h-15.99c-3.65,0-6.04-.48-7.17-1.45-.94-.86-1.41-2.32-1.41-4.39v-18.93h17.19v12.51h-14.09v6.42c0,1.24.37,2.04,1.12,2.4.75.33,2.14.5,4.18.5ZM303.31,205.06h-11.02v6.84h11.02v-6.84Z"/>
    <path class="cls-3" d="M339.46,212.94l.17,2.65c-.58.08-1.45.23-2.61.46-1.16.22-2.03.37-2.61.46-.41,5.03-2.4,8.83-5.97,11.39-.64-.86-1.28-1.55-1.95-2.07,2.9-1.82,4.54-4.75,4.93-8.78-.77.14-2.4.41-4.89.83l-.58-2.78c1.3-.17,3.16-.44,5.59-.83v-5.55h-5.39v-2.73h13.38v2.73h-5.05v5.1l4.97-.87ZM339.09,194.75v2.73h-12.51v-2.73h4.97v-5.59h2.94v5.59h4.6ZM331.67,204.94l-2.44.66c-.06-2.18-.5-4.47-1.33-6.88l2.28-.58c.88,2.32,1.38,4.59,1.49,6.79ZM336.14,205.73l-2.11-.58c.83-2.57,1.42-4.94,1.78-7.13l2.57.5c-1.08,3.73-1.82,6.13-2.24,7.21ZM350.15,198.85v1.49c-.19,13.29-.48,21.13-.87,23.53-.17.97-.37,1.64-.62,2.03-.5.83-1.23,1.31-2.2,1.45-.83.08-1.98.1-3.44.04-.06-1.05-.29-1.95-.7-2.69.88.08,1.86.12,2.94.12.52-.03.9-.25,1.12-.66.47-.86.8-6.17.99-15.95.05-1.91.1-4.09.12-6.55h-2.98c-.36,9.5-1.56,16.75-3.6,21.75-.69,1.66-1.48,3.18-2.36,4.56-.53-.64-1.23-1.27-2.11-1.91,3.01-4.25,4.82-10.91,5.43-19.97.08-1.41.15-2.89.21-4.43h-2.73v-2.82h2.82c.03-2.1.04-5.33.04-9.7h2.57c0,3.4-.04,6.63-.12,9.7h5.51ZM364.86,208.67h-5.72v6.01h5.1v2.65h-5.1v10.65h-2.94v-10.65h-4.97v-2.65h4.97v-6.01h-5.43v-2.69h14.09v2.69ZM364.36,194.75v2.69h-13.34v-2.69h5.18v-5.59h2.94v5.59h5.22ZM356.2,205.11l-2.44.66c-.06-2.04-.52-4.41-1.41-7.08l2.28-.54c.88,2.35,1.41,4.67,1.57,6.96ZM360.96,205.73l-2.15-.58c.97-3.09,1.59-5.5,1.86-7.21l2.65.58c-1.05,3.48-1.84,5.88-2.36,7.21Z"/>
    <path class="cls-3" d="M385.6,202.87c3.2,2.6,6.24,5.58,9.12,8.95.14.17.26.32.37.46l-2.86,2.4c-3.07-3.7-6.19-6.84-9.36-9.41l2.73-2.4Z"/>
    <path class="cls-3" d="M441.52,189.36c3.34,1.71,5.87,3.33,7.58,4.85l-1.95,2.15h4.27v3.11h-13.51c.44,5.97,1.22,10.87,2.32,14.71,2.29-3.42,4.1-7.24,5.43-11.44l3.19.79c-1.88,5.61-4.36,10.39-7.46,14.34,1.68,4.36,3.58,6.56,5.68,6.59.83,0,1.39-1.31,1.7-3.94.11-1.02.21-2.33.29-3.94.83.83,1.74,1.4,2.73,1.7-.36,4.39-1.08,7.15-2.15,8.29-.66.69-1.6,1.04-2.82,1.04-3.09-.06-5.68-2.38-7.75-6.96-2.54,2.79-5.46,5.14-8.74,7.04-.8-1.08-1.56-1.92-2.28-2.53,3.76-2.04,7-4.65,9.74-7.83-1.49-4.75-2.53-10.7-3.11-17.86h-14.63v5.51h10.81v1.37c-.17,7.49-.48,11.93-.95,13.34-.14.36-.28.64-.41.83-.58.69-1.42,1.09-2.53,1.2-1.19.08-2.87.08-5.06,0-.06-1.1-.35-2.09-.87-2.94,1.63.14,3.12.21,4.48.21.63-.03,1.06-.18,1.28-.46.44-.5.75-3.31.91-8.45,0-.66.01-1.38.04-2.15h-7.71v.33c-.03,9.01-1.52,15.66-4.47,19.97-.66-.75-1.48-1.42-2.44-2.03l-.17-.08c2.51-3.73,3.8-9.42,3.85-17.07v-12.68h17.69c-.11-1.57-.19-3.95-.25-7.13h3.27c0,2.73.06,5.11.17,7.13h9.45c-1.77-1.63-4.21-3.3-7.33-5.01l-.17-.08,1.86-1.91Z"/>
    <path class="cls-3" d="M494.2,211.53c0,.17-.01.33-.04.5,0,.33-.04.62-.12.87-.19,2.21-.39,4.11-.58,5.7-.19,1.59-.4,2.92-.62,4-.22,1.08-.47,1.94-.75,2.59-.28.65-.58,1.14-.91,1.47-.41.41-.84.7-1.28.85-.44.15-.98.26-1.62.31-.22.03-.5.04-.85.04h-2.69c-.57,0-1.15-.03-1.76-.08-.06-.44-.16-.93-.31-1.47-.15-.54-.35-1.01-.6-1.43,1.05.14,2.04.21,2.96.23.92.01,1.58.02,1.97.02s.7-.03.93-.08c.23-.06.46-.17.68-.33.22-.22.43-.57.62-1.06.19-.48.39-1.14.58-1.97s.38-1.85.56-3.07c.18-1.22.35-2.67.52-4.35h-26.19c-1.02.97-2.11,1.87-3.25,2.71-1.15.84-2.34,1.64-3.58,2.38-.19-.36-.46-.81-.81-1.35-.35-.54-.66-.96-.93-1.26,3.59-2.07,6.72-4.63,9.38-7.69,2.67-3.05,4.91-6.35,6.73-9.88h-13.96v-2.9h15.37c.5-1.19.97-2.38,1.41-3.58s.84-2.41,1.2-3.63l3.15.83c-.36,1.08-.73,2.15-1.12,3.21-.39,1.06-.81,2.12-1.28,3.17h11.02c-.22,1.27-.48,2.58-.77,3.94-.29,1.35-.57,2.58-.85,3.69h4.85c-.25,1.24-.52,2.55-.81,3.92-.29,1.37-.56,2.6-.81,3.71h4.56ZM459.07,225.86c.58-.55,1.12-1.19,1.62-1.91s.95-1.48,1.35-2.3c.4-.81.75-1.64,1.06-2.49.3-.84.55-1.68.75-2.51l2.65.83c-.25.88-.53,1.79-.85,2.71-.32.93-.68,1.82-1.08,2.69-.4.87-.85,1.71-1.35,2.51s-1.06,1.52-1.7,2.15l-2.44-1.7ZM467.69,196.2c-.19-.41-.44-.87-.75-1.37-.3-.5-.64-1-1.02-1.51-.37-.51-.77-1.02-1.18-1.53-.41-.51-.83-.99-1.24-1.43l2.73-1.16c.41.41.84.87,1.26,1.37.43.5.83.99,1.2,1.49.37.5.73.99,1.06,1.47.33.48.59.92.79,1.31l-2.86,1.37ZM486.7,211.53c.17-.72.35-1.49.54-2.32.19-.83.37-1.67.54-2.53h-16.45c-.61.86-1.23,1.69-1.86,2.49-.64.8-1.31,1.59-2.03,2.36h19.27ZM471.83,217.25c.39,1.38.7,2.85.93,4.39.23,1.55.35,2.9.35,4.06l-2.78.37c.06-1.16-.02-2.51-.23-4.06-.21-1.55-.52-3.02-.93-4.43l2.65-.33ZM475.68,199.18c-.39.8-.79,1.6-1.22,2.4-.43.8-.88,1.57-1.35,2.32h10.36c.22-.66.42-1.4.6-2.22.18-.81.35-1.65.52-2.51h-8.91ZM477.88,216.67c.28.58.55,1.19.81,1.82.26.64.51,1.28.75,1.93.23.65.43,1.27.6,1.86.17.59.29,1.14.37,1.64l-2.65.7c-.08-.5-.19-1.06-.33-1.68-.14-.62-.31-1.26-.52-1.91-.21-.65-.44-1.31-.68-1.97-.25-.66-.51-1.28-.79-1.86l2.44-.54ZM484.8,222.3c-.25-.77-.67-1.7-1.26-2.78-.59-1.08-1.21-2.06-1.84-2.94l2.24-.87c.64.86,1.26,1.81,1.86,2.86.61,1.05,1.06,1.96,1.37,2.73l-2.36.99Z"/>
    <path class="cls-3" d="M509.52,189.32l2.98.91c-1.24,3.15-2.69,6.17-4.35,9.07v28.51h-3.02v-23.82c-1.16,1.66-2.6,3.41-4.31,5.26-.58-1.3-1.17-2.32-1.78-3.07,3.59-3.54,6.66-8.12,9.2-13.76.47-1.05.9-2.09,1.28-3.11ZM535.2,200.22h-8v23.87c0,1.55-.37,2.55-1.12,3.02-.11.05-.22.11-.33.17-.99.44-2.87.66-5.63.66-.17-.91-.52-1.98-1.08-3.19.75.03,2.2.04,4.35.04.47-.06.72-.29.75-.7v-23.87h-6.46c-1.27,2.96-2.64,5.39-4.1,7.29-.72-.66-1.56-1.33-2.53-1.99,2.96-3.7,5.23-8.88,6.84-15.54.03-.22.07-.43.12-.62l3.11.66c-.61,2.4-1.35,4.83-2.24,7.29h17.15l.54-.17,2.15.54c-.52,2.98-1.15,5.98-1.86,8.99l-2.65-.5c.06-.39.17-1.06.33-2.03.3-1.74.52-3.05.66-3.94ZM517.26,207.22l3.11.58c-1.44,5.83-3.45,10.57-6.05,14.21-.06.11-.11.19-.17.25-.5-.41-1.41-.99-2.73-1.74,2.54-3.09,4.49-7.53,5.84-13.3ZM530.32,207.8l2.78-.91c2.35,4.42,4.02,8.69,5.01,12.8.11.5.21.95.29,1.37l-3.02,1.04c-.61-3.62-2.03-7.84-4.27-12.68-.28-.58-.54-1.12-.79-1.62Z"/>
    <path class="cls-3" d="M551.97,189.07l3.4.62c-.88,2.6-1.63,4.68-2.24,6.26h7.04v27.51h-11.77v3.36h-2.9v-30.87h4.76c.88-2.9,1.45-5.19,1.7-6.88ZM557.31,207.63v-8.87h-8.91v8.87h8.91ZM548.4,220.64h8.91v-10.19h-8.91v10.19ZM580.93,195.83v1.62c-.47,13.31-1.02,21.56-1.66,24.74-.33,1.52-.75,2.58-1.24,3.19-.77.99-1.84,1.56-3.19,1.7h-.17c-1.22.14-3.31.12-6.3-.04-.11-1.08-.47-2.1-1.08-3.07,1.85.17,3.95.25,6.3.25.83-.03,1.41-.25,1.74-.66.94-.99,1.62-5.07,2.03-12.22.19-3.18.37-7.38.54-12.6h-10.77c-1.38,3.26-2.71,5.75-3.98,7.46-.41-.39-1.27-.98-2.57-1.78,2.73-3.56,4.89-8.7,6.46-15.41l3.02.7c-.5,2.04-1.1,4.09-1.82,6.13h12.68ZM574.22,214.88l-2.65,1.66c-1.3-2.51-3.45-5.77-6.46-9.78l2.49-1.45c3.07,3.95,5.28,7.14,6.63,9.57Z"/>
    <path class="cls-3" d="M598.27,198.19l2.94,1.12c-1.24,2.02-2.8,4.14-4.68,6.38v22.33h-3.11v-18.85c-1.82,1.85-3.43,3.33-4.81,4.43-.83-1.13-1.56-2.02-2.2-2.65,3.78-2.71,7.17-6.12,10.15-10.23.64-.86,1.2-1.7,1.7-2.53ZM596.53,189.15l3.02,1.2c-2.49,3.34-5.62,6.49-9.41,9.45-.5.39-.98.75-1.45,1.08-.91-1.33-1.53-2.17-1.86-2.53,3.09-2.07,5.86-4.53,8.29-7.38.55-.66,1.02-1.27,1.41-1.82ZM625.58,203.32v3.02h-6.42v17.53c0,1.6-.44,2.65-1.33,3.15-.17.08-.35.17-.54.25-1.11.33-3.76.5-7.96.5-.14-.94-.48-1.96-1.04-3.07,3.23.08,5.44.1,6.63.04.64-.22.98-.52,1.04-.91v-17.48h-14.17v-3.02h23.78ZM624.33,191.72v2.98h-20.72v-2.98h20.72Z"/>
    <path class="cls-3" d="M640.64,221.93l6.79-1.28.17,2.65c-5.69,1.24-11.09,2.35-16.2,3.31l-.75-2.86c3.2-.55,5.61-.98,7.21-1.28v-12.97h-6.79v-2.73h6.79v-4.47h-4.6v-1.53c-.3.33-.76.77-1.37,1.33-.53-.77-1.15-1.42-1.86-1.95-.06-.03-.1-.06-.12-.08,3.23-2.79,5.73-6.26,7.5-10.4.08-.17.15-.32.21-.46h2.82c3.09,2.65,5.5,5.12,7.21,7.42.14.17.25.32.33.46l-2.03,2.57c-1.71-2.54-3.74-4.94-6.09-7.21-.14-.11-.25-.21-.33-.29-1.55,2.79-3.27,5.28-5.18,7.46h11.15v2.69h-4.85v4.47h6.13v2.73h-6.13v12.43ZM634.22,211.94c.94,2.57,1.55,5.15,1.82,7.75l-2.32.7c-.14-2.29-.7-4.93-1.7-7.91l2.2-.54ZM642.05,219.28c.91-2.9,1.57-5.51,1.99-7.83l2.49.75c-1.13,3.78-1.95,6.37-2.44,7.75l-2.03-.66ZM654.52,198.89c-.19-.5-.45-1.07-.77-1.72-.32-.65-.66-1.33-1.02-2.03s-.73-1.42-1.12-2.13c-.39-.72-.78-1.41-1.16-2.07l-2.32,1.04c.36.64.72,1.33,1.1,2.07.37.75.73,1.49,1.08,2.22.35.73.66,1.44.95,2.11.29.68.53,1.28.72,1.8l2.53-1.28ZM667.12,201.79h-7.46v-12.72h-3.11v12.72h-7.75v26.06h3.07v-9.16h12.14v5.26c0,.47-.23.72-.7.75h-1.66c-.83,0-1.74-.03-2.73-.08.22.41.44.9.66,1.45.22.55.37,1.04.46,1.45,1.41,0,2.55-.03,3.42-.1.87-.07,1.58-.23,2.13-.48.58-.28.98-.64,1.2-1.08.22-.44.33-1.06.33-1.86v-22.21ZM664.01,204.57v4.39h-12.14v-4.39h12.14ZM651.87,216v-4.52h12.14v4.52h-12.14ZM665.88,190.98c-.25.64-.54,1.32-.87,2.05-.33.73-.69,1.46-1.08,2.2-.39.73-.77,1.44-1.16,2.11-.39.68-.76,1.29-1.12,1.84l2.2,1.08c.36-.52.74-1.11,1.14-1.76.4-.65.8-1.33,1.2-2.05.4-.72.79-1.44,1.18-2.18.39-.73.75-1.44,1.08-2.13l-2.57-1.16Z"/>
    <path class="cls-3" d="M683.59,197.77l2.82.95c-1.22,2.07-2.44,3.92-3.69,5.55v23.74h-2.94v-20.3c-1.82,1.96-3.41,3.48-4.77,4.56-.36-.77-.95-1.71-1.78-2.82,3.62-2.68,6.68-5.92,9.2-9.74.41-.66.8-1.31,1.16-1.95ZM682.6,189.2l2.9,1.08c-2.21,3.2-5.07,6.19-8.58,8.95-.5.39-.98.75-1.45,1.08-.66-.99-1.26-1.75-1.78-2.28,2.82-1.88,5.32-4.17,7.5-6.88.55-.69,1.02-1.34,1.41-1.95ZM706.88,210.87l2.03,1.04c-1.57,3.56-3.98,6.6-7.21,9.12,3.48,2.02,7.33,3.44,11.56,4.27-.72.72-1.35,1.6-1.91,2.65-4.5-1.02-8.56-2.75-12.18-5.18-3.7,2.32-8.08,4.07-13.13,5.26-.41-1.13-.95-2.03-1.62-2.69,4.58-.88,8.67-2.36,12.26-4.43-1.93-1.66-3.56-3.44-4.89-5.34-1.55,1.35-3.26,2.61-5.14,3.77-.77-1.05-1.48-1.81-2.11-2.28,3.98-2.18,7.24-4.93,9.78-8.25.28-.36.54-.72.79-1.08-6.05.19-9.32.3-9.82.33l-.25-2.9,6.55-.08c1.27-1.05,2.25-1.91,2.94-2.57-2.24-2.29-4.93-4.46-8.08-6.5l1.91-1.99c1.1.72,1.95,1.28,2.53,1.7,2.15-2.26,3.94-4.45,5.34-6.55l2.73,1.45c-2.26,2.71-4.25,4.9-5.97,6.59,1.63,1.24,2.89,2.33,3.77,3.27,3.07-2.9,5.59-5.59,7.58-8.08l2.82,1.57c-3.79,4.03-7.65,7.71-11.6,11.02,1.63-.03,5.43-.11,11.39-.25-1-1.33-2.04-2.58-3.15-3.77l2.44-1.33c2.9,3.04,5.12,5.88,6.67,8.54.14.22.25.43.33.62l-2.61,1.53c-.25-.5-.87-1.53-1.86-3.11l-10.23.37c-.64,1.13-1.42,2.28-2.36,3.44h10.15l.54-.17ZM693.95,213.52l-.21.25c1.38,2.07,3.18,3.92,5.39,5.55,2.4-1.8,4.24-3.73,5.51-5.8h-10.69Z"/>
    <path class="cls-3" d="M756.25,201.63h-15.25c-.14,1.71-.28,3.05-.41,4.02h12.43v22.25h-3.11v-1.78h-18.27v1.78h-3.07v-22.25h8.95c.22-2.07.35-3.41.37-4.02h-12.93v2.28c-.03,10.69-1.8,18.74-5.3,24.16-.5-.72-1.2-1.34-2.11-1.86-.14-.08-.25-.14-.33-.17,2.98-4.75,4.53-11.71,4.64-20.88v-13.34l3.44.7c11.32-.66,19.75-1.71,25.27-3.15l2.44,2.44c-3.4.83-7.18,1.49-11.35,1.99-.03.44-.08,1.13-.17,2.07-.11,1.3-.19,2.27-.25,2.9h15v2.86ZM724.97,198.77h13.09c.03-.55.05-1.38.08-2.49.05-.94.08-1.63.08-2.07-4.2.44-8.62.77-13.26.99v3.56ZM749.91,211.69v-3.44h-18.27v3.44h18.27ZM749.91,217.58v-3.6h-18.27v3.6h18.27ZM731.64,223.54h18.27v-3.69h-18.27v3.69Z"/>
    <path class="cls-3" d="M778.94,214.39l-.99-16.45-.12-5.01h5.05l-.08,5.01-1.04,16.45h-2.82ZM777.9,219.15h4.89v4.89h-4.89v-4.89Z"/>
  </g>
</svg>