<?xml version="1.0" encoding="UTF-8"?>
<svg id="_圖層_1" data-name="圖層_1" xmlns="http://www.w3.org/2000/svg" xmlns:xlink="http://www.w3.org/1999/xlink" version="1.1" viewBox="0 0 494.32 288.7">
  <!-- Generator: Adobe Illustrator 29.6.1, SVG Export Plug-In . SVG Version: 2.1.1 Build 9)  -->
  <defs>
    <style>
      .st0 {
        fill: #ed781e;
      }

      .st1 {
        fill: #717071;
        opacity: .2;
      }

      .st2 {
        fill: #231815;
      }

      .st3 {
        fill: #fff;
      }

      .st4 {
        fill: url(#_未命名漸層_7);
      }

      .st5 {
        opacity: .1;
      }

      .st6 {
        fill: #040000;
        opacity: .4;
      }

      .st7 {
        fill: #888;
      }
    </style>
    <linearGradient id="_未命名漸層_7" data-name="未命名漸層 7" x1="502.99" y1="-80.92" x2="502.99" y2="525.5" gradientUnits="userSpaceOnUse">
      <stop offset="0" stop-color="#fff"/>
      <stop offset=".07" stop-color="#fdf5ef" stop-opacity=".97"/>
      <stop offset=".22" stop-color="#faddc7" stop-opacity=".88"/>
      <stop offset=".43" stop-color="#f5b686" stop-opacity=".73"/>
      <stop offset=".68" stop-color="#ee822e" stop-opacity=".54"/>
      <stop offset=".73" stop-color="#ed781e" stop-opacity=".5"/>
      <stop offset=".73" stop-color="#ed7920" stop-opacity=".5"/>
      <stop offset=".82" stop-color="#f4b280" stop-opacity=".5"/>
      <stop offset=".89" stop-color="#fadcc5" stop-opacity=".5"/>
      <stop offset=".96" stop-color="#fdf5ef" stop-opacity=".5"/>
      <stop offset="1" stop-color="#fff" stop-opacity=".5"/>
    </linearGradient>
  </defs>
  <g>
    <g>
      <polygon class="st0" points="0 110.95 51.71 162.66 51.71 77.35 0 110.95"/>
      <polygon class="st7" points="373.41 0 421.53 48.12 343.97 55.83 373.41 0"/>
      <polygon class="st7" points="0 110.95 51.71 162.66 51.71 77.35 0 110.95"/>
      <polyline class="st6" points="277.03 55.83 306.47 0 354.59 48.12"/>
      <g>
        <path class="st3" d="M24.13,285.2V26.65h377.41c49.23,0,89.29,40.05,89.29,89.29v79.98c0,49.23-40.05,89.29-89.29,89.29H24.13Z"/>
        <path class="st0" d="M401.54,30.15c47.3,0,85.79,38.48,85.79,85.79v79.98c0,47.3-38.48,85.79-85.79,85.79H27.63V30.15h373.91M401.54,23.15H20.63v265.55h380.91c51.24,0,92.79-41.54,92.79-92.79v-79.98c0-51.24-41.54-92.79-92.79-92.79h0Z"/>
      </g>
      <path class="st1" d="M20.63,28.31v91.69h286.51c30.44,0,55.12-24.68,55.12-55.12V28.31H20.63Z"/>
      <path class="st0" d="M0,0v110.95h318.29c30.44,0,55.12-24.68,55.12-55.12V0H0Z"/>
      <g class="st5">
        <polygon class="st3" points="171.64 110.95 282.59 0 204.37 0 93.42 110.95 171.64 110.95"/>
        <polygon class="st3" points="337.55 0 298.44 0 187.5 110.95 226.61 110.95 337.55 0"/>
      </g>
    </g>
    <g>
      <path class="st3" d="M55.27,41.4v9.24c0,11.38-1.58,19.76-4.75,25.15-1.24-1.01-2.63-1.84-4.17-2.49-.15-.06-.27-.1-.35-.13,2.6-4.41,3.96-11.27,4.08-20.58v-15.78h15.96v-3.2h5.41v3.2h16.32v4.58h-7.18v2.27h6.7v3.29h-6.7v4.8h-18.45v-4.8h-6.79v-3.29h6.79v-2.27h-6.87ZM85.34,69.53h-8.07c4.85,1.33,8.66,2.55,11.44,3.64l-4.92,2.98c-2.66-1.22-6.21-2.49-10.64-3.82l3.46-2.8h-10.73l3.64,2.62c-3.31,1.66-7.35,2.99-12.11,4-.92-1.19-2.01-2.31-3.28-3.38,4.2-.83,7.75-1.91,10.64-3.24h-7.32v-11.47h11.26v-1.56h-13.35v-3.42h32.42v3.42h-14.06v1.56h11.62v11.47ZM62.33,60.69v1.82h6.39v-1.82h-6.39ZM62.33,65.04v1.82h6.39v-1.82h-6.39ZM75.27,43.66v-2.27h-8.03v2.27h8.03ZM75.27,48.87v-1.91h-8.03v1.91h8.03ZM80.2,60.69h-6.47v1.82h6.47v-1.82ZM80.2,66.86v-1.82h-6.47v1.82h6.47Z"/>
      <path class="st3" d="M132.88,49.53v5.02h-40v-5.02h18.27v-5.24h-9.89c-.59,1.01-1.2,1.94-1.84,2.8-.64.86-1.26,1.64-1.88,2.36-.3-.24-.65-.49-1.06-.76-.41-.27-.86-.53-1.33-.8-.47-.27-.93-.52-1.37-.76-.44-.24-.84-.43-1.2-.58.83-.77,1.62-1.65,2.37-2.64.75-.99,1.46-2.05,2.13-3.18.67-1.13,1.27-2.3,1.82-3.51.55-1.21,1.01-2.43,1.4-3.64l5.41,1.33c-.24.77-.51,1.52-.82,2.24-.31.73-.63,1.46-.95,2.2h7.23v-5.96h5.72v5.96h13.26v4.93h-13.26v5.24h16.01ZM98.11,57.75h30.42v18.27h-5.81v-2.09h-19.07v2.22h-5.54v-18.4ZM103.66,62.78v6.13h19.07v-6.13h-19.07Z"/>
      <path class="st3" d="M145.25,33.62l5.01,1.47c-1.04,3.05-2.19,6-3.46,8.84v32.09h-5.14v-22.75c-.89,1.36-1.82,2.61-2.79,3.73-.53-1.69-1.35-3.53-2.44-5.51-.06-.12-.12-.22-.18-.31,3.31-3.82,6.05-8.84,8.2-15.07.3-.86.56-1.69.8-2.49ZM172.97,63.26l3.19,1.82c-1.45,2.16-3.49,4.02-6.12,5.56,3.4.62,6.73,1.02,9.98,1.2-1.06,1.16-2,2.59-2.79,4.31-5.32-.53-9.73-1.47-13.21-2.8-3.55,1.24-7.86,2.21-12.95,2.89-.56-1.33-1.42-2.64-2.57-3.91,3.19-.3,6.59-.84,10.2-1.64-.89-.56-1.92-1.38-3.1-2.44-1.39.68-2.79,1.29-4.21,1.82-.71-1.24-1.61-2.28-2.71-3.11-.09-.06-.16-.12-.22-.18,4.61-1.36,8.13-3.11,10.55-5.24-.8-.44-1.23-1.39-1.29-2.84v-.22c-1.42,1.9-2.88,3.38-4.39,4.44l-3.15-2.53c.77-.44,1.55-1.04,2.35-1.78h-3.41v-6.53h4.12v-11.2h7.49c.06-.18.12-.46.18-.84.09-.36.15-.61.18-.76h-10.38v-3.87h27.85v3.87h-11.88l-.71,1.6h9.71v11.2h3.81v6.53h-2.84c.89,1.01,1.49,1.78,1.82,2.31l-3.5,1.87c-.5-.89-1.48-2.12-2.93-3.69-.27,1.57-.98,2.52-2.13,2.84-.5.15-1.14.22-1.91.22h-3.81c-.38.42-.84.84-1.38,1.29h9.22l.93-.18ZM157.71,55.89h4.21v2.31c0,.59.19.93.58,1.02.21.03.52.04.93.04h3.99c.59,0,.96-.22,1.11-.67.06-.24.12-.53.18-.89.89.47,1.88.8,2.97.98-.59-.59-1.02-1.01-1.29-1.24l3.33-1.69c.41.36.74.65.98.89v-1.47h-7.89c.71.62,1.29,1.23,1.73,1.82l-3.24,1.91c-.68-1.1-1.94-2.34-3.77-3.73h-7.81v2.18c.35-.41.72-.89,1.11-1.42l2.88,1.56v-1.6ZM170.66,43.49h-12.59v1.38h12.59v-1.38ZM170.66,48.51v-1.47h-12.59v1.47h12.59ZM158.07,50.69v1.38h12.59v-1.38h-12.59ZM168.89,66.51h-9.09c1.21.95,2.71,1.76,4.48,2.44,1.71-.65,3.25-1.47,4.61-2.44Z"/>
      <path class="st3" d="M193.99,34.15l5.37,1.78c-1.3,3.02-2.88,6.09-4.75,9.2v30.84h-5.41v-23.2c-1.42,1.72-2.91,3.32-4.48,4.8-.95-2.28-2-4.19-3.15-5.73,2.48-2.1,4.84-4.73,7.07-7.87,2.23-3.14,4.01-6.41,5.34-9.82ZM210.8,70.06h6.39c1,0,1.68-.44,2.02-1.33.34-.89.58-2.8.73-5.73,1.51,1.1,3.18,1.87,5.01,2.31-.33,3.73-.98,6.32-1.97,7.76-.99,1.44-2.74,2.16-5.25,2.16h-7.58c-2.84,0-4.75-.57-5.74-1.71-.99-1.14-1.49-3.33-1.49-6.56v-32.75h5.5v15.42c4.32-3.02,7.6-5.85,9.84-8.49l5.06,2.49c-4.11,4.36-9.08,8.43-14.9,12.22v11.16c0,1.3.14,2.14.42,2.51.28.37.94.56,1.97.56Z"/>
      <path class="st3" d="M242.42,34.24h15.48c1.51,5.63,4.23,10.25,8.16,13.87,1.48,1.36,3.06,2.49,4.75,3.38-1.21,1.1-2.37,2.56-3.46,4.4-.15.24-.27.44-.35.62-1.6-1.04-3.08-2.21-4.44-3.51v.4c-.47,10.28-1.2,16.64-2.17,19.07-.24.56-.49,1.01-.75,1.33-1.01,1.13-2.35,1.81-4.04,2.04-.09.03-.16.04-.22.04-1.01.12-3.21.15-6.61.09h-.04c-.09-1.81-.65-3.54-1.69-5.2-.03-.06-.06-.1-.09-.13,1.98.18,3.98.27,5.99.27.83-.03,1.45-.24,1.86-.62.89-.86,1.55-4.68,2-11.47.03-.83.07-1.72.13-2.67h-8.87c-1.86,8.71-5.84,14.99-11.93,18.84-.65.41-1.32.8-2,1.16-.71-1.04-2.07-2.37-4.08-4-.09-.06-.15-.1-.18-.13,6-2.58,9.95-7.2,11.84-13.87.18-.65.34-1.32.49-2h-6.7v-2.8c-1.12,1.33-2.26,2.52-3.42,3.56-1.69-1.69-3.19-3.02-4.52-4,3.58-2.7,6.41-6.55,8.51-11.56.35-.86.67-1.72.93-2.58l5.68,1.42c-1.33,3.91-3.15,7.54-5.45,10.89h23.5c-2.99-3.44-5.31-7.36-6.96-11.78h-11.35v-5.07Z"/>
      <path class="st3" d="M291.37,58.51l-3.02,4.27c-.56-1.27-1.55-3.1-2.97-5.47v18.71h-5.19v-17.64c-1.54,4.3-3.15,7.58-4.83,9.87-.41-1.3-1.26-2.99-2.53-5.07,2.42-3.05,4.46-7.32,6.12-12.8.24-.83.46-1.63.67-2.4h-5.59v-5.07h6.16v-9.33h5.19v9.33h5.5v5.07h-5.5v2.89c1.89,2.16,3.78,4.56,5.68,7.2.12.18.22.33.31.44ZM315.85,48.87v5.07h-5.81v22.09h-5.37v-22.09h-5.99c-.44,9.69-2.63,17.04-6.56,22.04-.65-1.01-1.71-1.99-3.19-2.93-.38-.27-.72-.46-1.02-.58,3.52-4.62,5.37-11.38,5.54-20.27.03-.74.04-1.51.04-2.31v-13.16l4.3,1.2c5.29-1.24,9.33-2.55,12.11-3.91l4.61,4.22c-3.87,1.66-9.12,3.1-15.74,4.31v6.31h17.07Z"/>
    </g>
    <g>
      <path class="st2" d="M95.56,169.39v6.67c0,8.21-1.14,14.26-3.43,18.16-.9-.73-1.9-1.33-3.01-1.8-.11-.04-.19-.08-.26-.1,1.88-3.19,2.86-8.14,2.94-14.85v-11.39h11.52v-2.31h3.91v2.31h11.78v3.3h-5.19v1.64h4.83v2.37h-4.83v3.46h-13.32v-3.46h-4.9v-2.37h4.9v-1.64h-4.96ZM117.26,189.7h-5.83c3.5.96,6.25,1.84,8.26,2.63l-3.55,2.15c-1.92-.88-4.48-1.8-7.68-2.76l2.5-2.02h-7.75l2.62,1.89c-2.39,1.2-5.3,2.16-8.74,2.89-.66-.86-1.45-1.67-2.37-2.44,3.03-.6,5.59-1.38,7.68-2.34h-5.28v-8.28h8.13v-1.12h-9.63v-2.47h23.4v2.47h-10.15v1.12h8.39v8.28ZM100.64,183.32v1.31h4.61v-1.31h-4.61ZM100.64,186.46v1.32h4.61v-1.32h-4.61ZM109.99,171.03v-1.64h-5.79v1.64h5.79ZM109.99,174.78v-1.38h-5.79v1.38h5.79ZM113.54,183.32h-4.67v1.31h4.67v-1.31ZM113.54,187.77v-1.32h-4.67v1.32h4.67Z"/>
      <path class="st2" d="M152.39,175.26v3.62h-28.87v-3.62h13.19v-3.79h-7.14c-.43.73-.87,1.4-1.33,2.02s-.91,1.19-1.36,1.7c-.21-.17-.47-.35-.77-.54-.3-.19-.62-.39-.96-.58s-.67-.37-.99-.55c-.32-.17-.61-.31-.86-.42.6-.56,1.17-1.19,1.71-1.91.54-.72,1.06-1.48,1.54-2.29.48-.81.92-1.66,1.31-2.53.39-.88.73-1.75,1.01-2.63l3.9.96c-.17.56-.37,1.1-.59,1.62-.22.52-.45,1.05-.69,1.59h5.22v-4.3h4.13v4.3h9.57v3.56h-9.57v3.79h11.56ZM127.29,181.2h21.96v13.18h-4.19v-1.51h-13.76v1.6h-4v-13.28ZM131.3,184.82v4.43h13.76v-4.43h-13.76Z"/>
      <path class="st2" d="M186.88,173.34h-1.73c-.64,5.2-1.71,9.38-3.2,12.54,1.39,2.44,3.08,4.27,5.09,5.49-.96.81-1.77,1.8-2.43,2.95-.04.06-.08.12-.1.16-1.86-1.26-3.45-2.91-4.77-4.94-1.52,1.99-3.37,3.66-5.57,5-.23-.56-.79-1.47-1.66-2.73l-2.27,2.25c-.9-.64-2.05-1.35-3.46-2.12-1.98,1.15-4.75,2.02-8.29,2.6-.23-1.01-.69-2-1.38-2.98,2.65-.23,4.72-.65,6.21-1.25-.19-.06-.49-.18-.9-.35-.38-.17-.67-.29-.86-.35l-.29.42-3.1-.77c.96-1.48,1.58-2.45,1.86-2.92l-3.52.03-.13-2.89c2.22,0,3.97-.01,5.25-.03.02-.02.26-.46.7-1.32h-4.64v-6.06h5.79v-1.03h-5.15v-3.5h-2.05v-2.76h2.05v-3.43h5.15v-1.6h3.3v1.6h5.44v3.43h2.14v2.76h-2.14v3.5h-5.44v1.03h6.11v1.03c1.69-3.21,2.86-7.66,3.52-13.34l3.68.48c-.21,1.69-.51,3.52-.9,5.49h7.68v3.62ZM160.89,178.41v1.38h2.59v-1.38h-2.59ZM163.48,167.82h-1.92v1.19h1.92v-1.19ZM161.56,172.57h1.92v-1.22h-1.92v1.22ZM163.61,186.27l-.54.93c.66.21,1.74.63,3.23,1.25.6-.64,1.09-1.39,1.47-2.25l-4.16.06ZM174.3,186.04l-3.01.06c-.45,1.48-1.1,2.72-1.95,3.72.79.39,1.71.88,2.75,1.48,2.43-1.33,4.36-3.14,5.79-5.45-.79-1.9-1.45-4.03-1.98-6.38-.36.75-.79,1.48-1.28,2.18-.32-.47-.9-1.12-1.73-1.96v2.44h-7.27l.29.06-.67,1.22c.96,0,2.43-.02,4.42-.06,2.13-.02,3.71-.04,4.74-.06l-.1,2.76ZM168.86,167.82h-2.08v1.19h2.08v-1.19ZM166.78,172.57h2.08v-1.22h-2.08v1.22ZM169.5,178.41h-2.72v1.38h2.72v-1.38ZM181.5,173.34h-3.23l-.06.19c.47,3.02,1.06,5.58,1.76,7.7.68-2.22,1.19-4.85,1.54-7.89Z"/>
      <path class="st2" d="M199.42,177.44l.48,3.5c-.32.11-.82.27-1.5.48-.66.21-1.15.36-1.47.45v8.47c0,1.58-.33,2.63-.99,3.14-.11.08-.21.16-.32.22-.81.49-2.29.73-4.45.71-.11-1.07-.44-2.26-.99-3.56,1.17.06,2.08.1,2.72.1.34-.04.52-.25.54-.61v-7.41c-.41.11-.98.27-1.73.48-.62.15-1.07.27-1.34.35l-.83-3.72c.45-.09,1.18-.27,2.21-.55.75-.19,1.31-.33,1.7-.42v-5.55h-3.33v-3.59h3.33v-6.16h3.49v6.16h2.53v3.59h-2.53v4.59l2.5-.67ZM203.58,172.22v6.99c-.02,6.93-1.14,11.99-3.36,15.17-.62-.62-1.48-1.22-2.59-1.8-.11-.04-.2-.09-.29-.13,1.83-2.59,2.8-6.6,2.88-12.03v-10.97h7.14v-5.61h3.71v1.6h7.49v2.69h-7.49v1.32h6.21l.51-.06,2.4.45c-.43,2.01-.96,3.79-1.6,5.33l-2.88-.61c.23-.62.45-1.4.64-2.34h-5.83v1.22l4.32-.38.22,2.08-4.55.42v.13c0,.47.15.74.45.8.17.04.45.06.83.06h3.52c.51,0,.82-.16.93-.48.04-.19.08-.48.13-.87.68.39,1.54.66,2.56.83-.15,1.3-.62,2.11-1.41,2.41-.45.17-1.05.26-1.79.26h-4.35c-1.9,0-3.08-.31-3.55-.93-.3-.41-.46-1.04-.48-1.89l-3.17.29-.22-2.18,3.39-.29v-1.48h-3.78ZM218.05,182.61l2.08,1.7c-.77.66-1.89,1.48-3.36,2.44,1.17,1.84,2.56,3.15,4.16,3.95-.77.62-1.43,1.43-1.98,2.44-.04.09-.08.15-.1.19-3.14-1.88-5.31-5.63-6.53-11.26-.68.56-1.31.99-1.89,1.31,1.98,1.6,3.06,3.6,3.23,6,.13,1.73-.22,3.04-1.06,3.91-.04.04-.09.08-.13.13-.68.66-1.56,1.02-2.62,1.06-.75,0-1.31-.01-1.7-.03-.06-1.07-.32-1.97-.77-2.69.77.06,1.39.1,1.86.1.55-.02.94-.18,1.15-.48.34-.41.48-1.07.42-1.99-2.16,1.67-4.56,2.98-7.2,3.95-.41-.81-.86-1.48-1.38-1.99,2.71-.79,5.05-1.88,7.01-3.27.41-.3.75-.58,1.02-.83-.02-.06-.05-.13-.1-.21-.04-.07-.11-.18-.19-.3l-.1-.19c-1.6,1.13-3.36,2.05-5.28,2.76-.32-.68-.76-1.3-1.31-1.86,2.16-.56,3.98-1.33,5.47-2.31-.06-.06-.17-.17-.32-.32-.15-.11-.25-.18-.29-.22-1.41.6-2.51,1.01-3.3,1.22-.41-.83-.79-1.48-1.15-1.92,1.96-.45,3.7-1.08,5.22-1.89h-4.74v-2.5h15.94v2.5h-5.25c.17.71.46,1.58.86,2.63.64-.47,1.41-1.13,2.3-1.99Z"/>
      <path class="st2" d="M231.51,183.57l3.14-1.48c2.2,3.02,3.79,5.79,4.77,8.31.11.26.19.49.26.71l-3.46,1.73c-.17-.66-.54-1.62-1.12-2.89-1.52.43-3.76,1.06-6.72,1.89-1.75.47-3.01.81-3.78,1.03l-1.12-4.01c.73-.15,1.45-.31,2.18-.48v-23.03h12.74v16.07h-8.99v6.09l3.94-.99c-.43-.77-1.04-1.75-1.82-2.95ZM234.77,168.94h-5.38v2.73h5.38v-2.73ZM229.4,177.8h5.38v-2.69h-5.38v2.69ZM252.86,165.29v19.82c0,1.82-.41,3.05-1.22,3.69-.09.06-.17.12-.26.16-.9.53-2.4.81-4.51.83h-.32c-.13-1.28-.53-2.63-1.22-4.04-.04-.09-.09-.16-.13-.22.3.02.62.04.98.05.35.01.63.02.85.02h1.25c.34-.04.52-.25.54-.61v-15.75h-4.64v25.15h-3.97v-29.1h12.64Z"/>
      <path class="st2" d="M268.37,165.74v22.33h-6.66v2.92h-3.58v-25.25h10.24ZM264.72,169.23h-3.01v5.77h3.01v-5.77ZM261.71,184.6h3.01v-6.19h-3.01v6.19ZM287.64,176.9h-3.36v2.82h3.14v3.4h-3.14v7.15c0,1.56-.35,2.61-1.06,3.14-.19.13-.38.24-.58.32-1.02.43-2.85.64-5.47.64-.13-.98-.54-2.21-1.25-3.69,1.05.04,2.34.06,3.87.06.45-.09.68-.28.7-.58v-7.06h-11.49v-3.4h11.49v-2.82h-11.59v-3.4h7.43v-2.89h-6.31v-3.43h6.31v-3.43h3.84v3.43h6.56v3.43h-6.56v2.89h7.46v3.4ZM270.29,185.3l3.14-1.8c2.01,2.14,3.33,3.94,3.97,5.39l-3.36,1.92c-.56-1.43-1.76-3.22-3.62-5.36-.04-.06-.09-.12-.13-.16Z"/>
      <path class="st2" d="M317.49,190.15h3.39v3.34h-29.83v-3.34h3.49v-7.44h22.95v7.44ZM306.61,178.05v2.92h-14.79v-16.14h14.56v2.98h-5.15v1.64h4.42v3.85c1.86-2.22,3.22-5.4,4.1-9.53l3.36.67c-.26,1.2-.64,2.53-1.15,4.01h8.64v3.3h-9.99c-.75,1.52-1.5,2.77-2.27,3.75-.79-.75-1.69-1.41-2.69-1.99v2.73h-4.42v1.8h5.38ZM298.09,167.82h-2.75v1.64h2.75v-1.64ZM302.41,173.72v-1.76h-7.07v1.76h7.07ZM295.34,176.26v1.8h2.75v-1.8h-2.75ZM298.09,185.72v4.43h2.82v-4.43h-2.82ZM307.31,185.72h-2.85v4.43h2.85v-4.43ZM319.76,179.98h-11.2v-3.27h11.2v3.27ZM313.71,185.72h-2.85v4.43h2.85v-4.43Z"/>
      <path class="st2" d="M334.09,176.84l.61,3.46c-1.24.49-2.32.9-3.23,1.22v8.76c0,1.62-.34,2.71-1.02,3.24-.09.08-.17.15-.26.19-.88.49-2.39.73-4.54.71-.11-1.07-.43-2.28-.96-3.62,1.22.06,2.11.08,2.69.03.34-.04.52-.22.54-.55v-7.44c-.45.15-1.08.36-1.89.64-.53.17-.92.3-1.15.39l-.9-3.69c.45-.13,1.17-.35,2.18-.67.77-.24,1.35-.42,1.76-.55v-5.42h-3.42v-3.59h3.42v-6.16h3.55v6.16h2.75v3.59h-2.75v4.2l2.62-.9ZM346.32,184.57v5.39h8.48v3.5h-20.74v-3.5h8.42v-5.39h-6.56v-3.53h17.22v3.53h-6.82ZM345.26,169.81h-1.86c-.13,3.06-.63,5.27-1.5,6.64-1.07,1.65-2.98,2.84-5.73,3.59-.26-.81-.81-1.69-1.66-2.63-.06-.06-.12-.12-.16-.16,2.39-.58,3.95-1.52,4.67-2.82.51-.94.8-2.48.86-4.62h-1.95v2.98h-3.39v-6.19h8.03v-2.85h3.81v2.85h8.19v6.09h-3.58v-2.89h-2.11v5.36c0,.53.08.83.26.9.11.02.23.03.38.03h1.47c.32,0,.52-.19.61-.58.08-.38.15-1.05.19-1.99.75.54,1.77.96,3.07,1.28-.21,2.12-.71,3.43-1.5,3.95-.47.3-1.11.45-1.92.45h-2.53c-1.66,0-2.72-.42-3.17-1.25-.32-.58-.48-1.5-.48-2.76v-5.39Z"/>
      <path class="st2" d="M368.68,169.17v3.08h-10.82v-3.08h10.82ZM387.56,164.93v25.09c0,1.73-.35,2.88-1.06,3.43-.13.09-.25.16-.35.22-.81.45-2.35.68-4.61.71h-.45c-.13-1.24-.49-2.51-1.09-3.82.49.02,1.6.03,3.33.03.38-.08.59-.29.61-.61v-21.75h-10.47v8.89c0,8.02-.98,13.84-2.94,17.45-.64-.66-1.49-1.28-2.56-1.86-.06-.02-.12-.04-.16-.06h-5.7v1.31h-3.01v-11.2h8.71v9.11c1.43-3.25,2.14-8.17,2.14-14.76v-12.19h17.6ZM367.88,173.72v2.98h-8.67v-2.98h8.67ZM359.2,181.13v-2.92h8.67v2.92h-8.67ZM367.78,164.74v2.98h-8.39v-2.98h8.39ZM364.71,189.6v-3.79h-2.59v3.79h2.59ZM374.44,175.78h2.66v-2.21h-2.53v-2.82h2.53v-2.15h3.04v2.15h2.59v2.82h-2.59v2.21h2.82v2.89h-8.51v-2.89ZM382.7,189.03h-5.31v1.12h-2.75v-9.82h8.07v8.69ZM379.88,183.15h-2.5v3.08h2.5v-3.08Z"/>
      <path class="st2" d="M421.54,170.13h-2.18c-.64,2.16-1.55,3.99-2.72,5.49,1.62,1.2,3.45,2.05,5.47,2.57-.81.77-1.53,1.78-2.14,3.02-2.2-.77-4.08-1.84-5.63-3.21-1.54,1.26-3.53,2.33-5.99,3.21-.43-.83-1.08-1.7-1.95-2.6-.09-.06-.15-.12-.19-.16l-1.25,1.64c-.96-.73-2.13-1.56-3.52-2.5v3.37h-3.39v-3.11c-1.37,1.33-2.83,2.42-4.39,3.27-.45-.73-1.16-1.53-2.14-2.41,1.94-.81,3.66-1.88,5.15-3.21h-3.78v-6.35h5.15v-1.12h-5.89v-2.6h5.89v-1.67h3.39v1.67h5.79v2.6h-5.79v1.12h5.35v1.83c1.83-1.82,3.17-4.21,4-7.19l3.46.77c-.21.75-.5,1.58-.86,2.5h8.16v3.08ZM408.58,189.12v1.6h13.12v3.21h-29.8v-3.21h4.8v-4.91h3.71v4.91h4.39v-6h-10.95v-3.08h25.8v3.08h-11.08v1.54h8.48v2.85h-8.48ZM395.91,171.41v1.8h2.14v-1.8h-2.14ZM403.59,171.41h-2.14v1.8h2.14v-1.8ZM406.82,177.67l-.54.71c2.28-.64,4.19-1.57,5.73-2.79-.75-.92-1.39-1.87-1.92-2.85-.64.73-1.13,1.24-1.47,1.54-.38-.56-.99-1.25-1.82-2.08v3.3h-4.1c2.6,1.37,3.98,2.1,4.13,2.18ZM415.69,170.13h-3.65c.58,1.2,1.27,2.27,2.08,3.21.73-1.07,1.25-2.14,1.57-3.21Z"/>
      <path class="st2" d="M116.71,217.12l.48,3.62c-.36.09-.9.24-1.6.45-.92.24-1.61.42-2.08.55v7.92c0,1.58-.34,2.64-1.02,3.18-.11.09-.21.16-.32.22-.85.47-2.34.71-4.45.71-.15-1.18-.51-2.37-1.09-3.59,1.13.06,1.96.08,2.5.03.36-.04.55-.21.58-.51v-6.96c-.38.11-.95.26-1.7.45-.66.17-1.14.3-1.44.38l-.93-3.75c.45-.08,1.19-.25,2.24-.48.79-.19,1.4-.33,1.82-.42v-5.97h-3.52v-3.62h3.52v-6.16h3.81v6.16h3.04v3.62h-3.04v4.97l3.2-.8ZM124.26,229.37h6.34c.92,0,1.54-.32,1.86-.96.28-.58.49-1.76.64-3.56,1.07.71,2.31,1.23,3.74,1.57-.3,2.82-.96,4.69-1.98,5.61-.88.75-2.18,1.12-3.9,1.12h-7.11c-2.39,0-3.99-.45-4.8-1.35-.77-.9-1.15-2.49-1.15-4.78v-22.33h17.38v18.32h-4.1v-2.05h-9.22v6.1c0,1.11.18,1.79.54,2.02.32.19.91.29,1.76.29ZM124.74,208.56h-2.78v8.69h2.78v-8.69ZM131.17,217.25v-8.69h-2.82v8.69h2.82Z"/>
      <path class="st2" d="M168.71,204.42v24.92c0,1.65-.32,2.75-.96,3.3-.13.11-.27.2-.42.29-.96.49-2.55.74-4.77.74-.17-1.35-.53-2.62-1.09-3.82,1.3.06,2.27.08,2.91.03.34-.04.52-.23.54-.58v-14.24h-5.31l.48.22c-1,1.24-1.85,2.22-2.53,2.95.21.17.47.41.77.71.81-.98,1.38-1.7,1.7-2.15l2.08.93c-1.49,1.63-2.76,2.92-3.81,3.88l2.24-.16c-.06-.11-.15-.27-.26-.48-.19-.34-.33-.58-.42-.71l1.95-.58c.94,1.35,1.57,2.67,1.89,3.98l-2.08.64c-.11-.45-.19-.77-.26-.96-1.6.15-3.7.34-6.31.58l-.1-.39-1.57.51h.45v3.14c0,2.18-.61,3.81-1.82,4.88-.75.64-1.72,1.17-2.91,1.57-.32-.66-.88-1.37-1.66-2.12,1.58-.45,2.65-1.1,3.2-1.96h-3.75v-4.97h2.4v2.79h1.95v-3.34h1.95c-.04-.17-.11-.42-.19-.74-3.88.36-6.16.57-6.82.61l-.26-2.12,1.86-.13c.06-.06.45-.45,1.15-1.15-.62-.71-1.53-1.54-2.72-2.5l1.22-1.57c.06.04.32.24.77.58.68-1.09,1.09-1.74,1.22-1.96h-4.67v18.77h-3.75v-29.42h12.64v10.65h-2.05l.48.22c-.21.24-.52.6-.93,1.09-.73.9-1.25,1.52-1.57,1.86.06.06.17.16.32.29.21.19.35.33.42.42.85-1.03,1.43-1.75,1.73-2.18l1.95.9c-1.56,1.73-2.78,3.02-3.68,3.85l1.82-.13c-.21-.43-.38-.74-.51-.93l1.86-.58c.49.73.88,1.39,1.15,1.99l-.03-.06,1.02-.06c.53-.49.94-.89,1.22-1.19-.79-.9-1.76-1.81-2.91-2.73l1.41-1.44s.3.24.77.58c.28-.38.67-1,1.18-1.86l.03-.03h-1.5v-10.65h12.87ZM149.98,207.05h-5.22v1.54h5.22v-1.54ZM144.76,210.93v1.51h5.22v-1.51h-5.22ZM162.59,229.57h-4.51v3.62h-2.66v-9.14h2.66v3.34h2.05v-2.79h2.46v4.97ZM164.93,207.05h-5.41v1.54h5.41v-1.54ZM159.52,212.44h5.41v-1.51h-5.41v1.51Z"/>
      <path class="st2" d="M197.73,213.62l3.91.96c-1.37,4.28-3.24,8.03-5.63,11.26,1.02,2.48,2.04,3.73,3.04,3.75.66,0,1.08-1.37,1.25-4.11.04-.51.07-1.06.1-1.64.92.94,2.02,1.67,3.3,2.18-.34,3.49-1.05,5.7-2.11,6.64-.66.6-1.61.9-2.85.9-2.16-.02-4-1.46-5.54-4.33-1.6,1.67-3.46,3.15-5.57,4.46-.64-.96-1.55-2-2.72-3.11-.04-.04-.07-.07-.1-.1,2.58-1.41,4.81-3.19,6.69-5.33-1.05-3.46-1.79-7.88-2.24-13.25h-9.51v3.53h8.1s-.01.51-.03,1.48c-.09,5.62-.32,9-.7,10.14-.11.28-.22.49-.35.64-.53.71-1.29,1.14-2.27,1.31-.73.11-1.98.14-3.78.1-.09-1.35-.44-2.57-1.06-3.66,1.05.09,1.98.13,2.82.13.45-.02.77-.15.96-.38.3-.45.49-2.51.58-6.19h-4.26c-.19,6.91-1.37,11.98-3.52,15.21-.83-.9-1.77-1.69-2.82-2.37-.19-.13-.35-.22-.48-.29,1.77-2.78,2.68-7.14,2.72-13.09v-10.43h13.35c-.09-2.14-.13-3.75-.13-4.84h4.1c-.02,1.45,0,3.07.06,4.84h5.03c-.88-.71-2.27-1.66-4.19-2.85l2.37-2.34c2.37,1.24,4.15,2.42,5.35,3.53l-1.6,1.67h3.42v3.88h-10.11c.28,3.1.71,6.11,1.31,9.01,1.3-2.27,2.35-4.7,3.14-7.31Z"/>
      <path class="st2" d="M236.44,213.46h-10.08c2.03,3.89,4.74,7.15,8.13,9.78,1.11.83,2.22,1.55,3.33,2.15-.98.79-1.95,1.9-2.91,3.34-.04.09-.09.16-.13.22-1.92-1.22-3.7-2.69-5.35-4.43v3.75h-5.44v5.55h-4.1v-5.55h-5.63v-3.43c-1.64,1.67-3.34,3.07-5.09,4.2-1.05-1.45-2-2.54-2.85-3.27,3.44-1.88,6.47-4.75,9.09-8.6.81-1.22,1.54-2.46,2.18-3.72h-10.02v-3.95h12.32v-6.32h4.1v6.32h12.45v3.95ZM214.77,224.31h5.12v-7.15c-1.47,2.63-3.18,5.02-5.12,7.15ZM223.99,224.31h5.22c-2.05-2.22-3.79-4.63-5.22-7.22v7.22Z"/>
      <path class="st2" d="M243.92,211.31l3.58.87c-.96,2.67-2.34,4.99-4.13,6.96-.17.17-.33.33-.48.48-1.13-1-2.12-1.75-2.98-2.25,1.69-1.48,3-3.43,3.94-5.87.02-.09.04-.15.06-.19ZM255.16,228.32l-3.17,2.66c-.51-.98-1.31-2.16-2.4-3.53-1.9,2.67-4.04,4.81-6.43,6.42-.45-.71-1.38-1.73-2.79-3.08,2.58-1.5,4.77-3.6,6.56-6.32-1.62-1.65-3.02-2.98-4.19-4.01l2.82-2.28c1.07.88,2.14,1.83,3.23,2.85.53-1.15.97-2.35,1.31-3.59l3.87.9c-.62,1.99-1.38,3.86-2.27,5.61,1.54,1.65,2.69,3.1,3.46,4.36ZM257.17,207.27v3.5h-16.68v-3.5h6.37v-3.88h3.78v3.88h6.53ZM270.87,212.76h-1.89c-.73,5.11-1.93,9.23-3.62,12.35,1.54,2.48,3.4,4.31,5.6,5.49-1.09,1-1.93,2.05-2.53,3.14-.02.06-.04.11-.06.13-2.11-1.33-3.89-3.09-5.35-5.29-1.84,2.18-4.12,3.96-6.85,5.32-.36-.92-1.01-1.96-1.95-3.11-.09-.11-.16-.19-.22-.26,3.05-1.39,5.41-3.27,7.07-5.65-.79-1.8-1.47-3.86-2.05-6.19-.45.83-.9,1.56-1.34,2.18-.56-.75-1.46-1.61-2.72-2.6-.09-.09-.16-.15-.22-.19.47-.66.79-1.14.96-1.44l-2.56,1.44c-.47-1.43-1.5-3.15-3.1-5.16-.02-.04-.04-.07-.06-.1l2.91-1.6c1.45,1.69,2.53,3.25,3.23,4.68,1.64-3.19,2.81-7.43,3.49-12.73l3.84.48c-.19,1.43-.53,3.26-1.02,5.49h8.45v3.62ZM261.43,212.76l-.13.38c.45,2.67,1.11,5.18,1.98,7.51.83-2.2,1.44-4.83,1.82-7.89h-3.68Z"/>
      <path class="st2" d="M295.79,213.37c1.13,1.58,2.48,3.04,4.05,4.38,1.57,1.34,3.21,2.41,4.91,3.22-.23.19-.48.42-.72.67-.25.26-.49.53-.74.82-.25.29-.48.58-.69.87-.21.29-.4.55-.54.79-.81-.45-1.57-.93-2.27-1.44v6.64h4.19v3.43h-29.77v-3.43h4.32v-6.38c-.32.28-.65.53-.98.75-.33.22-.67.45-1.01.69-.15-.19-.35-.42-.59-.69-.25-.27-.51-.54-.8-.82s-.57-.55-.85-.82c-.28-.27-.53-.49-.77-.66,1.66-.92,3.22-2.07,4.67-3.45s2.71-2.9,3.78-4.57h-7.27v-3.43h7.68c-.38-.77-.85-1.61-1.39-2.53-.54-.92-1.09-1.75-1.65-2.5l3.33-1.51c.36.45.72.92,1.07,1.41.35.49.69.99,1.01,1.49.32.5.61.99.88,1.48.27.48.5.91.69,1.3l-1.73.87h9.12l-1.98-.67c.32-.43.64-.89.96-1.4.32-.5.63-1.03.94-1.57.31-.55.6-1.08.88-1.62.28-.53.51-1.04.7-1.51l4.13,1.22c-.62,1.01-1.25,1.99-1.9,2.97-.65.97-1.28,1.83-1.87,2.58h7.97v3.43h-7.78ZM297.23,220.58c-2.26-2.1-4.17-4.5-5.73-7.22h-4.93c-.75,1.35-1.57,2.62-2.48,3.82-.91,1.2-1.88,2.33-2.93,3.4h16.07ZM284.3,223.86h-2.3v5.45h2.3v-5.45ZM290.22,223.86h-2.34v5.45h2.34v-5.45ZM296.15,229.31v-5.45h-2.34v5.45h2.34Z"/>
      <path class="st2" d="M333.97,219.69l2.4.9c-.9,3.02-2.27,5.59-4.13,7.73,1.69,1.11,3.61,1.92,5.76,2.44-.88.85-1.64,1.87-2.3,3.05-2.37-.73-4.4-1.74-6.08-3.05-1.6,1.22-3.46,2.23-5.57,3.05-.34-.73-.92-1.6-1.73-2.63v2.66h-3.75v-2.66c-5.48.51-8.95.83-10.4.96l-.29-3.37c.21-.02.55-.04,1.02-.06.81-.04,1.42-.09,1.82-.13v-9.98h-2.56v-3.08h29.16v3.08h-15.01v12.03c1.75-.58,3.3-1.37,4.64-2.37-1.15-1.37-2.14-2.99-2.98-4.88l2.14-.58h-3.01v-2.98h10.21l.64-.13ZM333.55,204.19v10.1h-21.54v-10.1h21.54ZM318.57,218.6h-4.26v1.31h4.26v-1.31ZM314.31,222.64v1.38h4.26v-1.38h-4.26ZM314.31,226.71v1.6c2.05-.15,3.47-.26,4.26-.32v-1.28h-4.26ZM329.65,208.04v-1.35h-13.89v1.35h13.89ZM329.65,211.79v-1.38h-13.89v1.38h13.89ZM331.7,222.8h-4.45c.51,1.11,1.25,2.18,2.21,3.21.96-1.03,1.71-2.1,2.24-3.21Z"/>
      <path class="st2" d="M370.93,216h-11.56c2.28,6.72,6.15,11.3,11.59,13.76.23.11.46.2.67.29-.94.79-1.85,1.91-2.72,3.37-.06.13-.12.23-.16.32-5.38-2.52-9.41-7-12.1-13.44-.06-.17-.13-.33-.19-.48-2.07,6.35-6.16,11-12.26,13.95-.73-1.28-1.66-2.36-2.82-3.24-.04-.02-.07-.04-.1-.06,6.4-2.87,10.37-7.69,11.91-14.47h-11.3v-4.04h11.94c.17-1.58.28-4.5.32-8.76h4.29c-.04,3.61-.18,6.53-.42,8.76h12.9v4.04Z"/>
      <path class="st2" d="M382.92,203.58l3.87,1.28c-.94,2.18-2.08,4.39-3.43,6.64v22.26h-3.9v-16.75c-1.02,1.24-2.1,2.4-3.23,3.46-.68-1.65-1.44-3.03-2.27-4.14,1.79-1.52,3.49-3.41,5.1-5.68,1.61-2.27,2.9-4.63,3.86-7.09ZM395.05,229.5h4.61c.73,0,1.21-.32,1.46-.96.25-.64.42-2.02.53-4.14,1.09.79,2.29,1.35,3.62,1.67-.23,2.69-.71,4.56-1.42,5.6-.72,1.04-1.98,1.56-3.79,1.56h-5.47c-2.05,0-3.43-.41-4.15-1.24-.72-.82-1.07-2.4-1.07-4.73v-23.64h3.97v11.13c3.12-2.18,5.48-4.22,7.11-6.13l3.65,1.8c-2.97,3.14-6.55,6.08-10.75,8.82v8.05c0,.94.1,1.55.3,1.81.2.27.68.4,1.42.4Z"/>
    </g>
  </g>
</svg>