<?xml version="1.0" encoding="UTF-8"?>
<svg id="_圖層_1" data-name="圖層 1" xmlns="http://www.w3.org/2000/svg" xmlns:xlink="http://www.w3.org/1999/xlink" viewBox="0 0 432.78 40.89">
  <defs>
    <style>
      .cls-1 {
        fill: none;
      }

      .cls-2 {
        fill: url(#_未命名漸層_28);
      }

      .cls-3 {
        fill: #ed781e;
      }

      .cls-4 {
        fill: url(#_未命名漸層_5);
      }

      .cls-5 {
        clip-path: url(#clippath);
      }
    </style>
    <linearGradient id="_未命名漸層_28" data-name="未命名漸層 28" x1="908.92" y1="617.07" x2="-348.11" y2="617.07" gradientUnits="userSpaceOnUse">
      <stop offset="0" stop-color="#fff"/>
      <stop offset=".34" stop-color="#c8c9ca"/>
      <stop offset=".62" stop-color="#e09257"/>
      <stop offset=".77" stop-color="#ed781e"/>
    </linearGradient>
    <clipPath id="clippath">
      <rect class="cls-1" x="-508.18" y="-506.16" width="1920" height="233.66"/>
    </clipPath>
    <linearGradient id="_未命名漸層_5" data-name="未命名漸層 5" x1="6340.32" y1="13482.84" x2="7904.51" y2="13482.84" gradientTransform="translate(-5155.41 13939.4) rotate(-132.77)" gradientUnits="userSpaceOnUse">
      <stop offset=".2" stop-color="#fff" stop-opacity="0"/>
      <stop offset=".23" stop-color="#fff" stop-opacity=".06"/>
      <stop offset=".43" stop-color="#fff" stop-opacity=".39"/>
      <stop offset=".61" stop-color="#fff" stop-opacity=".65"/>
      <stop offset=".75" stop-color="#fff" stop-opacity=".84"/>
      <stop offset=".86" stop-color="#fff" stop-opacity=".96"/>
      <stop offset=".92" stop-color="#fff"/>
    </linearGradient>
  </defs>
  <path class="cls-2" d="M-576.07,265.15v1009.66s114.54-604.32,1987.88-541.01V-40.67s-227.45,305.82-1987.88,305.82Z"/>
  <g class="cls-5">
    <path class="cls-4" d="M203.15-208.67c38.97-44.31,100.92-146.46,20.22-238.72-55.1-62.99-99.07-41.9-148.45-40.54-50.97,1.41-79.44-62.31-29.1-97.62,142.08-92.03,413.93,166.14,157.33,376.88ZM-63.44-505.2C-140.56-420.51-180.76-228.22,24.85-5.94h0s189.92,205.32,189.92,205.32c25.56,27.64,68.69,29.32,96.32,3.75,27.64-25.56,29.32-68.69,3.75-96.32L60.87-167.76h0S-14.35-243.63-37.29-340.7c-14.5-61.37-16.43-130.26,25.65-211.72-16.19,11.16-35.97,29.82-51.81,47.22ZM-139.84-525.29c-65.41,70.35-92.79,228.45,29.02,365.84-87.32-187.94-12.59-368.37,128.56-436.68-42.93-2.51-111.48,21.25-157.59,70.85ZM-350.65-298.86c-14.24,14.98-13.75,46.3,17.97,53.09,14.84,2.36,26.85-4.34,38.04-7.49,66.91-18.83,99.99,2.13,134.26,46.4-65.81-133.61-163.91-119.11-190.27-92ZM177.07-99.17c103.51-21.18,186.56-154.97,160.27-286.82-12.59,128.73-95.45,207.15-170.03,218.47-54.04,8.2-42.75,79.09,9.76,68.35Z"/>
  </g>
  <g>
    <path class="cls-3" d="M0,37.41V4.78h9.3c8,0,12.08,3.06,12.25,9.17v.43c0,4.69-2.1,7.76-6.3,9.21-1.65.58-3.55.87-5.69.87h-5.39v12.95H0ZM4.17,21.12h4.82c4.69,0,7.43-1.49,8.21-4.48.17-.67.26-1.42.26-2.26,0-2.98-1.28-4.88-3.82-5.69-1.25-.38-2.85-.56-4.82-.56h-4.65v12.99Z"/>
    <path class="cls-3" d="M29.81,8.26c-1.28,0-2.13-.52-2.56-1.56-.15-.35-.22-.7-.22-1.04,0-1.3.59-2.14,1.78-2.52.35-.09.68-.13,1-.13,1.33,0,2.22.54,2.65,1.61.12.35.17.7.17,1.04,0,1.16-.55,1.96-1.65,2.39-.38.15-.77.22-1.17.22ZM27.77,37.41V13.25h4.04v24.16h-4.04Z"/>
    <path class="cls-3" d="M49.49,37.98c-3.68,0-6.58-1.35-8.69-4.04-1.77-2.29-2.65-5.16-2.65-8.6,0-4.35,1.45-7.72,4.35-10.12,2.11-1.71,4.56-2.56,7.34-2.56,2.55.03,4.9.97,7.04,2.82l-2.09,2.74c-1.65-1.48-3.26-2.22-4.82-2.22-2.55,0-4.55,1.13-6,3.39-1.04,1.68-1.56,3.67-1.56,5.95,0,3.53,1.07,6.14,3.22,7.82,1.22.96,2.64,1.43,4.26,1.43,2.06-.03,3.95-.83,5.69-2.39l1.74,2.74c-2.23,2.03-4.84,3.04-7.82,3.04Z"/>
    <path class="cls-3" d="M62.62,37.41V2h4v24.03h.09l10.39-12.78h4.48l-8.08,9.69,9.17,14.47h-4.39l-7.08-11.65-4.56,5.3v6.34h-4Z"/>
    <path class="cls-3" d="M87.17,37.41V13.25h3.35l.35,3.52h.13c2.52-2.72,5.03-4.1,7.52-4.13,3.39.03,5.62,1.56,6.69,4.61,2.84-3.04,5.49-4.58,7.95-4.61,4.87.06,7.31,3.22,7.34,9.47v15.3h-4.04v-14.77c0-3.62-1-5.71-3-6.26-.46-.12-.96-.17-1.48-.17-1.85.03-3.9,1.26-6.13,3.69v17.51h-4.04v-14.77c0-3.62-1-5.71-3-6.26-.46-.12-.96-.17-1.48-.17-1.91.03-3.95,1.26-6.13,3.69v17.51h-4.04Z"/>
    <path class="cls-3" d="M138.09,37.98c-3.62,0-6.52-1.3-8.69-3.91-1.91-2.32-2.87-5.23-2.87-8.73,0-4.17,1.33-7.47,4-9.91,2.03-1.85,4.33-2.78,6.91-2.78,3.91,0,6.68,1.64,8.3,4.91.87,1.83,1.3,3.97,1.3,6.43,0,.78-.06,1.55-.17,2.3h-16.29c.17,3.36,1.42,5.78,3.74,7.26,1.25.81,2.68,1.22,4.3,1.22,2.17-.03,4.19-.67,6.04-1.91l1.48,2.65c-2.55,1.65-5.23,2.48-8.04,2.48ZM130.53,23.38h12.95c0-4.03-1.36-6.45-4.08-7.26-.61-.17-1.25-.26-1.91-.26-2.29,0-4.1,1.01-5.43,3.04-.84,1.28-1.35,2.77-1.52,4.48Z"/>
    <path class="cls-3" d="M165.34,19.51l.35,2.91c-.41.15-1.04.38-1.91.7-1.33.46-2.33.81-3,1.04v12.78c0,1.62-.45,2.68-1.35,3.17-.09.06-.17.1-.26.13-.96.38-2.93.55-5.91.52-.12-.93-.43-1.93-.96-3,2.26.06,3.72.06,4.39,0,.52-.06.8-.33.83-.83v-11.69c-.64.2-1.56.52-2.78.96-1.45.52-2.49.88-3.13,1.09l-1.09-3.39c1.01-.26,3.35-.93,7-2v-9.91h-6.43v-3.09h6.43V.22h3.26v8.69h4.91v3.09h-4.91v8.91l4.56-1.39ZM186.63,19.16l2.17.91c-1.56,5.07-4.3,9.39-8.21,12.95,3.22,2.26,7.05,3.87,11.52,4.82-.75.72-1.48,1.71-2.17,2.95-4.58-1.16-8.58-3.04-11.99-5.65-3.51,2.46-7.71,4.36-12.6,5.69-.58-1.33-1.17-2.32-1.78-2.95,4.58-1.07,8.53-2.72,11.86-4.95-2.67-2.72-4.79-6.03-6.39-9.91l2.39-.7h-3.87v-3.04h18.47l.61-.13ZM173.29,5.08v1.35c-.03,5.33-2.03,9.33-6,11.99-.61-.93-1.29-1.68-2.04-2.26-.09-.06-.15-.1-.17-.13,3.33-2.32,5.03-5.53,5.08-9.65V1.96h14.6v10.6c0,.7.16,1.07.48,1.13.12.03.27.04.48.04h2.39c.43,0,.71-.32.83-.96.17-.7.28-2.13.3-4.3.61.52,1.52.94,2.74,1.26-.15,3.39-.65,5.46-1.52,6.21-.49.38-1.16.56-2,.56h-3.22c-1.68,0-2.74-.41-3.17-1.22-.29-.61-.43-1.51-.43-2.69v-7.52h-8.34ZM184.41,22.33h-12.3c1.36,3.3,3.35,6.16,5.95,8.56,2.81-2.46,4.92-5.32,6.34-8.56Z"/>
    <path class="cls-3" d="M203.88,16.38h9.3s-.01.51-.04,1.43c-.23,11.04-.59,17.61-1.09,19.73-.2.72-.42,1.26-.65,1.61-.61.81-1.51,1.29-2.69,1.43-1.16.09-2.75.09-4.78,0-.06-1.13-.35-2.13-.87-3,1.22.09,2.61.13,4.17.13.61,0,1.06-.19,1.35-.56.61-.87,1.03-5.14,1.26-12.82.06-1.48.1-3.14.13-5h-6.08v.3c0,6.37-.91,11.47-2.74,15.3-1.04,2.14-2.39,4.08-4.04,5.82-.52-.64-1.32-1.35-2.39-2.13,3.56-3.77,5.55-8.89,5.95-15.38.06-1.1.09-2.32.09-3.65v-9.21h-5.26v-3h8.17V.26h3.17v7.13h8.3v3h-11.25v6ZM236.08,11.52h-3.3c-1.28,7.45-3.23,13.37-5.87,17.77,2.55,3.97,5.69,6.84,9.43,8.6-.87.72-1.61,1.62-2.22,2.69-.03.06-.04.1-.04.13-3.59-1.88-6.65-4.74-9.17-8.56-2.72,3.56-6.34,6.47-10.86,8.73-.52-1.04-1.16-2-1.91-2.87,4.69-2.11,8.37-5.05,11.04-8.82-1.65-3.19-3.1-7.23-4.35-12.12-.87,1.88-1.8,3.53-2.78,4.95-.58-.58-1.52-1.3-2.82-2.17,3.16-4.26,5.5-10.82,7.04-19.68l3.39.48c-.49,2.69-1.09,5.29-1.78,7.78h14.21v3.09ZM229.52,11.52h-8.52c-.12.29-.19.49-.22.61,1.01,5.45,2.45,10.08,4.3,13.9,1.94-3.68,3.42-8.52,4.43-14.51Z"/>
    <path class="cls-3" d="M249.12,19.03c.32.38.75.96,1.3,1.74.55.78,1.12,1.6,1.72,2.46.59.85,1.15,1.66,1.67,2.41.52.75.88,1.3,1.09,1.65l-2.26,2.56c-.15-.38-.35-.83-.61-1.35-.26-.52-.55-1.09-.87-1.69s-.65-1.23-1-1.87c-.35-.64-.7-1.25-1.04-1.83v17.55h-3v-16.6c-.69,2.17-1.48,4.24-2.37,6.19-.88,1.96-1.76,3.61-2.63,4.98-.17-.49-.44-1.06-.8-1.72-.36-.65-.67-1.19-.93-1.63.58-.78,1.16-1.72,1.74-2.8.58-1.09,1.14-2.24,1.69-3.48.55-1.23,1.06-2.5,1.52-3.8.46-1.3.87-2.56,1.22-3.78h-5.74v-3.09h6.3V.22h3v14.77h4.95v3.04h-4.95v1ZM242.73,13.3c-.06-.67-.16-1.4-.3-2.22-.15-.81-.33-1.65-.54-2.52-.22-.87-.46-1.73-.72-2.59-.26-.85-.54-1.67-.83-2.46l2.26-.52c.32.78.62,1.6.89,2.46.28.85.52,1.7.74,2.54.22.84.41,1.66.56,2.46.16.8.28,1.53.37,2.19l-2.43.65ZM249.72,12.64c.23-.64.48-1.38.76-2.22.27-.84.54-1.7.78-2.59.25-.88.48-1.77.72-2.65.23-.88.42-1.69.56-2.41l2.74.65c-.26.81-.54,1.67-.83,2.59-.29.91-.59,1.8-.89,2.67-.3.87-.61,1.71-.91,2.52-.3.81-.6,1.52-.89,2.13l-2.04-.7ZM280.45,14.38v2.56h-24.85v-2.56h10.56v-3h-8.21v-2.43h8.21v-2.69h-9.3v-2.56h9.3V.13h3.17v3.56h9.95v2.56h-9.95v2.69h9.04v2.43h-9.04v3h11.12ZM277.49,37.33c0,.81-.1,1.44-.3,1.89-.2.45-.59.79-1.17,1.02-.58.23-1.34.37-2.28.41-.94.04-2.11.07-3.5.07-.06-.41-.17-.87-.35-1.39s-.36-.99-.56-1.39c1.01.03,1.93.04,2.74.04h1.61c.32,0,.52-.05.61-.15.09-.1.13-.27.13-.5v-3.82h-12.91v7.21h-3.09v-21.12h19.08v17.73ZM261.5,22.16v3.26h12.91v-3.26h-12.91ZM274.41,31.16v-3.3h-12.91v3.3h12.91Z"/>
    <path class="cls-3" d="M293.18,10.73l-1.65,2.61c-1.62-1.13-4.03-2.23-7.21-3.3l1.65-2.3c2.81.84,5.21,1.84,7.21,3ZM324.59,29.16v2.95h-18.42v8.73h-3.35v-8.73h-17.95v-2.95h17.95v-3.65h3.35v3.65h18.42ZM287.92,26.68l-2.3-2.52c2.43-2.17,5.33-5.21,8.69-9.13l1.78,2.22c-2.14,2.67-4.87,5.81-8.17,9.43ZM296.48,3.78l-1.74,2.56c-1.88-1.3-4.24-2.52-7.08-3.65l1.65-2.26c2.69.9,5.08,2.01,7.17,3.35ZM299,25.16v-14.51c-.96,1.07-1.97,2.06-3.04,2.95-.78-.84-1.64-1.59-2.56-2.26,3.27-2.49,5.98-5.71,8.13-9.65.32-.58.61-1.14.87-1.69l3.13.91c-.7,1.48-1.46,2.87-2.3,4.17h6.21c.81-1.48,1.58-3.1,2.3-4.87l3.52.65c-.12.17-.96,1.58-2.52,4.21h9.86v2.61h-10.12v3.3h8.82v2.48h-8.82v3.17h8.91v2.48h-8.91v3.39h11.3v2.65h-24.77ZM309.39,10.99v-3.3h-7.21v3.3h7.21ZM309.39,16.64v-3.17h-7.21v3.17h7.21ZM309.39,22.51v-3.39h-7.21v3.39h7.21Z"/>
    <path class="cls-3" d="M363.14,22.47h3.35v18.25h-3.35v-2.69h-27.77v2.78h-3.3v-18.34h3.3v12.34h11.86v-15.21h-13.47V4.39h3.26v12.04h10.21V.43h3.39v15.99h10.69V4.39h3.39v15.21h-14.08v15.21h12.51v-12.34Z"/>
    <path class="cls-3" d="M382.39,19.73v-2.91h-8.65v-1.91h8.65v-1.39h-6.65v-7.69h6.65v-1.48h-8.04v-1.96h8.04V.22h2.65v2.17h8.34v1.96h-8.34v1.48h6.91v7.69h-6.91v1.39h8.56v1.91h-8.56v2.91h4.22v-2.48h2.48v4.48h-15.73v-4.48h2.48v2.48h3.91ZM395.25,29.59v2.39h17.99v2.35h-17.99v3.26c0,1.36-.41,2.23-1.22,2.61-.17.09-.36.16-.56.22-1.01.32-3.42.45-7.21.39-.26-.84-.62-1.69-1.09-2.56,2.84.09,4.81.1,5.91.04.58-.17.9-.43.96-.78v-3.17h-17.77v-2.35h17.77v-2.39h-15.08v-2.22h15.08v-2.3c-3.56.17-7.97.26-13.21.26-.06-.55-.25-1.22-.56-2,12.51-.06,21.32-.61,26.42-1.65l2.26,1.78c-3.53.67-7.43,1.13-11.69,1.39v2.52h15.47v2.22h-15.47ZM378.13,7.39v1.48h4.26v-1.48h-4.26ZM378.13,11.99h4.26v-1.61h-4.26v1.61ZM389.56,7.39h-4.52v1.48h4.52v-1.48ZM389.56,11.99v-1.61h-4.52v1.61h4.52ZM409.54,10.99l1.56.52c-1.16,2.9-3.1,5.21-5.82,6.95,2.49,1.16,5.43,1.94,8.82,2.35-.72.7-1.32,1.49-1.78,2.39-3.82-.64-7.07-1.74-9.73-3.3-2.09.96-4.75,1.69-8,2.22-.26-.75-.7-1.51-1.3-2.26,2.58-.32,4.88-.84,6.91-1.56-1.65-1.3-2.97-2.77-3.95-4.39l1.87-.56h-3.78v-2.26h.87c-.43-.7-1.06-1.33-1.87-1.91-.09-.03-.15-.06-.17-.09,2.32-1.25,3.5-2.88,3.56-4.91V1.56h11.25v4.52c0,.7.06,1.09.17,1.17.12.09.33.13.65.13h1.17c.46,0,.75-.03.87-.09.23-.12.39-.32.48-.61.06-.32.12-1.03.17-2.13.58.52,1.27.88,2.09,1.09-.06,1.39-.2,2.33-.43,2.82-.29.49-.68.84-1.17,1.04-.38.17-.98.26-1.82.26h-2.04c-1.01-.03-1.77-.25-2.26-.65-.49-.55-.74-1.61-.74-3.17v-1.96h-5.61v.22c-.03,3.07-1.42,5.36-4.17,6.87h13.64l.56-.09ZM407.33,13.34h-8.47c.96,1.42,2.27,2.68,3.95,3.78,1.94-1.07,3.45-2.33,4.52-3.78Z"/>
    <path class="cls-3" d="M428.65,26.64l-1.04-17.25-.13-5.26h5.3l-.09,5.26-1.09,17.25h-2.96ZM427.56,31.63h5.13v5.13h-5.13v-5.13Z"/>
  </g>
</svg>