<?xml version="1.0" encoding="UTF-8"?>
<svg id="_圖層_1" data-name="圖層_1" xmlns="http://www.w3.org/2000/svg" xmlns:xlink="http://www.w3.org/1999/xlink" version="1.1" viewBox="0 0 355.55 84.22">
  <!-- Generator: Adobe Illustrator 29.6.1, SVG Export Plug-In . SVG Version: 2.1.1 Build 9)  -->
  <defs>
    <style>
      .st0 {
        fill: url(#_未命名漸層_3708);
      }

      .st1 {
        fill: #dbdcdc;
      }

      .st2 {
        fill: #fff;
      }
    </style>
    <linearGradient id="_未命名漸層_3708" data-name="未命名漸層 3708" x1="1549" y1="179.66" x2="-161.6" y2="179.66" gradientUnits="userSpaceOnUse">
      <stop offset=".24" stop-color="#fff"/>
      <stop offset=".31" stop-color="#fcede2"/>
      <stop offset=".66" stop-color="#f19956"/>
      <stop offset=".82" stop-color="#ed781e"/>
    </linearGradient>
  </defs>
  <g>
    <path class="st2" d="M37.87,12.82h-4.39l-4.7,71.05h-8.96l1.03-15.54c-9.26,1.87-15.87,3.13-19.83,3.78l-1.02-9.84c1.72-.29,3.58-.56,5.59-.79l3.22-48.65h-4.04l.63-9.57h33.11l-.63,9.57ZM14.37,60.07l7.11-1.23.63-9.57h-7.03l-.71,10.8ZM16.3,31l-.63,9.57h7.03l.63-9.57h-7.03ZM23.9,22.31l.63-9.49h-7.03l-.63,9.49h7.03ZM86.5,42.51l-6.92,2.37c0-.82-.18-2.14-.53-3.95-9.43,1-15.65,1.64-18.66,1.93l-.16-1.49-6.02,2.02c-.02-.53-.06-1.29-.11-2.28-9.96,1-16.62,1.64-19.98,1.93l-.56-7.47c1.35-.06,3.14-.15,5.38-.26,2.12-2.87,4-5.56,5.63-8.08-2.41-3.45-5.3-6.7-8.66-9.75l4.97-6.15,1.41,1.23c2.7-5.44,4.53-9.63,5.49-12.56l8.53,2.46c-.91,1.35-2.25,3.48-4.03,6.41-2.48,3.92-4.28,6.67-5.38,8.26.16.18.41.47.73.88.71.82,1.19,1.41,1.46,1.76,2.32-4.16,3.82-6.91,4.5-8.26l7.64,2.63c-5.28,8.14-10.1,15.02-14.45,20.64l5.83-.44c-.48-1.64-.96-3.13-1.46-4.48l6.36-1.93c1.24,3.34,2.04,5.83,2.4,7.46l3.71-.26c2.83-3.86,4.67-6.5,5.53-7.9-2.4-3.57-5.43-6.88-9.09-9.92l4.65-6.5c.16.18.47.44.91.79.5.35.84.61,1,.79,2.27-4.27,4.13-8.4,5.56-12.38l8.61,2.55c-5.09,7.96-8.22,12.76-9.38,14.4,1.15,1.23,1.94,2.14,2.37,2.72,2.33-4.27,3.84-7.11,4.52-8.52l7.98,2.9c-5.85,8.78-10.69,15.63-14.53,20.55l5.74-.44c-.29-.94-.81-2.34-1.57-4.22l6.55-2.11c2.47,5.15,3.82,9.92,4.06,14.32,0,.12-.02.23-.02.35ZM48.09,44.26h8.69l-1.05,15.81c-.5,7.55-2.4,13.26-5.7,17.13-2.59,2.87-6.08,5.21-10.48,7.03-.8-2.11-2.21-4.22-4.24-6.32-.22-.23-.41-.44-.57-.61,5.67-2.46,9.31-5.8,10.94-10.01h-4.04l-.22,3.34h-7.64l1.57-23.8h7.64l-.88,13.26h4.92l1.05-15.81ZM73.74,60.07l.88-13.26h8.08l-1.56,23.54h-8.08l.2-3.07h-5.18l-1.1,16.6h-8.61l2.63-39.78h8.61l-1.06,15.98h5.18Z"/>
    <path class="st2" d="M94.44,52.52l8.68,1.49c-1.7,9.84-4,17.56-6.89,23.19-2.76-1.7-5.42-2.99-8-3.86,2.66-4.8,4.73-11.74,6.21-20.81ZM167.42,7.46l6.44,3.6c-3.89,8.43-9.01,15.84-15.35,22.22,5.71,4.04,11.96,7.23,18.78,9.57-2.47,1.93-4.88,4.65-7.21,8.17-.07.18-.14.29-.2.35l-.17-.09-2.13,32.23h-10.45l.22-3.34h-19.58l-.24,3.69h-9.92l2.08-31.53-1.53.62c-.45-1.11-1.3-2.55-2.53-4.3l-6.15,2.63c-.24-1.64-.5-3.13-.76-4.48l-4.59.35-2.43,36.8h-9.31l2.39-36.18-13.06.88-.26-9.31,6.43-.26c2.35-2.75,3.91-4.65,4.68-5.71-2.38-3.86-5.65-7.96-9.81-12.3l5.58-7.29c.11.12.77.73,1.99,1.84,3.04-5.21,5.55-10.42,7.53-15.63l9.08,3.42c-5.21,8.78-8.97,14.78-11.29,18,.49.59,1.43,1.79,2.84,3.6,3.5-5.15,6.49-9.98,8.95-14.49l8.43,4.04c-6.47,9.25-12.59,17.3-18.37,24.15l8.63-.35c-.6-1.58-1.51-3.75-2.73-6.5l7.31-2.99c2.58,5.27,4.43,9.98,5.56,14.14,6.79-2.69,12.62-5.83,17.48-9.4-2.78-3.1-5.05-5.91-6.82-8.43-2.45,2.46-5.09,4.77-7.92,6.94-1.43-2.34-3.34-4.42-5.73-6.24-.39-.29-.73-.53-1.01-.7,9.02-6.32,15.87-14.23,20.54-23.71.27-.53.51-1.02.71-1.49l10.35,1.58c-.95,1.93-2.11,4.04-3.49,6.32h15.46l1.61-.44ZM113.83,54.1l7.7-2.28c2.25,5.86,3.74,11.24,4.46,16.16l-8.1,2.9c-.52-4.57-1.88-10.16-4.07-16.77ZM136.1,49.44h29.33c-5.33-2.69-10.18-5.83-14.57-9.4-4.57,3.63-9.49,6.76-14.76,9.4ZM138.36,71.05h19.58l.83-12.47h-19.58l-.83,12.47ZM144.13,16.95l-.68.97c2.18,3.34,4.78,6.47,7.81,9.4,3.2-3.16,6.03-6.62,8.5-10.36h-15.63Z"/>
    <path class="st2" d="M252.05,38.47l9.13,4.04c-4.45,7.14-9.86,13.7-16.23,19.67,2.15,7.32,4.54,11.01,7.17,11.07,1.87,0,3.34-4.92,4.4-14.75,0-.06,0-.12.01-.18,2.45,2.81,5.24,4.86,8.38,6.15-1.54,9.08-3.76,14.84-6.68,17.3-1.92,1.58-4.52,2.37-7.8,2.37-6.14-.12-10.98-4.86-14.52-14.23-5.37,4.22-11.18,7.87-17.41,10.98-1.5-2.93-3.69-5.8-6.54-8.61,7.24-3.22,14.22-7.44,20.95-12.65-1.48-6.85-2.47-14.9-2.97-24.15h-18.27l-.68,10.28c1.54-.29,3.88-.73,7.03-1.32,3.08-.58,5.39-1,6.93-1.23l.23,9.75-14.86,2.99-1.02,15.37c-.32,4.8-1.67,7.99-4.06,9.57-.49.35-1.01.64-1.55.88-3.2,1.4-8.63,2.08-16.29,2.02-.26-3.1-1.28-6.71-3.06-10.8,4.55.23,8.5.26,11.85.09,1.42-.23,2.19-.85,2.32-1.84l.87-13.09c-1.72.35-4.18.85-7.39,1.49-4.15.82-7.12,1.4-8.9,1.76l-1.92-10.8c6.09-.94,12.4-1.96,18.91-3.07l.8-12.03h-17.04l.67-10.19h17.04l.67-10.19c-3.85.65-8.69,1.29-14.53,1.93-.25-2.46-1.08-5.44-2.48-8.96,14.29-1.87,26.38-4.39,36.24-7.55l6.6,9.05c-4.66,1.35-9.63,2.55-14.91,3.6l-.8,12.12h17.21c-.12-6.97.07-15.16.57-24.59h11.24c-.7,7.96-.95,16.16-.75,24.59h24.5l-.67,10.19h-23.36c.39,5.56.91,10.63,1.54,15.19,3.92-4.33,7.05-8.4,9.42-12.21ZM265,16.69l-9.1,6.06c-2.02-3.98-5.39-8.4-10.1-13.26-.61-.58-1.16-1.11-1.65-1.58l8.45-5.53c6.07,5.62,10.2,10.39,12.4,14.32Z"/>
    <path class="st2" d="M324.72,4.65l-2.27,34.25h-15.46l-2.96,44.7h-9.84l5.21-78.78c-2.3,5.56-4.72,10.74-7.26,15.54l-4.19,63.41h-10.19l2.97-44.97c-1.94,2.69-3.94,5.15-6.02,7.38-.83-3.34-2.2-6.97-4.11-10.89-.1-.23-.21-.44-.31-.62,7.12-7.55,13.23-17.62,18.33-30.21.63-1.52,1.22-3.02,1.79-4.48l9.73,2.9-.64,1.76h25.21ZM307.53,30.83h7.38l.35-5.27h-7.38l-.35,5.27ZM316.11,12.73h-7.38l-.34,5.09h7.38l.34-5.09ZM355.55,4.65l-4.41,66.75c-.32,4.86-1.67,8.05-4.06,9.57-.49.29-1,.56-1.55.79-3.07,1.29-9.06,1.93-17.96,1.93-.15-3.04-1.04-6.5-2.65-10.36,4.9.29,9.37.35,13.43.18,1.54-.23,2.38-.97,2.52-2.2l2.14-32.41h-16.51l2.27-34.25h26.79ZM335.55,30.83h7.99l.35-5.27h-7.99l-.35,5.27ZM344.74,12.73h-7.99l-.34,5.09h7.99l.34-5.09Z"/>
  </g>
</svg>