<?xml version="1.0" encoding="UTF-8"?>
<svg id="_圖層_1" data-name="圖層_1" xmlns="http://www.w3.org/2000/svg" version="1.1" viewBox="0 0 433.37 102.58">
  <!-- Generator: Adobe Illustrator 29.6.1, SVG Export Plug-In . SVG Version: 2.1.1 Build 9)  -->
  <defs>
    <style>
      .st0 {
        fill: #ed781e;
      }
    </style>
  </defs>
  <path class="st0" d="M76.51,27.23l8.44,5.25c-4.99,7.43-11.73,14.15-20.2,20.15,11.16,4.07,23.92,6.83,38.26,8.25-3.38,3.5-6.32,7.54-8.84,12.11-.09.21-.17.39-.25.54-.85-.14-4.52-.79-11.02-1.93l-2.02,30.55h-13.51l.21-3.22H31.04l-.23,3.43h-12.76l1.98-30.01c-4.51,1.22-9.44,2.32-14.8,3.32-.96-3.93-2.64-7.68-5.04-11.25-.14-.07-.21-.14-.2-.21,14.08-2.14,27.14-5.79,39.2-10.93-3.67-2.86-6.78-5.57-9.32-8.15-3.5,2.14-8.13,4.57-13.88,7.29-1.51-3.14-3.78-6.04-6.82-8.68-.48-.36-.88-.68-1.22-.96,14.73-5.5,25.5-12.86,32.33-22.08h-20.15l-.81,12.22H6.46l1.59-24.01h39.98l.59-8.9h13.4l-.59,8.9h40.73l-1.59,24.01h-13.4l.81-12.22h-45.88l12.06,2.47c-.7.86-1.98,2.4-3.84,4.61h23.9l2.29-.54ZM31.75,88.22h36.55l.62-9.33h-36.55l-.62,9.33ZM33.61,68.17h35.8c-6.24-1.86-12.33-4.32-18.27-7.4-5.99,3-11.83,5.47-17.53,7.4ZM40.35,37.52l-.56.43c3.43,3.29,7.52,6.29,12.27,9,5.29-3.22,9.53-6.36,12.74-9.43h-24.44Z"/>
  <path class="st0" d="M140.61,28.83h61.53l-3.03,45.77h-13.18l.37-5.57h-50.91c-3.95,14.29-9.72,25.4-17.32,33.34-1.54-2.57-4.09-5.11-7.64-7.61-.82-.57-1.54-1-2.17-1.29,9.99-10.65,15.93-26.4,17.81-47.27.19-1.79.35-3.71.49-5.79l2.11-31.94,8.63,2.36c22.98-2.86,41.01-6.47,54.09-10.83l9.75,9.75c-15.24,4.57-35.25,8.36-60.03,11.36l-.51,7.72ZM138,56.92h49.09l1.06-15.97h-48.34c-.35,5.29-.95,10.61-1.81,15.97Z"/>
  <path class="st0" d="M315.62,51.99l7.74,2.89c-6.55,20.15-19.28,34.41-38.2,42.77-4.42,1.93-9.13,3.57-14.15,4.93-1.51-4.15-3.53-7.68-6.05-10.61,9.35-2,17.42-5.25,24.23-9.75-2.44-3.07-5.59-6.22-9.45-9.43-1.87,1.22-3.87,2.4-6.02,3.54-1.32-2.71-3.4-5.29-6.24-7.72-.41-.36-.74-.64-1.01-.86.37-.14.89-.43,1.56-.86.74-.36,1.25-.61,1.55-.75h-16.83l-.05.75c5.54,3.72,11.53,8.29,17.96,13.72.47.43.84.75,1.11.96l-8.2,10.61c-2.83-3.71-6.71-8.18-11.66-13.4l-1.55,23.47h-12.22l1.52-23.05c-6.23,8.86-12.28,15.51-18.15,19.94-.66-2.93-2.31-7.14-4.95-12.65,6.81-4.72,13.13-11.08,18.95-19.08.31-.43.63-.86.94-1.29h-15.22l.76-11.47h19.29l.45-6.75h-16.4l2.89-43.62h46.09l-1.13,17.04c8.82-5.93,15.44-13.04,19.85-21.33l11.88,1.93c-.98,1.86-2.1,3.68-3.36,5.47h11.79l2.27-.32,7.94,3.11c-4.88,14.36-13.17,25.76-24.88,34.19l7.3,1.39c-1.21,2.07-2.64,4.29-4.3,6.65h11.58l2.39-.43ZM236.94,30.98l-.44,6.65h6.97l.44-6.65h-6.97ZM238.02,14.68l-.44,6.65h6.97l.44-6.65h-6.97ZM271.92,54.67l-.69,10.5c7.42-4.22,13.59-9.33,18.48-15.33-4.8,2.29-9.06,4.04-12.78,5.25-1.06-2.29-2.88-5.04-5.46-8.25l-.07,1.07h-17.47l-.45,6.75h18.44ZM253.54,37.62h7.5l.44-6.65h-7.5l-.44,6.65ZM254.62,21.33h7.5l.44-6.65h-7.5l-.44,6.65ZM272.74,27.76l-1.2,18.11c7.28-2.07,14.12-5.54,20.52-10.4-1.92-2.29-4.81-5-8.68-8.15-2.64,2.07-4.96,3.75-6.98,5.04-.84-1.29-2.06-2.82-3.66-4.61ZM306.97,62.81h-14.58c-.38.29-.95.79-1.71,1.5-.76.72-1.3,1.22-1.6,1.5,3.8,3,6.97,5.86,9.51,8.58,3.45-3.57,6.24-7.43,8.38-11.58ZM307.39,17.58h-13.61c-.23.29-.62.68-1.15,1.18-.47.57-.81.96-1.04,1.18,3.01,2.07,6.02,4.61,9.04,7.61,2.79-3.29,5.05-6.61,6.77-9.97Z"/>
  <path class="st0" d="M369.92,3.97c-3.41,7.22-7.27,14.29-11.59,21.22l-5.07,76.64h-12.43l3.83-57.88c-1.56,1.93-3.16,3.75-4.81,5.47-1.65,1.71-3.31,3.32-4.98,4.82-.23-.79-.58-1.77-1.04-2.95-.46-1.18-.97-2.39-1.53-3.64-.56-1.25-1.12-2.48-1.69-3.7-.56-1.21-1.11-2.18-1.63-2.89,2.74-2.5,5.48-5.31,8.22-8.41,2.74-3.11,5.37-6.43,7.89-9.97,2.52-3.54,4.87-7.22,7.05-11.04,2.18-3.82,4.15-7.7,5.91-11.63l11.85,3.97ZM431.38,73.1h-29.26l-1.92,29.05h-13.18l1.92-29.05h-28.73l.79-12.01h28.73l.98-14.79h-24.33l.8-12.11h24.33l2.18-32.91h13.18l-2.18,32.91h24.87l-.8,12.11h-24.87l-.98,14.79h29.26l-.79,12.01ZM375.2,32.69c-.19-1.5-.5-3.22-.95-5.14-.44-1.93-.97-3.93-1.58-6-.61-2.07-1.3-4.16-2.05-6.27-.76-2.11-1.54-4.09-2.34-5.95l11.3-3.97c.89,1.71,1.73,3.57,2.53,5.57.79,2,1.54,4.02,2.22,6.06s1.29,4,1.81,5.9c.52,1.89.91,3.59,1.16,5.09l-12.1,4.72ZM433.37,9c-2.28,4.22-4.59,8.4-6.94,12.54-2.35,4.15-4.48,7.72-6.39,10.72l-10.33-4.29c.89-1.57,1.83-3.34,2.82-5.31.99-1.96,1.96-4,2.92-6.11.96-2.11,1.87-4.2,2.72-6.27.85-2.07,1.59-4.04,2.21-5.9l12.99,4.61Z"/>
</svg>