<?xml version="1.0" encoding="UTF-8"?>
<svg id="_圖層_1" data-name="圖層_1" xmlns="http://www.w3.org/2000/svg" version="1.1" viewBox="0 0 914.2 75.56">
  <!-- Generator: Adobe Illustrator 29.6.1, SVG Export Plug-In . SVG Version: 2.1.1 Build 9)  -->
  <defs>
    <style>
      .st0 {
        fill: #3e3a39;
      }

      .st1 {
        fill: #ed781e;
        opacity: .47;
      }
    </style>
  </defs>
  <rect class="st1" x="0" y="0" width="914.2" height="75.56" rx="37.78" ry="37.78"/>
  <g>
    <path class="st0" d="M73.27,56.01v-3.65h7.8v-26.17h-6.22v-2.76c2.87-.53,5.3-1.37,7.29-2.52h3.32v31.45h7.06v3.65h-19.25Z"/>
    <path class="st0" d="M110.12,56.62c-4.36,0-7.46-2.41-9.3-7.24-1.12-2.93-1.68-6.6-1.68-11.03,0-8.75,2.06-14.36,6.17-16.82,1.43-.84,3.04-1.26,4.81-1.26,4.45,0,7.57,2.48,9.35,7.43,1.03,2.87,1.54,6.42,1.54,10.65,0,8.57-1.95,14.18-5.84,16.82-1.5.97-3.18,1.45-5.05,1.45ZM110.12,53.16c3.15,0,5.19-2.65,6.12-7.94.34-1.99.51-4.28.51-6.87,0-8.72-1.82-13.52-5.47-14.39-.41-.09-.79-.14-1.17-.14-3.43,0-5.55,2.91-6.36,8.74-.25,1.71-.37,3.65-.37,5.79,0,8.44,1.68,13.29,5.05,14.53.56.19,1.12.28,1.68.28Z"/>
    <path class="st0" d="M137.86,56.62c-4.36,0-7.46-2.41-9.3-7.24-1.12-2.93-1.68-6.6-1.68-11.03,0-8.75,2.06-14.36,6.17-16.82,1.43-.84,3.04-1.26,4.81-1.26,4.45,0,7.57,2.48,9.35,7.43,1.03,2.87,1.54,6.42,1.54,10.65,0,8.57-1.95,14.18-5.84,16.82-1.5.97-3.18,1.45-5.05,1.45ZM137.86,53.16c3.15,0,5.19-2.65,6.12-7.94.34-1.99.51-4.28.51-6.87,0-8.72-1.82-13.52-5.47-14.39-.41-.09-.79-.14-1.17-.14-3.43,0-5.55,2.91-6.36,8.74-.25,1.71-.37,3.65-.37,5.79,0,8.44,1.68,13.29,5.05,14.53.56.19,1.12.28,1.68.28Z"/>
    <path class="st0" d="M163.83,50.45v-10.47h-9.72v-3.27h9.72v-10.42h3.5v10.42h9.67v3.27h-9.67v10.47h-3.5Z"/>
    <path class="st0" d="M199.14,17.74v37.71c0,1.78-.47,2.93-1.4,3.46-.09.06-.17.11-.23.14-1,.44-3.1.65-6.31.65-.12-1.15-.48-2.29-1.07-3.41,2.49.06,4.08.06,4.77,0,.59-.09.9-.39.93-.89v-11.78h-7.52c-.53,6.89-1.73,12.26-3.6,16.12-.75-.69-1.71-1.26-2.9-1.73,2.31-4.61,3.49-11.78,3.55-21.5v-18.79h13.79ZM188.48,40.22h7.34v-8.04h-7.24v2.62c0,1.09-.03,2.9-.09,5.42ZM195.82,21.01h-7.24v7.85h7.24v-7.85ZM222.78,33.91l2.06.7c-1.25,6.39-3.43,11.76-6.54,16.12,2.46,2.77,5.12,4.88,7.99,6.31-.84.72-1.6,1.62-2.29,2.71-2.93-1.68-5.51-3.83-7.76-6.45-2.15,2.52-4.55,4.56-7.2,6.12-.65-1.09-1.37-1.98-2.15-2.66,2.71-1.53,5.16-3.55,7.34-6.07-2.56-3.74-4.67-8.19-6.36-13.37h-1.21v22.38h-3.32V17.88h20.19v9.16c0,1.56-.45,2.57-1.36,3.04-.19.09-.36.17-.51.23-1.06.31-3.57.47-7.52.47-.16-.9-.53-1.9-1.12-2.99,3.27.06,5.31.06,6.12,0,.59-.09.9-.36.93-.79v-5.79h-13.41v12.8h15.51l.61-.09ZM221.01,37.32h-10c1.37,4.11,3.1,7.68,5.19,10.7,2.12-3.21,3.72-6.78,4.81-10.7Z"/>
    <path class="st0" d="M247.62,44.75l-2.43-1.21c.93-2.06,1.79-4.63,2.57-7.71h-4.58v19.72c0,1.59-.44,2.66-1.31,3.22-.09.06-.19.11-.28.14-1.06.37-3.05.56-5.98.56-.22-1.18-.58-2.27-1.08-3.27,1.37.03,2.88.05,4.53.05.47-.09.72-.33.75-.7v-15.37c-2.18,5.36-4.5,9.28-6.96,11.78-.31-.84-.93-1.95-1.87-3.32,2.55-2.43,4.84-5.98,6.87-10.65.31-.75.59-1.46.84-2.15h-7.24v-3.13h12.85c-2.52-2.15-5.78-4.14-9.77-5.98-.31-.16-.61-.3-.89-.42l2.2-2.29c1.31.53,2.87,1.26,4.67,2.2,1.84-1.4,3.5-2.98,5-4.72h-13.55v-3.13h16.12l.61-.14,2.29,1.45c-1.9,2.87-4.5,5.58-7.8,8.13,1.5.9,2.83,1.85,4.02,2.85l-1.82,2.06h3.55l.51-.19,2.15.79c-.03.09-.27.93-.7,2.52,3.36-.93,6.22-2.17,8.55-3.69-1.9-1.74-3.54-3.69-4.91-5.84-1.56,1.65-2.71,2.79-3.46,3.41-1-.84-1.96-1.53-2.9-2.06,3.36-2.49,6.11-5.78,8.22-9.86.31-.62.59-1.23.84-1.82l3.41.89c-.44.97-1.17,2.34-2.2,4.11h15.89v3.04h-3.69c-1.31,3.15-3.22,5.86-5.75,8.13,3.18,1.99,6.64,3.38,10.37,4.16-1,1.06-1.75,2.09-2.24,3.08-4.02-1.12-7.63-2.82-10.84-5.09-2.9,1.99-6.39,3.63-10.47,4.91-.25-.5-.67-1.12-1.26-1.87-.9,3.15-1.85,5.62-2.85,7.43ZM262.11,42.65h11.17s-.03.55-.09,1.54c-.72,7.41-1.64,11.92-2.76,13.5-.16.16-.28.3-.37.42-.69.68-1.68,1.11-2.99,1.26-1.93.06-3.71.05-5.33-.05-.16-1.37-.47-2.48-.93-3.32,1.71.16,3.29.23,4.72.23.75-.03,1.29-.19,1.64-.47.93-1,1.71-4.38,2.34-10.14h-8.04c-1.5,5.42-4.35,9.42-8.55,12.01-1.25.78-2.62,1.45-4.11,2.01-.62-1.15-1.32-2.07-2.1-2.76,5.2-1.87,8.71-5.09,10.51-9.67.22-.53.4-1.06.56-1.59h-7.43v-2.99h8.22c.25-1.43.45-3.01.61-4.72h3.6c-.12,1.43-.34,3.01-.65,4.72ZM266.78,24h-10.05c1.34,2.31,3.15,4.36,5.42,6.17,1.99-1.78,3.54-3.83,4.63-6.17Z"/>
    <path class="st0" d="M282.23,59.7v-20.84h16.92v20.42h-3.5v-2.15h-10v2.57h-3.41ZM295.64,42.32h-10v11.36h10v-11.36ZM315.22,18.02v15.84h-26.03v-15.84h26.03ZM311.63,30.45v-9.02h-19.02v9.02h19.02ZM304.34,38.86h17.8v20.52h-3.5v-2.24h-10.84v2.57h-3.46v-20.84ZM307.79,53.68h10.84v-11.36h-10.84v11.36Z"/>
    <path class="st0" d="M335.3,32.13v3.08c0,1.71-.02,3.02-.05,3.93h9.3v20.47h-3.22v-17.43h-6.17c-.4,7.29-1.45,13.15-3.13,17.57-.69-.41-1.7-.81-3.04-1.21,2.09-5.2,3.13-12.98,3.13-23.32v-18.27h3.18v12.06h4.58v-12.99h3.13v12.99h3.97v3.13h-11.68ZM372.83,46.67v3.08h-7.43v9.86h-3.41v-9.86h-15.98v-3.08h15.98v-6.68h3.41v6.68h7.43ZM371.47,38.86h-12.24c-1.87,3.15-4.89,5.62-9.07,7.43-.47-.59-1.26-1.26-2.38-2.01,3.43-1.5,5.98-3.3,7.66-5.42h-7.38v-18.32h7.52c.93-2.09,1.54-3.66,1.82-4.72l4.02.79c-.28.5-.7,1.25-1.26,2.24-.47.78-.79,1.34-.98,1.68h12.29v18.32ZM351.28,23.39v4.95h6.96v-4.95h-6.96ZM351.28,36.06h5.84c.65-1.56,1.03-3.24,1.12-5.05h-6.96v5.05ZM368.25,36.06v-5.05h-6.96c-.12,1.99-.39,3.68-.79,5.05h7.76ZM368.25,28.35v-4.95h-6.96v4.95h6.96Z"/>
    <path class="st0" d="M401.03,39.66h-3.6v-6.17h6.26v5c0,3.33-1.35,5.86-4.07,7.57-.5.31-.79.47-.89.47l-1.17-1.92c2.31-1.18,3.46-2.83,3.46-4.95Z"/>
    <path class="st0" d="M441.44,36.11l.47,3.32-5.19,1.73v14.39c0,1.78-.5,2.93-1.5,3.46-.06.03-.11.05-.14.05-1.06.44-3.04.64-5.94.61-.22-1.15-.58-2.24-1.07-3.27,2.34.06,3.85.06,4.53,0,.5-.16.76-.44.79-.84v-13.37l-5.7,1.87-.89-3.46c.44-.12,2.63-.78,6.59-1.96v-9.81h-5.98v-3.22h5.98v-9.58h3.32v9.58h5.09v3.22h-5.09v8.83c.68-.19,1.68-.51,2.99-.98.78-.25,1.35-.44,1.73-.56ZM458.68,40.03h11.59v2.24h-25.56v-9.67c-.72.72-1.48,1.4-2.29,2.06-.72-.72-1.54-1.39-2.48-2.01,3.05-2.27,5.44-5.03,7.15-8.27h-3.74v-7.06h3.18v4.53h7.85v-5.89h3.32v5.89h7.9v-4.53h3.27v7.06h-10.37l1.31.33c-.81,1.62-1.29,2.57-1.45,2.85h10.65v2.24h-10.33v1.96h8.83v2.01h-8.83v2.06h8.83v2.06h-8.83v2.15ZM469.61,44.1v12.52c0,1.31-.31,2.13-.94,2.48-.12.09-.25.16-.37.19-.75.28-2.51.42-5.28.42-.16-.84-.44-1.68-.84-2.52,1.93.06,3.15.06,3.64,0,.44-.06.67-.25.7-.56v-5.98h-5.09c-1.81,0-2.91-.31-3.32-.93-.25-.44-.37-1.07-.37-1.92v-1.26h-3.93c-.59,1.68-1.79,3.1-3.6,4.25h11.73v6.4h-9.3v1.45h-2.71v-7.71c-1.09.59-2.01,1.01-2.76,1.26-.59-.68-1.07-1.2-1.45-1.54v9.02h-3.04v-15.56h26.92ZM445.73,46.53v3.79c2.83-.81,4.63-2.07,5.37-3.79h-5.37ZM455.36,31.76v-1.96h-7.52v1.96h7.52ZM455.36,35.83v-2.06h-7.52v2.06h7.52ZM447.84,37.88v2.15h7.52v-2.15h-7.52ZM449.66,24.38l.75.19c-.34.75-.89,1.75-1.64,2.99h6.22c.72-1.53,1.2-2.59,1.45-3.18h-6.78ZM459.24,52.65h-6.59v2.62h6.59v-2.62ZM461.72,48.68h3.83c.5,0,.83-.05.98-.14v-2.01h-6.03v1.26c0,.5.16.78.47.84.19.03.44.05.75.05Z"/>
    <path class="st0" d="M519.74,40.59v3.5h-19.63v10.61c0,1.96-.59,3.24-1.78,3.83-.25.12-.5.23-.75.33-1.56.47-4.84.69-9.86.65-.34-1.18-.86-2.37-1.54-3.55,3.58.12,6.53.14,8.83.05.9-.25,1.4-.7,1.5-1.35v-10.56h-19.67v-3.5h19.67v-7.76h-16.45v-3.36h16.45v-7.38c-4.86.5-10.06.89-15.61,1.17-.16-1.06-.45-2.12-.89-3.18,14.98-.68,25.69-2.01,32.1-3.97.09,0,.17-.02.23-.05l2.66,2.8c-3.9,1.18-8.86,2.13-14.91,2.85v7.76h16.92v3.36h-16.92v7.76h19.63Z"/>
    <path class="st0" d="M537.66,16.43h3.27c4.14,3.12,7.59,6.06,10.33,8.83.06.09.11.16.14.19l-2.34,2.66c-2.65-2.96-5.61-5.73-8.88-8.32-.16-.09-.28-.19-.37-.28-1.75,2.21-3.38,4.07-4.91,5.56h11.03v2.62h-11.64v-2.01c-2.03,1.9-4.33,3.69-6.92,5.37-.5-.84-1.18-1.59-2.06-2.24-.09-.06-.16-.11-.19-.14,4.86-2.9,8.79-6.59,11.78-11.08.28-.4.53-.79.75-1.17ZM549.07,43.54h-16.03c-.09.93-.23,1.92-.42,2.94h17.15v12.76h-3.13v-1.64h-11.03v1.96h-3.08v-12.43c-.9,4.61-2.57,8.43-5,11.45-.44-.69-1.15-1.37-2.15-2.06-.09-.06-.17-.11-.23-.14,3.27-3.99,4.94-9.88,5-17.66v-8.41h18.93v13.22ZM533.27,40.83h12.57v-2.76h-12.52v.05c0,1.18-.02,2.09-.05,2.71ZM545.84,32.97h-12.52v2.76h12.52v-2.76ZM546.64,49.24h-11.03v5.61h11.03v-5.61ZM556.36,21.71v26.31h-3.36v-26.31h3.36ZM563.65,16.9h3.46v38.04c0,1.99-.56,3.3-1.68,3.93-.16.06-.3.12-.42.19-1.25.44-4,.64-8.27.61-.16-1-.58-2.18-1.26-3.55,2.9.12,5.23.14,7.01.05.75-.06,1.14-.45,1.17-1.17V16.9Z"/>
    <path class="st0" d="M584.52,38.11v11.96c2.21,3.36,6.23,5.17,12.06,5.42,7.29.19,14.28.09,20.98-.28.31,0,.59-.02.84-.05-.56,1-.97,2.15-1.21,3.46-7.35.25-14.21.3-20.56.14-5.86-.25-10.22-1.89-13.08-4.91-.22-.25-.42-.48-.61-.7-1.65,1.59-3.96,3.63-6.92,6.12l-1.82-3.5c2.55-1.87,4.83-3.69,6.82-5.47v-8.88h-6.22v-3.32h9.72ZM585.68,31.67l-2.48,2.52c-1.59-1.74-4.18-3.58-7.76-5.51-.19-.09-.34-.17-.47-.23l2.34-2.29c3.46,1.68,6.14,3.41,8.04,5.19.12.12.23.23.33.33ZM587.09,22.32l-2.48,2.43c-1.56-1.81-3.96-3.69-7.2-5.65-.19-.12-.37-.23-.56-.33l2.34-2.2c3.77,2.09,6.4,4,7.9,5.75ZM600.64,25.08h-7.2c-1.03,1.78-2.24,3.46-3.65,5.05-.93-.69-1.96-1.28-3.08-1.78,2.96-2.77,5.25-6.59,6.87-11.45.03-.12.06-.22.09-.28l3.32.84c-.34,1.03-.97,2.54-1.87,4.53h5.51v-5.93h3.5v5.93h11.4v3.08h-11.4v6.12h13.46v3.08h-30.52v-3.08h13.55v-6.12ZM614.05,52.51h-3.5v-1.59h-15.7v1.73h-3.41v-14.67h22.62v14.53ZM594.84,47.88h15.7v-7.01h-15.7v7.01Z"/>
    <path class="st0" d="M637.07,43.72h3.64c-.41,4.7-1.51,8.15-3.32,10.33-2.24,2.71-6.23,4.63-11.96,5.75-.37-1.06-1-2.07-1.87-3.04,5.36-.87,8.97-2.43,10.84-4.67,1.4-1.71,2.29-4.5,2.66-8.36ZM666.37,20.08v3.08h-41.82v-3.08h18.88v-4.25h3.69v4.25h19.25ZM665.76,47.46h-3.27v-5.93h-34.21v5.93h-3.13v-8.83h40.61v8.83ZM631.09,26.01h28.88v9.72h-28.88v-9.72ZM656.27,33.21v-4.63h-21.68v4.63h21.68ZM654.87,56.39h6.36c.84,0,1.39-.36,1.64-1.08.25-.72.42-2.26.51-4.63.87.69,1.98,1.15,3.32,1.4-.25,3.4-.84,5.54-1.78,6.45-.72.62-1.84.93-3.37.93h-7.15c-2.62,0-4.25-.48-4.91-1.45-.47-.69-.7-1.76-.7-3.22v-10.89h3.79v10.84c0,.84.23,1.34.7,1.5.34.09.87.14,1.59.14Z"/>
    <path class="st0" d="M687.99,18.63v33.32h-10.47v3.93h-3.27V18.63h13.74ZM684.62,21.76h-7.1v6.87h7.1v-6.87ZM677.52,31.71v6.92h7.1v-6.92h-7.1ZM677.52,48.72h7.1v-6.96h-7.1v6.96ZM713.83,40.31l2.34,2.43c-2.18,1.87-4.92,3.8-8.22,5.79,2.4,3.8,5.37,6.5,8.92,8.08-.84.75-1.65,1.76-2.43,3.04-6.64-3.46-11.15-10.37-13.55-20.75h-5.05v15.28c1.99-.4,5.12-1.08,9.39-2.01l.33,3.13c-2.8.69-8.35,1.96-16.64,3.83l-.89-3.32,4.35-.93V18.07h21.36v20.84h-9.72c.65,2.71,1.48,5.05,2.48,7.01,3.27-2.21,5.72-4.08,7.34-5.61ZM710.23,21.25h-14.39v5.7h14.39v-5.7ZM695.84,29.94v5.89h14.39v-5.89h-14.39Z"/>
    <path class="st0" d="M753.72,16.2c3.77,1.93,6.62,3.75,8.55,5.47l-2.2,2.43h4.81v3.5h-15.23c.5,6.73,1.37,12.26,2.62,16.59,2.58-3.86,4.63-8.16,6.12-12.9l3.6.89c-2.12,6.32-4.92,11.71-8.41,16.17,1.9,4.92,4.03,7.4,6.4,7.43.93,0,1.57-1.48,1.92-4.44.12-1.15.23-2.63.33-4.44.93.93,1.96,1.57,3.08,1.92-.41,4.95-1.21,8.07-2.43,9.35-.75.78-1.81,1.17-3.18,1.17-3.49-.06-6.4-2.68-8.74-7.85-2.87,3.15-6.15,5.79-9.86,7.94-.9-1.21-1.76-2.17-2.57-2.85,4.24-2.3,7.9-5.25,10.98-8.83-1.68-5.36-2.85-12.07-3.5-20.14h-16.5v6.21h12.2v1.54c-.19,8.44-.55,13.46-1.08,15.05-.16.41-.31.72-.47.94-.65.78-1.61,1.23-2.85,1.35-1.34.09-3.24.09-5.7,0-.06-1.25-.39-2.35-.98-3.32,1.84.16,3.52.23,5.05.23.72-.03,1.2-.2,1.45-.51.5-.56.84-3.74,1.03-9.53,0-.75.02-1.56.05-2.43h-8.69v.37c-.03,10.16-1.71,17.66-5.05,22.52-.75-.84-1.67-1.6-2.76-2.29l-.19-.09c2.83-4.21,4.28-10.62,4.35-19.25v-14.3h19.95c-.12-1.78-.22-4.45-.28-8.04h3.69c0,3.08.06,5.76.19,8.04h10.65c-1.99-1.84-4.75-3.72-8.27-5.65l-.19-.09,2.1-2.15Z"/>
    <path class="st0" d="M773,43.12l3.04.51c-.78,5.2-1.89,9.25-3.32,12.15-.56-.44-1.43-.87-2.62-1.31,1.31-2.55,2.27-6.34,2.9-11.36ZM785.1,39.28l-3.93.23v20.14h-3.13v-19.95c-1.15.09-2.82.2-5,.33-1.21.06-2.1.11-2.66.14l-.19-3.22,3.27-.14c1.5-1.93,2.49-3.25,2.99-3.97-1.46-2.21-3.44-4.52-5.93-6.92l1.92-2.24,1.45,1.31c1.46-2.52,2.88-5.51,4.25-8.97l3.08,1.17c-2.15,4.36-3.97,7.63-5.47,9.81.81.84,1.67,1.87,2.57,3.08,1.71-2.59,3.41-5.47,5.09-8.65l2.99,1.35c-3.58,5.7-6.78,10.31-9.58,13.83l7.06-.33c-.09-.19-.19-.37-.28-.56-.09-.19-.17-.35-.23-.49s-.16-.33-.28-.56c-.12-.23-.21-.4-.26-.49s-.14-.27-.28-.54c-.14-.26-.23-.43-.26-.49-.03-.06-.14-.23-.33-.51l-.23-.47,2.57-1.03c2.24,3.58,3.75,6.81,4.53,9.67.03.03.05.06.05.09l-2.8,1.31c-.16-.68-.48-1.67-.98-2.94ZM788.09,51.53l-2.8.79c-.34-2.83-1.14-5.72-2.38-8.65l2.57-.79c1.37,3.05,2.24,5.94,2.62,8.65ZM795.71,52.27l2.94,1.78c-2.65,2.15-6.06,3.96-10.23,5.42-.41.12-.78.25-1.12.37-.65-.81-1.42-1.57-2.29-2.29,3.93-1.18,7.18-2.69,9.77-4.53.37-.28.69-.53.93-.75ZM814.36,28.39v2.43h-27.24v-2.43h11.64v-2.57h-9.07v-2.29h9.07v-2.52h-10.33v-2.38h10.33v-2.62h3.55v2.62h10.84v2.38h-10.84v2.52h9.67v2.29h-9.67v2.57h12.06ZM811.65,52.04h-21.31v-18.74h21.31v18.74ZM793.61,35.68v2.99h14.67v-2.99h-14.67ZM793.61,41.01v3.13h14.67v-3.13h-14.67ZM793.61,46.43v3.22h14.67v-3.22h-14.67ZM803.19,54.19l2.43-1.78c3.83,2.18,6.87,4.03,9.11,5.56l-3.08,1.73c-2.09-1.59-4.91-3.43-8.46-5.51Z"/>
    <path class="st0" d="M839.99,44.42l-1.12-18.55-.14-5.65h5.7l-.09,5.65-1.17,18.55h-3.18ZM838.82,49.8h5.51v5.51h-5.51v-5.51Z"/>
  </g>
</svg>