<?xml version="1.0" encoding="UTF-8"?>
<svg id="_圖層_1" data-name="圖層 1" xmlns="http://www.w3.org/2000/svg" xmlns:xlink="http://www.w3.org/1999/xlink" viewBox="0 0 599.11 68.89">
  <defs>
    <style>
      .cls-1 {
        fill: none;
      }

      .cls-2 {
        fill: url(#_未命名漸層_28);
      }

      .cls-3 {
        fill: #3e3a39;
      }

      .cls-4 {
        fill: url(#_未命名漸層_5);
      }

      .cls-5 {
        clip-path: url(#clippath);
      }
    </style>
    <linearGradient id="_未命名漸層_28" data-name="未命名漸層 28" x1="983.4" y1="711.29" x2="-273.64" y2="711.29" gradientUnits="userSpaceOnUse">
      <stop offset="0" stop-color="#fff"/>
      <stop offset=".34" stop-color="#c8c9ca"/>
      <stop offset=".62" stop-color="#e09257"/>
      <stop offset=".77" stop-color="#ed781e"/>
    </linearGradient>
    <clipPath id="clippath">
      <rect class="cls-1" x="-433.71" y="-411.94" width="1920" height="233.66"/>
    </clipPath>
    <linearGradient id="_未命名漸層_5" data-name="未命名漸層 5" x1="6414.79" y1="13577.06" x2="7978.98" y2="13577.06" gradientTransform="translate(-5099.54 14152.26) rotate(-132.77)" gradientUnits="userSpaceOnUse">
      <stop offset=".2" stop-color="#fff" stop-opacity="0"/>
      <stop offset=".23" stop-color="#fff" stop-opacity=".06"/>
      <stop offset=".43" stop-color="#fff" stop-opacity=".39"/>
      <stop offset=".61" stop-color="#fff" stop-opacity=".65"/>
      <stop offset=".75" stop-color="#fff" stop-opacity=".84"/>
      <stop offset=".86" stop-color="#fff" stop-opacity=".96"/>
      <stop offset=".92" stop-color="#fff"/>
    </linearGradient>
  </defs>
  <path class="cls-2" d="M-501.59,359.37v1009.66s114.54-604.32,1987.88-541.01V53.55s-227.45,305.82-1987.88,305.82Z"/>
  <g class="cls-5">
    <path class="cls-4" d="M277.63-114.46c38.97-44.31,100.92-146.46,20.22-238.72-55.1-62.99-99.07-41.9-148.45-40.54-50.97,1.41-79.44-62.31-29.1-97.62,142.08-92.03,413.93,166.14,157.33,376.88ZM11.03-410.99C-66.09-326.29-106.28-134.01,99.32,88.27h0s189.92,205.32,189.92,205.32c25.56,27.64,68.69,29.32,96.32,3.75,27.64-25.56,29.32-68.69,3.75-96.32L135.34-73.54h0S60.12-149.42,37.19-246.48c-14.5-61.37-16.43-130.26,25.65-211.72-16.19,11.16-35.97,29.82-51.81,47.22ZM-65.36-431.07c-65.41,70.35-92.79,228.45,29.02,365.84-87.32-187.94-12.59-368.37,128.56-436.68-42.93-2.51-111.48,21.25-157.59,70.85ZM-276.18-204.64c-14.24,14.98-13.75,46.3,17.97,53.09,14.84,2.36,26.85-4.34,38.04-7.49,66.91-18.83,99.99,2.13,134.26,46.4-65.81-133.61-163.91-119.11-190.27-92ZM251.54-4.95c103.51-21.18,186.56-154.97,160.27-286.82-12.59,128.73-95.45,207.15-170.03,218.47-54.04,8.2-42.75,79.09,9.76,68.35Z"/>
  </g>
  <g>
    <path class="cls-3" d="M25.48,31.51l.55,7.86c-.87.24-2.21.6-4,1.07-1.8.52-3.13.91-4.01,1.14l-1.19,17.94c-.24,3.57-1.15,5.93-2.75,7.07-.3.19-.57.36-.82.5-2.12,1.05-5.85,1.57-11.18,1.57-.07-1.86-.68-4.5-1.83-7.93,2.75.14,4.99.21,6.7.21.86-.09,1.35-.57,1.45-1.43l1.04-15.65-7.86,2.07-1.59-8.36c2.41-.48,5.75-1.21,10.01-2.22l.87-13.22H2.16l.53-8.08h8.72L12.32.43h8.43l-.9,13.65h7l-.53,8.08h-7l-.73,11.08,6.9-1.72ZM62.64,1.36l6.45,6.22c-2.34.86-4.15,1.45-5.41,1.79-.67,19.53-.12,33.56,1.65,42.09.79,3.81,1.85,6.96,3.16,9.43-2.45,1.81-4.73,4.12-6.82,6.93-.26.38-.5.74-.71,1.07-3.88-8.34-5.75-21.84-5.61-40.52.03-4.81.19-10.5.49-17.08-.48.1-1.16.24-2.03.43-1.4.33-2.47.55-3.19.64l-3.59,54.31h-7.79l3.51-53.1c-2.5.29-4.27.48-5.33.57l-.68,10.22c-1.35,19.63-5.4,34.4-12.15,44.31-.94-1.57-2.59-3.05-4.92-4.43-.51-.29-.97-.52-1.38-.71,5.66-8.48,9.11-21.01,10.35-37.59.04-.57.08-1.17.12-1.79l1.24-18.72,6.31,1.86c11.43-1.43,20.21-3.41,26.33-5.93Z"/>
    <path class="cls-3" d="M92.64.5l7.9,2.64c-2.43,5.1-5.01,9.79-7.72,14.08l-3.39,51.24h-8.29l2.56-38.66c-2.17,2.57-4.35,4.88-6.53,6.93-.91-2.86-2.15-5.67-3.73-8.43-.08-.19-.17-.33-.26-.43,6.23-5.57,11.73-12.72,16.5-21.44,1.13-2,2.12-3.98,2.96-5.93ZM122.2,58.17h18.87l-.54,8.15h-47.17l.54-8.15h19.44l.96-14.58h-15.44l.54-8.22h15.44l.84-12.72h-17.79l.54-8.22h20.8c-3.07-2.52-6.97-5.19-11.69-8L113.74.21c6.26,3.34,11.28,6.62,15.07,9.86.27.29.51.52.74.71l-3.46,3.64h16.79l-.54,8.22h-17.79l-.84,12.72h15.79l-.54,8.22h-15.79l-.96,14.58Z"/>
    <path class="cls-3" d="M161.99,38.88l6.22,5.43c-4.35,8.15-8.89,15.94-13.62,23.37l-7.29-5.43c5.25-7.29,10.15-15.08,14.69-23.37ZM165.75,27.37l-5.48,7.22c-2.6-2.48-6.6-4.95-12.01-7.43-.23-.09-.44-.19-.62-.29l5-6.5c5.9,2.19,10.21,4.48,12.91,6.86.09.05.16.1.21.14ZM171.05,7.86l-5.55,7.15c-2.36-2.48-6.15-4.93-11.38-7.36-.37-.19-.72-.36-1.04-.5l5.22-6.5c5.57,2.29,9.77,4.65,12.61,7.07.04.1.09.14.13.14ZM174.05,42.38l.45-6.79h7.79l-.47,7.15c-.57,8.67-2.93,15.51-7.07,20.51-1.65,1.95-3.53,3.69-5.63,5.22-1.03-1.76-2.7-3.5-5.01-5.22-.27-.19-.52-.36-.75-.5,6.09-4.14,9.58-10.17,10.49-18.08.09-.71.17-1.48.22-2.29ZM170.6,9.15h17.72l.58-8.72h8.86l-.58,8.72h19.44l-.51,7.72h-23.73c-2.35,3.81-4.06,6.57-5.12,8.29,4.58-.09,9.19-.24,13.82-.43-.31-.33-.78-.88-1.39-1.64-.93-1.1-1.59-1.86-1.99-2.29l6.95-3.57c4.73,4.76,8.31,9.36,10.74,13.79.34.57.62,1.1.83,1.57l-7.55,4c-.45-1.19-1.25-2.76-2.4-4.72-10.38.62-22.38,1.24-36,1.86l-.32-8.15c.86-.05,2.27-.07,4.22-.07,1.81-.05,3.2-.07,4.15-.07,2.07-3.95,3.48-6.81,4.21-8.58h-12.43l.51-7.72ZM184.6,65.53l1.94-29.3h7.57l-1.94,29.3h-7.57ZM206,60.67h1.14c.43-.05.75-.14.95-.29.3-.24.56-.86.77-1.86.11-1,.34-3.33.68-7,1.71,1.53,3.57,2.62,5.57,3.29-.47,4.24-.94,7.07-1.42,8.5-.57,1.48-1.46,2.57-2.65,3.29-1.14.67-2.5,1-4.07,1h-3.72c-2.09-.05-3.72-.67-4.88-1.86-.93-1-1.35-3.05-1.24-6.15.03-.48.06-.98.1-1.5l1.49-22.51h7.93l-1.5,22.73c-.08,1.14-.07,1.81.01,2,.18.19.46.31.83.36Z"/>
    <path class="cls-3" d="M256.96,60.53h29.3l-.42,6.29h-66.53l.42-6.29h28.94l.17-2.57h-22.44l.37-5.65h22.44l.16-2.36h-20.94l1.24-18.72h50.52l-1.24,18.72h-21.3l-.16,2.36h22.73l-.37,5.65h-22.73l-.17,2.57ZM288.61,22.8l-.41,6.22h-66.25l.41-6.22h66.25ZM280.45,2.5l-1.2,18.08h-47.59l1.2-18.08h47.59ZM236.89,45.24h12.79l.17-2.5h-12.79l-.17,2.5ZM237.52,35.8l-.17,2.57h12.79l.17-2.57h-12.79ZM270.76,16.15l.16-2.43h-30.37l-.16,2.43h30.37ZM271.2,9.43l.16-2.36h-30.37l-.16,2.36h30.37ZM270.84,45.24l.17-2.5h-12.86l-.17,2.5h12.86ZM271.29,38.38l.17-2.57h-12.86l-.17,2.57h12.86Z"/>
    <path class="cls-3" d="M375.37,53.1l-.38,5.79h-28.08l-.15,2.29c-.2,2.95-1.13,4.91-2.82,5.86-.55.33-1.14.6-1.77.79-2.28.62-6.78.93-13.5.93-.34-2-1.18-4.19-2.5-6.57,4.22.24,7.63.29,10.21.14,1.16-.24,1.79-.71,1.88-1.43l.13-2h-28.01l.38-5.79h28.01l.2-3.07h-23.73l.38-5.79h23.73l.18-2.72c-6.36.29-13.03.38-20.03.29-.07-1.81-.45-3.64-1.14-5.5,20.68,0,35.98-.83,45.9-2.5l4.89,5c-6.17,1-13.19,1.76-21.09,2.29l-.21,3.14h24.3l-.38,5.79h-24.3l-.2,3.07h28.08ZM321.99,16.29l-.6,9.15h-8.08l1.07-16.22h10.65c-.7-1.67-1.87-3.74-3.52-6.22l7.77-3c2.16,2.67,3.73,5.22,4.71,7.65l-3.61,1.57h11.15l.59-8.93h8.72l-.59,8.93h11.08l-3.76-1.43c2.82-3.05,4.87-5.6,6.15-7.65l8.9,2.64c-2.15,2.29-4.39,4.43-6.71,6.43h11.93l-1.07,16.22h-8.43l.6-9.15h-46.95ZM364.88,33.3h-41.02l.94-14.15h41.02l-.94,14.15ZM332.53,24.44l-.25,3.72h24.44l.25-3.72h-24.44Z"/>
    <path class="cls-3" d="M405.63,31.01l.56,7.79c-.58.19-1.46.45-2.62.79-2,.62-3.5,1.07-4.52,1.36l-1.22,18.51c-.24,3.62-1.16,6.03-2.76,7.22-.2.19-.4.33-.6.43-2.03,1.1-5.44,1.62-10.25,1.57-.08-2.38-.62-5.07-1.61-8.08,2.71.14,4.71.17,6,.07.77-.09,1.2-.5,1.3-1.21l1.07-16.15c-2.04.57-4.39,1.21-7.06,1.93l-1.31-8.29c1.01-.19,2.75-.6,5.23-1.21,1.65-.43,2.88-.74,3.71-.93l.84-12.65h-7.65l.53-8h7.65l.91-13.72h7.93l-.91,13.72h6.65l-.53,8h-6.65l-.69,10.5,6.04-1.64ZM434.07,60.1h16.01l-.43,6.5h-39.16l.43-6.5h15.44l.3-4.5h-12.15l.42-6.29h12.15l.28-4.29-11.83.64-.26-5.79c-2,12.29-5.31,21.63-9.93,28.01-1.05-1.48-2.74-2.93-5.07-4.36-.41-.24-.76-.43-1.03-.57,5.15-7.34,8.37-18.53,9.65-33.59.08-1.29.18-2.69.28-4.22l1.46-22.15h41.23l-1.26,19.08h-33.44l-.25,3.72h34.3l-.45,6.79h-9c4.38,4.29,7.43,8.03,9.12,11.22l-5.85,3.07c-1.02-1.81-1.56-2.74-1.6-2.79l-8.32.5-.31,4.72h12.58l-.42,6.29h-12.58l-.3,4.5ZM415.39,39.02l5.3-.14c1.3-2.38,2.34-4.48,3.13-6.29h-7.5c-.14,1.38-.45,3.53-.93,6.43ZM443.1,10h-25.15l-.33,5h25.15l.33-5ZM441.11,32.59h-9.15c-1.18,1.95-2.48,3.98-3.9,6.07,2.24-.05,5.85-.17,10.81-.36-1.33-1.43-2.32-2.45-2.94-3.07l5.18-2.64Z"/>
    <path class="cls-3" d="M524.18,13.79h-13.08c-.27.43-1.47,2.33-3.59,5.72h14.58l-2.62,39.66c-.24,3.67-1.29,6.15-3.14,7.43-.35.24-.72.45-1.11.64-2.3.95-6.55,1.43-12.74,1.43-.2-2-.87-4.46-2.01-7.36h-17.87l-.26,4h-7.72l1.52-23.01h28.73l-1.2,18.15c1.71.05,3.62.07,5.71.07.97-.29,1.53-.76,1.67-1.43l1.48-22.44c-1.13,1.95-3.15,2.93-6.05,2.93h-5.93c-3.62,0-5.85-.81-6.7-2.43-.54-1.14-.73-2.98-.57-5.5l.31-4.72h-5.93c-.71,4.96-2.4,8.55-5.07,10.79-2.32,2-5.81,3.53-10.45,4.57-.51-1.72-1.44-3.41-2.81-5.07l-2.07,31.3h-8.29l3.24-49.02h13.08c-.38-1.52-1.01-3.43-1.91-5.72h-13.22l.52-7.93h27.16l.36-5.43h8.86l-.36,5.43h28.01l-.52,7.93ZM470,26.94l-.61,9.22c4.68-.9,7.71-2.45,9.1-4.65.69-1.14,1.2-2.67,1.52-4.57h-10ZM484.71,19.51h13.22c1.95-3.57,2.98-5.48,3.09-5.72h-18.29c1.06,2.62,1.73,4.53,1.98,5.72ZM496.16,54.95l.41-6.15h-13.15l-.41,6.15h13.15ZM512.87,31.37l.29-4.43h-12.15l-.31,4.65c-.07,1,.16,1.55.68,1.64.19.05.42.07.71.07h3.79c.76,0,1.27-.4,1.51-1.21.18-.57.36-1.5.54-2.79,1.14.81,2.78,1.5,4.94,2.07Z"/>
    <path class="cls-3" d="M586.63,44.16l6.62,2.57c-2.53,4.34-5.54,8.12-9.04,11.36,1.33,2.19,2.9,3.31,4.71,3.36,1.1,0,1.88-.74,2.36-2.22.36-1.1.68-2.76.97-5,1.51,1.67,3.3,3,5.38,4-1.08,4.86-2.57,7.93-4.47,9.22-1.29.81-3.06,1.21-5.3,1.21-3.95-.05-7.18-2-9.69-5.86-3.24,2.14-7.04,4.07-11.39,5.79-.88-1.76-2.29-3.62-4.2-5.57,4.88-1.76,9.1-3.95,12.65-6.57-1.19-3.67-2.04-7.76-2.55-12.29h-8.29c-.1.81-.28,1.74-.54,2.79,4.01,2.81,6.76,5.05,8.27,6.72l-5.03,5.79c-1.15-1.33-2.92-3-5.31-5-2.37,6.29-5.92,10.98-10.65,14.08-.92-2-2.23-3.76-3.94-5.29-.23-.14-.43-.29-.61-.43,4.92-3.14,8.19-8.53,9.79-16.15.15-.81.3-1.64.45-2.5h-4.57l.22-3.29-3.21,4.29c-.34-1.33-1.36-4.24-3.07-8.72l-2.13,32.16h-7.72l1.79-27.01c-2.36,6.1-4.61,10.7-6.77,13.79-.5-1.81-1.55-4.29-3.15-7.43,3.67-5.05,6.88-12.17,9.63-21.37.36-1.14.67-2.24.93-3.29h-7.29l.52-7.86h7.86l1-15.08h7.72l-1,15.08h6.5c-.4-.43-.89-.9-1.48-1.43l3.53-4.72,1.15.93c1.86-3.67,3.26-6.81,4.2-9.43l6.34,2.5c-.74,1.1-1.83,2.81-3.27,5.15-1.55,2.53-2.67,4.29-3.35,5.29.49.57,1.04,1.21,1.66,1.93,1.75-2.72,3.15-5.1,4.19-7.15l4.77,2.43c.21-4.57.39-8.08.55-10.5h7.72c-.32,4.1-.58,8.08-.79,11.93l2.28-3.07,1.16.86c1.86-3.57,3.25-6.72,4.2-9.43l6.34,2.5c-4.09,6.38-6.32,9.86-6.69,10.43l1.8,1.93c1.87-3,3.26-5.36,4.18-7.07l5.74,2.93c-4.21,6-7.74,10.77-10.59,14.29l4.38-.29c-.31-1.1-.65-2.1-1.02-3l4.98-1.79c1.78,4.1,2.8,7.72,3.07,10.86l-5.29,2.22c-.18-1.62-.31-2.57-.38-2.86l-5.48.71c2.33,1.57,4.08,3.1,5.27,4.57l-1.51,1.29h5.57l-.44,6.72h-10.22ZM552.91,37.45h19.08c-.03-.95-.12-2.55-.26-4.79l-5.13,2c-.07-1.14-.11-1.88-.14-2.22-1.68.19-4.15.48-7.42.86-2.79.33-4.83.57-6.12.71l-.72-6.43,2.3-.14c2.19-2.86,3.79-5.03,4.79-6.5-1.09-1.48-2.79-3.26-5.08-5.36l-.51,7.72h-6.65l-.21,3.14c1.5,2.48,3.52,6.15,6.06,11.01ZM564.35,23.3l5.03-1.5c1.1,2.76,1.85,5.48,2.25,8.15-.15-5.72-.11-11.31.11-16.79-4.3,6-7.77,10.58-10.41,13.72l3.95-.29c-.38-1.52-.68-2.62-.93-3.29ZM579.02,26.37l1.58-.14c2.13-2.67,3.48-4.43,4.07-5.29-1.49-1.95-3.31-3.93-5.47-5.93-.19,3.57-.25,7.36-.18,11.36ZM579.5,37.45h6.22c-1.08-1-2.19-1.9-3.32-2.72l3.48-2.86c-.86.1-2.14.24-3.82.43-1.2.14-2.09.24-2.66.29l-.3-2c.04,2.29.17,4.57.4,6.86ZM586.2,44.16h-5.93c.29,2.14.69,4.36,1.2,6.65,2.11-2.38,3.69-4.6,4.73-6.65Z"/>
  </g>
</svg>