<?xml version="1.0" encoding="UTF-8"?>
<svg id="_圖層_1" data-name="圖層_1" xmlns="http://www.w3.org/2000/svg" version="1.1" viewBox="0 0 803.81 86.54">
  <!-- Generator: Adobe Illustrator 29.6.1, SVG Export Plug-In . SVG Version: 2.1.1 Build 9)  -->
  <defs>
    <style>
      .st0 {
        fill: #ed781e;
      }
    </style>
  </defs>
  <path class="st0" d="M31.22,3.07l9.09,2.91c-2.77,6.13-5.76,11.78-8.95,16.95l-3.76,56.82h-9.44l2.79-42.21c-2.05,2.53-4.03,4.76-5.93,6.7-.84-2.8-2.29-6.05-4.36-9.77-.09-.21-.19-.38-.29-.48,6.77-6.35,12.71-14.5,17.84-24.45,1.11-2.21,2.12-4.36,3.01-6.46ZM44.07,39.47l9.47,2.02c-3.19,10.81-7.36,19.75-12.51,26.8-.18.32-.36.59-.54.81-2.35-1.94-5.05-3.71-8.12-5.33,4.84-5.6,8.73-13.69,11.69-24.29ZM79.3,26.63h-11.06l-2.8,42.29c-.28,4.2-1.38,7.02-3.3,8.47-.39.27-.76.48-1.09.65-2.62,1.29-6.72,1.94-12.31,1.94-.26-3.34-1.17-6.65-2.73-9.93,2.31.05,5.03.08,8.15.08.92-.11,1.44-.56,1.54-1.37l2.79-42.13h-9.6c-2.75,4.95-5.61,9.15-8.58,12.59-2.42-2.53-4.91-4.68-7.48-6.46,6.12-6.35,11.22-15.52,15.3-27.52.26-.75.5-1.48.71-2.18l9.47,2.1c-1.09,3.5-2.66,7.61-4.69,12.35h28.41l1.55-.32,6.86,1.29c-1.56,7.26-3.16,13.67-4.82,19.21l-8.22-1.45c.76-3.34,1.4-6.54,1.93-9.6ZM70.23,41.65l8.91-2.99c3.51,7.96,5.82,16.06,6.95,24.29.15.97.25,1.86.31,2.66l-9.66,3.23c-.41-6.89-2.12-14.74-5.14-23.57-.45-1.29-.91-2.5-1.37-3.63Z"/>
  <path class="st0" d="M170.97,21.87h-44.23c-.87,1.72-2.11,3.9-3.74,6.54h38.26l-2.7,40.84c-.27,4.04-1.33,6.75-3.2,8.15-.56.32-1.12.62-1.67.89-2.28,1.08-6.75,1.61-13.42,1.61h-1.37c-.28-3.07-1.04-6.24-2.28-9.52,2.79.16,6.25.24,10.4.24,1.2-.27,1.85-.81,1.96-1.61l.33-5h-29.78l-1.05,15.82h-9.77l2.38-35.92c-3.81,3.87-7.65,7.08-11.53,9.6-1.25-2.21-3.24-4.71-5.96-7.51,8.71-5.65,16.1-13.69,22.18-24.13h-18.16l.61-9.2h22.28c1.71-3.87,3.01-7.21,3.89-10.01l10.02,2.26c-.98,2.58-2.04,5.17-3.18,7.75h40.35l-.61,9.2ZM120.06,55.85h29.78l.35-5.33h-29.78l-.35,5.33ZM150.74,42.29l.35-5.25h-29.78l-.35,5.25h29.78Z"/>
  <path class="st0" d="M211.3,56.42c-5.65,2.48-11.41,4.94-17.28,7.38-5.87,2.45-11.23,4.64-16.09,6.58l-2.62-10.49c1.6-.54,3.34-1.13,5.24-1.78,1.9-.65,3.9-1.4,6-2.26l1.58-48.26,10.28-.4-1.5,44.71c2.1-.91,4.25-1.79,6.43-2.62,2.18-.83,4.32-1.68,6.42-2.54l1.54,9.69ZM243.99,79.66c-.72-1.35-1.59-2.81-2.61-4.4-1.02-1.59-2.15-3.24-3.38-4.96-1.23-1.72-2.53-3.48-3.89-5.29-1.36-1.8-2.76-3.56-4.21-5.29-3.35,4.36-7.19,8.19-11.49,11.5-4.31,3.31-9.29,6.17-14.93,8.6-.34-.54-.81-1.2-1.4-1.98-.59-.78-1.23-1.59-1.9-2.42-.67-.83-1.37-1.63-2.1-2.38-.73-.75-1.37-1.4-1.93-1.94,6.73-2.47,12.45-5.6,17.16-9.36,4.71-3.77,8.69-8.27,11.91-13.52,3.23-5.25,5.86-11.26,7.89-18.04,2.03-6.78,3.71-14.42,5.03-22.92l10.75.97c-1.42,8.5-3.14,16.21-5.16,23.12-2.02,6.91-4.59,13.2-7.7,18.85,1.6,1.78,3.23,3.61,4.88,5.49,1.65,1.88,3.23,3.75,4.75,5.61,1.52,1.86,2.91,3.66,4.16,5.41,1.26,1.75,2.32,3.35,3.19,4.8l-9.01,8.15ZM215.8,37.29c-.39-1.45-.97-3.05-1.74-4.8-.77-1.75-1.65-3.52-2.63-5.33-.98-1.8-2.04-3.6-3.15-5.41-1.12-1.8-2.25-3.46-3.38-4.96l9.18-4.52c1.24,1.51,2.46,3.12,3.63,4.84,1.18,1.72,2.29,3.46,3.33,5.21,1.04,1.75,1.96,3.46,2.77,5.13.8,1.67,1.48,3.23,2.03,4.68l-10.03,5.17Z"/>
  <path class="st0" d="M336.56,18.64h-33.25l-.86,12.99,1.82-1.86c12.28,6.3,21.18,11.73,26.69,16.3.15.11.28.22.38.32l-7.86,9.04c-4.26-3.98-11.46-8.99-21.61-15.01l-2.59,39.22h-10.57l4.04-61.02h-29.86l.66-9.93h73.69l-.66,9.93Z"/>
  <path class="st0" d="M365.08,20.58l9.2,3.63c-2.81,4.25-6.05,8.47-9.71,12.67l-2.85,43.1h-9.85l2.13-32.28c-2.8,2.53-5.2,4.57-7.19,6.13-2.24-3.6-4.28-6.46-6.13-8.55,7.31-4.84,13.93-10.98,19.86-18.4,1.7-2.15,3.21-4.25,4.53-6.3ZM363.11,2.74l9.27,3.87c-5.84,7-12.78,13.45-20.81,19.37-1.19.86-2.32,1.64-3.38,2.34-1.76-3.5-3.39-6.16-4.88-7.99,5.94-3.6,11.46-8.18,16.56-13.72,1.28-1.4,2.36-2.69,3.24-3.87ZM419.41,30.19l-.61,9.28h-11.3l-1.92,29.05c-.28,4.25-1.38,7.07-3.3,8.47-.62.43-1.29.78-2.01,1.05-2.87,1.08-8.26,1.61-16.17,1.61-.26-3.34-1.04-6.67-2.32-10.01,4.88.27,8.75.32,11.61.16,1.35-.16,2.09-.67,2.2-1.53l1.91-28.81h-24.37l.61-9.28h45.68ZM418.82,7.43l-.62,9.36h-40.11l.62-9.36h40.11Z"/>
  <path class="st0" d="M446.07,45.68l-1.36,20.58,11.99-1.94.02,8.23c-8.94,1.72-19.47,3.58-31.6,5.57l-1.35-8.8c1.46-.16,5.59-.73,12.38-1.69l1.45-21.95h-11.3l.55-8.31h11.3l.4-6.05h-7.67l.17-2.58-.6.56c-.57-1.08-1.42-2.27-2.55-3.59-1.12-1.32-2.15-2.27-3.08-2.86,6.48-5.27,11.69-11.94,15.61-20.02h7.83c6.26,5.44,10.68,10.22,13.25,14.37l-5.71,7.02-.47,7.1h-8.31l-.4,6.05h10.73l-.55,8.31h-10.73ZM433.03,48.83c1.31,5.44,2.05,10.14,2.21,14.12l-6.91,1.94c.04-3.82-.59-8.61-1.88-14.37l6.57-1.69ZM453.85,23.16c-2.78-4.41-5.65-8.12-8.63-11.14-2.76,4.25-5.56,7.96-8.4,11.14h17.03ZM445.79,62.06c1.91-5.27,3.24-9.93,3.99-13.96l7.31,1.78c-.45,1.13-1.07,2.7-1.85,4.72-.78,2.02-1.46,3.79-2.05,5.33-.59,1.53-1.13,2.81-1.63,3.83l-5.78-1.69ZM498.65,27.93h-14.04l1.67-25.18h-9.52l-1.67,25.18h-14.12l-3.43,51.81h9.44l1.12-16.95h18.56l-.41,6.21c-.04.54-.16.92-.36,1.13-.2.22-.6.32-1.19.32h-1.21c-.54,0-1.17-.01-1.89-.04-.72-.03-1.49-.05-2.3-.08-.81-.03-1.61-.07-2.41-.12.51,1.24,1.03,2.72,1.56,4.44.53,1.72.86,3.25.99,4.6,2.69,0,5.01-.09,6.96-.28,1.95-.19,3.68-.66,5.18-1.41,1.45-.75,2.5-1.79,3.15-3.11.65-1.32,1.05-3.08,1.2-5.29l2.73-41.24ZM473.61,22.11c-.31-.97-.71-2.08-1.19-3.35-.48-1.26-1-2.58-1.55-3.95-.56-1.37-1.12-2.74-1.71-4.12-.58-1.37-1.16-2.65-1.72-3.83l-7.44,2.66c.51,1.29,1.05,2.66,1.62,4.12.58,1.45,1.11,2.88,1.61,4.28.5,1.4.96,2.76,1.38,4.08.42,1.32.76,2.49,1.02,3.51l7.97-3.39ZM468.63,54.8l.37-5.65h18.56l-.37,5.65h-18.56ZM488.41,36.32l-.36,5.41h-18.56l.36-5.41h18.56ZM495.13,6.78c-.46,1.24-1.03,2.57-1.72,3.99-.69,1.43-1.4,2.85-2.14,4.28-.74,1.43-1.49,2.81-2.25,4.16-.76,1.35-1.5,2.56-2.22,3.63l6.83,2.91c1.37-2.04,2.87-4.48,4.48-7.3,1.61-2.82,3.13-5.69,4.56-8.6l-7.55-3.07Z"/>
  <path class="st0" d="M543.44,36.64h-21.79l-2.86,43.26h-9.77l4.9-74.01h31.56l-2.03,30.75ZM522.14,29.14h12.59l.31-4.68h-12.59l-.31,4.68ZM535.77,13.4h-12.59l-.29,4.44h12.59l.29-4.44ZM560.07,68.28h-22.84l-.3,4.6h-9.2l2.02-30.59h32.04l-1.72,25.99ZM552.05,50.44h-13.64l-.64,9.69h13.64l.64-9.69ZM583.56,5.89l-4.12,62.31c-.3,4.47-1.49,7.45-3.58,8.96-.56.32-1.12.62-1.67.89-2.93,1.24-8.38,1.86-16.34,1.86-.12-3.01-.98-6.32-2.57-9.93-.05-.05-.07-.11-.07-.16,4.34.27,8.34.32,12.01.16,1.31-.32,2.05-.97,2.23-1.94l2.07-31.31h-22.36l2.04-30.83h32.36ZM559.02,29.22h12.99l.31-4.76h-12.99l-.31,4.76ZM573.06,13.32h-12.99l-.3,4.52h12.99l.3-4.52Z"/>
  <path class="st0" d="M613.63,58.92l-.65,9.77c4.01,1.18,10.08,1.78,18.2,1.78,18.72,0,30.38-.11,34.97-.32-1.48,2.05-2.68,4.76-3.61,8.15h-31.88c-10.6,0-18.28-1.08-23.03-3.23-3.55-1.67-6.43-4.12-8.63-7.34-1.59,5.27-3.8,9.5-6.65,12.67-1.58-2.96-3.32-5.19-5.21-6.7,3.5-4.04,5.83-11.3,7.01-21.79.07-1.08.18-2.26.32-3.55h7.83c-.31,3.07-.67,6.08-1.08,9.04.82,2.21,2.11,4.36,3.85,6.46l1.24-18.81h-15.33l.47-7.1h37.05l-.47,7.1h-13.48l-.45,6.78h11.86l-.47,7.1h-11.86ZM626.98,5.97l-1.8,27.28h-29.7l1.8-27.28h29.7ZM616.49,26.63l.27-4.12h-11.78l-.27,4.12h11.78ZM617.17,16.38l.26-3.87h-11.78l-.26,3.87h11.78ZM636.2,55.61l7.9,2.58c-3.56,4.25-8.14,7.99-13.74,11.22-.56.27-1.06.54-1.51.81-1.69-2.04-3.67-3.93-5.92-5.65,5.83-2.69,10.25-5.68,13.26-8.96ZM632.11,17.51h10.57c.19-.48.49-1.29.89-2.42.33-.91.59-1.59.78-2.02h-14.53l.45-6.86h37.85l-.45,6.86h-14.45l-2.31,4.44h14.04l-2.48,37.53h-32.85l2.48-37.53ZM653.79,48.34l.26-3.95h-15.01l-.26,3.95h15.01ZM654.47,38.09l.25-3.79h-15.01l-.25,3.79h15.01ZM655.15,27.93l.25-3.79h-15.01l-.25,3.79h15.01ZM647.62,58.68l7.01-3.55c4.58,3.18,8.23,6.48,10.97,9.93.15.22.27.38.37.48l-7.29,4.12c-2.57-3.5-5.87-6.86-9.91-10.09-.41-.32-.79-.62-1.15-.89Z"/>
  <path class="st0" d="M698.09,57.14h-15.01l-.45,6.78h-8.64l3.57-53.91h23.65l-3.12,47.13ZM691.89,19.05h-6.3l-1.92,29.05h6.3l1.92-29.05ZM699.91,77.24l-6.8-3.39c3.25-4.36,5.62-10.54,7.12-18.56l7.13,2.1c-1.91,9.31-4.39,15.93-7.45,19.85ZM730.82,44.23h17.84c0,.05-.14,1.24-.4,3.55-1.6,15.28-3.23,24.48-4.89,27.6-.3.43-.56.81-.8,1.13-1.4,1.61-3.27,2.61-5.6,2.99-1.91.32-4.76.43-8.58.32.09-2.96-.51-5.76-1.79-8.39,1.87.22,3.93.32,6.19.32,1.13-.05,1.99-.4,2.57-1.05,1.16-1.29,2.34-7.34,3.54-18.16,0-.05,0-.11.01-.16h-35.83l3.07-46.41h42.78l-.56,8.47h-15.58l-.31,4.68h13.32l-.51,7.75h-13.32l-.31,4.76h13.32l-.5,7.59h-13.32l-.33,5ZM709.24,56.9l6.45-1.05c1.08,5.65,1.33,11.27.74,16.87l-6.85,1.05c.65-4.95.54-10.57-.34-16.87ZM713.15,39.22l-.33,5h8.96l.33-5h-8.96ZM722.61,31.64l.31-4.76h-8.96l-.31,4.76h8.96ZM723.75,14.45h-8.96l-.31,4.68h8.96l.31-4.68ZM718.32,56.25l6-1.61c1.83,4.79,2.89,9.55,3.17,14.29l-6.42,1.94c-.07-4.63-.99-9.5-2.75-14.61ZM736.9,64.57l-5.87,2.1c-.5-3.77-1.7-7.61-3.6-11.54l5.29-1.86c1.97,3.55,3.36,7.32,4.18,11.3Z"/>
  <path class="st0" d="M772.2,51.49c-.3-4.41,1.77-8.5,6.22-12.27.8-.75,2.08-1.78,3.83-3.07,3.39-2.47,5.51-4.41,6.36-5.81.6-.91.93-1.86.99-2.82.25-3.77-1.61-6.19-5.57-7.26-1.32-.32-2.77-.48-4.33-.48-4.95.05-9.51,2.23-13.67,6.54l-6.36-6.3c6.25-6.67,13.58-10.03,21.97-10.09,8.29,0,14.05,2.34,17.29,7.02,1.82,2.64,2.6,5.81,2.36,9.52-.24,3.66-2.38,7.1-6.41,10.33-.68.54-1.76,1.35-3.23,2.42-3.61,2.58-5.96,4.68-7.03,6.3-1.25,1.88-1.84,3.87-1.77,5.97h-10.65ZM770.57,60.37h12.75l-.84,12.75h-12.75l.84-12.75Z"/>
</svg>