<?xml version="1.0" encoding="UTF-8"?>
<svg id="_圖層_1" data-name="圖層_1" xmlns="http://www.w3.org/2000/svg" xmlns:xlink="http://www.w3.org/1999/xlink" version="1.1" viewBox="0 0 494.32 288.7">
  <!-- Generator: Adobe Illustrator 29.6.1, SVG Export Plug-In . SVG Version: 2.1.1 Build 9)  -->
  <defs>
    <style>
      .st0 {
        fill: #ed781e;
      }

      .st1 {
        fill: #231815;
      }

      .st2 {
        fill: #fff;
      }

      .st3 {
        fill: url(#_未命名漸層_7);
      }

      .st4 {
        opacity: .1;
      }

      .st5 {
        opacity: .4;
      }

      .st5, .st6 {
        fill: #040000;
      }

      .st6 {
        opacity: .2;
      }

      .st7 {
        fill: #888;
      }
    </style>
    <linearGradient id="_未命名漸層_7" data-name="未命名漸層 7" x1="502.99" y1="239.02" x2="502.99" y2="845.45" gradientUnits="userSpaceOnUse">
      <stop offset="0" stop-color="#fff"/>
      <stop offset=".07" stop-color="#fdf5ef" stop-opacity=".97"/>
      <stop offset=".22" stop-color="#faddc7" stop-opacity=".88"/>
      <stop offset=".43" stop-color="#f5b686" stop-opacity=".73"/>
      <stop offset=".68" stop-color="#ee822e" stop-opacity=".54"/>
      <stop offset=".73" stop-color="#ed781e" stop-opacity=".5"/>
      <stop offset=".73" stop-color="#ed7920" stop-opacity=".5"/>
      <stop offset=".82" stop-color="#f4b280" stop-opacity=".5"/>
      <stop offset=".89" stop-color="#fadcc5" stop-opacity=".5"/>
      <stop offset=".96" stop-color="#fdf5ef" stop-opacity=".5"/>
      <stop offset="1" stop-color="#fff" stop-opacity=".5"/>
    </linearGradient>
  </defs>
  <g>
    <g>
      <polygon class="st0" points="0 110.95 51.71 162.66 51.71 77.35 0 110.95"/>
      <polygon class="st7" points="373.41 0 421.53 48.12 343.97 55.83 373.41 0"/>
      <polygon class="st7" points="0 110.95 51.71 162.66 51.71 77.35 0 110.95"/>
      <polyline class="st5" points="277.03 55.83 306.47 0 354.59 48.12"/>
      <g>
        <path class="st2" d="M24.13,285.2V26.65h377.41c49.23,0,89.29,40.05,89.29,89.29v79.98c0,49.23-40.05,89.29-89.29,89.29H24.13Z"/>
        <path class="st0" d="M401.54,30.15c47.3,0,85.79,38.48,85.79,85.79v79.98c0,47.3-38.48,85.79-85.79,85.79H27.63V30.15h373.91M401.54,23.15H20.63v265.55h380.91c51.24,0,92.79-41.54,92.79-92.79v-79.98c0-51.24-41.54-92.79-92.79-92.79h0Z"/>
      </g>
      <path class="st6" d="M20.63,28.31v91.69h286.51c30.44,0,55.12-24.68,55.12-55.12V28.31H20.63Z"/>
      <path class="st0" d="M0,0v110.95h318.29c30.44,0,55.12-24.68,55.12-55.12V0H0Z"/>
      <g class="st4">
        <polygon class="st2" points="171.64 110.95 282.59 0 204.37 0 93.42 110.95 171.64 110.95"/>
        <polygon class="st2" points="337.55 0 298.44 0 187.5 110.95 226.61 110.95 337.55 0"/>
      </g>
    </g>
    <g>
      <path class="st2" d="M47.47,64.6v5.51h16.81v4.8H25.65v-4.8h16.19v-5.51h-11.75v-4.67h11.75v-5.2h-9.53v-3.91c-1.69,1.16-3.61,2.3-5.77,3.42-1.04-1.81-2.13-3.27-3.28-4.4,4.73-1.93,9.33-4.87,13.79-8.84.38-.36.75-.7,1.11-1.02h-6.03v-5.02h15.57c2.72,4,6.5,7.53,11.35,10.58,2.48,1.57,4.98,2.82,7.49,3.73-1.48,1.57-2.68,3.23-3.59,4.98-1.83-.83-3.74-1.91-5.72-3.24v3.73h-9.76v5.2h11.93v4.67h-11.93ZM33.59,49.93h22.08c-4.2-3.02-7.83-6.34-10.91-9.96-2.99,3.44-6.71,6.76-11.18,9.96Z"/>
      <path class="st2" d="M110.71,45.98h-22c-.18,2.7-.34,4.67-.49,5.91h17.52s-.06.83-.18,2.4c-.62,9.63-1.52,15.67-2.71,18.13-.3.53-.59.98-.89,1.33-1.09,1.16-2.56,1.84-4.39,2.04-.18.03-.34.04-.49.04-1.54.15-4.12.15-7.76,0-.09-1.69-.69-3.41-1.82-5.16-.03-.09-.06-.15-.09-.18,2.13.21,4.67.31,7.63.31,1.03-.03,1.76-.22,2.17-.58,1.15-1.04,2.02-5.45,2.62-13.24h-12.51c-1.66,7.38-5.12,12.99-10.38,16.84-1.3.95-2.69,1.79-4.17,2.53-.8-1.57-2.07-3.1-3.81-4.58,6.12-2.84,10.14-7.33,12.06-13.47.89-2.9,1.46-7.02,1.73-12.36h-12.99v-5.2h17.38v-7.38h5.59v7.38h17.96v5.2Z"/>
      <path class="st2" d="M124.54,33.66l5.06,1.69c-1.24,2.99-2.66,5.91-4.26,8.76v31.82h-5.14v-24.09c-1.36,1.75-2.6,3.19-3.73,4.31-.62-1.69-1.52-3.48-2.71-5.38-.06-.12-.12-.21-.18-.27,3.64-3.38,6.76-7.76,9.36-13.15.59-1.24,1.12-2.47,1.6-3.69ZM147.78,69.04h9.22v5.11h-29.31v-5.11h14.9c1.89-5.93,3.27-12.16,4.12-18.71.09-.59.16-1.14.22-1.64l5.9.93c-1.45,7.2-3.13,13.67-5.06,19.42ZM128.58,41.75h10.69v-7.6h5.45v7.6h11.35v5.16h-27.49v-5.16ZM139.8,66.46l-5.37,1.16c-.15-4.56-.9-9.9-2.26-16-.15-.65-.3-1.26-.44-1.82l4.88-.84c1.66,6.07,2.71,11.67,3.15,16.8,0,.27.01.5.04.71Z"/>
      <path class="st2" d="M171.64,43.4l5.19,2c-1.39,2.34-3.02,4.67-4.88,6.98v23.73h-5.41v-17.78c-1.45,1.39-2.69,2.52-3.73,3.38-1.36-1.98-2.59-3.56-3.68-4.71,3.84-2.67,7.26-6.04,10.24-10.13.86-1.18,1.61-2.34,2.26-3.47ZM169.91,33.58l5.23,2.13c-2.96,3.85-6.53,7.41-10.73,10.67-.62.47-1.21.9-1.77,1.29-1.09-1.93-2.08-3.39-2.97-4.4,3.13-1.98,6-4.5,8.6-7.56.65-.77,1.2-1.48,1.64-2.13ZM201.84,48.69v5.11h-6.21v16c0,2.34-.5,3.9-1.51,4.67-.33.24-.68.43-1.06.58-1.54.59-4.48.89-8.82.89-.27-1.84-.81-3.67-1.64-5.51,2.69.15,4.82.18,6.39.09.74-.09,1.12-.37,1.15-.84v-15.87h-13.39v-5.11h25.1ZM200.69,36.15v5.16h-22.04v-5.16h22.04Z"/>
      <path class="st2" d="M217.05,57.22v11.33l6.52-1.07.31,4.53c-4.85.95-10.57,1.97-17.16,3.07l-1.06-4.84c.8-.09,3.04-.4,6.74-.93v-12.09h-6.21v-4.58h6.21v-3.33h-4.21v-1.42l-.31.31c-.35-.59-.86-1.25-1.53-1.98-.67-.73-1.26-1.25-1.8-1.58,3.37-2.9,5.99-6.58,7.85-11.02h4.3c3.64,2.99,6.24,5.63,7.8,7.91l-2.88,3.87v3.91h-4.57v3.33h5.9v4.58h-5.9ZM210,58.95c.92,2.99,1.49,5.59,1.73,7.78l-3.73,1.07c-.12-2.1-.64-4.74-1.55-7.91l3.55-.93ZM220.51,44.82c-1.69-2.43-3.4-4.47-5.14-6.13-1.36,2.34-2.76,4.39-4.21,6.13h9.36ZM217.49,66.24c.86-2.9,1.42-5.47,1.69-7.69l4.08.98c-.21.62-.49,1.49-.84,2.6-.35,1.11-.67,2.09-.93,2.93-.27.84-.52,1.55-.75,2.11l-3.24-.93ZM231.33,44.24c-.21-.53-.47-1.15-.78-1.84-.31-.7-.64-1.42-1-2.18-.35-.76-.72-1.51-1.09-2.27-.37-.76-.73-1.46-1.09-2.11l-3.99,1.47c.32.71.67,1.47,1.04,2.27.37.8.72,1.58,1.04,2.36.33.77.63,1.52.91,2.24.28.73.51,1.37.69,1.93l4.26-1.87ZM245.3,47.44h-7.72v-13.87h-5.23v13.87h-7.76v28.53h5.19v-9.33h10.2v3.42c0,.3-.05.5-.16.62-.1.12-.32.18-.64.18h-.67c-.3,0-.64,0-1.04-.02-.4-.01-.82-.03-1.26-.04-.44-.01-.89-.04-1.33-.07.33.68.67,1.5,1.02,2.44.35.95.59,1.79.71,2.53,1.48,0,2.75-.05,3.81-.16,1.06-.1,2-.36,2.79-.78.77-.42,1.31-.99,1.62-1.71.31-.73.47-1.7.47-2.91v-22.71ZM239.98,52.06v2.98h-10.2v-2.98h10.2ZM229.78,62.24v-3.11h10.2v3.11h-10.2ZM242.59,35.8c-.21.68-.47,1.42-.8,2.2-.33.79-.67,1.57-1.02,2.36-.35.79-.72,1.55-1.09,2.29-.37.74-.73,1.41-1.09,2l3.86,1.6c.68-1.13,1.41-2.47,2.2-4.02.78-1.56,1.51-3.13,2.19-4.73l-4.26-1.69Z"/>
      <path class="st2" d="M269.69,65.26l-3.64,3.96c-1.06-1.78-2.57-3.96-4.52-6.53-1.33,5.57-3.8,9.84-7.41,12.8-.86-1.3-1.97-2.5-3.33-3.6-.15-.12-.27-.21-.35-.27,4.08-3.05,6.42-8.28,7.01-15.69h-6.39v-4.89h6.56v-5.73h-5.9v-4.8h5.9v-6.49h5.06v6.49h5.68v4.8h-5.68v5.73h6.43v4.89h-6.61l-.09,1.11c2.13,2.19,4.45,4.8,6.96,7.82.12.18.22.31.31.4ZM286.54,70.46h1.55c.35,0,.59-.3.71-.89.15-.71.24-2.21.27-4.49,1.12.83,2.6,1.48,4.43,1.96-.27,3.91-.96,6.34-2.08,7.29-.68.56-1.61.84-2.79.84h-3.02c-2.19,0-3.59-.61-4.21-1.82-.41-.86-.62-2.25-.62-4.18v-7.91h-2.35c-.5,4.53-1.77,7.97-3.81,10.31-1.66,1.87-3.98,3.38-6.96,4.53-.53-1.3-1.4-2.55-2.62-3.73-.12-.12-.22-.22-.31-.31,3.81-1.27,6.33-3.3,7.54-6.09.5-1.24.87-2.81,1.11-4.71h-2.93v-26.09h20.18v26.09h-4.88v7.82c0,.83.15,1.27.44,1.33.09.03.21.04.35.04ZM275.45,39.93v2.67h9.93v-2.67h-9.93ZM275.45,46.91v2.67h9.93v-2.67h-9.93ZM275.45,53.8v2.71h9.93v-2.71h-9.93Z"/>
      <path class="st2" d="M319.62,36.02v4.36h2.44v3.29h-2.44v4.53h-8.34v1.38h8.87v2.98h-8.87v1.33h10.51v3.42h-25.28v-3.42h9.93v-1.33h-7.98v-2.98h7.98v-1.38h-7.89v-2.89h7.89v-1.64h-10.2v-3.29h10.2v-1.42h-7.76v-2.93h7.76v-2.44h4.83v2.44h8.34ZM296.61,75.04l-.35-4.22c9.34-.27,17.9-.56,25.68-.89l-.13,4.04c-13.87.62-22.26.98-25.19,1.07ZM298.6,58.64h21.24v10.4h-21.24v-10.4ZM302.77,61.13v1.51h4.21v-1.51h-4.21ZM302.77,65.04v1.47h4.21v-1.47h-4.21ZM311.29,38.95v1.42h3.81v-1.42h-3.81ZM315.1,45.31v-1.64h-3.81v1.64h3.81ZM315.45,62.64v-1.51h-3.99v1.51h3.99ZM315.45,66.51v-1.47h-3.99v1.47h3.99ZM328.23,39.09v25.6h-4.92v-25.6h4.92ZM331.86,34.46h5.1v35.33c0,2.37-.53,3.96-1.6,4.76-.21.12-.41.24-.62.36-1.51.74-4.07,1.1-7.67,1.07-.21-1.57-.75-3.35-1.64-5.33,1.6.06,3.4.09,5.41.09.65-.06.99-.37,1.02-.93v-35.33Z"/>
    </g>
    <g>
      <path class="st1" d="M98.79,180.27l2.4.9c-.9,3.02-2.27,5.59-4.13,7.73,1.69,1.11,3.61,1.92,5.76,2.44-.88.85-1.64,1.87-2.3,3.05-2.37-.73-4.4-1.74-6.08-3.05-1.6,1.22-3.46,2.23-5.57,3.05-.34-.73-.92-1.6-1.73-2.63v2.66h-3.75v-2.66c-5.48.51-8.95.83-10.4.96l-.29-3.37c.21-.02.55-.04,1.02-.06.81-.04,1.42-.09,1.82-.13v-9.98h-2.56v-3.08h29.16v3.08h-15.01v12.03c1.75-.58,3.3-1.37,4.64-2.37-1.15-1.37-2.14-2.99-2.98-4.88l2.14-.58h-3.01v-2.98h10.21l.64-.13ZM98.38,164.77v10.1h-21.54v-10.1h21.54ZM83.4,179.18h-4.26v1.31h4.26v-1.31ZM79.14,183.22v1.38h4.26v-1.38h-4.26ZM79.14,187.29v1.6c2.05-.15,3.47-.26,4.26-.32v-1.28h-4.26ZM94.47,168.62v-1.35h-13.89v1.35h13.89ZM94.47,172.38v-1.38h-13.89v1.38h13.89ZM96.52,183.38h-4.45c.51,1.11,1.25,2.18,2.21,3.21.96-1.03,1.71-2.1,2.24-3.21Z"/>
      <path class="st1" d="M123.11,186.14v3.98h12.13v3.46h-27.88v-3.46h11.68v-3.98h-8.48v-3.37h8.48v-3.75h-6.88v-2.82c-1.22.83-2.6,1.66-4.16,2.47-.75-1.3-1.54-2.36-2.37-3.18,3.41-1.39,6.73-3.52,9.96-6.38.28-.26.54-.5.8-.74h-4.35v-3.62h11.24c1.96,2.89,4.69,5.43,8.19,7.63,1.79,1.13,3.6,2.03,5.41,2.69-1.07,1.13-1.93,2.33-2.59,3.59-1.32-.6-2.7-1.38-4.13-2.34v2.69h-7.04v3.75h8.61v3.37h-8.61ZM113.09,175.55h15.94c-3.03-2.18-5.65-4.58-7.87-7.19-2.16,2.48-4.84,4.88-8.07,7.19Z"/>
      <path class="st1" d="M169.6,169.3h-13.09c-.09.3-.21.75-.38,1.35-.24.73-.4,1.26-.48,1.6h12.45v22.17h-3.97v-1.67h-18.92v1.67h-3.78v-22.17h10.11c.26-1.26.43-2.25.51-2.95h-11.97v-3.69h29.51v3.69ZM145.21,175.87v13.28h3.33v-13.28h-3.33ZM157.09,178.12v-2.25h-5.02v2.25h5.02ZM157.09,183.67v-2.5h-5.02v2.5h5.02ZM152.06,186.72v2.44h5.02v-2.44h-5.02ZM164.13,189.15v-13.28h-3.55v13.28h3.55Z"/>
      <path class="st1" d="M193.63,168.78h9.25s-.01.62-.03,1.8c-.3,10.18-.69,16.51-1.18,18.99-.23,1.24-.55,2.12-.96,2.63-.7.94-1.63,1.53-2.78,1.76-.13.02-.25.04-.35.06-1,.13-2.72.15-5.15.06-.06-1.24-.46-2.46-1.18-3.66-.04-.06-.08-.12-.1-.16,1.43.13,3.06.19,4.9.19.6-.02,1.08-.2,1.44-.55.68-.75,1.17-4.2,1.47-10.36.09-1.97.17-4.37.26-7.22h-7.01c-.94,2.1-1.9,3.83-2.88,5.2-.53-.49-1.38-1.11-2.53-1.86v15.37h-8.77v2.37h-3.52v-24.38h3.71c.49-1.9.8-3.67.93-5.29l4.26.58c-.51,1.54-1.08,3.11-1.7,4.72h5.09v5.29c1.88-2.76,3.35-6.28,4.42-10.55l3.71.83c-.21.96-.64,2.35-1.28,4.17ZM183.23,177.77v-5.32h-5.22v5.32h5.22ZM178.01,187.58h5.22v-6.45h-5.22v6.45ZM197.44,183.76l-3.33,2.05c-.85-1.8-2.37-4.33-4.55-7.6l3.04-1.73c2.43,3.38,4.04,5.81,4.83,7.28Z"/>
      <path class="st1" d="M206.93,176.64h30.15v4.23h-30.15v-4.23Z"/>
      <path class="st1" d="M246.13,163.78l3.62,1.06c-.75,2.2-1.58,4.33-2.5,6.38v23.16h-3.71v-16.42c-.64.98-1.31,1.88-2.02,2.69-.38-1.22-.97-2.54-1.76-3.98-.04-.09-.09-.16-.13-.22,2.39-2.76,4.36-6.38,5.92-10.88.21-.62.41-1.22.58-1.8ZM252.34,177.67v11.26h-3.39v-21.01h3.39v3.43c2.33-1.86,4.08-4.23,5.25-7.12.06-.17.13-.33.19-.48l3.49.83c-.28.73-.65,1.55-1.12,2.47h10.31v3.11h-2.24c-.92,1.99-2.13,3.69-3.65,5.1,2.03.98,4.26,1.68,6.69,2.08-.64.66-1.34,1.7-2.11,3.11-2.73-.58-5.23-1.57-7.49-2.98-2.05,1.26-4.44,2.29-7.17,3.08-.66-1.11-1.38-2.07-2.14-2.89ZM270.58,184.98h-5.73c1.49,2.16,3.4,3.91,5.73,5.26.32.17.62.33.9.48-.92.79-1.75,1.74-2.5,2.85-2.03-1.28-3.83-2.97-5.41-5.07v6h-3.65v-5.93c-1.88,2.2-4.02,3.9-6.43,5.1-.7-1.18-1.5-2.15-2.4-2.92,2.73-1.07,5.08-2.76,7.04-5.07.21-.26.41-.49.58-.71h-5.51v-3.27h6.72v-2.53h3.65v2.53h7.01v3.27ZM252.34,172.57v5.04c2.5-.58,4.64-1.34,6.43-2.28-.79-.73-1.62-1.66-2.5-2.79-.45.47-1.08,1.05-1.89,1.73-.66-.66-1.34-1.23-2.05-1.7ZM264.21,170.16h-5.95c.92,1.26,2.01,2.36,3.27,3.3,1.11-.98,2.01-2.08,2.69-3.3Z"/>
      <path class="st1" d="M286.26,169.43l1.06.22c-.64,1.45-1.09,2.5-1.34,3.14h3.2v3.27h-15.17v-3.27h3.1c-.21-1.07-.49-2.11-.83-3.11l1.09-.26h-2.85v-3.27h5.19v-2.37h3.84v2.37h5.19v3.27h-2.46ZM288.02,177.48v13.12c0,1.45-.35,2.44-1.06,2.95-.11.09-.2.15-.29.19-.9.41-2.34.61-4.32.61-.15-.96-.56-2.09-1.22-3.37,1.17.06,2.03.08,2.56.03.32-.06.49-.23.51-.51v-2.21h-4.99v6.06h-3.65v-16.87h12.45ZM284.21,180.24h-4.99v1.51h4.99v-1.51ZM279.21,185.79h4.99v-1.54h-4.99v1.54ZM283.73,169.43h-4.26c.53,1.5.84,2.56.93,3.18l-.77.19h4.1l-.96-.22c.06-.19.16-.49.29-.9.34-1.03.56-1.77.67-2.25ZM302.9,187v2.28c.77.28,1.35.46,1.76.54-.24,1.99-.8,3.26-1.7,3.82-.62.36-1.5.55-2.66.55h-5.03c-2.07,0-3.41-.4-4.03-1.19-.51-.66-.77-1.76-.77-3.3v-14.08h8.48v-1.83h-8.48v-10.04h3.81v2.18h9.67v3.18h-9.67v1.8h8.42v7.63h-8.42v1.28h8.45v2.28h-8.45v1.32h8.29v2.28h-8.29v1.32h8.61ZM295.86,191.08h4.1c.6,0,.98-.24,1.15-.71.11-.28.18-.64.22-1.09h-7.04v.38c0,.73.16,1.15.48,1.28.23.09.6.13,1.09.13Z"/>
      <path class="st1" d="M315.98,170.84l3.75,1.44c-1,1.69-2.18,3.37-3.52,5.04v17.13h-3.91v-12.83c-1.05,1.01-1.94,1.82-2.69,2.44-.98-1.43-1.87-2.57-2.66-3.4,2.77-1.92,5.24-4.36,7.39-7.31.62-.85,1.16-1.69,1.63-2.5ZM314.73,163.75l3.78,1.54c-2.13,2.78-4.72,5.35-7.75,7.7-.45.34-.88.65-1.28.93-.79-1.39-1.5-2.45-2.14-3.18,2.26-1.43,4.33-3.25,6.21-5.45.47-.56.86-1.07,1.18-1.54ZM337.78,174.65v3.69h-4.48v11.55c0,1.69-.36,2.81-1.09,3.37-.23.17-.49.31-.77.42-1.11.43-3.23.64-6.37.64-.19-1.33-.59-2.65-1.18-3.98,1.94.11,3.48.13,4.61.06.53-.06.81-.27.83-.61v-11.45h-9.67v-3.69h18.12ZM336.94,165.61v3.72h-15.91v-3.72h15.91Z"/>
      <path class="st1" d="M349.58,180.81v8.18l4.71-.77.22,3.27c-3.5.68-7.63,1.42-12.39,2.21l-.77-3.5c.58-.06,2.2-.29,4.87-.67v-8.73h-4.48v-3.3h4.48v-2.41h-3.04v-1.03l-.22.22c-.26-.43-.62-.9-1.1-1.43-.48-.52-.91-.9-1.3-1.14,2.43-2.1,4.32-4.75,5.67-7.96h3.1c2.62,2.16,4.5,4.06,5.63,5.71l-2.08,2.79v2.82h-3.3v2.41h4.26v3.3h-4.26ZM344.49,182.06c.66,2.16,1.08,4.03,1.25,5.61l-2.69.77c-.09-1.52-.46-3.42-1.12-5.71l2.56-.67ZM352.07,171.86c-1.22-1.75-2.45-3.23-3.71-4.43-.98,1.69-2,3.17-3.04,4.43h6.75ZM349.9,187.32c.62-2.1,1.02-3.95,1.22-5.55l2.94.71c-.15.45-.35,1.07-.61,1.88-.26.8-.48,1.51-.67,2.12-.19.61-.37,1.12-.54,1.52l-2.34-.67ZM359.88,171.45c-.15-.38-.34-.83-.56-1.33-.22-.5-.46-1.03-.72-1.57-.26-.55-.52-1.09-.78-1.64-.27-.55-.53-1.05-.78-1.52l-2.88,1.06c.23.51.49,1.06.75,1.64.27.58.52,1.14.75,1.7s.45,1.1.66,1.62c.2.52.37.99.5,1.4l3.07-1.35ZM369.96,173.76h-5.57v-10.01h-3.78v10.01h-5.6v20.59h3.75v-6.74h7.36v2.47c0,.21-.04.36-.11.45-.08.09-.23.13-.46.13h-.48c-.21,0-.46,0-.75-.02s-.59-.02-.91-.03c-.32-.01-.64-.03-.96-.05.23.49.48,1.08.74,1.76.26.68.43,1.29.51,1.83,1.07,0,1.98-.04,2.75-.11.77-.08,1.44-.26,2.02-.56.55-.3.94-.71,1.17-1.24s.34-1.22.34-2.1v-16.39ZM366.12,177.09v2.15h-7.36v-2.15h7.36ZM358.76,184.44v-2.25h7.36v2.25h-7.36ZM368.01,165.35c-.15.49-.34,1.02-.58,1.59-.23.57-.48,1.13-.74,1.7-.26.57-.52,1.12-.78,1.65-.27.53-.53,1.02-.78,1.44l2.79,1.15c.49-.81,1.02-1.78,1.58-2.9.57-1.12,1.09-2.26,1.58-3.42l-3.07-1.22Z"/>
      <path class="st1" d="M386.95,164.9v25.25c0,1.65-.33,2.75-.99,3.3-.13.11-.25.19-.35.26-.88.47-2.4.71-4.58.71-.13-1.33-.46-2.57-.99-3.72-.02-.02-.03-.04-.03-.06.45.02,1.38.03,2.79.03.34-.04.52-.23.54-.58v-6.51h-3.42c-.34,4.6-1.11,8.22-2.3,10.88-.94-.73-1.94-1.3-3.01-1.73-.04-.02-.09-.04-.13-.06,1.39-3.08,2.1-8.03,2.14-14.85v-12.9h10.34ZM380.1,179.88h3.23v-3.95h-3.2v.87c0,1.33-.01,2.35-.03,3.08ZM383.33,168.49h-3.2v3.82h3.2v-3.82ZM402.51,176.19l2.34.74c-.75,4.3-2.06,7.97-3.94,11,1.49,1.52,3.12,2.67,4.87,3.46-.98.92-1.79,1.94-2.43,3.05-1.75-1.01-3.31-2.2-4.67-3.59-1.28,1.39-2.71,2.57-4.29,3.53-.47-.94-1.11-1.82-1.92-2.63v2.69h-3.71v-29.51h15.08v6.32c0,1.39-.34,2.32-1.02,2.79-.21.15-.45.27-.7.35-.94.34-2.82.51-5.63.51-.13-.83-.51-1.94-1.15-3.3,1.73.11,3.09.13,4.1.06.43-.09.65-.26.67-.51v-2.63h-7.62v7.8h9.47l.58-.13ZM392.45,179.82v11.52c1.39-.79,2.72-1.91,4-3.37-1.47-2.22-2.74-4.94-3.81-8.15h-.19ZM400.62,179.82h-4.67c.66,1.84,1.5,3.55,2.53,5.13.92-1.58,1.63-3.29,2.14-5.13Z"/>
      <path class="st1" d="M438.37,170.26h-1.92c-.9,1.92-1.98,3.53-3.27,4.81,1.79.86,3.8,1.5,6.02,1.92-.88.81-1.68,1.89-2.4,3.24-.02.04-.03.08-.03.1-2.39-.6-4.62-1.54-6.69-2.82-1.75,1.07-3.98,1.99-6.69,2.76-.19-.36-.5-.82-.93-1.38-.47,2.14-1,3.97-1.6,5.49l-2.62-1.22c.45-1.58.8-3.09,1.06-4.52h-1.73v11.55c0,1.56-.32,2.6-.96,3.11-.15.11-.3.2-.45.29-.9.47-2.44.71-4.64.71-.11-1.05-.48-2.29-1.12-3.72.81.02,1.8.03,2.98.03.32-.11.49-.27.51-.48v-7.03c-1.28,2.69-2.65,4.72-4.1,6.06-.23-.79-.82-2.05-1.76-3.79,1.83-1.65,3.38-3.89,4.64-6.74h-4.1v-3.43h7.52c-1.84-1.13-3.95-2.19-6.34-3.18l2.46-2.5c.55.19,1.42.55,2.59,1.06.7-.58,1.39-1.27,2.05-2.08h-7.87v-3.27h10.59l.61-.13,2.46,1.57c-1.15,1.86-2.74,3.67-4.77,5.42.94.47,1.74.95,2.4,1.44l-1.63,1.67h1.6l.51-.16,2.37.8-.13.74c1.49-.41,2.83-.91,4-1.51-.85-.83-1.63-1.74-2.34-2.73-.45.47-.94.94-1.47,1.41-1.24-.96-2.3-1.7-3.2-2.21,2.26-1.6,4.1-3.69,5.51-6.26.3-.51.55-1.03.77-1.54l3.65.96c-.28.62-.68,1.39-1.22,2.31h9.67v3.24ZM430.69,182.03h7.33s-.05.51-.16,1.48c-.45,4.9-1.07,7.9-1.86,9.01-.06.11-.13.19-.19.26-.64.64-1.44,1.03-2.4,1.16-.94.11-2.16.13-3.65.06-.06-1.26-.42-2.47-1.06-3.62.98.11,1.92.16,2.82.16.45-.02.8-.14,1.06-.35.51-.51.93-2.15,1.25-4.91h-3.81c-1.05,3.64-3.19,6.34-6.43,8.12-.7.38-1.44.73-2.21,1.03-.45-1.03-1.14-1.98-2.08-2.85-.06-.06-.12-.12-.16-.16,3.27-1.2,5.48-3.09,6.66-5.68.06-.15.13-.3.19-.45h-3.97v-3.24h4.77c.17-1.09.29-2.06.35-2.92h3.87c-.13,1.26-.24,2.23-.32,2.92ZM432.13,170.26h-4.87c.77,1.05,1.67,1.98,2.72,2.79.87-.79,1.59-1.72,2.14-2.79Z"/>
      <path class="st1" d="M102.89,212.76h-1.73c-.64,5.2-1.71,9.38-3.2,12.54,1.39,2.44,3.08,4.27,5.09,5.49-.96.81-1.77,1.8-2.43,2.95-.04.06-.08.12-.1.16-1.86-1.26-3.45-2.91-4.77-4.94-1.52,1.99-3.37,3.66-5.57,5-.23-.56-.79-1.47-1.66-2.73l-2.27,2.25c-.9-.64-2.05-1.35-3.46-2.12-1.98,1.15-4.75,2.02-8.29,2.6-.23-1.01-.69-2-1.38-2.98,2.65-.23,4.72-.65,6.21-1.25-.19-.06-.49-.18-.9-.35-.38-.17-.67-.29-.86-.35l-.29.42-3.1-.77c.96-1.48,1.58-2.45,1.86-2.92l-3.52.03-.13-2.89c2.22,0,3.97-.01,5.25-.03.02-.02.26-.46.7-1.32h-4.64v-6.06h5.79v-1.03h-5.15v-3.5h-2.05v-2.76h2.05v-3.43h5.15v-1.6h3.3v1.6h5.44v3.43h2.14v2.76h-2.14v3.5h-5.44v1.03h6.11v1.03c1.69-3.21,2.86-7.66,3.52-13.34l3.68.48c-.21,1.69-.51,3.52-.9,5.49h7.68v3.62ZM76.9,217.83v1.38h2.59v-1.38h-2.59ZM79.49,207.24h-1.92v1.19h1.92v-1.19ZM77.57,211.99h1.92v-1.22h-1.92v1.22ZM79.62,225.68l-.54.93c.66.21,1.74.63,3.23,1.25.6-.64,1.09-1.39,1.47-2.25l-4.16.06ZM90.31,225.46l-3.01.06c-.45,1.48-1.1,2.72-1.95,3.72.79.39,1.71.88,2.75,1.48,2.43-1.33,4.36-3.14,5.79-5.45-.79-1.9-1.45-4.03-1.98-6.38-.36.75-.79,1.48-1.28,2.18-.32-.47-.9-1.12-1.73-1.96v2.44h-7.27l.29.06-.67,1.22c.96,0,2.43-.02,4.42-.06,2.13-.02,3.71-.04,4.74-.06l-.1,2.76ZM84.87,207.24h-2.08v1.19h2.08v-1.19ZM82.79,211.99h2.08v-1.22h-2.08v1.22ZM85.51,217.83h-2.72v1.38h2.72v-1.38ZM97.51,212.76h-3.23l-.06.19c.47,3.02,1.06,5.58,1.76,7.7.68-2.22,1.19-4.85,1.54-7.89Z"/>
      <path class="st1" d="M113.18,203.23l3.65,1.22c-.9,2.16-1.92,4.27-3.07,6.32v22.97h-3.71v-17.39c-.98,1.26-1.88,2.3-2.69,3.11-.45-1.22-1.1-2.51-1.95-3.88-.04-.08-.09-.15-.13-.19,2.62-2.44,4.88-5.6,6.75-9.5.43-.9.81-1.79,1.15-2.66ZM129.96,228.76h6.66v3.69h-21.16v-3.69h10.76c1.37-4.28,2.36-8.78,2.98-13.51.06-.43.12-.82.16-1.19l4.26.67c-1.05,5.2-2.26,9.87-3.65,14.02ZM116.1,209.07h7.71v-5.49h3.94v5.49h8.19v3.72h-19.85v-3.72ZM124.2,226.9l-3.87.83c-.11-3.29-.65-7.14-1.63-11.55-.11-.47-.21-.91-.32-1.32l3.52-.61c1.19,4.38,1.95,8.43,2.27,12.13,0,.19.01.36.03.51Z"/>
      <path class="st1" d="M148,210.26l3.75,1.44c-1,1.69-2.18,3.37-3.52,5.04v17.13h-3.91v-12.83c-1.05,1.01-1.94,1.82-2.69,2.44-.98-1.43-1.87-2.57-2.66-3.4,2.77-1.92,5.24-4.36,7.39-7.31.62-.85,1.16-1.69,1.63-2.5ZM146.75,203.17l3.78,1.54c-2.13,2.78-4.72,5.35-7.75,7.7-.45.34-.88.65-1.28.93-.79-1.39-1.5-2.45-2.14-3.18,2.26-1.43,4.33-3.25,6.21-5.45.47-.56.86-1.07,1.18-1.54ZM169.8,214.07v3.69h-4.48v11.55c0,1.69-.36,2.81-1.09,3.37-.23.17-.49.31-.77.42-1.11.43-3.23.64-6.37.64-.19-1.33-.59-2.65-1.18-3.98,1.94.11,3.48.13,4.61.06.53-.06.81-.27.83-.61v-11.45h-9.67v-3.69h18.12ZM168.96,205.03v3.72h-15.91v-3.72h15.91Z"/>
      <path class="st1" d="M181.59,220.23v8.18l4.71-.77.22,3.27c-3.5.68-7.63,1.42-12.39,2.21l-.77-3.5c.58-.06,2.2-.29,4.87-.67v-8.73h-4.48v-3.3h4.48v-2.41h-3.04v-1.03l-.22.22c-.26-.43-.62-.9-1.1-1.43-.48-.52-.91-.9-1.3-1.14,2.43-2.1,4.32-4.75,5.67-7.96h3.1c2.62,2.16,4.5,4.06,5.63,5.71l-2.08,2.79v2.82h-3.3v2.41h4.26v3.3h-4.26ZM176.5,221.48c.66,2.16,1.08,4.03,1.25,5.61l-2.69.77c-.09-1.52-.46-3.42-1.12-5.71l2.56-.67ZM184.09,211.28c-1.22-1.75-2.45-3.23-3.71-4.43-.98,1.69-2,3.17-3.04,4.43h6.75ZM181.91,226.74c.62-2.1,1.02-3.95,1.22-5.55l2.94.71c-.15.45-.35,1.07-.61,1.88-.26.8-.48,1.51-.67,2.12-.19.61-.37,1.12-.54,1.52l-2.34-.67ZM191.9,210.86c-.15-.38-.34-.83-.56-1.33-.22-.5-.46-1.03-.72-1.57-.26-.55-.52-1.09-.78-1.64-.27-.55-.53-1.05-.78-1.52l-2.88,1.06c.23.51.49,1.06.75,1.64.27.58.52,1.14.75,1.7s.45,1.1.66,1.62c.2.52.37.99.5,1.4l3.07-1.35ZM201.98,213.17h-5.57v-10.01h-3.78v10.01h-5.6v20.59h3.75v-6.74h7.36v2.47c0,.21-.04.36-.11.45-.08.09-.23.13-.46.13h-.48c-.21,0-.46,0-.75-.02s-.59-.02-.91-.03c-.32-.01-.64-.03-.96-.05.23.49.48,1.08.74,1.76.26.68.43,1.29.51,1.83,1.07,0,1.98-.04,2.75-.11.77-.08,1.44-.26,2.02-.56.55-.3.94-.71,1.17-1.24s.34-1.22.34-2.1v-16.39ZM198.14,216.51v2.15h-7.36v-2.15h7.36ZM190.78,223.86v-2.25h7.36v2.25h-7.36ZM200.03,204.77c-.15.49-.34,1.02-.58,1.59-.23.57-.48,1.13-.74,1.7-.26.57-.52,1.12-.78,1.65-.27.53-.53,1.02-.78,1.44l2.79,1.15c.49-.81,1.02-1.78,1.58-2.9.57-1.12,1.09-2.26,1.58-3.42l-3.07-1.22Z"/>
      <path class="st1" d="M214.93,216.7v10.87c.87-.17,2.21-.46,4-.87,1.3-.3,2.26-.51,2.88-.64l.35,3.85c-5.02,1.18-9.78,2.25-14.31,3.21l-1.09-4.01c.36-.06,1.73-.32,4.1-.77v-24.83h4.07v9.37h6.5v3.82h-6.5ZM228.76,229.53h3.58c.58,0,.97-.36,1.18-1.09.19-.68.34-2.18.45-4.49,1.02.77,2.19,1.33,3.49,1.67.06.02.11.03.13.03-.24,3.32-.79,5.47-1.66,6.48-.73.81-1.8,1.22-3.23,1.22h-4.51c-2.03,0-3.36-.48-4-1.44-.58-.88-.86-2.39-.86-4.56v-23.83h4.03v10.59c2.69-1.26,4.95-2.53,6.79-3.82l2.69,3.4c-2.26,1.22-5.42,2.61-9.47,4.17v9.53c0,1.11.14,1.76.42,1.96.21.13.54.19.99.19Z"/>
      <path class="st1" d="M246.23,222.86v-6.48c-1.22,2.05-2.45,3.65-3.71,4.78-.6-.94-1.37-1.8-2.3-2.57-.06-.06-.12-.11-.16-.13,1.92-1.41,3.58-3.46,4.99-6.16.21-.38.41-.77.58-1.15h-4.77v-3.34h5.38v-4.62h3.71v4.62h4.61v3.34h-4.61v1.19c1.34.79,3.02,1.96,5.03,3.5.06.06.12.11.16.13l-2.05,3.11c-.79-.85-1.84-1.88-3.14-3.08v6.87h-3.71ZM243.83,232.04l-3.55-1.8c1.26-1.84,2.2-4.04,2.82-6.61.02-.04.03-.08.03-.13l3.46,1.38c-.88,3.19-1.79,5.57-2.75,7.15ZM253.75,229.73h5.22c.79,0,1.29-.22,1.5-.67.23-.47.4-1.51.48-3.11.81.62,1.93,1.07,3.36,1.35.06.02.12.03.16.03-.26,2.54-.81,4.19-1.66,4.94-.73.62-1.9.93-3.52.93h-5.92c-2.48,0-4.08-.45-4.8-1.35-.51-.66-.77-1.72-.77-3.18v-4.49h3.84v4.43c0,.56.19.89.58.99.3.09.81.13,1.54.13ZM252.5,223.76l2.69-2.18.64.61v-17.39h13.32v17.68h-13c1.66,1.56,2.83,2.72,3.49,3.46l-2.82,2.37c-1-1.26-2.44-2.78-4.32-4.56ZM259.38,207.88v1.92h6.02v-1.92h-6.02ZM259.38,212.69v1.89h6.02v-1.89h-6.02ZM259.38,217.44v1.99h6.02v-1.99h-6.02ZM263.54,224.63l3.39-1.57c2.28,3.53,3.65,5.71,4.1,6.54l-3.62,1.86c-.32-.68-1.52-2.79-3.58-6.32-.11-.19-.2-.36-.29-.51Z"/>
      <path class="st1" d="M279.73,203.2l3.62,1.06c-.75,2.2-1.58,4.33-2.5,6.38v23.16h-3.71v-16.42c-.64.98-1.31,1.88-2.02,2.69-.38-1.22-.97-2.54-1.76-3.98-.04-.09-.09-.16-.13-.22,2.41-2.76,4.4-6.44,5.95-11.04.19-.56.37-1.1.54-1.64ZM301.84,218.18l2.62,2.31c-1.52,1.35-3.02,2.51-4.51,3.5,1.37,2.52,3.02,4.35,4.96,5.49-.9.73-1.71,1.7-2.43,2.92-.02.06-.04.11-.06.13-3.86-2.65-6.56-7.66-8.1-15.01h-.67c-.62.51-1.23.96-1.82,1.35,2.41,2.05,3.83,4.56,4.26,7.51.32,2.27,0,4.1-.96,5.49-.19.26-.4.48-.61.67-.85.81-2,1.26-3.42,1.35h-.06c-.7,0-1.46-.03-2.27-.1-.09-1.18-.36-2.22-.83-3.14-1.32.75-2.73,1.43-4.23,2.05-.58-1.05-1.27-1.97-2.08-2.76,3.09-.92,6.04-2.36,8.83-4.33.6-.43,1.13-.83,1.6-1.22-.11-.28-.29-.66-.54-1.15-2.5,1.69-5.01,3.05-7.55,4.07-.47-.9-1.06-1.7-1.76-2.41,2.73-.81,5.26-1.98,7.59-3.5.08-.06.16-.12.22-.16-.26-.28-.52-.55-.8-.8-1.62.94-3.32,1.72-5.09,2.34-1.09-1.37-1.8-2.21-2.14-2.53,2.48-.68,4.73-1.59,6.75-2.73h-4.99v-5.1c-.9-.81-1.7-1.39-2.4-1.73,2.73-1.95,4.84-4.31,6.34-7.09.06-.15.13-.28.19-.39l3.68.64c-.19.36-.45.8-.77,1.32h5.06l.67-.22,2.3,1.64c-.6.98-1.32,2.03-2.18,3.14h6.72v7.79h-5.73c.3,1.28.65,2.49,1.06,3.62,1.28-1.07,2.34-2.05,3.17-2.95ZM287.25,212.37v2.5h4.23v-2.5h-4.23ZM293.78,207.98h-4.93c-.58.75-1.05,1.33-1.41,1.73h5.06c.47-.56.9-1.13,1.28-1.73ZM291.92,229.98c.49-.49.76-1.29.8-2.41-1.45,1.07-2.99,2.05-4.61,2.95.77.09,1.5.13,2.21.13.7-.02,1.24-.25,1.6-.67ZM299.64,214.87v-2.5h-4.71v2.5h4.71Z"/>
      <path class="st1" d="M328.01,208.2h9.25s-.01.62-.03,1.8c-.3,10.18-.69,16.51-1.18,18.99-.23,1.24-.55,2.12-.96,2.63-.7.94-1.63,1.53-2.78,1.76-.13.02-.25.04-.35.06-1,.13-2.72.15-5.15.06-.06-1.24-.46-2.46-1.18-3.66-.04-.06-.08-.12-.1-.16,1.43.13,3.06.19,4.9.19.6-.02,1.08-.2,1.44-.55.68-.75,1.17-4.2,1.47-10.36.09-1.97.17-4.37.26-7.22h-7.01c-.94,2.1-1.9,3.83-2.88,5.2-.53-.49-1.38-1.11-2.53-1.86v15.37h-8.77v2.37h-3.52v-24.38h3.71c.49-1.9.8-3.67.93-5.29l4.26.58c-.51,1.54-1.08,3.11-1.7,4.72h5.09v5.29c1.88-2.76,3.35-6.28,4.42-10.55l3.71.83c-.21.96-.64,2.35-1.28,4.17ZM317.61,217.18v-5.32h-5.22v5.32h5.22ZM312.39,227h5.22v-6.45h-5.22v6.45ZM331.82,223.18l-3.33,2.05c-.85-1.8-2.37-4.33-4.55-7.6l3.04-1.73c2.43,3.38,4.04,5.81,4.83,7.28Z"/>
      <path class="st1" d="M368.2,217.34l2.59,1.35c-2.65,6.52-8.09,11-16.32,13.44-2.48.73-5.24,1.3-8.29,1.73-.28-1.05-.83-2.25-1.66-3.59,5.04-.51,9.3-1.55,12.8-3.11-1.13-1-2.74-2.15-4.83-3.43-1.37.71-2.92,1.36-4.67,1.96-.47-.96-1.15-1.86-2.05-2.69-.13-.13-.25-.23-.35-.32,5.76-1.73,10.17-4.2,13.22-7.41.06-.08.12-.15.16-.19-4.16,2.74-9.23,4.71-15.2,5.9-.47-1.33-1.08-2.45-1.82-3.37,4.05-.64,7.74-1.72,11.04-3.24-1.26-.96-2.72-1.9-4.39-2.82-1.3.66-2.56,1.23-3.78,1.7-.6-1-1.39-1.9-2.37-2.69-.09-.09-.16-.15-.22-.19,5.19-1.65,9.12-3.98,11.81-6.99.09-.11.17-.2.26-.29l4.23.87c-.49.56-1.01,1.11-1.57,1.67h6.56l.67-.16,2.46,1.44c-1.54,2.87-3.79,5.38-6.75,7.54l3.94.93c-.49.62-1.16,1.34-2.02,2.15h5.86l.7-.16ZM360.75,208.84h-7.84c-.17.13-.57.41-1.18.83,1.98,1.07,3.49,2.03,4.51,2.89,1.75-1.09,3.25-2.33,4.51-3.72ZM365.36,220.78h-7.71c-.47.34-1.05.71-1.73,1.09,2.13,1.22,3.77,2.34,4.9,3.37,1.88-1.26,3.39-2.75,4.54-4.46Z"/>
      <path class="st1" d="M382.31,218.02v8.44c1.28,1.99,3.71,3.07,7.3,3.24,4.46.19,9.25.13,14.37-.19.51-.02.98-.05,1.41-.1-.56,1.13-.95,2.35-1.18,3.66v.1c-4.99.24-9.87.28-14.63.13-3.37-.13-5.93-.95-7.68-2.47-.43-.39-.82-.79-1.18-1.22-1.49,1.43-2.98,2.76-4.45,3.98l-1.82-3.88c1.77-1.11,3.17-2.1,4.19-2.95v-5.13h-3.71v-3.59h7.39ZM382.82,213.69l-2.66,2.66c-1.05-1.18-2.68-2.45-4.9-3.82-.11-.06-.2-.12-.29-.16l2.53-2.41c2.48,1.35,4.25,2.59,5.31,3.72ZM383.88,207.34l-2.75,2.57c-.9-1.15-2.35-2.41-4.35-3.75-.21-.15-.42-.28-.61-.38l2.59-2.34c2.28,1.35,3.96,2.62,5.03,3.82.04.04.07.08.1.1ZM382.85,214.36v-2.69h21.93v2.69h-21.93ZM395.27,229.05h-3.71v-4.49c-1.86,1.37-3.96,2.54-6.31,3.53-.49-.88-1.24-1.83-2.24-2.85,3.03-1.03,5.51-2.3,7.43-3.82h-4.99v-6.03h16.84v5.2l1.95,1.35c-1.52,1.05-2.83,1.91-3.94,2.6,1.56.58,3.06.98,4.51,1.22-.77.69-1.46,1.6-2.08,2.76-.02.06-.04.12-.06.16-2.9-.73-5.37-1.9-7.39-3.53v3.91ZM403.31,204v6.64h-18.82v-6.64h18.82ZM389.77,208.49v-2.28h-2.02v2.28h2.02ZM389.03,217.54v1.7h9.38v-1.7h-9.38ZM394.82,208.49v-2.28h-2.11v2.28h2.11ZM400.04,221.42h-4.58c.68.71,1.43,1.3,2.24,1.8.32-.21,1.1-.81,2.34-1.8ZM399.82,208.49v-2.28h-2.08v2.28h2.08Z"/>
      <path class="st1" d="M435.4,217.34l2.59,1.35c-2.65,6.52-8.09,11-16.32,13.44-2.48.73-5.24,1.3-8.29,1.73-.28-1.05-.83-2.25-1.66-3.59,5.04-.51,9.3-1.55,12.8-3.11-1.13-1-2.74-2.15-4.83-3.43-1.37.71-2.92,1.36-4.67,1.96-.47-.96-1.15-1.86-2.05-2.69-.13-.13-.25-.23-.35-.32,5.76-1.73,10.17-4.2,13.22-7.41.06-.08.12-.15.16-.19-4.16,2.74-9.23,4.71-15.2,5.9-.47-1.33-1.08-2.45-1.82-3.37,4.05-.64,7.74-1.72,11.04-3.24-1.26-.96-2.72-1.9-4.39-2.82-1.3.66-2.56,1.23-3.78,1.7-.6-1-1.39-1.9-2.37-2.69-.09-.09-.16-.15-.22-.19,5.19-1.65,9.12-3.98,11.81-6.99.09-.11.17-.2.26-.29l4.23.87c-.49.56-1.01,1.11-1.57,1.67h6.56l.67-.16,2.46,1.44c-1.54,2.87-3.79,5.38-6.75,7.54l3.94.93c-.49.62-1.16,1.34-2.02,2.15h5.86l.7-.16ZM427.94,208.84h-7.84c-.17.13-.57.41-1.18.83,1.98,1.07,3.49,2.03,4.51,2.89,1.75-1.09,3.25-2.33,4.51-3.72ZM432.55,220.78h-7.71c-.47.34-1.05.71-1.73,1.09,2.13,1.22,3.77,2.34,4.9,3.37,1.88-1.26,3.39-2.75,4.54-4.46Z"/>
    </g>
  </g>
</svg>