<?xml version="1.0" encoding="UTF-8"?>
<svg id="_圖層_1" data-name="圖層_1" xmlns="http://www.w3.org/2000/svg" xmlns:xlink="http://www.w3.org/1999/xlink" version="1.1" viewBox="0 0 476.15 123.66">
  <!-- Generator: Adobe Illustrator 29.6.1, SVG Export Plug-In . SVG Version: 2.1.1 Build 9)  -->
  <defs>
    <style>
      .st0 {
        fill: #00bdff;
      }

      .st1 {
        fill: url(#_未命名漸層_3708);
      }

      .st2 {
        fill: #dbdcdc;
      }

      .st3 {
        fill: #fff;
      }
    </style>
    <linearGradient id="_未命名漸層_3708" data-name="未命名漸層 3708" x1="1550.59" y1="51.47" x2="-160.01" y2="51.47" gradientUnits="userSpaceOnUse">
      <stop offset=".24" stop-color="#fff"/>
      <stop offset=".31" stop-color="#fcede2"/>
      <stop offset=".66" stop-color="#f19956"/>
      <stop offset=".82" stop-color="#ed781e"/>
    </linearGradient>
  </defs>
 <g>
    <path class="st3" d="M24.48,29.36h3.83c.63,0,1.05-.28,1.26-.84.19-.61.32-1.86.39-3.76.98.7,2.27,1.25,3.86,1.65-.26,3-.85,4.93-1.79,5.79-.73.66-1.84.98-3.34.98h-4.88c-2.39,0-3.92-.49-4.6-1.47-.52-.75-.77-1.97-.77-3.65v-6.64h-.56c-1.5,4.26-4.37,7.5-8.6,9.73-1.8.96-3.89,1.77-6.25,2.42-.56-1.33-1.37-2.53-2.42-3.58,6.02-1.52,10.04-4.08,12.08-7.69.16-.3.32-.6.46-.88H4.14v-8.04c-.37.33-.75.63-1.12.91-.66-1.1-1.52-2.07-2.6-2.91-.16-.14-.3-.25-.42-.32C3.93,8.49,7.06,5.26,9.38,1.37c.26-.44.49-.87.7-1.26l4.6.84c-.42.77-.74,1.32-.95,1.65h7.16l.7-.18,2.98,1.9c-.98,1.71-2.11,3.34-3.37,4.88h9.69v12.22h-8.01v6.57c0,.73.15,1.15.46,1.26.23.07.61.11,1.12.11ZM8.43,17.59h5.93c.26-1.26.47-2.81.63-4.64h-6.57v4.64ZM18.44,6.11h-7.13c-.96,1.22-1.84,2.25-2.63,3.09h7.48c.94-1.1,1.7-2.13,2.28-3.09ZM26.37,12.96h-6.85c-.12,1.33-.34,2.88-.67,4.64h7.51v-4.64Z"/>
    <path class="st3" d="M66.22,28.34h-5.41c3.89,1.26,7.05,2.42,9.48,3.48l-4.74,2.04c-2.22-1.15-5.43-2.41-9.62-3.79l2.74-1.72h-9.59l2.84,1.3c-2.83,1.66-6.51,3.08-11.03,4.25-.09,0-.16.01-.21.03-.82-1.03-1.79-2-2.91-2.91-.07-.07-.13-.12-.18-.14,3.86-.66,7.03-1.5,9.52-2.53h-4.88v-10.68c-1.12.23-2.01.4-2.67.49-.4-1.03-1.07-2.14-2-3.34,4.17-.54,7.01-1.42,8.53-2.63h-3.12l-.14.32-3.9-.25c.7-1.54,1.45-3.71,2.25-6.5h6.85v-1.44h-8.15V1.83h8.15V.28h3.9v1.54h3.97V.28h4.07v1.54h7.62v6.43h-7.62v1.4h9.97s-.02.4-.07,1.12c-.19,2.32-.53,3.75-1.02,4.28-.54.52-1.23.8-2.07.84h-.21c-.16.02-.28.04-.35.04v12.4ZM44.37,8.25l-.53,1.4h3.93c.14-.44.21-.91.21-1.4h-3.62ZM61.86,18.4v-1.4h-15.45v1.4h15.45ZM61.86,22.12v-1.44h-15.45v1.44h15.45ZM46.41,24.44v1.47h15.45v-1.47h-15.45ZM55.89,12.19h-4.78c-.42.89-1.01,1.67-1.76,2.35h6.53v-2.35ZM55.89,9.66v-1.4h-3.97c0,.16-.02.4-.07.7-.02.33-.04.56-.04.7h4.07ZM51.92,4.32v1.44h3.97v-1.44h-3.97ZM63.72,4.32h-3.76v1.44h3.76v-1.44ZM65.72,12.19h-5.76v2.35h3.13c-.09-.37-.23-.77-.42-1.19.98.12,1.64.16,1.97.14.35-.02.61-.12.77-.28.14-.21.25-.55.32-1.02Z"/>
    <path class="st3" d="M104.65,15.77v6.15c0,1.43-.34,2.38-1.02,2.84-.19.14-.4.26-.63.35-.96.38-2.55.56-4.78.56,2.97,1.52,6.18,2.59,9.62,3.2-1.08,1.15-1.97,2.4-2.67,3.76-4.33-1.1-8.22-3.04-11.66-5.83v7.06h-4.6v-7.16c-3.28,2.83-7.26,4.89-11.94,6.18-.66-1.29-1.52-2.46-2.6-3.51-.02-.02-.05-.05-.07-.07,5.01-1.01,9.14-2.79,12.4-5.34.87-.66,1.6-1.33,2.21-2.04v-2.53h-6.88v6.39h-4.53v-10.01h11.41v-1.72h-13.7v-3.69h7.62c-.35-1.05-.97-2.31-1.86-3.76h-.6c-.91,1.36-1.91,2.55-2.98,3.58-1.17-.91-2.35-1.69-3.55-2.32,2.13-1.78,3.85-4.16,5.16-7.13.12-.26.22-.5.32-.74l4.07,1.09c-.33.8-.62,1.45-.88,1.97h7.8v2.95c1.4-1.62,2.54-3.62,3.41-6l4.21,1.02c-.28.7-.57,1.38-.88,2.04h10.01v3.55h-5.86c.63,1.1,1.05,1.93,1.26,2.49l-3.83,1.19c-.28-.94-.89-2.17-1.83-3.69h-1.72c-.44.68-.97,1.37-1.58,2.07v1.69h12.92v3.69h-12.92v1.72h11.13ZM83.34,10.36h5.58v-1.9h.6s-.1-.05-.16-.09-.12-.07-.18-.11c-.06-.04-.11-.06-.14-.09-.04-.02-.09-.06-.18-.1-.08-.05-.14-.08-.16-.09-.02-.01-.07-.04-.14-.09l-.14-.07c.33-.26.77-.67,1.33-1.23h-4.42c.68,1.33,1.09,2.18,1.23,2.53l-3.23,1.23ZM93.52,19.38v3.2c1.17,1.01,2.67,2,4.49,2.98-.23-.84-.7-1.92-1.4-3.23.56.05,1.58.07,3.05.07.35-.05.54-.21.56-.49v-2.53h-6.71Z"/>
    <path class="st3" d="M140.46,3.62l2.77,1.37c-1.36,3.56-3.27,6.66-5.72,9.31,2.46,1.87,5.06,3.23,7.8,4.07-.96.94-1.85,2.08-2.67,3.44-.02.07-.05.12-.07.14l-.25-.1v11.9h-4.18v-1.12h-7.37v1.12h-3.97v-11.76l-.88.39c-.23-.42-.64-1.04-1.23-1.86v6.25h-9.34v2.95h-3.09V2.35h12.43v6.81c2.72-2.46,4.76-5.45,6.15-8.99l4.04,1.09c-.19.54-.57,1.38-1.16,2.53h6l.74-.18ZM117.04,6.04h-1.69v6.36h1.69v-6.36ZM115.35,15.91v7.2h1.69v-7.2h-1.69ZM121.5,12.4v-6.36h-1.79v6.36h1.79ZM119.7,23.11h1.79v-7.2h-1.79v7.2ZM124.69,11.52v7.06c2.67-1.17,5.02-2.62,7.06-4.35-.96-1.1-1.85-2.28-2.67-3.55-.82.94-1.71,1.81-2.67,2.63-.33-.42-.9-1.02-1.72-1.79ZM129.64,20.51h9.87c-1.8-.98-3.44-2.13-4.92-3.44-1.38,1.15-3.03,2.29-4.95,3.44ZM130.77,28.9h7.37v-4.64h-7.37v4.64ZM137.68,7.34h-6.04l-.25.32c.91,1.45,1.95,2.77,3.13,3.97,1.22-1.33,2.27-2.76,3.16-4.28Z"/>
    <path class="st3" d="M160.18,6.18v3.37h-12.43v-3.37h12.43ZM159.37,21.07v10.82h-6.67v1.44h-3.48v-12.26h10.15ZM159.27,11.17v3.27h-9.94v-3.27h9.94ZM149.33,19.28v-3.2h9.94v3.2h-9.94ZM159.2,1.33v3.27h-9.66V1.33h9.66ZM155.86,24.41h-3.16v4.14h3.16v-4.14ZM166.32,10.53l.81,3.13c-.75.35-1.88.89-3.41,1.62-1.12.52-1.94.9-2.46,1.16l-1.65-3.34c.65-.23,2.89-1.09,6.71-2.56ZM175.31,7.09v1.83c0,1.97.85,3.69,2.56,5.16,1.05.89,2.34,1.6,3.86,2.14-1.1,1.45-1.83,2.51-2.18,3.16-2.32-.82-4.12-2.29-5.41-4.42-.4-.68-.68-1.3-.84-1.86-.42,1.4-1.44,2.76-3.06,4.07-1.19.96-2.51,1.69-3.93,2.18-.47-.94-1.15-1.93-2.04-2.98,3.49-1.22,5.68-3.09,6.57-5.62.23-.63.35-1.24.35-1.83v-1.83h-.63c-.7,1.64-1.54,3.09-2.53,4.35-1.05-.87-2.08-1.58-3.09-2.14.54-.63,1.04-1.39,1.51-2.28h-5.76v-3.3h5.93v2.98c1.05-1.97,1.81-4.12,2.28-6.46l3.69.7c-.19.87-.43,1.8-.74,2.81h6.57l.56-.11,2.53.42c-.61,2.81-1.22,5.07-1.83,6.78l-3.09-.6c.3-1.1.56-2.15.77-3.16h-2.07ZM162.74,33.85v-13.91h15.98v13.8h-4.14v-1.44h-7.9v1.55h-3.93ZM174.58,23.67h-7.9v4.88h7.9v-4.88Z"/>
    <path class="st3" d="M197.6,6.18v3.37h-12.99v-3.37h12.99ZM196.72,21.07v10.85h-7.09v1.4h-3.51v-12.26h10.6ZM204.94,5.48h12.57s-.01.68-.04,1.97c-.16,11.54-.46,18.62-.88,21.25-.21,1.4-.52,2.39-.91,2.95-.77,1.05-1.74,1.69-2.91,1.9-.14.02-.28.05-.42.07-.91.16-2.74.2-5.48.11-.09-1.33-.5-2.63-1.23-3.9-.02-.07-.05-.12-.07-.14,1.43.12,3.08.18,4.95.18.63-.02,1.11-.23,1.44-.63.63-.7,1.05-4.03,1.26-9.97.07-2.39.14-5.67.21-9.83h-10.29c-.42.82-.97,1.76-1.65,2.81h9.06v13.98h-7.44v1.65h-3.55v-13.1l-.18.25c-.82-.82-1.72-1.58-2.7-2.28v1.72h-10.46v-3.27h10.46v.03c2.41-2.76,4.21-6.43,5.41-10.99l4.35.95c-.37,1.29-.88,2.73-1.51,4.32ZM196.69,16.08v3.2h-10.46v-3.2h10.46ZM196.58,1.33v3.27h-10.25V1.33h10.25ZM193.17,24.44h-3.55v4.14h3.55v-4.14ZM206.98,15.45h-3.86v2.18h3.86v-2.18ZM203.11,23h3.86v-2.32h-3.86v2.32Z"/>
    <path class="st3" d="M22.05,74.31h11.1v2.63H1.12v-2.63h18.16c1.71-4.38,3.23-9.63,4.56-15.77.12-.56.22-1.09.32-1.58l3.02.6c-1.59,6.34-3.3,11.93-5.13,16.75ZM32.1,52.72v2.56H2.32v-2.56h13.34v-7.02h2.74v7.02h13.7ZM13.13,71.86l-2.67.67c-.16-3.56-1.01-7.7-2.53-12.43-.28-.8-.55-1.55-.81-2.25l2.49-.63c1.71,4.21,2.83,8.57,3.37,13.06.07.56.12,1.09.14,1.58Z"/>
    <path class="st3" d="M46.55,66.69l2.14-1.05c2.29,2.86,4.1,5.71,5.41,8.57.21.47.39.89.53,1.26l-2.32,1.23c-.28-.84-.84-2.08-1.69-3.72-1.15.35-2.87.88-5.16,1.58-3.32,1.01-5.67,1.71-7.02,2.11l-.91-2.7c.19-.05,1.02-.27,2.49-.67v-25.71h13.27v16.33h-10.78v8.71c1.43-.37,3.7-1.01,6.81-1.9-.98-1.57-1.91-2.91-2.77-4.04ZM50.8,50.08h-8.29v4.53h8.29v-4.53ZM42.51,61.43h8.29v-4.46h-8.29v4.46ZM68.95,47.63v21.77c0,1.38-.32,2.29-.95,2.74-.14.07-.27.14-.39.21-.8.35-2.54.53-5.23.53-.14-.94-.46-1.91-.95-2.91,1.71.09,3.1.1,4.18.03.37-.14.58-.36.63-.67v-19.03h-7.58v28.2h-2.67v-30.87h12.96Z"/>
    <path class="st3" d="M90.57,59.32l-2.35,1.23c-.19-.51-.46-1.1-.81-1.76-1.8.49-4.45,1.21-7.94,2.14-2.04.54-3.48.92-4.32,1.16l-.74-2.56c.96-.21,2.01-.46,3.16-.74l-.35-10.92,2.28.67c3.84-1.01,6.59-1.92,8.25-2.74l1.83,1.93c-2.72,1.12-5.95,2.06-9.69,2.81l.32,7.62c.54-.14,1.36-.34,2.46-.6,1.54-.4,2.7-.69,3.48-.88-.73-1.08-1.6-2.17-2.63-3.27l2.14-1.12c1.97,2.01,3.48,4.07,4.53,6.18.16.3.29.59.39.84ZM79.16,78.49v-14.96h23.6v14.82h-2.63v-1.16h-18.44v1.3h-2.53ZM89.48,65.71h-7.8v3.55h7.8v-3.55ZM81.69,74.95h7.8v-3.65h-7.8v3.65ZM90.85,47.66h14.85s-.01.4-.04,1.12c-.28,5.99-.66,9.6-1.12,10.82-.14.35-.29.63-.46.84-.49.54-1.21.87-2.14.98-.8.07-2.13.06-4-.04-.09-.89-.34-1.67-.74-2.35,1.03.09,2.22.14,3.58.14.54.02.91-.09,1.12-.35.49-.56.87-3.5,1.12-8.81v-.07h-5.44c-.44,4.28-1.59,7.47-3.44,9.55-1.08,1.22-2.45,2.21-4.11,2.98-.28-.66-.76-1.26-1.44-1.83-.05-.02-.08-.05-.11-.07,2.97-1.29,4.92-3.51,5.83-6.67.33-1.12.57-2.45.74-3.97h-4.21v-2.28ZM100.12,69.26v-3.55h-8.11v3.55h8.11ZM92.01,74.95h8.11v-3.65h-8.11v3.65Z"/>
    <path class="st3" d="M143.58,50.96h-15.21v6.43l.49-.56c4.19,1.99,8.02,4.17,11.48,6.53.47.33.89.63,1.26.91l-1.86,2.42c-2.46-2.01-6.02-4.27-10.68-6.78-.26-.14-.49-.27-.7-.39v18.93h-2.81v-27.5h-13.77v-2.63h31.78v2.63Z"/>
    <path class="st3" d="M156.49,45.66l2.32.77c-.94,1.78-1.97,3.44-3.09,4.99v14.68h-2.6v-11.52c-1.12,1.26-2.34,2.44-3.65,3.51-.42-.66-1-1.35-1.72-2.07,3.04-2.29,5.62-5.15,7.73-8.57.37-.61.71-1.21,1.02-1.79ZM150.28,77.33l-2.18-1.51c2.39-1.52,4.04-4.04,4.95-7.55l2.35.81c-1.1,3.96-2.81,6.71-5.13,8.25ZM162.22,75.47h6.6c.8,0,1.31-.23,1.54-.7.21-.51.35-1.63.42-3.34.58.47,1.39.82,2.42,1.05-.19,2.41-.64,3.94-1.37,4.6-.59.51-1.53.77-2.84.77h-6.95c-2.18,0-3.55-.36-4.11-1.09-.37-.52-.56-1.32-.56-2.42v-6.5h2.67v6.5c0,.56.2.89.6.98.3.09.83.14,1.58.14ZM168.33,51.56h-5.02c-1.24,1.92-2.45,3.45-3.62,4.6-.61-.66-1.29-1.21-2.04-1.65,2.43-2.11,4.32-4.95,5.65-8.53.05-.09.08-.19.11-.28l2.46.6c-.28.77-.7,1.74-1.26,2.91h13.59l.42-.07,1.9.49c-1.55,3.58-2.49,5.71-2.84,6.39l-1.83-.35c1.52,2.18,2.68,4.31,3.48,6.39l-2.35,1.09c-.91-2.43-2.22-4.92-3.93-7.44-.07-.12-.13-.21-.18-.28l2.18-.91.49.67c.7-1.48,1.22-2.68,1.55-3.62h-6.22v11.69c0,1.15-.29,1.9-.88,2.25-.12.07-.23.13-.35.18-.82.28-2.38.42-4.67.42-.14-.77-.42-1.56-.84-2.35,1.1.02,2.29.04,3.58.04.4-.12.61-.29.63-.53v-11.69ZM163.27,54.68l2.49.6c-1.15,2.9-2.7,5.37-4.67,7.41-.02.02-.05.05-.07.07-.52-.4-1.25-.87-2.21-1.4,1.9-1.73,3.38-3.96,4.46-6.67ZM168.57,69.54l-1.93,1.76c-1.19-1.4-2.96-2.75-5.3-4.04-.33-.19-.63-.35-.91-.49l1.79-1.58c2.32,1.1,4.27,2.39,5.86,3.86.19.19.35.35.49.49ZM172.19,68.94l2.18-1.26c2.55,2.2,4.54,4.46,5.97,6.78.23.4.43.77.6,1.12l-2.39,1.37c-.87-1.99-2.42-4.13-4.67-6.43-.59-.58-1.15-1.11-1.69-1.58Z"/>
    <path class="st3" d="M192.12,45.59l2.88.53c-.75,2.2-1.38,3.97-1.9,5.3h5.97v23.32h-9.97v2.84h-2.46v-26.16h4.04c.75-2.46,1.23-4.4,1.44-5.83ZM196.65,61.32v-7.52h-7.55v7.52h7.55ZM189.1,72.35h7.55v-8.64h-7.55v8.64ZM216.67,51.31v1.37c-.4,11.28-.87,18.27-1.4,20.96-.28,1.29-.63,2.19-1.05,2.7-.66.84-1.56,1.32-2.7,1.44h-.14c-1.03.12-2.81.11-5.34-.04-.09-.91-.4-1.78-.91-2.6,1.57.14,3.35.21,5.34.21.7-.02,1.19-.21,1.48-.56.8-.84,1.37-4.3,1.72-10.36.16-2.69.32-6.25.46-10.68h-9.13c-1.17,2.76-2.29,4.87-3.37,6.32-.35-.33-1.08-.83-2.18-1.51,2.32-3.02,4.14-7.37,5.48-13.06l2.56.6c-.42,1.73-.94,3.46-1.54,5.2h10.75ZM210.98,67.47l-2.25,1.4c-1.1-2.13-2.93-4.89-5.48-8.29l2.11-1.23c2.6,3.35,4.47,6.05,5.62,8.11Z"/>
    <path class="st3" d="M234.67,49.63h-2.04v28.87h-2.28v-6.95c-3.42.77-6.16,1.36-8.22,1.76l-.46-2.46c.23-.05.58-.12,1.05-.21.51-.09.91-.16,1.19-.21v-20.79h-1.86v-2.42h12.61v2.42ZM230.35,54.68v-5.06h-4.11v5.06h4.11ZM226.24,56.93v5.13h4.11v-5.13h-4.11ZM226.24,69.99l4.11-.81v-4.92h-4.11v5.72ZM240.43,57.21l1.72-.6c1.17,1.87,1.92,3.59,2.25,5.16l-1.76.67c-.09-.47-.2-.89-.32-1.26-1.17.09-2.87.25-5.09.46-1.4.14-2.42.23-3.05.28l-.28-2.04,2.04-.14c.77-1.08,1.57-2.32,2.39-3.72-1.03-1.48-2.33-2.89-3.9-4.25l1.23-1.51c.35.28.64.52.88.7.94-1.69,1.72-3.44,2.35-5.27l2.25.74c-.21.38-.54.97-.98,1.79-1.05,1.92-1.83,3.24-2.32,3.97.73.73,1.26,1.32,1.62,1.79.61-1.12,1.25-2.45,1.93-3.97l2.07.74c-2.08,3.79-3.86,6.74-5.34,8.85l3.44-.28c-.3-.68-.68-1.38-1.12-2.11ZM240.43,68.41v-5.69h2.21v5.72c0,3.04-.6,5.37-1.79,6.99-.94,1.24-2.25,2.28-3.93,3.12-.3-.61-.76-1.19-1.37-1.76,2.41-1.24,3.92-2.93,4.53-5.06h-2.88v1.62h-2.07v-9.34h2.07v5.76h3.2c.02-.33.04-.78.04-1.37ZM254.9,62.06l-1.83.67c-.16-.7-.33-1.25-.49-1.65-4.45.45-7.06.7-7.83.77l-.35-2.04,1.65-.11c.61-.84,1.39-2.07,2.35-3.69-1.1-1.57-2.47-3.01-4.11-4.32l1.23-1.58c.58.47.92.74,1.02.81.96-1.73,1.74-3.48,2.35-5.23l2.32.74c-1.9,3.3-2.95,5.12-3.16,5.44-.07.12-.14.22-.21.32.51.49,1.05,1.11,1.62,1.86.77-1.4,1.45-2.77,2.04-4.11l2.18.77c-2.18,3.89-3.99,6.84-5.44,8.85l3.55-.28c-.35-.75-.75-1.46-1.19-2.14l1.72-.63c1.4,2.08,2.27,3.93,2.6,5.55ZM251.28,69.78v-5.76h2.07v9.24h-2.07v-1.51h-3.48v6.74h-2.21v-15.84h2.21v7.13h3.48Z"/>
    <path class="st3" d="M260.5,66.06l2.32.42c-.56,3.86-1.42,6.91-2.56,9.13-.56-.42-1.25-.76-2.07-1.02,1.1-2.01,1.87-4.86,2.32-8.53ZM287.79,49.03l1.65.95c-1.26,3.32-3.15,6.3-5.65,8.92,2.69,2.11,5.54,3.69,8.53,4.74-.68.61-1.26,1.32-1.76,2.14-2.97-1.19-5.82-2.91-8.53-5.16-2.18,1.92-4.52,3.5-7.02,4.74h14.26v13.13h-2.6v-1.72h-10.04v1.76h-2.49v-12.75c-.14.05-.36.14-.67.28-.3.16-.53.27-.67.32-.42-.73-.8-1.26-1.12-1.62l-1.47.67c-.09-.37-.32-1.04-.67-2l-2.81.18v14.96h-2.35v-14.82c-2.48.12-4.37.22-5.65.32l-.21-2.35,2.35-.11c.63-.82,1.43-1.93,2.39-3.34-1.17-1.69-2.72-3.38-4.64-5.09l1.37-1.72c.26.21.61.52,1.05.91,1.12-1.85,2.2-4.07,3.23-6.67l2.32.95c-1.73,3.35-3.08,5.75-4.04,7.2.63.66,1.32,1.44,2.07,2.35,1.26-2.01,2.47-4.16,3.62-6.43l2.28.98c-2.55,4.24-4.94,7.81-7.16,10.71l5.3-.21c-.44-.98-1-2.06-1.65-3.23l1.86-.74c1.45,2.27,2.5,4.47,3.16,6.6,3.09-1.29,5.81-2.94,8.15-4.95-1.45-1.4-2.8-3.02-4.04-4.85-1.17,1.4-2.48,2.72-3.93,3.93-.59-.73-1.19-1.29-1.83-1.69,3.21-2.5,5.72-5.68,7.55-9.52.19-.4.35-.77.49-1.12l2.63.42c-.3.68-.82,1.69-1.54,3.02h7.8l.49-.11ZM267.91,66.45l1.93-.67c1.15,2.36,1.92,4.55,2.32,6.57l-2.04.67c-.4-2.04-1.14-4.23-2.21-6.57ZM286.66,67.68h-10.04v6.78h10.04v-6.78ZM278.02,51.52l-.39.56c1.15,1.85,2.58,3.59,4.28,5.23,1.64-1.73,3-3.66,4.07-5.79h-7.97Z"/>
    <path class="st3" d="M306.31,53.46l.25,1.93c-.77.23-4.13,1.18-10.08,2.84l-.91-2.18c.94-.21,4.52-1.08,10.75-2.6ZM306.56,73.12l2.42,1.16c-2.86,1.64-6.51,3.08-10.96,4.32-1.01-1.08-1.67-1.74-2-2,4.64-.98,8.15-2.14,10.54-3.48ZM306.1,48.26v2.14h-9.31v-2.14h9.31ZM300.55,72.77v-14.43h23.28v14.43h-23.28ZM303.15,60.16v2.39h18.01v-2.39h-18.01ZM303.15,64.27v2.49h18.01v-2.49h-18.01ZM303.15,68.48v2.53h18.01v-2.53h-18.01ZM315.27,50.29h-3.79c-.96,1.17-2.02,2.21-3.2,3.13-.61-.58-1.29-1.03-2.04-1.33,2.48-1.73,4.3-3.87,5.44-6.43l2.39.39c-.3.68-.7,1.43-1.19,2.25h12.29l.42-.11,1.79.53c-1.29,2.27-2.48,3.97-3.58,5.09l-2.18-.74c.82-.75,1.56-1.67,2.21-2.77h-5.76c.61,2.11,1.99,3.69,4.14,4.74,1.55.77,3.56,1.35,6.04,1.72-.56.59-1.02,1.31-1.37,2.18-4.99-.89-8.29-2.77-9.9-5.65-.07-.12-.13-.22-.18-.32-1.15,2.15-3.32,3.72-6.53,4.71-.82.23-1.7.44-2.63.63-.23-.58-.66-1.22-1.26-1.9,3.79-.68,6.33-1.84,7.62-3.48.56-.73.98-1.6,1.26-2.63ZM314.95,74.6l2.18-1.37c4.66,1.5,8.26,2.83,10.82,4l-2.95,1.33c-2.27-1.17-5.62-2.49-10.04-3.97Z"/>
    <path class="st3" d="M345.66,51.63v2.18h-13.31v-2.18h13.31ZM344.47,76.42h-8.15v1.69h-2.35v-12.04h10.5v10.36ZM344.43,56.48v2.14h-10.43v-2.14h10.43ZM334.01,63.39v-2.18h10.43v2.18h-10.43ZM344.36,46.92v2.14h-10.22v-2.14h10.22ZM342.19,68.24h-5.86v6.04h5.86v-6.04ZM346.37,47.45v2.53h4.46v10.64h-4.85v2.46h4.85v15.17h2.53v-15.17h4.74v-2.46h-4.74v-10.64h5.97c0,3.7,0,7.17.02,10.41.01,3.24.12,6.09.33,8.55.21,2.46.55,4.45,1.02,5.97s1.15,2.42,2.04,2.7c.3.12.56.18.77.18.61,0,1.12-.43,1.54-1.28.42-.85.71-2.32.88-4.41-.19-.19-.44-.47-.75-.86-.32-.39-.58-.76-.79-1.11-.02.66-.06,1.28-.12,1.86-.06.59-.11,1.11-.16,1.56s-.1.81-.16,1.07c-.06.26-.12.37-.19.35-.33-.09-.6-.5-.83-1.21-.22-.71-.4-1.69-.54-2.93-.14-1.24-.25-2.7-.32-4.37s-.11-3.52-.12-5.53c-.01-2.01,0-4.16.02-6.44.02-2.28.05-4.63.07-7.04h-15.66Z"/>
    <path class="st3" d="M28.94,105.51l2.35.95c-1.64,3.07-3.72,5.89-6.25,8.46,1.47,4.03,3.07,6.05,4.78,6.08.75,0,1.24-1.3,1.48-3.9.07-.73.13-1.57.18-2.53.73.7,1.47,1.18,2.25,1.44-.3,3.61-.89,5.86-1.76,6.78-.59.58-1.38.88-2.39.88-2.67-.05-4.88-2.29-6.64-6.74-2.53,2.22-5.06,3.99-7.58,5.3-.49-.77-1.1-1.48-1.83-2.11,3.14-1.55,5.97-3.49,8.5-5.83-.87-2.95-1.53-6.43-2-10.43h-8.46v5.76c.7-.16,1.78-.4,3.23-.7,1.45-.33,2.53-.56,3.23-.7l.18,2.39c-1.94.47-4.16.98-6.64,1.54v8.01c0,1.43-.39,2.35-1.16,2.77-.14.07-.27.13-.39.18-.91.33-2.9.49-5.97.49-.16-.82-.49-1.72-.98-2.7,2.11.09,3.78.11,5.02.04.54-.14.83-.41.88-.81v-7.3c-1.03.21-2.51.54-4.42.98-1.4.3-2.41.53-3.02.67l-.77-2.7c.84-.14,3.58-.68,8.22-1.62v-6.29H1.23v-2.56h7.73v-5.72c-2.39.44-4.6.81-6.64,1.09-.19-.82-.47-1.57-.84-2.25,6.3-.98,11.03-2.06,14.19-3.23l1.9,2.21c-1.92.66-3.92,1.21-6,1.65v6.25h8.25c-.3-3.28-.48-6.7-.53-10.25h2.74c0,3.4.15,6.81.46,10.25h10.57v2.56h-10.29c.33,2.83.82,5.56,1.47,8.18,1.92-2.08,3.49-4.26,4.71-6.53ZM32.17,97.68l-2.14,1.54c-1.15-1.71-2.83-3.58-5.06-5.62-.21-.19-.41-.36-.6-.53l2.04-1.37c2.34,1.99,4.19,3.88,5.55,5.65.07.12.14.22.21.32Z"/>
    <path class="st3" d="M44.44,90.93l2.46.7c-.87,2.53-1.8,4.86-2.81,6.99v24.93h-2.53v-20.16c-1.19,1.97-2.33,3.58-3.41,4.85-.4-1.03-.85-1.93-1.37-2.7,2.81-3.25,5.14-7.47,6.99-12.64.26-.68.48-1.33.67-1.97ZM57.05,92.79v12.99h-7.13v17.7h-2.46v-30.69h9.59ZM54.94,94.94h-5.02v3.27h5.02v-3.27ZM49.92,103.72h5.02v-3.51h-5.02v3.51ZM69.2,92.79v27.25c0,1.43-.38,2.35-1.12,2.77-.14.09-.29.16-.46.21-.98.33-3.21.49-6.67.49-.16-.77-.47-1.63-.91-2.56,2.79.07,4.69.08,5.72.04.56-.16.87-.49.91-.98v-14.22h-7.44v-12.99h9.97ZM66.67,94.94h-5.27v3.27h5.27v-3.27ZM61.4,103.72h5.27v-3.51h-5.27v3.51Z"/>
    <path class="st3" d="M82.71,100.94v-10.18h2.42v32.8h-2.42v-12.57h-3.97v.88c-.02,4.99-.89,8.91-2.6,11.76-.49-.52-1.17-.95-2.04-1.3,1.5-2.5,2.25-6.02,2.25-10.53v-.81h-1.93v-2.32h8.29v-5.3h-6.74v-11.03h2.35v8.6h4.39ZM104.34,93.39l1.62.84c-2.11,5.2-6.25,9.24-12.43,12.12-1.8.82-3.71,1.51-5.72,2.07-.33-.73-.78-1.4-1.37-2.04,2.46-.56,4.78-1.39,6.95-2.49-1.19-1.29-2.7-2.61-4.53-3.97-.89.47-1.43.75-1.62.84-.56-.66-1.12-1.19-1.69-1.62,3.56-1.55,6.54-3.65,8.95-6.32.63-.7,1.17-1.38,1.62-2.04l2.56.7c-.54.8-1.08,1.48-1.62,2.04h6.85l.42-.14ZM107.15,108.88v2.39h-4.56v9.17c0,1.33-.36,2.19-1.09,2.56-.09.07-.19.12-.28.14-.82.3-2.73.46-5.72.46-.16-1.01-.43-1.86-.81-2.56,2.25.07,3.79.08,4.64.03.44-.16.69-.37.74-.63v-9.17h-13.7v-2.39h13.7v-4.67h2.53v4.67h4.56ZM88.82,113.79l2.04-1.19c2.11,1.99,3.56,3.73,4.35,5.23l-2.18,1.33c-.91-1.69-2.2-3.36-3.86-5.02-.12-.14-.23-.26-.35-.35ZM90.64,98.83c1.85,1.26,3.38,2.6,4.6,4,.8-.47,1.7-1.09,2.7-1.86-1.4-1.38-3.02-2.65-4.85-3.79-1.36.94-2.18,1.49-2.46,1.65ZM95.14,95.46l-.53.49c2.04,1.19,3.66,2.41,4.88,3.65,1.33-1.33,2.4-2.72,3.2-4.14h-7.55Z"/>
    <path class="st3" d="M143.55,106.95h-6.53c-1.1,3.91-2.87,7.07-5.3,9.48,4.12,1.69,7.48,3.34,10.08,4.95l-1.93,2.25c-2.51-1.69-5.98-3.46-10.43-5.34-3.49,2.48-8.53,4.26-15.14,5.34-.3-.73-.81-1.5-1.51-2.32l-.11-.11c5.97-.73,10.59-2.07,13.87-4.04-2.81-1.12-5.15-1.95-7.02-2.49-.42.7-.73,1.21-.91,1.51l-2.7-.74c1.38-2.32,2.95-5.15,4.71-8.5h-8.78v-2.53h10.11c1.05-2.11,2-4.04,2.84-5.79l2.74.63c-.7,1.45-1.56,3.17-2.56,5.16h18.58v2.53ZM115.6,97.01v5.2h-2.7v-7.69h13.31v-3.79h2.77v3.79h13.66v7.69h-2.77v-5.2h-24.27ZM133.96,106.95h-10.29c-1.36,2.58-2.36,4.44-3.02,5.58,2.88.87,5.65,1.8,8.32,2.81,2.34-2.06,4-4.86,4.99-8.39Z"/>
    <path class="st3" d="M159.06,108.35l-3.9,1.3v10.82c0,1.33-.38,2.2-1.12,2.6-.05.02-.08.04-.11.04-.8.33-2.28.48-4.46.46-.16-.87-.43-1.69-.81-2.46,1.76.05,2.89.05,3.41,0,.37-.12.57-.33.6-.63v-10.04l-4.28,1.4-.67-2.6c.33-.09,1.98-.58,4.95-1.48v-7.37h-4.5v-2.42h4.5v-7.2h2.49v7.2h3.83v2.42h-3.83v6.64c.51-.14,1.26-.39,2.25-.74.58-.19,1.02-.33,1.3-.42l.35,2.49ZM165.41,96.83v-6.11h2.35v15.06c0,4.82-.55,8.53-1.65,11.13-1.17,2.69-3.05,4.92-5.65,6.67-.52-.63-1.14-1.23-1.86-1.79,2.97-1.97,4.96-4.64,5.97-8.01-.89.35-2.82,1.07-5.79,2.14l-1.05-2.35c1.9-.47,4.34-1.21,7.34-2.21.19-1.4.3-2.95.35-4.64h-5.65v-2.42h5.65v-5.02h-5.9v-2.46h5.9ZM180.93,112.07v2.46h-6.88v8.99h-2.53v-32.8h2.53v6.11h6.29v2.46h-6.29v5.02h5.9v2.42h-5.9v5.34h6.88Z"/>
    <path class="st3" d="M217.62,113.37v2.18h-8.57v5.16c0,1.17-.32,1.92-.95,2.25-.16.09-.33.16-.49.21-.82.26-2.75.39-5.79.39-.12-.75-.4-1.52-.84-2.32,2.32.07,3.91.08,4.78.04.44-.12.68-.33.7-.63v-5.09h-13.62c2.39,1.4,4.3,2.82,5.72,4.25.07.07.13.13.18.18l-1.9,1.79c-1.29-1.45-3.23-2.98-5.83-4.6-.05-.02-.08-.05-.1-.07l1.76-1.55h-7.44v-2.18h21.25v-2.21c-6.81.19-13.39.33-19.74.42l-.1-2.11c3.84,0,8.31-.03,13.41-.1v-1.97h-10.99v-9.73h10.99v-2.04h-13.77v-2.14h13.77v-2.7h2.6v2.7h13.56v2.14h-13.56v2.04h11.34v9.73h-4.14c2.69,1.08,4.83,2.24,6.43,3.48l-1.58,1.51c-.63-.51-1.32-1-2.07-1.44l-3.55.11v2.32h8.57ZM191.52,99.5v2.14h8.5v-2.14h-8.5ZM191.52,105.61h8.5v-2.25h-8.5v2.25ZM211.36,99.5h-8.74v2.14h8.74v-2.14ZM211.36,105.61v-2.25h-8.74v2.25h8.74ZM202.62,107.4v1.97l6.78-.11c-1.19-.54-2.1-.9-2.7-1.09l.84-.77h-4.92Z"/>
    <path class="st3" d="M253.91,115.02h-11.94c2.83,2.25,6.47,3.98,10.92,5.2.66.19,1.3.35,1.93.49-.82.77-1.42,1.57-1.79,2.39-4.4-1.26-8.28-3.18-11.62-5.76-.7-.54-1.33-1.08-1.9-1.62v7.83h-2.63v-7.66c-2.88,2.62-6.67,4.75-11.38,6.39-.7.26-1.38.48-2.04.67-.4-.75-.97-1.5-1.72-2.25,4.17-.96,7.88-2.49,11.13-4.6.56-.37,1.08-.74,1.54-1.09h-11.73v-2.25h14.19v-2.67h-10.82v-2.07h10.82v-2.6h-12.61v-2.21h7.83c-.3-1.05-.89-2.25-1.76-3.58l1.26-.25h-8.78v-2.32h5.72c-.47-1.33-1.42-3.07-2.84-5.2l2.25-.77c1.43,1.87,2.45,3.64,3.06,5.3l-1.83.67h4.42v-6.36h2.49v6.36h4.25v-6.36h2.53v6.36h4.35l-1.33-.42c1.05-1.69,1.97-3.51,2.74-5.48l2.74.74c-1.36,2.44-2.41,4.16-3.16,5.16h5.55v2.32h-7.16c-.59,1.12-1.33,2.4-2.25,3.83h8.18v2.21h-13.03v2.6h11.24v2.07h-11.24v2.67h14.4v2.25ZM243.62,99.4h-10.57c.84,1.19,1.44,2.39,1.79,3.58l-1.16.25h8.46l-.39-.11c.84-1.5,1.46-2.74,1.86-3.72Z"/>
    <path class="st3" d="M275.92,121.2h-9.94v1.97h-2.07v-10.29c-.09.09-.22.26-.39.49-.19.21-.32.36-.39.46-.07-.07-.21-.21-.42-.42-.19-.19-.33-.32-.42-.39-.42,4.1-1.14,7.47-2.14,10.11-.33-.52-.87-.97-1.62-1.37-.09-.07-.18-.12-.25-.14,1.4-3.98,2.11-9.79,2.11-17.42v-11.38l1.58.46c4.64-.42,8.3-1.03,10.99-1.83l1.86,1.79c-2.97.89-7.01,1.53-12.12,1.93v1.86h12.64v7.41h-12.64c0,2.25-.08,4.53-.25,6.85,1.31-1.87,2.31-4.05,2.98-6.53l2,.53c-.19.68-.52,1.58-.98,2.7h3.06c.66-1.5,1.04-2.55,1.16-3.16l2.11.67c-.16.35-.41.85-.74,1.51-.23.45-.4.77-.49.98h4.11v1.86h-4.28v1.97h3.9v1.69h-3.9v2h3.97v1.76h-3.97v2h4.53v1.93ZM272.97,99.19h-10.25v3.16h10.25v-3.16ZM269.45,111.83v-1.97h-3.48v1.97h3.48ZM269.45,115.51v-2h-3.48v2h3.48ZM269.45,119.27v-2h-3.48v2h3.48ZM280.83,117.66l2.21,1.26c-1.69,1.78-3.66,3.29-5.94,4.53-.12.07-.23.13-.35.18-.42-.49-1.01-1.04-1.76-1.65,2.01-.96,3.77-2.2,5.27-3.72.21-.21.4-.41.56-.6ZM277.5,98.06h4.28c.28-1.64.44-2.74.49-3.3h-5.83v-2.32h14.71v2.32h-6.18c-.07.3-.18.77-.32,1.4-.21.87-.35,1.5-.42,1.9h6.11v18.65h-12.85v-18.65ZM288.07,103.61v-3.44h-8.36v3.44h8.36ZM288.07,109.09v-3.48h-8.36v3.48h8.36ZM288.07,114.6v-3.55h-8.36v3.55h8.36ZM285.22,118.96l1.93-1.23c2.04,1.64,3.63,3.15,4.78,4.53l-2,1.37c-1.15-1.45-2.72-3.01-4.71-4.67Z"/>
    <path class="st3" d="M310.32,104.84h-10.29v18.75h-2.63v-31.32h12.92v12.57ZM307.75,94.41h-7.73v3.02h7.73v-3.02ZM300.03,102.7h7.73v-3.27h-7.73v3.27ZM318.5,118.5h-10.92v2.18h-2.46v-12.64h13.38v10.46ZM316.04,110.32h-8.46v5.94h8.46v-5.94ZM326.75,92.27v27.67c0,1.59-.46,2.61-1.37,3.06-.07.05-.14.08-.21.11-.94.3-3.08.46-6.43.46-.16-.89-.48-1.8-.95-2.74,2.13.09,3.92.11,5.37.04.56-.09.85-.4.88-.91v-15.1h-10.54v-12.57h13.24ZM324.05,94.37h-7.97v3.06h7.97v-3.06ZM316.07,102.73h7.97v-3.3h-7.97v3.3Z"/>
    <path class="st3" d="M361.43,112.81h3.72v2.49h-32.59v-2.49h3.72l-.7-19.56,1.79.53c2.08-1.03,3.69-1.93,4.81-2.7l2.07,1.9c-1.36.73-3.41,1.65-6.15,2.77l.14,3.83h4.85v2.25h-4.78l.14,4.39h4.67v2.28h-4.56l.14,4.32h6.18v-8.36h2.25v8.36h3.44v-9.94h-5.65v-11.83h2.35v3.69h6.32v2.25h-6.32v3.76h5.65v12.08h5.97c.07-1.01.15-2.45.25-4.32h-4.53v-2.28h4.64c0-.47.02-1.18.07-2.14.02-1.01.05-1.76.07-2.25h-4.71v-2.25h4.74c.05-1.92.07-3.34.07-4.25h-5.16v-2.32h7.66c-.05,6.91-.23,13.51-.56,19.81ZM342.82,115.9l2.49,1.58c-2.69,2.13-5.97,4.08-9.83,5.86-.21.12-.41.21-.6.28-.7-.75-1.38-1.38-2.04-1.9,3.3-1.36,6.22-2.96,8.74-4.81.47-.37.88-.71,1.23-1.02ZM352.12,117.59l1.97-1.76c4.1,1.94,7.71,3.94,10.85,6l-2.49,1.83c-2.76-2.01-6.2-4.04-10.32-6.07Z"/>
    <path class="st3" d="M377.64,90.72l2.32.77c-.94,1.78-1.97,3.44-3.09,4.99v14.68h-2.6v-11.52c-1.12,1.26-2.34,2.44-3.65,3.51-.42-.66-1-1.35-1.72-2.07,3.04-2.29,5.62-5.15,7.73-8.57.37-.61.71-1.21,1.02-1.79ZM371.42,122.4l-2.18-1.51c2.39-1.52,4.04-4.04,4.95-7.55l2.35.81c-1.1,3.96-2.81,6.71-5.13,8.25ZM383.36,120.54h6.6c.8,0,1.31-.23,1.54-.7.21-.51.35-1.63.42-3.34.58.47,1.39.82,2.42,1.05-.19,2.41-.64,3.94-1.37,4.6-.59.51-1.53.77-2.84.77h-6.95c-2.18,0-3.55-.36-4.11-1.09-.37-.52-.56-1.32-.56-2.42v-6.5h2.67v6.5c0,.56.2.89.6.98.3.09.83.14,1.58.14ZM389.47,96.62h-5.02c-1.24,1.92-2.45,3.45-3.62,4.6-.61-.66-1.29-1.21-2.04-1.65,2.43-2.11,4.32-4.95,5.65-8.53.05-.09.08-.19.11-.28l2.46.6c-.28.77-.7,1.74-1.26,2.91h13.59l.42-.07,1.9.49c-1.55,3.58-2.49,5.71-2.84,6.39l-1.83-.35c1.52,2.18,2.68,4.31,3.48,6.39l-2.35,1.09c-.91-2.43-2.22-4.92-3.93-7.44-.07-.12-.13-.21-.18-.28l2.18-.91.49.67c.7-1.48,1.22-2.68,1.55-3.62h-6.22v11.69c0,1.15-.29,1.9-.88,2.25-.12.07-.23.13-.35.18-.82.28-2.38.42-4.67.42-.14-.77-.42-1.56-.84-2.35,1.1.02,2.29.04,3.58.04.4-.12.61-.29.63-.53v-11.69ZM384.42,99.75l2.49.6c-1.15,2.9-2.7,5.37-4.67,7.41-.02.02-.05.05-.07.07-.52-.4-1.25-.87-2.21-1.4,1.9-1.73,3.38-3.96,4.46-6.67ZM389.72,114.6l-1.93,1.76c-1.19-1.4-2.96-2.75-5.3-4.04-.33-.19-.63-.35-.91-.49l1.79-1.58c2.32,1.1,4.27,2.39,5.86,3.86.19.19.35.35.49.49ZM393.34,114l2.18-1.26c2.55,2.2,4.54,4.46,5.97,6.78.23.4.43.77.6,1.12l-2.39,1.37c-.87-1.99-2.42-4.13-4.67-6.43-.59-.58-1.15-1.11-1.69-1.58Z"/>
    <path class="st3" d="M438.9,105.26h-11.31c-.19.45-.5,1.12-.95,2.04-.3.68-.54,1.18-.7,1.51h12.82v2.25h-4.28c-.66,2.81-1.74,5.07-3.27,6.78,2.88,1.26,5.17,2.49,6.88,3.69l-1.69,2.07c-1.8-1.31-4.2-2.65-7.2-4-2.76,1.94-6.84,3.27-12.22,3.97-.26-.94-.61-1.69-1.05-2.25,4.66-.47,8.22-1.43,10.68-2.88-2.06-.8-3.58-1.36-4.57-1.69l-.56,1.02-2.32-.84c.77-1.38,1.77-3.34,2.98-5.86h-5.34v-1.97l-3.12.98v10.25c0,1.31-.34,2.18-1.02,2.6-.09.05-.16.08-.21.11-.84.35-2.42.51-4.74.49-.16-1.01-.42-1.86-.77-2.56,1.69.07,2.87.08,3.55.04.35-.14.55-.36.6-.67v-9.48l-4.81,1.48-.6-2.56c.94-.23,2.74-.74,5.41-1.51v-7.87h-4.81v-2.42h4.81v-7.2h2.6v7.2h3.48v2.42h-3.48v7.09l3.44-1.02.35,2.35h5.69c.63-1.38,1.15-2.56,1.54-3.55h-8.08v-2.35h6.25c-.26-1.94-.74-3.85-1.44-5.72l1.72-.35h-5.09v-2.28h8.5v-3.83h2.6v3.83h8.71v2.28h-4.53l1.3.18c-.94,2.67-1.69,4.64-2.25,5.9h6.5v2.35ZM431.81,111.05h-6.92c-.33.7-.95,1.94-1.86,3.72,2.01.59,3.92,1.25,5.72,2,1.45-1.47,2.47-3.38,3.05-5.72ZM431.99,96.83h-8.22c.84,1.99,1.36,3.93,1.55,5.83l-.98.25h6.5l-.84-.14c.84-2.06,1.51-4.04,2-5.93Z"/>
    <path class="st3" d="M451.01,104.28l-1.48,2.21c-1.52-1.29-3.69-2.57-6.5-3.86-.05-.02-.08-.04-.11-.04l1.44-1.93c2.72,1.08,4.87,2.24,6.46,3.48.07.05.13.09.18.14ZM446.34,123.03l-2.25-1.72c2.2-3.39,4.33-7.22,6.39-11.48l1.97,1.69c-1.76,3.77-3.79,7.61-6.11,11.52ZM452.9,94.97l-1.58,2.11c-1.36-1.29-3.35-2.59-5.97-3.9-.19-.09-.36-.18-.53-.25l1.48-1.9c2.67,1.15,4.79,2.39,6.36,3.72.09.07.18.14.25.21ZM462.42,90.9h2.6c2.08,3.51,4.72,6.64,7.9,9.38,1.12.96,2.2,1.76,3.23,2.39-.7.84-1.24,1.64-1.62,2.39-3.14-2.2-6-4.99-8.6-8.36-.82-1.05-1.52-2.07-2.11-3.06-1.69,3.28-4.13,6.36-7.34,9.24-1.05.96-2.12,1.81-3.2,2.56-.3-.73-.82-1.48-1.54-2.25,3-1.97,5.72-4.67,8.18-8.11,1.03-1.45,1.86-2.84,2.49-4.18ZM455.4,123.52v-14.43h17.28v14.29h-2.67v-1.44h-12.01v1.58h-2.6ZM457.29,102.35h13.52v2.42h-13.52v-2.42ZM470,111.51h-12.01v8.01h12.01v-8.01Z"/>
  </g>
  <path class="st0" d="M1062.46,354.1l-.02-446.6c-125.67-64.35-146.94,25.29-220.15,8.83-94.1-21.16-135.74-10.14-179.25,114.04-43.51,124.17-179.03,93.27-186.51,195.17-.1,1.41-.19,2.8-.25,4.18-2.74,58.62,38.11,108.63,93.05,121.29,8.77,2.02,17.89,3.09,27.25,3.09h465.89Z"/>
</svg>