<?xml version="1.0" encoding="UTF-8"?>
<svg id="_圖層_1" xmlns="http://www.w3.org/2000/svg" version="1.1" viewBox="0 0 442.92 106.13">
  <!-- Generator: Adobe Illustrator 29.6.1, SVG Export Plug-In . SVG Version: 2.1.1 Build 9)  -->
  <defs>
    <style>
      .st0 {
        fill: #fff;
      }
    </style>
  </defs>
  <path class="st0" d="M11.73,11.41h92.29l-5.87,88.75h-13.72l.41-6.22H19.46l-.47,7.07H5.81L11.73,11.41ZM20.29,81.3h65.38l1.35-20.37c-.94,1.22-2.22,2.18-3.84,2.89-1.92.86-4.16,1.29-6.73,1.29h-7.07c-3.5-.07-6.26-1.03-8.28-2.89-1.61-1.64-2.37-4.75-2.28-9.33.05-.79.11-1.61.16-2.47l1.75-26.48h-9.43c-1.77,14.86-4.76,25.98-8.96,33.34-3.31,5.79-7.77,10.5-13.37,14.15-1.56-3.5-3.89-6.61-6.99-9.33-.21-.14-.34-.25-.41-.32l-1.29,19.51h0ZM38.45,23.95h-14.36l-2.49,37.62c7.09-4.5,11.85-11.72,14.29-21.65.98-4,1.83-9.33,2.56-15.97ZM87.94,47.11l1.53-23.15h-16.19l-1.77,26.8c-.11,1.65-.03,2.64.23,3,.55.36,1.11.54,1.68.54h2.89c.93,0,1.61-.11,2.06-.32.6-.5,1.05-1.29,1.33-2.36.38-1.43.79-4.39,1.23-8.9,1.46,1.65,3.8,3.11,7,4.4h0Z"/>
  <path class="st0" d="M214.05,44.64h-38.7c6.16,22.44,18.08,37.77,35.76,45.98.76.36,1.49.68,2.19.96-3.32,2.64-6.6,6.39-9.86,11.25-.24.43-.44.79-.61,1.07-17.45-8.43-29.97-23.4-37.55-44.91-.18-.57-.35-1.11-.54-1.61-8.33,21.22-23.05,36.77-44.14,46.63-2.15-4.29-5.05-7.9-8.72-10.83-.14-.07-.24-.14-.31-.21,22.07-9.57,36.43-25.69,43.07-48.34h-37.84l.89-13.51h39.98c.92-5.29,1.92-15.04,3.01-29.26h14.36c-.94,12.08-2.05,21.83-3.33,29.26h43.2l-.89,13.51h.03Z"/>
  <path class="st0" d="M267.53,5.62l-5.58,84.36c-.36,5.5-1.72,9.18-4.05,11.04-.45.36-.86.64-1.24.86-3.03,1.57-8.2,2.36-15.48,2.36-.14-4.43-.97-8.58-2.5-12.43-.07-.07-.1-.14-.09-.21,1.5.07,4.6.11,9.32.11,1.15-.14,1.8-.79,1.95-1.93l1.44-21.76h-11.47c-2.16,15.36-5.53,27.48-10.12,36.34-2.98-2.43-6.22-4.36-9.69-5.79-.14-.07-.28-.14-.41-.21,5.32-10.29,8.81-26.83,10.46-49.63.07-1.07.14-2.18.22-3.32l2.62-39.79h34.62ZM241.28,55.68h10.83l.87-13.18h-10.72l-.19,2.89c-.29,4.43-.56,7.86-.79,10.29ZM254.64,17.63h-10.72l-.84,12.76h10.72l.84-12.76ZM317.14,43.35l7.66,2.47c-3.45,14.36-8.66,26.62-15.62,36.77,4.67,5.07,9.84,8.93,15.53,11.58-3.49,3.07-6.43,6.47-8.82,10.18-5.64-3.36-10.59-7.36-14.86-12.01-4.59,4.64-9.64,8.58-15.14,11.79-1.36-3.15-3.31-6.07-5.85-8.79l-.6,9h-12.43l6.53-98.61h50.49l-1.4,21.12c-.31,4.65-1.66,7.75-4.05,9.33-.75.5-1.56.89-2.44,1.18-3.22,1.14-9.55,1.72-18.98,1.72-.24-2.79-1.29-6.47-3.13-11.04,5.76.36,10.33.43,13.71.21,1.45-.28,2.24-.86,2.36-1.71l.58-8.79h-25.51l-1.72,26.05h31.73l1.96-.43v-.02ZM282.68,55.47l-2.54,38.48c4.82-2.64,9.53-6.39,14.14-11.25-4.44-7.43-8.09-16.51-10.96-27.23h-.64ZM310.02,55.47h-15.65c1.81,6.15,4.25,11.86,7.33,17.15,3.42-5.29,6.19-11,8.32-17.15Z"/>
  <path class="st0" d="M435.81,23.52h-6.43c-3.43,6.43-7.43,11.79-12,16.08,5.81,2.86,12.39,5,19.73,6.43-3.11,2.72-6.03,6.32-8.75,10.83-.08.14-.12.25-.13.32-7.87-2-15.13-5.15-21.78-9.43-6.1,3.57-13.77,6.65-23.01,9.22-.56-1.21-1.5-2.75-2.8-4.61-2.04,7.15-4.24,13.26-6.57,18.33l-8.52-4.07c1.85-5.29,3.36-10.32,4.54-15.11h-5.79l-2.55,38.59c-.35,5.22-1.65,8.68-3.9,10.4-.52.36-1.05.68-1.56.96-3.11,1.57-8.34,2.36-15.7,2.36-.13-3.5-1.1-7.65-2.93-12.43,2.71.07,6.03.11,9.96.11,1.1-.36,1.7-.89,1.82-1.61l1.55-23.47c-4.88,9-9.9,15.76-15.06,20.26-.61-2.64-2.3-6.86-5.06-12.65,6.51-5.5,12.18-13,17.03-22.51h-13.72l.76-11.47h25.19c-5.9-3.79-12.74-7.32-20.52-10.61l8.81-8.36c1.81.64,4.63,1.82,8.45,3.54,2.48-1.93,4.92-4.25,7.32-6.97h-26.37l.72-10.93h35.48l2.06-.43,7.91,5.25c-4.27,6.22-9.99,12.26-17.17,18.11,3.04,1.57,5.61,3.18,7.72,4.82l-5.84,5.57h5.36l1.75-.54,7.75,2.68-.59,2.47c5.09-1.36,9.67-3.04,13.73-5.04-2.67-2.79-5.08-5.82-7.22-9.11-1.61,1.57-3.35,3.15-5.24,4.72-3.93-3.22-7.34-5.68-10.23-7.4,7.93-5.36,14.54-12.33,19.82-20.9,1.11-1.71,2.08-3.43,2.91-5.15l12.01,3.22c-1.07,2.07-2.59,4.65-4.58,7.72h32.37l-.72,10.83v-.02ZM407.5,62.86h24.55c0,.07-.29,1.71-.86,4.93-2.58,16.36-5.32,26.41-8.21,30.12-.24.36-.47.64-.7.86-2.29,2.14-5.05,3.43-8.29,3.86-3.17.36-7.25.43-12.23.21.06-4.22-.85-8.25-2.74-12.11,3.26.36,6.4.54,9.4.54,1.5-.07,2.71-.46,3.62-1.18,1.83-1.71,3.58-7.18,5.26-16.4h-12.75c-4.3,12.15-12.08,21.19-23.34,27.12-2.44,1.29-4.98,2.43-7.62,3.43-1.27-3.43-3.39-6.61-6.34-9.54-.2-.21-.37-.39-.5-.54,11.2-4,19.05-10.33,23.55-18.97.25-.5.49-1,.74-1.5h-13.29l.72-10.83h15.97c.81-3.64,1.42-6.9,1.82-9.75h12.97c-.71,4.22-1.28,7.47-1.72,9.75h0ZM414.91,23.52h-16.29c2.34,3.5,5.17,6.61,8.49,9.33,3.1-2.64,5.7-5.75,7.8-9.33h0Z"/>
</svg>