<?xml version="1.0" encoding="UTF-8"?>
<svg id="_圖層_1" data-name="圖層 1" xmlns="http://www.w3.org/2000/svg" xmlns:xlink="http://www.w3.org/1999/xlink" viewBox="0 0 598.32 81.39">
  <defs>
    <style>
      .cls-1 {
        fill: none;
      }

      .cls-2 {
        fill: url(#_未命名漸層_28);
      }

      .cls-3 {
        fill: #ed781e;
      }

      .cls-4 {
        fill: #fff;
      }

      .cls-5 {
        fill: url(#_未命名漸層_4);
      }
    </style>
    <linearGradient id="_未命名漸層_28" data-name="未命名漸層 28" x1="754.71" y1="-567.65" x2="-502.33" y2="-567.65" gradientUnits="userSpaceOnUse">
      <stop offset="0" stop-color="#fff"/>
      <stop offset=".34" stop-color="#c8c9ca"/>
      <stop offset=".62" stop-color="#e09257"/>
      <stop offset=".77" stop-color="#ed781e"/>
    </linearGradient>
    <linearGradient id="_未命名漸層_4" data-name="未命名漸層 4" x1="296.48" y1="-37.53" x2="296.48" y2="-890.41" gradientUnits="userSpaceOnUse">
      <stop offset="0" stop-color="#fff" stop-opacity="0"/>
      <stop offset=".02" stop-color="#fff" stop-opacity=".02"/>
      <stop offset=".4" stop-color="#fff" stop-opacity=".54"/>
      <stop offset=".67" stop-color="#fff" stop-opacity=".87"/>
      <stop offset=".79" stop-color="#fff"/>
    </linearGradient>
  </defs>
  <path class="cls-2" d="M-730.28-919.57V90.09s114.54-604.32,1987.88-541.01v-774.47s-227.45,305.82-1987.88,305.82Z"/>
  <rect class="cls-5" x="-664.64" y="-989.82" width="1922.24" height="994.4"/>
  <ellipse class="cls-3" cx="297.6" cy="147.41" rx="1007.81" ry="417.3"/>
  <rect class="cls-1" x="-357.66" y="-410.9" width="1215.82" height="1267.05"/>
  <g>
    <path class="cls-4" d="M44.11,59.08l-.69,10.44h31.9l-.6,9.09H1.41l.6-9.09h30.72l.69-10.44H11.11l.58-8.84h22.3l.65-9.85h-18.1l.49-7.41c-3.34,2.19-7.13,4.35-11.37,6.48-1.74-3.42-3.63-6.2-5.68-8.33,9.22-3.65,18.31-9.23,27.28-16.75.77-.67,1.52-1.32,2.23-1.94h-11.45l.63-9.51h29.54c4.66,7.57,11.4,14.25,20.22,20.03,4.52,2.97,9.1,5.33,13.76,7.07-3,2.97-5.48,6.12-7.44,9.43-3.38-1.57-6.86-3.62-10.45-6.14l-.47,7.07h-18.52l-.65,9.85h22.64l-.58,8.84h-22.64ZM19.6,31.31h41.91c-7.59-5.72-14.08-12.01-19.46-18.85-6.1,6.51-13.58,12.79-22.46,18.85Z"/>
    <path class="cls-4" d="M166.45,23.82h-41.75c-.67,5.11-1.23,8.84-1.67,11.19h33.24c0,.06-.22,1.57-.64,4.54-2.38,18.24-4.85,29.68-7.41,34.34-.63,1.01-1.25,1.85-1.85,2.52-2.22,2.19-5.08,3.48-8.59,3.87-.34.06-.65.08-.93.08-2.94.28-7.85.28-14.73,0,.04-3.2-.89-6.45-2.81-9.76-.04-.17-.09-.28-.15-.34,4.01.39,8.83.59,14.44.59,1.97-.06,3.37-.42,4.2-1.09,2.32-1.96,4.52-10.32,6.62-25.08h-23.73c-4.07,13.97-11.34,24.6-21.8,31.9-2.59,1.8-5.33,3.39-8.23,4.8-1.32-2.97-3.54-5.86-6.67-8.67,11.97-5.39,20.16-13.89,24.58-25.5,2.05-5.5,3.66-13.3,4.83-23.4h-24.66l.65-9.85h32.99l.92-13.97h10.6l-.92,13.97h34.09l-.65,9.85Z"/>
    <path class="cls-4" d="M194.25.51l9.38,3.2c-2.73,5.67-5.79,11.19-9.18,16.58l-3.99,60.26h-9.76l3.02-45.62c-2.8,3.31-5.34,6.03-7.61,8.16-.97-3.2-2.45-6.59-4.46-10.18-.1-.22-.2-.39-.3-.51,7.33-6.4,13.79-14.7,19.41-24.91,1.28-2.36,2.44-4.68,3.49-6.99ZM233.93,67.5h17.51l-.64,9.68h-55.63l.64-9.68h28.28c4.33-11.22,7.72-23.03,10.17-35.43.24-1.12.45-2.16.63-3.11l11.08,1.77c-3.65,13.63-7.66,25.89-12.03,36.78ZM200.9,15.82h20.28l.95-14.39h10.35l-.95,14.39h21.55l-.65,9.76h-52.18l.65-9.76ZM219.1,62.62l-10.33,2.19c.29-8.64-.47-18.74-2.29-30.3-.2-1.23-.4-2.38-.61-3.45l9.36-1.6c2.38,11.5,3.67,22.11,3.87,31.81-.03.51-.04.95,0,1.35Z"/>
    <path class="cls-4" d="M282.42,18.94l9.6,3.79c-2.93,4.43-6.31,8.84-10.13,13.21l-2.97,44.94h-10.27l2.23-33.67c-2.92,2.64-5.42,4.77-7.49,6.4-2.33-3.76-4.47-6.73-6.4-8.92,7.63-5.05,14.53-11.45,20.71-19.19,1.78-2.24,3.35-4.43,4.73-6.56ZM280.37.34l9.66,4.04c-6.09,7.29-13.33,14.03-21.7,20.2-1.24.9-2.41,1.71-3.53,2.44-1.84-3.65-3.53-6.42-5.09-8.33,6.2-3.76,11.95-8.53,17.27-14.31,1.33-1.46,2.46-2.8,3.38-4.04ZM339.07,28.95l-.64,9.68h-11.78l-2,30.3c-.29,4.43-1.44,7.38-3.45,8.84-.65.45-1.35.81-2.09,1.09-2.99,1.12-8.61,1.68-16.86,1.68-.27-3.48-1.08-6.96-2.42-10.44,5.09.28,9.12.34,12.11.17,1.41-.17,2.18-.7,2.29-1.6l1.99-30.05h-25.42l.64-9.68h47.64ZM338.45,5.22l-.65,9.76h-41.83l.65-9.76h41.83Z"/>
    <path class="cls-4" d="M366.87,45.11l-1.42,21.46,12.51-2.02.02,8.58c-9.32,1.8-20.31,3.73-32.96,5.81l-1.41-9.17c1.53-.17,5.83-.76,12.91-1.77l1.51-22.89h-11.78l.57-8.67h11.78l.42-6.31h-8l.18-2.69-.63.59c-.6-1.12-1.48-2.37-2.66-3.75-1.17-1.37-2.24-2.37-3.21-2.99,6.76-5.5,12.19-12.46,16.28-20.87h8.16c6.53,5.67,11.13,10.66,13.82,14.98l-5.96,7.32-.49,7.41h-8.67l-.42,6.31h11.19l-.57,8.67h-11.19ZM353.27,48.39c1.36,5.67,2.13,10.58,2.31,14.73l-7.2,2.02c.04-3.98-.61-8.98-1.96-14.98l6.85-1.77ZM374.99,21.63c-2.89-4.6-5.89-8.47-9-11.61-2.87,4.43-5.8,8.3-8.76,11.61h17.76ZM366.58,62.2c1.99-5.5,3.38-10.35,4.16-14.56l7.62,1.85c-.47,1.18-1.11,2.82-1.92,4.92-.81,2.1-1.52,3.96-2.13,5.55-.61,1.6-1.18,2.93-1.7,4l-6.03-1.77ZM421.71,26.6h-14.64l1.74-26.26h-9.93l-1.74,26.26h-14.73l-3.57,54.03h9.85l1.17-17.67h19.36l-.43,6.48c-.04.56-.16.95-.37,1.18-.21.22-.63.34-1.24.34h-1.26c-.56,0-1.22-.01-1.98-.04-.75-.03-1.55-.06-2.39-.08-.84-.03-1.68-.07-2.52-.13.53,1.29,1.07,2.83,1.63,4.63.55,1.8.9,3.39,1.03,4.8,2.8,0,5.22-.1,7.26-.29,2.03-.2,3.83-.69,5.4-1.47,1.51-.79,2.61-1.87,3.29-3.24.68-1.38,1.1-3.21,1.25-5.51l2.84-43.01ZM395.6,20.54c-.33-1.01-.74-2.17-1.24-3.49-.5-1.32-1.04-2.69-1.62-4.12-.58-1.43-1.17-2.86-1.78-4.29-.61-1.43-1.21-2.76-1.8-4l-7.76,2.78c.53,1.35,1.09,2.78,1.69,4.29.6,1.51,1.16,3,1.68,4.46.52,1.46,1,2.88,1.44,4.25.44,1.38.8,2.6,1.06,3.66l8.31-3.53ZM390.4,54.62l.39-5.89h19.36l-.39,5.89h-19.36ZM411.03,35.35l-.37,5.64h-19.36l.37-5.64h19.36ZM418.03,4.54c-.48,1.29-1.08,2.68-1.79,4.17-.72,1.49-1.46,2.97-2.23,4.46-.77,1.49-1.56,2.93-2.35,4.33-.8,1.4-1.56,2.67-2.31,3.79l7.12,3.03c1.43-2.13,2.99-4.67,4.67-7.62,1.68-2.95,3.27-5.93,4.76-8.96l-7.87-3.2Z"/>
    <path class="cls-4" d="M437.65,3.11h72.3l-5.13,77.6h-9.76l.27-4.04h-53.28l-.28,4.21h-9.26l5.14-77.77ZM442.56,68.93h53.28l3.83-57.99h-53.28l-3.83,57.99ZM495.16,51.09l-.36,5.47h-11.11l-.37,5.55c-.16,2.36-.84,3.87-2.07,4.54-.4.17-.86.34-1.38.51-1.66.45-5.18.67-10.57.67-.25-1.29-.84-2.97-1.77-5.05,3.02.11,5.04.11,6.06,0,.74-.11,1.15-.45,1.25-1.01l.34-5.22h-15.23c2.63,2.69,4.41,5.02,5.34,6.99l-7.04,3.37c-1.13-2.47-2.95-5.05-5.46-7.74l5.64-2.61h-13.38l.36-5.47h30.13l.17-2.52h8.5l-.17,2.52h4.54c-.36-.56-1.11-1.51-2.25-2.86l-.08-.08c-16.14.56-29.15.93-39.04,1.09l.02-5.39h19.27l.19-2.86h-17.08l1.16-17.59h17.09l.17-2.61h-19.53l.36-5.47h19.53l.21-3.2h8.33l-.21,3.2h19.69l-.36,5.47h-19.69l-.17,2.61h17.34l-1.16,17.59h-4.29c3.03,2.58,5.26,4.83,6.71,6.73l-4.85,3.37h5.22ZM457.65,36.7h9.34l.17-2.52h-9.34l-.17,2.52ZM458.25,27.61l-.17,2.52h9.34l.17-2.52h-9.34ZM475.04,40.99l-.18,2.78h6.9l-.88-.76,3.08-2.02h-8.92ZM484.5,36.7l.17-2.52h-9.17l-.17,2.52h9.17ZM485.1,27.61h-9.17l-.17,2.52h9.17l.17-2.52Z"/>
    <path class="cls-4" d="M598.32,33.67c-2.14,1.8-4.39,3.59-6.75,5.39-2.36,1.8-4.58,3.42-6.63,4.88,1.34,4.32,3.02,8.25,5.03,11.78,2.01,3.53,4.4,6.48,7.16,8.84-1.23.84-2.56,2.02-3.98,3.53-1.42,1.51-2.59,2.92-3.52,4.21-3-2.97-5.56-6.49-7.68-10.56-2.12-4.07-3.91-8.6-5.37-13.59.75,3.03,1.14,6.02,1.17,8.96.03,2.95-.2,5.7-.67,8.25-.48,2.55-1.19,4.81-2.13,6.78-.94,1.96-2.04,3.48-3.29,4.54-1.44,1.46-2.93,2.45-4.45,2.99-1.52.53-3.35.83-5.49.88-1.01,0-2.01-.01-2.98-.04-.98-.03-1.97-.07-2.98-.13.03-1.35-.09-2.89-.37-4.63-.28-1.74-.82-3.31-1.62-4.71,1.4.11,2.64.21,3.73.29,1.09.08,2.11.13,3.06.13.9,0,1.71-.14,2.43-.42.72-.28,1.36-.9,1.93-1.85.84-.84,1.54-2.24,2.09-4.21.55-1.96.86-4.29.92-6.99-1.73,1.57-3.59,3.11-5.57,4.63-1.98,1.52-3.98,2.97-6.01,4.38-2.03,1.4-4.08,2.69-6.15,3.87-2.07,1.18-4.09,2.22-6.06,3.11-.71-1.12-1.57-2.36-2.57-3.7-1.01-1.35-2.04-2.44-3.11-3.28,2.47-.9,5.02-2.03,7.63-3.41,2.62-1.37,5.17-2.87,7.66-4.5,2.49-1.63,4.85-3.37,7.08-5.22,2.23-1.85,4.19-3.7,5.88-5.55-.31-1.23-.73-2.52-1.26-3.87-2.67,2.19-5.53,4.33-8.59,6.44s-5.92,3.89-8.6,5.34c-.74-1.57-1.73-3.14-2.97-4.71-.59,2.92-1.56,5.11-2.92,6.56-1.36,1.46-3.48,2.41-6.38,2.86-.96.11-1.88.17-2.75.17h-2.74c.03-1.23-.09-2.69-.34-4.38-.25-1.68-.71-3.11-1.36-4.29.78.06,1.47.08,2.06.08h1.73c.9-.06,1.6-.24,2.1-.55.5-.31.89-.7,1.17-1.18.28-.48.48-1.05.58-1.73s.18-1.4.23-2.19c.13-1.96-.1-4.24-.69-6.82-.59-2.58-1.99-5.3-4.21-8.16,1.02-2.75,2.08-5.83,3.18-9.26,1.1-3.42,2.08-6.59,2.94-9.51h-6.73l-4.46,67.5h-8.84l5.07-76.67h18.68l1.46-.42,6.48,3.87c-.68,1.85-1.4,3.79-2.15,5.81-.75,2.02-1.52,4.07-2.3,6.14-.78,2.08-1.56,4.08-2.33,6.02-.77,1.94-1.52,3.75-2.25,5.43,2.36,3.31,3.86,6.38,4.48,9.22.62,2.83.85,5.51.69,8.04,2.78-1.29,5.62-2.85,8.52-4.67,2.9-1.82,5.45-3.66,7.64-5.51-.77-1.12-1.57-2.16-2.4-3.11-1.76,1.18-3.55,2.29-5.35,3.32-1.81,1.04-3.56,2.01-5.24,2.9-.25-.5-.6-1.08-1.06-1.73-.46-.64-.95-1.32-1.47-2.02-.52-.7-1.02-1.36-1.51-1.98-.49-.62-.95-1.12-1.37-1.51,3.29-1.35,6.58-2.97,9.88-4.88,3.3-1.91,6.31-3.98,9.04-6.23h-14.81l.58-8.84h9.93c-.45-1.63-1.03-3.35-1.72-5.18-.69-1.82-1.44-3.49-2.24-5.01l8.43-2.78c1.17,1.85,2.2,3.91,3.08,6.19.89,2.27,1.53,4.28,1.92,6.02l-2.07.76h14.39l-2.14-.67c.56-.9,1.13-1.88,1.71-2.95.58-1.07,1.12-2.16,1.65-3.28.52-1.12,1.03-2.24,1.53-3.37.5-1.12.94-2.19,1.35-3.2l9.49,2.86c-1.08,1.91-2.16,3.77-3.23,5.6-1.08,1.82-2.08,3.49-3.02,5.01h10.86l-.58,8.84h-17c.3,2.3.62,4.54.99,6.73.36,2.19.78,4.35,1.25,6.48,1.72-1.46,3.44-2.97,5.14-4.54,1.7-1.57,3.16-3.06,4.38-4.46l6.11,6.82ZM566.52,29.54c2.37,2.36,4.31,4.88,5.81,7.57,1.51,2.69,2.7,5.47,3.57,8.33-.79-3.31-1.49-6.7-2.1-10.18-.61-3.48-1.1-7.1-1.47-10.86-.9.9-1.84,1.78-2.83,2.65-.98.87-1.98,1.7-2.98,2.48Z"/>
  </g>
</svg>