<?xml version="1.0" encoding="UTF-8"?>
<svg id="_圖層_1" data-name="圖層_1" xmlns="http://www.w3.org/2000/svg" xmlns:xlink="http://www.w3.org/1999/xlink" version="1.1" viewBox="0 0 493.15 288.7">
  <!-- Generator: Adobe Illustrator 29.6.1, SVG Export Plug-In . SVG Version: 2.1.1 Build 9)  -->
  <defs>
    <style>
      .st0 {
        fill: #ed781e;
      }

      .st1 {
        fill: #231815;
      }

      .st2 {
        fill: #fff;
      }

      .st3 {
        fill: url(#_未命名漸層_7);
      }

      .st4 {
        opacity: .1;
      }

      .st5 {
        opacity: .4;
      }

      .st5, .st6 {
        fill: #040000;
      }

      .st6 {
        opacity: .2;
      }

      .st7 {
        fill: #888;
      }
    </style>
    <linearGradient id="_未命名漸層_7" data-name="未命名漸層 7" x1="-12.9" y1="239.02" x2="-12.9" y2="845.45" gradientUnits="userSpaceOnUse">
      <stop offset="0" stop-color="#fff"/>
      <stop offset=".07" stop-color="#fdf5ef" stop-opacity=".97"/>
      <stop offset=".22" stop-color="#faddc7" stop-opacity=".88"/>
      <stop offset=".43" stop-color="#f5b686" stop-opacity=".73"/>
      <stop offset=".68" stop-color="#ee822e" stop-opacity=".54"/>
      <stop offset=".73" stop-color="#ed781e" stop-opacity=".5"/>
      <stop offset=".73" stop-color="#ed7920" stop-opacity=".5"/>
      <stop offset=".82" stop-color="#f4b280" stop-opacity=".5"/>
      <stop offset=".89" stop-color="#fadcc5" stop-opacity=".5"/>
      <stop offset=".96" stop-color="#fdf5ef" stop-opacity=".5"/>
      <stop offset="1" stop-color="#fff" stop-opacity=".5"/>
    </linearGradient>
  </defs>
  <g>
    <g>
      <polygon class="st0" points="-1.18 110.95 50.53 162.66 50.53 77.35 -1.18 110.95"/>
      <polygon class="st7" points="372.23 0 420.35 48.12 342.79 55.83 372.23 0"/>
      <polygon class="st7" points="-1.18 110.95 50.53 162.66 50.53 77.35 -1.18 110.95"/>
      <polyline class="st5" points="275.86 55.83 305.3 0 353.42 48.12"/>
      <g>
        <path class="st2" d="M22.95,285.2V26.65h377.41c49.23,0,89.29,40.05,89.29,89.29v79.98c0,49.23-40.05,89.29-89.29,89.29H22.95Z"/>
        <path class="st0" d="M400.36,30.15c47.3,0,85.79,38.48,85.79,85.79v79.98c0,47.3-38.48,85.79-85.79,85.79H26.45V30.15h373.91M400.36,23.15H19.45v265.55h380.91c51.24,0,92.79-41.54,92.79-92.79v-79.98c0-51.24-41.54-92.79-92.79-92.79h0Z"/>
      </g>
      <path class="st6" d="M19.45,28.31v91.69h286.51c30.44,0,55.12-24.68,55.12-55.12V28.31H19.45Z"/>
      <path class="st0" d="M-1.18,0v110.95h318.29c30.44,0,55.12-24.68,55.12-55.12V0H-1.18Z"/>
      <g class="st4">
        <polygon class="st2" points="170.47 110.95 281.41 0 203.2 0 92.25 110.95 170.47 110.95"/>
        <polygon class="st2" points="336.38 0 297.27 0 186.32 110.95 225.43 110.95 336.38 0"/>
      </g>
    </g>
    <g>
      <path class="st2" d="M87.54,46.86h-2.39c-.89,7.2-2.37,12.99-4.43,17.38,1.92,3.38,4.27,5.91,7.05,7.6-1.33,1.13-2.45,2.49-3.37,4.09-.06.09-.1.16-.13.22-2.57-1.75-4.77-4.03-6.61-6.84-2.1,2.76-4.67,5.07-7.72,6.93-.33-.77-1.09-2.03-2.31-3.78l-3.15,3.11c-1.24-.89-2.84-1.87-4.79-2.93-2.75,1.6-6.58,2.8-11.49,3.6-.33-1.39-.96-2.77-1.91-4.13,3.67-.33,6.53-.9,8.6-1.73-.27-.09-.68-.25-1.24-.49-.53-.24-.93-.4-1.2-.49l-.4.58-4.3-1.07c1.33-2.04,2.19-3.39,2.57-4.04l-4.88.04-.18-4c3.07,0,5.5-.01,7.27-.04.03-.03.35-.64.98-1.82h-6.43v-8.4h8.03v-1.42h-7.14v-4.84h-2.84v-3.82h2.84v-4.76h7.14v-2.22h4.57v2.22h7.54v4.76h2.97v3.82h-2.97v4.84h-7.54v1.42h8.47v1.42c2.33-4.44,3.96-10.61,4.88-18.49l5.1.67c-.3,2.34-.71,4.87-1.24,7.6h10.64v5.02ZM51.53,53.89v1.91h3.59v-1.91h-3.59ZM55.12,39.22h-2.66v1.64h2.66v-1.64ZM52.46,45.8h2.66v-1.69h-2.66v1.69ZM55.3,64.78l-.75,1.29c.92.3,2.41.87,4.48,1.73.83-.89,1.51-1.93,2.04-3.11l-5.77.09ZM70.11,64.46l-4.17.09c-.62,2.04-1.52,3.76-2.71,5.16,1.09.53,2.36,1.22,3.81,2.04,3.37-1.84,6.05-4.36,8.03-7.56-1.09-2.64-2.01-5.58-2.75-8.84-.5,1.04-1.09,2.04-1.77,3.02-.44-.65-1.24-1.56-2.39-2.71v3.38h-10.07l.4.09-.93,1.69c1.33,0,3.37-.03,6.12-.09,2.96-.03,5.14-.06,6.56-.09l-.13,3.82ZM62.57,39.22h-2.88v1.64h2.88v-1.64ZM59.69,45.8h2.88v-1.69h-2.88v1.69ZM63.46,53.89h-3.77v1.91h3.77v-1.91ZM80.09,46.86h-4.48l-.09.27c.65,4.18,1.46,7.73,2.44,10.67.95-3.08,1.66-6.73,2.13-10.93Z"/>
      <path class="st2" d="M100.66,33.66l5.06,1.69c-1.24,2.99-2.66,5.91-4.26,8.76v31.82h-5.14v-24.09c-1.36,1.75-2.6,3.19-3.73,4.31-.62-1.69-1.52-3.48-2.71-5.38-.06-.12-.12-.21-.18-.27,3.64-3.38,6.76-7.76,9.36-13.15.59-1.24,1.12-2.47,1.6-3.69ZM123.9,69.04h9.22v5.11h-29.31v-5.11h14.9c1.89-5.93,3.27-12.16,4.12-18.71.09-.59.16-1.14.22-1.64l5.9.93c-1.45,7.2-3.13,13.67-5.06,19.42ZM104.7,41.75h10.69v-7.6h5.45v7.6h11.35v5.16h-27.49v-5.16ZM115.92,66.46l-5.37,1.16c-.15-4.56-.9-9.9-2.26-16-.15-.65-.3-1.26-.44-1.82l4.88-.84c1.66,6.07,2.71,11.67,3.15,16.8,0,.27.01.5.04.71Z"/>
      <path class="st2" d="M152.33,67.22l-3.15,4.13c-.53-.8-1.39-1.88-2.57-3.24-1.92,3.29-4.35,5.91-7.27,7.87-.8-1.54-1.85-2.95-3.15-4.22,2.72-1.6,4.95-4.1,6.7-7.51-.12-.12-.81-.77-2.08-1.96l-.35,1.47-4.17-2.84c.59-2.4,1.52-6.86,2.79-13.38h-3.1v-4.93h3.99c.56-3.35,1.03-6.34,1.42-8.98l5.01.44c-.56,3.32-1.05,6.16-1.46,8.53h3.33l.89-.09,3.06.36c-.41,8.5-1.52,15.27-3.33,20.31,1.63,1.69,2.78,3.04,3.46,4.04ZM147.09,47.53h-3.15c-.03.18-.68,3.35-1.95,9.51.24.18.58.47,1.02.89.8.68,1.39,1.19,1.77,1.51,1.15-3.56,1.92-7.53,2.31-11.91ZM178.05,63.22h-8.16c2.25,2.84,5.01,5.2,8.29,7.07.24.12.46.24.67.36-1.45,1.27-2.68,2.68-3.68,4.22-2.84-2.02-5.46-4.65-7.85-7.91v9.11h-5.23v-8.84c-2.69,3.59-5.63,6.25-8.82,8-.92-1.42-2.11-2.84-3.59-4.27,3.55-1.54,6.61-3.87,9.18-6.98.21-.27.4-.52.58-.76h-7.67v-4.53h10.33v-2.8h-6.3v-13.11h-4.21v-4.58h4.21v-4.62h4.92v4.62h8.07v-4.62h5.14v4.62h3.95v4.58h-3.95v13.11h-6.61v2.8h10.73v4.53ZM168.78,42.78h-8.07v2.4h8.07v-2.4ZM160.71,49.13v2.44h8.07v-2.44h-8.07Z"/>
      <path class="st2" d="M201.73,55h-2.88v16.53c0,1.78-.37,2.95-1.11,3.51-.15.12-.28.21-.4.27-.92.5-2.53.76-4.83.76-.18-1.16-.59-2.52-1.24-4.09.71.03,1.54.04,2.48.04.32-.09.5-.27.53-.53v-3.16h-4.88v7.73h-4.52v-21.07h-2.71v-7.11h2.62v-12.93h14.23v12.93h2.75v5.16h21.6v3.6h-21.64v-1.64ZM197.69,53.4v-1.82h-11.66v1.82h11.66ZM188.65,38.78v9.11h1.55v-7.24h4.79v-1.87h-6.34ZM194.28,59.04v-2h-4.88v2h4.88ZM189.4,64.69h4.88v-2.09h-4.88v2.09ZM193.08,47.89h1.91v-4.18h-1.91v4.18ZM217.96,71.71h5.9v3.82h-23.1v-3.82h5.81c-.44-1.33-1-2.58-1.68-3.73l2.79-1.02h-4.39v-8.84h18.58v8.84h-4.26l2.71.67c-.33.62-.84,1.51-1.55,2.67-.35.65-.62,1.13-.8,1.42ZM222.53,37.4v14.09h-19.87v-14.09h5.06v-3.78h3.77v3.78h1.95v-3.78h3.81v3.78h5.28ZM206.61,40.78v2h1.95v-2h-1.95ZM206.61,46.02v2h1.95v-2h-1.95ZM207.67,61.26v2.53h9.67v-2.53h-9.67ZM215.74,66.95h-6.96c1.03,1.72,1.71,3.3,2.04,4.76h3.1c.92-2.13,1.52-3.72,1.82-4.76ZM211.48,42.78h1.95v-2h-1.95v2ZM213.44,46.02h-1.95v2h1.95v-2ZM218.31,42.78v-2h-2v2h2ZM218.31,48.02v-2h-2v2h2Z"/>
      <path class="st2" d="M241.06,57.44c-.74.24-1.46.46-2.17.67-.71.21-1.43.43-2.17.67v11.47c0,1.3-.16,2.33-.47,3.09s-.77,1.33-1.38,1.73c-.61.4-1.35.65-2.24.76-.89.1-1.91.16-3.06.16h-.93c-.06-.68-.22-1.5-.49-2.47-.27-.96-.56-1.8-.89-2.51.5.03.98.05,1.42.07.44.02.84.02,1.2.02.27,0,.49,0,.69-.02.19-.01.35-.02.46-.02.3,0,.5-.05.62-.16.12-.1.18-.32.18-.64v-10.04c-.77.24-1.52.46-2.24.67-.73.21-1.41.4-2.06.58l-1.2-5.2c.77-.15,1.62-.34,2.55-.58.93-.24,1.91-.47,2.95-.71v-7.87h-4.79v-4.93h4.79v-8.58h4.88v8.58h4.12v4.93h-4.12v6.53l3.68-1.02.67,4.84ZM260.13,60.82c1.21,1.78,2.66,3.47,4.35,5.07,1.69,1.6,3.44,2.87,5.28,3.82-.3.24-.61.52-.93.84-.33.33-.64.68-.95,1.07-.31.39-.61.76-.91,1.13-.3.37-.55.72-.75,1.04-1.57-1.04-3.09-2.33-4.57-3.89-1.48-1.56-2.84-3.22-4.08-5v10.76h-5.06v-10.98c-1.36,1.93-2.9,3.7-4.61,5.33-1.71,1.63-3.5,2.96-5.37,4-.44-.65-1.01-1.39-1.69-2.22-.68-.83-1.32-1.5-1.91-2,2.07-.95,4.05-2.21,5.94-3.8,1.89-1.58,3.47-3.31,4.75-5.18h-7.76v-4.71h10.64v-4.58h5.06v4.58h10.91v4.71h-8.34ZM267.63,38.11c-1.74.47-3.64.9-5.68,1.29-2.04.39-4.15.72-6.32,1-2.17.28-4.36.52-6.56.71-2.2.19-4.34.35-6.41.47-.03-.3-.1-.64-.2-1.02-.1-.38-.22-.77-.36-1.16-.13-.38-.27-.76-.42-1.13-.15-.37-.3-.7-.44-1,2.01-.15,4.07-.33,6.19-.53,2.11-.21,4.17-.46,6.16-.76,2-.3,3.89-.62,5.7-.98,1.8-.36,3.38-.73,4.75-1.11l3.59,4.22ZM244.65,52.38c-.09-.59-.22-1.24-.4-1.96-.18-.71-.39-1.45-.64-2.22-.25-.77-.52-1.55-.8-2.33-.28-.78-.58-1.53-.91-2.24l4.26-1.07c.33.65.65,1.36.98,2.11.33.76.63,1.51.91,2.27.28.76.52,1.48.73,2.18.21.7.35,1.34.44,1.93l-4.57,1.33ZM252.41,50.64c-.03-1.1-.21-2.42-.55-3.98-.34-1.56-.76-3.01-1.26-4.38l4.48-.89c.53,1.33,1,2.76,1.4,4.29.4,1.53.63,2.85.69,3.98l-4.75.98ZM258.53,51.58c.44-.71.91-1.52,1.4-2.42.49-.9.97-1.84,1.44-2.82.47-.98.92-1.96,1.33-2.93.41-.98.75-1.9,1.02-2.76l5.14,1.87c-.47.98-.98,1.96-1.51,2.96s-1.06,1.96-1.6,2.89-1.06,1.82-1.57,2.64c-.52.83-1.01,1.59-1.49,2.27l-4.17-1.69Z"/>
      <path class="st2" d="M276.41,64.91l4.75,1.07c-1.24,3.94-2.96,7.23-5.14,9.87-.12.12-.21.22-.27.31-1.18-1.01-2.51-1.88-3.99-2.62,2.1-2.19,3.64-5.04,4.61-8.53.03-.03.04-.06.04-.09ZM288.03,35.26v29.33h-13.79v-29.33h13.79ZM283.32,43.71v-4.18h-4.52v4.18h4.52ZM283.32,51.98v-4.22h-4.52v4.22h4.52ZM283.32,60.29v-4.27h-4.52v4.27h4.52ZM281.73,66.51l3.99-1.69c1.86,2.79,3.16,5.23,3.9,7.33l-4.17,2.04c-.65-2.16-1.89-4.73-3.73-7.69ZM314.46,65.09v3.82h-2.08v2.22c0,1.93-.46,3.21-1.38,3.87-.21.12-.4.22-.58.31-1.21.5-3.4.76-6.56.76-.18-1.27-.65-2.71-1.42-4.31,1.18.03,2.6.04,4.26.04.47-.06.72-.3.75-.71v-2.18h-11.66v7.2h-4.7v-7.2h-2.48v-3.82h2.48v-11.6h8.16v-1.73h-10.38v-3.82h5.68v-1.78h-3.86v-3.6h3.86v-1.64h-4.92v-3.82h4.92v-3.47h4.7v3.47h4.66v-3.47h4.79v3.47h4.92v3.82h-4.92v1.64h4.21v3.6h-4.21v1.78h5.72v3.82h-10.47v1.73h8.43v11.6h2.08ZM295.79,57.26v1.96h3.46v-1.96h-3.46ZM295.79,62.73v2.36h3.46v-2.36h-3.46ZM299.24,40.91v1.64h4.66v-1.64h-4.66ZM299.24,46.15v1.78h4.66v-1.78h-4.66ZM307.45,57.26h-3.5v1.96h3.5v-1.96ZM303.95,65.09h3.5v-2.36h-3.5v2.36Z"/>
    </g>
    <g>
      <path class="st1" d="M99.24,171.61v2.47h7.17v3.53h-7.17v2.41h6.4v8.37c0,1.41-.31,2.35-.93,2.82-.09.06-.17.12-.26.16-.75.43-2.02.62-3.81.58-.11-.94-.43-2.04-.96-3.3.92.06,1.6.08,2.05.03.23-.04.36-.17.38-.38v-4.81h-2.88v10.91h-3.71v-10.91h-2.69v8.31h-3.46v-11.77h6.15v-2.41h-7.43v-3.53h2.46c-1.2-.58-2.18-.99-2.94-1.25,1.34-2.1,2.35-4.93,3.01-8.5l3.55.77c-.17.86-.42,1.85-.74,2.98h2.08v-4.14h3.71v4.14h5.86v3.53h-5.86ZM91.11,174.08h4.42v-2.47h-3.3c-.17.43-.54,1.25-1.12,2.47ZM111.54,166.44v18.48h-3.65v-18.48h3.65ZM113.78,164.29h3.71v25.5c0,1.71-.37,2.87-1.12,3.46-.15.13-.31.23-.48.32-1.05.51-2.92.77-5.63.77-.13-1.09-.51-2.41-1.15-3.95,1.11.04,2.42.06,3.94.06.45-.15.69-.38.74-.71v-25.47Z"/>
      <path class="st1" d="M138.79,185.08v4.91c1.19.13,2.44.19,3.75.19,4.78,0,7.91-.03,9.38-.1-.62,1.09-1.07,2.36-1.34,3.82-.02.06-.03.12-.03.16h-8.19c-4.31,0-7.56-.65-9.76-1.96-1.49-.9-2.74-2.14-3.74-3.72-1.13,2.59-2.59,4.66-4.39,6.22-.75-.83-1.72-1.66-2.91-2.47-.11-.09-.2-.15-.29-.19,3.18-2.37,5.09-6.63,5.73-12.77l4.06.38c-.17,1.35-.42,2.74-.74,4.17.92,2.4,2.41,4.12,4.48,5.16v-11.58h-7.01v-3.72h18.05v3.72h-7.04v4.11h9.03v3.66h-9.03ZM126.66,170.77v4.49h-3.84v-8.21h11.88v-3.27h4.13v3.27h12v8.21h-4.03v-4.49h-20.13Z"/>
      <path class="st1" d="M181.61,180.27l2.4.9c-.9,3.02-2.27,5.59-4.13,7.73,1.69,1.11,3.61,1.92,5.76,2.44-.88.85-1.64,1.87-2.3,3.05-2.37-.73-4.4-1.74-6.08-3.05-1.6,1.22-3.46,2.23-5.57,3.05-.34-.73-.92-1.6-1.73-2.63v2.66h-3.75v-2.66c-5.48.51-8.95.83-10.4.96l-.29-3.37c.21-.02.55-.04,1.02-.06.81-.04,1.42-.09,1.82-.13v-9.98h-2.56v-3.08h29.16v3.08h-15.01v12.03c1.75-.58,3.3-1.37,4.64-2.37-1.15-1.37-2.14-2.99-2.98-4.88l2.14-.58h-3.01v-2.98h10.21l.64-.13ZM181.19,164.77v10.1h-21.54v-10.1h21.54ZM166.21,179.18h-4.26v1.31h4.26v-1.31ZM161.96,183.22v1.38h4.26v-1.38h-4.26ZM161.96,187.29v1.6c2.05-.15,3.47-.26,4.26-.32v-1.28h-4.26ZM177.29,168.62v-1.35h-13.89v1.35h13.89ZM177.29,172.38v-1.38h-13.89v1.38h13.89ZM179.34,183.38h-4.45c.51,1.11,1.25,2.18,2.21,3.21.96-1.03,1.71-2.1,2.24-3.21Z"/>
      <path class="st1" d="M196.35,178.6v8.47c1.3,1.99,3.73,3.07,7.3,3.24,4.48.19,9.28.13,14.4-.19.51-.02.97-.05,1.38-.1-.62,1.26-1.02,2.51-1.22,3.75-4.95.24-9.82.28-14.6.13-3.41-.13-6.03-.99-7.84-2.6-.38-.34-.74-.71-1.06-1.09-.9.88-2.37,2.2-4.42,3.98l-1.86-3.88c1.54-.98,2.93-1.96,4.19-2.92v-5.2h-3.71v-3.59h7.43ZM196.87,174.27l-2.66,2.69c-1.02-1.18-2.65-2.45-4.87-3.82-.13-.06-.25-.13-.35-.19l2.53-2.37c2.22,1.15,3.95,2.33,5.19,3.53.06.06.12.12.16.16ZM197.7,168.11l-2.59,2.41c-.85-1.15-2.39-2.48-4.61-3.98-.11-.06-.2-.13-.29-.19l2.59-2.31c2.07,1.18,3.7,2.4,4.9,3.66v-1.7h8.39v-2.25h3.75v2.25h8.9v3.05h-3.81l-1.18,2.28h4.26v14.11c0,1.35-.29,2.26-.86,2.73-.15.11-.3.2-.45.29-.77.36-2.23.55-4.38.55-.09-.68-.35-1.55-.8-2.6h-5.09v1.03h-2.66v-7.22h3.01v-1.86h-3.84v-2.34h3.84v-1.73h-4.67v14.6h-3.52v-17.55h3.78c-.19-.73-.48-1.44-.86-2.15l.58-.13h-4.35v-.93ZM205.83,171.32h4.39c.28-.66.55-1.42.83-2.28h-5.99c.43.96.68,1.72.77,2.28ZM209.92,184.21v-1.86h-3.52v1.86h3.52ZM214.44,185.34v-11.07h-4.9v1.73h3.87v2.34h-3.87v1.86h3.07v5.68h1.31c.32-.06.49-.25.51-.55Z"/>
      <path class="st1" d="M244.99,189.67h7.75v3.69h-20.39v-3.69h8.77v-6.58h-6.34v-3.66h6.34v-5.39h-3.62c-.51,1.75-1.12,3.27-1.82,4.56-1.24-.75-2.4-1.35-3.49-1.8.49-.9.82-1.53.99-1.89l-1.89.83c-.17-.85-.59-2.11-1.25-3.75v22.42h-3.87v-23.48c-.26,3.55-.75,6.45-1.47,8.69l-2.91-1.03c.79-2.18,1.33-5.04,1.63-8.56l2.75.42v-6.7h3.87v6.19l1.92-.77c.77,1.56,1.37,2.94,1.79,4.14.81-2.35,1.39-5.03,1.73-8.02l3.81.51c-.28,1.82-.54,3.35-.8,4.59h2.62v-6.45h3.87v6.45h6.69v3.66h-6.69v5.39h6.02v3.66h-6.02v6.58Z"/>
      <path class="st1" d="M276.45,168.78h9.25s-.01.62-.03,1.8c-.3,10.18-.69,16.51-1.18,18.99-.23,1.24-.55,2.12-.96,2.63-.7.94-1.63,1.53-2.79,1.76-.13.02-.25.04-.35.06-1,.13-2.72.15-5.15.06-.06-1.24-.46-2.46-1.18-3.66-.04-.06-.08-.12-.1-.16,1.43.13,3.06.19,4.9.19.6-.02,1.08-.2,1.44-.55.68-.75,1.17-4.2,1.47-10.36.08-1.97.17-4.37.26-7.22h-7.01c-.94,2.1-1.9,3.83-2.88,5.2-.53-.49-1.38-1.11-2.53-1.86v15.37h-8.77v2.37h-3.52v-24.38h3.71c.49-1.9.8-3.67.93-5.29l4.26.58c-.51,1.54-1.08,3.11-1.7,4.72h5.09v5.29c1.88-2.76,3.35-6.28,4.42-10.55l3.71.83c-.21.96-.64,2.35-1.28,4.17ZM266.04,177.77v-5.32h-5.22v5.32h5.22ZM260.82,187.58h5.22v-6.45h-5.22v6.45ZM280.25,183.76l-3.33,2.05c-.85-1.8-2.37-4.33-4.54-7.6l3.04-1.73c2.43,3.38,4.04,5.81,4.83,7.28Z"/>
      <path class="st1" d="M301.3,188.03l-2.27,2.98c-.38-.58-1-1.36-1.86-2.34-1.39,2.37-3.14,4.27-5.25,5.68-.58-1.11-1.33-2.13-2.27-3.05,1.96-1.15,3.57-2.96,4.83-5.42-.09-.09-.59-.56-1.5-1.41l-.26,1.06-3.01-2.05c.43-1.73,1.1-4.95,2.02-9.66h-2.24v-3.56h2.88c.41-2.42.75-4.58,1.02-6.48l3.62.32c-.41,2.4-.76,4.45-1.06,6.16h2.4l.64-.06,2.21.26c-.3,6.14-1.1,11.02-2.4,14.66,1.17,1.22,2,2.19,2.5,2.92ZM297.53,173.82h-2.27c-.02.13-.49,2.42-1.41,6.87.17.13.42.34.74.64.58.49,1,.86,1.28,1.09.83-2.57,1.39-5.43,1.66-8.6ZM319.87,185.14h-5.89c1.62,2.05,3.62,3.75,5.99,5.1.17.09.33.17.48.26-1.05.92-1.93,1.94-2.66,3.05-2.05-1.45-3.94-3.36-5.67-5.71v6.58h-3.78v-6.38c-1.94,2.59-4.07,4.51-6.37,5.77-.66-1.03-1.53-2.05-2.59-3.08,2.56-1.11,4.77-2.79,6.63-5.04.15-.19.29-.37.42-.54h-5.54v-3.27h7.46v-2.02h-4.54v-9.46h-3.04v-3.3h3.04v-3.34h3.55v3.34h5.83v-3.34h3.71v3.34h2.85v3.3h-2.85v9.46h-4.77v2.02h7.75v3.27ZM313.18,170.39h-5.83v1.73h5.83v-1.73ZM307.35,174.97v1.76h5.83v-1.76h-5.83Z"/>
      <path class="st1" d="M337.78,179.21h-2.08v11.93c0,1.28-.27,2.13-.8,2.53-.11.09-.2.15-.29.19-.66.36-1.82.55-3.49.55-.13-.83-.43-1.82-.9-2.95.51.02,1.11.03,1.79.03.23-.06.36-.19.38-.39v-2.28h-3.52v5.58h-3.26v-15.21h-1.95v-5.13h1.89v-9.33h10.28v9.33h1.98v3.72h15.59v2.6h-15.62v-1.19ZM334.87,178.05v-1.32h-8.42v1.32h8.42ZM328.34,167.5v6.58h1.12v-5.23h3.46v-1.35h-4.58ZM332.41,182.13v-1.44h-3.52v1.44h3.52ZM328.88,186.2h3.52v-1.51h-3.52v1.51ZM331.54,174.08h1.38v-3.02h-1.38v3.02ZM349.5,191.27h4.26v2.76h-16.68v-2.76h4.19c-.32-.96-.73-1.86-1.22-2.69l2.02-.74h-3.17v-6.38h13.41v6.38h-3.07l1.95.48c-.24.45-.61,1.09-1.12,1.92-.26.47-.45.81-.58,1.03ZM352.79,166.51v10.17h-14.34v-10.17h3.65v-2.73h2.72v2.73h1.41v-2.73h2.75v2.73h3.81ZM341.3,168.94v1.44h1.41v-1.44h-1.41ZM341.3,172.73v1.44h1.41v-1.44h-1.41ZM342.07,183.73v1.83h6.98v-1.83h-6.98ZM347.9,187.84h-5.03c.75,1.24,1.24,2.38,1.47,3.43h2.24c.66-1.54,1.1-2.68,1.31-3.43ZM344.82,170.39h1.41v-1.44h-1.41v1.44ZM346.23,172.73h-1.41v1.44h1.41v-1.44ZM349.75,170.39v-1.44h-1.44v1.44h1.44ZM349.75,174.17v-1.44h-1.44v1.44h1.44Z"/>
      <path class="st1" d="M386.58,179.59h-5.44c-.96,3.08-2.32,5.61-4.07,7.6,3.56,1.48,6.29,2.8,8.19,3.98l-3.14,3.18c-1.92-1.3-4.69-2.75-8.32-4.33-3.12,2.07-7.59,3.54-13.41,4.39-.36-.98-1.02-2.06-1.99-3.24-.11-.13-.19-.24-.26-.32,4.84-.49,8.6-1.37,11.27-2.63-.32-.11-.8-.29-1.44-.54-1.26-.45-2.19-.77-2.79-.96l-.58,1.06-4.1-1.12c1.02-1.65,2.35-4,3.97-7.06h-7.07v-3.66h8.93c.88-1.69,1.64-3.31,2.3-4.88l4.1.87c-.47,1.05-1.12,2.39-1.95,4.01h15.78v3.66ZM362.1,170.26v4.11h-3.97v-7.7h11.68v-2.92h4.13v2.92h12.04v7.7h-4.16v-4.11h-19.72ZM376.6,179.59h-7.62c-.21.41-.52,1.01-.93,1.8-.53,1.01-.92,1.74-1.15,2.21,1.71.47,3.8,1.17,6.27,2.08,1.58-1.58,2.72-3.61,3.42-6.09Z"/>
      <path class="st1" d="M400.14,177.51l.48,3.5c-.26.09-.64.2-1.15.35-.88.28-1.54.48-1.98.61v8.31c0,1.62-.34,2.71-1.02,3.24-.08.08-.17.15-.26.19-.88.49-2.39.73-4.54.71-.11-1.07-.43-2.28-.96-3.62,1.22.06,2.11.08,2.69.03.34-.04.52-.22.54-.55v-7.25c-.9.26-1.93.54-3.1.87l-.83-3.72c.45-.09,1.22-.27,2.3-.55.73-.19,1.27-.33,1.63-.42v-5.68h-3.42v-3.59h3.42v-6.16h3.55v6.16h2.98v3.59h-2.98v4.72l2.66-.74ZM405.74,169.1v-5.36h3.49v13.83c0,4.66-.52,8.26-1.57,10.78-1.05,2.46-2.66,4.48-4.83,6.06-.7-.88-1.6-1.72-2.69-2.53-.04-.02-.08-.04-.1-.06,2.07-1.45,3.55-3.3,4.45-5.55-1.3.53-2.58,1.04-3.84,1.51l-1.47-3.37c1.34-.34,3.45-.97,6.31-1.89.11-.94.18-1.98.22-3.11h-4.51v-3.4h4.55v-3.4h-4.83v-3.5h4.83ZM420.85,183.03v3.5h-5.67v7.86h-3.68v-30.63h3.68v5.36h5.12v3.5h-5.12v3.4h4.8v3.4h-4.8v3.62h5.67Z"/>
      <path class="st1" d="M100.14,223.21l-2.88-.58c.32-1.03.68-2.41,1.09-4.14h-1.95v11.13c0,1.56-.32,2.61-.96,3.14-.17.13-.35.23-.54.32-.98.45-2.67.67-5.06.67-.13-1.13-.52-2.39-1.18-3.75.94.02,2.07.03,3.39.03.36-.11.55-.27.58-.48v-11.07h-4.83v-3.46h7.01c-1.52-1.13-3.4-2.28-5.67-3.43l1.92-2.53c.66.3,1.66.8,3.01,1.51.92-1.01,1.62-1.89,2.11-2.66h-7.62v-3.37h10.05l.67-.22,2.24,1.64v-1.51h16.64v3.27h-6.18c-.15.53-.37,1.26-.67,2.18h5.89v17.35h-14.56v-17.35h4.77c.11-.58.21-1.3.32-2.18h-6.21v-1.44c-1.43,2.29-2.99,4.29-4.67,6,.73.47,1.39.98,1.98,1.54l-.86,1.22h1.57l.54-.1,2.34.55c-.96,3.68-1.72,6.26-2.27,7.73ZM105.81,227.29l3.17,2.08c-1.62,1.56-3.77,2.94-6.43,4.14-.34.15-.66.29-.96.42-.64-.79-1.52-1.65-2.62-2.57,2.28-.79,4.3-1.9,6.05-3.34.32-.26.59-.5.8-.74ZM113.49,214.84v-2.05h-7.33v2.05h7.33ZM113.49,219.62v-2.12h-7.33v2.12h7.33ZM113.49,224.4v-2.08h-7.33v2.08h7.33ZM110.54,229.47l2.88-1.96c2.62,1.73,4.49,3.14,5.6,4.23l-3.1,2.18c-1-1.11-2.8-2.6-5.38-4.46Z"/>
      <path class="st1" d="M151.63,225.43v3.08h-6.91v5.26h-4.03v-5.26h-7.39c-1.09,2.4-3.86,4.17-8.32,5.33-.68-1.11-1.5-2.06-2.46-2.85,2.94-.6,4.98-1.42,6.11-2.47h-6.56v-3.08h7.81v-2.02h-4v-12.61h3.27c-.28-.66-.72-1.48-1.31-2.44h-.67c-1,1.35-1.95,2.43-2.85,3.24-1.07-.92-2.11-1.65-3.14-2.18,1.94-1.48,3.51-3.41,4.71-5.81.11-.26.21-.5.32-.74l3.65.99c-.32.64-.57,1.11-.74,1.41h7.27v2.6c1.39-1.43,2.42-3.1,3.1-5l3.71.9c-.13.32-.35.82-.67,1.51h9.03v3.08h-4.83c.51.64.86,1.13,1.06,1.48l-2.21.96h2.94v12.61h-3.78v2.02h6.91ZM144.36,213.14h-14.56v1.15h14.56v-1.15ZM129.8,216.45v1.22h14.56v-1.22h-14.56ZM129.8,219.88v1.22h14.56v-1.22h-14.56ZM135.88,208.36h-4.07c.43.71.71,1.26.86,1.67l-2.18.77h7.14c-1.24-.71-2.19-1.2-2.85-1.48.36-.28.73-.6,1.09-.96ZM133.8,225.43h6.88v-2.02h-6.88v2.02ZM142.38,208.36h-1.73c-.53.77-1.23,1.58-2.08,2.44h5.6c-.53-.86-1.13-1.67-1.79-2.44Z"/>
      <path class="st1" d="M185.61,222.51h-4.8c-.08,1.26-.18,2.44-.29,3.53h3.68v3.43h-4.07c-.21,1.35-.49,2.26-.83,2.73-.62.83-1.48,1.34-2.59,1.51-.06.02-.11.03-.13.03-1.05.15-2.52.17-4.42.06-.04-.98-.34-1.98-.9-2.98,1.43.13,2.57.17,3.42.13.53-.02.92-.19,1.15-.51.13-.19.26-.51.38-.96h-13.64l-.22,1.28-3.94-.22c.58-3.12,1.02-5.79,1.34-8.02h-4.51v-3.5h5.02c.3-2.44.5-4.22.61-5.36-.77.96-1.46,1.77-2.08,2.44-1-.86-2.23-1.67-3.68-2.44,2.43-2.07,4.55-4.87,6.34-8.37.41-.77.76-1.53,1.06-2.28l4.1,1.12c-.19.45-.59,1.27-1.18,2.47h18.89v3.5h-20.9c-.19.32-.65,1.01-1.38,2.05h19.11s-.01.58-.03,1.67c-.06,2.07-.13,3.81-.19,5.2h4.67v3.5ZM167.69,222.38h-4c-.04.3-.11.75-.19,1.35-.15,1.05-.27,1.82-.35,2.31h7.17c-1.15-.9-2.45-1.7-3.9-2.41l1.28-1.25ZM168.13,215.58h-3.55l-.48,3.56h6.53c-1.28-.94-2.55-1.7-3.81-2.28l1.31-1.28ZM172.9,226.04h3.84c.15-2.31.22-3.53.22-3.66h-6.79c1.64.9,2.91,1.76,3.81,2.6l-1.09,1.06ZM173.19,219.14h3.91c.04-.79.08-1.98.13-3.56h-6.66c1.62.88,2.87,1.7,3.75,2.47l-1.12,1.09Z"/>
      <path class="st1" d="M188.96,216.06h30.15v4.23h-30.15v-4.23Z"/>
      <path class="st1" d="M232.73,203.65h11.17c1.09,4.06,3.05,7.4,5.89,10.01,1.07.98,2.21,1.8,3.42,2.44-.88.79-1.71,1.85-2.5,3.18-.11.17-.19.32-.26.45-1.15-.75-2.22-1.59-3.2-2.53v.29c-.34,7.42-.86,12.01-1.57,13.76-.17.41-.35.73-.54.96-.73.81-1.7,1.3-2.91,1.48-.06.02-.12.03-.16.03-.73.09-2.32.11-4.77.06h-.03c-.06-1.3-.47-2.56-1.22-3.75-.02-.04-.04-.07-.06-.1,1.43.13,2.87.19,4.32.19.6-.02,1.04-.17,1.34-.45.64-.62,1.12-3.38,1.44-8.28.02-.6.05-1.24.1-1.92h-6.4c-1.34,6.29-4.21,10.82-8.61,13.6-.47.3-.95.58-1.44.83-.51-.75-1.49-1.71-2.94-2.89-.06-.04-.11-.07-.13-.1,4.33-1.86,7.18-5.2,8.55-10.01.13-.47.25-.95.35-1.44h-4.83v-2.02c-.81.96-1.63,1.82-2.46,2.57-1.22-1.22-2.3-2.18-3.27-2.89,2.58-1.95,4.63-4.73,6.15-8.34.26-.62.48-1.24.67-1.86l4.1,1.03c-.96,2.82-2.27,5.44-3.94,7.86h16.96c-2.16-2.48-3.83-5.31-5.03-8.5h-8.19v-3.66Z"/>
      <path class="st1" d="M286.62,206.6c-.6,1.58-1.24,3.23-1.92,4.96-.68,1.72-1.37,3.31-2.05,4.76.7.73,1.27,1.43,1.71,2.12.44.69.78,1.35,1.02,1.99s.41,1.26.5,1.84c.08.59.13,1.14.13,1.65,0,1.24-.14,2.27-.43,3.08-.29.81-.76,1.43-1.42,1.86-.53.43-1.12.69-1.78.79-.65.1-1.31.14-1.97.14h-.69c-.22,0-.45-.01-.69-.03-.02-.51-.12-1.13-.29-1.86-.17-.73-.41-1.36-.7-1.89.36.02.71.04,1.04.05.33.01.68.02,1.04.02.53,0,.97-.1,1.31-.29.3-.19.51-.48.64-.85.13-.37.19-.84.19-1.4,0-.45-.05-.94-.16-1.46-.11-.52-.29-1.07-.54-1.64-.26-.57-.6-1.15-1.02-1.76-.43-.61-.97-1.22-1.63-1.84.23-.6.48-1.24.74-1.92.26-.68.51-1.39.75-2.12s.49-1.44.72-2.15c.23-.71.46-1.38.67-2.02h-4.16v25.12h-3.84v-28.07c-.49,1.26-1.02,2.47-1.6,3.62s-1.21,2.28-1.89,3.37h2.43v3.4h-4.9c-.34.43-.68.83-1.02,1.22-.34.39-.69.78-1.06,1.19h5.89v14.79h-3.68v-1.25h-5.28v1.67h-3.52v-9.94c-.3.19-.58.37-.85.53-.27.16-.53.32-.78.47-.11-.21-.26-.47-.45-.75-.19-.29-.39-.59-.59-.9-.2-.31-.42-.6-.64-.88-.22-.28-.42-.51-.59-.71,1.47-.71,2.85-1.51,4.14-2.41,1.29-.9,2.51-1.9,3.67-3.02h-6.95v-3.4h5.67v-2.69h-4.26v-3.34h4.26v-3.18h3.62v3.18h3.36v1.67c.32-.58.61-1.18.86-1.8.26-.62.5-1.25.74-1.89l3.42.96v-.61h9.44l.58-.13,2.82,1.76ZM267.96,221.55h-5.28v2.08h5.28v-2.08ZM267.96,228.89v-2.34h-5.28v2.34h5.28ZM266.04,212.66c.62-.85,1.22-1.75,1.79-2.69h-2.43v2.69h.64Z"/>
      <path class="st1" d="M303.42,207.69h15.97v3.75h-17.54c-1.2,2.48-2.48,4.63-3.84,6.45v15.91h-3.97v-11.42c-.77.71-1.73,1.47-2.88,2.28-.49-1.26-1.13-2.51-1.92-3.75,3.29-2.16,6.01-5.31,8.16-9.46h-7.14v-3.75h8.87c.66-1.9,1.14-3.42,1.44-4.56l4.1.96c-.24.83-.65,2.03-1.25,3.59ZM311.52,221.9v7.51h7.78v3.59h-19.65v-3.59h7.94v-7.51h-6.66v-3.59h6.66v-5.45h3.94v5.45h6.5v3.59h-6.5Z"/>
      <path class="st1" d="M324.82,206.44h27.05s-.01.69-.03,2.02c-.3,10.61-.71,17.26-1.25,19.95-.28,1.39-.63,2.37-1.06,2.95-.77,1.07-1.75,1.73-2.94,1.99-.17.04-.35.07-.54.1-1.15.17-3.03.19-5.63.06-.06-1.35-.47-2.65-1.22-3.91-.08-.13-.16-.25-.22-.35,1.28.11,3.03.16,5.25.16.68-.02,1.2-.21,1.54-.58.81-.85,1.37-5.19,1.67-12.99.06-1.62.13-3.43.19-5.42h-9.38c-.3,5.67-1.17,10.17-2.62,13.51-1.98,4.41-5.2,7.78-9.63,10.14-.6-1.15-1.5-2.22-2.72-3.21-.11-.08-.2-.16-.29-.22,5.04-2.39,8.28-6.23,9.73-11.52.6-2.25.97-5.14,1.12-8.69h-9v-3.98Z"/>
      <path class="st1" d="M359.15,206.37h25.74v26.75h-4.29v-2.6h-17.35v2.66h-4.1v-26.82ZM363.25,226.49h17.35v-16.14h-17.35v16.14Z"/>
      <path class="st1" d="M406.64,228.28h13.86v3.95h-29.8v-3.95h11.75v-24.73h4.19v9.4h11.56v3.98h-11.56v11.36Z"/>
    </g>
  </g>
</svg>