<?xml version="1.0" encoding="UTF-8"?>
<svg id="_圖層_1" xmlns="http://www.w3.org/2000/svg" version="1.1" viewBox="0 0 220.06 342.46">
  <!-- Generator: Adobe Illustrator 29.6.1, SVG Export Plug-In . SVG Version: 2.1.1 Build 9)  -->
  <defs>
    <style>
      .st0 {
        fill: none;
        stroke: #fff;
        stroke-miterlimit: 10;
        stroke-width: 3px;
      }
    </style>
  </defs>
  <path class="st0" d="M194.84,61.29c-53.82,15.53-70.55,110.34-70.55,110.34-1.8,25.86-2.86,96.62-3.47,166.6-18.16,1.52-36.75.87-55.52-2.11-17.64-2.8-34.45-7.51-50.35-13.89,16.1-69.18,26.97-137.51,11.88-152.44C-5.83,137.5,1.96,95.39,3.24,72.81c2.02-35.77,22.49-26.17,22.49-26.17,1.88-40.24,29.36-15.95,29.36-15.95,8.42-47.95,36.63-9.68,36.63-9.68,18.27-46.51,44.07,27.34,44.07,27.34,49.94-36.4,112.87-2.6,59.06,12.93h-.01Z"/>
</svg>