<svg id="_圖層_1" data-name="圖層_1" xmlns="http://www.w3.org/2000/svg" xmlns:xlink="http://www.w3.org/1999/xlink" version="1.1" viewBox="0 0 596.21 139.81">
  <defs>
    <style>
      .st1 {
        fill: #fff;
      }

      .st3 {
        fill: #ED781E;
      }
    </style>
  </defs>
  <g>
    <path class="st1" d="M132.51,69.9c0,26.97-18.62,49.6-43.71,55.7-4.37,1.07-8.92,1.63-13.61,1.63-4.41,0-8.69-.5-12.81-1.44-25.5-5.82-44.52-28.64-44.52-55.9,0-31.66,25.66-57.33,57.33-57.33s57.33,25.67,57.33,57.33Z"/>
    <path class="st3" d="M96.12,55.25c-12.52,5.87-12.93,29.62-12.93,29.62.56,6.37,3.04,23.66,5.6,40.74-4.37,1.07-8.92,1.63-13.61,1.63-4.41,0-8.69-.5-12.81-1.44,1.25-17.48,1.26-34.55-3-37.61-9.21-6.61-8.94-17.17-9.5-22.73-.89-8.8,4.47-7.25,4.47-7.25-1.1-9.88,6.54-5.02,6.54-5.02.2-12.01,8.55-3.77,8.55-3.77,2.65-12.04,11.8,4.96,11.8,4.96,10.76-10.8,27.41-5,14.89.87Z"/>
  </g>
</svg>