<?xml version="1.0" encoding="UTF-8"?>
<svg id="_圖層_1" data-name="圖層_1" xmlns="http://www.w3.org/2000/svg" xmlns:xlink="http://www.w3.org/1999/xlink" version="1.1" viewBox="0 0 302.39 52.95">
  <!-- Generator: Adobe Illustrator 29.6.1, SVG Export Plug-In . SVG Version: 2.1.1 Build 9)  -->
  <defs>
    <style>
      .st0 {
        fill: none;
      }

      .st1 {
        fill: #ed781e;
      }

      .st2 {
        fill: url(#_未命名漸層_5);
      }

      .st3 {
        clip-path: url(#clippath);
      }
    </style>
    <clipPath id="clippath">
      <rect class="st0" x="-429.77" y="-310.29" width="1920" height="233.66"/>
    </clipPath>
    <linearGradient id="_未命名漸層_5" data-name="未命名漸層 5" x1="6418.73" y1="13678.71" x2="7982.92" y2="13678.71" gradientTransform="translate(-5167.54 14325.84) rotate(-132.77)" gradientUnits="userSpaceOnUse">
      <stop offset=".2" stop-color="#fff" stop-opacity="0"/>
      <stop offset=".23" stop-color="#fff" stop-opacity=".06"/>
      <stop offset=".43" stop-color="#fff" stop-opacity=".39"/>
      <stop offset=".61" stop-color="#fff" stop-opacity=".65"/>
      <stop offset=".75" stop-color="#fff" stop-opacity=".84"/>
      <stop offset=".86" stop-color="#fff" stop-opacity=".96"/>
      <stop offset=".92" stop-color="#fff"/>
    </linearGradient>
  </defs>
  <g class="st3">
    <path class="st2" d="M281.57-12.8c38.97-44.31,100.92-146.46,20.22-238.72-55.1-62.99-99.07-41.9-148.45-40.54-50.97,1.41-79.44-62.31-29.1-97.62,142.08-92.03,413.93,166.14,157.33,376.88ZM14.97-309.33C-62.14-224.64-102.34-32.36,103.26,189.93h0s189.92,205.32,189.92,205.32c25.56,27.64,68.69,29.32,96.32,3.75,27.64-25.56,29.32-68.69,3.75-96.32L139.28,28.11h0S64.06-47.77,41.13-144.83c-14.5-61.37-16.43-130.26,25.65-211.72-16.19,11.16-35.97,29.82-51.81,47.22ZM-61.42-329.42c-65.41,70.35-92.79,228.45,29.02,365.84-87.32-187.94-12.59-368.37,128.56-436.68-42.93-2.51-111.48,21.25-157.59,70.85ZM-272.24-102.99c-14.24,14.98-13.75,46.3,17.97,53.09,14.84,2.36,26.85-4.34,38.04-7.49,66.91-18.83,99.99,2.13,134.26,46.4-65.81-133.61-163.91-119.11-190.27-92ZM255.48,96.7c103.51-21.18,186.56-154.97,160.27-286.82C403.16-61.39,320.3,17.03,245.72,28.35c-54.04,8.2-42.75,79.09,9.76,68.35Z"/>
  </g>
  <path class="st1" d="M7.2.71C11.29.08,17.26-.47,26.61-.47c7.93,0,13.51,1.57,17.2,4.24,3.69,2.59,6.44,7.31,6.44,13.04,0,5.11-1.73,9.9-5.19,12.88-4.56,4.01-11,5.81-19.17,5.81-1.65,0-3.06-.16-4.01-.23v17.68H7.2V.71ZM21.89,24.04c.86.16,1.96.23,3.85.23,5.74,0,9.82-2.59,9.82-7.38,0-3.85-2.91-6.36-8.8-6.36-2.51,0-4.08.16-4.87.31v13.2ZM126.62,51.38c-2.2,1.1-7.86,2.51-15.08,2.51-21.45,0-31.03-12.34-31.03-26.56,0-18.38,14.45-28.28,31.82-28.28,6.84,0,12.57,1.26,15.16,2.67l-3.06,11.47c-2.67-1.1-6.6-2.2-11.55-2.2-8.88,0-16.73,4.79-16.73,15.32,0,9.11,6.21,15.48,17.13,15.48,4.08,0,8.56-.78,11.08-1.81l2.28,11.39ZM135.03,0h14.69v22.23h.16c1.18-1.89,2.51-3.69,3.77-5.42L165.28,0h18.78l-18.62,22.31,19.48,30.64h-17.52l-12.73-21.84-4.95,5.89v15.95h-14.69V0ZM238.9,33.23c-.16-6.6-.24-13.91-.24-23.1h-.23c-1.89,7.54-4.4,15.87-6.44,22.55l-5.74,19.17h-11.86l-4.71-19.09c-1.57-6.52-3.3-14.77-4.71-22.63h-.16c-.31,8.09-.55,16.5-.79,23.1l-.79,19.72h-13.98l2.98-52.95h21.21l3.54,13.36c1.49,5.66,3.14,12.96,4.32,19.64h.31c1.73-6.68,3.69-14.53,5.34-19.8l4.16-13.2h20.66l2.44,52.95h-14.77l-.55-19.72ZM299.87,31.98h-21.53v9.03h24.04v11.94h-38.89V0h37.71v11.94h-22.86v8.09h21.53v11.94ZM75.02,52.95s-4.86-30.89-5.43-37.32c0,0,.18-10.79,5.87-13.45,5.68-2.66-1.87-5.3-6.76-.39,0,0-4.16-7.72-5.36-2.25,0,0-3.79-3.74-3.88,1.71,0,0-3.47-2.21-2.97,2.28,0,0-2.43-.7-2.03,3.29.26,2.52.13,7.32,4.32,10.32,4.18,3-.71,35.81-.71,35.81h16.96Z"/>
</svg>