<?xml version="1.0" encoding="utf-8"?>
<!-- Generator: Adobe Illustrator 27.0.0, SVG Export Plug-In . SVG Version: 6.00 Build 0)  -->
<svg version="1.1" id="圖層_1" xmlns="http://www.w3.org/2000/svg" xmlns:xlink="http://www.w3.org/1999/xlink" x="0px" y="0px"
	 viewBox="0 0 324.4 114.8" style="enable-background:new 0 0 324.4 114.8;" xml:space="preserve">
<style type="text/css">
	.st0{fill:#FFFFFF;stroke:#F88D2A;stroke-width:4;stroke-miterlimit:10;}
	.st1{fill:#53575A;}
	.st2{fill:#F88D2A;}
	.st3{fill:#808284;}
	.st4{fill:#FFFFFF;}
</style>
<g>
	<path class="st0" d="M297.3,97.9H27.1c-5.3,0-9.6-4.3-9.6-9.6V26.5c0-5.3,4.3-9.6,9.6-9.6h270.3c5.3,0,9.6,4.3,9.6,9.6v61.8
		C307,93.6,302.6,97.9,297.3,97.9z"/>
	<g>
		<g>
			<path class="st1" d="M154.2,73.1c-1.5,0.1-3.5,0.2-5.7,0.2c-2.4,0-5.1-0.1-8.2-0.2c-4-0.2-8.4-1.6-10.5-5.8
				c-1.2,1.4-3.5,4.1-5.8,6.3l-2.5-5c2.3-0.6,4.6-1.5,4.6-1.5V55.4H123V54h7.7v11.9c2.4,2.3,5.1,3.3,9.7,3.3c3.9,0,10.8-0.4,15-1.1
				L154.2,73.1z M127.4,49.5c-0.9-2.6-2.1-5.3-3.5-7.4l0.9-1c2.4,1.1,4.6,2.5,6.7,4.2L127.4,49.5z M152.9,67c-2.9-1-5.6-2.6-8-4.8
				c-2.9,2.2-6.3,3.8-10.2,5l-0.4-1.1c3.1-1.5,6-3.6,8.5-6.2c-1.9-2.3-3.5-5.1-4.3-8.4c-0.5,5.6-2.1,11.1-6.1,14.5l-0.7-0.7
				c2.3-4.6,2.6-9.5,2.6-16.7v-6.9h20.3V43h-15.9v5.3h15.1v1.4c-1.2,4-3.2,7.3-5.8,10c2.3,1.3,4.9,2.2,7.6,2.6L152.9,67z
				 M138.7,49.6c1.2,3.1,3.3,5.9,6,8c1.9-2.4,3.3-5.1,4.1-8H138.7z"/>
			<path class="st1" d="M198.2,73.6v-2.8h-21.6v2.8h-4.6V42.3h30.7v31.4L198.2,73.6z M198.2,44h-21.6v25.1h21.6V44z M180.5,64.1
				V48.7h14v15.4H180.5z M190.3,50.1h-5.7v12.7h5.7V50.1z"/>
		</g>
	</g>
</g>
</svg>
