<?xml version="1.0" encoding="utf-8"?>
<!-- Generator: Adobe Illustrator 27.0.0, SVG Export Plug-In . SVG Version: 6.00 Build 0)  -->
<svg version="1.1" id="圖層_1" xmlns="http://www.w3.org/2000/svg" xmlns:xlink="http://www.w3.org/1999/xlink" x="0px" y="0px"
	 viewBox="0 0 1018.1 114.8" style="enable-background:new 0 0 1018.1 114.8;" xml:space="preserve">
<style type="text/css">
	.st0{fill:#FFFFFF;stroke:#F88D2A;stroke-width:4;stroke-miterlimit:10;}
	.st1{fill:#53575A;}
	.st2{fill:#F88D2A;}
	.st3{fill:#808284;}
	.st4{fill:#FFFFFF;}
</style>
<g>
	<g>
		<polygon class="st2" points="75.6,49.9 69.4,49.9 65,54.3 65,60.5 69.4,64.9 75.6,64.9 80,60.5 80,54.3 		"/>
		<polygon class="st2" points="177.9,49.9 171.7,49.9 167.3,54.3 167.3,60.5 171.7,64.9 177.9,64.9 182.3,60.5 182.3,54.3 		"/>
		<polygon class="st2" points="280.2,49.9 273.9,49.9 269.5,54.3 269.5,60.5 273.9,64.9 280.2,64.9 284.6,60.5 284.6,54.3 		"/>
		<polygon class="st2" points="40.3,53 36.6,53 34,55.6 34,59.3 36.6,61.9 40.3,61.9 42.9,59.3 42.9,55.6 		"/>
		<polygon class="st2" points="108.4,53 104.8,53 102.2,55.6 102.2,59.3 104.8,61.9 108.4,61.9 111,59.3 111,55.6 		"/>
		<polygon class="st2" points="142.5,53 138.9,53 136.3,55.6 136.3,59.3 138.9,61.9 142.5,61.9 145.1,59.3 145.1,55.6 		"/>
		<polygon class="st2" points="210.7,53 207,53 204.4,55.6 204.4,59.3 207,61.9 210.7,61.9 213.3,59.3 213.3,55.6 		"/>
		<polygon class="st2" points="244.8,53 241.1,53 238.5,55.6 238.5,59.3 241.1,61.9 244.8,61.9 247.4,59.3 247.4,55.6 		"/>
		<polygon class="st2" points="313,53 309.3,53 306.7,55.6 306.7,59.3 309.3,61.9 313,61.9 315.6,59.3 315.6,55.6 		"/>
	</g>
	<g>
		<polygon class="st2" points="744.1,49.9 737.9,49.9 733.5,54.3 733.5,60.5 737.9,64.9 744.1,64.9 748.5,60.5 748.5,54.3 		"/>
		<polygon class="st2" points="846.4,49.9 840.2,49.9 835.8,54.3 835.8,60.5 840.2,64.9 846.4,64.9 850.8,60.5 850.8,54.3 		"/>
		<polygon class="st2" points="948.7,49.9 942.4,49.9 938,54.3 938,60.5 942.4,64.9 948.7,64.9 953.1,60.5 953.1,54.3 		"/>
		<polygon class="st2" points="708.8,53 705.1,53 702.5,55.6 702.5,59.3 705.1,61.9 708.8,61.9 711.4,59.3 711.4,55.6 		"/>
		<polygon class="st2" points="776.9,53 773.3,53 770.7,55.6 770.7,59.3 773.3,61.9 776.9,61.9 779.5,59.3 779.5,55.6 		"/>
		<polygon class="st2" points="811,53 807.4,53 804.8,55.6 804.8,59.3 807.4,61.9 811,61.9 813.6,59.3 813.6,55.6 		"/>
		<polygon class="st2" points="879.2,53 875.5,53 872.9,55.6 872.9,59.3 875.5,61.9 879.2,61.9 881.8,59.3 881.8,55.6 		"/>
		<polygon class="st2" points="913.3,53 909.6,53 907,55.6 907,59.3 909.6,61.9 913.3,61.9 915.9,59.3 915.9,55.6 		"/>
		<polygon class="st2" points="981.5,53 977.8,53 975.2,55.6 975.2,59.3 977.8,61.9 981.5,61.9 984.1,59.3 984.1,55.6 		"/>
	</g>
	<g>
		<path class="st1" d="M374.1,73.3V58.9c-1.3,1.2-2.8,2.4-4.4,3.6l-0.5-0.9c4.3-4.6,6.4-8.7,8.1-13.8h-7.4v-1.3h3.9v-6.9h4.3v6.9
			h4.7v1.3c-1.3,2.2-2.7,4.3-4.2,6.2c2,1.4,3.6,2.7,5.4,4.4l-3.6,3.4c-0.5-2.5-1.2-4.8-2.1-6.9v18.5H374.1z M381.8,71.2v-1.6h8.2
			V53.2h-6.5v-1.6h6.5V39.6h4.6v12.1h6.8v1.6h-6.8v16.4h8.2v1.6L381.8,71.2z"/>
		<path class="st1" d="M421.7,70.9v2.4h-3.9v-9.1c-0.8,1.1-2.1,2.5-3.1,3.4l-0.7-0.7c2.1-3.6,3.4-7.1,4-10.7h-2.5v-1.3h2.7
			c0.3-1.7,0.4-3.5,0.5-5.4h-4.5V48h4.5v-5.3h-3.1v-1.3h13.7V48h1.7v1.3h-1.7v6.8h-7.7c-0.3,0.9-0.5,1.8-0.9,2.7h8.5v12.1H421.7z
			 M425.3,60.2h-3.6v9.4h3.6V60.2z M425.3,49.3h-2.8c-0.1,1.8-0.3,3.6-0.7,5.4h3.5V49.3z M425.3,42.7h-2.7V48h2.7V42.7z M437,73.3
			V64h-6.4v-1.3h6.4v-6.3h-4.8V55h4.8v-5.7h-5.4v-1.3h3.1c-0.4-2.5-1.3-4.9-2.2-7l0.8-0.8c2.4,1.8,3.9,3,5.7,5l-3.7,2.8h4
			c0.9-2.7,1.5-5.8,1.7-8.4l5.2,1.6c-1.5,2.4-2.9,4.2-5.7,6.7h6.6v1.3h-5.7V55h4.9v1.3h-4.9v6.3h6.4V64h-6.4v9.3H437z"/>
		<path class="st1" d="M457.3,75.3L468.7,40h2.4l-11.4,35.3H457.3z"/>
		<path class="st1" d="M506.7,72.9v-3.6h-18.3v3.6h-4.9V44.7h28.1v28.2L506.7,72.9z M506.7,46.4h-18.3v21.3h18.3V46.4z"/>
		<path class="st1" d="M549.3,73.3v-8.2h-10.9v4h-6v2.2h-3.8V58.2c-0.6,0.9-1.3,1.8-2.1,2.6l-0.8-0.5c2.5-5,3.7-10.1,4-16.6h-3.4
			v-1.3h12.8v1.3h-4.9c-0.5,3-1.2,5.3-2.1,7.8h6.2v12.3h2.9c0.4-1.3,0.7-3.2,0.9-5.1l5,1.2c-1.2,1.3-3,3-4.3,3.8h6.4v-5.6H540V43.7
			h5.8c0.3-1.4,0.5-2.8,0.5-4.1l5.6,0.9c-1.2,1.4-2.2,2.3-3.7,3.2h9.7v14.5h-4.4v5.6h5.8v1.4h-5.8v8.2H549.3z M534.6,52.7h-2.2v15.1
			h2.2V52.7z M546.9,45.1H544v5h2.9V45.1z M546.9,51.5H544v5.3h2.9V51.5z M553.8,45.1h-3v5h3V45.1z M553.8,51.5h-3v5.3h3V51.5z"/>
		<path class="st1" d="M575.7,73.3V58.1c-2.5,1.7-4.3,2.7-4.3,2.7l-0.9-1c0,0,5.4-4.7,9.1-12.4l4.9,2.6c-1.3,1.6-2.7,3.1-4.2,4.4
			v18.9H575.7z M571.1,49.4c0,0,4.3-4,6.9-9.9L583,42c-4.9,5.6-11.1,8.4-11.1,8.4L571.1,49.4z M594.1,52.9h-9.2v-1.5h19.4v1.5h-5.4
			v14.6c0,3.7-0.8,5.8-4.3,5.8c-1.5,0-3.4-0.4-6-1.1v-1.4c1.5,0.3,2.7,0.5,3.5,0.5c1.9,0,2.1-1,2.1-3.8V52.9z M586.5,43.3v-1.4h16.1
			v1.4H586.5z"/>
		<path class="st1" d="M630.5,67.4c-4.3,2.3-8.9,3.9-13.6,5.5L616,68c1.8-0.1,3.6-0.2,5.4-0.4V56.9h-5.3v-1.3h5.3v-4.8h-2.3
			c-0.9,0.9-1.9,1.8-2.8,2.5l-0.7-0.8c2.9-3.9,4.5-8.7,5.3-13l5.1,1.3c-0.3,0.6-0.6,1.2-0.9,1.8c1.8,0.6,3.9,1.6,5.5,2.5l-2.8,3.8
			c-0.9-1.9-2.1-3.7-3.3-5.4c-1.2,2-2.6,4.1-4.2,5.9h8.3v1.3h-3.3v4.8h4.3v1.3h-4.3v10.2c1.6-0.2,3.3-0.5,5-0.8L630.5,67.4z
			 M617.7,66.4c0-2.9-0.2-5.6-0.6-7.9l0.9-0.4c1.2,1.9,2.3,4.3,3.2,6.4L617.7,66.4z M625.7,65.4c0.6-2.2,1.2-5.4,1.4-7.6l3.6,1.6
			c-0.9,2-2.6,4.9-4.2,6.5L625.7,65.4z M629.7,49.8c1.3-2.6,2.2-5.5,2.6-8.5l4.3,1.5c-1.4,3.1-3.6,5.6-6,7.7L629.7,49.8z
			 M642.3,63.7h-6.1v9.5h-4.3V50.3h5.3V39.6h4.2v10.7h5.4v19.2c0,1.8-0.3,3.7-3.1,3.7c-1.3,0-3.1-0.4-5.5-1.3v-1.3
			c1.5,0.4,2.5,0.6,3.1,0.6c1,0,1.2-0.6,1.2-1.7V63.7z M642.3,51.7h-6.1v4.6h6.1V51.7z M642.3,57.6h-6.1v4.8h6.1V57.6z M645.2,50.1
			c-0.9-2.9-2.1-5.5-3.3-7.4l0.9-0.8c2.3,1.5,4.2,3.1,6.1,4.8L645.2,50.1z"/>
	</g>
</g>
</svg>
