<?xml version="1.0" encoding="utf-8"?>
<!-- Generator: Adobe Illustrator 27.0.0, SVG Export Plug-In . SVG Version: 6.00 Build 0)  -->
<svg version="1.1" id="圖層_1" xmlns="http://www.w3.org/2000/svg" xmlns:xlink="http://www.w3.org/1999/xlink" x="0px" y="0px"
	 viewBox="0 0 1018.1 114.8" style="enable-background:new 0 0 1018.1 114.8;" xml:space="preserve">
<style type="text/css">
	.st0{fill:#FFFFFF;stroke:#F88D2A;stroke-width:4;stroke-miterlimit:10;}
	.st1{fill:#53575A;}
	.st2{fill:#F88D2A;}
	.st3{fill:#808284;}
	.st4{fill:#FFFFFF;}
</style>
<g>
	<g>
		<polygon class="st2" points="75.6,49.9 69.4,49.9 65,54.3 65,60.5 69.4,64.9 75.6,64.9 80,60.5 80,54.3 		"/>
		<polygon class="st2" points="177.9,49.9 171.7,49.9 167.3,54.3 167.3,60.5 171.7,64.9 177.9,64.9 182.3,60.5 182.3,54.3 		"/>
		<polygon class="st2" points="280.2,49.9 273.9,49.9 269.5,54.3 269.5,60.5 273.9,64.9 280.2,64.9 284.6,60.5 284.6,54.3 		"/>
		<polygon class="st2" points="40.3,53 36.6,53 34,55.6 34,59.3 36.6,61.9 40.3,61.9 42.9,59.3 42.9,55.6 		"/>
		<polygon class="st2" points="108.4,53 104.8,53 102.2,55.6 102.2,59.3 104.8,61.9 108.4,61.9 111,59.3 111,55.6 		"/>
		<polygon class="st2" points="142.5,53 138.9,53 136.3,55.6 136.3,59.3 138.9,61.9 142.5,61.9 145.1,59.3 145.1,55.6 		"/>
		<polygon class="st2" points="210.7,53 207,53 204.4,55.6 204.4,59.3 207,61.9 210.7,61.9 213.3,59.3 213.3,55.6 		"/>
		<polygon class="st2" points="244.8,53 241.1,53 238.5,55.6 238.5,59.3 241.1,61.9 244.8,61.9 247.4,59.3 247.4,55.6 		"/>
		<polygon class="st2" points="313,53 309.3,53 306.7,55.6 306.7,59.3 309.3,61.9 313,61.9 315.6,59.3 315.6,55.6 		"/>
	</g>
	<g>
		<polygon class="st2" points="744.1,49.9 737.9,49.9 733.5,54.3 733.5,60.5 737.9,64.9 744.1,64.9 748.5,60.5 748.5,54.3 		"/>
		<polygon class="st2" points="846.4,49.9 840.2,49.9 835.8,54.3 835.8,60.5 840.2,64.9 846.4,64.9 850.8,60.5 850.8,54.3 		"/>
		<polygon class="st2" points="948.7,49.9 942.4,49.9 938,54.3 938,60.5 942.4,64.9 948.7,64.9 953.1,60.5 953.1,54.3 		"/>
		<polygon class="st2" points="708.8,53 705.1,53 702.5,55.6 702.5,59.3 705.1,61.9 708.8,61.9 711.4,59.3 711.4,55.6 		"/>
		<polygon class="st2" points="776.9,53 773.3,53 770.7,55.6 770.7,59.3 773.3,61.9 776.9,61.9 779.5,59.3 779.5,55.6 		"/>
		<polygon class="st2" points="811,53 807.4,53 804.8,55.6 804.8,59.3 807.4,61.9 811,61.9 813.6,59.3 813.6,55.6 		"/>
		<polygon class="st2" points="879.2,53 875.5,53 872.9,55.6 872.9,59.3 875.5,61.9 879.2,61.9 881.8,59.3 881.8,55.6 		"/>
		<polygon class="st2" points="913.3,53 909.6,53 907,55.6 907,59.3 909.6,61.9 913.3,61.9 915.9,59.3 915.9,55.6 		"/>
		<polygon class="st2" points="981.5,53 977.8,53 975.2,55.6 975.2,59.3 977.8,61.9 981.5,61.9 984.1,59.3 984.1,55.6 		"/>
	</g>
	<g>
		<path class="st1" d="M396.6,73.1c-1.3-1-2.5-1.8-3.7-2.4c-3.1,2.3-7.2,2.9-12.5,3.5l-0.3-0.9c4.1-0.9,7.3-2.1,9.6-4.3
			c-0.9-0.3-1.8-0.7-2.8-1l-1.1,1.3l-3.5-1.1c0.8-1,1.6-2.1,2.4-3.2H380v-1.3h5.5c0.5-0.7,1.1-1.7,1.4-2.4h-4.5V55h6.5v-2.1h-5.6
			v-4.6h-3.1v-1.3h3.1v-4.3h5.6v-2.1h3.7v2.1h5.8v4.3h2.7v1.3h-2.7v4.6h-5.8V55h6.7v6.2h-8c-0.4,0.7-1,1.6-1.4,2.4h11.3v1.3h-3.9
			c-0.6,1.3-1.3,2.4-2.1,3.3c1.2,0.2,2.5,0.5,3.8,0.9L396.6,73.1z M389,56.3h-3v3.5h3V56.3z M389,44h-2.2v2.9h2.2V44z M389,48.3
			h-2.2v3.2h2.2V48.3z M389.2,64.9c-0.5,0.8-1.1,1.5-1.7,2.3c1.2,0.1,2.4,0.2,3.6,0.3c0.6-0.8,1.2-1.6,1.6-2.6H389.2z M395.2,44
			h-2.4v2.9h2.4V44z M395.2,48.3h-2.4v3.2h2.4V48.3z M395.9,56.3h-3.1v3.5h3.1V56.3z M411.4,74.2c-2.4-1.7-4.2-3.6-5.5-5.9
			c-1.9,2.2-4.6,4-8.2,5.9l-0.6-0.9c3.6-2.7,5.8-5.4,7.3-8.2c-1-2.8-1.5-6-1.8-10c-0.7,1.3-1.5,2.7-2.3,3.9l-0.7-0.6
			c1.9-6.2,2.8-12.7,2.9-17.9l4.9,0.8c-0.4,1.8-0.9,3.7-1.4,5.5h7.7v1.3h-2c-0.5,7.5-1.2,12.8-3.7,17.1c1.5,1.5,3.3,2.7,5.7,3.7
			L411.4,74.2z M405.6,48.4c-0.6,1.9-1.4,3.7-2.2,5.6c0.6,3.4,1.3,6.1,2.4,8.2c1.4-4,1.5-8.4,1.7-13.8H405.6z"/>
		<path class="st1" d="M428.8,74.2V55.8c-1,1.3-2.1,2.5-3.2,3.6l-0.9-0.9c3.2-5.1,5.1-10.5,6.4-17.9l5.5,1.6c-0.9,2.5-2,4.8-3.2,7
			v25H428.8z M434.4,72.5v-1.6h11.5c1.8-6,3.6-15.2,4-20.5l5.8,1.6c-1.5,5.2-5.2,13.9-8.3,18.9h11.2v1.6L434.4,72.5z M435.4,49.3
			v-1.5h8.8v-7.2h4.7v7.2h8.9v1.5H435.4z M440.8,68.6c-0.3-5.6-1.4-11.8-2.8-16.9l1-0.6c2.8,4.4,5.5,9.8,7,14.6L440.8,68.6z"/>
		<path class="st1" d="M484.9,68.5l3.6,2.5c-4.9,1.8-8.2,2.5-13.3,3.2l-0.4-1c3.4-1.3,6.3-2.9,8.4-4.6h-3.8V58.3h8.2v-2h-10.7
			c-0.2,7.5-1.2,11.8-6,17.9l-0.9-0.7c2.4-6.1,2.6-12.8,2.6-21.3v-8.5h13.4v-3.1h4.8v3.1h12.5V45h-26.3v9.9h26.8v1.3h-11.8v2h8.5
			v10.3H484.9z M496.9,49.6v3.6h-14.1v-3.6h-5.2v-1.3h5.2v-2.3h4.3v2.3h5.6v-2.3h4.3v2.3h5.4v1.3H496.9z M487.5,59.6h-4v3h4V59.6z
			 M487.5,64h-4v3.2h4V64z M492.6,49.6H487v2.3h5.6V49.6z M500.7,74.4c-3-1.6-6.6-3.1-9.6-4.3l0.3-1.1c3.5,0.3,7.8,0.7,11.6,1.1
			L500.7,74.4z M496.1,59.6h-4.3v3h4.3V59.6z M496.1,64h-4.3v3.2h4.3V64z"/>
		<path class="st1" d="M515.4,56.2v-1.3h15v-7.1h-6.1c-1.6,2.4-3.8,4.5-6.5,6.7l-0.8-0.6c2.4-4.2,3.6-8.4,4.3-12.8l5.8,1.8
			c-0.6,1.3-1.2,2.4-1.9,3.6h5.2v-5.8h4.9v5.8h10.3v1.3h-10.3v7.1h13.2v1.3H515.4z M539.5,74.2v-2.4H525v2.4h-4.9V60.6h24.2v13.6
			L539.5,74.2z M539.5,62H525v8.5h14.5V62z"/>
		<path class="st1" d="M564.9,74.2V59c-2.5,1.7-4.3,2.7-4.3,2.7l-0.9-1c0,0,5.4-4.7,9.1-12.4l4.9,2.6c-1.3,1.6-2.7,3.1-4.2,4.4v18.9
			H564.9z M560.3,50.4c0,0,4.3-4,6.9-9.9l4.9,2.4c-4.9,5.6-11.1,8.4-11.1,8.4L560.3,50.4z M583.3,53.8h-9.2v-1.5h19.4v1.5h-5.4v14.6
			c0,3.7-0.8,5.8-4.3,5.8c-1.5,0-3.4-0.4-6-1.1v-1.4c1.5,0.3,2.7,0.5,3.5,0.5c1.9,0,2.1-1,2.1-3.8V53.8z M575.7,44.2v-1.4h16.1v1.4
			H575.7z"/>
		<path class="st1" d="M619.7,68.3c-4.3,2.3-8.9,3.9-13.6,5.5l-0.9-4.9c1.8-0.1,3.6-0.2,5.4-0.4V57.9h-5.3v-1.3h5.3v-4.8h-2.3
			c-0.9,0.9-1.9,1.8-2.8,2.5l-0.7-0.8c2.9-3.9,4.5-8.7,5.3-13l5.1,1.3c-0.3,0.6-0.6,1.2-0.9,1.8c1.8,0.6,3.9,1.6,5.5,2.5l-2.8,3.8
			c-0.9-1.9-2.1-3.7-3.3-5.4c-1.2,2-2.6,4.1-4.2,5.9h8.3v1.3h-3.3v4.8h4.3v1.3h-4.3v10.2c1.6-0.2,3.3-0.5,5-0.8L619.7,68.3z
			 M606.9,67.3c0-2.9-0.2-5.6-0.6-7.9l0.9-0.4c1.2,1.9,2.3,4.3,3.2,6.4L606.9,67.3z M614.9,66.3c0.6-2.2,1.2-5.4,1.4-7.6l3.6,1.6
			c-0.9,2-2.6,4.9-4.2,6.5L614.9,66.3z M618.9,50.8c1.3-2.6,2.2-5.5,2.6-8.5l4.3,1.5c-1.4,3.1-3.6,5.6-6,7.7L618.9,50.8z
			 M631.5,64.7h-6.1v9.5H621V51.3h5.3V40.5h4.2v10.7h5.4v19.2c0,1.8-0.3,3.7-3.1,3.7c-1.3,0-3.1-0.4-5.5-1.3v-1.3
			c1.5,0.4,2.5,0.6,3.1,0.6c1,0,1.2-0.6,1.2-1.7V64.7z M631.5,52.6h-6.1v4.6h6.1V52.6z M631.5,58.5h-6.1v4.8h6.1V58.5z M634.4,51.1
			c-0.9-2.9-2.1-5.5-3.3-7.4l0.9-0.8c2.3,1.5,4.2,3.1,6.1,4.8L634.4,51.1z"/>
	</g>
</g>
</svg>
