<?xml version="1.0" encoding="utf-8"?>
<!-- Generator: Adobe Illustrator 27.0.0, SVG Export Plug-In . SVG Version: 6.00 Build 0)  -->
<svg version="1.1" id="圖層_1" xmlns="http://www.w3.org/2000/svg" xmlns:xlink="http://www.w3.org/1999/xlink" x="0px" y="0px"
	 viewBox="0 0 1018.1 114.8" style="enable-background:new 0 0 1018.1 114.8;" xml:space="preserve">
<style type="text/css">
	.st0{fill:#FFFFFF;stroke:#F88D2A;stroke-width:4;stroke-miterlimit:10;}
	.st1{fill:#53575A;}
	.st2{fill:#F88D2A;}
	.st3{fill:#808284;}
	.st4{fill:#FFFFFF;}
</style>
<g>
	<g>
		<polygon class="st2" points="75.6,49.9 69.4,49.9 65,54.3 65,60.5 69.4,64.9 75.6,64.9 80,60.5 80,54.3 		"/>
		<polygon class="st2" points="177.9,49.9 171.7,49.9 167.3,54.3 167.3,60.5 171.7,64.9 177.9,64.9 182.3,60.5 182.3,54.3 		"/>
		<polygon class="st2" points="280.2,49.9 273.9,49.9 269.5,54.3 269.5,60.5 273.9,64.9 280.2,64.9 284.6,60.5 284.6,54.3 		"/>
		<polygon class="st2" points="40.3,53 36.6,53 34,55.6 34,59.3 36.6,61.9 40.3,61.9 42.9,59.3 42.9,55.6 		"/>
		<polygon class="st2" points="108.4,53 104.8,53 102.2,55.6 102.2,59.3 104.8,61.9 108.4,61.9 111,59.3 111,55.6 		"/>
		<polygon class="st2" points="142.5,53 138.9,53 136.3,55.6 136.3,59.3 138.9,61.9 142.5,61.9 145.1,59.3 145.1,55.6 		"/>
		<polygon class="st2" points="210.7,53 207,53 204.4,55.6 204.4,59.3 207,61.9 210.7,61.9 213.3,59.3 213.3,55.6 		"/>
		<polygon class="st2" points="244.8,53 241.1,53 238.5,55.6 238.5,59.3 241.1,61.9 244.8,61.9 247.4,59.3 247.4,55.6 		"/>
		<polygon class="st2" points="313,53 309.3,53 306.7,55.6 306.7,59.3 309.3,61.9 313,61.9 315.6,59.3 315.6,55.6 		"/>
	</g>
	<g>
		<polygon class="st2" points="744.1,49.9 737.9,49.9 733.5,54.3 733.5,60.5 737.9,64.9 744.1,64.9 748.5,60.5 748.5,54.3 		"/>
		<polygon class="st2" points="846.4,49.9 840.2,49.9 835.8,54.3 835.8,60.5 840.2,64.9 846.4,64.9 850.8,60.5 850.8,54.3 		"/>
		<polygon class="st2" points="948.7,49.9 942.4,49.9 938,54.3 938,60.5 942.4,64.9 948.7,64.9 953.1,60.5 953.1,54.3 		"/>
		<polygon class="st2" points="708.8,53 705.1,53 702.5,55.6 702.5,59.3 705.1,61.9 708.8,61.9 711.4,59.3 711.4,55.6 		"/>
		<polygon class="st2" points="776.9,53 773.3,53 770.7,55.6 770.7,59.3 773.3,61.9 776.9,61.9 779.5,59.3 779.5,55.6 		"/>
		<polygon class="st2" points="811,53 807.4,53 804.8,55.6 804.8,59.3 807.4,61.9 811,61.9 813.6,59.3 813.6,55.6 		"/>
		<polygon class="st2" points="879.2,53 875.5,53 872.9,55.6 872.9,59.3 875.5,61.9 879.2,61.9 881.8,59.3 881.8,55.6 		"/>
		<polygon class="st2" points="913.3,53 909.6,53 907,55.6 907,59.3 909.6,61.9 913.3,61.9 915.9,59.3 915.9,55.6 		"/>
		<polygon class="st2" points="981.5,53 977.8,53 975.2,55.6 975.2,59.3 977.8,61.9 981.5,61.9 984.1,59.3 984.1,55.6 		"/>
	</g>
	<g>
		<path class="st1" d="M374.7,66.6c1.8,2.2,5.2,3.6,8.5,3.6c4.7,0,6.6-1.9,6.6-4.6c0-2.5-1.8-4.5-7.6-6.6c-6.2-2.2-8.1-4.9-8.1-8.5
			c0-4.2,2.9-7.3,9.7-7.3c3.8,0,6.7,0.9,8.8,2l-0.8,2.9c-2.2-2.1-4.6-3.2-7.6-3.2c-4.3,0-5.5,1.9-5.5,3.9c0,2.6,0.8,3.8,6.7,6
			c6.6,2.4,9.4,5.1,9.4,9.4c0,4.8-3.6,7.9-11.3,7.9c-3.8,0-7.5-1.3-9.9-2.6L374.7,66.6z"/>
		<path class="st1" d="M407.2,71.5V43.8c0,0,10.1,0,15.9-0.2v2.5c-3-0.4-6.5-0.6-10.7-0.6v10.1c2.6,0,6-0.1,8.5-0.4v2.6
			c-2.4-0.2-5.9-0.4-8.5-0.4v12c4.3,0,9.3-0.3,12.3-0.7v2.7H407.2z"/>
		<path class="st1" d="M435.6,57.7c0-8.7,5.1-14.5,14.4-14.5c9.4,0,14.4,5.8,14.4,14.5s-4.9,14.4-14.4,14.4
			C440.7,72.1,435.6,66.4,435.6,57.7z M459.1,58.8c0-7.9-3.6-14-9.1-14c-5.4,0-9.1,3.9-9.1,11.8s3.7,13.9,9.1,13.9
			C455.5,70.5,459.1,66.7,459.1,58.8z"/>
		<path class="st1" d="M504.3,43.5h-11.5v30.7h-3.9v-6.7l-3.1,1.6c-0.1-2.9-0.4-5.6-0.9-7.9l0.7-0.4c1.2,1.7,2.4,3.8,3.3,5.8v-8.8
			l-2.6,1.7c-0.1-1.1-0.3-2.3-0.5-3.4c-0.4,0.2-0.8,0.3-1.2,0.5v17.5h-3.7V63c-0.8,3-2.2,6.5-3.9,9l-0.9-0.4c1-3.7,1.4-7.9,1.5-11
			l3.3,0.9v-3.3c-1.3,0.4-2.7,0.9-4,1.2l-0.7-3.9c1,0,1.9,0.1,2.8,0.1c0.9-1.2,1.7-2.4,2.4-3.6c-1.6-0.9-3.3-1.6-5.3-2.3l2.2-3.6
			l1,1.2c0.8-2.1,1.5-4.6,1.6-6.7l4.4,1.5c-1.5,2.1-3.2,4.3-5.3,6.1c0.7,0.9,1.3,1.9,1.9,3c1-1.9,1.9-3.7,2.6-5.8l4.2,2.1
			c-2.5,3.4-4.9,5.9-8.1,8.2c1.6,0,3.2-0.1,5-0.3c-0.2-0.9-0.5-1.8-0.7-2.4l0.6-0.4c1.2,1.1,2.5,2.7,3.5,4.4V42.2h19.4v27.7
			c0,2.2-0.5,4.4-3.4,4.4c-1.1,0-2.6-0.3-4.5-1.1v-1.3c1.2,0.3,2.1,0.5,2.7,0.5c1.3,0,1.3-0.8,1.3-2.5V43.5z M498.4,68.4
			c-2.5,0-3.3-0.7-3.3-3.2V59h-1.6l0-1.3h3.3v-3.5h3.7v3.5h3.1V59h-4.7v5.4c0,0.6,0,0.8,0.7,0.8h3.7v3.2H498.4z M493.5,52.9v-1.3
			h1.9c-0.3-2.1-1-4.5-1.8-6.2l0.7-0.5c1.6,1.3,3.3,3.1,4.5,4.8l-2.8,1.9h3c0.6-2.4,1-4.7,1.2-7.3l3.9,1.3c-0.9,2-2.4,4.2-4,5.9h3.6
			v1.3H493.5z"/>
		<path class="st1" d="M535.5,65c-4.6,2.8-8.4,4.7-13.7,6.9l-0.9-5.3c2.7-0.3,5.1-0.6,7.3-1c1.2-5.1,1.7-9.8,1.9-14.8l4.8,1.2
			c-1.4,4.7-3,8.8-5.4,13.4c1.9-0.4,3.9-0.8,6.1-1.4V65z M521.1,49v-1.4h5.3v-7h4.5v7h5.3V49H521.1z M524.1,64.1
			c-0.1-5-0.4-8.7-1.2-12.4l0.9-0.5c1.7,3.1,3.1,6.4,4.3,10.4L524.1,64.1z M548.2,74.3v-2.4h-7.7v2.4h-4.3V57.4h5.4V40.6h4.3v6.9
			h8.6v1.3H546v8.6h6.6v16.8H548.2z M548.2,58.8h-7.7v11.7h7.7V58.8z"/>
		<path class="st1" d="M568.8,74.3V56.2c-0.8,1-1.6,2-2.6,2.9l-0.7-0.8c2.9-5.1,4.4-11.3,5-17.7l4.9,1.3c-0.6,2.6-1.4,5.1-2.4,7.4
			v25H568.8z M595.7,62.9c-0.7-2.1-1.2-3.5-2.4-5.3l0.5-0.6c0.4,0.2,1,0.6,1.6,0.9c0.1-0.5,0.2-1.2,0.2-1.7h-9.5
			c1,0.2,2.8,0.7,4,1.3l-1.9,2.4c-0.9-1.2-2.1-2.4-3.1-3.2l0.3-0.5h-7.9v3.7c0.7-1,1.2-1.9,1.5-3.1L580,57c0,2.3-0.3,4.6-0.8,6.8
			l-3.4-1.7c0.6-0.7,1.2-1.3,1.6-2h-3.6v-5.2h3.5v-9.6h5.8c0-0.7,0-1.3,0-1.8h-7.3v-1.3h22.1v1.3h-10.3c-0.9,0.7-1.8,1.3-2.8,1.8
			h10.7v9.6h4v2.1c-0.7,0.7-1.6,1.3-2.5,1.9c0.6,0.4,1.1,0.8,1.6,1.2L595.7,62.9z M597.7,74.3c-4.1-0.4-7.2-1.4-10.1-3
			c-3.6,1.5-7.8,2.4-13.3,3l-0.3-1c4-0.9,7.9-2.1,10.8-3.9c-1.2-0.7-2.4-1.7-3.4-2.7c-1.8,1.4-3.8,2.5-6.3,3.3l-0.3-0.7
			c3.2-2.1,5.3-4.8,6.4-7.6c-0.1-0.4-0.3-1-0.3-1.8v-3.1h3.3v2.1c0,1,0.2,1.2,1.2,1.2h4.3c0.9,0,1.2-0.5,1.9-2.9l1.1,0.5
			c-0.4,4-1.2,4.9-2.8,4.9H585c-0.4,0.6-0.8,1-1.3,1.5h12.2v1.8c-1.4,1.3-3.3,2.6-4.8,3.3c1.7,0.3,3.6,0.4,5.8,0.4
			c0.8,0,1.7,0,2.6-0.1L597.7,74.3z M591.2,46.5h-9.7v1.8h9.7V46.5z M591.2,49.6h-9.7v1.9h9.7V49.6z M591.2,52.9h-9.7v2h9.7V52.9z
			 M582.7,65.5c-0.1,0.1-0.3,0.3-0.4,0.4c1.5,0.9,3.1,1.7,4.5,2.2c1.2-0.7,2.5-1.7,3.4-2.6H582.7z"/>
		<path class="st1" d="M616.8,74.3V55.4c-1.6,1.7-3.4,3.2-5.3,4.5l-0.6-0.9c4.6-5.5,7.2-11.9,8.5-18.4l5.5,1.5
			c-0.9,2.5-2.1,5.1-3.4,7.3v24.9H616.8z M632.5,73.8c-3.5,0-4.5-1.7-4.5-4.5V41.8h4.5v14.9c2.5-2.6,4.9-6,6.5-9.8l4.6,3.3
			c-2.9,3.2-6.5,6.1-11.1,8.2v10.1c0,1.2,0.3,1.5,1.6,1.5h5c2.1,0,3.1-1.7,3.9-7.3l1.5,0.5c-0.7,8.9-1.9,10.5-5.4,10.5H632.5z"/>
	</g>
</g>
</svg>
