<?xml version="1.0" encoding="utf-8"?>
<!-- Generator: Adobe Illustrator 27.0.0, SVG Export Plug-In . SVG Version: 6.00 Build 0)  -->
<svg version="1.1" id="圖層_1" xmlns="http://www.w3.org/2000/svg" xmlns:xlink="http://www.w3.org/1999/xlink" x="0px" y="0px"
	 viewBox="0 0 332.1 114.8" style="enable-background:new 0 0 332.1 114.8;" xml:space="preserve">
<style type="text/css">
	.st0{fill:#FFFFFF;stroke:#F88D2A;stroke-width:4;stroke-miterlimit:10;}
	.st1{fill:#53575A;}
	.st2{fill:#F88D2A;}
	.st3{fill:#808284;}
	.st4{fill:#FFFFFF;}
</style>
<g>
	<polygon class="st2" points="75.6,49.9 69.4,49.9 65,54.3 65,60.5 69.4,64.9 75.6,64.9 80,60.5 80,54.3 	"/>
	<polygon class="st2" points="177.9,49.9 171.7,49.9 167.3,54.3 167.3,60.5 171.7,64.9 177.9,64.9 182.3,60.5 182.3,54.3 	"/>
	<polygon class="st2" points="280.2,49.9 273.9,49.9 269.5,54.3 269.5,60.5 273.9,64.9 280.2,64.9 284.6,60.5 284.6,54.3 	"/>
	<polygon class="st2" points="40.3,53 36.6,53 34,55.6 34,59.3 36.6,61.9 40.3,61.9 42.9,59.3 42.9,55.6 	"/>
	<polygon class="st2" points="108.4,53 104.8,53 102.2,55.6 102.2,59.3 104.8,61.9 108.4,61.9 111,59.3 111,55.6 	"/>
	<polygon class="st2" points="142.5,53 138.9,53 136.3,55.6 136.3,59.3 138.9,61.9 142.5,61.9 145.1,59.3 145.1,55.6 	"/>
	<polygon class="st2" points="210.7,53 207,53 204.4,55.6 204.4,59.3 207,61.9 210.7,61.9 213.3,59.3 213.3,55.6 	"/>
	<polygon class="st2" points="244.8,53 241.1,53 238.5,55.6 238.5,59.3 241.1,61.9 244.8,61.9 247.4,59.3 247.4,55.6 	"/>
	<polygon class="st2" points="313,53 309.3,53 306.7,55.6 306.7,59.3 309.3,61.9 313,61.9 315.6,59.3 315.6,55.6 	"/>
</g>
</svg>
