<?xml version="1.0" encoding="utf-8"?>
<!-- Generator: Adobe Illustrator 27.0.0, SVG Export Plug-In . SVG Version: 6.00 Build 0)  -->
<svg version="1.1" id="圖層_1" xmlns="http://www.w3.org/2000/svg" xmlns:xlink="http://www.w3.org/1999/xlink" x="0px" y="0px"
	 viewBox="0 0 1018.1 114.8" style="enable-background:new 0 0 1018.1 114.8;" xml:space="preserve">
<style type="text/css">
	.st0{fill:#FFFFFF;stroke:#F88D2A;stroke-width:4;stroke-miterlimit:10;}
	.st1{fill:#53575A;}
	.st2{fill:#F88D2A;}
	.st3{fill:#808284;}
	.st4{fill:#FFFFFF;}
</style>
<g>
	<g>
		<polygon class="st2" points="75.6,49.9 69.4,49.9 65,54.3 65,60.5 69.4,64.9 75.6,64.9 80,60.5 80,54.3 		"/>
		<polygon class="st2" points="177.9,49.9 171.7,49.9 167.3,54.3 167.3,60.5 171.7,64.9 177.9,64.9 182.3,60.5 182.3,54.3 		"/>
		<polygon class="st2" points="280.2,49.9 273.9,49.9 269.5,54.3 269.5,60.5 273.9,64.9 280.2,64.9 284.6,60.5 284.6,54.3 		"/>
		<polygon class="st2" points="40.3,53 36.6,53 34,55.6 34,59.3 36.6,61.9 40.3,61.9 42.9,59.3 42.9,55.6 		"/>
		<polygon class="st2" points="108.4,53 104.8,53 102.2,55.6 102.2,59.3 104.8,61.9 108.4,61.9 111,59.3 111,55.6 		"/>
		<polygon class="st2" points="142.5,53 138.9,53 136.3,55.6 136.3,59.3 138.9,61.9 142.5,61.9 145.1,59.3 145.1,55.6 		"/>
		<polygon class="st2" points="210.7,53 207,53 204.4,55.6 204.4,59.3 207,61.9 210.7,61.9 213.3,59.3 213.3,55.6 		"/>
		<polygon class="st2" points="244.8,53 241.1,53 238.5,55.6 238.5,59.3 241.1,61.9 244.8,61.9 247.4,59.3 247.4,55.6 		"/>
		<polygon class="st2" points="313,53 309.3,53 306.7,55.6 306.7,59.3 309.3,61.9 313,61.9 315.6,59.3 315.6,55.6 		"/>
	</g>
	<g>
		<polygon class="st2" points="744.1,49.9 737.9,49.9 733.5,54.3 733.5,60.5 737.9,64.9 744.1,64.9 748.5,60.5 748.5,54.3 		"/>
		<polygon class="st2" points="846.4,49.9 840.2,49.9 835.8,54.3 835.8,60.5 840.2,64.9 846.4,64.9 850.8,60.5 850.8,54.3 		"/>
		<polygon class="st2" points="948.7,49.9 942.4,49.9 938,54.3 938,60.5 942.4,64.9 948.7,64.9 953.1,60.5 953.1,54.3 		"/>
		<polygon class="st2" points="708.8,53 705.1,53 702.5,55.6 702.5,59.3 705.1,61.9 708.8,61.9 711.4,59.3 711.4,55.6 		"/>
		<polygon class="st2" points="776.9,53 773.3,53 770.7,55.6 770.7,59.3 773.3,61.9 776.9,61.9 779.5,59.3 779.5,55.6 		"/>
		<polygon class="st2" points="811,53 807.4,53 804.8,55.6 804.8,59.3 807.4,61.9 811,61.9 813.6,59.3 813.6,55.6 		"/>
		<polygon class="st2" points="879.2,53 875.5,53 872.9,55.6 872.9,59.3 875.5,61.9 879.2,61.9 881.8,59.3 881.8,55.6 		"/>
		<polygon class="st2" points="913.3,53 909.6,53 907,55.6 907,59.3 909.6,61.9 913.3,61.9 915.9,59.3 915.9,55.6 		"/>
		<polygon class="st2" points="981.5,53 977.8,53 975.2,55.6 975.2,59.3 977.8,61.9 981.5,61.9 984.1,59.3 984.1,55.6 		"/>
	</g>
	<g>
		<path class="st1" d="M385.5,72.2c-1.3-1-2.5-1.8-3.7-2.4c-3.1,2.3-7.2,2.9-12.5,3.5l-0.3-0.9c4.1-0.9,7.3-2.1,9.6-4.3
			c-0.9-0.3-1.8-0.7-2.8-1l-1.1,1.3l-3.5-1.1c0.8-1,1.6-2.1,2.4-3.2H369v-1.3h5.5c0.5-0.7,1.1-1.7,1.4-2.4h-4.5V54h6.5v-2.1h-5.6
			v-4.6h-3.1V46h3.1v-4.3h5.6v-2.1h3.7v2.1h5.8V46h2.7v1.3h-2.7v4.6h-5.8V54h6.7v6.2h-8c-0.4,0.7-1,1.6-1.4,2.4h11.3V64h-3.9
			c-0.6,1.3-1.3,2.4-2.1,3.3c1.2,0.2,2.5,0.5,3.8,0.9L385.5,72.2z M377.9,55.4h-3v3.5h3V55.4z M377.9,43.1h-2.2V46h2.2V43.1z
			 M377.9,47.3h-2.2v3.2h2.2V47.3z M378.1,64c-0.5,0.8-1.1,1.5-1.7,2.3c1.2,0.1,2.4,0.2,3.6,0.3c0.6-0.8,1.2-1.6,1.6-2.6H378.1z
			 M384.1,43.1h-2.4V46h2.4V43.1z M384.1,47.3h-2.4v3.2h2.4V47.3z M384.8,55.4h-3.1v3.5h3.1V55.4z M400.4,73.2
			c-2.4-1.7-4.2-3.6-5.5-5.9c-1.9,2.2-4.6,4-8.2,5.9l-0.6-0.9c3.6-2.7,5.8-5.4,7.3-8.2c-1-2.8-1.5-6-1.8-10
			c-0.7,1.3-1.5,2.7-2.3,3.9l-0.7-0.6c1.9-6.2,2.8-12.7,2.9-17.9l4.9,0.8c-0.4,1.8-0.9,3.7-1.4,5.5h7.7v1.3h-2
			c-0.5,7.5-1.2,12.8-3.7,17.1c1.5,1.5,3.3,2.7,5.7,3.7L400.4,73.2z M394.5,47.4c-0.6,1.9-1.4,3.7-2.2,5.6c0.6,3.4,1.3,6.1,2.4,8.2
			c1.4-4,1.5-8.4,1.7-13.8H394.5z"/>
		<path class="st1" d="M417.7,73.2V54.8c-1,1.3-2.1,2.5-3.2,3.6l-0.9-0.9c3.2-5.1,5.1-10.5,6.4-17.9l5.5,1.6c-0.9,2.5-2,4.8-3.2,7
			v25H417.7z M423.3,71.6V70h11.5c1.8-6,3.6-15.2,4-20.5l5.8,1.6c-1.5,5.2-5.2,13.9-8.3,18.9h11.2v1.6L423.3,71.6z M424.3,48.3v-1.5
			h8.8v-7.2h4.7v7.2h8.9v1.5H424.3z M429.8,67.7c-0.3-5.6-1.4-11.8-2.8-16.9l1-0.6c2.8,4.4,5.5,9.8,7,14.6L429.8,67.7z"/>
		<path class="st1" d="M457.1,75.3L468.6,40h2.4l-11.4,35.3H457.1z"/>
		<path class="st1" d="M492.9,73.2V55.9h-3.6c-0.4,9.7-2.7,13.3-7.9,17.3l-0.8-0.9c3.4-4.2,4.5-8.6,4.5-16.5h-4.6v-1.3h4.6V43.6
			h-3.8v-1.3h19.8v1.3H497v10.9h5.2v1.3H497v17.4H492.9z M492.9,43.6h-3.5v8.5c0,0.9,0,1.6,0,2.4h3.5V43.6z M498.3,72.1
			c5.3-3,9.3-7.9,11.7-13.3l4.4,3.1c-3.5,5.1-8.8,9.7-15.5,11.3L498.3,72.1z M499.5,59.9c4.3-3,8.1-7.5,10.2-11.5l4.3,3.1
			c-3.6,4.2-8.7,7.7-14,9.5L499.5,59.9z M500,49.3c4-2.6,7-6.4,8.6-9.7l4.3,2.8c-3,3.2-7.3,6.4-12.3,7.8L500,49.3z"/>
		<path class="st1" d="M555.9,71.2c-2.8-1.8-6.1-4.4-9-7.4c0.6,1.3,0.9,2.8,0.9,4.3c0,0.3,0,0.6,0,0.9c-0.3,2.5-1,4.3-5.1,4.3
			c-1.8,0-4.2-0.4-7.5-1.2v-1.5c2.3,0.5,3.9,0.7,4.9,0.7c1.9,0,2.2-0.7,2.5-2.4c0.1-0.8,0.2-1.7,0.3-2.5c-5.1,2.2-11,3.9-16.8,4.4
			l-0.5-1c6.3-1.7,12-4.4,16.7-7.6l-0.3-1c-4.4,2.1-9.4,3.6-14.5,4.2l-0.5-1c5-1.4,9.9-4,13.2-6.6l-0.3-0.5c-3.5,1.4-7.6,2.4-11.5,3
			l-0.5-1c4.4-1.3,8.2-3,10.6-4.7h-8.3v-6.1c-1.3,0.6-2.7,1.1-4,1.5l-0.7-1c4-2.4,8.2-5.8,10-9.5l5.6,1.5c-0.4,0.4-0.8,0.9-1.2,1.3
			h10.9v1.8c-1.4,1-3.2,1.9-5.7,2.8h10.6v7.6h-10.3c-1.2,0.7-2.5,1.5-4.1,2.2c0.9,0.7,1.9,1.6,2.7,2.5c2.8-1.1,5.5-2.5,7.5-4.4
			l4.5,3.4c-3.3,1.2-7.2,1.8-11.1,2l0.5,0.6c4.3,2.2,9.5,4,13.8,5.2L555.9,71.2z M538.4,43.9c-1.5,1.2-3.2,2.3-4.9,3.2h8.9
			c0.9-0.9,2-2.1,2.5-3.2H538.4z M540.7,48.4h-6.3v4.9h6.3V48.4z M551.3,48.4H545v4.9h6.3V48.4z"/>
		<path class="st1" d="M570.4,46.1v-1.3h4.9v-5.2h4.3v5.2h4.9v1.3H570.4z M572.3,51.2v-1.3h10.4v1.3H572.3z M572.3,56.5v-1.3h10.4
			v1.3H572.3z M576.3,71.1v1.8h-4V60.2h10.6v10.9L576.3,71.1z M578.9,61.6h-2.6v8.2h2.6V61.6z M601.9,73.2c-3.4-1.2-6.4-2.7-8.8-4.7
			c-2.7,2-5.9,3.7-10,4.8l-0.4-1c3.1-1.6,5.9-3.5,8.2-5.9c-2.4-2.6-4.1-5.7-5.3-9.4H584v-1.3h17.3v2.5c-1.2,2.6-2.9,5.3-5.3,7.8
			c2.4,1.2,5.1,2,8.1,2.4L601.9,73.2z M597.6,53.7c-2.2,0-3.1-1-3.1-3.3v-8h-4.2c0,6.9-0.4,10-6.2,12.4l-0.5-1
			c2.4-2.5,2.6-4.8,2.6-12.8h12.3v8.3c0,0.7,0.1,0.9,0.9,0.9h1.3c0.6,0,1-0.8,1.6-4.6l1.3,0.4c-0.5,6.8-1.3,7.6-3,7.6H597.6z
			 M586.8,57c1.5,2.7,3.6,5.1,6.1,6.9c1.6-2.1,3-4.5,3.9-6.9H586.8z"/>
		<path class="st1" d="M615.4,46.1v-1.3h5.6v-5.2h4.3v5.2h5.8v1.3H615.4z M617.3,51.3v-1.3h12.1v1.3H617.3z M617.3,56.6v-1.3h12.1
			v1.3H617.3z M621.3,71.4v1.8h-4V60.5h12.1v11L621.3,71.4z M625.3,61.8h-4v8.3h4V61.8z M637.3,73.2V52.5h-6.4v-1.4h6.4V39.6h4.7
			v11.5h7v1.4h-7v20.7H637.3z"/>
	</g>
</g>
</svg>
