<?xml version="1.0" encoding="UTF-8"?>
<svg id="_圖層_1" data-name="圖層_1" xmlns="http://www.w3.org/2000/svg" version="1.1" viewBox="0 0 55.47 55.47">
  <!-- Generator: Adobe Illustrator 29.7.1, SVG Export Plug-In . SVG Version: 2.1.1 Build 8)  -->
  <defs>
    <style>
      .st0 {
        fill: #00bdff;
      }

      .st1 {
        fill: #fff;
      }
    </style>
  </defs>
  <circle class="st0" cx="27.74" cy="27.74" r="27.74"/>
  <path class="st1" d="M27.13,43.76c-4.23-.03-7.71-1.51-10.43-4.43l2.04-2.7c2.41,2.46,5.1,3.71,8.09,3.74,2.67,0,4.58-.93,5.74-2.78.61-.96.91-2.04.91-3.26-.06-4.32-3.45-6.49-10.17-6.52v-3.13c5.97-.06,8.98-2.13,9.04-6.22,0-2.35-1.02-3.94-3.04-4.78-.75-.29-1.58-.45-2.48-.48-2.41.12-4.65,1.2-6.74,3.26l-2.22-2.61c2.84-2.61,5.88-3.91,9.13-3.91,3.68,0,6.36,1.13,8.04,3.39.96,1.36,1.43,2.96,1.43,4.78,0,3.42-1.59,5.91-4.78,7.48-.35.15-.7.29-1.04.43v.17c2.78.64,4.78,2.07,6,4.3.64,1.22.96,2.54.96,3.96,0,3.3-1.35,5.83-4.04,7.56-1.86,1.16-4,1.74-6.43,1.74Z"/>
</svg>