<?xml version="1.0" encoding="UTF-8"?>
<svg id="_圖層_1" data-name="圖層_1" xmlns="http://www.w3.org/2000/svg" version="1.1" viewBox="0 0 193.57 43.68">
  <!-- Generator: Adobe Illustrator 29.7.1, SVG Export Plug-In . SVG Version: 2.1.1 Build 8)  -->
  <defs>
    <style>
      .st0 {
        fill: #fff;
        stroke: #ef8639;
        stroke-miterlimit: 10;
        stroke-width: 2px;
      }

      .st1 {
        fill: #888;
      }
    </style>
  </defs>
  <rect class="st0" x="1" y="1" width="191.57" height="41.68" rx="20.84" ry="20.84"/>
  <g>
    <path class="st1" d="M58.66,20.61h-13.21s-.21.39-.57,1.02h11.46v12.37h-2.92v-.9h-8.88v.9h-2.8v-8.19c-1.16,1.17-2.42,2.16-3.78,2.99-.46-.78-1.07-1.57-1.82-2.38,2.36-1.3,4.35-3.23,5.96-5.81h-5.22v-2.33h6.46c.03-.06.18-.42.45-1.07h-5.19v-2.24h5.98c.11-.42.2-.78.26-1.07-2.06.06-4.05.09-5.98.07-.03-.65-.21-1.39-.53-2.21,7.58,0,13.3-.33,17.18-1l1.7,2.11c-2.49.42-5.54.72-9.16.9-.08.36-.19.75-.33,1.19h9.6v2.24h-10.38c-.14.42-.28.78-.41,1.07h12.13v2.33ZM53.42,24.94v-1.07h-8.88v1.07h8.88ZM53.42,27.88v-1.09h-8.88v1.09h8.88ZM44.55,30.86h8.88v-1.14h-8.88v1.14Z"/>
    <path class="st1" d="M81.49,26.15h-7.87c-.35,1.36-.94,2.51-1.77,3.45,2.15.73,5.39,1.11,9.71,1.14h2.44c-.59.73-1,1.65-1.22,2.77,0,.06,0,.12-.02.17-5.06-.11-8.85-.56-11.37-1.34-.7-.21-1.36-.45-1.96-.73-1.77,1-3.98,1.78-6.63,2.33-.43-.91-1.01-1.77-1.72-2.58-.02-.02-.03-.03-.05-.05,2.22-.34,4.06-.83,5.53-1.48-.89-.71-1.73-1.64-2.51-2.79l2.23-.9h-2.58v-10.23h7.25v-1.48h-9.4v-2.62h21.49v2.62h-9.02v1.48h7.49v10.23ZM66.42,18.3v1.6h4.52v-1.6h-4.52ZM66.42,22.12v1.6h4.5c.02-.19.02-.47.02-.83v-.78h-4.52ZM70.46,26.15h-3.78c.72.87,1.51,1.6,2.37,2.16.64-.62,1.11-1.34,1.41-2.16ZM78.6,23.72v-1.6h-4.59v.8c0,.36,0,.62-.02.8h4.62ZM78.6,18.3h-4.59v1.6h4.59v-1.6Z"/>
    <path class="st1" d="M105.64,21.44l1.94,1.02c-1.98,4.94-6.05,8.33-12.2,10.18-1.85.55-3.92.99-6.2,1.31-.21-.79-.62-1.7-1.24-2.72,3.76-.39,6.95-1.17,9.57-2.36-.85-.76-2.05-1.63-3.61-2.6-1.02.53-2.19,1.03-3.49,1.48-.35-.73-.86-1.41-1.53-2.04-.1-.1-.18-.18-.26-.24,4.31-1.31,7.6-3.18,9.88-5.61.05-.06.09-.11.12-.15-3.11,2.07-6.9,3.56-11.37,4.47-.35-1-.81-1.85-1.36-2.55,3.03-.49,5.78-1.3,8.26-2.45-.94-.73-2.03-1.44-3.28-2.14-.97.5-1.91.93-2.82,1.29-.45-.76-1.04-1.44-1.77-2.04-.06-.06-.12-.11-.17-.15,3.88-1.25,6.82-3.01,8.83-5.3.06-.08.13-.15.19-.22l3.16.66c-.37.42-.76.84-1.17,1.26h4.91l.5-.12,1.84,1.09c-1.15,2.17-2.83,4.07-5.05,5.71l2.94.7c-.37.47-.87,1.01-1.51,1.63h4.38l.53-.12ZM100.06,15h-5.86c-.13.1-.42.31-.89.63,1.48.81,2.61,1.54,3.37,2.19,1.31-.83,2.43-1.77,3.37-2.82ZM103.51,24.04h-5.77c-.35.26-.78.53-1.29.83,1.6.92,2.82,1.77,3.66,2.55,1.4-.96,2.54-2.08,3.4-3.38Z"/>
    <path class="st1" d="M132.48,17.5h-3.52c-1.29,3.6-3.09,6.66-5.38,9.18,2.6,2.03,5.71,3.45,9.33,4.28-.73.75-1.4,1.68-2.01,2.82-.03.05-.06.1-.07.15-3.78-.99-7.01-2.62-9.69-4.91-2.65,2.12-5.84,3.78-9.57,4.98-.37-.86-.94-1.78-1.72-2.77-.05-.05-.08-.09-.1-.12,3.7-.99,6.76-2.42,9.16-4.3-2.12-2.48-3.86-5.58-5.22-9.31h-3.52v-2.89h9.62v-3.91h2.94v3.91h9.74v2.89ZM125.52,17.5h-8.57c1.05,2.75,2.5,5.12,4.35,7.09,1.75-1.93,3.16-4.29,4.21-7.09Z"/>
    <path class="st1" d="M156.91,29.02v2.36h-9.67v2.53h-3.06v-2.53h-9.5v-2.36h9.5v-1.09h-6.87v-8.12h16.96v8.12h-7.04v1.09h9.67ZM156.79,16.48v2.31h-22.01v-2.31h5.5c-.14-.45-.39-1.03-.74-1.73l.55-.12h-3.78v-2.31h7.87v-1.63h3.06v1.63h8.11v2.31h-3.23l.14.05c-.08.16-.4.76-.96,1.8h5.48ZM140.12,21.75v1.21h11.2v-1.21h-11.2ZM140.12,24.79v1.14h11.2v-1.14h-11.2ZM149.02,14.63h-6.44c.4.68.67,1.3.81,1.85h4.86c.05-.13.14-.34.26-.63.24-.55.41-.96.5-1.21Z"/>
  </g>
</svg>