<?xml version="1.0" encoding="UTF-8"?>
<svg id="_圖層_1" data-name="圖層_1" xmlns="http://www.w3.org/2000/svg" xmlns:xlink="http://www.w3.org/1999/xlink" version="1.1" viewBox="0 0 193.57 43.68">
  <!-- Generator: Adobe Illustrator 29.7.1, SVG Export Plug-In . SVG Version: 2.1.1 Build 8)  -->
  <defs>
    <style>
      .st0 {
        fill: none;
      }

      .st1 {
        fill: #fff;
        stroke: #ef8639;
        stroke-miterlimit: 10;
        stroke-width: 2px;
      }

      .st2 {
        fill: #888;
      }
    </style>
    <clipPath id="clippath-1">
      <rect class="st0" x="-749.43" y="-435.89" width="942" height="367.13"/>
    </clipPath>
  </defs>
  <rect class="st1" x="1" y="1" width="191.57" height="41.68" rx="20.84" ry="20.84"/>
  <g>
    <path class="st2" d="M51.87,16.65v3.09h-2.58v-5.03h9.26v-.95h-7.58v-2.19h18.07v2.19h-7.66v.95h9.45v5.03h-2.7v-3.09h-6.75v5.18h-2.82v-5.18h-6.68ZM62.95,31.59h4.62c.65,0,1.08-.19,1.27-.56.16-.34.28-.99.36-1.94.64.44,1.44.75,2.42.95-.19,1.64-.59,2.7-1.2,3.18-.53.42-1.39.63-2.58.63h-5.14c-1.88,0-3.1-.3-3.66-.9-.43-.49-.65-1.3-.65-2.43v-.07h-4.07v1.09h-2.75v-9.04h16.94v7.95h-7.32v.07c0,.52.16.83.48.95.24.08.67.12,1.29.12ZM52.35,21.58v-1.6h5.31v1.6h-5.31ZM57.66,17.5v1.6h-4.83v-1.6h4.83ZM58.38,24.5h-4.07v1.09h4.07v-1.09ZM54.31,28.46h4.07v-1.07h-4.07v1.07ZM65.6,25.59v-1.09h-4.43v1.09h4.43ZM61.18,28.46h4.43v-1.07h-4.43v1.07ZM62.3,17.5h4.79v1.6h-4.79v-1.6ZM62.3,21.58v-1.6h5.34v1.6h-5.34Z"/>
    <path class="st2" d="M95.27,15.27h-4.38c-.08.15-.44.79-1.08,1.94h4.88v13.49c0,1.25-.3,2.09-.89,2.53-.11.08-.23.15-.36.22-.75.32-2.16.49-4.24.49-.11-.68-.39-1.51-.84-2.5h-5.98v1.36h-2.58v-7.82h9.62v6.17c.57.02,1.21.02,1.91.02.32-.1.49-.26.53-.49v-7.63c-.33.66-.99,1-1.96,1h-1.99c-1.21,0-1.98-.28-2.3-.83-.21-.39-.31-1.01-.31-1.87v-1.6h-1.99c-.13,1.69-.61,2.91-1.46,3.67-.73.68-1.87,1.2-3.4,1.55-.21-.58-.56-1.16-1.05-1.73v10.64h-2.78v-16.67h4.38c-.16-.52-.42-1.17-.77-1.94h-4.43v-2.7h9.09v-1.85h2.97v1.85h9.38v2.7ZM77.42,19.74v3.13c1.55-.31,2.53-.83,2.94-1.58.21-.39.34-.91.41-1.56h-3.35ZM82.19,17.21h4.43c.57-1.21.88-1.86.91-1.94h-6.13c.42.89.68,1.54.79,1.94ZM86.8,29.26v-2.09h-4.4v2.09h4.4ZM91.88,21.24v-1.51h-4.07v1.58c0,.34.09.53.26.56.06.02.14.02.24.02h1.27c.25,0,.42-.14.48-.41.05-.19.09-.51.12-.95.4.28.96.51,1.7.7Z"/>
    <path class="st2" d="M98.43,25.25l2.32.39c-.24,2.58-.73,4.71-1.46,6.41-.51-.36-1.22-.7-2.13-1.04.61-1.25,1.03-3.17,1.27-5.76ZM104.82,23.53l-1.22.1v10.3h-2.51v-10.11l-3.4.29-.29-2.58,1.75-.1c.45-.55.81-1.04,1.1-1.46-.72-1.15-1.64-2.32-2.78-3.5l1.41-1.99c.14.15.33.32.57.53.73-1.43,1.32-2.86,1.75-4.3l2.54.9c-1.15,2.3-2.07,3.98-2.78,5.05.25.29.52.62.79.97.85-1.38,1.58-2.71,2.2-4.01l2.37,1.12c-1.71,2.66-3.22,4.84-4.55,6.54l2.13-.12c-.21-.47-.47-1-.79-1.6l2.06-.87c1.1,1.98,1.82,3.7,2.15,5.18.02.05.02.08.02.1l-2.18,1.02c-.03-.16-.15-.65-.36-1.46ZM103.82,25.76l2.03-.61c.65,1.51,1.07,2.96,1.24,4.37l-2.15.73c-.14-1.44-.52-2.94-1.12-4.5ZM114.85,30.65h5.65v2.6h-14.36v-2.6h5.77v-3.4h-4.28v-2.62h11.84v2.62h-4.62v3.4ZM108.89,14.93l2.42.58c-1.02,1.81-1.79,3.11-2.32,3.89.99,1.31,1.79,2.63,2.42,3.96l-2.32.95c-.53-1.41-1.44-3.04-2.75-4.88.96-1.46,1.81-2.96,2.56-4.5ZM120.09,11.94v2.58h-13.35v-2.58h13.35ZM115.71,23.31l-2.27,1c-.77-1.62-1.79-3.25-3.06-4.88,1.17-1.65,2.06-3.15,2.68-4.5l2.42.58c-.72,1.28-1.52,2.58-2.42,3.89,1.07,1.3,1.95,2.6,2.66,3.91ZM120.06,23.26l-2.25,1.04c-.64-1.34-1.73-2.97-3.28-4.88,1.13-1.62,2.05-3.12,2.75-4.5l2.42.61c-.7,1.15-1.52,2.44-2.46,3.86,1.21,1.41,2.15,2.7,2.82,3.86Z"/>
    <path class="st2" d="M137.63,10.7h2.63c-.08,1.62-.28,2.93-.6,3.94,2.07,1.02,3.64,1.88,4.69,2.58l-1.29,1.48h1v4.81h-2.94v-2.55h-15.27v2.55h-2.78v-4.81h.41c-.25-.52-.65-1.07-1.17-1.65,2.04-.49,3.39-1.28,4.04-2.38.46-.81.74-2.13.84-3.96h2.51c-.08,1.68-.28,3.03-.6,4.03,1.72,1.02,2.87,1.73,3.45,2.14l-1.77,1.8c-.7-.53-1.63-1.17-2.8-1.92-.69.76-1.68,1.41-2.99,1.94h9.02c-.35-.76-.78-1.38-1.29-1.85,2.06-.45,3.41-1.19,4.07-2.21.46-.73.74-2,.84-3.81v-.12ZM124.42,11.67l1.84.68c-.49,1.49-1.16,2.58-1.99,3.26l-1.77-1.12c.89-.68,1.53-1.62,1.91-2.82ZM135.09,26.76l-.5,1.12h7.9v6.03h-2.87v-.53h-11.72v.56h-2.73v-6.05h6.56c.02-.08.05-.22.1-.41.06-.32.11-.56.14-.7h-5.07v-4.81h13.23v4.81h-5.02ZM139.61,31.28v-1.36h-11.72v1.36h11.72ZM129.59,23.72v1.22h7.68v-1.22h-7.68ZM131.38,15.05l-1.67-.7c.65-.96,1.16-1.81,1.51-2.58l2.32.75c-1.23,1.47-1.95,2.32-2.15,2.53ZM134.68,15.61l-1.82-1.14c.91-.62,1.55-1.52,1.91-2.72.02-.02.02-.03.02-.05l1.89.7c-.51,1.44-1.18,2.51-2.01,3.21ZM135.19,18.69h6.68c-.64-.42-1.75-1.07-3.35-1.94-.78.83-1.89,1.47-3.33,1.94ZM142.03,11.69l2.49.85-2.32,2.62-1.75-.75c.7-.96,1.23-1.86,1.58-2.72Z"/>
  </g>
</svg>