<?xml version="1.0" encoding="UTF-8"?>
<svg id="_圖層_1" data-name="圖層_1" xmlns="http://www.w3.org/2000/svg" version="1.1" viewBox="0 0 193.57 43.68">
  <!-- Generator: Adobe Illustrator 29.7.1, SVG Export Plug-In . SVG Version: 2.1.1 Build 8)  -->
  <defs>
    <style>
      .st0 {
        fill: #fff;
        stroke: #ef8639;
        stroke-miterlimit: 10;
        stroke-width: 2px;
      }

      .st1 {
        fill: #888;
      }
    </style>
  </defs>
  <rect class="st0" x="1" y="1" width="191.57" height="41.68" rx="20.84" ry="20.84"/>
  <g>
    <path class="st1" d="M79,21.95v6.24c.89,1.46,2.57,2.28,5.02,2.45.14.02.27.02.38.02,3.3.15,6.85.1,10.65-.15.38-.02.73-.04,1.05-.07-.45,1-.75,1.98-.91,2.94-3.83.19-7.43.22-10.82.07-2.54-.13-4.45-.75-5.74-1.85-.32-.29-.61-.61-.89-.95-1.28,1.15-2.43,2.15-3.47,3.01l-1.39-3.01c1.2-.74,2.28-1.51,3.25-2.28v-3.72h-2.75v-2.72h5.6ZM79.43,18.57l-2.03,2.09c-.75-.87-1.95-1.81-3.61-2.79-.13-.08-.25-.15-.36-.22l1.89-1.9c1.8.92,3.15,1.84,4.04,2.75.03.03.06.06.07.07ZM80.3,13.78l-2.08,2.02c-.73-.91-1.87-1.87-3.42-2.89-.14-.08-.28-.16-.41-.24l1.94-1.85c1.56.88,2.82,1.8,3.78,2.77.08.06.14.13.19.19ZM92.64,16.65l1.87.61c-.67,3.14-1.81,5.75-3.42,7.82,1.36,1.05,3,1.85,4.93,2.38-.65.6-1.24,1.38-1.75,2.33-.05.08-.09.15-.12.22-1.99-.66-3.69-1.6-5.1-2.79-1.28,1.09-2.81,1.99-4.59,2.72-.4-.89-.92-1.68-1.56-2.38-.05-.05-.08-.08-.1-.1,1.61-.55,3.02-1.34,4.24-2.38-1.1-1.44-2.01-3.22-2.73-5.35-.27,4.31-1.21,7.55-2.82,9.72-.65-.6-1.38-1.09-2.18-1.48-.1-.05-.18-.09-.26-.12,1.61-2.09,2.45-5.33,2.51-9.72v-6.46h13.47v2.75h-10.67v2.33h7.73l.55-.1ZM90.94,19.37h-4c.57,1.43,1.26,2.64,2.06,3.64.8-1.05,1.44-2.27,1.94-3.64Z"/>
    <path class="st1" d="M98.58,11.5h20.94v22.4h-3.18v-1.31h-14.72v1.31h-3.04V11.5ZM101.61,29.82h14.72v-15.28h-14.72v15.28ZM103.96,17.48h10v9.45h-10v-9.45ZM111.02,24.38v-4.3h-4.31v4.3h4.31Z"/>
  </g>
</svg>