<?xml version="1.0" encoding="UTF-8"?>
<svg id="_圖層_1" data-name="圖層_1" xmlns="http://www.w3.org/2000/svg" version="1.1" viewBox="0 0 55.47 55.47">
  <!-- Generator: Adobe Illustrator 29.7.1, SVG Export Plug-In . SVG Version: 2.1.1 Build 8)  -->
  <defs>
    <style>
      .st0 {
        fill: #00bdff;
      }

      .st1 {
        fill: #fff;
      }
    </style>
  </defs>
  <circle class="st0" cx="27.74" cy="27.74" r="27.74"/>
  <path class="st1" d="M17.34,43.2v-2.39c8.09-7.07,12.88-12.93,14.39-17.56.38-1.22.57-2.39.57-3.52,0-2.98-1.07-4.96-3.22-5.91-.84-.35-1.77-.52-2.78-.52-2.41.03-4.67,1.29-6.78,3.78l-2.35-2.3c2.55-2.81,5.25-4.39,8.09-4.74.52-.06,1.03-.09,1.52-.09,3.65,0,6.32,1.33,8,4,.98,1.59,1.48,3.48,1.48,5.65,0,4.58-2.75,9.85-8.26,15.83-1.33,1.45-2.84,2.97-4.52,4.56,2.64-.2,4.42-.3,5.35-.3h9.04v3.52h-20.52Z"/>
</svg>