<?xml version="1.0" encoding="UTF-8"?>
<svg id="_圖層_1" data-name="圖層_1" xmlns="http://www.w3.org/2000/svg" xmlns:xlink="http://www.w3.org/1999/xlink" version="1.1" viewBox="0 0 193.57 43.68">
  <!-- Generator: Adobe Illustrator 29.7.1, SVG Export Plug-In . SVG Version: 2.1.1 Build 8)  -->
  <defs>
    <style>
      .st0 {
        fill: none;
      }

      .st1 {
        fill: #fff;
        stroke: #ef8639;
        stroke-miterlimit: 10;
        stroke-width: 2px;
      }

      .st2 {
        clip-path: url(#clippath-1);
      }

      .st3 {
        fill: url(#_未命名漸層_5);
      }

      .st4 {
        fill: url(#linear-gradient);
        fill-rule: evenodd;
      }

      .st5 {
        fill: #888;
      }

      .st6 {
        clip-path: url(#clippath);
      }
    </style>
    <clipPath id="clippath">
      <rect class="st0" x="-738.14" y="-666.8" width="1920" height="233.66"/>
    </clipPath>
    <linearGradient id="_未命名漸層_5" data-name="未命名漸層 5" x1="5192.79" y1="11223.59" x2="6756.98" y2="11223.59" gradientTransform="translate(-4506.03 11402.25) rotate(-132.77)" gradientUnits="userSpaceOnUse">
      <stop offset=".2" stop-color="#fff" stop-opacity="0"/>
      <stop offset=".23" stop-color="#fff" stop-opacity=".06"/>
      <stop offset=".43" stop-color="#fff" stop-opacity=".39"/>
      <stop offset=".61" stop-color="#fff" stop-opacity=".65"/>
      <stop offset=".75" stop-color="#fff" stop-opacity=".84"/>
      <stop offset=".86" stop-color="#fff" stop-opacity=".96"/>
      <stop offset=".92" stop-color="#fff"/>
    </linearGradient>
    <clipPath id="clippath-1">
      <rect class="st0" x="-249.14" y="-435.89" width="942" height="367.13"/>
    </clipPath>
    <linearGradient id="linear-gradient" x1="4.94" y1="220.7" x2="-212.01" y2="-326.84" gradientUnits="userSpaceOnUse">
      <stop offset="0" stop-color="#ffe000"/>
      <stop offset="1" stop-color="#ffe000" stop-opacity="0"/>
    </linearGradient>
  </defs>
  <g class="st6">
    <path class="st3" d="M-26.81-369.32c38.97-44.31,100.92-146.46,20.22-238.72-55.1-62.99-99.07-41.9-148.45-40.54-50.97,1.41-79.44-62.31-29.1-97.62C-42.06-838.23,229.79-580.06-26.81-369.32ZM-293.41-665.85c-77.12,84.69-117.31,276.98,88.29,499.26h0S-15.2,38.74-15.2,38.74c25.56,27.64,68.69,29.32,96.32,3.75,27.64-25.56,29.32-68.69,3.75-96.32l-253.97-274.57h0s-75.22-75.87-98.15-172.94c-14.5-61.37-16.43-130.26,25.65-211.72-16.19,11.16-35.97,29.82-51.81,47.22ZM-369.8-685.93c-65.41,70.35-92.79,228.45,29.02,365.84-87.32-187.94-12.59-368.37,128.56-436.68-42.93-2.51-111.48,21.25-157.59,70.85ZM-580.62-459.5c-14.24,14.98-13.75,46.3,17.97,53.09,14.84,2.36,26.85-4.34,38.04-7.49,66.91-18.83,99.99,2.13,134.26,46.4-65.81-133.61-163.91-119.11-190.27-92ZM-52.9-259.81c103.51-21.18,186.56-154.97,160.27-286.82-12.59,128.73-95.45,207.15-170.03,218.47-54.04,8.2-42.75,79.09,9.76,68.35Z"/>
  </g>
  <g>
    <rect class="st1" x="1" y="1" width="191.57" height="41.68" rx="20.84" ry="20.84"/>
    <g>
      <path class="st5" d="M49.28,23.94v-2.92h2.11v2.99c0,3.48-.4,6.15-1.2,7.99-.49-.57-1.06-1.02-1.7-1.36-.03-.03-.06-.05-.07-.05.57-1.51.86-3.73.86-6.66ZM58.83,19.74h-3.61v14.19h-2.66v-14.19h-3.66v-2.58h9.93v2.58ZM58.16,12.25v2.6h-8.47v-2.6h8.47ZM56.39,30.23v-9.23h2.06v9.23h-2.06ZM66.44,30.45h5.02v2.92h-12.85v-2.92h4.83v-8.89h-4.07v-2.87h4.07v-7.51h2.99v7.51h4.21v2.87h-4.21v8.89Z"/>
      <path class="st5" d="M77.76,24.35h6.39v8.38h-5.86v1.19h-2.66v-5.56c-.32.41-.63.76-.93,1.07-.32-.6-.88-1.3-1.67-2.09-.06-.06-.12-.12-.17-.17,1.15-1.13,2.04-2.71,2.68-4.74h-1.2v-2.48h1.82c.06-.37.14-.9.24-1.58h-3.25v-2.45h3.49c.03-.4.06-.94.1-1.6h-2.25v-2.48h9.21v4.08h1.2v2.45h-1.2v4.06h-5.34c-.1.42-.3,1.06-.6,1.92ZM81.3,26.88h-3.02v3.3h3.02v-3.3ZM81.01,18.38h-1.89c-.05.31-.14.83-.26,1.58h2.15v-1.58ZM81.01,14.32h-1.53c-.02.36-.06.89-.12,1.6h1.65v-1.6ZM95.99,25.69v2.77h-4.43v5.44h-2.82v-5.44h-4.12v-2.77h4.12v-2.6h-3.25v-2.7h3.25v-2.28h-3.57v-2.65h1.46c-.29-1.31-.77-2.58-1.44-3.79l2.32-.83c.83,1.34,1.39,2.7,1.67,4.06l-1.6.56h5.36l-2.03-.53c.7-1.57,1.2-2.99,1.48-4.25l2.8.63c-.89,2.15-1.5,3.54-1.82,4.16h2.13v2.65h-3.95v2.28h3.49v2.7h-3.49v2.6h4.43Z"/>
      <path class="st5" d="M119.01,16.21v14.26c0,1.3-.3,2.18-.89,2.65-.16.11-.33.21-.5.29-.7.32-2.11.49-4.21.49h-.48c-.11-.94-.43-1.94-.96-2.99.89.03,2.04.05,3.45.05.38-.03.58-.21.6-.53v-4.47c-.73.81-1.28,1.52-1.65,2.14-2.42-1.44-4.18-3.68-5.26-6.71-1.13,3.21-2.99,5.51-5.58,6.9-.35-.58-.8-1.17-1.34-1.77v7.41h-2.97v-17.71h8.69c-.05-.47-.1-1.11-.17-1.92h-4.14v-2.58h6.65c.05,1.39.19,2.89.43,4.5h8.33ZM102.19,19.11v6.49c2.33-1.31,3.92-3.47,4.76-6.49h-4.76ZM116.02,19.11h-4.67c.92,2.92,2.48,4.99,4.67,6.22v-6.22Z"/>
      <path class="st5" d="M132.03,18.96h2.94c2.14,2.62,4.83,4.67,8.09,6.12.69.31,1.36.58,2.03.8-.51.58-1.11,1.48-1.79,2.7-.96-.42-1.87-.88-2.75-1.39v6.71h-2.97v-.68h-8.06v.7h-2.82v-6.51c-.91.55-1.8,1.01-2.68,1.39-.46-.94-1.01-1.77-1.65-2.5,2.76-1.1,5.27-2.73,7.54-4.88.86-.84,1.57-1.66,2.13-2.45ZM125.95,15.36v2.67h-2.85v-5.35h8.85v-1.99h2.99v1.99h9.04v5.35h-2.99v-2.67h-15.05ZM129.11,15.85l2.8.97c-1.32,1.91-3.09,3.6-5.31,5.08-.32.21-.63.41-.93.58-.46-.73-1.1-1.48-1.91-2.26-.05-.05-.08-.08-.1-.1,2.09-.97,3.77-2.22,5.05-3.74.14-.18.28-.36.41-.53ZM129.52,30.62h8.06v-2.65h-8.06v2.65ZM129.71,25.4h8.06c-1.75-1.25-3.13-2.5-4.14-3.77-1.02,1.31-2.33,2.57-3.92,3.77ZM135.02,17.53l2.06-1.73c2.63,1.59,4.62,3.03,5.96,4.33.08.08.15.15.22.22l-2.23,1.94c-1.12-1.23-2.82-2.62-5.1-4.15-.32-.23-.62-.43-.91-.61Z"/>
    </g>
  </g>
  <g class="st2">
    <path class="st4" d="M-180.88-392.59c-51.28,0-99.32,13.86-140.6,38.02V19.4H64.03c21.58-39.58,33.85-84.98,33.85-133.24,0-153.95-124.8-278.76-278.76-278.76Z"/>
  </g>
</svg>