<?xml version="1.0" encoding="UTF-8"?>
<svg id="_圖層_1" data-name="圖層_1" xmlns="http://www.w3.org/2000/svg" xmlns:xlink="http://www.w3.org/1999/xlink" version="1.1" viewBox="0 0 193.57 43.68">
  <!-- Generator: Adobe Illustrator 29.7.1, SVG Export Plug-In . SVG Version: 2.1.1 Build 8)  -->
  <defs>
    <style>
      .st0 {
        fill: none;
      }

      .st1 {
        fill: #fff;
        stroke: #ef8639;
        stroke-miterlimit: 10;
        stroke-width: 2px;
      }

      .st2 {
        clip-path: url(#clippath-1);
      }

      .st3 {
        fill: url(#_未命名漸層_5);
      }

      .st4 {
        fill: url(#linear-gradient);
        fill-rule: evenodd;
      }

      .st5 {
        fill: #888;
      }

      .st6 {
        clip-path: url(#clippath);
      }
    </style>
    <clipPath id="clippath">
      <rect class="st0" x="-488" y="-666.8" width="1920" height="233.66"/>
    </clipPath>
    <linearGradient id="_未命名漸層_5" data-name="未命名漸層 5" x1="5442.93" y1="11223.59" x2="7007.13" y2="11223.59" gradientTransform="translate(-4086.04 11585.88) rotate(-132.77)" gradientUnits="userSpaceOnUse">
      <stop offset=".2" stop-color="#fff" stop-opacity="0"/>
      <stop offset=".23" stop-color="#fff" stop-opacity=".06"/>
      <stop offset=".43" stop-color="#fff" stop-opacity=".39"/>
      <stop offset=".61" stop-color="#fff" stop-opacity=".65"/>
      <stop offset=".75" stop-color="#fff" stop-opacity=".84"/>
      <stop offset=".86" stop-color="#fff" stop-opacity=".96"/>
      <stop offset=".92" stop-color="#fff"/>
    </linearGradient>
    <clipPath id="clippath-1">
      <rect class="st0" x="1" y="-435.89" width="942" height="367.13"/>
    </clipPath>
    <linearGradient id="linear-gradient" x1="255.09" y1="220.7" x2="38.13" y2="-326.84" gradientUnits="userSpaceOnUse">
      <stop offset="0" stop-color="#ffe000"/>
      <stop offset="1" stop-color="#ffe000" stop-opacity="0"/>
    </linearGradient>
  </defs>
  <g class="st6">
    <path class="st3" d="M223.34-369.32c38.97-44.31,100.92-146.46,20.22-238.72-55.1-62.99-99.07-41.9-148.45-40.54-50.97,1.41-79.44-62.31-29.1-97.62,142.08-92.03,413.93,166.14,157.33,376.88ZM-43.26-665.85c-77.12,84.69-117.31,276.98,88.29,499.26h0S234.94,38.74,234.94,38.74c25.56,27.64,68.69,29.32,96.32,3.75,27.64-25.56,29.32-68.69,3.75-96.32L81.05-328.4h0S5.83-404.28-17.1-501.34c-14.5-61.37-16.43-130.26,25.65-211.72-16.19,11.16-35.97,29.82-51.81,47.22ZM-119.65-685.93c-65.41,70.35-92.79,228.45,29.02,365.84-87.32-187.94-12.59-368.37,128.56-436.68-42.93-2.51-111.48,21.25-157.59,70.85ZM-330.47-459.5c-14.24,14.98-13.75,46.3,17.97,53.09,14.84,2.36,26.85-4.34,38.04-7.49,66.91-18.83,99.99,2.13,134.26,46.4-65.81-133.61-163.91-119.11-190.27-92ZM197.25-259.81c103.51-21.18,186.56-154.97,160.27-286.82-12.59,128.73-95.45,207.15-170.03,218.47-54.04,8.2-42.75,79.09,9.76,68.35Z"/>
  </g>
  <g>
    <rect class="st1" x="1" y="1" width="191.57" height="41.68" rx="20.84" ry="20.84"/>
    <g>
      <path class="st5" d="M53.43,14.97v5.05c0,6.22-.85,10.8-2.56,13.75-.67-.55-1.42-1-2.25-1.36-.08-.03-.14-.06-.19-.07,1.4-2.41,2.14-6.16,2.2-11.25v-8.63h8.61v-1.75h2.92v1.75h8.81v2.5h-3.88v1.24h3.61v1.8h-3.61v2.62h-9.95v-2.62h-3.66v-1.8h3.66v-1.24h-3.71ZM69.65,30.36h-4.35c2.62.73,4.67,1.39,6.17,1.99l-2.66,1.63c-1.44-.66-3.35-1.36-5.74-2.09l1.87-1.53h-5.79l1.96,1.43c-1.79.91-3.96,1.64-6.53,2.19-.49-.65-1.08-1.26-1.77-1.85,2.27-.45,4.18-1.04,5.74-1.77h-3.95v-6.27h6.08v-.85h-7.2v-1.87h17.49v1.87h-7.58v.85h6.27v6.27ZM57.23,25.52v1h3.45v-1h-3.45ZM57.23,27.9v1h3.45v-1h-3.45ZM64.22,16.21v-1.24h-4.33v1.24h4.33ZM64.22,19.06v-1.04h-4.33v1.04h4.33ZM66.87,25.52h-3.49v1h3.49v-1ZM66.87,28.9v-1h-3.49v1h3.49Z"/>
      <path class="st5" d="M95.3,19.42v2.75h-21.58v-2.75h9.86v-2.87h-5.34c-.32.55-.65,1.06-.99,1.53-.34.47-.68.9-1.02,1.29-.16-.13-.35-.27-.57-.41-.22-.15-.46-.29-.72-.44-.26-.15-.5-.28-.74-.41-.24-.13-.45-.23-.65-.32.45-.42.87-.9,1.28-1.45s.79-1.12,1.15-1.74c.36-.62.69-1.25.98-1.92.3-.66.55-1.33.75-1.99l2.92.73c-.13.42-.28.83-.44,1.23-.17.4-.34.8-.51,1.2h3.9v-3.26h3.09v3.26h7.15v2.7h-7.15v2.87h8.64ZM76.54,23.92h16.41v9.99h-3.13v-1.14h-10.29v1.21h-2.99v-10.06ZM79.53,26.66v3.35h10.29v-3.35h-10.29Z"/>
      <path class="st5" d="M106.04,23.97l-2.32.78v5.98c0,1.25-.27,2.08-.81,2.5-.08.05-.16.1-.24.15-.67.34-1.91.51-3.73.51-.11-.79-.38-1.7-.81-2.72.62.03,1.39.05,2.3.05.27-.08.41-.23.43-.46v-5.08c-1.45.45-2.35.73-2.68.83l-.77-3.09c.56-.1,1.71-.36,3.45-.78v-4.59h-3.09v-2.75h3.09v-4.57h2.87v4.57h2.42v2.75h-2.42v3.86l2.03-.49.29,2.55ZM117.22,21.2l1.91.78c-.83,2.93-2.16,5.32-4,7.17,1.67.97,3.57,1.66,5.69,2.07-.65.65-1.29,1.55-1.91,2.7-2.34-.58-4.4-1.51-6.17-2.77-1.87,1.23-4.06,2.17-6.58,2.82-.38-1.05-.88-1.96-1.48-2.72,2.19-.44,4.1-1.15,5.74-2.14-1.12-1.22-2.1-2.71-2.94-4.5l2.08-.66h-2.68v-2.65h.48c-.32-.57-.86-1.2-1.63-1.9-.11-.1-.21-.18-.29-.24,1.69-.99,2.59-2.46,2.7-4.42.02-.19.02-.39.02-.58v-2.53h8.69v5.39c.1.45.22.7.36.73h.69c.19,0,.32-.19.38-.56.05-.34.08-.99.1-1.94.65.47,1.44.82,2.37,1.04-.14,1.88-.5,3.05-1.08,3.5-.35.28-.84.41-1.46.41h-1.56c-1.16,0-1.91-.32-2.25-.97-.24-.47-.36-1.2-.36-2.19v-2.7h-3.13c-.05,3.14-1.21,5.46-3.49,6.95h9.24l.55-.1ZM115.28,23.94h-5.1c.67,1.31,1.52,2.46,2.56,3.45,1.02-.96,1.87-2.11,2.54-3.45Z"/>
      <path class="st5" d="M145.02,17.94h-1.84c-.57,3.81-1.48,6.87-2.73,9.18,1.31,1.85,2.93,3.22,4.86,4.11-.73.65-1.38,1.45-1.94,2.41-.03.06-.06.11-.07.15-1.87-.99-3.4-2.32-4.59-4.01-1.32,1.67-3.08,3.07-5.26,4.2-.29-.71-.79-1.53-1.51-2.45-.05-.05-.09-.09-.12-.12,2.28-1.05,4.05-2.47,5.31-4.25-.75-1.52-1.36-3.2-1.84-5.03-.26.45-.6.98-1.03,1.58-.24-.26-.9-.81-1.99-1.65-.1,5.33-.26,8.55-.5,9.65-.11.44-.24.76-.38.97-.4.58-.94.94-1.63,1.07-.53.1-1.4.13-2.61.1-.1-.97-.35-1.87-.77-2.7.54.05,1.16.07,1.87.07.3,0,.54-.12.72-.36.27-.44.46-3.16.55-8.16v-.34h-2.06c-.02,3.76-.64,6.76-1.87,9.01-.48.89-1.05,1.71-1.72,2.45-.48-.65-1.2-1.3-2.15-1.94,1.8-2.11,2.79-4.86,2.97-8.26.02-.49.02-1.01.02-1.58v-4.81h-2.39v-2.75h3.85v-3.77h2.9v3.77h4.04v2.75h-5.65v2.43h4.86s0,.41-.02,1.17v.27c1.6-2.3,2.73-5.76,3.4-10.38l3.01.41c-.18,1.07-.45,2.43-.84,4.08h7.15v2.75ZM137.05,17.94l-.05.17c.43,2.25,1.02,4.24,1.77,5.98.7-1.78,1.21-3.83,1.53-6.15h-3.25Z"/>
    </g>
  </g>
  <g class="st2">
    <path class="st4" d="M69.27-392.59c-51.28,0-99.32,13.86-140.6,38.02V19.4h385.51c21.58-39.58,33.85-84.98,33.85-133.24,0-153.95-124.8-278.76-278.76-278.76Z"/>
  </g>
</svg>