<?xml version="1.0" encoding="UTF-8"?>
<svg id="_圖層_1" data-name="圖層_1" xmlns="http://www.w3.org/2000/svg" version="1.1" viewBox="0 0 55.47 55.47">
  <!-- Generator: Adobe Illustrator 29.7.1, SVG Export Plug-In . SVG Version: 2.1.1 Build 8)  -->
  <defs>
    <style>
      .st0 {
        fill: #00bdff;
      }

      .st1 {
        fill: #fff;
      }
    </style>
  </defs>
  <circle class="st0" cx="27.74" cy="27.74" r="27.74"/>
  <path class="st1" d="M37.56,13.29l-2.22,2.52c-1.39-1.62-3.14-2.45-5.26-2.48-3.65,0-6.15,2.15-7.48,6.43-.58,2-.9,4.38-.96,7.13,1.77-2.14,3.84-3.42,6.22-3.83.43-.09.84-.13,1.22-.13,4.06,0,6.78,1.7,8.17,5.09.58,1.48.87,3.2.87,5.17,0,3.54-1.16,6.32-3.48,8.35-1.71,1.48-3.67,2.22-5.87,2.22-3.77,0-6.64-1.75-8.61-5.26-1.54-2.78-2.3-6.41-2.3-10.87,0-7.74,1.98-13,5.96-15.78,1.8-1.28,3.84-1.91,6.13-1.91,2.99.03,5.52,1.15,7.61,3.35ZM28.78,40.63c1.94,0,3.43-.97,4.48-2.91.7-1.3,1.04-2.81,1.04-4.52,0-3.8-1.29-6.1-3.87-6.91-.61-.2-1.28-.3-2-.3-2.41,0-4.57,1.29-6.48,3.87-.09.12-.16.22-.22.3.41,5.88,2.17,9.29,5.3,10.22.58.17,1.16.26,1.74.26Z"/>
</svg>