<?xml version="1.0" encoding="UTF-8"?>
<svg id="_圖層_1" data-name="圖層_1" xmlns="http://www.w3.org/2000/svg" version="1.1" viewBox="0 0 193.57 43.68">
  <!-- Generator: Adobe Illustrator 29.7.1, SVG Export Plug-In . SVG Version: 2.1.1 Build 8)  -->
  <defs>
    <style>
      .st0 {
        fill: #fff;
        stroke: #ef8639;
        stroke-miterlimit: 10;
        stroke-width: 2px;
      }

      .st1 {
        fill: #888;
      }
    </style>
  </defs>
  <rect class="st0" x="1" y="1" width="191.57" height="41.68" rx="20.84" ry="20.84"/>
  <g>
    <path class="st1" d="M61.82,11.5h20.94v22.4h-3.18v-1.31h-14.72v1.31h-3.04V11.5ZM64.86,29.82h14.72v-15.28h-14.72v15.28ZM67.21,17.48h10v9.45h-10v-9.45ZM74.27,24.38v-4.3h-4.31v4.3h4.31Z"/>
    <path class="st1" d="M107.88,16.75h-9.31c-.1.24-.25.59-.45,1.04-.11.24-.19.41-.24.51h7.39v15.65h-3.04v-1.17h-11.17v1.17h-2.87v-15.65h6.46c.14-.45.28-.97.41-1.55h-9.31v-2.75h5.62c-.35-.55-.94-1.32-1.77-2.31l2.61-1.22c1.04,1.04,1.83,2.02,2.37,2.94l-1.08.58h5.6c.83-1.2,1.46-2.32,1.89-3.38l3.35.73c-.73,1.07-1.39,1.95-1.96,2.65h5.5v2.75ZM102.24,22.38v-1.53h-11.17v1.53h11.17ZM102.24,26.25v-1.63h-11.17v1.63h11.17ZM91.06,30.18h11.17v-1.68h-11.17v1.68Z"/>
    <path class="st1" d="M129.73,28.9h-4.69c2.89,1.04,5.37,2.06,7.44,3.06l-2.9,1.97c-1.99-1.15-4.36-2.23-7.11-3.23l2.03-1.8h-6.53l2.13,1.73c-2.14,1.21-4.77,2.29-7.9,3.23-.06.02-.11.03-.14.05-.46-.63-1.13-1.39-2.01-2.28,2.5-.65,4.75-1.51,6.75-2.58.11-.05.21-.1.29-.15h-4.02v-12.88h6.22c.1-.47.18-.97.26-1.51h-8.59v-2.67h20.48v2.67h-8.49c-.1.32-.26.83-.5,1.51h7.27v12.88ZM116.11,18.28v1.36h10.41v-1.36h-10.41ZM116.11,21.75v1.39h10.41v-1.39h-10.41ZM116.11,25.28v1.36h10.41v-1.36h-10.41Z"/>
  </g>
</svg>