<?xml version="1.0" encoding="UTF-8"?>
<svg id="_圖層_1" data-name="圖層_1" xmlns="http://www.w3.org/2000/svg" version="1.1" viewBox="0 0 55.47 55.47">
  <!-- Generator: Adobe Illustrator 29.7.1, SVG Export Plug-In . SVG Version: 2.1.1 Build 8)  -->
  <defs>
    <style>
      .st0 {
        fill: #00bdff;
      }

      .st1 {
        fill: #fff;
      }
    </style>
  </defs>
  <circle class="st0" cx="27.74" cy="27.74" r="27.74"/>
  <path class="st1" d="M27,43.76c-4.03-.03-7.48-1.46-10.35-4.3l2-2.65c2.55,2.29,5.22,3.48,8,3.56,2.41,0,4.27-.97,5.61-2.91.9-1.33,1.35-2.93,1.35-4.78,0-3.25-1.15-5.46-3.43-6.65-.99-.52-2.1-.78-3.35-.78-1.65,0-3.33.55-5.04,1.65-.15.09-.28.17-.39.26l-2.17-1.3,1.04-15.3h15.87v3.48h-12.3l-.83,9.43c1.57-.84,3.19-1.26,4.87-1.26,3.8,0,6.55,1.36,8.26,4.09,1.04,1.71,1.56,3.8,1.56,6.26,0,3.94-1.41,6.97-4.22,9.09-1.88,1.42-4.04,2.13-6.48,2.13Z"/>
</svg>