<?xml version="1.0" encoding="UTF-8"?>
<svg id="_圖層_1" data-name="圖層_1" xmlns="http://www.w3.org/2000/svg" version="1.1" viewBox="0 0 193.57 43.68">
  <!-- Generator: Adobe Illustrator 29.7.1, SVG Export Plug-In . SVG Version: 2.1.1 Build 8)  -->
  <defs>
    <style>
      .st0 {
        fill: #fff;
        stroke: #ef8639;
        stroke-miterlimit: 10;
        stroke-width: 2px;
      }

      .st1 {
        fill: #888;
      }
    </style>
  </defs>
  <rect class="st0" x="1" y="1" width="191.57" height="41.68" rx="20.84" ry="20.84"/>
  <g>
    <path class="st1" d="M73.07,29.72h10.36v2.99h-22.28v-2.99h8.78V10.99h3.13v7.12h8.64v3.01h-8.64v8.6Z"/>
    <path class="st1" d="M85.54,20.47h22.54v3.21h-22.54v-3.21Z"/>
    <path class="st1" d="M132.29,12.4v2.19h-3.68c.35.52.58.9.69,1.14l-.79.22,1.75,1.75c-4.02.71-8.96,1.11-14.81,1.19v.66h14.88v5.15h-15.03c0,.1-.02.24-.05.44-.03.19-.05.34-.05.44h15.94v6.03c0,.91-.18,1.51-.55,1.8-.11.08-.23.15-.36.22-.46.23-1.43.34-2.9.34-.08-.5-.31-1.2-.69-2.09.67.05,1.16.06,1.48.02.18-.05.27-.15.29-.29v-.9h-2.01v3.09h-2.37v-3.09h-1.96v3.09h-2.39v-3.09h-1.91v3.28h-2.58v-8.31c-.45,3.37-1.51,6.03-3.18,7.99-.32-.53-.85-1.06-1.6-1.58-.18-.13-.33-.23-.45-.29,1.87-2.28,2.82-5.65,2.85-10.11v-5.22l1.84.44c2.22-.06,4.61-.19,7.18-.39-.97-.55-1.72-.94-2.25-1.17.29-.23.58-.48.89-.75h-3.06c.22.44.41.83.57,1.17l-2.63.75c-.11-.44-.4-1.08-.86-1.92h-.38c-.64.89-1.28,1.64-1.94,2.26-.75-.63-1.54-1.17-2.37-1.63,1.42-1.13,2.54-2.56,3.35-4.28.08-.16.15-.32.22-.46l2.73.75c-.13.28-.33.66-.6,1.17h5.48v1.7c.99-1.07,1.76-2.28,2.32-3.62l2.78.68c-.16.41-.36.82-.6,1.24h6.84ZM127.58,22.73v-1.19h-12.13c0,.52,0,.92-.02,1.19h12.16ZM119.68,27.66h-1.91v1.09h1.91v-1.09ZM122.07,28.75h1.96v-1.09h-1.96v1.09ZM125.42,14.59h-1.36c-.51.68-1.07,1.31-1.67,1.9,1.75-.15,3.09-.28,4-.39-.22-.39-.54-.89-.96-1.51ZM128.41,28.75v-1.09h-2.01v1.09h2.01Z"/>
  </g>
</svg>