<?xml version="1.0" encoding="UTF-8"?>
<svg id="_圖層_1" data-name="圖層_1" xmlns="http://www.w3.org/2000/svg" xmlns:xlink="http://www.w3.org/1999/xlink" version="1.1" viewBox="0 0 193.57 43.68">
  <!-- Generator: Adobe Illustrator 29.7.1, SVG Export Plug-In . SVG Version: 2.1.1 Build 8)  -->
  <defs>
    <style>
      .st0 {
        fill: none;
      }

      .st1 {
        fill: #fff;
        stroke: #ef8639;
        stroke-miterlimit: 10;
        stroke-width: 2px;
      }

      .st2 {
        fill: #888;
      }
    </style>
    <clipPath id="clippath-1">
      <rect class="st0" x="-499.29" y="-435.89" width="942" height="367.13"/>
    </clipPath>
  </defs>
  <rect class="st1" x="1" y="1" width="191.57" height="41.68" rx="20.84" ry="20.84"/>
  <g>
    <path class="st2" d="M71.47,17.96h-1.29c-.48,3.94-1.28,7.1-2.39,9.5,1.04,1.85,2.3,3.23,3.8,4.16-.72.62-1.32,1.36-1.82,2.24-.03.05-.06.09-.07.12-1.39-.96-2.58-2.2-3.56-3.74-1.13,1.51-2.52,2.77-4.16,3.79-.18-.42-.59-1.11-1.24-2.07l-1.7,1.7c-.67-.49-1.53-1.02-2.58-1.6-1.48.87-3.55,1.53-6.2,1.97-.18-.76-.52-1.51-1.03-2.26,1.98-.18,3.53-.49,4.64-.95-.14-.05-.37-.14-.67-.27-.29-.13-.5-.22-.65-.27l-.22.32-2.32-.58c.72-1.12,1.18-1.85,1.39-2.21l-2.63.02-.1-2.19c1.66,0,2.97,0,3.92-.02.02-.02.19-.35.53-1h-3.47v-4.59h4.33v-.78h-3.85v-2.65h-1.53v-2.09h1.53v-2.6h3.85v-1.21h2.46v1.21h4.07v2.6h1.6v2.09h-1.6v2.65h-4.07v.78h4.57v.78c1.26-2.43,2.14-5.8,2.63-10.11l2.75.36c-.16,1.28-.38,2.66-.67,4.16h5.74v2.75ZM52.04,21.8v1.04h1.94v-1.04h-1.94ZM53.98,13.78h-1.44v.9h1.44v-.9ZM52.54,17.38h1.44v-.92h-1.44v.92ZM54.07,27.76l-.41.7c.49.16,1.3.48,2.42.95.45-.49.81-1.05,1.1-1.7l-3.11.05ZM62.06,27.59l-2.25.05c-.33,1.12-.82,2.06-1.46,2.82.59.29,1.28.66,2.06,1.12,1.82-1,3.26-2.38,4.33-4.13-.59-1.44-1.08-3.05-1.48-4.84-.27.57-.59,1.12-.96,1.65-.24-.36-.67-.85-1.29-1.48v1.85h-5.43l.22.05-.5.92c.72,0,1.82-.02,3.3-.05,1.6-.02,2.78-.03,3.54-.05l-.07,2.09ZM58,13.78h-1.56v.9h1.56v-.9ZM56.44,17.38h1.56v-.92h-1.56v.92ZM58.47,21.8h-2.03v1.04h2.03v-1.04ZM67.45,17.96h-2.42l-.05.15c.35,2.28.79,4.23,1.32,5.83.51-1.68.89-3.68,1.15-5.98Z"/>
    <path class="st2" d="M78.55,10.75l2.73.92c-.67,1.64-1.44,3.23-2.3,4.79v17.4h-2.78v-13.17c-.73.96-1.4,1.74-2.01,2.36-.33-.92-.82-1.9-1.46-2.94-.03-.06-.06-.11-.1-.15,1.96-1.85,3.65-4.24,5.05-7.19.32-.68.61-1.35.86-2.02ZM91.09,30.09h4.98v2.79h-15.82v-2.79h8.04c1.02-3.24,1.76-6.65,2.23-10.23.05-.32.09-.62.12-.9l3.18.51c-.78,3.94-1.69,7.48-2.73,10.62ZM80.73,15.17h5.77v-4.16h2.94v4.16h6.13v2.82h-14.83v-2.82ZM86.78,28.68l-2.9.63c-.08-2.49-.49-5.41-1.22-8.75-.08-.36-.16-.69-.24-1l2.63-.46c.89,3.32,1.46,6.38,1.7,9.18,0,.15,0,.28.02.39Z"/>
    <path class="st2" d="M103.96,16.07l2.8,1.09c-.75,1.28-1.63,2.55-2.63,3.81v12.98h-2.92v-9.72c-.78.76-1.45,1.38-2.01,1.85-.73-1.08-1.4-1.94-1.99-2.58,2.07-1.46,3.92-3.3,5.53-5.54.46-.65.87-1.28,1.22-1.9ZM103.03,10.7l2.82,1.17c-1.6,2.11-3.53,4.05-5.79,5.83-.33.26-.65.49-.96.7-.59-1.05-1.12-1.85-1.6-2.41,1.69-1.09,3.24-2.46,4.64-4.13.35-.42.65-.81.89-1.17ZM120.26,18.96v2.79h-3.35v8.75c0,1.28-.27,2.13-.81,2.55-.18.13-.37.23-.57.32-.83.32-2.42.49-4.76.49-.14-1-.44-2.01-.89-3.01,1.45.08,2.6.1,3.45.05.4-.05.61-.2.62-.46v-8.67h-7.23v-2.79h13.54ZM119.63,12.11v2.82h-11.89v-2.82h11.89Z"/>
    <path class="st2" d="M128.46,23.62v6.2l3.52-.58.17,2.48c-2.62.52-5.7,1.08-9.26,1.68l-.57-2.65c.43-.05,1.64-.22,3.64-.51v-6.61h-3.35v-2.5h3.35v-1.82h-2.27v-.78l-.17.17c-.19-.32-.47-.68-.83-1.08-.36-.4-.68-.68-.97-.86,1.82-1.59,3.23-3.6,4.24-6.03h2.32c1.96,1.64,3.37,3.08,4.21,4.33l-1.56,2.11v2.14h-2.46v1.82h3.18v2.5h-3.18ZM124.66,24.57c.49,1.64.81,3.05.93,4.25l-2.01.58c-.06-1.15-.34-2.59-.84-4.32l1.91-.51ZM130.33,16.85c-.91-1.33-1.83-2.45-2.78-3.35-.73,1.28-1.49,2.4-2.27,3.35h5.05ZM128.7,28.56c.46-1.59.77-2.99.91-4.2l2.2.53c-.11.34-.26.81-.45,1.42s-.36,1.14-.5,1.6c-.14.46-.28.85-.41,1.15l-1.75-.51ZM136.17,16.53c-.11-.29-.25-.63-.42-1.01s-.35-.78-.54-1.19-.39-.83-.59-1.24c-.2-.41-.4-.8-.59-1.15l-2.15.8c.18.39.36.8.56,1.24.2.44.39.87.56,1.29.18.42.34.83.49,1.23.15.4.27.75.37,1.06l2.3-1.02ZM143.71,18.28h-4.16v-7.58h-2.82v7.58h-4.19v15.6h2.8v-5.1h5.5v1.87c0,.16-.03.28-.08.34-.06.06-.17.1-.35.1h-.36c-.16,0-.35,0-.56-.01-.22,0-.44-.02-.68-.02-.24,0-.48-.02-.72-.04.18.37.36.82.55,1.34.19.52.32.98.38,1.39.8,0,1.48-.03,2.06-.09.57-.06,1.08-.2,1.51-.43.42-.23.71-.54.87-.94.17-.4.25-.93.25-1.59v-12.42ZM140.83,20.81v1.63h-5.5v-1.63h5.5ZM135.33,26.37v-1.7h5.5v1.7h-5.5ZM142.25,11.91c-.11.37-.25.77-.43,1.2s-.36.86-.55,1.29c-.19.43-.39.85-.59,1.25-.2.41-.39.77-.59,1.09l2.08.87c.37-.62.76-1.35,1.18-2.2.42-.85.82-1.71,1.18-2.59l-2.3-.92Z"/>
  </g>
</svg>