<?xml version="1.0" encoding="utf-8"?>
<!-- Generator: Adobe Illustrator 27.0.0, SVG Export Plug-In . SVG Version: 6.00 Build 0)  -->
<svg version="1.1" id="圖層_1" xmlns="http://www.w3.org/2000/svg" xmlns:xlink="http://www.w3.org/1999/xlink" x="0px" y="0px"
	 viewBox="0 0 662.7 168.3" style="enable-background:new 0 0 662.7 168.3;" xml:space="preserve">
<style type="text/css">
	.st0{fill:#f88d2a;}
	.st1{fill:#53575A;}
</style>
<g>
	<path class="st0" d="M31.3,117.4l-6.6-14.8c2.5-0.2,7.8-0.7,15.8-1.5c2.1-0.3,3.7-0.4,4.8-0.5V89.5h-5.7c-3.1,0.1-6.3,0.7-9.6,1.8
		L26.8,85c3.5,0.5,7.7,0.8,12.6,1h5.9c0-4.6-0.3-8.7-0.8-12.2l11.9,1.6c-1.2-1.1-1.8-3.5-1.8-7.2V57.5h-6.2
		c-0.9,6.1-2.9,11.1-5.9,14.8c-3.9,4.8-10,8.6-18.4,11.5l-1.4-1.6c4.8-3.4,8.2-7.4,10.4-12c1.7-3.4,2.7-7.6,3.2-12.6h-4
		c-2.1,0.1-4.2,0.7-6.3,1.8l-3.2-6.3c4.2,0.5,9.3,0.8,15.4,1h7.2V43.1h-5.7c-3.3,0.1-6.7,0.7-10.1,1.8l-3.3-6.4
		c3.6,0.5,7.9,0.8,12.9,1h6.2c0-4.9-0.3-9.1-0.8-12.6c7.5,1.8,12.2,3.2,14.3,4.2c1.4,0.8,1.6,1.5,0.5,2.1l-1.6,1.1v5.2h5.2l2.5-3.7
		c0.2-0.3,0.4-0.6,0.6-1c1.3-1.9,2.3-2.8,2.9-2.8c0.8,0,2.8,1.3,5.9,3.9c3.1,2.6,4.6,4.3,4.6,5.2c-0.3,1.3-1.4,2-3.2,2H57.7v10.9
		h7.6l2.8-4.2c0.3-0.3,0.6-0.8,1.1-1.5c1.2-1.8,2-2.7,2.5-2.7c0.8,0,2.8,1.4,6,4.3c3.2,2.9,4.7,4.8,4.7,5.7
		c-0.3,1.3-1.3,1.9-3.2,1.9H65.2v0.1v8.3c0,0.9,0.5,1.4,1.5,1.4h2.8h2.4c0.8,0,1.3-0.3,1.8-0.8c0.9-1.3,2-4,3.3-7.8h1.3l0.5,7.8
		c2,0.9,3,2.4,3,4.4c0,2.2-1,3.7-2.9,4.7c-2.1,1-5.6,1.5-10.6,1.5h-4.9c-1.4,0-2.4,0-2.9-0.1c-0.3,0.6-1.2,1-2.7,1.3V86h5.4l2.5-3.5
		c0.2-0.3,0.5-0.6,0.9-1.1c1.3-1.7,2.1-2.5,2.7-2.5c0.8,0,2.7,1.2,5.6,3.7c2.9,2.4,4.4,4.1,4.4,5c-0.3,1.3-1.3,2-3.2,2H57.7v9.6
		c5.6-0.8,12.8-1.7,21.3-2.9l0.3,1.8c-12.3,5.4-27.2,10.9-44.7,16.5C33.9,116.2,32.8,117.2,31.3,117.4z M30.1,145.5
		c-2.4-0.6-4.1-2.1-4.9-4.4c-0.5-2-0.3-3.9,0.8-5.7c0.9-1.6,2.4-2.9,4.3-3.9c3.4-1.3,6.4-3.6,9.1-6.7c3-3.5,4.8-7.4,5.2-11.6h1.6
		c2.1,7.7,2.1,14.6-0.1,20.5c-1.9,5-4.9,8.5-9,10.7C34.7,145.7,32.4,146.1,30.1,145.5z M61.5,140.3c0.8-8.2-0.5-16.5-3.8-25l1.4-0.6
		c6.5,3.4,11.1,7.3,13.8,11.9c2.2,3.8,2.9,7.4,2,10.9c-0.8,3.2-2.6,5.2-5.3,6.1C66.7,144.2,64,143.2,61.5,140.3z M131.3,115.6
		c-2.2-0.1-4.4-0.9-6.6-2.5c-5.5-4.4-9.1-11.9-11-22.6c-1.3-7.7-1.9-20.1-1.9-37.4h-8.1c-0.7,9.3-1.5,16.1-2.5,20.5
		c5,4,8,8.2,9.2,12.6c0.9,4,0.3,6.9-2,8.9c-2.2,2-5,1.8-8.4-0.4c-0.6-1.8-1.7-4.4-3.4-7.7c-5.4,10.9-14.6,19.5-27.5,26l-1.4-1.9
		c11.3-9,18.4-20.9,21.3-35.6c-3-3.9-6.1-7.4-9.2-10.7l1.3-1c3.5,1,6.6,2.1,9.3,3.4c0.4-4.5,0.7-9.1,0.8-14h-3.4
		c-1.7,0.1-3.5,0.7-5.3,1.8l-3.4-6.3c2.4,0.5,5.1,0.8,8.3,1h3.9c0.2-9.1-0.3-16.6-1.3-22.6c8.3,0.8,13.6,1.5,15.8,2.3
		c1.5,0.5,1.7,1.2,0.5,2l-2,1.4c-0.2,7.6-0.3,13.2-0.5,16.9h6.3l2.7-3.8c0.3-0.3,0.6-0.8,1.1-1.4c1.2-1.7,2-2.5,2.5-2.5
		c0.8,0,3,1.5,6.6,4.5c3.6,3,5.4,4.9,5.4,5.9c-0.9,1-2.4,1.7-4.3,2c-0.2,12.4,0.1,21.7,0.8,27.9c0.8,8.2,2.4,13.8,4.9,16.7
		c0.6,0.8,1.2,0.7,1.9-0.5c1-2.2,2.2-5.7,3.5-10.5l1.3,0.3l-1.1,14.1c2,3.6,2.5,6.8,1.4,9.6C135.9,114.3,134,115.6,131.3,115.6z
		 M90.4,141.1c-0.3-4.1-1.4-8.7-3.5-13.6c-1.8-4.3-3.9-8.2-6.4-11.9l1.1-0.8c7.7,2.4,13.4,5.7,17.2,10c3.2,3.5,4.7,7.2,4.4,11
		c-0.3,3.5-1.7,5.8-4.3,7.1C96.2,144.2,93.4,143.6,90.4,141.1z M123.5,143.5c-1.4-5-4.1-10.4-8-16c-3.6-5.2-7.6-9.7-11.9-13.5
		l1.1-0.9c9.8,1.9,17.5,5,23.1,9.6c4.5,3.7,7.2,7.8,7.8,12.4c0.6,4-0.4,7-2.9,9C130.2,146,127.1,145.8,123.5,143.5z"/>
	<path class="st0" d="M196.3,146c-1.2,0-2.1-0.3-2.8-0.8c-0.7-0.5-1-1.1-1-1.8c0.8-10.9,1.2-21.8,1.4-32.8V56.2
		c0-10.6-0.5-19.2-1.6-25.9l16,7.2h15.5l2.8-3.4c0.3-0.3,0.6-0.7,1.1-1.3c1.2-1.4,2-2.1,2.5-2.1c0.8,0,3.1,1.4,6.8,4.3
		c3.7,2.9,5.5,4.8,5.5,5.7c-0.8,1.2-2.2,2-4.4,2.4V56c0.3,10.8,0.5,19.1,0.9,25.1c-0.6,0.8-2.1,1.7-4.7,2.7c-2.7,1-5,1.5-7.1,1.5
		c-1.9,0-2.8-0.8-2.8-2.5c0.1-0.3,0.2-0.8,0.3-1.3c0.1-0.4,0.2-0.8,0.3-1v-2.5h-17.2v32.2c0.2,10.4,0.5,20.3,1,29.7
		c-0.6,1.4-2,2.8-4.3,4C202,145.3,199.3,146,196.3,146z M207.8,55.7H225V41.2h-17.2V55.7z M207.8,74.4H225V59.2h-17.2V74.4z
		 M274.1,145.9c-0.6-5.2-1.9-8.7-3.9-10.5c-3.1-2.5-7.7-4.3-13.8-5.3v-1.8c6.9,0.3,13.8,0.7,20.6,1.1c2.1,0,3.2-1,3.2-3V77.9h-17.8
		v2.5c0,0.8-1.2,1.6-3.5,2.7c-2.6,1.2-5.2,1.8-7.8,1.8c-1.9,0-2.9-0.8-2.9-2.5c0.4-4,0.7-9.3,0.9-16V57c0-10.6-0.5-19.2-1.6-25.9
		l15.5,6.4H279l2.9-3.9c0.3-0.3,0.6-0.8,1-1.4c1.4-1.8,2.4-2.7,2.9-2.7c0.8,0,3.3,1.7,7.4,5c4.1,3.3,6.1,5.5,6.1,6.4
		c-1,1.3-2.7,2.2-4.9,2.7v84.6c0,5.6-1.1,9.6-3.4,12C288.1,143.1,282.4,145,274.1,145.9z M262.4,55.7h17.8V41.2h-17.8V55.7z
		 M262.4,74.4h17.8V59.2h-17.8V74.4z"/>
	<path class="st0" d="M452.2,145.9c-18.1-6.8-32.7-16.3-43.9-28.4c-14.6,13-33.2,22.3-56.1,28.2l-0.6-1.3
		c20.6-8.6,37.2-20.4,49.6-35.3c-8.2-11.2-14.2-24.4-18.2-39.8c-3.8,9.3-6.6,15.6-8.3,19.1c1.1,1.6,0.9,3.1-0.5,4.5L364,80.5
		c6.1-4.4,12-9.3,17.5-14.9l0.9-8l6.3,1.9l-4.4,6.7c4.4,13.5,11.9,25.2,22.6,35.3c9.3-13.4,15.4-28.6,18.3-45.7h-51.8
		c-6,0.1-12.3,0.7-18.9,1.8l-3.2-6.3c4.6,0.5,10.2,0.8,16.8,1H401c0-10-0.5-18.3-1.5-25c9.5,1.9,15.4,3.3,17.8,4.3
		c1.8,0.8,2,1.6,0.6,2.5l-2.1,1.5v16.7H441l3.9-5.9c0.3-0.4,0.8-1.1,1.4-2c1.8-2.7,3-4,3.5-4c0.8,0,3.5,2,8.1,6.1s6.8,6.5,6.8,7.4
		c-0.3,1.3-1.4,2-3.4,2h-18.4c-5.1,21.9-14,39.7-26.5,53.5c13.7,9.8,30.5,17.2,50.2,22.1l-0.3,1.5
		C459.3,134,454.6,138.3,452.2,145.9z"/>
	<path class="st0" d="M567.6,146c-2.3,0-3.4-0.8-3.4-2.5c0.3-3.2,0.6-7.1,0.8-11.7v-7.2h-27.4c-6,0.1-12.3,0.7-18.9,1.8l-3.2-6.4
		c4.6,0.5,10.2,0.8,16.8,1H565v-13h-16.2v3.2c0,0.8-1.3,1.7-3.9,2.9c-2.8,1.2-5.6,1.8-8.3,1.8c-1.9,0-2.8-0.8-2.8-2.5
		c0.3-3.5,0.6-7.8,0.8-13v-7.8c0-9.6-0.5-17.6-1.5-24l16.8,6.8h44.9l3-3.7c0.3-0.3,0.7-0.8,1.3-1.4c1.3-1.5,2.1-2.3,2.7-2.3
		c0.8,0,3.2,1.6,7.2,4.7c4,3.1,5.9,5.1,5.9,6.1c-0.8,1.2-2.3,1.9-4.4,2.3v9.5c0.2,7.7,0.4,13.8,0.8,18.3c-0.4,0.8-2,1.8-4.8,2.9
		c-2.9,1.2-5.6,1.8-8,1.8h-2.5v-5.4h-16.2v13h27.9l3.7-5c0.3-0.4,0.8-1,1.3-1.6c1.8-2.3,2.9-3.4,3.4-3.4c0.8,0,3.3,1.7,7.5,5.2
		c4.2,3.5,6.2,5.6,6.2,6.6c-0.3,1.3-1.4,2-3.4,2h-46.6v6.2c0,1,0,2.3,0.1,3.8c0.2,3.5,0.3,6.2,0.5,8c-0.5,0.8-1.8,1.5-3.8,2.1
		C574,145.5,571,146,567.6,146z M519.9,68.3l-3.3-6.4c4.6,0.5,10.2,0.8,16.8,1l19.6-0.1c-1.3-0.7-2.3-1.3-3-2c0-5-1.5-10.4-4.5-15.9
		h-6.9c-4,0.1-8.2,0.7-12.6,1.8l-3.3-6.4c4.6,0.5,10.2,0.8,16.8,1h25.5c0-6-0.3-10.9-0.9-14.6c9.1,1.9,14.8,3.3,17,4.3
		c1.7,0.8,1.9,1.6,0.6,2.5l-2,1.4v6.4h22.5l3.5-5.2c0.3-0.3,0.6-0.9,1.1-1.6c1.8-2.4,2.9-3.5,3.4-3.5c0.8,0,3.2,1.8,7.1,5.3
		c3.9,3.5,5.9,5.8,5.9,6.7c-0.3,1.3-1.4,2-3.3,2h-27.8c5.5,1.3,8.8,2.5,10.1,3.4c1,0.7,0.8,1.3-0.6,1.8l-2.3,0.8
		c-4.5,4.1-10.1,8.2-16.8,12.1h24.4l3.5-5.1c0.3-0.4,0.8-1.1,1.4-1.9c1.5-2.2,2.5-3.3,3-3.3c0.8,0,3.3,1.7,7.3,5.2
		c4,3.5,6.1,5.7,6.1,6.6c-0.3,1.3-1.5,2-3.4,2h-86C532.9,66.7,526.6,67.2,519.9,68.3z M548.8,89.5h47.1V78.8h-47.1V89.5z
		 M548.8,104.2h47.1V93.1h-47.1V104.2z M559.3,62.9h20.1c2-4.6,4.1-10.6,6.2-18.1h-35c5.1,1.4,8.8,3.5,11,6.1
		c1.9,2.3,2.5,4.6,1.9,7.1C562.9,60.3,561.5,61.9,559.3,62.9z"/>
</g>
</svg>
