<?xml version="1.0" encoding="UTF-8"?>
<svg id="_圖層_1" data-name="圖層_1" xmlns="http://www.w3.org/2000/svg" version="1.1" viewBox="0 0 315.59 74.76">
  <!-- Generator: Adobe Illustrator 29.7.1, SVG Export Plug-In . SVG Version: 2.1.1 Build 8)  -->
  <defs>
    <style>
      .st0 {
        fill: #ed781e;
      }
    </style>
  </defs>
  <path class="st0" d="M8.81,74.52l-8.81-3.59c3.74-3.12,6.93-7.35,9.57-12.71.24-.42.45-.83.63-1.25l8.96,2.42c-2.52,5.82-5.8,10.71-9.86,14.66-.22.21-.39.36-.5.47ZM68.47,46.93h.94c.42-.05.74-.18.96-.39.29-.42.5-1.25.63-2.49.26-1.56.53-4.52.82-8.89,1.52,1.3,3.4,2.37,5.64,3.2-.44,5.04-.99,8.63-1.65,10.76-.54,1.82-1.36,3.2-2.46,4.13-.99.78-2.44,1.17-4.37,1.17h-3.51c-2.13-.05-3.8-.7-5.02-1.95-1-1.3-1.45-3.61-1.33-6.94.04-.62.08-1.27.13-1.95l.39-5.85-3.61,6.31c-1.5-1.66-2.94-3.09-4.32-4.29-2.59,6.91-6.38,12.34-11.37,16.29-.79-1.45-1.81-2.86-3.07-4.21v.16c-18.74,1.87-30.38,3.01-34.93,3.43l-.04-7.72c4.49-.26,9.16-.57,14.02-.94l.32-4.91H4.96l.44-6.63h11.69l.28-4.29h7.95c-1.27-1.25-1.83-3.4-1.68-6.47l.22-3.27h-3.98c-.92,4.52-3.04,7.8-6.34,9.82-2,1.2-4.54,2.16-7.6,2.88-.45-1.82-1.45-3.59-3-5.3-.15-.1-.27-.21-.37-.31,4.83-.83,7.91-2.47,9.21-4.91.36-.67.64-1.4.85-2.18H4.61l.43-6.55h13.41l.26-3.9h-10.6l.42-6.39h10.6l.28-4.29h8.42l-.28,4.29h10.6l-.42,6.39h-10.6l-.26,3.9h12.86l-.43,6.55h-8.81l-.22,3.27c.19.99.5,1.53.91,1.64h1.87c.57,0,.96-.34,1.16-1.01.14-.57.28-1.48.42-2.73,1.13.94,2.98,1.69,5.54,2.26-.61,3.74-1.88,5.98-3.79,6.7-.75.26-1.66.39-2.75.39h-3.98c-1.72,0-3-.18-3.86-.55l-.27,4.05h10.84l-.44,6.63h-10.84l-.28,4.29c1.41-.16,3.56-.34,6.43-.55,2.88-.31,5.02-.52,6.43-.62l-.17,2.49c3.4-3.48,5.9-7.85,7.49-13.1-3.28-2.34-5.31-3.74-6.11-4.21l4.28-7.02c1.85,1.09,3.15,1.87,3.9,2.34.41-2.34.72-4.65.93-6.94h-6.7l.55-8.34h6.94c.39-4.37.67-7.77.83-10.21h8.57c-.08,1.14-.22,2.86-.42,5.15-.2,2.29-.34,3.98-.41,5.07h12.71l-2.2,33.21c-.12,1.87-.14,2.91-.05,3.12.19.26.42.39.68.39ZM23.89,59.71l8.95-.94c.74,5.25,1.04,9.87.88,13.88l-9.51,1.17c.3-4.57.2-9.28-.31-14.11ZM39.8,59.64l8.99-1.48c1.89,5.2,3.04,9.77,3.46,13.72l-9.63,1.87c-.31-4.78-1.24-9.48-2.81-14.11ZM60.92,18.55h-4.52c-.57,4.63-1.25,8.63-2.04,12,1.98,1.46,3.81,2.96,5.47,4.52l1.09-16.53ZM55.64,59.48l9.38-2.81c4.45,6.6,7.37,11.54,8.76,14.81l-9.95,3.12c-1.64-4.31-4.28-9.2-7.92-14.66-.09-.21-.18-.36-.28-.47Z"/>
  <path class="st0" d="M118.14,3.2l-2.03,30.71h-20.97l-2.69,40.61h-9.43L87.74,3.2h30.4ZM95.64,26.35h12.08l.3-4.6h-12.08l-.3,4.6ZM108.75,10.84h-12.08l-.27,4.13h12.08l.27-4.13ZM154.93,3.2l-3.96,59.87c-.29,4.42-1.45,7.33-3.46,8.73-.54.36-1.14.67-1.78.94-2.52,1.14-7.57,1.72-15.16,1.72h-1.4c-.21-3.07-1.07-6.24-2.57-9.51-.04-.1-.09-.18-.14-.23,2.59.16,6.79.23,12.61.23,1.38-.36,2.15-1.04,2.32-2.03l1.9-28.77h-21.59l2.05-30.95h31.18ZM131.25,26.5h12.55l.31-4.76h-12.55l-.31,4.76ZM144.84,10.84h-12.55l-.27,4.13h12.55l.27-4.13Z"/>
  <path class="st0" d="M236.18,21.83h-11.46c-4.97,11.54-11.47,21.36-19.49,29.47,8.04,6.5,17.87,11.07,29.5,13.72-2.55,2.39-4.93,5.4-7.15,9.04-.12.16-.2.31-.27.47-12.11-3.17-22.28-8.42-30.53-15.75-9.08,6.81-19.82,12.13-32.24,15.98-1.01-2.76-2.69-5.72-5.03-8.89-.15-.16-.24-.28-.29-.39,12.26-3.17,22.52-7.77,30.77-13.8-6.39-7.95-11.39-17.9-15.02-29.86h-11.46l.61-9.28h31.34l.83-12.55h9.59l-.83,12.55h31.73l-.61,9.28ZM213.49,21.83h-27.91c2.85,8.84,7.07,16.42,12.68,22.76,6.12-6.18,11.2-13.77,15.23-22.76Z"/>
  <path class="st0" d="M313.33,58.78l-.5,7.56h-31.49l-.54,8.11h-9.98l.54-8.11h-30.95l.5-7.56h30.95l.23-3.51h-22.37l1.72-26.04h55.27l-1.72,26.04h-22.92l-.23,3.51h31.49ZM315.59,18.55l-.49,7.41h-71.72l.49-7.41h17.93c-.37-1.45-1.06-3.3-2.05-5.53l1.82-.39h-12.32l.49-7.41h25.65l.35-5.22h9.98l-.35,5.22h26.43l-.49,7.41h-10.52l.46.16c-.29.52-1.46,2.44-3.5,5.77h17.85ZM259.5,45.21l-.24,3.66h36.48l.24-3.66h-36.48ZM260.14,35.47l-.26,3.9h36.48l.26-3.9h-36.48ZM290.65,12.63h-20.97c1.15,2.18,1.91,4.16,2.26,5.92h15.83c.18-.42.51-1.09.99-2.03.9-1.77,1.53-3.07,1.89-3.9Z"/>
</svg>