<?xml version="1.0" encoding="utf-8"?>
<!-- Generator: Adobe Illustrator 27.0.0, SVG Export Plug-In . SVG Version: 6.00 Build 0)  -->
<svg version="1.1" id="圖層_1" xmlns="http://www.w3.org/2000/svg" xmlns:xlink="http://www.w3.org/1999/xlink" x="0px" y="0px"
	 viewBox="0 0 902.7 186.3" style="enable-background:new 0 0 902.7 186.3;" xml:space="preserve">
<style type="text/css">
	.st0{fill:#53575A;}
</style>
<g>
	<path class="st0" d="M36.4,139.9c0-0.2,0-0.4,0-0.7c-0.1-1.8-0.2-4.3-0.5-7.4c-0.3-3.1-0.7-6.9-1.1-11.4c-0.5-4.5-0.9-8.5-1.2-11.9
		C31.7,85.9,32,68,34.5,54.9c2.4-12.4,6.7-21.5,13-27.1c4.3-3.9,9.3-6.2,15.1-6.9s11.4,0,16.9,2s10.8,5,15.7,8.9
		c4.9,3.9,9,8.4,12.2,13.4s5.2,10.2,6.1,15.7s0,10.7-2.4,15.7c-3.3,6.4-9.6,11.8-18.9,16.1c-9.3,4.3-22,7-38.1,8
		c-3.5,8.7-6.5,16.5-9.1,23.3c-2.8,7.2-4.8,12.7-6,16.4c0,1.5-0.1,2.6-0.3,3.4c-0.1,0.6-0.3,1.1-0.6,1.5c-0.6,0.8-1.2,1.1-1.8,1
		c-0.9-0.1-1.4-0.7-1.4-1.6c0-0.6,0.3-1.8,0.9-3.6C36.1,140.8,36.2,140.4,36.4,139.9z M55.5,97.9c14.1-1,25.7-3.4,34.7-7.2
		c9.1-3.8,15.2-8.9,18.4-15.3c2.3-4.6,3.1-9.4,2.2-14.5c-0.9-5-2.8-9.9-5.9-14.5c-3-4.6-6.8-8.7-11.4-12.4s-9.4-6.4-14.5-8.3
		s-10.3-2.6-15.6-2s-10,2.6-13.9,6.1c-5.9,5.2-9.9,13.7-12.2,25.5c-2.5,12.9-2.7,30.5-0.9,52.9c0.3,3.5,0.8,8.1,1.3,13.7
		s0.9,9.2,1,11c1.1-2.9,2.3-6.2,3.8-10c2.5-6.4,5.3-13.8,8.6-22c-0.8,0.1-1.7,0.1-2.6,0.1c-0.4,0.1-0.7,0-1-0.3s-0.4-0.6-0.4-1
		s0.1-0.7,0.4-1c0.3-0.3,0.6-0.4,0.9-0.4c1.3-0.1,2.6-0.1,4-0.2c5.9-14.7,11.5-28.3,16.8-40.5c5.3-12.3,8.6-19.3,10-21.2
		c0.5-0.7,1.1-1,1.8-0.9c0.9,0.1,1.4,0.8,1.3,2.1c-0.1,0.7-0.5,1.1-1.2,1.2c-0.5,0.8-0.9,1.6-1.3,2.5C75,50.6,66.9,69.5,55.5,97.9z"
		/>
	<path class="st0" d="M118.6,118.4c-1.4,1.8-2.8,3.3-4.3,4.5c-4,3.2-7.9,3.9-11.8,2c-2.1-1.1-3.6-2.7-4.4-4.8
		c-0.8-2.1-0.9-4.5-0.4-7c0.8-3.7,2.6-7,5.5-10c2.9-2.9,6.3-4.5,10.3-4.6c0.4,0,0.8,0.1,1.1,0.4c0.3,0.3,0.4,0.6,0.4,0.9
		s-0.1,0.7-0.4,1s-0.6,0.5-0.9,0.5c-3.3,0.1-6.1,1.4-8.6,3.9s-4,5.3-4.5,8.4c-0.4,1.9-0.3,3.6,0.2,5.2s1.5,2.7,3,3.5
		c2.8,1.4,5.8,0.9,8.9-1.6c1.4-1.2,2.8-2.7,4.2-4.6c-1.4-2.1-2.2-4.5-2.5-7.2c-0.3-3,0.3-5.4,1.5-7.3c0.9-1.4,2.1-2.3,3.6-2.5
		c1.8-0.3,3.1,0.3,3.9,1.7c0.8,1.4,1,3.2,0.6,5.6c-0.5,3-1.7,6.2-3.6,9.5c2.8,3,6.8,3.9,12,2.8c6.5-1.3,14.2-5.5,23.2-12.7
		c0.7-0.6,1.3-0.6,1.9,0.2c0.6,0.8,0.6,1.4-0.1,2c-13.2,10.6-23.9,15.1-32.1,13.4C122.6,121.2,120.4,120.1,118.6,118.4z
		 M118.4,113.4c1.3-2.6,2.2-5,2.6-7.4c0.2-1.3,0.2-2.3,0-3c-0.1-0.4-0.3-0.7-0.5-0.9c-0.2-0.1-0.5-0.2-0.9-0.2
		c-0.9,0.1-1.6,0.9-2.1,2.2c-1,2.5-0.9,5.3,0.3,8.3C118.1,112.7,118.2,113,118.4,113.4z"/>
	<path class="st0" d="M156.3,100.9c-0.7-0.6-0.8-1.3-0.2-2c0.4-0.5,0.9-0.7,1.4-0.7c0.4,0,0.7,0.1,1,0.4s0.5,0.8,0.6,1.3
		c0.1,1.1-0.1,3.3-0.7,6.6c-0.4,2.8-1.1,6.2-2,10.1c4.7-6.7,8.9-11.6,12.8-14.7c4.9-3.8,9.1-4.7,12.7-2.5c1.4,0.9,2.5,2.2,3.3,3.9
		c0.7,1.7,1.1,3.7,1,5.8c-0.1,2.6-0.9,5.2-2.2,7.8c-1.4,2.5-3.2,4.5-5.6,6.1c6.3-0.4,12.5-1.9,18.7-4.6s11.6-6.8,16.5-12.2
		c0.6-0.7,1.3-0.7,2-0.1s0.8,1.3,0.1,2c-2.5,2.7-5.1,5.1-8,7.3c-2.9,2.1-5.8,3.9-8.7,5.2c-2.9,1.3-5.8,2.4-8.7,3.3s-5.8,1.4-8.7,1.7
		c-2.8,0.3-5.5,0.4-7.9,0.4s-4.7-0.2-6.9-0.6c-1.8-0.2-3.7-0.6-5.7-1.3c-0.4-0.1-0.6-0.4-0.8-0.8s-0.2-0.7,0-1.1
		c0.1-0.3,0.4-0.6,0.7-0.8c0.3-0.2,0.7-0.2,1.1-0.1c1.4,0.5,3,0.9,4.7,1.2c3.2,0.4,6.1,0.1,8.6-1.1c2.4-1.1,4.3-2.8,5.6-5.1
		c1.4-2.3,2.1-4.6,2.2-7.1c0.1-3.5-0.9-6-3-7.3s-4.8-0.8-8.1,1.4c-4.8,3.3-10.3,9.8-16.5,19.6c-0.4,0.6-0.8,1.3-1.1,1.9
		c-2.3,9.9-4.9,19.5-7.8,28.7c-2.8,9.2-5.4,16-7.8,20.4c-1.2,2.3-2.3,3.8-3.4,4.5c-1.1,0.8-2.1,1-3.1,0.5c-0.8-0.3-1.3-0.9-1.5-1.9
		c-0.3-0.9-0.4-2.3-0.2-4c0.8-6.2,4-15.4,9.6-27.7c3.5-7.7,7.3-14.9,11.4-21.7c1.6-7.1,2.9-12.9,3.7-17.5
		C156,104.5,156.2,102.7,156.3,100.9z M149.6,133.7c-3.5,6.4-6.6,12.9-9.3,19.3c-2.7,6.4-4.6,11.8-5.7,16.3
		c-0.8,2.8-1.1,4.9-0.9,6.3c0.1,0.2,0.1,0.4,0.2,0.7h0.1c0.1-0.1,0.3-0.2,0.4-0.4c0.7-0.6,1.5-1.7,2.3-3.3
		C140.4,165.6,144.7,152.7,149.6,133.7z"/>
	<path class="st0" d="M235.9,106.2c-9,10.8-15.6,17.2-19.7,19.1c-2.2,1.1-3.9,0.9-5.1-0.5c-0.6-0.8-1-2-1-3.5
		c-0.1-2.6,0.7-6.3,2.3-11.1c1.6-4.8,3.1-8.3,4.4-10.5c0.4-0.6,0.9-1,1.3-1.2c0.4-0.1,0.7-0.1,1.1,0c0.3,0.2,0.6,0.4,0.8,0.7
		c0.3,0.8,0.1,1.3-0.6,1.7c-1.9,3.7-3.3,7-4.3,10.1c-1.3,3.7-2,6.7-2.2,9c-0.1,0.8,0,1.5,0.1,2c0.1,0.4,0.2,0.7,0.3,0.9
		c0.1,0.2,0.5,0.2,1,0c0.6-0.2,1.4-0.6,2.5-1.3c4.5-3.1,11.6-10.7,21.3-22.7l0.1-0.1c0.3-0.3,0.7-0.4,1-0.4c0.4,0,0.7,0.1,0.9,0.3
		c0.6,0.5,0.8,1.1,0.4,1.8c-0.3,0.7-0.6,1.7-1,2.9c-0.3,1.3-0.7,3-1.1,5.2c-0.4,2.2-0.6,4.2-0.6,6.1c0.1,3.8,1.1,6.4,3,7.6
		c1.6,0.9,4,1,7.1,0.3c6.7-1.7,16.1-7.2,28.3-16.5c0.8-0.6,1.4-0.5,2,0.2s0.5,1.4-0.3,2c-12.5,9.6-22.2,15.3-29.2,17
		c-3.8,0.9-6.9,0.7-9.3-0.7c-2.8-1.7-4.3-5-4.4-9.9C234.8,112.3,235.2,109.4,235.9,106.2z"/>
	<path class="st0" d="M278.9,107.9c-0.1,0.2-0.1,0.4-0.1,0.7c-0.9,4-1.3,7.2-0.9,9.6c0.3,1.6,0.8,2.7,1.5,3.5
		c1.4,1.5,3.8,1.8,7.4,0.9c6.6-1.6,16.2-7.2,29-16.6c0.8-0.5,1.4-0.4,2,0.4s0.5,1.4-0.3,2c-13.1,9.6-23.1,15.3-30.1,17
		c-4.6,1.1-8,0.6-10.1-1.7c-2.1-2.2-2.8-5.9-2.2-11c1.1-9,5.9-21.9,14.6-38.7c5.4-10.6,9.7-18,13-22.3c0.6-0.8,1-1.3,1.3-1.5
		c0.4-0.2,0.8-0.3,1.1-0.2c0.7,0.1,1.2,0.6,1.5,1.3c0.3,0.8,0.3,2.1-0.2,4c-1.1,5-4.2,12.6-9.3,22.8
		C291.9,88.3,285.9,98.2,278.9,107.9z M303.5,55.3c-3.3,5-7.1,11.7-11.3,20c-4.5,8.8-8,16.6-10.5,23.5c5.5-8.3,10.2-16.6,14.2-24.7
		C299.8,66,302.4,59.7,303.5,55.3z"/>
	<path class="st0" d="M334.7,99.2c0.4,0.1,0.7,0.3,0.9,0.6c0.2,0.3,0.3,0.7,0.2,1.1c-0.1,0.4-0.3,0.7-0.6,0.8
		c-0.3,0.2-0.7,0.3-1,0.2c-2.6-0.6-5-0.6-7.3,0s-4.3,1.6-5.9,2.9s-3,2.9-4.1,4.6s-2,3.5-2.5,5.2c-0.5,1.8-0.7,3.4-0.7,4.9
		c0.1,1.6,0.6,2.7,1.3,3.2c0.8,0.5,2.1,0.3,3.9-0.6c5.4-2.6,12.3-10.5,20.8-23.4c0.5-0.8,1.1-0.9,1.9-0.4s0.9,1.2,0.4,2
		c-1.7,2.6-3.1,5.4-4.2,8.6c-1.1,3.1-1.6,5.9-1.7,8.4c0,3.2,0.9,5.1,2.8,5.6c1.6,0.4,3.8,0,6.8-1.2c5.4-2.5,12.5-7.6,21.2-15.5
		c0.7-0.6,1.4-0.6,2,0.1c0.7,0.7,0.6,1.4-0.1,2c-9,8.1-16.3,13.5-21.9,16c-3.5,1.6-6.4,2-8.7,1.4c-3.3-0.9-4.9-3.7-4.9-8.3
		c0.1-1.8,0.3-3.8,0.9-6c-5.2,6.6-9.6,11-13.4,13.1c-3.6,2-6.3,2-8.2-0.2c-1.8-2-2.2-5-1.2-9.2c0.5-2.2,1.4-4.4,2.6-6.5
		c1.3-2.1,2.9-4,4.8-5.7s4.3-2.9,7-3.7C328.5,98.5,331.5,98.5,334.7,99.2z"/>
	<path class="st0" d="M367.5,105.8c-1.1-2.5-0.7-4.8,1.4-6.7c0.5-0.5,1.1-0.6,1.7-0.3c0.5,0.2,0.8,0.6,0.9,1.1c0.1,0.4,0.1,1.1,0,2
		c-0.2,1.1-0.5,2.3-0.9,3.6c0.2,0.2,0.4,0.4,0.6,0.6c1.2,1,2.8,1.4,4.7,1.2c4-0.4,8.3-3.1,12.9-8.2c0.6-0.6,1.2-0.7,1.9-0.2
		c0.7,0.5,0.8,1.1,0.4,1.9c-4.7,7.6-7.2,13.5-7.3,17.5c-0.1,2,0.4,3.4,1.6,4.1c0.9,0.6,2.3,0.8,4,0.8c1.8-0.1,3.8-0.6,6.2-1.4
		c7.9-2.6,16.5-7.8,25.8-15.6c0.8-0.6,1.4-0.5,2,0.2s0.6,1.4-0.1,1.9c-5.5,4.5-10.9,8.3-16.3,11.3s-10.1,5-14.1,5.9
		c-3.8,0.8-6.8,0.6-8.9-0.7c-2.1-1.3-3.2-3.5-3-6.6c0.1-3,1.2-6.7,3.5-11.3c-3.7,2.5-7.1,3.6-10.3,3.3c-1.9-0.2-3.5-0.8-4.8-1.9
		c-0.5,0.4-1,0.5-1.6,0.2c-0.8-0.5-1-1.2-0.6-2C367.2,106.3,367.3,106,367.5,105.8z"/>
	<path class="st0" d="M542.7,84.2C557.1,69,572.1,50,587.6,27c0.4-0.7,1-0.9,1.8-0.5c0.8,0.3,1,0.9,0.8,1.7
		c-12.5,42.9-22.2,73.6-28.8,92.2c-1.8,5.2-3.2,8.9-4.3,11c-0.6,1.1-1,1.8-1.4,2.2c-0.6,0.6-1.2,0.6-1.8,0.1s-0.8-1.1-0.5-1.8
		c4.3-9.2,5.9-17.3,4.6-24.2c-1.2-6.3-4.9-12-11.2-17c-1.1-0.9-2.4-1.9-3.8-2.8c-9.2,9.6-18.1,17.4-26.7,23.5
		c-12.7,9.1-24.3,14.1-34.8,15.1c-7.8,0.8-14.2-0.6-19.4-4.1c-5.2-3.6-8.8-8.5-10.7-14.7c-0.8-2.7-1.3-5.6-1.4-8.6s0.2-6,0.9-9
		c0.7-3,1.7-6,3.1-8.8s3.2-5.5,5.5-7.9c2.3-2.5,4.9-4.6,7.8-6.5s6.3-3.4,10.3-4.5s8.2-1.8,12.7-1.9c0.4-0.1,0.8,0,1.1,0.3
		c0.3,0.3,0.4,0.6,0.4,1s-0.1,0.7-0.4,1s-0.6,0.5-1,0.5c-4.2,0.1-8.1,0.7-11.8,1.7c-3.7,1-6.9,2.4-9.6,4.2c-2.7,1.7-5.1,3.7-7.2,6
		s-3.8,4.7-5.1,7.3c-1.3,2.6-2.3,5.3-2.9,8.1c-0.7,2.8-0.9,5.5-0.8,8.3s0.6,5.4,1.3,7.9c1.7,5.6,4.9,10,9.6,13.2s10.5,4.4,17.5,3.7
		c10-1,21.1-5.9,33.5-14.7c8.3-5.9,16.9-13.5,25.9-22.7c-1.4-0.9-3.3-2.1-5.7-3.5s-4-2.3-4.7-2.7c-3.6-2.2-6-4.1-7.2-5.8
		c-1.8-2.5-2-5-0.5-7.6c0.5-0.8,1.2-1,2-0.5s1,1.1,0.5,1.9c-0.5,0.9-0.7,1.7-0.7,2.5c0.2,1.1,1,2.3,2.5,3.6c0.6,0.6,1.4,1.2,2.4,1.8
		c1,0.7,1.8,1.2,2.4,1.6c0.6,0.4,1.8,1,3.4,2c1.6,0.9,2.7,1.6,3.2,1.9C539.9,82.5,541.4,83.4,542.7,84.2z M561.2,112
		c5.9-17.2,13.7-42.5,23.6-76c-13.7,19.7-26.9,36.3-39.8,49.8c7.9,5.5,13,11.6,15,18.4C560.7,106.7,561.1,109.3,561.2,112z"/>
	<path class="st0" d="M578.5,105.8c-1.1-2.5-0.7-4.8,1.4-6.7c0.5-0.5,1.1-0.6,1.7-0.3c0.5,0.2,0.8,0.6,0.9,1.1c0.1,0.4,0.1,1.1,0,2
		c-0.2,1.1-0.5,2.3-0.9,3.6c0.2,0.2,0.4,0.4,0.6,0.6c1.2,1,2.8,1.4,4.7,1.2c4-0.4,8.3-3.1,12.9-8.2c0.6-0.6,1.2-0.7,1.9-0.2
		s0.8,1.1,0.4,1.9c-4.7,7.6-7.2,13.5-7.3,17.5c-0.1,2,0.4,3.4,1.6,4.1c0.9,0.6,2.3,0.8,4,0.8c1.8-0.1,3.8-0.6,6.2-1.4
		c7.9-2.6,16.5-7.8,25.8-15.6c0.8-0.6,1.4-0.5,2,0.2s0.6,1.4-0.1,1.9c-5.5,4.5-10.9,8.3-16.3,11.3c-5.4,3-10.1,5-14.1,5.9
		c-3.8,0.8-6.8,0.6-8.9-0.7c-2.1-1.3-3.2-3.5-3-6.6c0.1-3,1.2-6.7,3.5-11.3c-3.7,2.5-7.1,3.6-10.3,3.3c-1.9-0.2-3.5-0.8-4.8-1.9
		c-0.5,0.4-1,0.5-1.6,0.2c-0.8-0.5-1-1.2-0.6-2C578.2,106.3,578.4,106,578.5,105.8z"/>
	<path class="st0" d="M639.1,87.9c2.8-6.6,6.1-13.1,9.7-19.7c3.6-6.6,6.6-11.6,8.9-15c1-1.5,1.8-2.5,2.3-2.8
		c0.4-0.3,0.8-0.4,1.3-0.4c0.7,0.2,1.2,0.6,1.5,1.3c0.3,0.8,0.3,2.1-0.2,4c-0.7,3.1-2.3,7.5-4.8,13.3s-5.6,11.9-9.3,18.5
		c5.2-0.6,8.4-0.8,9.7-0.8c0.9,0,1.6,0.1,2.1,0.4c0.3,0.2,0.5,0.5,0.7,0.9c0.2,0.5,0.1,1-0.3,1.5c-0.3,0.4-0.9,0.8-1.7,1.1
		c-0.8,0.4-1.5,0.2-1.9-0.7c-0.1-0.1-0.1-0.3-0.1-0.4c-0.8,0-1.5,0-2.2,0.1c-1.2,0.1-3.9,0.4-8.1,0.9c-3.7,6.3-7.6,12.3-11.6,17.9
		c-0.8,3.5-1.1,6.5-0.9,8.9c0.3,3.2,1.5,5.1,3.6,5.9s5.4,0.4,9.8-1c7.7-2.5,16.9-7.7,27.7-15.6c0.8-0.6,1.4-0.5,1.9,0.3
		s0.4,1.4-0.3,2c-11,8.1-20.5,13.4-28.5,16.1c-5,1.6-8.9,2-11.6,1c-3.3-1.2-5.1-4-5.4-8.4c-0.4-5.1,1.1-12.4,4.7-21.8
		c0.5-1.4,1.1-2.8,1.7-4.3c-1.6,0.1-3,0.2-4.2,0.3c-3.2,0.1-5.4-0.1-6.7-0.5c-1.2-0.4-1.9-1-2.1-2c-0.1-0.6,0.1-1.3,0.6-2
		c0.6-0.8,1.2-0.9,2-0.3c0.6,0.4,0.8,0.9,0.6,1.5c0.1,0.1,0.3,0.1,0.4,0.2c0.6,0.1,1.3,0.1,2.3,0.2
		C632.7,88.4,635.5,88.2,639.1,87.9z M643.3,90.4c-0.8,0.1-1.5,0.2-2.2,0.2c-0.8,2-1.6,3.8-2.3,5.7c-0.4,1-0.8,2-1.1,3
		C639.6,96.4,641.4,93.4,643.3,90.4z M645,87.4c3.7-6.4,6.9-12.6,9.5-18.4s4.3-10.4,5.1-13.7c-2.3,3.4-5.1,8.1-8.4,14.1
		c-3.3,6-6.3,12.1-9,18.2C643.1,87.6,644,87.5,645,87.4z"/>
	<path class="st0" d="M678.4,99.3c0.4-0.9,1-1.1,1.8-0.7c0.9,0.4,1.1,1.1,0.7,1.9c-3.3,6.9-5.2,12.2-5.7,16.1
		c-0.4,2.4-0.2,4.1,0.6,5.1c0.4,0.7,1.2,1.1,2.2,1.3c1.3,0.2,2.9,0,4.9-0.6c6.5-1.7,16.5-7.2,30-16.5c0.8-0.6,1.5-0.5,2,0.3
		s0.4,1.5-0.4,2c-13.7,9.4-24,15-30.9,16.8c-5,1.3-8.4,0.7-10.1-1.9c-1.1-1.6-1.5-4-1-7.1C673,112,675,106.4,678.4,99.3z
		 M684.9,88.9c-0.3,0.3-0.5,0.6-0.8,0.8c-0.5,0.4-1,0.6-1.4,0.8c-0.4,0.1-0.9,0.1-1.3-0.2c-0.5-0.3-0.8-0.8-0.9-1.5
		c-0.1-1,0.2-2,0.9-2.9c0.7-0.8,1.5-1.2,2.5-1c0.3,0,0.5,0.1,0.9,0.2c0.4-0.2,0.9-0.1,1.3,0.2c0.6,0.5,0.8,1.1,0.5,1.8
		c0.4,0.8,0.2,1.5-0.6,1.9C685.7,88.9,685.3,88.9,684.9,88.9z"/>
	<path class="st0" d="M730.5,103.4c0.1,0.4,0.1,0.7-0.1,1c-0.2,0.3-0.5,0.5-0.9,0.7c-0.4,0.1-0.7,0.1-1-0.1s-0.5-0.5-0.7-0.9
		c-0.4-1.4-1-2.4-1.8-2.8c-0.7-0.3-1.6-0.3-2.6,0c-1.8,0.5-3.6,1.8-5.6,3.8c-3.3,3.2-5.3,6.6-6.1,10.1c-0.6,2.3-0.3,4.1,0.7,5.4
		c1.3,1.7,3.8,2.5,7.7,2.5c4.2,0,9.8-1.4,16.8-4.3c7.1-2.9,14.3-7.1,21.7-12.7c0.8-0.6,1.4-0.5,2,0.3s0.5,1.4-0.2,2
		c-7.7,5.8-15.2,10.2-22.6,13.1c-7.4,3-13.3,4.4-17.6,4.4c-4.7,0.1-8-1.1-9.9-3.6c-1.5-2-1.9-4.6-1.1-7.8c0.9-4.1,3.2-7.9,6.9-11.5
		c2.3-2.3,4.6-3.8,6.8-4.4c1.8-0.5,3.3-0.4,4.6,0.3C728.8,99.6,729.9,101.1,730.5,103.4z"/>
	<path class="st0" d="M761.2,107.9c-0.1,0.2-0.1,0.4-0.1,0.7c-0.9,4-1.3,7.2-0.9,9.6c0.3,1.6,0.8,2.7,1.5,3.5
		c1.4,1.5,3.8,1.8,7.4,0.9c6.6-1.6,16.2-7.2,29-16.6c0.8-0.5,1.4-0.4,2,0.4s0.5,1.4-0.3,2c-13.1,9.6-23.1,15.3-30.1,17
		c-4.6,1.1-8,0.6-10.1-1.7c-2.1-2.2-2.8-5.9-2.2-11c1.1-9,5.9-21.9,14.6-38.7c5.4-10.6,9.7-18,13-22.3c0.6-0.8,1-1.3,1.3-1.5
		c0.4-0.2,0.8-0.3,1.1-0.2c0.7,0.1,1.2,0.6,1.5,1.3c0.3,0.8,0.3,2.1-0.2,4c-1.1,5-4.2,12.6-9.3,22.8
		C774.2,88.3,768.1,98.2,761.2,107.9z M785.7,55.3c-3.3,5-7.1,11.7-11.3,20c-4.5,8.8-8,16.6-10.5,23.5c5.5-8.3,10.2-16.6,14.2-24.7
		C782.1,66,784.7,59.7,785.7,55.3z"/>
	<path class="st0" d="M799.3,115.8c0.2,0.7,0.5,1.4,0.9,2c1.2,2.1,3.3,3.7,6.2,4.7c3.4,1.1,8.1,0.5,14.2-2
		c6.5-2.6,14.7-7.5,24.5-14.6c0.8-0.6,1.4-0.5,2,0.3s0.4,1.4-0.4,2c-10,7.2-18.4,12.2-25.1,14.9c-6.7,2.7-12,3.4-16.1,2
		c-3.7-1.2-6.4-3.2-7.9-6c-2-3.7-2-7.8,0.1-12.3c1-2.3,2.4-4.2,4.1-5.8c1.7-1.6,3.6-2.6,5.5-3c2.4-0.5,4.4-0.4,5.9,0.4
		s2.4,1.9,2.6,3.5c0.4,2-0.4,4-2.3,6.1C810.8,111.2,806,113.7,799.3,115.8z M799.1,112.9c4.9-1.5,8.6-3.4,11.2-5.6
		c1.5-1.3,2.4-2.5,2.8-3.6c0.3-1.1,0-2-0.9-2.5c-1-0.5-2.3-0.6-4.1-0.2c-1.5,0.3-3,1.1-4.3,2.4c-1.4,1.3-2.5,2.9-3.3,4.7
		C799.5,109.7,799.1,111.3,799.1,112.9z"/>
	<path class="st0" d="M855.7,122.3c1.6-0.6,2.5-1.3,2.8-2.2c0.3-0.9,0-2-1-3.2c-1.4-1.8-3.8-3.8-7.4-6c-4.3-2.7-6-5.5-4.8-8.3
		c0.5-1.4,1.6-2.6,3.3-3.5c2.3-1.3,4.7-1.9,7.2-1.8c2,0,3.4,0.5,4.2,1.6c0.6,0.9,0.6,2,0,3.3c-0.4,0.9-1,1.1-1.8,0.7
		s-1.1-1.1-0.6-1.9c0.1-0.1,0.1-0.3,0.1-0.4v-0.1c-0.1-0.1-0.2-0.1-0.4-0.2c-0.4-0.1-0.9-0.2-1.5-0.2c-2.5-0.1-4.6,0.6-6.4,1.9
		c-1.1,0.8-1.6,1.5-1.5,2.4c0.1,1.2,1.4,2.6,3.9,4.1c4.5,2.8,7.5,5.4,8.9,7.8c0.9,1.7,1.2,3.3,0.7,4.7c-0.1,0.3-0.3,0.6-0.4,0.9
		c5.1-1.1,10-2.9,14.7-5.5s8.7-6,11.9-10.2c0.6-0.8,1.2-0.8,2-0.2c0.8,0.6,0.9,1.3,0.3,2c-3.1,3.9-7,7.3-11.6,10.1
		c-4.7,2.8-9.2,4.8-13.6,5.9c-4.4,1.1-8.6,1.8-12.7,1.9c-1.9,0.1-3.7-0.1-5.3-0.5c-2.2-0.6-3.9-1.5-5-2.7c-1.1-1.3-1.4-2.8-1-4.5
		c0.1-0.4,0.4-0.7,0.7-0.8c0.3-0.2,0.7-0.2,1.1-0.1s0.7,0.3,0.9,0.7c0.2,0.3,0.2,0.7,0.1,1.1c-0.3,1,0.1,1.9,1,2.6
		c0.7,0.5,1.6,0.9,2.8,1.2c1.4,0.3,2.9,0.4,4.4,0.4h0.3C853.3,123,854.6,122.7,855.7,122.3z"/>
</g>
</svg>
