<?xml version="1.0" encoding="UTF-8"?>
<svg id="_圖層_1" data-name="圖層_1" xmlns="http://www.w3.org/2000/svg" version="1.1" viewBox="0 0 325.7 46.05">
  <!-- Generator: Adobe Illustrator 29.7.1, SVG Export Plug-In . SVG Version: 2.1.1 Build 8)  -->
  <defs>
    <style>
      .st0 {
        fill: #ed781e;
      }
    </style>
  </defs>
  <path class="st0" d="M0,35.77V2.81h9.39c8.08,0,12.2,3.09,12.38,9.26v.44c0,4.74-2.12,7.84-6.36,9.31-1.67.59-3.58.88-5.75.88h-5.44v13.08H0ZM4.21,19.31h4.87c4.74,0,7.51-1.51,8.3-4.52.17-.67.26-1.43.26-2.28,0-3.01-1.29-4.93-3.86-5.75-1.26-.38-2.88-.57-4.87-.57h-4.7v13.12Z"/>
  <path class="st0" d="M37.53,36.35c-3.28,0-6-1.21-8.16-3.64-2.11-2.4-3.16-5.44-3.16-9.13,0-4.45,1.43-7.89,4.3-10.32,2.05-1.67,4.39-2.5,7.02-2.5,3.31,0,6.04,1.23,8.21,3.69,2.08,2.4,3.12,5.44,3.12,9.13,0,4.42-1.43,7.83-4.3,10.23-2.02,1.7-4.36,2.55-7.02,2.55ZM37.53,32.92c2.58,0,4.52-1.21,5.84-3.64.85-1.61,1.27-3.51,1.27-5.71,0-3.6-1.02-6.26-3.07-7.99-1.17-.97-2.52-1.45-4.04-1.45-2.55,0-4.46,1.23-5.75,3.69-.85,1.61-1.27,3.53-1.27,5.75,0,3.72,1.05,6.39,3.16,8.03,1.11.88,2.4,1.32,3.86,1.32Z"/>
  <path class="st0" d="M55.26,46.05V11.37h3.38l.35,2.77h.13c2.75-2.22,5.34-3.35,7.77-3.38,3.92,0,6.7,1.76,8.34,5.27.94,1.96,1.4,4.35,1.4,7.16,0,4.65-1.39,8.21-4.17,10.67-1.87,1.67-4.02,2.5-6.45,2.5-2.22-.03-4.48-.97-6.76-2.81l.09,4.26v8.25h-4.08ZM65.36,32.92c2.49,0,4.38-1.21,5.66-3.64.88-1.67,1.32-3.69,1.32-6.06-.06-6-2.19-9.01-6.41-9.04-1.99.03-4.19,1.16-6.58,3.38v12.82c1.99,1.7,4,2.55,6.01,2.55Z"/>
  <path class="st0" d="M90.21,36.35c-4.92-.06-7.39-3.23-7.42-9.53v-15.45h4.08v14.97c0,3.48.94,5.55,2.81,6.19.53.18,1.13.26,1.8.26,1.87,0,3.63-.85,5.27-2.55.41-.47.85-.99,1.32-1.58V11.37h4.08v24.41h-3.38l-.35-3.82h-.13c-2.34,2.69-4.79,4.14-7.33,4.35-.26.03-.51.04-.75.04Z"/>
  <path class="st0" d="M114.7,36.35c-2.87-.06-4.32-1.87-4.35-5.44V0h4.08v31.21c.03,1.11.42,1.68,1.19,1.71.29,0,.57-.03.83-.09l.61,3.16c-.64.23-1.43.35-2.37.35Z"/>
  <path class="st0" d="M128.75,36.35c-2.81,0-4.84-.99-6.1-2.98-.7-1.14-1.05-2.44-1.05-3.91,0-3.25,1.89-5.62,5.66-7.11,2.28-.91,5.4-1.58,9.35-2.02-.06-4.1-1.73-6.16-5-6.19-2.31.03-4.76.91-7.33,2.63l-1.62-2.85c3.28-2.11,6.48-3.16,9.61-3.16,4.56,0,7.29,2.25,8.16,6.76.2,1,.31,2.08.31,3.25v15.01h-3.38l-.35-2.94h-.13c-2.84,2.34-5.55,3.51-8.12,3.51ZM129.93,33.1c1.93,0,4-.95,6.19-2.85.18-.15.34-.28.48-.4v-6.85c-5.97.73-9.48,2.14-10.54,4.21-.29.59-.44,1.23-.44,1.93,0,2.14,1.01,3.41,3.03,3.82.41.09.83.13,1.27.13Z"/>
  <path class="st0" d="M148.45,35.77V11.37h3.38l.35,4.43h.13c1.61-2.9,3.6-4.55,5.97-4.96.32-.06.64-.09.97-.09,1.08,0,1.95.18,2.59.53l-.75,3.6c-.7-.26-1.49-.4-2.37-.4-1.99,0-3.7,1.16-5.14,3.47-.38.64-.73,1.36-1.05,2.15v15.67h-4.08Z"/>
  <path class="st0" d="M194.54,35.77l-3.16-10.05h-12.03l-3.2,10.05h-4.21l11.19-32.97h4.65l11.15,32.97h-4.39ZM180.41,22.39h9.96l-1.58-5.05c-.7-2.14-1.81-5.85-3.34-11.15h-.18c-1.02,3.72-2.12,7.43-3.29,11.15l-1.58,5.05Z"/>
  <path class="st0" d="M203.19,35.77V11.37h3.38l.35,4.43h.13c1.61-2.9,3.6-4.55,5.97-4.96.32-.06.64-.09.97-.09,1.08,0,1.95.18,2.59.53l-.75,3.6c-.7-.26-1.49-.4-2.37-.4-1.99,0-3.7,1.16-5.14,3.47-.38.64-.73,1.36-1.05,2.15v15.67h-4.08Z"/>
  <path class="st0" d="M228.3,36.35c-4.04,0-6.31-2-6.8-6.01-.09-.67-.13-1.38-.13-2.11v-13.52h-3.64v-3.12l3.82-.22.48-6.85h3.42v6.85h6.58v3.34h-6.58v13.61c0,2.69.85,4.23,2.55,4.61.38.09.79.13,1.23.13.73,0,1.65-.22,2.77-.66l.83,3.07c-1.87.59-3.38.88-4.52.88Z"/>
  <path class="st0" d="M239.62,6.32c-1.29,0-2.15-.53-2.59-1.58-.15-.35-.22-.7-.22-1.05,0-1.32.6-2.17,1.8-2.55.35-.09.69-.13,1.01-.13,1.35,0,2.24.54,2.68,1.62.12.35.17.7.17,1.05,0,1.17-.56,1.98-1.67,2.41-.38.15-.78.22-1.18.22ZM237.56,35.77V11.37h4.08v24.41h-4.08Z"/>
  <path class="st0" d="M259.51,36.35c-3.72,0-6.64-1.36-8.78-4.08-1.79-2.31-2.68-5.21-2.68-8.69,0-4.39,1.46-7.8,4.39-10.23,2.14-1.73,4.61-2.59,7.42-2.59,2.57.03,4.94.98,7.11,2.85l-2.11,2.77c-1.67-1.49-3.29-2.24-4.87-2.24-2.58,0-4.59,1.14-6.06,3.42-1.05,1.7-1.58,3.7-1.58,6.01,0,3.57,1.08,6.2,3.25,7.9,1.23.97,2.66,1.45,4.3,1.45,2.08-.03,3.99-.83,5.75-2.41l1.76,2.77c-2.25,2.05-4.89,3.07-7.9,3.07Z"/>
  <path class="st0" d="M277.11,36.35c-2.87-.06-4.32-1.87-4.35-5.44V0h4.08v31.21c.03,1.11.42,1.68,1.19,1.71.29,0,.57-.03.83-.09l.61,3.16c-.64.23-1.43.35-2.37.35Z"/>
  <path class="st0" d="M295.37,36.35c-3.66,0-6.58-1.32-8.78-3.95-1.93-2.34-2.9-5.28-2.9-8.82,0-4.21,1.35-7.55,4.04-10.01,2.05-1.87,4.37-2.81,6.98-2.81,3.95,0,6.74,1.65,8.38,4.96.88,1.84,1.32,4.01,1.32,6.5,0,.79-.06,1.57-.18,2.33h-16.46c.17,3.4,1.43,5.84,3.77,7.33,1.26.82,2.71,1.23,4.35,1.23,2.2-.03,4.23-.67,6.1-1.93l1.49,2.68c-2.58,1.67-5.28,2.5-8.12,2.5ZM287.73,21.6h13.08c0-4.07-1.38-6.51-4.13-7.33-.61-.18-1.26-.26-1.93-.26-2.31,0-4.14,1.02-5.49,3.07-.85,1.29-1.36,2.79-1.54,4.52Z"/>
  <path class="st0" d="M316.84,36.35c-3.28,0-6.23-1.04-8.87-3.12-.09-.09-.18-.16-.26-.22l2.02-2.72c2.4,1.93,4.81,2.9,7.24,2.9s3.95-.83,4.56-2.5c.15-.44.22-.88.22-1.32,0-1.46-1.14-2.72-3.42-3.78-.5-.2-1.21-.5-2.15-.88-3.04-1.14-5.08-2.34-6.1-3.6-.79-1.02-1.19-2.18-1.19-3.47,0-2.46,1.07-4.33,3.2-5.62,1.46-.85,3.21-1.27,5.22-1.27,2.72.03,5.25.94,7.59,2.72l-1.97,2.68c-1.99-1.46-3.86-2.19-5.62-2.19-2.34,0-3.76.81-4.26,2.41-.12.38-.18.75-.18,1.1,0,1.26.91,2.31,2.72,3.16.41.18,1.29.53,2.63,1.05,2.69,1.02,4.51,1.96,5.44,2.81,1.35,1.23,2.02,2.77,2.02,4.61,0,2.55-1.08,4.49-3.25,5.84-1.55.94-3.42,1.4-5.62,1.4Z"/>
</svg>