<?xml version="1.0" encoding="UTF-8"?>
<svg id="_圖層_1" data-name="圖層_1" xmlns="http://www.w3.org/2000/svg" xmlns:xlink="http://www.w3.org/1999/xlink" version="1.1" viewBox="0 0 596.21 139.81">
  <!-- Generator: Adobe Illustrator 29.6.1, SVG Export Plug-In . SVG Version: 2.1.1 Build 9)  -->
  <defs>
    <style>
      .st0 {
        fill: none;
      }

      .st1 {
        fill: #ed781e;
      }

      .st2 {
        fill: #231815;
      }

      .st3 {
        fill: #fff;
      }

      .st4 {
        fill: url(#_未命名漸層_2);
      }
    </style>
    <linearGradient id="_未命名漸層_2" data-name="未命名漸層 2" x1="-210.3" y1="43.45" x2="755.89" y2="43.45" gradientUnits="userSpaceOnUse">
      <stop offset=".21" stop-color="#fff"/>
      <stop offset=".51" stop-color="#e9eaea"/>
      <stop offset=".77" stop-color="#dbdcdc"/>
    </linearGradient>
  </defs>
  <rect class="st4" x="-357.15" y="-216.72" width="1615.26" height="520.35"/>
  <ellipse class="st1" cx="228.6" cy="-304.66" rx="1066.61" ry="561.8"/>
  <rect class="st0" x="-357.15" y="-963.42" width="1215.82" height="1267.05"/>
  <g>
    <path class="st3" d="M596.21,69.9c0,19.3-7.82,36.79-20.48,49.43-12.65,12.65-30.12,20.48-49.43,20.48H69.91C31.3,139.81,0,108.52,0,69.9c0-19.3,7.83-36.78,20.48-49.43C33.13,7.82,50.61,0,69.91,0h456.4c38.61,0,69.9,31.3,69.9,69.9Z"/>
    <g>
      <path class="st2" d="M215.62,88.07h15.51v6.57h-49.92v-6.57h27.47c2.48-6.71,4.45-14.2,5.92-22.46.14-.86.27-1.67.38-2.42l7.54,1.4c-2.12,8.94-4.42,16.77-6.89,23.48ZM229.52,54.95v6.46h-46.53v-6.46h19.55v-9.59h6.84v9.59h20.14ZM201.51,84.57l-6.73,1.83c-.36-5.46-1.62-11.63-3.77-18.53-.32-1-.65-1.94-.97-2.8l6.3-1.62c2.51,6.61,4.18,13.12,5.01,19.55.07.54.13,1.06.16,1.56Z"/>
      <path class="st2" d="M250.39,78.59l5.28-2.48c3.7,5.06,6.37,9.71,8.02,13.95.18.43.32.83.43,1.18l-5.82,2.91c-.29-1.11-.92-2.73-1.88-4.85-2.55.72-6.32,1.78-11.31,3.18-2.94.79-5.06,1.36-6.35,1.72l-1.88-6.73c1.22-.25,2.44-.52,3.66-.81v-38.67h21.43v26.98h-15.13v10.23l6.62-1.67c-.72-1.29-1.74-2.94-3.07-4.95ZM255.88,54.03h-9.05v4.58h9.05v-4.58ZM246.84,68.9h9.05v-4.52h-9.05v4.52ZM286.31,47.89v33.28c0,3.05-.68,5.12-2.05,6.19-.14.11-.29.2-.43.27-1.51.9-4.04,1.36-7.59,1.4h-.54c-.22-2.15-.9-4.42-2.05-6.79-.07-.14-.14-.27-.22-.38.5.04,1.05.06,1.64.08.59.02,1.07.03,1.43.03h2.1c.57-.07.88-.41.92-1.02v-26.44h-7.81v42.22h-6.68v-48.85h21.27Z"/>
      <path class="st2" d="M330.45,89.96h5.87c.97,0,1.62-.43,1.94-1.29.29-.93.48-2.85.59-5.76,1.51,1.08,3.48,1.92,5.92,2.53-.4,4.6-1.31,7.56-2.75,8.89-1.11,1-2.82,1.51-5.12,1.51h-7.49c-3.66,0-6.01-.75-7.05-2.26-.79-1.15-1.19-3.02-1.19-5.6v-10.18h-.86c-2.3,6.53-6.7,11.51-13.19,14.92-2.77,1.47-5.96,2.71-9.59,3.72-.86-2.05-2.1-3.88-3.72-5.49,9.23-2.33,15.4-6.26,18.53-11.79.25-.47.48-.92.7-1.35h-13.79v-12.33c-.57.5-1.15.97-1.72,1.4-1.01-1.69-2.33-3.18-3.99-4.47-.25-.22-.47-.38-.65-.48,6.03-3.95,10.82-8.9,14.38-14.86.39-.68.75-1.33,1.08-1.94l7.05,1.29c-.65,1.18-1.13,2.03-1.45,2.53h10.99l1.08-.27,4.58,2.91c-1.51,2.62-3.23,5.12-5.17,7.49h14.86v18.74h-12.28v10.07c0,1.11.23,1.76.7,1.94.36.11.93.16,1.72.16ZM305.84,71.91h9.1c.4-1.94.72-4.31.97-7.11h-10.07v7.11ZM321.19,54.3h-10.93c-1.47,1.87-2.82,3.45-4.04,4.74h11.47c1.44-1.69,2.6-3.27,3.5-4.74ZM333.36,64.81h-10.5c-.18,2.05-.52,4.42-1.02,7.11h11.52v-7.11Z"/>
      <path class="st2" d="M394.46,88.39h-8.29c5.96,1.94,10.81,3.72,14.54,5.33l-7.27,3.12c-3.41-1.76-8.33-3.7-14.76-5.82l4.2-2.64h-14.7l4.36,1.99c-4.34,2.55-9.98,4.72-16.91,6.52-.14,0-.25.02-.32.05-1.26-1.58-2.75-3.07-4.47-4.47-.11-.11-.2-.18-.27-.22,5.92-1,10.79-2.3,14.59-3.88h-7.49v-16.37c-1.72.36-3.09.61-4.09.75-.61-1.58-1.63-3.28-3.07-5.12,6.39-.83,10.75-2.17,13.09-4.04h-4.79l-.22.48-5.98-.38c1.08-2.37,2.23-5.69,3.45-9.96h10.5v-2.21h-12.49v-3.82h12.49v-2.37h5.98v2.37h6.09v-2.37h6.25v2.37h11.69v9.86h-11.69v2.15h15.29s-.04.61-.11,1.72c-.29,3.55-.81,5.74-1.56,6.57-.83.79-1.89,1.22-3.18,1.29h-.32c-.25.04-.43.05-.54.05v19.01ZM360.96,57.59l-.81,2.15h6.03c.22-.68.32-1.4.32-2.15h-5.55ZM387.78,73.15v-2.15h-23.7v2.15h23.7ZM387.78,78.86v-2.21h-23.7v2.21h23.7ZM364.09,82.42v2.26h23.7v-2.26h-23.7ZM378.63,63.62h-7.32c-.65,1.36-1.54,2.57-2.69,3.61h10.02v-3.61ZM378.63,59.74v-2.15h-6.09c0,.25-.04.61-.11,1.08-.04.5-.05.86-.05,1.08h6.25ZM372.54,51.56v2.21h6.09v-2.21h-6.09ZM390.64,51.56h-5.76v2.21h5.76v-2.21ZM393.71,63.62h-8.83v3.61h4.79c-.14-.57-.36-1.18-.65-1.83,1.51.18,2.51.25,3.02.22.54-.04.93-.18,1.18-.43.22-.32.38-.84.48-1.56Z"/>
      <path class="st2" d="M425.51,54.41v5.17h-19.06v-5.17h19.06ZM424.28,77.25v16.59h-10.23v2.21h-5.33v-18.8h15.56ZM424.11,62.06v5.01h-15.24v-5.01h15.24ZM408.87,74.5v-4.9h15.24v4.9h-15.24ZM424.01,46.98v5.01h-14.81v-5.01h14.81ZM418.89,82.36h-4.85v6.35h4.85v-6.35ZM434.94,61.09l1.24,4.79c-1.15.54-2.89,1.36-5.22,2.48-1.72.79-2.98,1.38-3.77,1.78l-2.53-5.12c1-.36,4.43-1.67,10.29-3.93ZM448.73,55.81v2.8c0,3.02,1.31,5.65,3.93,7.92,1.62,1.36,3.59,2.46,5.92,3.29-1.69,2.23-2.8,3.84-3.34,4.85-3.55-1.26-6.32-3.52-8.29-6.79-.61-1.04-1.04-1.99-1.29-2.85-.65,2.15-2.21,4.24-4.69,6.25-1.83,1.47-3.84,2.58-6.03,3.34-.72-1.44-1.76-2.96-3.12-4.58,5.35-1.87,8.71-4.74,10.07-8.62.36-.97.54-1.9.54-2.8v-2.8h-.97c-1.08,2.51-2.37,4.74-3.88,6.68-1.62-1.33-3.2-2.42-4.74-3.28.83-.97,1.6-2.14,2.32-3.5h-8.83v-5.06h9.1v4.58c1.62-3.02,2.78-6.32,3.5-9.91l5.65,1.08c-.29,1.33-.67,2.77-1.13,4.31h10.07l.86-.16,3.88.65c-.93,4.31-1.87,7.77-2.8,10.39l-4.74-.92c.47-1.69.86-3.3,1.19-4.85h-3.18ZM429.45,96.85v-21.33h24.5v21.16h-6.35v-2.21h-12.12v2.37h-6.03ZM447.59,81.23h-12.12v7.49h12.12v-7.49Z"/>
      <path class="st2" d="M482.9,54.41v5.17h-19.93v-5.17h19.93ZM481.56,77.25v16.64h-10.88v2.15h-5.38v-18.8h16.26ZM494.16,53.33h19.28s-.02,1.04-.05,3.02c-.25,17.7-.7,28.56-1.35,32.58-.32,2.15-.79,3.66-1.4,4.52-1.18,1.62-2.67,2.58-4.47,2.91-.22.04-.43.07-.65.11-1.4.25-4.2.3-8.4.16-.14-2.05-.77-4.04-1.88-5.98-.04-.11-.07-.18-.11-.22,2.19.18,4.72.27,7.59.27.97-.04,1.7-.36,2.21-.97.97-1.08,1.62-6.17,1.94-15.29.11-3.66.21-8.69.32-15.08h-15.78c-.65,1.26-1.49,2.69-2.53,4.31h13.89v21.43h-11.42v2.53h-5.44v-20.09l-.27.38c-1.26-1.26-2.64-2.42-4.15-3.5v2.64h-16.05v-5.01h16.05v.05c3.7-4.24,6.46-9.86,8.29-16.86l6.68,1.45c-.58,1.98-1.35,4.18-2.32,6.62ZM481.5,69.6v4.9h-16.05v-4.9h16.05ZM481.34,46.98v5.01h-15.73v-5.01h15.73ZM476.12,82.42h-5.44v6.35h5.44v-6.35ZM497.28,68.63h-5.92v3.34h5.92v-3.34ZM491.36,80.21h5.92v-3.55h-5.92v3.55Z"/>
    </g>
    <path class="st1" d="M132.51,69.9c0,26.97-18.62,49.6-43.71,55.7-4.37,1.07-8.92,1.63-13.61,1.63-4.41,0-8.69-.5-12.81-1.44-25.5-5.82-44.52-28.64-44.52-55.9,0-31.66,25.66-57.33,57.33-57.33s57.33,25.67,57.33,57.33Z"/>
    <path class="st3" d="M96.12,55.25c-12.52,5.87-12.93,29.62-12.93,29.62.56,6.37,3.04,23.66,5.6,40.74-4.37,1.07-8.92,1.63-13.61,1.63-4.41,0-8.69-.5-12.81-1.44,1.25-17.48,1.26-34.55-3-37.61-9.21-6.61-8.94-17.17-9.5-22.73-.89-8.8,4.47-7.25,4.47-7.25-1.1-9.88,6.54-5.02,6.54-5.02.2-12.01,8.55-3.77,8.55-3.77,2.65-12.04,11.8,4.96,11.8,4.96,10.76-10.8,27.41-5,14.89.87Z"/>
  </g>
</svg>