<?xml version="1.0" encoding="UTF-8"?>
<svg id="_圖層_1" data-name="圖層_1" xmlns="http://www.w3.org/2000/svg" version="1.1" viewBox="0 0 113.15 33.03">
  <!-- Generator: Adobe Illustrator 29.6.1, SVG Export Plug-In . SVG Version: 2.1.1 Build 9)  -->
  <defs>
    <style>
      .st0 {
        fill: #ed781e;
      }

      .st1 {
        fill: #fff;
      }
    </style>
  </defs>
  <rect class="st0" x="-1196.55" y="-129.02" width="1920" height="182.47"/>
  <g>
    <path class="st1" d="M18.59,24.55c-.97.49-3.2,1.06-6.04,1.06-7.05,0-11.41-4.14-11.41-10.3S6,4.55,13.08,4.55c2.82,0,4.81.57,5.68,1.03l-.88,3.04c-1.1-.5-2.74-.92-4.64-.92-4.79,0-8.01,2.78-8.01,7.44,0,4.15,2.8,7.28,7.94,7.28,1.75,0,3.59-.34,4.73-.86l.69,3Z"/>
    <path class="st1" d="M37.16,17.72c0,5.22-4.03,7.89-8.3,7.89-4.49,0-8.05-2.94-8.05-7.57s3.36-7.84,8.35-7.84,8,3.2,8,7.52ZM24.82,17.93c0,2.94,1.74,4.91,4.16,4.91s4.15-1.77,4.15-4.98c0-2.37-1.24-4.9-4.1-4.9s-4.21,2.41-4.21,4.96Z"/>
    <path class="st1" d="M40.84,15.01c0-1.71-.05-3.18-.12-4.44h3.4l.19,2.36h.09c.63-1.13,2.34-2.73,5.08-2.73,2.6,0,5.71,1.56,5.71,6.62v8.42h-3.88v-7.94c0-2.32-.93-3.98-3.16-3.98-1.71,0-2.83,1.19-3.25,2.31-.12.3-.17.74-.17,1.13v8.5h-3.88v-10.24Z"/>
    <path class="st1" d="M64.14,6.27v4.3h3.76v2.91h-3.76v6.1c0,1.8.41,2.86,2.03,2.86.72,0,1.25-.09,1.59-.19l.08,2.93c-.58.23-1.65.43-2.9.43-1.47,0-2.68-.53-3.39-1.31-.83-.88-1.19-2.33-1.19-4.17v-6.66h-2.21v-2.91h2.21v-3.4l3.78-.9Z"/>
    <path class="st1" d="M80.37,25.25l-.28-1.68h-.09c-.94,1.17-2.63,2.04-4.73,2.04-3.27,0-4.94-2.25-4.94-4.38,0-3.68,3.34-5.65,9.44-5.61v-.19c0-.78-.31-2.56-3.24-2.55-1.57,0-3.28.52-4.35,1.19l-.77-2.48c1.24-.75,3.26-1.39,5.75-1.39,5.02,0,6.49,3.1,6.49,6.35v5.09c0,1.4.08,2.72.24,3.6h-3.5ZM79.87,18.11c-3.08-.05-5.66.57-5.66,2.7,0,1.36.96,2.07,2.29,2.07,1.71,0,2.87-1.09,3.26-2.15.09-.27.11-.57.11-.83v-1.79Z"/>
    <path class="st1" d="M100.09,24.76c-.87.4-2.61.85-4.7.85-4.98,0-8.16-3.08-8.16-7.55s3.2-7.86,8.79-7.86c1.54,0,3.08.33,4.08.75l-.71,2.87c-.69-.35-1.7-.66-3.23-.66-3.08,0-4.95,2.01-4.94,4.7,0,3.02,2.23,4.71,4.95,4.71,1.5,0,2.55-.33,3.37-.66l.56,2.84Z"/>
    <path class="st1" d="M108.45,6.27v4.3h3.76v2.91h-3.76v6.1c0,1.8.41,2.86,2.03,2.86.72,0,1.25-.09,1.59-.19l.08,2.93c-.58.23-1.65.43-2.9.43-1.47,0-2.68-.53-3.39-1.31-.83-.88-1.19-2.33-1.19-4.17v-6.66h-2.21v-2.91h2.21v-3.4l3.78-.9Z"/>
  </g>
</svg>