<?xml version="1.0" encoding="UTF-8"?>
<svg id="_圖層_1" data-name="圖層_1" xmlns="http://www.w3.org/2000/svg" version="1.1" viewBox="0 0 105.06 33.03">
  <!-- Generator: Adobe Illustrator 29.6.1, SVG Export Plug-In . SVG Version: 2.1.1 Build 9)  -->
  <defs>
    <style>
      .st0 {
        fill: #ed781e;
      }

      .st1 {
        fill: #fff;
      }
    </style>
  </defs>
  <rect class="st0" x="-1030.22" y="-128.61" width="1920" height="182.47"/>
  <g>
    <path class="st1" d="M2.3,20.99c1.34.77,3.33,1.46,5.5,1.46,2.5,0,3.91-1.1,3.91-2.76,0-1.5-1.04-2.4-3.92-3.26-3.73-1.11-6.06-2.84-6.06-5.99,0-3.38,2.99-5.89,7.61-5.89,2.5,0,4.26.5,5.49,1.09l-.98,3.07c-.8-.39-2.4-1.06-4.58-1.06-2.53,0-3.58,1.26-3.58,2.44,0,1.55,1.3,2.29,4.23,3.23,3.85,1.24,5.77,2.95,5.77,6.11s-2.41,6.16-8.2,6.16c-2.36,0-4.83-.67-6.1-1.44l.92-3.18Z"/>
    <path class="st1" d="M22.45,18.99c.12,2.46,2.36,3.71,4.96,3.71,1.92,0,3.25-.28,4.53-.73l.58,2.64c-1.37.57-3.22,1.01-5.62,1.01-5.1,0-8.14-3.01-8.14-7.5,0-3.78,2.5-7.91,7.75-7.91s6.89,4.3,6.89,7.28c0,.64-.07,1.21-.15,1.51h-10.8ZM29.73,16.3c.01-1.03-.52-3.52-3.45-3.52-2.58,0-3.64,2.09-3.84,3.52h7.29Z"/>
    <path class="st1" d="M37.01,15.48c0-2.17-.03-3.59-.12-4.92h3.35l.13,2.98h.11c.78-2.26,2.65-3.34,4.37-3.34.38,0,.6.01.93.09v3.59c-.36-.08-.72-.13-1.22-.13-1.99,0-3.25,1.19-3.58,2.91-.06.32-.08.68-.08,1.02v7.57h-3.88v-9.77Z"/>
    <path class="st1" d="M52.06,10.56l2.69,7.5c.49,1.34.83,2.48,1.13,3.6h.09c.31-1.16.67-2.29,1.13-3.6l2.62-7.5h4.14l-6.18,14.69h-3.9l-5.96-14.69h4.23Z"/>
    <path class="st1" d="M70.9,6.36c0,1.11-.83,2.05-2.23,2.05-1.33,0-2.16-.94-2.16-2.05s.85-2.05,2.2-2.05,2.17.91,2.19,2.05ZM66.75,25.25v-14.69h3.88v14.69h-3.88Z"/>
    <path class="st1" d="M87.21,24.76c-.87.4-2.61.85-4.7.85-4.98,0-8.16-3.08-8.16-7.55s3.2-7.86,8.79-7.86c1.54,0,3.08.33,4.08.75l-.71,2.87c-.69-.35-1.7-.66-3.23-.66-3.08,0-4.95,2.01-4.94,4.7,0,3.02,2.23,4.71,4.95,4.71,1.5,0,2.55-.33,3.37-.66l.56,2.84Z"/>
    <path class="st1" d="M93.1,18.99c.12,2.46,2.36,3.71,4.96,3.71,1.92,0,3.25-.28,4.53-.73l.58,2.64c-1.37.57-3.22,1.01-5.62,1.01-5.1,0-8.14-3.01-8.14-7.5,0-3.78,2.5-7.91,7.75-7.91s6.89,4.3,6.89,7.28c0,.64-.07,1.21-.15,1.51h-10.8ZM100.38,16.3c.01-1.03-.52-3.52-3.45-3.52-2.58,0-3.64,2.09-3.84,3.52h7.29Z"/>
  </g>
</svg>