<?xml version="1.0" encoding="UTF-8"?>
<svg id="_圖層_1" data-name="圖層_1" xmlns="http://www.w3.org/2000/svg" version="1.1" viewBox="0 0 90.31 33.03">
  <!-- Generator: Adobe Illustrator 29.6.1, SVG Export Plug-In . SVG Version: 2.1.1 Build 9)  -->
  <defs>
    <style>
      .st0 {
        fill: #ed781e;
      }

      .st1 {
        fill: #fff;
      }
    </style>
  </defs>
  <rect class="st0" x="-882.95" y="-128.61" width="1920" height="182.47"/>
  <g>
    <path class="st1" d="M6.73,19.35l-1.95,5.9H.7L7.89,4.92h5.05l7.41,20.33h-4.27l-2.09-5.9h-7.26ZM13.28,16.45l-1.85-5.12c-.44-1.24-.8-2.46-1.13-3.55h-.06c-.32,1.11-.63,2.34-1.03,3.53l-1.8,5.15h5.87Z"/>
    <path class="st1" d="M23.38,25.25c.07-.95.12-2.56.12-4.17V3.65h3.88v9.08h.06c.96-1.5,2.76-2.52,5.23-2.52,3.91,0,6.83,2.97,6.8,7.49,0,5.3-3.76,7.92-7.35,7.92-2.07,0-4.02-.74-5.2-2.7h-.06l-.16,2.34h-3.31ZM27.38,18.89c0,.29.03.58.08.86.38,1.49,1.84,2.84,3.79,2.84,2.58,0,4.26-1.79,4.26-4.76,0-2.54-1.45-4.68-4.2-4.68-1.73,0-3.35,1.12-3.82,2.98-.07.29-.12.6-.12.97v1.8Z"/>
    <path class="st1" d="M58.54,17.72c0,5.22-4.03,7.89-8.3,7.89-4.49,0-8.05-2.94-8.05-7.57s3.36-7.84,8.35-7.84,8,3.2,8,7.52ZM46.21,17.93c0,2.94,1.74,4.91,4.16,4.91s4.15-1.77,4.15-4.98c0-2.37-1.24-4.9-4.1-4.9s-4.21,2.41-4.21,4.96Z"/>
    <path class="st1" d="M76.45,20.8c0,1.79.05,3.27.12,4.44h-3.4l-.18-2.45h-.09c-.63,1.08-2.18,2.81-5.18,2.81-2.67,0-5.56-1.47-5.56-6.59v-8.46h3.88v7.76c0,2.55.9,4.15,3.09,4.15,1.65,0,2.77-1.1,3.23-2.17.13-.32.21-.7.21-1.11v-8.64h3.88v10.24Z"/>
    <path class="st1" d="M85.62,6.27v4.3h3.76v2.91h-3.76v6.1c0,1.8.41,2.86,2.03,2.86.72,0,1.25-.09,1.59-.19l.08,2.93c-.58.23-1.64.43-2.9.43-1.47,0-2.68-.53-3.39-1.31-.83-.88-1.19-2.33-1.19-4.17v-6.66h-2.21v-2.91h2.21v-3.4l3.78-.9Z"/>
  </g>
</svg>